<?xml version="1.0" encoding="utf-8"?>
<!-- Generator: Adobe Illustrator 27.5.0, SVG Export Plug-In . SVG Version: 6.00 Build 0)  -->
<svg version="1.1" id="Layer_37" xmlns="http://www.w3.org/2000/svg" xmlns:xlink="http://www.w3.org/1999/xlink" x="0px" y="0px"
	 viewBox="0 0 2000 2000" style="enable-background:new 0 0 2000 2000;" xml:space="preserve">
<g>
	<rect style="fill:#FFFFFF;" width="2000" height="2000"/>
</g>
<g>
	<g>
		<rect style="fill:#FFFFFF;" width="2000" height="2000"/>
	</g>
	<g>
		<g>
			<ellipse style="fill:#E5E6EB;" cx="1000" cy="1795.754" rx="822.193" ry="26.085"/>
		</g>
		<g>
			<g>
				<path style="fill:#84A9FF;" d="M286.73,677.722v797.351c0,30.669,24.862,55.531,55.531,55.531h1315.478
					c30.669,0,55.531-24.862,55.531-55.531V677.722c0-30.669-24.862-55.531-55.531-55.531H342.261
					C311.592,622.191,286.73,647.053,286.73,677.722z"/>
			</g>
			<g>
				<rect x="378.241" y="713.698" style="fill:#FFFFFF;" width="1243.519" height="679.347"/>
			</g>
			<g>
				<path style="fill:#050F64;" d="M336.639,672.104v762.535h1326.715V672.104H336.639z M1621.76,1393.045H378.241V713.698H1621.76
					V1393.045z"/>
			</g>
			<g>
				
					<ellipse transform="matrix(0.1602 -0.9871 0.9871 0.1602 -626.2829 2234.4512)" style="fill:#050F64;" cx="1000" cy="1485.279" rx="31.343" ry="31.343"/>
			</g>
			<g>
				<rect x="841.567" y="1530.603" style="fill:#050F64;" width="316.866" height="160.365"/>
			</g>
			<g>
				<polygon style="fill:#84A9FF;" points="1497.196,1793.37 502.804,1793.37 549.819,1687.104 1450.181,1687.104 				"/>
			</g>
			<g>
				<g>
					<path style="fill:#FF0000;" d="M1459.169,1123.926l-32.547-80.618c0.213,3.304,0.305,6.661,0.305,10.057
						c0,7.39-0.584,14.701-1.725,21.853l28.646,70.985l72.299-63.17c0.796-6.289,1.353-12.645,1.632-19.053L1459.169,1123.926z
						 M624.37,891.24l54.93-72.856c-6.515,0.916-12.923,2.083-19.226,3.476l-58.394,77.434l73.679,18.244h0.013
						c10.721-3.052,22.012-4.883,33.754-5.294L624.37,891.24z M849.704,1135.416l-0.013,0.013
						c-8.505,6.886-17.209,13.414-26.126,19.464l87.969-19.756l-24.613,88.115c5.984-4.511,11.862-9.182,17.673-13.958
						l25.688-91.962L849.704,1135.416z M1158.43,1141.612c-7.165-5.785-14.184-11.849-21.07-18.058l-82.847-17.673l23.445,88.911
						c5.838,5.214,11.769,10.349,17.779,15.351l-22.888-86.788L1158.43,1141.612z M1100.408,893.39
						c-5.679,4.564-11.291,9.261-16.824,14.051l89.521-4.087l-35.188,78.323c7.47-6.448,15.086-12.685,22.888-18.576l33.237-73.984
						L1100.408,893.39z M584.936,1113.842v74.103l-86.284-17.859c2.667,5.241,5.506,10.349,8.545,15.312l91.007,18.841v-66.182
						C593.03,1130.573,588.585,1122.479,584.936,1113.842z"/>
				</g>
				<g>
					<path style="fill:#155BCD;" d="M1054.513,1105.881l23.445,88.911c-26.603-23.71-51.534-49.159-75.39-73.042l-0.279-0.279
						l-66.487-68.106c-62.586-57.77-128.397-141.227-221.474-141.227c-1.738,0-3.477,0.026-5.201,0.106L624.37,891.24l54.93-72.856
						c11.875-1.672,24.109-2.547,36.634-2.547c118.764,0,207.038,94.695,284.074,171.731l64.192,65.797
						c23.511,21.707,47.474,47.036,73.161,70.189L1054.513,1105.881z"/>
				</g>
				<g>
					<path style="fill:#FFCA32;" d="M1000.029,1119.155c-30.636,30.623-61.719,62.394-95.434,90.138l25.688-91.962l-80.578,18.085
						c31.326-25.303,59.893-55.156,86.098-82.051L1000.029,1119.155z"/>
				</g>
				<g>
					<path style="fill:#FFCA32;" d="M1173.105,903.354l-35.188,78.323l-0.013,0.013c-26.51,22.861-50.99,48.376-73.705,71.675
						l-64.192-65.797c27.014-27.014,54.373-54.891,83.576-80.127L1173.105,903.354z"/>
				</g>
				<g>
					<path style="fill:#FFCA32;" d="M911.534,1135.137l-24.613,88.115c-52.038,39.327-110.856,67.655-183.832,67.655
						c-85.938,0-156.234-40.442-195.893-105.509l91.007,18.841v-66.182c24.148,35.015,63.953,56.549,111.307,56.549
						c41.49,0,79.371-16.187,114.054-39.712L911.534,1135.137z"/>
				</g>
				<g>
					<path style="fill:#FFCA32;" d="M573.088,1053.365c0,22.025,4.18,42.419,11.849,60.477v74.103l-86.284-17.859
						c-17.196-33.847-26.683-73.387-26.683-116.721c0-109.37,76.439-206.799,188.104-231.505l-58.394,77.434l73.679,18.244
						C615.148,934.747,573.088,990.725,573.088,1053.365z"/>
				</g>
				<g>
					<path style="fill:#155BCD;" d="M1528.031,1053.365c0,3.556-0.08,7.085-0.252,10.615l-68.61,59.946l-32.547-80.618
						c-4.524-76.611-60.742-131.17-136.119-131.17c-47.832,0-90.834,21.495-129.697,50.963l33.237-73.984l-93.634,4.273
						c55.156-44.396,117.543-77.553,196.516-77.553C1433.349,815.836,1528.031,915.348,1528.031,1053.365z"/>
				</g>
				<g>
					<path style="fill:#155BCD;" d="M1526.147,1083.033c-14.569,113.908-111.971,207.874-242.066,207.874
						c-72.75,0-134.049-35.532-188.343-80.764l-22.888-86.788l85.58,18.257c37.231,30.106,78.508,52.993,127.256,52.993
						c72.378,0,129.1-53.537,139.516-119.388l28.646,70.985L1526.147,1083.033z"/>
				</g>
				<g>
					<g>
						<path style="fill:#FFFFFF;" d="M930.283,1117.331l-25.688,91.962c-5.811,4.777-11.689,9.447-17.673,13.958l24.613-88.115
							l-87.969,19.756l26.126-19.464l0.013-0.013L930.283,1117.331z"/>
					</g>
				</g>
				<g>
					<g>
						<path style="fill:#FFFFFF;" d="M598.205,1138.056v66.182l-91.007-18.841c-3.038-4.962-5.878-10.071-8.545-15.312
							l86.284,17.859v-74.103C588.585,1122.479,593.03,1130.573,598.205,1138.056z"/>
					</g>
				</g>
				<g>
					<g>
						<path style="fill:#FFFFFF;" d="M1072.85,1123.355l22.888,86.788c-6.011-5.002-11.942-10.137-17.779-15.351l-23.445-88.911
							l82.847,17.673l21.07,18.058L1072.85,1123.355z"/>
					</g>
				</g>
				<g>
					<g>
						<path style="fill:#FFFFFF;" d="M1194.042,889.117l-33.237,73.984c-7.802,5.891-15.418,12.127-22.888,18.576l35.188-78.323
							l-89.521,4.087c5.533-4.79,11.146-9.487,16.824-14.051L1194.042,889.117z"/>
					</g>
				</g>
				<g>
					<path style="fill:#FFFFFF;" d="M1527.779,1063.979c-0.279,6.408-0.836,12.764-1.632,19.053l-72.299,63.17l-28.646-70.985
						c1.141-7.152,1.725-14.462,1.725-21.853c0-3.397-0.093-6.754-0.305-10.057l32.547,80.618L1527.779,1063.979z"/>
				</g>
				<g>
					<g>
						<path style="fill:#FFFFFF;" d="M709.127,912.244l-33.754,5.294h-0.013l-73.679-18.244l58.394-77.434
							c6.302-1.393,12.711-2.561,19.226-3.476l-54.93,72.856L709.127,912.244z"/>
					</g>
				</g>
			</g>
			<g>
				<g>
					<path style="fill:#050F64;" d="M447.903,773.415l-49.471,0.025c0.036-1.694,0.367-3.322,1.389-4.637
						c1.171-1.52,3.074-2.315,4.957-2.642c1.891-0.326,3.828-0.24,5.742-0.335c4.693-0.233,9.329-1.577,13.42-3.895
						c2.137-1.2,4.136-2.677,6.444-3.519l13.484,0.347c1.845,1.987,3.033,4.592,3.606,7.268
						C447.995,768.449,448.054,770.938,447.903,773.415z"/>
				</g>
				<g>
					<path style="fill:#050F64;" d="M591.693,595.249c-2.628-13.044-15.331-21.488-28.375-18.86
						c-0.01,0.002-0.019,0.005-0.029,0.006l-100.308,14.691c-0.368,0.037-0.729,0.101-1.091,0.16l-0.657,0.096l0,0.005
						c-7.214,1.448-13.025,7.159-14.43,14.59l-0.002,0.029c-0.105,0.563-0.182,1.135-0.238,1.716l-0.012,0.137l-0.007-0.001
						l-18.09,150.489l17.2,1.44l33.62-132.567l85.871-3.26c2.489,0.305,5.067,0.229,7.66-0.291l0.023-0.001l-0.001-0.003
						c0.001,0,0.002,0,0.003-0.001C585.877,620.997,594.321,608.293,591.693,595.249z"/>
				</g>
				<g>
					<path style="fill:#050F64;" d="M503.752,774.16l-49.469,0.449c0.022-1.694,0.338-3.325,1.349-4.649
						c1.158-1.53,3.054-2.341,4.935-2.684c1.888-0.342,3.826-0.273,5.739-0.385c4.691-0.273,9.315-1.657,13.386-4.01
						c2.126-1.218,4.113-2.713,6.413-3.574l13.486,0.231c1.862,1.971,3.072,4.566,3.668,7.237
						C503.801,769.193,503.881,771.682,503.752,774.16z"/>
				</g>
				<g>
					<path style="fill:#050F64;" d="M501.433,761.767l-17.16-1.849c0,0,21.664-150.016,21.671-150.014l0.015-0.137
						c0.07-0.58,0.16-1.15,0.278-1.71l0.003-0.029c1.492-6.977,6.87-12.327,13.557-13.993l0.205-0.039
						c0.478-0.113,0.962-0.204,1.452-0.278l99.65-19.074c0.009-0.002,0.018-0.005,0.028-0.008
						c12.916-3.194,25.977,4.687,29.172,17.603c1.933,7.817-0.247,16.251-5.714,22.161c-6.236,6.742-15.274,7.995-23.958,8.618
						c-3.985,0.286-7.968,0.592-11.953,0.888c-5.825,0.433-11.65,0.866-17.475,1.299c-6.456,0.48-12.911,0.96-19.367,1.439
						c-5.876,0.437-11.752,0.873-17.628,1.31c-4.086,0.304-8.172,0.607-12.258,0.911c-0.232,0.017-3.447,0.071-3.5,0.26
						C538.452,629.127,501.433,761.767,501.433,761.767z"/>
				</g>
				<g>
					<path style="fill:#155BCC;" d="M503.6,753.984h1.499l22.925-82.118l-1.413-0.303L503.6,753.984z M489.888,710.932l1.42,0.252
						l14.627-101.28h0.007l0.014-0.137c0.072-0.584,0.159-1.154,0.281-1.708v-0.029c1.492-6.978,6.87-12.327,13.56-13.986v-0.007
						l0.202-0.043c0.483-0.108,0.966-0.202,1.456-0.274l99.65-19.075c0.007-0.007,0.014-0.007,0.022-0.007
						c8.665-2.141,17.395,0.699,23.163,6.697l2.876,1.118c-4.708-6.142-12.097-9.97-20.236-9.97c-2.062,0-4.123,0.252-6.149,0.75
						l-99.6,19.068c-0.483,0.072-1.009,0.173-1.514,0.296l-1.471,0.281l0.022,0.115c-6.719,2.141-11.909,7.8-13.387,14.735
						l-0.021,0.079v0.029c-0.029,0.122-0.05,0.238-0.072,0.36h-0.007l-0.022,0.166c-0.065,0.375-0.122,0.764-0.173,1.175
						L489.888,710.932z"/>
				</g>
				<g>
					<g>
						<path style="fill:#EA8096;" d="M387.135,406.943c1.911-1.936,5.151-1.942,7.374-0.013c2.727,2.404,5.557,4.767,8.295,7.051
							l2.006,1.675c1.109,0.921,2.235,1.818,3.36,2.714c0.627,0.5,1.255,0.999,1.878,1.502l2.618,2.093l2.665,2.026
							c0.638,0.477,1.271,0.962,1.903,1.447c1.117,0.857,2.273,1.743,3.438,2.564l5.402,3.875l5.498,3.69
							c1.162,0.784,2.372,1.528,3.543,2.247c0.674,0.415,1.348,0.829,2.011,1.249c8.066,4.898,15.573,8.658,22.948,11.493
							c8.066,3.1,16.094,5.11,23.859,5.976c14.477,1.623,30.039-0.208,48.964-5.75c7.395-2.16,15.459-4.912,24.651-8.411
							c7.348-2.833,15.183-6.035,24.664-10.078c4.948-2.044,10.503-2.044,15.242,0c4.247,1.833,7.455,5.122,9.032,9.263
							c1.575,4.135,1.337,8.709-0.669,12.881c-2.275,4.73-6.603,8.411-11.877,10.101c-10.299,3.108-18.838,5.541-26.875,7.661
							c-10.497,2.72-19.345,4.682-27.846,6.175c-10.646,1.862-20.194,2.848-29.192,3.012c-0.9,0.018-1.796,0.026-2.689,0.026
							c-9.52,0-18.677-0.978-27.255-2.913c-9.373-2.115-18.786-5.604-27.979-10.366c-7.995-4.142-15.92-9.261-24.229-15.654
							c-0.641-0.512-1.289-1.016-1.936-1.521c-1.195-0.931-2.43-1.893-3.601-2.885l-5.377-4.54l-5.195-4.671
							c-1.135-1.005-2.241-2.064-3.31-3.089c-0.588-0.563-1.175-1.126-1.771-1.684l-2.522-2.399l-2.453-2.447
							c-0.572-0.575-1.146-1.147-1.721-1.719c-1.062-1.057-2.123-2.112-3.162-3.188l-1.774-1.848
							c-2.553-2.656-5.191-5.402-7.705-8.166C385.312,412.121,385.22,408.88,387.135,406.943z"/>
					</g>
					<g>
						<g>
							<path style="fill:#FF685A;" d="M547.386,487.301l43.443-14.579c13.141-4.41,20.899-17.85,16.489-30.991l-0.681-0.788
								c-4.41-13.141-18.637-20.218-31.778-15.808l-43.443,14.579L547.386,487.301z"/>
						</g>
					</g>
				</g>
				<g>
					<path style="fill:#FF654F;" d="M608.382,421.383L608.382,421.383c-26.784-4.275-51.493,15.275-53.493,42.324l-8.513,115.165
						c26.455,24.979,76.841,35.118,104.595,20.606l5.208-119.553C657.422,451.106,636.868,425.929,608.382,421.383z"/>
				</g>
				<g>
					<path style="fill:#DA5544;" d="M550.699,500.889l1.427,0.123l2.761-37.307c1.817-24.54,22.326-42.915,46.116-42.915
						c2.43,0,4.895,0.195,7.375,0.591c2.574,0.411,5.083,0.988,7.512,1.723l0.519-1.341c-2.523-0.771-5.125-1.377-7.8-1.802
						c-2.516-0.403-5.075-0.605-7.606-0.605c-24.828,0-45.719,19.436-47.551,44.249L550.699,500.889z M544.888,579.453l0.497,0.469
						c15.06,14.223,38.208,24.186,61.486,26.919v-1.471c-22.175-2.682-45.287-12.14-60.498-26.501l3.648-49.389h-1.442
						L544.888,579.453z M656.181,479.925l-3.951,90.646l1.442,0.043l3.943-90.624c0.187-4.318-0.101-8.557-0.829-12.667
						l-1.356,0.613C656.095,471.822,656.354,475.838,656.181,479.925z"/>
				</g>
				<g>
					<g>
						<path style="fill:#F4BCC7;" d="M600.122,405.022l-5.195,32.548c6.336,5.72,13.405,6.848,21.207,3.385l5.195-32.548
							L600.122,405.022z"/>
					</g>
					<g>
						<path style="fill:#EA8096;" d="M600.122,405.022l-2.35,14.722c1.396,0.814,2.931,1.439,4.575,1.847
							c0.527,0.128,1.058,0.234,1.591,0.32c5.837,0.932,11.751-0.898,15.997-4.769l1.394-8.735L600.122,405.022z"/>
					</g>
					<g>
						<path style="fill:#F4BCC7;" d="M593.66,383.578l-2.323,19.219c-0.928,7.679,4.019,14.843,11.529,16.694l0,0
							c6.824,1.683,14.028-0.949,18.048-6.715c2.661-3.817,5.237-8.324,7.778-13.105c4.062-7.64,3.753-17-1.166-24.118
							c-4.193-6.067-10.257-8.711-18.332-7.679C601.036,368.916,594.647,375.413,593.66,383.578z"/>
					</g>
				</g>
				<g>
					<g>
						<path style="fill:#F4BCC7;" d="M444.457,573.08c3.635-0.011,7.321-0.125,10.886-0.236l2.61-0.079
							c1.449-0.049,2.895-0.126,4.34-0.203c0.793-0.042,1.584-0.085,2.375-0.122l3.347-0.173l3.339-0.255
							c0.789-0.066,1.579-0.123,2.37-0.18c1.409-0.101,2.866-0.206,4.288-0.367l6.612-0.689l6.56-0.893
							c1.393-0.184,2.795-0.433,4.151-0.672c0.776-0.138,1.552-0.275,2.323-0.401c9.282-1.692,17.391-3.865,24.791-6.643
							c8.088-3.037,15.426-6.864,21.807-11.374c11.903-8.404,22.323-20.101,32.794-36.812c4.094-6.524,8.297-13.936,12.847-22.658
							c3.605-6.983,7.339-14.581,11.75-23.912c2.341-4.814,6.496-8.503,11.398-10.121c4.393-1.45,8.975-1.119,12.904,0.929
							c3.923,2.045,6.783,5.624,8.052,10.075c1.44,5.048,0.649,10.674-2.173,15.442c-5.662,9.198-10.43,16.688-15.009,23.572
							c-6.042,9.002-11.356,16.344-16.721,23.107c-6.723,8.461-13.209,15.537-19.828,21.636
							c-7.705,7.111-15.883,13.075-24.307,17.725c-8.415,4.642-17.77,8.284-27.804,10.826c-8.729,2.213-18.053,3.647-28.512,4.383
							c-0.815,0.043-1.631,0.096-2.446,0.148c-1.515,0.097-3.082,0.198-4.62,0.234l-7.034,0.175l-6.985-0.043
							c-0.035,0-0.07,0-0.104,0c-1.481,0-2.974-0.057-4.419-0.112c-0.815-0.031-1.628-0.061-2.445-0.083l-3.478-0.118l-3.46-0.201
							c-0.81-0.051-1.619-0.097-2.428-0.143c-1.495-0.085-2.99-0.17-4.482-0.284l-2.545-0.203
							c-3.675-0.292-7.475-0.593-11.193-0.991c-2.981-0.295-5.202-2.657-5.056-5.377
							C439.096,575.269,441.513,573.114,444.457,573.08z"/>
					</g>
					<g>
						<path style="fill:#FF685A;" d="M610.928,531.479l23.445-39.373c7.092-11.909,4.216-27.159-7.694-34.251l-1.03-0.154
							c-11.909-7.092-27.313-3.186-34.404,8.723l-23.445,39.372L610.928,531.479z"/>
					</g>
					<g>
						<path style="fill:#DA5544;" d="M583.825,476.076l1.276,0.678l6.149-10.331c5.803-9.747,17.179-14.13,27.647-11.506
							l0.613-1.334c-2.17-0.57-4.419-0.858-6.676-0.858c-9.321,0-18.066,4.967-22.824,12.962L583.825,476.076z M565.823,506.296
							l27.481,16.365l0.699-1.262l-26.205-15.6l4.909-8.24l-1.276-0.678L565.823,506.296z M634.374,492.108l-18.592,31.222
							l1.377,0.497l18.455-30.984c3.662-6.149,4.888-13.243,3.446-19.969c-1.276-5.969-4.542-11.095-9.321-14.692l-0.706,1.269
							C638.945,467.05,640.977,481.028,634.374,492.108z"/>
					</g>
				</g>
				<g>
					<g>
						
							<rect x="432.052" y="563.593" transform="matrix(0.987 -0.1609 0.1609 0.987 -84.5268 87.831)" style="fill:#155BCC;" width="136.101" height="4.569"/>
					</g>
					<g>
						<polygon style="fill:#155BCC;" points="432.571,574.571 516.003,560.971 479.1,496.881 395.669,510.481 						"/>
					</g>
					<g>
						<path style="fill:#FFFFFF;" d="M452.11,542.441c2.838,6.726,7.159,11.326,9.65,10.275c2.491-1.051,2.21-7.356-0.628-14.082
							c-2.838-6.726-7.159-11.326-9.65-10.275C448.99,529.411,449.271,535.715,452.11,542.441z"/>
					</g>
				</g>
				<g>
					<path style="fill:#050F64;" d="M588.389,386.356c-1.165-1.638-0.79-4.186-0.143-6.253s1.522-4.225,1.15-6.36
						c-0.474-2.724-2.883-4.651-2.82-7.45c0.062-2.738,2.396-4.505,4.429-5.731c5.408-3.262,10.817-6.525,16.225-9.787
						c2.215-1.336,4.482-2.692,6.916-3.086c2.434-0.393,5.109,0.346,6.653,2.615c0.809,1.189,1.258,2.709,2.117,3.846
						c1.942,2.569,5.25,2.44,8.15,2.456c3.579,0.02,7.329,0.631,10.154,3.228c2.825,2.597,4.335,7.683,2.537,11.51
						c-0.852,1.812-2.283,3.093-3.508,4.558c-1.225,1.465-2.327,3.379-2.179,5.433c0.199,2.76,2.448,4.412,3.995,6.404
						c2.179,2.808,3.128,6.968,2.468,10.817c-0.66,3.849-2.913,7.285-5.857,8.935c-2.552,1.43-6.131,1.118-7.344-1.898
						c-1.385-3.442,0.955-8.578-1.408-11.094c-2.841-3.024-8.137,2.504-10.924-0.595c-1.491-1.658-1.115-4.753-2.27-6.772
						c-1.524-2.663-4.66-2.314-7.018-2.123c-2.551,0.206-4.901,0.044-7.424-0.213c-2.31-0.235-4.276,0.285-6.471,1.269
						C593.55,387.08,590.356,388.928,588.389,386.356z"/>
				</g>
				<g>
					<path style="fill:#F4BCC7;" d="M620.859,396.668c-0.623,3.905,2.429,7.639,6.817,8.339c4.388,0.7,8.451-1.898,9.074-5.803
						c0.623-3.905-2.429-7.639-6.817-8.339C625.545,390.165,621.483,392.763,620.859,396.668z"/>
				</g>
				<g>
					<path style="fill:#F4BCC7;" d="M584.976,547.521c-1.563,1.572-3.135,3.075-4.706,4.529
						c-7.705,7.114-15.884,13.079-24.307,17.725c-8.415,4.638-17.768,8.288-27.805,10.823c-8.533,2.163-17.649,3.591-27.83,4.334
						l-5.331-15.664c0.118-0.017,0.228-0.042,0.338-0.059c0.777-0.135,1.555-0.27,2.323-0.397c9.277-1.698,17.388-3.87,24.789-6.649
						c8.086-3.033,15.427-6.86,21.806-11.372c7.452-5.264,14.329-11.811,20.987-20.083c0.972,1.36,1.977,2.687,2.999,4.013
						c1.428,1.943,2.991,3.768,4.689,5.466c1.386,1.597,2.949,2.991,4.698,4.19c1.081,0.617,2.171,1.242,3.253,1.859
						C582.205,546.837,583.573,547.268,584.976,547.521z"/>
				</g>
				<g>
					<path style="fill:#84A9FF;" d="M557.315,517.376c-0.228,0.22-0.296,0.203-0.101-0.211
						C557.247,517.232,557.281,517.309,557.315,517.376z"/>
				</g>
			</g>
			<g>
				<g>
					<g>
						<path style="fill:#050F64;" d="M906.893,778.433c-0.926-1.05-2.351-1.537-3.738-1.684c-1.393-0.146-2.799,0.01-4.198,0.033
							c-3.429,0.058-6.87-0.697-9.961-2.187c-1.614-0.77-3.142-1.75-4.863-2.251l-9.803,0.905c-1.248,1.536-1.987,3.491-2.275,5.467
							c-0.263,1.789-0.185,3.605,0.044,5.402l0.135,2.048l36.021-2.374l-0.135-2.048l0.008,0
							C908.021,780.511,907.701,779.341,906.893,778.433z"/>
					</g>
					<g>
						<polygon style="fill:#F4BCC7;" points="872.378,762.425 874.331,773.249 884.133,772.344 884.128,762.215 						"/>
					</g>
					<g>
						<path style="fill:#050F64;" d="M952.732,777.406c-0.957-1.022-2.395-1.467-3.786-1.572c-1.396-0.104-2.798,0.094-4.195,0.158
							c-3.426,0.16-6.888-0.493-10.022-1.89c-1.636-0.722-3.192-1.656-4.928-2.106l-9.771,1.196
							c-1.202,1.573-1.882,3.548-2.111,5.533c-0.209,1.796-0.078,3.609,0.205,5.398l0.196,2.043l35.934-3.445l-0.196-2.043
							l0.008-0.001C953.92,779.45,953.566,778.29,952.732,777.406z"/>
					</g>
					<g>
						<polygon style="fill:#F4BCC7;" points="917.756,762.432 920.029,773.193 929.801,771.997 929.494,761.872 						"/>
					</g>
					<g>
						<path style="fill:#050F64;" d="M933.663,591.872c-0.444-9.651-7.717-17.694-17.312-19.069l-113.064-10.327
							c-0.011-0.001-0.021-0.004-0.032-0.005c-14.493-2.107-27.951,7.934-30.058,22.427c-1.569,10.79,3.598,21.003,12.321,26.388
							l-0.002,0.004c0.008,0.003,0.016,0.006,0.024,0.01c2.988,1.841,6.391,3.119,10.085,3.656
							c0.562,0.082,66.549,4.482,100.646,0.422l20.663,147.094l13.465-0.642L933.663,591.872z"/>
					</g>
					<g>
						<g>
							<g>
								<path style="fill:#EA8096;" d="M939.739,557.356c1.041-2.563,0.132-5.42-2.073-6.518l-4.88-2.476l-4.831-2.546
									c-3.235-1.669-6.383-3.467-9.562-5.202c-6.278-3.586-12.495-7.227-18.402-11.173c-5.91-3.935-11.583-8.078-16.798-12.53
									c-5.22-4.45-9.949-9.21-14.089-14.324c-4.145-5.12-7.732-10.565-10.915-16.48c-3.198-5.894-6.077-12.184-8.901-18.727
									c-2.82-6.542-5.589-13.321-8.456-20.166c-2.869-6.846-5.802-13.766-8.909-20.66c-2.072-4.326-5.901-7.262-10.365-8.399
									c-4.454-1.15-9.471-0.536-13.977,2.051l0,0c-4.506,2.587-7.609,6.593-9.002,10.865c-1.377,4.27-1.11,8.85,1.252,12.728
									c3.869,6.025,7.627,12.176,11.405,18.421c3.779,6.247,7.551,12.614,11.549,19.075c4.001,6.452,8.25,13.019,13.075,19.425
									c4.793,6.411,10.298,12.577,16.304,18.064c6.006,5.502,12.498,10.3,19.164,14.461c6.672,4.169,13.517,7.743,20.41,10.99
									c6.893,3.254,13.877,6.062,20.855,8.781c3.509,1.292,6.993,2.647,10.515,3.85l5.266,1.849l5.283,1.764
									C936.034,561.29,938.698,559.92,939.739,557.356z"/>
							</g>
						</g>
						<g>
							<path style="fill:#FFFFFF;" d="M818.66,487.6l-20.062-36.395c-6.068-11.009-3.001-24.744,8.007-30.813l0,0
								c11.009-6.068,25.79-2.171,31.859,8.837l20.062,36.395L818.66,487.6z"/>
						</g>
					</g>
					<g>
						<path style="fill:#FFFFFF;" d="M793.214,407.236L793.214,407.236c31.336,4.279,49.295,34.865,42.634,65.783
							c-4.852,22.522-14.701,91.04-14.701,91.04c-2.294,9.453-76.391,61.421-87.197,35.212
							c-13.507-32.758,3.899-115.028,8.793-152.826C745.949,421.693,768.485,403.859,793.214,407.236z"/>
					</g>
					<g>
						<path style="fill:#83A8FF;" d="M754.054,420.169c-6.568,6.96-11.065,16.002-12.379,26.137
							c-0.941,7.258-2.313,15.97-3.9,26.058c-1.562,9.915-3.257,20.682-4.801,31.71l1.049,0.33
							c3.114-22.334,6.841-43.432,8.723-57.958c1.279-9.865,5.624-18.635,11.966-25.397L754.054,420.169z M832.4,491.458
							c-2.956,17.198-6.353,39.457-8.633,54.766l0.995,0.647c2.277-15.288,5.706-37.762,8.68-55.089L832.4,491.458z
							 M779.552,595.674c-8.371,4.442-16.864,8.066-24.284,9.8l0.162,1.063c8.051-1.871,16.843-5.828,24.248-9.732L779.552,595.674z
							 M729.846,541.609h-1.099c-1.311,17.202-1.408,33.337,0.855,46.007c0.334-0.216,0.668-0.431,0.991-0.643
							C728.435,574.469,728.557,558.545,729.846,541.609z M818.527,567.954c-3.146,3.469-8.838,8.271-15.852,13.316l0.198,1.178
							c7.118-5.085,13.571-10.382,16.94-14.307L818.527,567.954z M828.216,427.344c-1.181-1.688-2.453-3.29-3.807-4.798
							l-1.142,0.341c10.853,11.898,15.956,29.003,13.241,46.535l1.02,0.492C839.952,454.691,836.634,439.346,828.216,427.344z
							 M793.36,406.167c-2.043-0.276-4.119-0.42-6.166-0.42c-1.142,0-2.273,0.043-3.397,0.129c0.011,0.37,0.018,0.733,0.025,1.081
							c3.07-0.237,6.213-0.154,9.391,0.28h0.004c5.444,0.743,10.486,2.28,15.065,4.478c0.104-0.345,0.212-0.689,0.32-1.027
							C803.871,408.436,798.75,406.906,793.36,406.167z"/>
					</g>
					<g>
						<g>
							<path style="fill:#050F64;" d="M792.451,411.366c0,0-23.191,5.427-22.749-31.646c0,0,8.773-7.485,9.406-7.857
								c0.633-0.372,11.654,23.918,11.654,23.918L792.451,411.366z"/>
						</g>
						<g>
							<g>
								<path style="fill:#F4BCC7;" d="M802.561,398.602l-2.934,23.766c-7.467,3.43-14.285,2.432-20.455-2.995l2.934-23.766
									L802.561,398.602z"/>
							</g>
							<g>
								<path style="fill:#EA8096;" d="M802.146,401.446l-1.14,7.786c-3.345,1.383-7.051,1.983-10.847,1.61
									c-0.214-0.024-0.428-0.049-0.641-0.08c-3.543-0.519-6.756-2.378-8.878-5.13l1.052-7.182L802.146,401.446z"/>
							</g>
							<g>
								<path style="fill:#F4BCC7;" d="M816.137,381.003l-2.788,7.46l-1.787,4.086c-1.821,10.077-11.07,17.069-21.264,16.071
									c-1.012-0.099-2.035-0.344-3.015-0.734c-0.372-0.151-0.745-0.317-1.11-0.51c-0.076-0.036-0.151-0.079-0.227-0.121
									c-1.369-0.757-2.595-1.817-3.546-3.15c-2.058-2.898-3.24-5.928-4.281-9.047c-0.909-2.721-1.7-5.398-2.172-8.084
									c-0.561-3.194-0.664-6.409,0.033-9.751l2.683-19.246l29.849,9.222L816.137,381.003z"/>
							</g>
							<g>
								<path style="fill:#050F64;" d="M813.895,374.672c0,0,0.211-6.646-2.9-13.489c-2.675-5.884-13.5-13.845-23.868-8.817
									c-0.061-3.431-1.516-6.753-4.314-9.017c-5.166-4.18-12.91-3.174-17.297,2.247c-4.387,5.422-3.756,13.205,1.41,17.385
									c1.563,1.265,3.363,2.047,5.234,2.383c-0.148,0.301-0.293,0.612-0.434,0.945c-2.141,5.057-3.914,15.96,2.14,20.259
									c2.041,1.449,7.319,0.304,8.191-6.768c0.049-0.396-0.011-12.065,1.597-15.205c0.731,1.318,3.164,3.937,10.823,3.205
									c3.827-0.366,6.969,0.081,9.539,1.164c3.808,3.654,6.356,7.547,9.195,10.799c2.788,3.192,0.622,5.993-1.641,8.65
									c-3.341,3.922-0.89,9.993,2.37,11.792c0,0-5.127-6.083,1.096-10.876C819.907,385.578,817.625,375.875,813.895,374.672z"/>
							</g>
							<g>
								<path style="fill:#F4BCC7;" d="M782.477,381.873c-0.602,4.11-4.422,6.954-8.532,6.352c-4.11-0.602-6.954-4.422-6.352-8.532
									c0.602-4.11,4.422-6.954,8.532-6.352C780.235,373.943,783.079,377.763,782.477,381.873z"/>
							</g>
						</g>
					</g>
					<g>
						<g>
							<g>
								<path style="fill:#F4BCC7;" d="M872.985,585.489c1.466-2.347,1.06-5.317-0.923-6.778l-4.382-3.277l-4.322-3.337
									c-2.901-2.199-5.693-4.511-8.527-6.766c-5.57-4.61-11.069-9.265-16.211-14.165c-5.146-4.891-10.024-9.946-14.398-15.227
									c-4.378-5.28-8.221-10.781-11.421-16.529c-3.205-5.755-5.804-11.736-7.924-18.109c-2.139-6.355-3.896-13.046-5.555-19.977
									c-1.655-6.929-3.22-14.082-4.87-21.318c-1.652-7.237-3.354-14.557-5.232-21.883c-1.299-4.617-4.567-8.167-8.77-10.053
									c-4.19-1.897-9.238-2.153-14.122-0.379c-4.883,1.775-8.627,5.189-10.733,9.159c-2.089,3.971-2.612,8.528-0.951,12.754
									c2.778,6.6,5.424,13.305,8.074,20.105c2.651,6.803,5.273,13.723,8.104,20.774c2.834,7.043,5.893,14.241,9.547,21.381
									c3.622,7.139,7.987,14.158,12.962,20.594c4.973,6.451,10.545,12.292,16.398,17.536c5.857,5.253,11.988,9.948,18.221,14.329
									c6.233,4.388,12.63,8.354,19.039,12.23c3.236,1.875,6.435,3.808,9.698,5.598l4.87,2.726l4.901,2.645
									C868.66,588.728,871.519,587.836,872.985,585.489z"/>
							</g>
						</g>
						<g>
							<path style="fill:#FFFFFF;" d="M765.675,495.987l-13.518-39.298c-4.089-11.887,1.29-24.892,13.177-28.981l0,0
								c11.887-4.089,25.78,2.287,29.869,14.174l13.518,39.298L765.675,495.987z"/>
						</g>
						<g>
							<path style="fill:#83A8FF;" d="M806.367,471.525l-0.799,0.494l3.152,9.162l-6.987,2.402l0.34,0.854l7.812-2.687
								L806.367,471.525z M802.798,461.145l-5.628-16.365l-0.839,0.375l5.621,16.347L802.798,461.145z M769.246,425.814
								c-1.434,0.213-2.849,0.558-4.213,1.025c-5.344,1.842-9.656,5.508-12.312,10.425l0.841,0.381
								c2.445-4.497,6.459-8.108,11.772-9.937c9.029-3.109,19.222-0.17,25.386,6.633l0.523-0.788
								C785.867,427.718,777.575,424.576,769.246,425.814z M779.341,491.286l0.292,0.871l15.182-5.22l-0.371-0.845L779.341,491.286z
								 M752.247,459.768l10.601,30.823l0.904-0.19l-10.584-30.77L752.247,459.768z"/>
						</g>
					</g>
					<g>
						<path style="fill:#050F64;" d="M879.366,584.753l-114.191-16.977c-0.011-0.002-0.021-0.005-0.031-0.007
							c-14.356-2.898-28.344,6.391-31.241,20.747c-2.157,10.688,2.443,21.168,10.857,27.024l-0.002,0.004
							c0.008,0.004,0.016,0.007,0.023,0.011c2.883,2.002,6.21,3.464,9.869,4.203c0.556,0.112,66.62,8.12,101.026,5.897
							l15.879,136.785l13.478-0.241l8.711-158.43C893.59,594.277,888.662,586.609,879.366,584.753z"/>
					</g>
					<g>
						<path style="fill:#84A9FF;" d="M754.65,619.757c-1.893-0.381-3.695-0.959-5.39-1.699l-1.124,0.672
							c1.997,0.945,4.101,1.641,6.303,2.083c0.147,0.029,11.287,1.397,26.79,2.852l0.158-1.063
							C765.981,621.158,754.877,619.804,754.65,619.757z M879.578,583.694l-49.156-7.308l-0.46,1.02l49.404,7.348
							c9.298,1.853,14.225,9.524,14.379,19.015l-0.151,2.729h1.081l0.147-2.708v-0.039
							C894.65,593.225,888.811,585.54,879.578,583.694z M871.555,762.439l-2.503-21.547l-1.07,0.133l2.614,22.51l12.25-0.219
							l0.126-1.081L871.555,762.439z M889.425,682.302l-4.065,73.957l1.106-0.506l4.04-73.451H889.425z M855.674,625.654
							c-8.745,0.564-19.532,0.47-30.773,0.011v1.077c5.85,0.241,11.582,0.381,16.976,0.381c4.744,0,9.061-0.111,12.846-0.33
							l10.4,89.59l1.056-0.244L855.674,625.654z M892.427,627.708l-1.361,24.772l1.088-0.158l1.365-24.841L892.427,627.708z"/>
					</g>
				</g>
				<g>
					<g>
						
							<rect x="857.015" y="508.528" transform="matrix(0.141 -0.99 0.99 0.141 161.7833 1351.1993)" style="fill:#FF654F;" width="4.959" height="147.695"/>
					</g>
					<g>
						<polygon style="fill:#FF654F;" points="932.954,590.33 842.136,577.4 880.771,507.056 971.589,519.987 						"/>
					</g>
					<g>
						
							<ellipse transform="matrix(0.3701 -0.929 0.929 0.3701 56.146 1190.6698)" style="fill:#FFFFFF;" cx="906.117" cy="553.931" rx="14.344" ry="5.313"/>
					</g>
				</g>
			</g>
			<g>
				<g>
					<path style="fill:#050F64;" d="M432.737,1779.781l44.592,22.509c0.737-1.543,1.179-3.162,0.856-4.812
						c-0.365-1.903-1.719-3.484-3.269-4.635c-1.556-1.153-3.342-1.957-5.024-2.912c-4.126-2.343-7.694-5.662-10.329-9.611
						c-1.381-2.053-2.512-4.294-4.21-6.102l-12.315-5.816c-2.567,0.953-4.822,2.762-6.555,4.914
						C434.912,1775.262,433.728,1777.48,432.737,1779.781z"/>
				</g>
				<g>
					<path style="fill:#050F64;" d="M389.406,1795.873l49.537,6.418c0.182-1.701,0.062-3.374-0.791-4.823
						c-0.977-1.674-2.779-2.715-4.623-3.286c-1.851-0.571-3.803-0.735-5.706-1.078c-4.67-0.839-9.138-2.785-12.935-5.634
						c-1.984-1.478-3.796-3.215-5.998-4.357l-13.547-1.395c-2.105,1.752-3.631,4.207-4.55,6.812
						C389.956,1790.888,389.576,1793.373,389.406,1795.873z"/>
				</g>
				<g>
					<g>
						<path style="fill:#050F64;" d="M410.317,1630.855v0.007c0,0-0.007,0-0.007-0.007
							C410.317,1630.855,410.317,1630.855,410.317,1630.855z"/>
					</g>
					<g style="opacity:0;">
						<polygon style="fill:#050F64;" points="416.991,1526.424 416.986,1526.427 416.983,1526.423 416.987,1526.42 						"/>
					</g>
					<g>
						<g>
							<path style="fill:#050F64;" d="M410.317,1630.855v0.007c0,0-0.007,0-0.007-0.007
								C410.317,1630.855,410.317,1630.855,410.317,1630.855z"/>
						</g>
						<g>
							<path style="fill:#050F64;" d="M410.317,1630.855v0.007c0,0-0.007,0-0.007-0.007
								C410.317,1630.855,410.317,1630.855,410.317,1630.855z"/>
						</g>
						<g>
							<path style="fill:#050F64;" d="M522.959,1626.135h0.013l-23.38-105.01c0-0.007-107.034,6.395-106.661,8.895l0.465,252.46
								l17.629,1.081l37.831-197.519l33.348,52.635l-41.268,129.7l16.325,6.615l64.711-139.103
								C523.205,1632.702,523.499,1629.335,522.959,1626.135z M410.317,1630.862c0,0-0.007,0-0.007-0.007c0.007,0,0.007,0,0.007,0
								V1630.862z"/>
						</g>
						<g style="opacity:0;">
							<path style="fill:#050F64;" d="M410.317,1630.855v0.007c0,0-0.007,0-0.007-0.007
								C410.317,1630.855,410.317,1630.855,410.317,1630.855z"/>
						</g>
					</g>
				</g>
				<g>
					<g>
						<path style="fill:#EA8096;" d="M553.393,1519.622c-4.295-5.861-8.685-11.349-12.85-16.91
							c-1.059-1.385-2.048-2.792-3.074-4.185c-1.004-1.403-2.061-2.773-3.019-4.199l-2.91-4.247l-1.453-2.119l-1.375-2.166
							c-7.42-11.48-13.803-23.477-19.303-35.844c-2.568-6.292-5.265-12.466-7.424-18.908l-1.709-4.773
							c-0.277-0.799-0.587-1.579-0.836-2.391l-0.746-2.435l-2.981-9.709c-0.243-0.809-0.507-1.608-0.733-2.425l-0.637-2.468
							l-1.273-4.928l-1.273-4.917l-0.636-2.454l-0.314-1.228l-0.265-1.248l-2.121-9.966c-0.702-3.317-1.46-6.606-1.972-9.985
							c-0.826-4.234-3.604-7.598-7.406-9.68c-3.8-2.074-8.623-2.866-13.489-1.755c-4.866,1.111-8.784,3.937-11.138,7.648
							c-2.355,3.703-3.146,8.29-1.805,12.72c1.074,3.474,2.409,6.9,3.685,10.328l3.841,10.265l0.48,1.28l0.531,1.269l1.072,2.534
							l2.144,5.059l2.143,5.049l1.071,2.52c0.372,0.836,0.784,1.66,1.174,2.49l4.739,9.918l1.184,2.472
							c0.395,0.823,0.855,1.625,1.279,2.438l2.596,4.853c3.33,6.513,7.226,12.769,10.964,19.042
							c7.862,12.377,16.605,24.176,26.207,35.082l1.782,2.057l1.849,1.992l3.693,3.975c1.219,1.335,2.513,2.582,3.764,3.875
							c1.265,1.273,2.511,2.58,3.79,3.821c5.084,5.029,10.265,9.848,15.07,14.705c1.561,1.642,4.429,1.662,6.532,0.037v0
							C554.345,1524.485,554.855,1521.645,553.393,1519.622z"/>
					</g>
					<g>
						<path style="fill:#155BCD;" d="M459.428,1435.956l-11.596-44.792c-3.508-13.549,3.591-27.518,17.14-31.025l0,0
							c13.549-3.507,28.417,4.775,31.924,18.323l11.596,44.792L459.428,1435.956z"/>
					</g>
				</g>
				<g>
					<path style="fill:#155BCD;" d="M434.829,1347.833L434.829,1347.833c27.035-4.37,52.023,15.321,54.096,42.629l10.667,130.663
						c-41.943,24.182-68.173,18.69-107.356,8.843l-5.551-122.929C385.371,1377.942,406.075,1352.48,434.829,1347.833z"/>
				</g>
				<g>
					<path style="fill:#84A9FF;" d="M394.071,1373.333c-3.227,5.173-5.666,10.866-7.166,16.899l1.387,0.447
						c1.473-5.953,3.88-11.573,7.08-16.666L394.071,1373.333z M392.238,1529.966l-1.407-31.179l-1.453,0.207l1.453,32.119
						l1.047,0.267c3.36,0.847,6.586,1.646,9.713,2.4l0.32-1.427C398.771,1531.599,395.551,1530.799,392.238,1529.966z
						 M494.78,1444.296l-1.453,0.1l6.266,76.73c-7.966,4.593-15.372,8.113-22.399,10.733l0.26,1.48
						c7.34-2.72,14.879-6.353,22.866-10.953l0.8-0.46L494.78,1444.296z M429.969,1539.105c4,0.433,7.946,0.673,11.933,0.687v-1.46
						c-3.767-0.013-7.52-0.233-11.313-0.633L429.969,1539.105z M387.645,1428.344l-1.46-0.173l1.333,29.559h1.453L387.645,1428.344z
						 M490.373,1390.352c-1.913-25.232-23.192-44.811-48.451-44.578c-1.047,0.007-2.1,0.053-3.153,0.133v1.453
						c1.206-0.087,2.406-0.133,3.6-0.133c23.986,0,44.678,18.486,46.558,43.231l1.907,23.392l1.433-0.32L490.373,1390.352z"/>
				</g>
				<g>
					<g>
						<polygon style="fill:#050F64;" points="524.112,1408.38 514.795,1450.715 510.581,1450.968 519.891,1408.633 						"/>
					</g>
					<g>
						<polygon style="fill:#84A9FF;" points="547.741,1406.962 538.424,1449.297 514.795,1450.715 524.112,1408.38 						"/>
					</g>
				</g>
				<g>
					<g>
						<path style="fill:#F5BDC8;" d="M535.953,1423.472c-2.343-1.255-5.236-0.551-6.599,1.603
							c-4.142,6.321-8.452,12.498-13.099,18.249c-2.309,2.886-4.709,5.658-7.196,8.26c-2.484,2.604-5.057,5.047-7.712,7.199
							c-2.652,2.15-5.395,4.003-8.118,5.377c-0.678,0.356-1.362,0.625-2.031,0.935l-1.006,0.374l-0.498,0.189l-0.496,0.144
							c-1.319,0.451-2.599,0.642-3.827,0.798c-1.228,0.121-2.402,0.063-3.544-0.064c-1.141-0.166-2.256-0.472-3.371-0.857
							c-1.116-0.446-2.234-0.965-3.358-1.636c-1.122-0.693-2.251-1.444-3.366-2.37c-2.236-1.797-4.432-3.997-6.522-6.478
							c-2.094-2.473-4.094-5.189-6.004-8.048c-3.825-5.722-7.274-12.021-10.511-18.497c-3.222-6.503-6.228-13.22-9.072-20.067
							c-2.852-6.839-5.55-13.804-8.15-20.835c-1.754-4.415-5.215-7.667-9.416-9.344c-4.186-1.683-9.112-1.787-13.706,0.166
							c-4.593,1.953-7.917,5.588-9.538,9.882c-1.607,4.286-1.506,9.233,0.759,13.691c3.704,6.947,7.527,13.865,11.556,20.731
							c4.018,6.866,8.248,13.68,12.802,20.394c4.587,6.706,9.458,13.33,15.092,19.685c2.82,3.174,5.828,6.281,9.143,9.245
							c3.307,2.96,6.96,5.781,11.11,8.231c2.051,1.236,4.293,2.337,6.622,3.306c2.349,0.958,4.856,1.719,7.444,2.265
							c2.616,0.496,5.306,0.763,8.001,0.705c2.69-0.094,5.356-0.445,7.887-1.097c2.507-0.678,4.94-1.525,7.132-2.624l0.836-0.396
							l0.798-0.432l1.583-0.876c1.001-0.628,2.025-1.239,2.965-1.909c3.805-2.654,7.058-5.643,9.977-8.754
							c2.917-3.116,5.502-6.365,7.896-9.675c2.395-3.309,4.591-6.685,6.639-10.107c4.128-6.83,7.706-13.827,11.065-20.876
							C539.246,1427.568,538.296,1424.727,535.953,1423.472z"/>
					</g>
					<g>
						<path style="fill:#155BCD;" d="M415.557,1453.752l-19.313-42.045c-5.842-12.718-1.318-27.72,11.4-33.562l0,0
							c12.718-5.842,28.814-0.312,34.655,12.406l19.313,42.045L415.557,1453.752z"/>
					</g>
					<g>
						<path style="fill:#84A9FF;" d="M443.509,1389.992c-0.72-1.56-1.586-3.033-2.593-4.393l-1.027,0.847
							c0.927,1.273,1.74,2.64,2.413,4.107l1.92,4.173c0.406-0.18,0.82-0.353,1.22-0.527L443.509,1389.992z M425.97,1448.969
							l-10.413,4.78l-5.42-11.793l-1.1,0.8l5.867,12.766l11.52-5.293L425.97,1448.969z M398.051,1418.844l7.266,15.813l1.26-0.46
							l-7.053-15.353H398.051z M418.43,1374.486c-3.993,0-7.806,0.82-11.339,2.447c-5.48,2.513-9.74,6.766-12.24,12.14l1.087,0.827
							c2.26-5.013,6.22-9.233,11.706-11.753c6.573-3.013,14.039-3,20.532-0.527l1.18-0.987
							C425.976,1375.239,422.27,1374.486,418.43,1374.486z M453.295,1411.291l-1.173,0.64l4.893,10.653l1.04-0.933L453.295,1411.291
							z M448.182,1438.77l-10.299,4.727l0.387,1.293l10.586-4.866L448.182,1438.77z"/>
					</g>
				</g>
				<g>
					<g>
						<g>
							<path style="fill:#F5BDC8;" d="M445.013,1330.421l5.307,33.079c-6.436,5.819-13.62,6.972-21.554,3.458l-5.307-33.079
								L445.013,1330.421z"/>
						</g>
						<g>
							<path style="fill:#EA8096;" d="M445.013,1330.421l2.4,14.962c-1.418,0.829-2.978,1.465-4.648,1.881
								c-0.536,0.13-1.075,0.239-1.617,0.326c-5.933,0.952-11.945-0.904-16.264-4.834l-1.424-8.878L445.013,1330.421z"/>
						</g>
						<g>
							<path style="fill:#F5BDC8;" d="M451.563,1308.617l1.69,13.906l0.686,5.628c0.957,7.806-4.069,15.089-11.698,16.98
								c-2.527,0.623-5.104,0.671-7.552,0.188c-0.568-0.111-1.13-0.252-1.679-0.418c-0.342-0.101-0.68-0.21-1.015-0.334
								c-3.212-1.191-6.066-3.319-8.107-6.25c-1.724-2.468-3.415-5.223-5.081-8.152c-0.956-1.672-1.901-3.402-2.835-5.164
								c-4.139-7.761-3.832-17.272,1.165-24.512c4.254-6.174,10.418-8.865,18.624-7.82
								C444.058,1293.721,450.552,1300.319,451.563,1308.617z"/>
						</g>
						<g>
							<path style="fill:#050F64;" d="M425.982,1321.598l2.064-1.834c0,0-6.832-8.57-6.04-12.191
								c1.125-5.147,12.663-9.026,18.957-9.008c1.968,0.005,3.57,0.328,4.718,1.951c2.489,3.517,6.191,10.711,7.147,18.516
								c0,0,2.265-24.926-8.189-35.128c-6.847-6.682-12.64-11.108-21.89-3.587c-14.689,11.942-20.144,27.839-11.919,46.764
								l9.84-7.149L425.982,1321.598z"/>
						</g>
					</g>
					<g>
						<path style="fill:#F5BDC8;" d="M426.534,1322.948c0.637,3.969-2.462,7.767-6.923,8.482c-4.46,0.716-8.592-1.922-9.228-5.891
							c-0.637-3.969,2.462-7.767,6.923-8.482C421.765,1316.342,425.897,1318.979,426.534,1322.948z"/>
					</g>
				</g>
			</g>
			<g>
				<g>
					<g>
						<g>
							<path style="fill:#EA8096;" d="M1369.147,1370.739c1.376-2.348,4.334-3.23,6.749-2.015
								c7.171,3.56,14.354,7.058,21.561,10.365c7.205,3.309,14.433,6.46,21.677,9.162c7.241,2.699,14.501,4.926,21.668,6.272
								c7.172,1.356,14.219,1.809,21.175,1.291c13.901-1.137,27.777-6.131,41.716-12.372c1.743-0.804,3.478-1.547,5.22-2.397
								l5.219-2.497c3.484-1.744,6.958-3.449,10.44-5.275c6.956-3.578,13.917-7.347,20.879-11.147
								c8.924-4.641,20.064-0.922,24.45,8.324c4.376,9.226,0.165,20.272-9.388,24.194c-7.592,2.918-15.21,5.817-22.974,8.584
								c-3.853,1.406-7.799,2.733-11.712,4.076l-5.958,1.931c-1.973,0.653-4.023,1.231-6.027,1.848
								c-8.086,2.394-16.397,4.541-25.058,6.024c-8.643,1.481-17.685,2.248-26.761,1.762c-9.08-0.534-18.027-2.385-26.337-5.157
								c-8.333-2.765-16.071-6.366-23.424-10.279c-7.355-3.924-14.361-8.169-21.239-12.511c-6.88-4.342-13.61-8.81-20.291-13.316
								C1368.465,1376.095,1367.77,1373.087,1369.147,1370.739z"/>
						</g>
					</g>
					<g>
						<path style="fill:#FF654F;" d="M1520.981,1416.494l37.421-16.453c11.319-4.977,17.129-17.542,12.152-28.861l0,0
							c-4.977-11.319-18.855-17.105-30.174-12.129l-37.421,16.453L1520.981,1416.494z"/>
					</g>
				</g>
				<g>
					<path style="fill:#F5BDC8;" d="M1578.508,1619.292c-0.001,0.009-28.669,169.528-28.669,169.528l-10.015-1.746l-2.869-169.426
						L1578.508,1619.292z"/>
				</g>
				<g>
					<g>
						<path style="fill:#050F64;" d="M1534.178,1617.539l46.772,1.85c12.785-31.126,23.962-99.769,10.853-131.49l-52.46,11.893
							L1534.178,1617.539z"/>
					</g>
					<g>
						
							<ellipse transform="matrix(0.0834 -0.9965 0.9965 0.0834 -57.5546 2935.197)" style="fill:#050F64;" cx="1566.711" cy="1498.884" rx="27.386" ry="27.386"/>
					</g>
					<g style="opacity:0;">
						<polygon style="fill:#155BCD;" points="1566.707,1498.884 1566.712,1498.888 1566.716,1498.883 1566.711,1498.879 						"/>
					</g>
				</g>
				<g>
					<path style="fill:#F5BDC8;" d="M1632.089,1612.178l15.717,171.214l-10.128,0.877l-46.151-163.043
						C1591.527,1621.226,1632.088,1612.168,1632.089,1612.178z"/>
				</g>
				<g>
					<path style="fill:#050F64;" d="M1581.971,1472.578c11.049-3.321,22.55,0.675,29.32,9.184l0.005-0.003
						c0.035,0.046,0.069,0.096,0.105,0.142c0.483,0.616,0.942,1.254,1.375,1.915c19.635,28.577,25.988,95.271,21.708,127.827
						l-45.686,10.191l-25.16-115.121c-0.003-0.008-0.006-0.017-0.008-0.025C1559.274,1492.204,1567.487,1476.932,1581.971,1472.578z
						"/>
				</g>
				<g>
					<path style="fill:#155BCD;" d="M1581.228,1591.418l6.883,31.495l8.373-1.869l-0.108-0.898l-7.578,1.688l-6.685-30.588
						L1581.228,1591.418z M1622.134,1502.624c4.852,12.994,8.35,28.638,10.584,44.449l0.898-0.086
						c-0.041-0.293-0.086-0.587-0.126-0.88c-2.451-16.993-6.089-31.996-10.611-44.038L1622.134,1502.624z M1635.196,1560.266
						l-0.898,0.041c0.794,8.124,1.259,16.104,1.404,23.601l0.907,0.153C1636.459,1576.424,1635.985,1568.363,1635.196,1560.266z
						 M1607.393,1617.686l0.307,0.858l27.595-6.156l0.086-0.627c0.6-4.559,0.984-9.713,1.164-15.269l-0.903-0.117
						c-0.181,5.615-0.569,10.769-1.16,15.269L1607.393,1617.686z M1569.168,1536.254l5.976,27.325h0.921l-5.971-27.325H1569.168z"/>
				</g>
				<g>
					<path style="fill:#050F64;" d="M1615.662,1794.63c0.749-1.237,2.107-1.993,3.49-2.397c1.389-0.404,2.847-0.503,4.272-0.735
						c3.496-0.57,6.854-1.968,9.723-4.049c1.499-1.079,2.872-2.354,4.53-3.179l10.128-0.877c1.55,1.333,2.659,3.184,3.314,5.14
						c0.595,1.77,0.849,3.63,0.945,5.498l0.238,2.106l-37.043,4.19l-0.238-2.106l-0.008,0.001
						C1614.898,1796.949,1615.008,1795.701,1615.662,1794.63z"/>
				</g>
				<g>
					<path style="fill:#050F64;" d="M1515.891,1791.451c1.041-1.004,2.547-1.387,3.988-1.423c1.446-0.035,2.881,0.243,4.318,0.383
						c3.525,0.344,7.13-0.147,10.436-1.424c1.725-0.659,3.379-1.54,5.193-1.913l10.015,1.746c1.157,1.685,1.755,3.758,1.887,5.817
						c0.122,1.863-0.109,3.726-0.494,5.556l-0.309,2.096l-36.88-5.437l0.309-2.097l-0.008-0.001
						C1514.558,1793.496,1514.984,1792.318,1515.891,1791.451z"/>
				</g>
				<g>
					<path style="fill:#FF654F;" d="M1576.459,1355.574L1576.459,1355.574c-31.107,0.345-54.622,28.282-49.654,58.992l12.555,82.928
						c22.342,8.071,53.98,5.024,79.657-2.446l-0.098-94.541C1620.579,1376.012,1601.008,1355.302,1576.459,1355.574z"/>
				</g>
				<g>
					<path style="fill:#DA5544;" d="M1618.974,1454.371l0.036,35.963l0.907-0.131l-0.041-35.832H1618.974z M1556.115,1359.069
						l0.447,0.772c6.066-2.667,12.782-4.188,19.895-4.265c1.48-0.018,2.947,0.045,4.387,0.176l0.113-0.898
						c-1.327-0.122-2.667-0.185-4.017-0.185c-0.167,0-0.329,0-0.492,0.004C1569.353,1354.754,1562.448,1356.28,1556.115,1359.069z
						 M1525.911,1414.711l2.767,18.261l0.885-0.203l-2.758-18.203c-0.447-2.771-0.663-5.52-0.663-8.224
						c0-16.673,8.21-31.797,21.046-41.118l-0.587-0.682c-3.367,2.446-6.454,5.312-9.189,8.558
						C1527.694,1384.647,1523.505,1399.812,1525.911,1414.711z M1532.257,1450.575l-0.898,0.099l7.19,47.486l0.505,0.18
						c8.882,3.209,19.588,4.839,31.815,4.839c12.724,0,26.923-1.833,40.707-5.208l-0.117-0.903
						c-24.115,5.931-51.905,7.718-72.098,0.424L1532.257,1450.575z M1618.92,1400.507l0.023,22.184h0.903l-0.023-22.152
						c0.803-12.001-3.272-23.443-11.487-32.231c-3.024-3.232-6.436-5.931-10.146-8.052l-0.23,0.934
						C1611.355,1368.94,1620.048,1383.848,1618.92,1400.507z"/>
				</g>
				<g>
					<g>
						<path style="fill:#F5BDC8;" d="M1561.905,1341.264l1.321,25.049c7.086,3.889,13.845,3.386,20.279-1.506l-1.321-25.05
							L1561.905,1341.264z"/>
					</g>
					<g>
						<path style="fill:#EA8096;" d="M1562.331,1348.93l0.129,2.856c3.185,1.591,7.006,2.456,10.756,2.356
							c0.212-0.009,0.423-0.018,0.634-0.033c3.512-0.261,6.595-1.64,8.87-4.191l-0.328-7.34L1562.331,1348.93z"/>
					</g>
					<g>
						<path style="fill:#F5BDC8;" d="M1551.32,1312.587l1.779,18.093l0.398,4.015c1.081,10.015,9.666,17.522,19.738,17.257
							c1-0.026,2.021-0.195,3.009-0.509c0.376-0.123,0.753-0.259,1.124-0.423c0.077-0.03,0.154-0.067,0.231-0.103
							c1.397-0.647,2.674-1.601,3.7-2.842c2.222-2.699,3.594-5.59,4.834-8.577c1.082-2.606,2.046-5.177,2.697-7.78
							c0.774-3.095,1.101-6.242,0.651-9.569l-0.54-12.384l-32.199-5.155L1551.32,1312.587z"/>
					</g>
					<g>
						<path style="fill:#050F64;" d="M1552.111,1340.936c0,0,0.09-10.684,0.431-15.953v-0.02c0.328-4.99,1.55-9.693,5.072-9.099
							c7.263,1.215,9.911-4.73,9.911-4.73s-0.02-0.055-0.048-0.15c2.007,0.13,4.143,0.471,6.43,1.044
							c10.846,2.737,12.307,0.007,13.645-1.727c2.778,8.348,1.72,18.976,1.618,19.905c-0.007,0.041-0.007,0.061-0.007,0.061
							c-0.007,0.007-0.007,0.014-0.007,0.021c-0.095,0.478-0.205,0.956-0.328,1.433c-0.648,2.601-1.611,5.174-2.696,7.782
							c-0.996,2.382-2.068,4.71-3.597,6.928l0.089,1.679c7.44-1.427,17.065-9.596,19.207-16.289
							c7.933-24.789-5.507-39.602-24.626-43.349c-16.553-3.249-25.666,12.021-28.956,25.959
							C1546.248,1322.887,1550.316,1338.874,1552.111,1340.936z"/>
					</g>
					<g>
						<path style="fill:#F5BDC8;" d="M1582.781,1326.257c0.303,4.075,3.851,7.133,7.926,6.83s7.133-3.851,6.83-7.926
							c-0.303-4.075-3.851-7.133-7.926-6.83C1585.536,1318.634,1582.478,1322.182,1582.781,1326.257z"/>
					</g>
				</g>
				<g>
					<path style="fill:#155BCD;" d="M1531.978,1425.63l41.297-29.184l-25.134-47.314l-47.279,17.812
						c-7.573-8.158-16.208-15.344-25.851-21.399l8.535-49.789l-51.229-15.715l-20.806,46.057
						c-11.373-0.428-22.598,0.659-33.397,3.152l-29.182-41.257l-47.313,25.135l17.813,47.279
						c-8.157,7.572-15.345,16.208-21.4,25.851l-49.789-8.535l-15.715,51.229l46.056,20.806c-0.429,11.372,0.658,22.598,3.194,33.394
						l-41.297,29.184l25.134,47.314l47.279-17.812c7.573,8.158,16.208,15.344,25.847,21.358l-8.531,49.83l51.225,15.674
						l20.81-46.016c11.373,0.429,22.594-0.7,33.394-3.193l29.185,41.297l47.313-25.135l-17.813-47.279
						c8.157-7.572,15.345-16.208,21.358-25.847l49.831,8.531l15.715-51.229l-46.056-20.806
						C1535.601,1447.652,1534.514,1436.426,1531.978,1425.63z M1413.118,1519.022c-35.684,3.456-67.41-22.667-70.87-58.392
						c-3.456-35.684,22.667-67.41,58.351-70.866c35.724-3.46,67.45,22.663,70.906,58.347
						C1474.965,1483.836,1448.842,1515.562,1413.118,1519.022z"/>
				</g>
				<g>
					<g>
						<g>
							<path style="fill:#F5BDC8;" d="M1449.658,1511.143c-0.554-2.664,1.048-5.303,3.654-6.021
								c7.707-2.17,15.38-4.393,22.944-6.774c7.563-2.378,15.037-4.889,22.223-7.744c7.181-2.855,14.059-6.073,20.278-9.882
								c6.229-3.805,11.759-8.195,16.572-13.245c9.547-10.167,16.49-23.179,22.642-37.156c0.753-1.765,1.542-3.48,2.264-5.279
								l2.196-5.353c1.414-3.63,2.848-7.225,4.205-10.915c2.76-7.319,5.395-14.784,8.009-22.272
								c3.506-9.428,14.264-14.141,23.718-10.225c9.434,3.907,13.719,14.925,9.264,24.241c-3.674,7.256-7.379,14.516-11.282,21.777
								c-1.914,3.627-3.952,7.258-5.953,10.878l-3.124,5.428c-1.025,1.808-2.158,3.612-3.231,5.413
								c-4.392,7.199-9.116,14.367-14.545,21.275c-5.418,6.896-11.61,13.529-18.667,19.256c-7.093,5.695-14.97,10.322-22.993,13.84
								c-8.035,3.538-16.189,6.058-24.268,8.087c-8.087,2.023-16.131,3.573-24.145,4.966c-8.015,1.394-16.004,2.594-23.981,3.733
								C1452.745,1515.573,1450.212,1513.807,1449.658,1511.143z"/>
						</g>
					</g>
					<g>
						<path style="fill:#FF654F;" d="M1593.419,1442.296l16.719-37.302c5.057-11.283,0.938-24.5-10.345-29.557l0,0
							c-11.283-5.057-25.458-0.04-30.515,11.243l-16.72,37.302L1593.419,1442.296z"/>
					</g>
					<g>
						<path style="fill:#DA5544;" d="M1568.452,1386.311l-1.427,3.181l0.778,0.476l1.474-3.288
							c4.164-9.292,14.506-14.335,24.329-13.002l0.101-0.884c-3.917-0.524-7.997-0.1-11.816,1.288
							C1575.76,1376.312,1570.99,1380.654,1568.452,1386.311z M1561.744,1403.491l-0.813-0.393l-9.565,21.339l34.092,15.281
							l0.393-0.813l-33.292-14.925L1561.744,1403.491z M1603.257,1377.388c7.64,5.311,10.684,15.018,8.13,24.151l0.885,0.192
							c2.675-9.665-0.761-19.742-8.62-25.159L1603.257,1377.388z M1603.492,1422.026l-0.848-0.32l-8.058,17.982l0.84,0.336
							L1603.492,1422.026z"/>
					</g>
				</g>
			</g>
			<g>
				<g>
					
						<rect x="866.168" y="286.863" transform="matrix(-1 -1.224647e-16 1.224647e-16 -1 1837.6112 650.2907)" style="fill:#84A9FF;" width="105.276" height="76.564"/>
				</g>
				<g>
					<polygon style="fill:#155BCD;" points="866.168,363.427 866.168,392.671 907.64,363.427 					"/>
				</g>
				<g>
					<path style="fill:#FFFFFF;" d="M937.571,322.703l6.475-3.695l-3.016-7.3l-7.191,1.942c-0.995-1.305-2.16-2.482-3.489-3.507
						l1.96-7.185l-7.294-3.034l-3.707,6.462c-1.663-0.224-3.325-0.224-4.945-0.012l-3.696-6.469l-7.3,3.016l1.942,7.191
						c-1.305,0.995-2.482,2.16-3.507,3.489l-7.184-1.96l-3.034,7.294l6.462,3.707c-0.225,1.663-0.225,3.325-0.006,4.945
						l-6.475,3.695l3.016,7.3l7.191-1.942c0.995,1.305,2.16,2.482,3.489,3.501l-1.96,7.19l7.294,3.028l3.708-6.456
						c1.663,0.224,3.325,0.218,4.945,0.006l3.696,6.474l7.3-3.016l-1.942-7.19c1.305-0.995,2.482-2.16,3.501-3.489l7.191,1.96
						l3.034-7.294l-6.462-3.707C937.789,325.986,937.789,324.323,937.571,322.703z M918.803,334.718
						c-5.285,0-9.569-4.284-9.569-9.575c0-5.285,4.284-9.569,9.569-9.569c5.291,0,9.575,4.284,9.575,9.569
						C928.378,330.434,924.094,334.718,918.803,334.718z"/>
				</g>
			</g>
			<g>
				<g>
					<rect x="431.635" y="278.161" style="fill:#155BCD;" width="105.276" height="76.564"/>
				</g>
				<g>
					<polygon style="fill:#050F64;" points="536.91,354.725 536.91,383.969 495.438,354.725 					"/>
				</g>
				<g>
					<g>
						<path style="fill:#FFFFFF;" d="M499.449,328.347v-5.952l14.879-5.952l-14.879-5.952v-5.952l20.831,8.927v5.952
							L499.449,328.347z"/>
					</g>
					<g>
						<path style="fill:#FFFFFF;" d="M475.048,289.661h5.951l12.499,53.565h-5.952L475.048,289.661z"/>
					</g>
					<g>
						<path style="fill:#FFFFFF;" d="M448.265,319.419v-5.952l20.831-8.927v5.952l-14.879,5.952l14.879,5.952v5.952L448.265,319.419
							z"/>
					</g>
				</g>
			</g>
			<g>
				<g>
					
						<rect x="478.63" y="1218.452" transform="matrix(-1 -1.224647e-16 1.224647e-16 -1 1062.5363 2513.4675)" style="fill:#FF654F;" width="105.276" height="76.564"/>
				</g>
				<g>
					<polygon style="fill:#DA5544;" points="478.63,1295.016 478.63,1324.259 520.102,1295.016 					"/>
				</g>
				<g>
					<g>
						<path style="fill:#FFFFFF;" d="M504.953,1253.81c3.899,0,5.848-1.462,5.848-4.386v-7.31c0-7.797,3.898-11.696,11.696-11.696
							v5.848c-3.899,0-5.848,1.949-5.848,5.848v7.31c0,4.288-1.949,6.725-5.847,7.31c3.898,0.585,5.847,3.022,5.847,7.31v7.31
							c0,3.899,1.949,5.848,5.848,5.848v5.848c-7.797,0-11.696-3.899-11.696-11.696v-7.31c0-2.924-1.95-4.386-5.848-4.386V1253.81z"
							/>
					</g>
					<g>
						<path style="fill:#FFFFFF;" d="M557.584,1259.658c-3.899,0-5.848,1.462-5.848,4.386v7.31c0,7.797-3.898,11.696-11.696,11.696
							v-5.848c3.898,0,5.848-1.949,5.848-5.848v-7.31c0-4.288,1.949-6.725,5.848-7.31c-3.898-0.585-5.848-3.021-5.848-7.31v-7.31
							c0-3.899-1.95-5.848-5.848-5.848v-5.848c7.797,0,11.696,3.899,11.696,11.696v7.31c0,2.924,1.949,4.386,5.848,4.386V1259.658z"
							/>
					</g>
				</g>
			</g>
			<g>
				<g>
					<rect x="1107.371" y="360.121" style="fill:#155BCD;" width="413.697" height="424.494"/>
				</g>
				<g>
					<rect x="1107.371" y="286.863" style="fill:#050F64;" width="413.697" height="73.258"/>
				</g>
				<g>
					<rect x="1152.26" y="388.591" style="fill:#FFCA32;" width="184.9" height="28.559"/>
				</g>
				<g>
					<rect x="1212.942" y="453.563" style="fill:#FFFFFF;" width="95.663" height="28.558"/>
				</g>
				<g>
					<rect x="1337.163" y="453.563" style="fill:#FFFFFF;" width="95.651" height="28.558"/>
				</g>
				<g>
					<rect x="1273.626" y="518.532" style="fill:#84A9FF;" width="115.761" height="28.558"/>
				</g>
				<g>
					<rect x="1417.946" y="518.532" style="fill:#84A9FF;" width="50.963" height="28.558"/>
				</g>
				<g>
					<rect x="1273.628" y="583.499" style="fill:#84A9FF;" width="87.855" height="28.559"/>
				</g>
				<g>
					<rect x="1212.944" y="648.468" style="fill:#FFFFFF;" width="165.453" height="28.559"/>
				</g>
				<g>
					<rect x="1152.26" y="713.437" style="fill:#FFCA32;" width="184.9" height="28.559"/>
				</g>
			</g>
		</g>
	</g>
</g>
</svg>
