<?xml version="1.0" encoding="UTF-8"?>
<!DOCTYPE svg PUBLIC "-//W3C//DTD SVG 1.1//EN" "http://www.w3.org/Graphics/SVG/1.1/DTD/svg11.dtd">
<!-- Creator: CorelDRAW -->
<svg xmlns="http://www.w3.org/2000/svg" xml:space="preserve" width="132px" height="120px" version="1.1" style="shape-rendering:geometricPrecision; text-rendering:geometricPrecision; image-rendering:optimizeQuality; fill-rule:evenodd; clip-rule:evenodd"
viewBox="0 0 35.08 31.83"
 xmlns:xlink="http://www.w3.org/1999/xlink"
 xmlns:xodm="http://www.corel.com/coreldraw/odm/2003">
 <defs>
  <style type="text/css">
   <![CDATA[
    .fil0 {fill:#87A0D2}
    .fil2 {fill:#87A0D2;fill-rule:nonzero}
    .fil1 {fill:#CCF3FF;fill-rule:nonzero}
   ]]>
  </style>
 </defs>
 <g id="Layer_x0020_1">
  <metadata id="CorelCorpID_0Corel-Layer"/>
  <g id="_2205960325792">
   <path class="fil0" d="M1.82 4.58l2.71 -1.59c0.47,-0.28 1.01,-0.42 1.62,-0.42 0.71,0 1.51,0.2 2.35,0.63 -0.09,0.11 -0.18,0.23 -0.27,0.35 -0.44,0.6 -0.77,1.34 -0.99,2.2 -0.34,-0.27 -0.7,-0.51 -1.07,-0.73 -0.09,-0.05 -0.19,-0.11 -0.29,-0.16 -0.34,-0.18 -0.68,-0.33 -1.01,-0.44 -0.24,-0.08 -0.2,-0.06 -0.48,-0.13 -0.26,-0.06 -0.51,-0.1 -0.75,-0.11 -0.08,-0.01 -0.15,-0.01 -0.23,-0.01 -0.02,0 -0.05,0 -0.07,0 -0.56,0.01 -1.08,0.15 -1.52,0.41z"/>
   <path class="fil1" d="M16.22 2.88c-4.32,-2.52 -7.96,-1.19 -8.98,2.87 -0.34,-0.27 -0.7,-0.51 -1.07,-0.73 -3.4,-1.98 -6.16,-0.39 -6.17,3.56 -0.01,3.69 2.4,8.14 5.5,10.31l20.68 12.09c3.39,1.98 6.16,0.39 6.17,-3.55 0.01,-3.94 -2.74,-8.75 -6.13,-10.73 -0.37,-0.21 -0.73,-0.38 -1.07,-0.51 -1,-5.24 -4.61,-10.79 -8.93,-13.31z"/>
   <path class="fil2" d="M6.05 18.04l20.63 12.07c0.81,0.46 1.59,0.71 2.26,0.71 1.5,0 2.39,-1.27 2.4,-3.39 0.01,-3.62 -2.52,-8.04 -5.63,-9.85 -0.31,-0.18 -0.62,-0.33 -0.92,-0.45l-0.53 -0.2 -0.11 -0.55c-0.96,-5.1 -4.44,-10.29 -8.44,-12.63 -1.28,-0.74 -2.54,-1.14 -3.63,-1.14 -1.94,0 -3.31,1.21 -3.86,3.39l-0.38 1.51 -1.22 -0.96c-0.32,-0.25 -0.64,-0.47 -0.96,-0.65 -0.8,-0.47 -1.58,-0.72 -2.25,-0.72 -1.5,0 -2.39,1.27 -2.4,3.4 -0.01,3.3 2.2,7.45 5.04,9.46zm22.89 13.25c-0.76,0 -1.62,-0.27 -2.49,-0.78l-20.66 -12.07 -0.01 -0.01c-2.95,-2.09 -5.25,-6.41 -5.24,-9.85 0.01,-2.42 1.08,-3.87 2.87,-3.87 0.76,0 1.62,0.27 2.49,0.78 0.34,0.2 0.68,0.43 1.01,0.69l0.66 0.52 0.2 -0.81c0.6,-2.42 2.13,-3.74 4.31,-3.74 1.17,0 2.51,0.41 3.86,1.2 4.12,2.4 7.68,7.72 8.67,12.94l0.06 0.3 0.28 0.1c0.33,0.13 0.66,0.29 0.99,0.48 3.25,1.89 5.88,6.49 5.87,10.26 -0.01,2.42 -1.08,3.86 -2.87,3.86z"/>
   <path class="fil2" d="M30.55 31.41l2.74 -1.6c1.1,-0.65 1.79,-2.03 1.79,-3.99 0.01,-3.94 -2.73,-8.74 -6.13,-10.72 -0.37,-0.21 -0.72,-0.38 -1.07,-0.52l-2.73 1.61c0.34,0.13 0.7,0.3 1.07,0.51 3.39,1.98 6.14,6.79 6.13,10.73 -0.01,1.96 -0.69,3.33 -1.8,3.98z"/>
   <path class="fil2" d="M11 13.91l1.52 -2.28 -0.79 -0.44c0.45,-0.61 1.19,-0.84 2.07,-0.59 1.64,0.45 3.32,2.36 4,4.54 0.14,0.45 0.51,0.83 0.82,0.85 0.32,0.03 0.46,-0.32 0.33,-0.76 -0.93,-2.99 -3.23,-5.6 -5.47,-6.22 -1.44,-0.4 -2.61,0.12 -3.16,1.39l-0.93 -0.52 1.61 4.03z"/>
   <path class="fil2" d="M20.07 20.67l-1.36 -4.03 -1.76 1.97 0.85 0.56c-0.45,0.7 -1.21,0.96 -2.15,0.71 -1.54,-0.43 -3.18,-2.22 -3.91,-4.27 -0.15,-0.45 -0.53,-0.81 -0.84,-0.8 -0.31,0 -0.43,0.37 -0.27,0.81 0.81,2.29 2.45,4.35 4.18,5.34 0.38,0.22 0.77,0.39 1.16,0.5 1.45,0.4 2.62,-0.12 3.17,-1.41l0.93 0.62z"/>
   <path class="fil0" d="M18.95 1.28c4.32,2.52 7.94,8.07 8.93,13.3l-2.73 1.61c-1,-5.24 -4.61,-10.79 -8.93,-13.31 -2.57,-1.49 -4.89,-1.63 -6.57,-0.65l2.73 -1.6c1.68,-0.99 4.01,-0.85 6.57,0.65z"/>
  </g>
 </g>
</svg>
