<svg width="50" height="50" viewBox="0 0 50 50" fill="none" xmlns="http://www.w3.org/2000/svg">
<rect x="13" y="13" width="24" height="31" fill="#9AD2FF"/>
<path d="M13.5 9L31.5 3.5L34.5 6L37 35H13L13.5 9Z" fill="#9AD2FF"/>
<path d="M36.3046 9.11716H35.1484V7.11716C35.1437 6.49765 34.9958 5.88761 34.7161 5.3348C34.4365 4.78199 34.0326 4.3014 33.5363 3.93066C33.0399 3.55992 32.4645 3.30908 31.8551 3.19777C31.2456 3.08647 30.6187 3.11772 30.0233 3.28908L10.3515 9.15622C10.2446 9.19866 10.1446 9.25657 10.0546 9.32809C9.90291 9.48184 9.80908 9.68335 9.78906 9.89841V46.0937C9.78966 46.3007 9.87216 46.4991 10.0185 46.6455C10.1649 46.7919 10.3633 46.8744 10.5703 46.875H36.3046C37.3401 46.8733 38.3327 46.4612 39.0649 45.729C39.7971 44.9968 40.2092 44.0042 40.2109 42.9687V13.0234C40.2078 11.9883 39.7953 10.9965 39.0634 10.2646C38.3315 9.53271 37.3397 9.12019 36.3046 9.11716ZM30.4687 4.78903C30.8308 4.68518 31.2119 4.66644 31.5825 4.73427C31.953 4.80211 32.3028 4.95469 32.6046 5.18009C32.9064 5.40549 33.152 5.69761 33.3222 6.03364C33.4924 6.36966 33.5827 6.74049 33.5859 7.11716V9.11716H15.9296L30.4687 4.78903ZM34.6171 42.4687H15.3827C15.1775 42.4657 14.9818 42.382 14.8378 42.2358C14.6937 42.0897 14.613 41.8927 14.613 41.6875C14.613 41.4823 14.6937 41.2853 14.8378 41.1391C14.9818 40.9929 15.1775 40.9093 15.3827 40.9062H34.6171C34.8223 40.9093 35.0181 40.9929 35.1621 41.1391C35.3061 41.2853 35.3869 41.4823 35.3869 41.6875C35.3869 41.8927 35.3061 42.0897 35.1621 42.2358C35.0181 42.382 34.8223 42.4657 34.6171 42.4687ZM32.8593 32.914C30.7584 34.9842 27.9266 36.1433 24.9772 36.1404C22.0278 36.1375 19.1982 34.9727 17.1015 32.8984C8.67657 24.2264 17.6931 10.2482 29.0626 14.5547C36.4916 17.2633 38.677 27.3695 32.8593 32.914Z" fill="#00003C"/>
<path d="M28.6484 33.875C29.5585 33.4893 30.4063 32.9706 31.1641 32.3359C30.7761 32.0171 30.3634 31.7297 29.9297 31.4766C29.609 32.3285 29.1783 33.1348 28.6484 33.875Z" fill="#00003C"/>
<path d="M25.7812 34.4297C27.1444 33.7359 27.8605 32.3753 28.4922 30.7969C27.624 30.4528 26.7112 30.2345 25.7812 30.1484V34.4297Z" fill="#00003C"/>
<path d="M22.8198 33.2734C23.1714 33.7757 23.6555 34.1706 24.2182 34.4141V30.1328C20.9063 30.5094 21.1776 30.6444 22.8198 33.2734Z" fill="#00003C"/>
<path d="M18.8125 32.3438C19.5753 32.9954 20.4379 33.5204 21.3672 33.8984C20.8521 33.1227 20.425 32.2921 20.0937 31.4219C19.6422 31.6937 19.2137 32.002 18.8125 32.3438Z" fill="#00003C"/>
<path d="M21.3203 16.0469C20.4081 16.4238 19.5616 16.9433 18.8125 17.5859C19.211 17.9288 19.6399 18.2347 20.0937 18.5C20.4043 17.6367 20.816 16.8133 21.3203 16.0469Z" fill="#00003C"/>
<path d="M21.5234 19.1719C22.3869 19.5069 23.2952 19.7123 24.2188 19.7812V15.4844C23.0938 15.9453 22.1562 17.4297 21.5234 19.1719Z" fill="#00003C"/>
<path d="M31.1641 17.5625C30.4188 16.9589 29.5899 16.4668 28.7031 16.1016C29.1913 16.8436 29.5899 17.6408 29.8906 18.4766C30.3383 18.2055 30.7641 17.8999 31.1641 17.5625Z" fill="#00003C"/>
<path d="M26.7266 16.1328C26.4584 15.857 26.1367 15.639 25.7812 15.4922V19.7891C26.7063 19.7144 27.6149 19.5011 28.4766 19.1563C28.1187 18.0338 27.5216 17.0022 26.7266 16.1328Z" fill="#00003C"/>
<path d="M19.0541 23.6016C19.1031 22.3892 19.2892 21.1862 19.6087 20.0156C18.925 19.6435 18.2856 19.1954 17.7025 18.6797C16.2031 20.429 15.3789 22.657 15.3789 24.961C15.3789 27.2649 16.2031 29.4929 17.7026 31.2422C18.289 30.7308 18.9279 30.2829 19.6087 29.9062C19.1085 27.8444 18.9215 25.7191 19.0541 23.6016Z" fill="#00003C"/>
<path d="M20.6181 23.6563C20.4998 25.5292 20.6444 27.4094 21.0478 29.2422C22.0636 28.8544 23.1338 28.6277 24.2197 28.5703V21.3438C20.7297 21.1068 20.9676 19.4107 20.6181 23.6563Z" fill="#00003C"/>
<path d="M29.4297 24.8906C29.4536 23.4631 29.2855 22.0389 28.9297 20.6562C27.9203 21.0423 26.8593 21.2766 25.7812 21.3516V28.5859C26.8622 28.6692 27.9253 28.9086 28.9375 29.2969C29.251 27.8487 29.4159 26.3723 29.4297 24.8906Z" fill="#00003C"/>
<path d="M30.3594 19.9922C30.7948 21.6014 31.0078 23.2627 30.9922 24.9297C30.9797 26.6209 30.7806 28.3056 30.3984 29.9531C31.0677 30.3156 31.6985 30.7448 32.2812 31.2344C33.8165 29.492 34.6539 27.244 34.6328 24.9219C34.6304 22.6195 33.7983 20.395 32.2891 18.6562C31.6931 19.1662 31.0465 19.6138 30.3594 19.9922Z" fill="#00003C"/>
</svg>
