<svg width="52" height="52" viewBox="0 0 52 52" fill="none" xmlns="http://www.w3.org/2000/svg">
<path d="M17 24.5H35V27H17V24.5Z" fill="#9AD2FF"/>
<path d="M45.6771 24.1345L34.989 19.6804C33.9375 21.0676 32.5791 22.1924 31.0202 22.9669C29.4613 23.7413 27.7443 24.1443 26.0037 24.1443C24.263 24.1443 22.546 23.7413 20.9871 22.9669C19.4283 22.1924 18.0699 21.0676 17.0184 19.6804L6.36277 24.1183C6.0086 24.2499 5.70318 24.4866 5.48751 24.7968C5.27183 25.1071 5.15624 25.4758 5.15625 25.8536C5.15626 26.2314 5.27187 26.6002 5.48756 26.9104C5.70325 27.2206 6.00869 27.4573 6.36286 27.5889L7.22431 27.9221V39.9757C7.75974 39.8577 8.31445 39.8577 8.84988 39.9757V28.5399C11.5897 29.5899 22.5079 33.7703 25.4388 34.8958C25.82 35.0201 26.2316 35.0144 26.6092 34.8796C27.4447 34.566 40.4493 29.5778 40.7598 29.4583C41.8386 29.0451 44.4954 28.0223 45.5958 27.6052C45.9529 27.4817 46.2637 27.252 46.4865 26.9469C46.7093 26.6418 46.8334 26.2758 46.8423 25.8981C46.8511 25.5204 46.7443 25.149 46.536 24.8338C46.3277 24.5186 46.028 24.2746 45.6771 24.1345ZM34.0543 26.5485H17.9449C17.7315 26.5453 17.5278 26.4583 17.378 26.3062C17.2281 26.1541 17.1441 25.9492 17.1441 25.7357C17.1441 25.5222 17.2281 25.3172 17.378 25.1652C17.5278 25.0131 17.7315 24.9261 17.945 24.9229H34.0543C34.268 24.9257 34.4721 25.0126 34.6222 25.1647C34.7724 25.3168 34.8566 25.522 34.8566 25.7357C34.8566 25.9495 34.7724 26.1546 34.6222 26.3067C34.4721 26.4589 34.2681 26.5457 34.0543 26.5485Z" fill="#00003C"/>
<path d="M5.71291 43.8364C5.71285 44.3083 5.85785 44.7688 6.12828 45.1556C6.3987 45.5423 6.78147 45.8365 7.22472 45.9984V47.9491C7.22788 48.1626 7.3149 48.3662 7.46698 48.5161C7.61906 48.6659 7.82398 48.7499 8.03748 48.7499C8.25098 48.7499 8.45591 48.6659 8.608 48.5161C8.76009 48.3663 8.84712 48.1626 8.85029 47.9491V45.9984C9.24704 45.8492 9.59534 45.5942 9.85738 45.261C10.1194 44.9278 10.2852 44.5292 10.3367 44.1085C10.3882 43.6877 10.3235 43.2609 10.1496 42.8743C9.97563 42.4878 9.69914 42.1563 9.3501 41.9157C9.00107 41.6752 8.59282 41.5349 8.16967 41.51C7.74651 41.4851 7.32463 41.5766 6.9498 41.7745C6.57497 41.9725 6.26151 42.2693 6.04346 42.6328C5.82541 42.9963 5.71109 43.4126 5.71291 43.8364Z" fill="#00003C"/>
<path d="M27.1871 36.3994C26.4601 36.6675 25.6637 36.6818 24.9275 36.44L12.2806 31.5959L11.2402 31.1976V40.5528C11.2405 41.5666 11.5811 42.551 12.2075 43.3483C12.8338 44.1455 13.7096 44.7095 14.6946 44.9498C20.4786 46.5062 30.147 46.8729 37.3469 44.8199C38.3215 44.5667 39.185 43.998 39.8025 43.2026C40.42 42.4072 40.7569 41.4297 40.7606 40.4227V31.2057L39.7202 31.604L27.1871 36.3994Z" fill="#00003C"/>
<circle cx="25.5" cy="12.5" r="8.5" fill="#00003C"/>
<path d="M29.9827 21.2428C35.8177 18.4059 37.097 10.1316 32.3235 5.69441C26.2147 -0.236627 15.8019 4.28811 16.0029 12.8064C16.0221 19.8275 23.8003 24.4567 29.9827 21.2428ZM25.6343 13.4483C24.792 13.4398 23.9817 13.1248 23.3547 12.5623C22.7277 11.9998 22.327 11.2282 22.2274 10.3918C22.1278 9.55536 22.3362 8.71129 22.8137 8.01731C23.2911 7.32334 24.0049 6.82695 24.8216 6.62091L24.8215 6.01133C24.8215 5.90459 24.8426 5.7989 24.8834 5.70029C24.9243 5.60168 24.9841 5.51208 25.0596 5.4366C25.1351 5.36113 25.2247 5.30126 25.3233 5.26041C25.4219 5.21957 25.5276 5.19854 25.6343 5.19854C25.7411 5.19854 25.8468 5.21957 25.9454 5.26041C26.044 5.30126 26.1336 5.36113 26.2091 5.4366C26.2845 5.51208 26.3444 5.60168 26.3852 5.70029C26.4261 5.7989 26.4471 5.90459 26.4471 6.01133V6.62091C27.2023 6.80306 27.8743 7.23398 28.3549 7.84434C28.8355 8.4547 29.0968 9.209 29.0968 9.98587C29.0926 10.1987 29.0052 10.4014 28.8532 10.5504C28.7012 10.6995 28.4968 10.783 28.284 10.7829C28.0711 10.7829 27.8667 10.6994 27.7148 10.5504C27.5628 10.4014 27.4753 10.1986 27.4712 9.98582C27.4712 9.62252 27.3634 9.26738 27.1616 8.96531C26.9597 8.66324 26.6729 8.42781 26.3372 8.28879C26.0016 8.14977 25.6322 8.1134 25.2759 8.18429C24.9196 8.25517 24.5923 8.43013 24.3354 8.68703C24.0785 8.94393 23.9036 9.27124 23.8327 9.62756C23.7618 9.98389 23.7982 10.3532 23.9372 10.6889C24.0763 11.0245 24.3117 11.3114 24.6138 11.5132C24.9159 11.7151 25.271 11.8228 25.6343 11.8228C26.4762 11.8302 27.2865 12.1443 27.9136 12.706C28.5407 13.2678 28.9416 14.0389 29.0412 14.8749C29.1408 15.7109 28.9324 16.5545 28.4549 17.2479C27.9774 17.9413 27.2636 18.437 26.447 18.6421L26.4471 19.2517C26.4471 19.4672 26.3615 19.674 26.2091 19.8264C26.0566 19.9788 25.8499 20.0645 25.6343 20.0645C25.4188 20.0645 25.212 19.9788 25.0596 19.8264C24.9072 19.674 24.8215 19.4672 24.8215 19.2517V18.6421C24.0663 18.46 23.3943 18.029 22.9137 17.4187C22.4331 16.8083 22.1718 16.054 22.1719 15.2771C22.176 15.0643 22.2634 14.8615 22.4154 14.7125C22.5674 14.5634 22.7718 14.4799 22.9847 14.4799C23.1976 14.4799 23.402 14.5634 23.5539 14.7125C23.7059 14.8616 23.7933 15.0643 23.7974 15.2772C23.7958 15.6408 23.9022 15.9968 24.1031 16.2999C24.304 16.6031 24.5903 16.8398 24.9258 16.98C25.2613 17.1203 25.6309 17.1578 25.9878 17.0879C26.3446 17.0179 26.6727 16.8436 26.9304 16.587C27.1881 16.3304 27.3638 16.0031 27.4354 15.6466C27.5069 15.2901 27.471 14.9203 27.3322 14.5842C27.1934 14.248 26.958 13.9607 26.6557 13.7585C26.3535 13.5563 25.998 13.4483 25.6343 13.4483Z" fill="#00003C"/>
<path d="M26.5312 18H24.4688C24.0889 18 23.7812 17.6923 23.7812 17.3125V14.2188H20.6875C20.3077 14.2188 20 13.9111 20 13.5312V11.4688C20 11.0889 20.3077 10.7812 20.6875 10.7812H23.7812V7.6875C23.7812 7.30766 24.0889 7 24.4688 7H26.5312C26.9111 7 27.2188 7.30766 27.2188 7.6875V10.7812H30.3125C30.6923 10.7812 31 11.0889 31 11.4688V13.5312C31 13.9111 30.6923 14.2188 30.3125 14.2188H27.2188V17.3125C27.2188 17.6923 26.9111 18 26.5312 18Z" fill="#9AD2FF"/>
</svg>
