<svg width="44" height="59" viewBox="0 0 44 59" fill="none" xmlns="http://www.w3.org/2000/svg">
<path d="M18.4429 21.6525C18.5586 21.4672 18.6609 21.276 18.755 21.0851M18.4429 21.6525C18.4427 21.6527 18.4426 21.6529 18.4424 21.6532L18.3576 21.6002L18.4434 21.6516C18.4432 21.6519 18.443 21.6522 18.4429 21.6525ZM18.4429 21.6525C18.1911 22.0718 17.886 22.451 17.5647 22.8037M18.755 21.0851L17.4819 22.7461L17.5647 22.8037M18.755 21.0851C19.8046 21.7342 20.9743 22.1098 22.214 22.1098C23.4628 22.1098 24.6247 21.734 25.6739 21.0845C25.8602 21.4518 26.0685 21.7892 26.2917 22.1034L26.2921 22.1038C26.4755 22.3591 26.6658 22.5928 26.8564 22.8111L22.2141 26.0384M18.755 21.0851L22.2141 26.0384M17.5647 22.8037L22.2141 26.0384M17.5647 22.8037C17.5421 22.8286 17.5193 22.8533 17.4965 22.878L22.2141 26.0384M30.0209 22.8848L30.0198 22.8842C29.693 22.7036 29.357 22.4805 29.0204 22.2146V22.2124L28.9845 22.1824C28.5635 21.8316 28.1952 21.4371 27.8617 20.9719L27.8614 20.9715C27.6205 20.6392 27.4181 20.2659 27.2317 19.8422C29.6111 17.5018 31.1134 13.7002 31.1134 10.1645C31.1134 8.98238 30.9348 7.87943 30.6038 6.87383C30.595 6.80498 30.5846 6.73533 30.5549 6.65598L30.5554 6.65579L30.5507 6.64637C30.5387 6.62237 30.5216 6.60549 30.5153 6.59926L30.5148 6.59876C29.2856 3.12829 26.2131 0.9 22.214 0.9C17.4785 0.9 14.0444 4.01915 13.4227 8.64416C13.4225 8.64457 13.4224 8.64504 13.4222 8.64557L13.4221 8.64602L13.4215 8.64595V8.6476C13.4205 8.65075 13.4189 8.65564 13.4175 8.66062C13.4166 8.66395 13.4155 8.66844 13.4146 8.67361C13.414 8.67665 13.4134 8.68065 13.413 8.68537C13.3506 9.15903 13.3058 9.65235 13.3058 10.1645C13.3058 13.7087 14.8165 17.5186 17.2043 19.8592C17.0798 20.1301 16.9478 20.3973 16.7939 20.6484L16.7939 20.6484C16.4353 21.2344 15.98 21.7427 15.3998 22.2174L15.3997 22.2174L15.3973 22.2196C15.2595 22.3401 15.1033 22.4531 14.9178 22.5768L14.917 22.5773C14.0668 23.1558 13.0032 23.5787 11.8215 23.8171C11.6961 23.8345 10.55 24.0085 9.23306 24.9465C7.91286 25.8868 6.42762 27.5901 5.62447 30.6558H4.04529C3.00946 30.6558 2.01949 31.1141 1.35025 31.9117C0.681258 32.7089 0.3971 33.7539 0.57123 34.7803L0.571275 34.7806L3.5994 52.3437L3.59941 52.3438C3.89267 54.0392 5.35021 55.2678 7.06451 55.2678H37.3369C39.0511 55.2678 40.5087 54.0392 40.802 52.3438L40.802 52.3437L43.8299 34.7817C43.8299 34.7816 43.8299 34.7815 43.83 34.7813C44.0222 33.7369 43.7382 32.6915 43.0689 31.9028C42.3998 31.1053 41.4188 30.6469 40.3739 30.6469H38.7948C37.9961 27.5813 36.5131 25.878 35.2008 24.9388C33.8944 24.0039 32.7633 23.8306 32.6588 23.817C31.663 23.6316 30.7752 23.3146 30.0209 22.8848ZM13.4237 8.64113C13.4237 8.64111 13.4237 8.64111 13.4237 8.64116L13.4237 8.64113ZM22.214 20.182C21.0568 20.182 19.9806 19.7103 19.0276 18.92V18.9171L18.9917 18.8872C16.7472 17.0123 15.2425 13.4088 15.2425 10.1645C15.2425 9.95518 15.2493 9.75959 15.2629 9.55952C17.0331 9.34351 18.4623 8.63503 19.6509 7.36969C21.0617 8.45793 24.2472 10.1356 29.0146 8.36688C29.1238 8.93223 29.1856 9.52897 29.1856 10.1645C29.1856 12.4825 28.4189 14.993 27.159 16.922C25.8976 18.8533 24.1564 20.182 22.214 20.182ZM12.1285 25.7159L12.1285 25.716L12.1337 25.715C13.6319 25.4189 14.9365 24.8979 15.9916 24.1765L15.9917 24.1767L15.9976 24.172C16.0197 24.1543 16.0419 24.1391 16.0653 24.1242L21.6576 28.0053C21.6577 28.0053 21.6577 28.0054 21.6578 28.0054C21.8281 28.1255 22.018 28.175 22.2051 28.175C22.3941 28.175 22.5921 28.1157 22.7516 28.006L22.752 28.0057L28.3508 24.1175C28.5908 24.2817 28.8327 24.4382 29.0681 24.5644C30.005 25.0958 31.0931 25.482 32.3399 25.7152L32.3398 25.7154L32.3459 25.7161C32.4595 25.7303 35.4432 26.2097 36.7929 30.638H7.62649C8.30028 28.4414 9.37297 27.2209 10.2996 26.5449C11.2456 25.8548 12.0457 25.7277 12.1285 25.7159ZM2.48728 34.4349L2.48711 34.434C2.40359 33.9746 2.5371 33.4968 2.83947 33.1356C3.1413 32.7751 3.58537 32.5658 4.0542 32.5658H40.3828C40.8516 32.5658 41.2957 32.7751 41.5975 33.1356C41.8989 33.4956 42.0251 33.9736 41.9496 34.4353C41.9496 34.4354 41.9496 34.4356 41.9496 34.4357L38.9216 51.9977C38.9216 51.9977 38.9216 51.9978 38.9216 51.9979C38.7873 52.7611 38.1248 53.3222 37.3547 53.3222H7.08232C6.30308 53.3222 5.64962 52.7698 5.51537 51.9979L2.48728 34.4349ZM22.214 2.82781C25.1484 2.82781 27.3523 4.2038 28.4376 6.51981C23.1628 8.49696 20.3977 5.47986 20.2855 5.35179C20.0978 5.13463 19.8195 5.00422 19.5193 5.02371C19.2307 5.03417 18.9539 5.18284 18.7849 5.4115C17.9165 6.58335 16.9072 7.26464 15.6131 7.54867C16.4778 4.61503 18.8695 2.82781 22.214 2.82781Z" fill="#9AD2FF" stroke="#9AD2FF" stroke-width="0.2"/>
<path d="M22.2142 40.1495C20.6716 40.1495 19.4156 41.4055 19.4156 42.9481C19.4156 44.4907 20.6716 45.7467 22.2142 45.7467C23.7568 45.7467 25.0128 44.4907 25.0128 42.9481C25.0128 41.4055 23.7568 40.1495 22.2142 40.1495ZM22.2142 43.8189C21.7351 43.8189 21.3434 43.4273 21.3434 42.9481C21.3434 42.469 21.7351 42.0773 22.2142 42.0773C22.6934 42.0773 23.085 42.469 23.085 42.9481C23.085 43.4273 22.6934 43.8189 22.2142 43.8189Z" fill="#9AD2FF" stroke="#9AD2FF" stroke-width="0.2"/>
<path d="M39.2637 57.1364L39.2637 57.1345C39.2538 56.6001 38.8274 56.1725 38.2909 56.1725H6.1393C5.60313 56.1725 5.17539 56.6002 5.17539 57.1364C5.17539 57.6725 5.60313 58.1003 6.1393 58.1003H38.2998C38.8359 58.1003 39.2637 57.6725 39.2637 57.1364Z" fill="#9AD2FF" stroke="#9AD2FF" stroke-width="0.2"/>
</svg>
