<svg width="43" height="43" viewBox="0 0 43 43" fill="none" xmlns="http://www.w3.org/2000/svg">
<g clip-path="url(#clip0_3263_64151)">
<path d="M10 5.5V7.5L26 9L25.5 5.5L24.5 3.5L22.5 1.5L19.5 1H14.5L10 5.5Z" fill="#9AD2FF"/>
<path d="M25.7275 5.73333C25.4408 4.05633 24.1222 0 17.9158 0C11.7095 0 10.3908 4.05633 10.1113 5.73333H11.5447C11.8098 4.343 12.9565 1.43333 17.9158 1.43333C22.8393 1.43333 24.0075 4.343 24.2798 5.73333H25.7275Z" fill="#00003C"/>
<path d="M1.43362 14.9926V7.88329C1.43362 7.69322 1.50913 7.51093 1.64353 7.37653C1.77793 7.24213 1.96022 7.16663 2.15029 7.16663H33.6836C33.8737 7.16663 34.056 7.24213 34.1904 7.37653C34.3248 7.51093 34.4003 7.69322 34.4003 7.88329V14.9926C34.4013 15.1236 34.3659 15.2524 34.2979 15.3644C34.2299 15.4764 34.1321 15.5673 34.0154 15.6269C32.5821 16.383 28.9414 17.6636 20.646 17.8987C20.4957 17.4852 20.2222 17.1278 19.8623 16.8747C19.5024 16.6216 19.0736 16.485 18.6336 16.4833H17.2003C16.7603 16.485 16.3315 16.6216 15.9716 16.8747C15.6118 17.1278 15.3382 17.4852 15.1879 17.8987C6.89247 17.6636 3.25252 16.383 1.81202 15.6233C1.69698 15.5632 1.60076 15.4725 1.53399 15.3613C1.46722 15.25 1.43248 15.1224 1.43362 14.9926Z" fill="#00003C"/>
<path d="M19.5 15H16.5C15.6716 15 15 15.7462 15 16.6667V23.3333C15 24.2538 15.6716 25 16.5 25H19.5C20.3284 25 21 24.2538 21 23.3333V16.6667C21 15.7462 20.3284 15 19.5 15Z" fill="#00003C"/>
<path d="M19 17H17C16.4477 17 16 17.4477 16 18V22C16 22.5523 16.4477 23 17 23H19C19.5523 23 20 22.5523 20 22V18C20 17.4477 19.5523 17 19 17Z" fill="#9AD2FF"/>
<path d="M2.86706 30.8167C2.67699 30.8167 2.4947 30.7412 2.3603 30.6068C2.2259 30.4724 2.15039 30.2901 2.15039 30.1001V17.3491C4.13054 18.141 7.97689 19.1186 15.0504 19.3286V21.5001C15.0504 22.0703 15.2769 22.6171 15.6801 23.0203C16.0833 23.4235 16.6302 23.6501 17.2004 23.6501H18.6337C19.2039 23.6501 19.7508 23.4235 20.154 23.0203C20.5572 22.6171 20.7837 22.0703 20.7837 21.5001V19.3286C27.8615 19.1186 31.7079 18.1396 33.6837 17.3498V23.8335C33.4071 24.1398 33.124 24.4558 32.8345 24.7817L25.0629 21.6792C24.794 21.5694 24.4984 21.5422 24.2139 21.6011C23.9294 21.6599 23.6688 21.8021 23.4655 22.0096L22.2844 23.1907C22.1357 23.342 22.0209 23.5231 21.9475 23.7222C21.8741 23.9212 21.8438 24.1336 21.8587 24.3452C21.8738 24.5541 21.9333 24.7574 22.0333 24.9415C22.1332 25.1255 22.2714 25.286 22.4385 25.4123L28.432 29.8958C28.169 30.2097 27.9131 30.5157 27.6623 30.8167H2.86706Z" fill="#00003C"/>
<path d="M40.0866 25.213C39.0926 26.2063 37.7632 27.4347 36.2424 28.772C36.1312 28.8697 36.0529 28.9995 36.0184 29.1434C35.9838 29.2874 35.9948 29.4386 36.0496 29.5761L39.3248 37.8715L38.0843 39.0504L33.1393 32.4499C33.0807 32.3718 33.0068 32.3064 32.922 32.2578C32.8373 32.2093 32.7435 32.1786 32.6465 32.1675C32.5494 32.1565 32.4511 32.1655 32.3577 32.1938C32.2642 32.2222 32.1775 32.2693 32.103 32.3324C29.523 34.5182 27.178 36.4224 26.298 37.1391C26.1925 37.2248 26.1135 37.3388 26.0704 37.4678C26.0272 37.5967 26.0217 37.7352 26.0543 37.8672L26.7373 40.5569L25.7282 41.5738L24.8546 39.8323C24.8037 39.7308 24.7294 39.6428 24.6378 39.5757C24.5462 39.5085 24.44 39.4641 24.3278 39.446C24.2901 39.4401 24.252 39.4369 24.2139 39.4367C24.0238 39.4368 23.8416 39.5123 23.7072 39.6467L23.0765 40.2767C22.9423 40.4101 22.7606 40.4851 22.5713 40.4851C22.382 40.4851 22.2003 40.4101 22.066 40.2767C21.9986 40.2117 21.9449 40.1338 21.9083 40.0476C21.8716 39.9614 21.8527 39.8687 21.8527 39.775C21.8527 39.6813 21.8716 39.5886 21.9083 39.5024C21.9449 39.4162 21.9986 39.3383 22.066 39.2733L22.7039 38.6362C22.7839 38.5558 22.8436 38.4575 22.8782 38.3494C22.9128 38.2414 22.9212 38.1266 22.9028 38.0147C22.8844 37.9027 22.8397 37.7967 22.7723 37.7055C22.705 37.6142 22.6169 37.5402 22.5154 37.4895L20.7832 36.631L21.7808 35.6319L24.4819 36.2984C24.6139 36.3316 24.7526 36.3263 24.8816 36.2831C25.0107 36.2399 25.1246 36.1607 25.2101 36.0548C25.931 35.1668 27.8417 32.8219 30.0182 30.2376C30.0809 30.163 30.1278 30.0763 30.1559 29.9829C30.184 29.8895 30.1927 29.7914 30.1816 29.6945C30.1705 29.5977 30.1397 29.5041 30.0911 29.4195C30.0426 29.3349 29.9773 29.2612 29.8992 29.2027L23.3059 24.199L24.5328 23.01L32.7745 26.2995C32.9119 26.3545 33.063 26.3655 33.207 26.3311C33.351 26.2967 33.4808 26.2186 33.5786 26.1074C34.9209 24.5795 36.1507 23.2508 37.139 22.2618C37.8654 21.4506 38.8581 20.9262 39.9376 20.7833C40.3675 20.79 40.778 20.9637 41.0821 21.2678C41.3861 21.5719 41.5599 21.9823 41.5665 22.4123C41.424 23.4923 40.8996 24.4856 40.0881 25.2123L40.0866 25.213Z" fill="#00003C"/>
</g>
<defs>
<clipPath id="clip0_3263_64151">
<rect width="43" height="43" fill="white"/>
</clipPath>
</defs>
</svg>
