<svg width="43" height="43" viewBox="0 0 43 43" fill="none" xmlns="http://www.w3.org/2000/svg">
<rect x="23" y="12" width="8" height="8" fill="#9AD2FF"/>
<rect x="25" y="31" width="4" height="8" fill="#9AD2FF"/>
<path d="M16.125 12.667C16.125 11.4666 16.7163 10.3558 17.7196 9.69288L24.8863 4.90913C26.0867 4.10288 27.6633 4.10288 28.8638 4.90913L36.0304 9.69288C37.0158 10.3558 37.625 11.4666 37.625 12.667V22.8437C37.625 23.3454 37.2308 23.7395 36.7292 23.7395H17.0208C16.5192 23.7395 16.125 23.3454 16.125 22.8437V12.667ZM26.875 19.2604C28.595 19.2604 30.0104 17.845 30.0104 16.125C30.0104 14.405 28.595 12.9895 26.875 12.9895C25.155 12.9895 23.7396 14.405 23.7396 16.125C23.7396 17.845 25.155 19.2604 26.875 19.2604Z" fill="#00003C"/>
<path d="M3.58268 38.073H5.8581V32.698C4.15602 32.1425 2.91977 30.548 2.91977 28.6667V25.0834C2.91977 22.7363 5.15606 20.5 7.50315 20.5C9.85023 20.5 12 22.7363 12 25.0834V28.6667C12 30.53 10.2298 32.1067 8.56352 32.68V38.073H16.1243V27.323C16.1243 26.8213 16.5185 26.4271 17.0202 26.4271H36.7285C37.2302 26.4271 37.6243 26.8213 37.6243 27.323V38.073H39.416C40.1506 38.073 40.7598 38.6821 40.7598 39.4167C40.7598 40.1513 40.1506 40.7605 39.416 40.7605H7.29143C7.2556 40.7605 7.23768 40.7784 7.20185 40.7784C7.16602 40.7784 7.1481 40.7605 7.11227 40.7605H3.58268C2.8481 40.7605 2.23893 40.1513 2.23893 39.4167C2.23893 38.6821 2.8481 38.073 3.58268 38.073ZM28.2181 32.698C28.2181 31.9634 27.6089 31.3542 26.8743 31.3542C26.1398 31.3542 25.5306 31.9634 25.5306 32.698V38.073H28.2181V32.698Z" fill="#00003C"/>
<rect x="5" y="22" width="5" height="9" rx="2.5" fill="#9AD2FF"/>
</svg>
