<svg width="47" height="47" viewBox="0 0 47 47" fill="none" xmlns="http://www.w3.org/2000/svg">
<circle cx="24.0112" cy="15.837" r="9.70652" fill="#9AD2FF"/>
<path fill-rule="evenodd" clip-rule="evenodd" d="M29.2301 37.5308C38.0083 38.0491 44.438 39.7288 44.438 41.7208C44.438 44.1261 35.0639 46.076 23.5004 46.076C11.9368 46.076 2.5625 44.1261 2.5625 41.7207C2.5625 39.7288 8.99223 38.0491 17.7704 37.5307C19.0764 39.1603 20.4222 40.8034 21.6246 42.5098C22.0571 43.1237 22.7493 43.4827 23.5003 43.4827C24.2512 43.4827 24.9434 43.1237 25.3759 42.5098C26.5783 40.8035 27.9241 39.1603 29.2301 37.5308ZM23.5015 0.924011C15.1019 0.924011 8.29274 7.7302 8.29274 16.1303C8.29274 24.7404 18.675 35.1362 23.1254 41.4523C23.2141 41.5781 23.3463 41.6468 23.5003 41.6468C23.6541 41.6468 23.7865 41.578 23.8752 41.4523C28.3256 35.1362 38.7078 24.7404 38.7078 16.1303C38.7078 7.73213 31.8997 0.924011 23.5015 0.924011ZM23.5015 7.92811C28.0281 7.92811 31.6976 11.5977 31.6976 16.1243C31.6976 20.6509 28.0281 24.3206 23.5015 24.3206C18.9749 24.3206 15.3053 20.651 15.3053 16.1243C15.3053 11.5976 18.9748 7.92811 23.5015 7.92811ZM24.434 21.5664L24.4463 22.077C24.4582 22.582 24.0585 23.0011 23.5534 23.0129C23.0483 23.0248 22.6294 22.6251 22.6175 22.12L22.6046 21.5845C22.3513 21.5237 22.1183 21.4357 21.8946 21.3226C21.4616 21.1036 21.1065 20.8094 20.7194 20.4442C20.351 20.0976 20.3334 19.518 20.6799 19.1496C21.0264 18.7813 21.606 18.7636 21.9744 19.1102C22.2477 19.368 22.4834 19.568 22.7193 19.6874C22.9248 19.7913 23.1681 19.8475 23.5014 19.8475C23.9827 19.8475 24.4103 19.6805 24.7125 19.4106C24.988 19.1647 25.1584 18.8303 25.1584 18.4659C25.1584 18.1016 24.988 17.7673 24.7125 17.5213C24.4103 17.2515 23.9827 17.0845 23.5014 17.0845C22.5605 17.0845 21.7007 16.7367 21.071 16.1743C19.6564 14.9111 19.6563 12.8231 21.071 11.5598C21.4841 11.1908 21.9983 10.9145 22.5707 10.769L22.5564 10.1715C22.5446 9.66656 22.9443 9.24751 23.4492 9.23567C23.9542 9.22383 24.3733 9.62351 24.3851 10.1286L24.4009 10.7883C24.6755 10.8619 24.9563 10.9628 25.2176 11.0844C25.7624 11.3377 26.2684 11.7003 26.5496 12.1282C26.8268 12.55 26.7097 13.1167 26.2879 13.394C25.8661 13.6712 25.2993 13.5541 25.0221 13.1323C24.9439 13.0132 24.7197 12.8736 24.4503 12.7483C24.0997 12.5852 23.7343 12.4821 23.5014 12.4821C23.0227 12.4821 22.5949 12.6504 22.2901 12.9225C21.6936 13.4552 21.6932 14.2788 22.2901 14.8118C22.5923 15.0817 23.02 15.2486 23.5014 15.2486C24.4421 15.2486 25.3021 15.5965 25.9318 16.1588C26.5883 16.745 26.9943 17.5605 26.9943 18.466C26.9943 19.3716 26.5883 20.187 25.9318 20.7733C25.518 21.143 25.0045 21.42 24.434 21.5664Z" fill="#00003C"/>
<path fill-rule="evenodd" clip-rule="evenodd" d="M29.6676 38.0001C38.4458 38.5185 44.8755 40.1981 44.8755 42.1902C44.8755 44.5954 35.5014 46.5453 23.9379 46.5453C12.3743 46.5453 3 44.5954 3 42.1901C3 40.1981 9.42973 38.5184 18.2079 38C19.5139 39.6296 20.8597 41.2727 22.0621 42.9792C22.4946 43.593 23.1868 43.952 23.9378 43.952C24.6887 43.952 25.3809 43.593 25.8134 42.9792C27.0158 41.2728 28.3616 39.6297 29.6676 38.0001Z" fill="#9AD2FF"/>
</svg>
