<svg width="38" height="39" viewBox="0 0 38 39" fill="none" xmlns="http://www.w3.org/2000/svg">
<path d="M28 33.5H10V0.5L28.5 1V9.5H29.5H35.5L37.5 10V35L35.5 37.5H30L28 33.5Z" fill="#00003C"/>
<path d="M28.5 9.5V1.5L32 4L36 8L37 9.5H28.5Z" fill="#9AD2FF"/>
<path d="M2.84509 15C1.82763 15 1 14.0547 1 12.8926V6.10743C1 4.9453 1.82763 4 2.84509 4H20.1549C21.1724 4 22 4.9453 22 6.10743V12.8926C22 14.0547 21.1724 15 20.1549 15H2.84509Z" fill="#9AD2FF"/>
<path d="M29.5 34H6L6.5 36.5L7.5 37.5L10 38H30.5L29.5 34Z" fill="#9AD2FF"/>
<path opacity="0.7" d="M19.9675 4H1.92336C0.862738 4 0 4.93675 0 6.08837V12.8121C0 13.3881 0.28478 14.6226 0.633453 15L2.08145 14.9124C1.10736 14.9124 1.10736 13.3624 1.10736 13.3624V6.94702C1.10736 5.79541 1.65392 5.20236 2.71417 5.20236C2.71417 5.20236 15.9097 5.20236 19.9919 5.20236C20.5874 5.20236 21.8905 4.99859 21.8905 6.27191L22 4.64221C21.6528 4.26362 20.498 4 19.9675 4Z" fill="white"/>
<path d="M25.543 15.2536C25.543 15.6157 25.8324 15.909 26.1897 15.909H31.8677C32.2249 15.909 32.5144 15.6157 32.5144 15.2536C32.5144 14.8915 32.2246 14.5981 31.8677 14.5981H26.1897C25.8324 14.5981 25.543 14.8915 25.543 15.2536Z" fill="#9AD2FF"/>
<path d="M31.8666 18.8589H15.346C14.9887 18.8589 14.6992 19.1526 14.6992 19.5147C14.6992 19.8768 14.9887 20.1701 15.346 20.1701H31.8666C32.2238 20.1701 32.5133 19.8768 32.5133 19.5147C32.5136 19.1526 32.2238 18.8589 31.8666 18.8589Z" fill="#9AD2FF"/>
<path d="M31.8666 23.12H15.346C14.9887 23.12 14.6992 23.4134 14.6992 23.7754C14.6992 24.1375 14.9887 24.4309 15.346 24.4309H31.8666C32.2238 24.4309 32.5133 24.1372 32.5133 23.7754C32.5136 23.4137 32.2238 23.12 31.8666 23.12Z" fill="#9AD2FF"/>
<path d="M31.8666 27.3812H15.346C14.9887 27.3812 14.6992 27.6746 14.6992 28.0367C14.6992 28.3987 14.9887 28.6921 15.346 28.6921H31.8666C32.2238 28.6921 32.5133 28.3987 32.5133 28.0367C32.5136 27.675 32.2238 27.3812 31.8666 27.3812Z" fill="#9AD2FF"/>
<path d="M37.998 9.55946C37.9965 9.48182 37.9814 9.40526 37.9535 9.33299C37.9496 9.32297 37.9454 9.31367 37.9408 9.30401C37.9288 9.27718 37.9153 9.25142 37.8998 9.22637C37.8942 9.21707 37.8889 9.20813 37.8832 9.19918C37.8613 9.16734 37.8373 9.13657 37.8098 9.10831L29.1312 0.313447C29.1036 0.28554 29.0733 0.261212 29.0418 0.239029C29.033 0.232589 29.0238 0.227223 29.0147 0.221498C28.99 0.206114 28.9649 0.192161 28.9388 0.180354C28.9289 0.175703 28.9194 0.171052 28.9095 0.167116C28.8742 0.153163 28.8385 0.141357 28.8014 0.133843C28.8011 0.133843 28.8018 0.134201 28.8014 0.133843C28.7644 0.12633 28.7255 0.122752 28.6871 0.122037C28.6828 0.122037 28.6786 0.120605 28.674 0.120605H9.86195C9.50469 0.120605 9.21522 0.413982 9.21522 0.776052V3.75848H3.00031C1.34606 3.75919 0 5.12339 0 6.79993V12.8682C0 14.5447 1.34606 15.9089 3.00031 15.9089H9.21522V33.0625H5.73868C5.71397 33.0625 5.68961 33.0643 5.66526 33.0672C5.64125 33.0643 5.61689 33.0625 5.59218 33.0625C5.23493 33.0625 4.94545 33.3562 4.94545 33.718C4.94545 36.5644 7.23054 38.8803 10.0392 38.8803H32.9056C35.7146 38.8803 37.9994 36.5644 37.9994 33.718V30.0132V9.57199C37.999 9.56769 37.998 9.56376 37.998 9.55946ZM29.3207 2.35957L30.3106 3.36242L35.7909 8.91654H29.3207V2.35957ZM1.29346 12.8682V6.79993C1.29346 5.8461 2.05916 5.07044 3.00031 5.07044H20.4472C21.3884 5.07044 22.1541 5.84646 22.1541 6.79993V12.8682C22.1541 13.822 21.3884 14.5977 20.4472 14.5977H3.00031C2.05916 14.598 1.29346 13.822 1.29346 12.8682ZM10.0388 37.5694C8.16393 37.5694 6.60288 36.1859 6.29504 34.3738H9.86195H27.8539C28.0128 35.6378 28.6239 36.7608 29.5181 37.5694H10.0388ZM36.7055 33.718C36.7055 35.8414 35.0005 37.5691 32.9053 37.5691C30.8101 37.5691 29.1054 35.8414 29.1054 33.718C29.1054 33.3559 28.8156 33.0625 28.4587 33.0625H10.509V15.9089H20.4472C22.1015 15.9089 23.4475 14.5447 23.4475 12.8682V6.79993C23.4475 5.12339 22.1015 3.75919 20.4472 3.75919H10.509V1.43257H28.0269V9.57199C28.0269 9.93406 28.3167 10.2274 28.6737 10.2274H36.7055V33.718Z" fill="#00003C"/>
<path d="M12.603 8.29414C12.5469 8.14495 12.5006 8.02545 12.4643 7.93565C12.4261 7.84155 12.3785 7.75247 12.3227 7.67054C12.2631 7.58288 12.184 7.51061 12.088 7.45515C11.9898 7.39898 11.868 7.37036 11.7261 7.37036C11.5863 7.37036 11.4656 7.39898 11.3674 7.45515C11.2711 7.51061 11.1916 7.58431 11.132 7.67447C11.0762 7.75891 11.0232 7.86517 10.9749 7.99039L10.8556 8.29951L9.69378 11.2877C9.64435 11.4118 9.61046 11.5052 9.58928 11.5735C9.56634 11.6483 9.55469 11.7224 9.55469 11.7936C9.55469 11.9277 9.60658 12.0429 9.71355 12.1463C9.81769 12.2472 9.94054 12.2984 10.0775 12.2984C10.2427 12.2984 10.361 12.2479 10.4383 12.1438C10.5029 12.0569 10.5799 11.893 10.6667 11.6562L10.779 11.3499H12.6803L12.7919 11.6465C12.8205 11.7184 12.8558 11.8011 12.896 11.8944C12.9394 11.995 12.98 12.0687 13.0203 12.1202C13.0623 12.1746 13.1156 12.2182 13.1781 12.2501C13.2413 12.2823 13.3165 12.2984 13.4012 12.2984C13.5491 12.2984 13.6723 12.2465 13.7775 12.1402C13.8827 12.034 13.9335 11.9184 13.9335 11.7871C13.9335 11.6737 13.8848 11.4977 13.7881 11.2626L12.603 8.29414ZM11.1659 10.2523L11.7205 8.68447L12.2856 10.2523H11.1659Z" fill="#00003C"/>
<path d="M7.84712 7.44861H5.1084C4.89976 7.44861 4.73914 7.49977 4.63112 7.60138C4.51921 7.70585 4.46484 7.83644 4.46484 8.00066C4.46484 8.16309 4.51886 8.29225 4.6297 8.39564C4.73667 8.49582 4.898 8.54662 5.10875 8.54662H5.9334V11.646C5.9334 11.8575 5.98389 12.0203 6.08414 12.1301C6.18723 12.2435 6.31608 12.2986 6.47811 12.2986C6.63838 12.2986 6.76582 12.2439 6.86785 12.1319C6.96669 12.0231 7.01682 11.8596 7.01682 11.6464V8.54698H7.84783C8.05646 8.54698 8.21709 8.49582 8.32546 8.39421C8.43737 8.28974 8.49174 8.15915 8.49174 7.99493C8.49174 7.8325 8.43772 7.70335 8.32688 7.59995C8.21885 7.49941 8.05752 7.44861 7.84712 7.44861Z" fill="#00003C"/>
<path d="M18.8603 7.8301C18.8373 7.67768 18.7611 7.55926 18.6262 7.46731C18.532 7.40291 18.4328 7.37 18.3315 7.37C18.2923 7.37 18.2517 7.375 18.2111 7.38466C18.0692 7.41865 17.9375 7.52563 17.8196 7.70308L17.0521 8.85405L16.2843 7.70308C16.1664 7.52599 16.0347 7.41901 15.8928 7.38502C15.8522 7.37536 15.812 7.37035 15.7724 7.37035C15.6711 7.37035 15.5719 7.40291 15.4776 7.46767C15.3431 7.55926 15.2665 7.67804 15.2436 7.83045C15.2214 7.97821 15.2694 8.14172 15.3859 8.31703L16.398 9.83436L15.3859 11.3517C15.269 11.527 15.2214 11.6909 15.2436 11.8383C15.2665 11.9907 15.3431 12.1095 15.4776 12.2014C15.5719 12.2658 15.6711 12.2987 15.7721 12.2987C15.8116 12.2987 15.8518 12.2937 15.8924 12.2841C16.0344 12.2501 16.166 12.1431 16.2839 11.9656L17.0518 10.8147L17.8192 11.9656C17.9371 12.1427 18.0688 12.2497 18.2107 12.2837C18.2513 12.2934 18.2916 12.2984 18.3311 12.2984C18.4324 12.2984 18.5316 12.2658 18.6259 12.2011C18.7604 12.1091 18.837 11.9903 18.8599 11.8379C18.8822 11.6905 18.8342 11.5266 18.7177 11.3513L17.7055 9.834L18.7173 8.31667C18.8349 8.14172 18.8825 7.97786 18.8603 7.8301Z" fill="#00003C"/>
<path d="M20.4473 4.91528C20.4917 4.91528 20.5352 4.91886 20.5789 4.92208C20.5775 4.91993 20.5765 4.91743 20.5751 4.91528H20.4473Z" fill="#FB3E2D"/>
</svg>
