<svg width="40" height="52" viewBox="0 0 40 52" fill="none" xmlns="http://www.w3.org/2000/svg">
<path d="M30.589 39.0603L8.9193 39.0571C8.32161 39.0571 7.83594 39.5417 7.83594 40.1405C7.83594 40.7382 8.32049 41.2238 8.9193 41.2238L30.589 41.227C31.1867 41.227 31.6724 40.7424 31.6724 40.1436C31.6723 39.5458 31.1879 39.0603 30.589 39.0603Z" fill="#9AD2FF"/>
<path d="M26.2512 43.394H13.2513C12.6525 43.394 12.168 43.8786 12.168 44.4774C12.168 45.0762 12.6525 45.5608 13.2513 45.5608H26.2512C26.8501 45.5608 27.3346 45.0762 27.3346 44.4774C27.3345 43.8785 26.8501 43.394 26.2512 43.394Z" fill="#9AD2FF"/>
<path d="M20.0025 13C13.4316 13 8.08594 18.3457 8.08594 24.9166C8.08594 31.4874 13.4316 36.8331 20.0025 36.8331C26.5733 36.8331 31.9191 31.4874 31.9191 24.9166C31.9191 18.3457 26.5733 13 20.0025 13ZM10.362 25.9999H14.608C14.728 28.9509 15.3375 31.8856 16.3954 33.9565C13.1283 32.6481 10.7695 29.6219 10.362 25.9999ZM14.6081 23.8333H10.3621C10.7696 20.2113 13.1284 17.1853 16.3955 15.8767C15.3376 17.9476 14.7281 20.8823 14.6081 23.8333ZM20.0025 34.6666C18.7613 34.6666 17.0157 31.3103 16.7959 26H23.2091C22.9893 31.3103 21.2437 34.6666 20.0025 34.6666ZM16.7959 23.8333C17.0157 18.523 18.7613 15.1667 20.0025 15.1667C21.2437 15.1667 22.9893 18.523 23.2091 23.8333H16.7959ZM23.6096 33.9566C24.6675 31.8856 25.277 28.951 25.397 26H29.643C29.2355 29.6219 26.8767 32.6481 23.6096 33.9566ZM25.397 23.8333C25.277 20.8823 24.6675 17.9476 23.6096 15.8767C26.8767 17.1853 29.2356 20.2114 29.643 23.8333H25.397Z" fill="#9AD2FF"/>
<path d="M35.1664 6.50018H32.9998V4.26155C32.9998 1.89455 30.9969 -0.0236467 28.6665 0.000220333C28.3335 0.00367344 28.0422 0.0497825 27.6985 0.136719L4.60127 6.52364C2.321 6.64714 0.5 8.52319 0.5 10.8335V47.6667C0.5 50.0565 2.44339 52 4.83334 52H35.1665C37.5564 52 39.4999 50.0566 39.4999 47.6667V10.8335C39.4998 8.44367 37.5564 6.50018 35.1664 6.50018ZM28.2549 2.23032C29.5192 1.90765 30.8331 2.9317 30.8331 4.26155V6.50018H12.8152L28.2549 2.23032ZM37.3331 47.6667C37.3331 48.861 36.3609 49.8333 35.1665 49.8333H4.83334C3.63897 49.8333 2.66672 48.861 2.66672 47.6667V10.8335C2.66672 9.63915 3.63897 8.6669 4.83334 8.6669H35.1665C36.3609 8.6669 37.3331 9.63915 37.3331 10.8335V47.6667Z" fill="#9AD2FF"/>
</svg>
