<svg width="62" height="62" viewBox="0 0 62 62" fill="none" xmlns="http://www.w3.org/2000/svg">
<path d="M49.0827 23.2498C49.0827 26.9957 47.9719 30.4315 46.0602 33.299C43.2702 37.4324 38.8527 40.3515 33.7119 41.1007C32.8335 41.2557 31.9294 41.3332 30.9994 41.3332C30.0693 41.3332 29.1652 41.2557 28.2868 41.1007C23.146 40.3515 18.7285 37.4324 15.9385 33.299C14.0268 30.4315 12.916 26.9957 12.916 23.2498C12.916 13.2523 21.0018 5.1665 30.9994 5.1665C40.9969 5.1665 49.0827 13.2523 49.0827 23.2498Z" stroke="#9AD2FF" stroke-width="2.2" stroke-linecap="round" stroke-linejoin="round"/>
<path d="M54.8956 47.7144L50.6331 48.7218C49.6773 48.9543 48.9281 49.6777 48.7215 50.6336L47.8173 54.4311C47.3265 56.4977 44.6915 57.1177 43.3223 55.4902L30.9998 41.3335L18.6773 55.516C17.3081 57.1435 14.6731 56.5235 14.1823 54.4568L13.2781 50.6593C13.0456 49.7035 12.2965 48.9544 11.3665 48.7477L7.10396 47.7402C5.14063 47.2752 4.44313 44.821 5.86396 43.4002L15.939 33.3252C18.729 37.4585 23.1465 40.3777 28.2873 41.1269C29.1656 41.2819 30.0698 41.3594 30.9998 41.3594C31.9298 41.3594 32.834 41.2819 33.7123 41.1269C38.8531 40.3777 43.2706 37.4585 46.0606 33.3252L56.1356 43.4002C57.5565 44.7952 56.859 47.2494 54.8956 47.7144Z" stroke="#9AD2FF" stroke-width="2.2" stroke-linecap="round" stroke-linejoin="round"/>
<path d="M32.4961 15.4485L34.0203 18.4968C34.227 18.9101 34.7695 19.3235 35.2603 19.401L38.0245 19.866C39.7811 20.1501 40.1945 21.4418 38.9286 22.7077L36.7845 24.8518C36.4228 25.2135 36.2161 25.911 36.3453 26.4277L36.9653 29.0885C37.4561 31.181 36.3453 32.0076 34.4853 30.8968L31.902 29.3726C31.437 29.0885 30.662 29.0885 30.197 29.3726L27.6136 30.8968C25.7536 31.9818 24.6428 31.181 25.1336 29.0885L25.7536 26.4277C25.857 25.9368 25.6761 25.2135 25.3145 24.8518L23.1703 22.7077C21.9045 21.4418 22.3178 20.176 24.0745 19.866L26.8386 19.401C27.3036 19.3235 27.8461 18.9101 28.0528 18.4968L29.577 15.4485C30.3261 13.7952 31.6695 13.7952 32.4961 15.4485Z" stroke="#9AD2FF" stroke-width="2.2" stroke-linecap="round" stroke-linejoin="round"/>
</svg>
