<svg width="132" height="132" viewBox="0 0 132 132" fill="none" xmlns="http://www.w3.org/2000/svg">
<g filter="url(#filter0_f_3237_63868)">
<path d="M98.4682 98.5766C116.516 80.5333 116.516 51.2792 98.4682 33.2359C80.4202 15.1926 51.1585 15.1926 33.1105 33.2359C15.0625 51.2792 15.0625 80.5333 33.1105 98.5766C51.1585 116.62 80.4202 116.62 98.4682 98.5766Z" fill="#6E9EF2"/>
<path d="M35.46 63.8598C35.46 63.8598 52.7956 67.4878 54.896 73.5578C56.9963 79.6277 58.5327 82.0775 51.7727 87.1637C45.0166 92.2498 42.0683 102.053 42.0683 102.053C42.0683 102.053 34.7949 101.781 34.0676 94.2796C33.3441 86.7787 37.257 89.524 34.1065 81.9375C30.9559 74.3549 24.9622 60.6907 35.46 63.8598Z" fill="#9AD2FF"/>
<path d="M32.8346 46.3772C32.8346 46.3772 35.4834 55.1341 37.4748 55.5929C39.4662 56.0479 41.2087 49.4646 45.7634 42.8231C48.1788 39.3001 52.9473 39.2884 56.4051 41.3493C56.9146 41.6526 57.4903 42.0181 58.0504 41.8354C58.4432 41.7071 58.6999 41.3454 58.9333 41.0071C59.4934 40.1828 60.0535 39.3623 60.6136 38.5379C60.7497 38.3396 60.8858 38.1374 61.0803 38.0013C61.901 37.4258 62.9862 38.293 63.9858 38.2541C64.6587 38.2268 65.2576 37.768 65.6272 37.2042C65.9617 36.6948 66.0083 36.0532 66.3195 35.5554C66.5645 35.1666 67.0274 34.8788 67.3074 34.4939C71.6365 28.5017 66.1522 23.9832 62.5272 24.5471C58.9022 25.1148 50.2402 24.8737 49.4234 24.8037C46.0434 24.5004 36.798 29.921 32.8657 37.072C31.446 39.6656 32.8346 46.3772 32.8346 46.3772Z" fill="#9AD2FF"/>
<path d="M97.4154 65.9055C97.4154 65.9055 84.9728 64.7622 83.1759 65.1278C81.3828 65.4894 74.5139 72.4459 75.0273 76.1711C75.5407 79.8963 82.2191 84.5237 84.3972 84.2515C86.5792 83.9793 85.0584 90.5975 83.7087 96.4769C82.3591 102.36 93.5959 99.2339 95.7274 96.7802C103.343 88.0117 105.898 77.7382 105.568 72.4382C105.451 70.5522 99.0451 66.3799 97.4154 65.9055Z" fill="#9AD2FF"/>
<path d="M77.486 52.8012C82.4063 56.1298 86.8675 55.3598 90.9904 51.7668C97.3848 50.7286 93.5847 57.0241 93.9893 59.9016C95.0589 61.0293 98.1122 62.1725 98.1122 62.1725C97.3693 62.1686 97.6221 67.4259 98.964 67.0098C99.5085 67.317 103.079 69.5373 103.079 69.5373C103.079 69.5373 101.539 71.8199 104.149 70.3112C109.839 65.0967 110.675 68.5808 109.929 56.7753C108.808 52.5329 105.059 42.0417 101.317 39.7786C94.1682 36.2478 93.6159 34.3463 93.3514 40.5252C89.8041 44.1687 86.2724 37.9043 84.8372 41.0035C82.3168 46.4474 74.9267 49.4649 77.486 52.8012Z" fill="#9AD2FF"/>
<path d="M73.1142 31.7413C73.0597 32.1457 72.9275 32.5384 72.6941 32.8728C72.0446 33.7983 70.6949 34.1638 70.3099 35.2254C70.2437 35.412 70.2126 35.6259 70.3099 35.8009C70.4304 36.0147 70.6988 36.0886 70.94 36.1431C72.0174 36.3841 73.1414 36.6252 74.2072 36.353C74.7089 36.2247 75.1756 35.9875 75.6385 35.7503C76.2025 35.4626 76.7626 35.1748 77.3265 34.8871C77.5132 34.7937 77.7 34.6965 77.8555 34.5565C80.2243 32.4334 73.7287 27.145 73.1142 31.7413Z" fill="#9AD2FF"/>
</g>
<defs>
<filter id="filter0_f_3237_63868" x="15.5742" y="15.7036" width="100.43" height="100.405" filterUnits="userSpaceOnUse" color-interpolation-filters="sRGB">
<feFlood flood-opacity="0" result="BackgroundImageFix"/>
<feBlend mode="normal" in="SourceGraphic" in2="BackgroundImageFix" result="shape"/>
<feGaussianBlur stdDeviation="2" result="effect1_foregroundBlur_3237_63868"/>
</filter>
</defs>
</svg>
