<svg width="85" height="61" viewBox="0 0 85 61" fill="none" xmlns="http://www.w3.org/2000/svg">
<g filter="url(#filter0_f_3237_63865)">
<path d="M49.2232 18.0573L36.1738 11.9445C44.4585 8.51096 54.9797 4.54857 59.651 4.4358C68.1457 4.2336 63.1555 8.74427 63.1555 8.74427L49.2232 18.0573Z" fill="white"/>
<path d="M21.0634 5.91722C23.3855 6.81157 47.8428 19.0876 48.9124 19.6476C48.9319 19.6553 48.9474 19.667 48.9591 19.6709C48.9669 19.6748 48.9669 19.6748 48.9746 19.6787C58.4067 24.8854 66.882 30.1699 70.2115 32.2774C71.1527 32.8724 72.3235 32.9618 73.3464 32.5185L77.9711 30.5043C79.6086 29.7927 81.2538 31.4881 80.4876 33.1018L77.0764 40.2839C75.8824 42.7181 73.0236 43.838 70.4915 42.8659L40.5305 30.4265L42.7826 53.1276C42.7826 53.1276 42.5881 59.8509 37.2322 53.2521C33.7122 48.9203 29.3287 34.0039 26.606 25.1692L4.99193 16.1401C2.11757 15.0397 8.29022 1.00214 21.0634 5.91722Z" fill="white"/>
</g>
<defs>
<filter id="filter0_f_3237_63865" x="0.296875" y="0.429199" width="84.3848" height="59.7236" filterUnits="userSpaceOnUse" color-interpolation-filters="sRGB">
<feFlood flood-opacity="0" result="BackgroundImageFix"/>
<feBlend mode="normal" in="SourceGraphic" in2="BackgroundImageFix" result="shape"/>
<feGaussianBlur stdDeviation="2" result="effect1_foregroundBlur_3237_63865"/>
</filter>
</defs>
</svg>
