<svg width="117" height="37" viewBox="0 0 117 37" fill="none" xmlns="http://www.w3.org/2000/svg">
<path d="M44.57 30.7905C42.89 30.7905 41.42 30.4105 40.16 29.6505C38.9 28.8905 37.92 27.8605 37.22 26.5605C36.52 25.2605 36.17 23.8205 36.17 22.2405C36.17 20.6005 36.52 19.1505 37.22 17.8905C37.94 16.6105 38.91 15.6005 40.13 14.8605C41.37 14.1205 42.75 13.7505 44.27 13.7505C45.55 13.7505 46.67 13.9605 47.63 14.3805C48.61 14.8005 49.44 15.3805 50.12 16.1205C50.8 16.8605 51.32 17.7105 51.68 18.6705C52.04 19.6105 52.22 20.6305 52.22 21.7305C52.22 22.0105 52.2 22.3005 52.16 22.6005C52.14 22.9005 52.09 23.1605 52.01 23.3805H39.41V20.3805H49.79L47.93 21.7905C48.11 20.8705 48.06 20.0505 47.78 19.3305C47.52 18.6105 47.08 18.0405 46.46 17.6205C45.86 17.2005 45.13 16.9905 44.27 16.9905C43.45 16.9905 42.72 17.2005 42.08 17.6205C41.44 18.0205 40.95 18.6205 40.61 19.4205C40.29 20.2005 40.17 21.1505 40.25 22.2705C40.17 23.2705 40.3 24.1605 40.64 24.9405C41 25.7005 41.52 26.2905 42.2 26.7105C42.9 27.1305 43.7 27.3405 44.6 27.3405C45.5 27.3405 46.26 27.1505 46.88 26.7705C47.52 26.3905 48.02 25.8805 48.38 25.2405L51.56 26.8005C51.24 27.5805 50.74 28.2705 50.06 28.8705C49.38 29.4705 48.57 29.9405 47.63 30.2805C46.71 30.6205 45.69 30.7905 44.57 30.7905ZM55.8591 30.4305V26.2305H59.8191V30.4305H55.8591Z" fill="#4D6082"/>
<path d="M69.057 30.4305L62.637 14.1105H66.927L71.577 26.9505H69.987L74.667 14.1105H78.957L72.537 30.4305H69.057ZM79.9292 30.4305V14.1105H83.8592V30.4305H79.9292ZM79.9292 12.2805V8.08046H83.8592V12.2805H79.9292ZM92.4978 30.7905C90.7578 30.7905 89.2378 30.3805 87.9378 29.5605C86.6578 28.7205 85.7778 27.5905 85.2978 26.1705L88.2378 24.7605C88.6578 25.6805 89.2378 26.4005 89.9778 26.9205C90.7378 27.4405 91.5778 27.7005 92.4978 27.7005C93.2178 27.7005 93.7878 27.5405 94.2078 27.2205C94.6278 26.9005 94.8378 26.4805 94.8378 25.9605C94.8378 25.6405 94.7478 25.3805 94.5678 25.1805C94.4078 24.9605 94.1778 24.7805 93.8778 24.6405C93.5978 24.4805 93.2878 24.3505 92.9478 24.2505L90.2778 23.5005C88.8978 23.1005 87.8478 22.4905 87.1278 21.6705C86.4278 20.8505 86.0778 19.8805 86.0778 18.7605C86.0778 17.7605 86.3278 16.8905 86.8278 16.1505C87.3478 15.3905 88.0578 14.8005 88.9578 14.3805C89.8778 13.9605 90.9278 13.7505 92.1078 13.7505C93.6478 13.7505 95.0078 14.1205 96.1878 14.8605C97.3678 15.6005 98.2078 16.6405 98.7078 17.9805L95.7078 19.3905C95.4278 18.6505 94.9578 18.0605 94.2978 17.6205C93.6378 17.1805 92.8978 16.9605 92.0778 16.9605C91.4178 16.9605 90.8978 17.1105 90.5178 17.4105C90.1378 17.7105 89.9478 18.1005 89.9478 18.5805C89.9478 18.8805 90.0278 19.1405 90.1878 19.3605C90.3478 19.5805 90.5678 19.7605 90.8478 19.9005C91.1478 20.0405 91.4878 20.1705 91.8678 20.2905L94.4778 21.0705C95.8178 21.4705 96.8478 22.0705 97.5678 22.8705C98.3078 23.6705 98.6778 24.6505 98.6778 25.8105C98.6778 26.7905 98.4178 27.6605 97.8978 28.4205C97.3778 29.1605 96.6578 29.7405 95.7378 30.1605C94.8178 30.5805 93.7378 30.7905 92.4978 30.7905ZM105.448 30.7905C104.308 30.7905 103.318 30.6005 102.478 30.2205C101.638 29.8405 100.988 29.3005 100.528 28.6005C100.068 27.8805 99.838 27.0505 99.838 26.1105C99.838 25.2105 100.038 24.4105 100.438 23.7105C100.838 22.9905 101.458 22.3905 102.298 21.9105C103.138 21.4305 104.198 21.0905 105.478 20.8905L110.818 20.0205V23.0205L106.228 23.8005C105.448 23.9405 104.868 24.1905 104.488 24.5505C104.108 24.9105 103.918 25.3805 103.918 25.9605C103.918 26.5205 104.128 26.9705 104.548 27.3105C104.988 27.6305 105.528 27.7905 106.168 27.7905C106.988 27.7905 107.708 27.6205 108.328 27.2805C108.968 26.9205 109.458 26.4305 109.798 25.8105C110.158 25.1905 110.338 24.5105 110.338 23.7705V19.5705C110.338 18.8705 110.058 18.2905 109.498 17.8305C108.958 17.3505 108.238 17.1105 107.338 17.1105C106.498 17.1105 105.748 17.3405 105.088 17.8005C104.448 18.2405 103.978 18.8305 103.678 19.5705L100.468 18.0105C100.788 17.1505 101.288 16.4105 101.968 15.7905C102.668 15.1505 103.488 14.6505 104.428 14.2905C105.368 13.9305 106.388 13.7505 107.488 13.7505C108.828 13.7505 110.008 14.0005 111.028 14.5005C112.048 14.9805 112.838 15.6605 113.398 16.5405C113.978 17.4005 114.268 18.4105 114.268 19.5705V30.4305H110.548V27.6405L111.388 27.5805C110.968 28.2805 110.468 28.8705 109.888 29.3505C109.308 29.8105 108.648 30.1705 107.908 30.4305C107.168 30.6705 106.348 30.7905 105.448 30.7905Z" fill="#00003C"/>
<path fill-rule="evenodd" clip-rule="evenodd" d="M7.5313 7.72238C-1.3953 12.3481 -2.8144 24.6993 5.58575 25.4384C12.933 26.0822 26.2085 17.2838 25.7049 11.5613C24.7207 9.05764 23.0956 8.34232 20.8983 8.46154C9.82017 26.726 -7.02593 19.0721 7.5313 7.72238Z" fill="#00003C"/>
<path fill-rule="evenodd" clip-rule="evenodd" d="M3.22852 29.7065C12.0178 38.9818 31.2672 29.1104 28.7723 16.9023C26.5063 21.0273 21.9286 24.4131 18.4724 26.3445C14.65 28.5143 9.61447 30.4456 5.19695 30.0403C4.53317 29.9926 3.8694 29.8734 3.22852 29.7065Z" fill="#FB3E2D"/>
<path fill-rule="evenodd" clip-rule="evenodd" d="M12.7266 35.9774C18.4716 37.6226 24.4227 34.7375 26.8947 29.6826C24.8576 31.757 22.3627 33.3784 19.7763 34.4514C17.5103 35.3575 15.107 35.9059 12.7266 35.9774Z" fill="#FB3E2D"/>
<path d="M14.5249 6.25852L13.539 11.2557L13.484 11.3011L12.8362 11.5569L12.5148 6.82329L9.75921 7.62521L9.25559 9.24995L8.78503 9.43919L8.51966 7.55528L7.46589 6.02324L7.93644 5.834L9.36404 6.62177L11.9252 5.24609L9.02481 1.6053L9.72763 1.3041L13.7651 4.24632C16.5032 2.98278 17.8637 3.74651 17.8637 3.74651C17.8637 3.74651 17.3664 5.22717 14.5249 6.25852Z" fill="#FB3E2D"/>
</svg>
