<svg width="16" height="16" viewBox="0 0 16 16" fill="none" xmlns="http://www.w3.org/2000/svg">
<path d="M13.3333 4.50001C14.3459 4.50001 15.1667 3.6792 15.1667 2.66668C15.1667 1.65415 14.3459 0.833344 13.3333 0.833344C12.3208 0.833344 11.5 1.65415 11.5 2.66668C11.5 3.6792 12.3208 4.50001 13.3333 4.50001Z" fill="#292D32"/>
<path d="M12.694 5.43334C11.6473 5.20668 10.794 4.35334 10.5673 3.30668C10.4807 2.90001 10.474 2.50668 10.5473 2.13334C10.634 1.72001 10.3273 1.33334 9.90065 1.33334H4.66732C2.82732 1.33334 1.33398 2.82668 1.33398 4.66668V9.30001C1.33398 11.14 2.82732 12.6333 4.66732 12.6333H5.66732C5.85398 12.6333 6.09398 12.7533 6.20065 12.9L7.20065 14.2267C7.64065 14.8133 8.36065 14.8133 8.80065 14.2267L9.80065 12.9C9.92732 12.7333 10.1207 12.6333 10.334 12.6333H11.3407C13.1807 12.6333 14.6673 11.1467 14.6673 9.30668V6.10001C14.6673 5.68001 14.2807 5.37334 13.8673 5.45334C13.494 5.52001 13.1007 5.52001 12.694 5.43334ZM5.33398 8.00001C4.96065 8.00001 4.66732 7.70001 4.66732 7.33334C4.66732 6.96668 4.96065 6.66668 5.33398 6.66668C5.70065 6.66668 6.00065 6.96668 6.00065 7.33334C6.00065 7.70001 5.70732 8.00001 5.33398 8.00001ZM8.00065 8.00001C7.62732 8.00001 7.33398 7.70001 7.33398 7.33334C7.33398 6.96668 7.62732 6.66668 8.00065 6.66668C8.36732 6.66668 8.66732 6.96668 8.66732 7.33334C8.66732 7.70001 8.37398 8.00001 8.00065 8.00001ZM10.6673 8.00001C10.294 8.00001 10.0007 7.70001 10.0007 7.33334C10.0007 6.96668 10.294 6.66668 10.6673 6.66668C11.034 6.66668 11.334 6.96668 11.334 7.33334C11.334 7.70001 11.0407 8.00001 10.6673 8.00001Z" fill="#292D32"/>
</svg>
