<svg width="45" height="45" viewBox="0 0 45 45" fill="none" xmlns="http://www.w3.org/2000/svg">
<g filter="url(#filter0_d_3270_64226)">
<circle cx="27.5" cy="18.5" r="8.5" fill="#9AD2FF"/>
<path fill-rule="evenodd" clip-rule="evenodd" d="M8.40613 8.88786L6.74179 10.5227C6.23698 11.0186 5.42595 11.0122 4.9301 10.5074C4.43426 10.0026 4.44067 9.19152 4.94548 8.69568L8.85713 4.85193C9.35554 4.36121 10.155 4.36121 10.6534 4.85193L14.4754 8.60727C14.9789 9.10183 14.9866 9.91414 14.4908 10.419C13.9949 10.9225 13.1839 10.9302 12.6791 10.4343L10.9686 8.75333V16.0155C10.9686 16.7227 10.3946 17.2967 9.68738 17.2967C8.98013 17.2967 8.40613 16.7227 8.40613 16.0155V8.88786ZM15.0135 15.6657C16.0872 9.67711 21.3288 5.12483 27.6249 5.12483C34.6961 5.12483 40.4374 10.8661 40.4374 17.9373C40.4374 22.3846 38.167 26.3065 34.7217 28.6037C34.5129 28.7434 34.3015 28.8754 34.0849 29.0022C32.1874 30.1131 29.9798 30.7498 27.6249 30.7498C21.8631 30.7498 16.9854 26.9381 15.3761 21.7016C15.0097 20.5114 14.8124 19.2468 14.8124 17.9373C14.8124 17.1622 14.8816 16.4037 15.0135 15.6657ZM26.3436 24.0694V24.3436C26.3436 25.0508 26.9176 25.6248 27.6249 25.6248C28.3321 25.6248 28.9061 25.0508 28.9061 24.3436V24.1117C29.9363 23.9118 30.8165 23.4224 31.393 22.6523C31.8299 22.0694 32.1093 21.3147 32.1093 20.3499C32.1093 18.4434 30.7627 17.5017 28.9318 16.9674C28.0631 16.715 27.0829 16.5536 26.3219 16.2179C26.0015 16.077 25.703 15.9271 25.703 15.5452C25.703 14.7099 26.3052 14.3511 27.0009 14.2537C28.0323 14.109 29.27 14.419 30.0939 14.9943C30.6743 15.3992 31.4738 15.2582 31.8786 14.6778C32.2835 14.0987 32.1413 13.2992 31.5622 12.8943C30.8254 12.3793 29.8824 11.9987 28.9061 11.8053V11.5311C28.9061 10.8238 28.3321 10.2498 27.6249 10.2498C26.9176 10.2498 26.3436 10.8238 26.3436 11.5311V11.7656C24.5179 12.1179 23.1405 13.3005 23.1405 15.5452C23.1405 17.453 24.4871 18.3947 26.318 18.9277C27.1867 19.1814 28.1669 19.3429 28.9279 19.6786C29.2482 19.8195 29.5468 19.9694 29.5468 20.3499C29.5468 21.1815 28.9459 21.53 28.254 21.6235C27.2162 21.7631 25.9695 21.4505 25.138 20.8893C24.5524 20.4947 23.7555 20.6497 23.3596 21.2353C22.9637 21.8221 23.1187 22.619 23.7055 23.0136C24.4371 23.5082 25.3737 23.8785 26.3436 24.0694ZM32.0093 32.6768C31.3725 33.3546 30.6589 33.9594 29.8824 34.477C27.9516 35.7646 25.6325 36.5155 23.1405 36.5155C17.667 36.5155 13.0327 32.8946 11.5042 27.9196C11.1557 26.7882 10.9686 25.5877 10.9686 24.3436C10.9686 22.3679 11.4401 20.5024 12.2768 18.8521C12.3498 20.0975 12.5728 21.3045 12.9264 22.455C14.8572 28.7383 20.7113 33.3123 27.6249 33.3123C29.1483 33.3123 30.6204 33.0907 32.0093 32.6768Z" fill="#00003C"/>
</g>
<defs>
<filter id="filter0_d_3270_64226" x="-2" y="0" width="49" height="49" filterUnits="userSpaceOnUse" color-interpolation-filters="sRGB">
<feFlood flood-opacity="0" result="BackgroundImageFix"/>
<feColorMatrix in="SourceAlpha" type="matrix" values="0 0 0 0 0 0 0 0 0 0 0 0 0 0 0 0 0 0 127 0" result="hardAlpha"/>
<feOffset dy="4"/>
<feGaussianBlur stdDeviation="2"/>
<feComposite in2="hardAlpha" operator="out"/>
<feColorMatrix type="matrix" values="0 0 0 0 0 0 0 0 0 0 0 0 0 0 0 0 0 0 0.25 0"/>
<feBlend mode="normal" in2="BackgroundImageFix" result="effect1_dropShadow_3270_64226"/>
<feBlend mode="normal" in="SourceGraphic" in2="effect1_dropShadow_3270_64226" result="shape"/>
</filter>
</defs>
</svg>
