<svg width="36" height="36" viewBox="0 0 36 36" fill="none" xmlns="http://www.w3.org/2000/svg">
<path d="M8.5 11.5H3L2.5 9.5L3 7.5L4 7L6 6.5L8 7L8.5 8.5V11.5Z" fill="#9AD2FF"/>
<ellipse cx="28" cy="8.5" rx="4" ry="3.5" fill="#9AD2FF"/>
<path d="M20.5 14H11L10.5 19L11.5 23L13 27.5L11.5 31.5V34H16H21H25H29C29.4 34 31.1667 33.3333 32 33L33.5 32.5V31L33 29.5H29C29 27.6667 28.9 23.8 28.5 23C28.1 22.2 26.3333 20.3333 25.5 19.5L22.5 15.5L20.5 14Z" fill="#9AD2FF"/>
<path d="M27.5703 2.25C24.157 2.25 21.3906 5.01638 21.3906 8.42963C21.3906 11.8429 24.157 14.6093 27.5703 14.6093C30.9835 14.6093 33.7499 11.8429 33.7499 8.42963C33.7499 5.01638 30.9835 2.25 27.5703 2.25ZM30.3062 8.16525L27.289 10.5964C27.109 10.7426 26.884 10.8202 26.6545 10.8202C26.6163 10.8202 26.578 10.818 26.5386 10.8135C26.2698 10.7831 26.0245 10.6459 25.858 10.4321L24.6722 8.92013C24.3269 8.48025 24.4045 7.8435 24.8433 7.49813C25.2843 7.15163 25.9221 7.23037 26.2653 7.67025L26.8176 8.3745L29.0361 6.588C29.4726 6.237 30.1094 6.30675 30.4604 6.741C30.8114 7.1775 30.7427 7.81537 30.3062 8.16525Z" fill="#00003C"/>
<path d="M32.997 27.8211H30.2858V15.8039C29.4387 16.1166 28.5263 16.2966 27.5712 16.2966C23.2332 16.2966 19.704 12.7675 19.704 8.42949C19.704 7.57561 19.8447 6.75549 20.0978 5.98486H4.93953C4.92828 5.98486 4.90578 5.99611 4.89453 5.99611C2.88078 6.00736 1.23828 7.66111 1.23828 9.67486V11.3511C1.23828 12.2174 1.94703 12.9261 2.81328 12.9261H6.60453V31.0611C6.60453 32.0961 7.04328 33.0974 7.80828 33.7949C8.49453 34.4136 9.37203 34.7511 10.2833 34.7624H30.8708C32.9183 34.7624 34.572 33.0974 34.572 31.0611V29.3961C34.572 28.5299 33.8633 27.8211 32.997 27.8211ZM6.60341 10.9H3.26328V9.68049C3.26328 8.76249 4.00916 8.01549 4.93728 8.01549C5.85528 8.01549 6.60228 8.76249 6.60228 9.68049L6.60341 10.9ZM13.3433 14.7149H20.5658C21.1249 14.7149 21.5783 15.1682 21.5783 15.7274C21.5783 16.2865 21.1249 16.7399 20.5658 16.7399H13.3433C12.7842 16.7399 12.3308 16.2865 12.3308 15.7274C12.3308 15.1682 12.7842 14.7149 13.3433 14.7149ZM12.3319 19.999C12.3319 19.4399 12.7853 18.9865 13.3444 18.9865H18.2888C18.8479 18.9865 19.3013 19.4399 19.3013 19.999C19.3013 20.5581 18.8479 21.0115 18.2888 21.0115H13.3444C12.7853 21.0126 12.3319 20.5581 12.3319 19.999ZM32.5504 31.0622C32.5504 31.9859 31.8 32.7362 30.8764 32.7362H13.5829C14.0408 31.8362 13.9845 30.8215 13.9845 29.8461H29.2733C29.2789 29.8461 29.2834 29.8427 29.2902 29.8427H32.5515L32.5504 31.0622Z" fill="#00003C"/>
</svg>
