<svg width="39" height="39" viewBox="0 0 39 39" fill="none" xmlns="http://www.w3.org/2000/svg">
<rect x="10.1406" y="10.1401" width="18.72" height="24.18" fill="#9AD2FF"/>
<path d="M10.5306 7.01998L24.5706 2.72998L26.9106 4.67998L28.8606 27.3H10.1406L10.5306 7.01998Z" fill="#9AD2FF"/>
<path d="M28.3169 7.11143H27.415V5.55143C27.4114 5.06821 27.296 4.59239 27.0779 4.16119C26.8597 3.73 26.5448 3.35515 26.1576 3.06597C25.7704 2.77679 25.3216 2.58113 24.8463 2.49431C24.3709 2.40749 23.8819 2.43187 23.4175 2.56553L8.07346 7.1419C7.99012 7.175 7.9121 7.22017 7.8419 7.27596C7.72357 7.39588 7.65038 7.55306 7.63477 7.72081V35.9532C7.63523 36.1146 7.69959 36.2693 7.81376 36.3835C7.92794 36.4977 8.08267 36.5621 8.24414 36.5625H28.3169C29.1246 36.5612 29.8988 36.2398 30.4699 35.6687C31.041 35.0975 31.3624 34.3233 31.3638 33.5157V10.1583C31.3614 9.35095 31.0396 8.57734 30.4688 8.00645C29.8979 7.43556 29.1243 7.1138 28.3169 7.11143ZM23.7649 3.7355C24.0473 3.65449 24.3446 3.63987 24.6336 3.69278C24.9226 3.7457 25.1955 3.86471 25.4309 4.04052C25.6663 4.21634 25.8579 4.44419 25.9906 4.70629C26.1234 4.96839 26.1938 5.25763 26.1963 5.55143V7.11143H12.4244L23.7649 3.7355ZM27.0007 33.1257H11.9978C11.8378 33.1233 11.6851 33.058 11.5728 32.944C11.4604 32.83 11.3974 32.6763 11.3974 32.5163C11.3974 32.3562 11.4604 32.2026 11.5728 32.0885C11.6851 31.9745 11.8378 31.9093 11.9978 31.9069H27.0007C27.1607 31.9093 27.3134 31.9745 27.4257 32.0885C27.5381 32.2026 27.6011 32.3562 27.6011 32.5163C27.6011 32.6763 27.5381 32.83 27.4257 32.944C27.3134 33.058 27.1607 33.1233 27.0007 33.1257ZM25.6296 25.673C23.9909 27.2877 21.7821 28.1918 19.4815 28.1896C17.181 28.1873 14.9739 27.2788 13.3385 25.6608C6.76702 18.8966 13.7999 7.99364 22.6681 11.3527C28.4627 13.4654 30.1673 21.3483 25.6296 25.673Z" fill="#00003C"/>
<path d="M22.3457 26.4225C23.0556 26.1217 23.7168 25.7171 24.3079 25.2221C24.0053 24.9734 23.6833 24.7492 23.3451 24.5518C23.095 25.2163 22.759 25.8452 22.3457 26.4225Z" fill="#00003C"/>
<path d="M20.1094 26.855C21.1726 26.3139 21.7312 25.2526 22.2239 24.0214C21.5467 23.753 20.8347 23.5827 20.1094 23.5156V26.855Z" fill="#00003C"/>
<path d="M17.7997 25.9531C18.074 26.3449 18.4516 26.6529 18.8905 26.8428V23.5034C16.3072 23.7971 16.5188 23.9025 17.7997 25.9531Z" fill="#00003C"/>
<path d="M14.6738 25.2283C15.2688 25.7367 15.9416 26.1461 16.6665 26.441C16.2647 25.8359 15.9316 25.188 15.6732 24.5093C15.321 24.7213 14.9868 24.9618 14.6738 25.2283Z" fill="#00003C"/>
<path d="M16.6299 12.5166C15.9184 12.8106 15.2581 13.2158 14.6738 13.7171C14.9847 13.9845 15.3192 14.2231 15.6732 14.43C15.9154 13.7567 16.2366 13.1144 16.6299 12.5166Z" fill="#00003C"/>
<path d="M16.7891 14.9539C17.4625 15.2152 18.171 15.3754 18.8914 15.4292V12.0776C18.0139 12.4372 17.2827 13.595 16.7891 14.9539Z" fill="#00003C"/>
<path d="M24.3082 13.6986C23.7269 13.2278 23.0803 12.844 22.3887 12.5591C22.7695 13.1378 23.0804 13.7597 23.3149 14.4116C23.6641 14.2002 23.9962 13.9618 24.3082 13.6986Z" fill="#00003C"/>
<path d="M20.8467 12.5837C20.6376 12.3686 20.3867 12.1985 20.1094 12.084V15.4355C20.8309 15.3773 21.5396 15.2109 22.2117 14.942C21.9326 14.0664 21.4669 13.2618 20.8467 12.5837Z" fill="#00003C"/>
<path d="M14.8627 18.4094C14.901 17.4637 15.0461 16.5254 15.2954 15.6123C14.7621 15.3221 14.2633 14.9726 13.8085 14.5703C12.6389 15.9348 11.9961 17.6726 11.9961 19.4697C11.9961 21.2668 12.639 23.0046 13.8086 24.3691C14.2659 23.9701 14.7643 23.6209 15.2954 23.327C14.9052 21.7188 14.7593 20.061 14.8627 18.4094Z" fill="#00003C"/>
<path d="M16.082 18.4519C15.9897 19.9128 16.1025 21.3794 16.4171 22.8089C17.2095 22.5064 18.0442 22.3296 18.8912 22.2849V16.6481C16.169 16.4633 16.3546 15.1403 16.082 18.4519Z" fill="#00003C"/>
<path d="M22.9552 19.4146C22.9738 18.3012 22.8427 17.1903 22.5652 16.1118C21.7779 16.4129 20.9503 16.5957 20.1094 16.6542V22.297C20.9525 22.3619 21.7817 22.5487 22.5713 22.8515C22.8158 21.7219 22.9444 20.5703 22.9552 19.4146Z" fill="#00003C"/>
<path d="M23.6797 15.5938C24.0193 16.849 24.1854 18.1448 24.1733 19.445C24.1635 20.7642 24.0082 22.0782 23.7102 23.3633C24.2322 23.646 24.7242 23.9809 25.1787 24.3627C26.3762 23.0037 27.0294 21.2502 27.013 19.4389C27.0111 17.6431 26.3621 15.908 25.1848 14.5518C24.72 14.9495 24.2156 15.2987 23.6797 15.5938Z" fill="#00003C"/>
</svg>
