<svg width="35" height="35" viewBox="0 0 35 35" fill="none" xmlns="http://www.w3.org/2000/svg">
<path d="M11 10L24 9L26.5 20.5L26 32H8L11 10Z" fill="#9AD2FF"/>
<path d="M14.584 22.604C13.9861 22.604 13.4902 23.0998 13.4902 23.6978V25.8853C13.4902 26.4832 13.9861 26.979 14.584 26.979C15.1819 26.979 15.6777 26.4832 15.6777 25.8853V23.6978C15.6777 23.0998 15.1819 22.604 14.584 22.604Z" fill="#00003C"/>
<path d="M32.0827 30.9897H30.6243V14.5543C30.6243 13.6501 30.216 12.8043 29.5014 12.2501L19.2931 4.3168C18.2431 3.48555 16.7556 3.48555 15.7056 4.3168L5.49727 12.2501C4.78268 12.8043 4.37435 13.6501 4.37435 14.5397L4.30143 30.9897H2.91602C2.3181 30.9897 1.82227 31.471 1.82227 32.0835C1.82227 32.6814 2.3181 33.1772 2.91602 33.1772H32.0827C32.6806 33.1772 33.1764 32.6814 33.1764 32.0835C33.1764 31.471 32.6806 30.9897 32.0827 30.9897ZM15.3118 9.84388H19.6868C20.2848 9.84388 20.7806 10.3397 20.7806 10.9376C20.7806 11.5355 20.2848 12.0314 19.6868 12.0314H15.3118C14.7139 12.0314 14.2181 11.5355 14.2181 10.9376C14.2181 10.3397 14.7139 9.84388 15.3118 9.84388ZM24.791 30.9897H10.2077V18.2293C10.2077 17.0189 11.1848 16.0418 12.3952 16.0418H22.6035C23.8139 16.0418 24.791 17.0189 24.791 18.2293V30.9897Z" fill="#00003C"/>
</svg>
