<svg width="105" height="94" viewBox="0 0 105 94" fill="none" xmlns="http://www.w3.org/2000/svg">
<path d="M3.10547 50.7192H18.7715V93.4682H3.10547V50.7192Z" fill="#C6D2D5"/>
<path d="M29.2148 42.4692H44.5077V93.4681H29.2148V42.4692Z" fill="#C6D2D5"/>
<path d="M55.3242 46.2191H70.617V93.4681H55.3242V46.2191Z" fill="#C6D2D5"/>
<path d="M81.0625 33.8445H96.7285V93.468H81.0625V33.8445Z" fill="#C6D2D5"/>
<path d="M20.8213 48.6561H5.5293V91.0311H20.8213V48.6561Z" fill="#E2E8E9" stroke="#121C27"/>
<path d="M46.5576 40.4061H31.6387V91.0311H46.5576V40.4061Z" fill="#FAD59F" stroke="#121C27"/>
<path d="M72.669 44.1561H57.75V91.0312H72.669V44.1561Z" fill="#E2E8E9" stroke="#121C27"/>
<path d="M98.7783 31.7815H83.4863V91.0311H98.7783V31.7815Z" fill="#FAD59F" stroke="#121C27"/>
<path d="M4.22461 40.9693L39.8117 15.8448L61.7375 27.8446L101.204 3.84509" stroke="#121C27"/>
<path d="M42.2705 17.3448C42.2705 19.0016 40.9344 20.3448 39.2864 20.3448C37.6385 20.3448 36.3027 19.0016 36.3027 17.3448C36.3027 15.688 37.6385 14.3448 39.2864 14.3448C40.9344 14.3448 42.2705 15.688 42.2705 17.3448Z" fill="#C6D2D5"/>
<path d="M6.4621 41.7191C6.4621 43.3761 5.12611 44.7193 3.47814 44.7193C1.83013 44.7193 0.494141 43.3761 0.494141 41.7191C0.494141 40.0626 1.83013 38.7194 3.47814 38.7194C5.12611 38.7194 6.4621 40.0626 6.4621 41.7191Z" fill="#C6D2D5"/>
<path d="M63.9033 28.5944C63.9033 30.2513 62.5676 31.5945 60.9192 31.5945C59.2713 31.5945 57.9355 30.2513 57.9355 28.5944C57.9355 26.9378 59.2713 25.5946 60.9192 25.5946C62.5676 25.5946 63.9033 26.9378 63.9033 28.5944Z" fill="#C6D2D5"/>
<path d="M103.441 4.59502C103.441 6.25186 102.105 7.59495 100.457 7.59495C98.8088 7.59495 97.4727 6.25186 97.4727 4.59502C97.4727 2.93823 98.8088 1.59509 100.457 1.59509C102.105 1.59509 103.441 2.93823 103.441 4.59502Z" fill="#C6D2D5"/>
<path d="M42.8282 16.5948C42.8282 18.1494 41.5751 19.4077 40.0311 19.4077C38.4875 19.4077 37.2344 18.1494 37.2344 16.5948C37.2344 15.0403 38.4875 13.7819 40.0311 13.7819C41.5751 13.7819 42.8282 15.0403 42.8282 16.5948Z" fill="#FAD59F" stroke="#121C27"/>
<path d="M7.02172 40.9693C7.02172 42.5238 5.76852 43.7821 4.22473 43.7821C2.68093 43.7821 1.42773 42.5238 1.42773 40.9693C1.42773 39.4148 2.68093 38.1561 4.22473 38.1561C5.76852 38.1561 7.02172 39.4148 7.02172 40.9693Z" fill="white" stroke="#121C27"/>
<path d="M64.4614 27.8447C64.4614 29.3992 63.2079 30.6575 61.6643 30.6575C60.1203 30.6575 58.8672 29.3992 58.8672 27.8447C58.8672 26.2902 60.1203 25.0315 61.6643 25.0315C63.2079 25.0315 64.4614 26.2902 64.4614 27.8447Z" fill="white" stroke="#121C27"/>
<path d="M104 3.84506C104 5.39955 102.747 6.65802 101.203 6.65802C99.6593 6.65802 98.4062 5.39955 98.4062 3.84506C98.4062 2.29058 99.6593 1.0321 101.203 1.0321C102.747 1.0321 104 2.29058 104 3.84506Z" fill="white" stroke="#121C27"/>
</svg>
