<svg width="92" height="92" viewBox="0 0 92 92" fill="none" xmlns="http://www.w3.org/2000/svg">
<g clip-path="url(#clip0_3721_2664)">
<path d="M48.3797 33.518C65.5759 24.7007 71.5989 8.46487 71.5989 8.46487C68.9801 -7.16017 57.9379 4.71146 57.9379 4.71146C54.7518 14.6624 39.0397 25.661 26.4706 32.7316C13.9015 39.8022 9.44903 56.7363 28.4781 65.0287C33.6819 67.2919 38.5736 70.2139 43.0332 73.7229L53.237 66.0014C49.056 62.9138 44.5607 60.2764 39.8259 58.1331C21.058 49.579 31.1836 42.3333 48.3797 33.518Z" fill="#C6D2D5"/>
<path d="M56.9092 23.4784L42.3029 29.5883C25.9784 22.2576 17.8614 10.2973 17.8614 10.2973C14.4821 -5.12074 30.7024 2.06821 30.9521 2.1783L30.954 2.18026C30.954 2.18026 35.1452 9.94953 43.5237 15.5365C46.6652 17.628 51.7784 20.0774 56.9092 23.4784Z" fill="#E2E8E9"/>
<path d="M17.8614 10.4287C14.4821 -4.98952 30.7024 2.19963 30.9521 2.30972L30.954 2.31168C30.954 2.31168 33.56 15.4869 17.8614 10.4287Z" fill="#FAD59F"/>
<path d="M33.3558 19.6699H64.2563L66.0895 14.2695H33.3558C33.3558 14.2695 30.257 17.1489 33.3558 19.6699Z" fill="#E2E8E9"/>
<path d="M58.7123 87.3315C58.7123 87.3315 55.9974 82.694 50.0645 77.1757L60.2653 69.2395C66.3752 74.563 69.0134 78.9076 69.0134 78.9076C69.0134 78.9076 73.3776 92.242 58.7123 87.3315Z" fill="#FAD59F"/>
<path d="M58.7129 87.3314C59.9317 74.7025 69.014 78.9075 69.014 78.9075C69.014 78.9075 73.3782 92.2419 58.7129 87.3314Z" fill="#E2E8E9"/>
<path d="M51.3797 33.518C68.5759 24.7007 74.5989 8.46487 74.5989 8.46487C71.9801 -7.16017 60.9379 4.71146 60.9379 4.71146C57.7518 14.6624 42.0397 25.661 29.4706 32.7316C16.9015 39.8022 12.449 56.7363 31.4781 65.0287C36.6819 67.2919 41.5736 70.2139 46.0332 73.7229L56.237 66.0014C52.056 62.9138 47.5607 60.2764 42.8259 58.1331C24.058 49.579 34.1836 42.3333 51.3797 33.518Z" fill="#FAD59F"/>
<path d="M31.9143 59.0056H62.8149L64.648 53.605H31.9143C31.9143 53.605 28.8156 56.4846 31.9143 59.0056Z" fill="#E2E8E9"/>
<path d="M73.6393 51.2371C72.9416 73.2332 34.0984 91.4782 34.0984 91.4782C18.4713 92.9614 27.6386 81.3522 27.6386 81.3522C75.3152 58.2438 64.8584 42.6691 50.6089 33.9133C50.8645 33.7802 51.12 33.6499 51.3793 33.5168C54.9731 31.6721 58.3218 29.3848 61.3474 26.7083C68.1988 32.2268 74.0007 39.8836 73.6393 51.2371Z" fill="#E2E8E9"/>
<path d="M64.0568 44.4058H34.7148C36.2382 42.6318 38.577 40.8425 41.4982 39.0054H64.0568C67.1537 41.525 64.0568 44.4058 64.0568 44.4058Z" fill="#FAD59F"/>
<path d="M31.0697 5.67498C30.9668 5.65793 30.8615 5.68239 30.7767 5.74299C30.6919 5.80359 30.6346 5.89537 30.6175 5.99817C29.9924 9.74332 27.3898 11.4265 22.8846 10.9987C22.7812 10.9896 22.6784 11.0218 22.5986 11.0882C22.5189 11.1546 22.4686 11.2499 22.4588 11.3532C22.449 11.4566 22.4804 11.5596 22.5463 11.6398C22.6121 11.72 22.707 11.771 22.8103 11.7815C23.2978 11.8277 23.7591 11.8504 24.1941 11.8497C29.3124 11.8497 30.9464 8.80423 31.393 6.12752C31.4015 6.07657 31.3999 6.02444 31.3883 5.97412C31.3766 5.9238 31.3551 5.87627 31.3251 5.83424C31.2951 5.79222 31.2571 5.75652 31.2132 5.72919C31.1694 5.70187 31.1206 5.68344 31.0697 5.67498Z" fill="#121C27"/>
<path d="M74.9691 8.60163C74.9931 8.53727 74.9999 8.46773 74.9887 8.39993C74.2 3.69406 72.5558 0.934584 70.1014 0.197977C65.8512 -1.07747 60.8619 4.21835 60.6521 4.44423C60.6128 4.48655 60.5832 4.53703 60.5656 4.59206C59.574 7.68809 57.3723 10.8392 54.5332 13.8768H41.877C34.912 8.58767 31.3359 2.05906 31.2997 1.9934C31.2586 1.91738 31.1937 1.85699 31.1149 1.82158C30.7807 1.67139 22.8894 -1.82135 19.0249 1.31596C17.0346 2.93268 16.5137 5.98271 17.4777 10.3813C17.4884 10.4306 17.5084 10.4773 17.5367 10.5189C17.6036 10.6172 24.2725 20.3034 37.3351 27.5411C34.2151 29.5463 31.3773 31.2086 29.2776 32.3899C22.2304 36.3542 17.8953 43.2131 18.233 49.8634C18.5621 56.3413 23.2106 61.8552 31.3225 65.3902C35.5812 67.2446 39.6329 69.5422 43.4106 72.2449C38.8909 75.1174 33.5762 78.035 27.4663 80.9975C27.4127 81.0233 27.3656 81.061 27.3287 81.1076C27.1623 81.3183 23.2749 86.3045 25.0243 89.5175C25.9233 91.1689 28.1189 92 31.5671 92C32.3572 92 33.2129 91.9563 34.1343 91.8689C34.1793 91.8646 34.2233 91.8526 34.2642 91.8333C40.7916 88.6196 47.0355 84.8598 52.9292 80.5939C56.6005 84.5347 58.355 87.4998 58.3723 87.5301C58.4204 87.6121 58.4966 87.674 58.5868 87.7042C60.7853 88.4405 62.677 88.8085 64.262 88.8083C66.0799 88.8083 67.486 88.3223 68.4631 87.3512C71.2438 84.5895 69.4635 79.021 69.387 78.7853C69.3778 78.7567 69.3652 78.7293 69.3497 78.7035C69.2736 78.5783 67.4786 75.6551 63.4313 71.6434C64.8653 70.1884 66.2159 68.6534 67.4766 67.0458C71.6639 61.6662 73.8702 56.3515 74.0319 51.2488C74.3376 41.6573 70.3833 33.6227 61.9527 26.6979C71.2951 18.3086 74.9331 8.69894 74.9691 8.60163ZM53.782 14.6634C52.1834 16.2863 50.5026 17.8263 48.7463 19.2772H33.4975C32.7761 18.657 32.3978 17.9691 32.3723 17.2312C32.3312 16.0349 33.2125 14.9901 33.5191 14.6634H53.782ZM18.2293 10.137C17.3563 6.09418 17.7907 3.33234 19.5211 1.92656C22.7734 -0.715557 29.6928 2.07105 30.6765 2.48801C31.1849 3.38109 34.5296 9.01171 40.6 13.8766H33.3548C33.2555 13.8766 33.16 13.9142 33.0872 13.9818C33.0234 14.0408 31.5273 15.4521 31.5863 17.2524C31.6193 18.2646 32.1309 19.1807 33.1065 19.9749C33.1767 20.032 33.2644 20.0632 33.3548 20.0632H47.7883C44.6739 22.5555 41.4354 24.8888 38.0852 27.054C25.4959 20.1894 18.8185 10.9736 18.2293 10.137ZM68.6536 79.0731C68.8108 79.5842 70.2327 84.4861 67.9099 86.7932C66.3262 88.3659 63.3202 88.4375 58.9747 87.0042C58.5976 86.3873 56.8737 83.6819 53.5685 80.1237C53.66 80.0561 53.7514 79.9886 53.8426 79.9204C57.0335 77.5645 60.053 74.9848 62.8783 72.2009C66.6047 75.8973 68.4265 78.713 68.6534 79.0731H68.6536ZM73.2462 51.2238C72.891 62.4276 62.2478 72.6668 53.382 79.2833C53.1787 79.4353 52.9756 79.586 52.7726 79.7354L52.7684 79.7386C46.845 84.0514 40.5636 87.8498 33.9929 91.0924C29.4372 91.5156 26.653 90.86 25.7167 89.1423C24.3134 86.567 27.4423 82.2617 27.894 81.6643C34.2062 78.6022 39.6692 75.5879 44.2832 72.6214C44.3154 72.6064 44.3454 72.5871 44.3725 72.564C48.3998 69.971 51.7757 67.4179 54.5 64.9046C54.5201 64.8894 54.5388 64.8723 54.5558 64.8537C62.1531 57.8226 64.6322 51.118 61.9354 44.7998H64.0586C64.1579 44.7997 64.2536 44.7621 64.3263 44.6944C64.3902 44.6354 65.886 43.2224 65.8263 41.4214C65.7928 40.4094 65.2815 39.4949 64.3068 38.7011C64.2367 38.6441 64.149 38.6129 64.0586 38.6128H57.4678C55.6096 36.8571 53.5785 35.2939 51.4055 33.9472C51.4566 33.9209 51.5079 33.8951 51.559 33.8686C51.803 33.7436 52.0454 33.6164 52.2837 33.4884C52.7623 33.234 53.2255 32.9773 53.6598 32.7217C53.6733 32.716 53.6864 32.7095 53.6991 32.7021C53.9033 32.5829 54.1036 32.4662 54.3189 32.3358L54.3767 32.301C54.6034 32.166 54.8279 32.0288 55.0482 31.8912C55.1548 31.8255 55.2578 31.7579 55.3628 31.691L55.4394 31.6423C55.5283 31.5855 55.6193 31.5292 55.7064 31.4726C56.0086 31.2792 56.3139 31.0757 56.6245 30.8648L56.6544 30.8451C56.7648 30.77 56.8733 30.6977 56.9864 30.6192C57.1956 30.4761 57.4041 30.3291 57.6074 30.183C57.686 30.1272 57.7609 30.0716 57.8384 30.0157L57.8706 29.9925C58.1936 29.7592 58.5103 29.5256 58.8078 29.2972C59.0171 29.1413 59.2043 28.9972 59.379 28.8572C59.3865 28.8521 59.394 28.8468 59.401 28.8411C59.7799 28.5449 60.1585 28.2384 60.5241 27.9321C60.797 27.7062 61.076 27.4676 61.3555 27.2244C69.6554 34.0017 73.5448 41.8555 73.246 51.2238H73.2462ZM63.9152 39.3984C64.6357 40.0178 65.014 40.7049 65.0397 41.4429C65.0814 42.6397 64.2003 43.6863 63.8934 44.013H61.3207C61.3152 44.013 61.3097 44.013 61.3044 44.013H35.5898C37.0353 42.519 39.0764 40.9913 41.6053 39.3988L63.9152 39.3984ZM42.8853 38.612C45.146 37.2522 47.7368 35.8429 50.5905 34.3658C52.6251 35.6047 54.543 37.0259 56.3204 38.612H42.8853ZM61.0746 44.799C62.3003 47.434 62.5219 50.426 61.6978 53.2128H35.5066C33.7232 51.5633 32.9595 49.9409 33.1781 48.2573C33.3269 47.1122 33.9161 45.9645 34.8827 44.8L61.0746 44.799ZM61.4524 53.9992C60.8687 55.6392 60.0634 57.1916 59.0588 58.6133H32.0583C31.3367 57.9934 30.9574 57.3062 30.9325 56.5688C30.8908 55.3722 31.7731 54.3259 32.0799 53.9994L61.4524 53.9992ZM58.4922 59.3996C58.3181 59.6328 58.1399 59.8663 57.9534 60.1002C56.8076 61.5181 55.5604 62.851 54.2216 64.0884C51.692 62.3636 49.058 60.7974 46.3346 59.3986L58.4922 59.3996ZM61.1096 26.3978C61.1021 26.4035 61.0938 26.408 61.0868 26.4145C59.5832 27.7417 57.9991 28.9748 56.3435 30.1067L56.3205 30.1225C55.9207 30.3953 55.5172 30.6618 55.11 30.9218C55.0903 30.9352 55.0685 30.9481 55.0479 30.9611C53.797 31.7577 52.5145 32.493 51.2001 33.167L50.9557 33.2924C50.7894 33.3777 50.6243 33.4625 50.4593 33.548C50.4491 33.5531 50.4397 33.5582 50.4289 33.5635C46.9996 35.3347 43.9382 37.0156 41.3496 38.6419C41.3118 38.6579 41.2768 38.6798 41.246 38.7068C38.306 40.5612 35.9881 42.3454 34.4576 44.1115C34.4307 44.1344 34.407 44.1608 34.3873 44.1901C33.2579 45.5136 32.5714 46.8273 32.3992 48.1543C32.1753 49.8778 32.8439 51.5749 34.3875 53.2111H31.9158C31.8165 53.2111 31.7208 53.2486 31.648 53.3163C31.5844 53.3752 30.087 54.7879 30.1465 56.5888C30.1797 57.6006 30.6917 58.5154 31.6677 59.3096C31.7378 59.3666 31.8254 59.3978 31.9158 59.3978H44.5836C47.7182 60.9278 50.7404 62.6779 53.6275 64.6351C51.0395 66.9779 47.8709 69.3616 44.1216 71.7863C40.2273 68.9723 36.0415 66.5856 31.6364 64.6673C23.8123 61.2583 19.3314 55.9859 19.0182 49.8217C18.6954 43.4669 22.8736 36.8927 29.6629 33.0726C31.8893 31.8202 34.9375 30.0318 38.2761 27.8631C38.3049 27.8491 38.3318 27.8316 38.3563 27.811C42.0789 25.4135 45.6619 22.8059 49.088 20.001C49.1185 19.9821 49.1462 19.959 49.1703 19.9324C51.2075 18.256 53.1421 16.4586 54.9635 14.5499C54.9682 14.5452 54.9724 14.5403 54.9769 14.5354C57.9286 11.4014 60.2326 8.13631 61.2859 4.91663C61.8478 4.33709 66.3205 -0.120492 69.8767 0.949132C72.002 1.58764 73.4546 4.10178 74.1953 8.42156C73.7884 9.45284 70.0324 18.5223 61.1094 26.3968L61.1096 26.3978Z" fill="#121C27"/>
<path d="M59.1714 83.1967C59.1378 83.2954 59.1448 83.4034 59.1908 83.497C59.2368 83.5906 59.3182 83.662 59.4169 83.6956C59.5156 83.7292 59.6237 83.7222 59.7172 83.6762C59.8108 83.6301 59.8822 83.5488 59.9158 83.4501C60.9689 80.3572 62.8314 78.7303 65.4511 78.6141C65.5554 78.6118 65.6545 78.5683 65.7266 78.4929C65.7988 78.4176 65.8381 78.3167 65.8358 78.2124C65.8336 78.1082 65.79 78.0091 65.7147 77.9369C65.6394 77.8648 65.5385 77.8255 65.4342 77.8277H65.4165C63.3706 77.9193 60.6263 78.9239 59.1714 83.1967Z" fill="#121C27"/>
</g>
<defs>
<clipPath id="clip0_3721_2664">
<rect width="92" height="92" fill="white"/>
</clipPath>
</defs>
</svg>
