<svg width="91" height="94" viewBox="0 0 91 94" fill="none" xmlns="http://www.w3.org/2000/svg">
<path fill-rule="evenodd" clip-rule="evenodd" d="M47.8067 26.2056V34.6684H63.6072L62.5656 26.2056H57.4886C57.3986 26.2056 57.3069 26.1909 57.2178 26.1572C56.7978 26.008 56.579 25.5479 56.7286 25.1276C56.7919 24.9504 56.85 24.7715 56.9033 24.5916H47C47.4457 24.5916 47.8067 24.953 47.8067 25.3987V26.2056Z" fill="#E2E8E9"/>
<path d="M0.5 68.5L11 26.5L74.5 29L84 68.5H0.5Z" fill="#E2E8E9"/>
<path fill-rule="evenodd" clip-rule="evenodd" d="M68.24 66.5169C67.8382 66.5169 67.4904 66.2164 67.4401 65.8087L66.2868 56.4378H47.8073L47.8074 65.7098C47.8074 66.1555 47.4459 66.517 47.0005 66.517C46.5548 66.517 46.1934 66.1555 46.1934 65.7098V56.4378H27.7124L26.559 65.8088C26.5089 66.2165 26.161 66.517 25.7593 66.517C25.7264 66.517 25.6933 66.5149 25.6595 66.5106C25.2175 66.4559 24.9029 66.0524 24.9573 65.6112L26.0863 56.4378H6.99852C6.55305 56.4378 6.19141 56.0763 6.19141 55.6309C6.19162 55.1854 6.55283 54.824 6.99852 54.824H26.285L27.3266 46.3611H9.47899C9.03309 46.3611 8.67188 45.9997 8.67188 45.5542C8.67188 45.1085 9.03309 44.7471 9.47877 44.7471H27.5252L28.5671 36.2825H11.9592C11.514 36.2825 11.1523 35.921 11.1523 35.4754C11.1526 35.0299 11.5138 34.6685 11.9592 34.6685H28.7657L29.9188 25.3C29.9731 24.8565 30.3759 24.5434 30.8182 24.598C31.2603 24.6525 31.575 25.054 31.5205 25.4974L30.3917 34.6685H46.1934V25.3987C46.1934 24.953 46.5548 24.5916 47.0005 24.5916C47.4459 24.5916 47.8072 24.953 47.8072 25.3987L47.8072 34.6685H63.6075L62.4788 25.4973C62.4243 25.054 62.7388 24.6527 63.1811 24.5979C63.624 24.5412 64.0262 24.8564 64.0805 25.3L65.2336 34.6685H82.0389C82.4848 34.6685 82.846 35.0299 82.846 35.4754C82.846 35.921 82.4846 36.2825 82.0389 36.2825H65.4322L66.4741 44.7471H84.5197C84.9654 44.7471 85.3257 45.1085 85.3257 45.5542C85.3257 45.9997 84.9654 46.3611 84.5197 46.3611H66.6727L67.7143 54.824H87.0012C87.4466 54.824 87.8081 55.1854 87.8081 55.6309C87.8083 56.0763 87.4466 56.4378 87.0012 56.4378H67.913L69.042 65.6111C69.0966 66.0523 68.782 66.4558 68.3395 66.5106C68.3062 66.5148 68.2729 66.5169 68.24 66.5169ZM27.911 54.824H46.1934V46.3611H28.9526L27.911 54.824ZM47.8073 54.824H66.0882L65.0466 46.3611H47.8073L47.8073 54.824ZM63.8062 36.2825L64.8479 44.7471H47.8073L47.8072 36.2825H63.8062ZM46.1934 36.2825V44.7471H29.1512L30.1931 36.2825H46.1934ZM42.6309 83.554H25.3677C22.7632 83.554 20.6445 85.6722 20.6445 88.2761V92.1932C20.6445 92.6387 21.0057 93.0003 21.4516 93.0003H72.5462C72.9921 93.0003 73.3533 92.6387 73.3533 92.1932V88.2761C73.3533 85.6722 71.2344 83.554 68.6299 83.554H51.369V65.7097C51.369 65.2643 51.0078 64.9028 50.5621 64.9028C50.1166 64.9028 49.7552 65.2643 49.7552 65.7097V83.554H44.2451L44.2449 65.7097C44.2449 65.2643 43.8837 64.9028 43.438 64.9028C42.9923 64.9028 42.6309 65.2643 42.6309 65.7097V83.554ZM71.7395 91.3863H22.2585V88.2761C22.2585 86.5634 23.6533 85.168 25.3677 85.168H68.6299C70.3446 85.168 71.7395 86.5634 71.7395 88.2761V91.3863Z" fill="#121C27"/>
<path d="M67.4401 65.8087L66.9935 65.8637L66.9935 65.8638L67.4401 65.8087ZM66.2868 56.4378L66.7334 56.3828L66.6848 55.9878H66.2868V56.4378ZM47.8073 56.4378V55.9878H47.3573V56.4378L47.8073 56.4378ZM47.8074 65.7098H48.2574V65.7098L47.8074 65.7098ZM46.1934 56.4378H46.6434V55.9878H46.1934V56.4378ZM27.7124 56.4378V55.9878H27.3143L27.2657 56.3828L27.7124 56.4378ZM26.559 65.8088L26.1123 65.7538L26.1123 65.7539L26.559 65.8088ZM25.6595 66.5106L25.7157 66.0642L25.7149 66.064L25.6595 66.5106ZM24.9573 65.6112L25.4039 65.6662L25.4039 65.6662L24.9573 65.6112ZM26.0863 56.4378L26.533 56.4927L26.5951 55.9878H26.0863V56.4378ZM6.19141 55.6309L5.74141 55.6307V55.6309H6.19141ZM26.285 54.824V55.274H26.683L26.7316 54.8789L26.285 54.824ZM27.3266 46.3611L27.7732 46.4161L27.8354 45.9111H27.3266V46.3611ZM27.5252 44.7471V45.1971H27.9232L27.9719 44.802L27.5252 44.7471ZM28.5671 36.2825L29.0137 36.3374L29.0758 35.8325H28.5671V36.2825ZM11.1523 35.4754L10.7023 35.4751V35.4754H11.1523ZM28.7657 34.6685V35.1185H29.1637L29.2123 34.7234L28.7657 34.6685ZM29.9188 25.3L30.3654 25.355L30.3654 25.3547L29.9188 25.3ZM30.8182 24.598L30.8733 24.1514L30.8733 24.1514L30.8182 24.598ZM31.5205 25.4974L31.9671 25.5524L31.9671 25.5523L31.5205 25.4974ZM30.3917 34.6685L29.9451 34.6135L29.8829 35.1185H30.3917V34.6685ZM46.1934 34.6685V35.1185H46.6434V34.6685H46.1934ZM47.8072 25.3987H47.3572V25.3987L47.8072 25.3987ZM47.8072 34.6685L47.3572 34.6685L47.3572 35.1185H47.8072V34.6685ZM63.6075 34.6685V35.1185H64.1163L64.0542 34.6135L63.6075 34.6685ZM62.4788 25.4973L62.0322 25.5523L62.0322 25.5523L62.4788 25.4973ZM63.1811 24.5979L63.2364 25.0445L63.2382 25.0443L63.1811 24.5979ZM64.0805 25.3L63.6338 25.3547L63.6339 25.3549L64.0805 25.3ZM65.2336 34.6685L64.787 34.7234L64.8356 35.1185H65.2336V34.6685ZM65.4322 36.2825V35.8325H64.9235L64.9856 36.3374L65.4322 36.2825ZM66.4741 44.7471L66.0274 44.802L66.076 45.1971H66.4741V44.7471ZM66.6727 46.3611V45.9111H66.1639L66.2261 46.4161L66.6727 46.3611ZM67.7143 54.824L67.2677 54.8789L67.3163 55.274H67.7143V54.824ZM87.8081 55.6309H87.3581V55.6311L87.8081 55.6309ZM67.913 56.4378V55.9878H67.4042L67.4663 56.4927L67.913 56.4378ZM69.042 65.6111L68.5954 65.6661L68.5954 65.6663L69.042 65.6111ZM68.3395 66.5106L68.2843 66.064L68.2827 66.0642L68.3395 66.5106ZM46.1934 54.824V55.274H46.6434V54.824H46.1934ZM27.911 54.824L27.4643 54.769L27.4022 55.274H27.911V54.824ZM46.1934 46.3611H46.6434V45.9111H46.1934V46.3611ZM28.9526 46.3611V45.9111H28.5546L28.506 46.3061L28.9526 46.3611ZM66.0882 54.824V55.274H66.5969L66.5348 54.769L66.0882 54.824ZM47.8073 54.824L47.3573 54.824L47.3573 55.274H47.8073V54.824ZM65.0466 46.3611L65.4932 46.3061L65.4446 45.9111H65.0466V46.3611ZM47.8073 46.3611V45.9111H47.3573V46.3611L47.8073 46.3611ZM64.8479 44.7471V45.1971H65.3567L65.2946 44.6921L64.8479 44.7471ZM63.8062 36.2825L64.2528 36.2275L64.2042 35.8325H63.8062V36.2825ZM47.8073 44.7471L47.3573 44.7471L47.3573 45.1971H47.8073V44.7471ZM47.8072 36.2825V35.8325H47.3572V36.2825L47.8072 36.2825ZM46.1934 44.7471V45.1971H46.6434V44.7471H46.1934ZM46.1934 36.2825H46.6434V35.8325H46.1934V36.2825ZM29.1512 44.7471L28.7046 44.6921L28.6425 45.1971H29.1512V44.7471ZM30.1931 36.2825V35.8325H29.7951L29.7464 36.2275L30.1931 36.2825ZM42.6309 83.554V84.004H43.0809V83.554H42.6309ZM51.369 83.554H50.919V84.004H51.369V83.554ZM49.7552 83.554V84.004H50.2052V83.554H49.7552ZM44.2451 83.554L43.7951 83.554L43.7951 84.004H44.2451V83.554ZM44.2449 65.7097H43.7949V65.7097L44.2449 65.7097ZM22.2585 91.3863H21.8085V91.8363H22.2585V91.3863ZM71.7395 91.3863V91.8363H72.1895V91.3863H71.7395ZM66.9935 65.8638C67.0719 66.4994 67.6134 66.9669 68.24 66.9669V66.0669C68.0631 66.0669 67.9089 65.9334 67.8867 65.7536L66.9935 65.8638ZM65.8401 56.4927L66.9935 65.8637L67.8867 65.7537L66.7334 56.3828L65.8401 56.4927ZM47.8073 56.8878H66.2868V55.9878H47.8073V56.8878ZM48.2574 65.7098L48.2573 56.4378L47.3573 56.4378L47.3574 65.7098L48.2574 65.7098ZM47.0005 66.967C47.6945 66.967 48.2574 66.404 48.2574 65.7098H47.3574C47.3574 65.9071 47.1973 66.067 47.0005 66.067V66.967ZM45.7434 65.7098C45.7434 66.4041 46.3063 66.967 47.0005 66.967V66.067C46.8033 66.067 46.6434 65.907 46.6434 65.7098H45.7434ZM45.7434 56.4378V65.7098H46.6434V56.4378H45.7434ZM27.7124 56.8878H46.1934V55.9878H27.7124V56.8878ZM27.0056 65.8638L28.159 56.4927L27.2657 56.3828L26.1123 65.7538L27.0056 65.8638ZM25.7593 66.967C26.3858 66.967 26.9275 66.4995 27.0056 65.8637L26.1123 65.7539C26.0903 65.9335 25.9363 66.067 25.7593 66.067V66.967ZM25.6034 66.9571C25.655 66.9636 25.7069 66.967 25.7593 66.967V66.067C25.7459 66.067 25.7316 66.0662 25.7157 66.0642L25.6034 66.9571ZM24.5106 65.5562C24.4259 66.2441 24.9158 66.872 25.6042 66.9572L25.7149 66.064C25.5192 66.0398 25.3799 65.8607 25.4039 65.6662L24.5106 65.5562ZM25.6397 56.3828L24.5106 65.5562L25.4039 65.6662L26.533 56.4927L25.6397 56.3828ZM6.99852 56.8878H26.0863V55.9878H6.99852V56.8878ZM5.74141 55.6309C5.74141 56.325 6.30467 56.8878 6.99852 56.8878V55.9878C6.80142 55.9878 6.64141 55.8277 6.64141 55.6309H5.74141ZM6.99852 54.374C6.30419 54.374 5.74174 54.9369 5.74141 55.6307L6.64141 55.6311C6.6415 55.4339 6.80148 55.274 6.99852 55.274V54.374ZM26.285 54.374H6.99852V55.274H26.285V54.374ZM26.88 46.3061L25.8383 54.769L26.7316 54.8789L27.7732 46.4161L26.88 46.3061ZM9.47899 46.8111H27.3266V45.9111H9.47899V46.8111ZM8.22187 45.5542C8.22187 46.2482 8.78456 46.8111 9.47899 46.8111V45.9111C9.28162 45.9111 9.12188 45.7511 9.12188 45.5542H8.22187ZM9.47877 44.2971C8.78441 44.2971 8.22187 44.8601 8.22187 45.5542H9.12188C9.12188 45.3569 9.28177 45.1971 9.47877 45.1971V44.2971ZM27.5252 44.2971H9.47877V45.1971H27.5252V44.2971ZM28.1204 36.2275L27.0786 44.6921L27.9719 44.802L29.0137 36.3374L28.1204 36.2275ZM11.9592 36.7325H28.5671V35.8325H11.9592V36.7325ZM10.7023 35.4754C10.7023 36.1696 11.2655 36.7325 11.9592 36.7325V35.8325C11.7625 35.8325 11.6023 35.6725 11.6023 35.4754H10.7023ZM11.9592 34.2185C11.265 34.2185 10.7027 34.7815 10.7023 35.4751L11.6023 35.4756C11.6024 35.2783 11.7625 35.1185 11.9592 35.1185V34.2185ZM28.7657 34.2185H11.9592V35.1185H28.7657V34.2185ZM29.4722 25.2451L28.3191 34.6135L29.2123 34.7234L30.3654 25.355L29.4722 25.2451ZM30.8733 24.1514C30.185 24.0665 29.5568 24.5541 29.4721 25.2453L30.3654 25.3547C30.3894 25.1588 30.5668 25.0204 30.7631 25.0446L30.8733 24.1514ZM31.9671 25.5523C32.0521 24.8618 31.5614 24.2363 30.8733 24.1514L30.7631 25.0446C30.9592 25.0688 31.098 25.2463 31.0739 25.4424L31.9671 25.5523ZM30.8383 34.7234L31.9671 25.5524L31.0739 25.4424L29.9451 34.6135L30.8383 34.7234ZM46.1934 34.2185H30.3917V35.1185H46.1934V34.2185ZM45.7434 25.3987V34.6685H46.6434V25.3987H45.7434ZM47.0005 24.1416C46.3063 24.1416 45.7434 24.7045 45.7434 25.3987H46.6434C46.6434 25.2015 46.8033 25.0416 47.0005 25.0416V24.1416ZM48.2572 25.3987C48.2572 24.7047 47.6947 24.1416 47.0005 24.1416V25.0416C47.1972 25.0416 47.3572 25.2013 47.3572 25.3987H48.2572ZM48.2572 34.6685L48.2572 25.3987L47.3572 25.3987L47.3572 34.6685L48.2572 34.6685ZM63.6075 34.2185H47.8072V35.1185H63.6075V34.2185ZM62.0322 25.5523L63.1609 34.7234L64.0542 34.6135L62.9254 25.4424L62.0322 25.5523ZM63.1258 24.1513C62.4377 24.2365 61.9472 24.8617 62.0322 25.5523L62.9254 25.4424C62.9013 25.2463 63.0398 25.0688 63.2364 25.0445L63.1258 24.1513ZM64.5272 25.2452C64.4428 24.5562 63.8165 24.0629 63.124 24.1515L63.2382 25.0443C63.4315 25.0195 63.6096 25.1566 63.6338 25.3547L64.5272 25.2452ZM65.6802 34.6135L64.5271 25.245L63.6339 25.3549L64.787 34.7234L65.6802 34.6135ZM82.0389 34.2185H65.2336V35.1185H82.0389V34.2185ZM83.296 35.4754C83.296 34.7814 82.7333 34.2185 82.0389 34.2185V35.1185C82.2362 35.1185 82.396 35.2784 82.396 35.4754H83.296ZM82.0389 36.7325C82.7331 36.7325 83.296 36.1696 83.296 35.4754H82.396C82.396 35.6725 82.236 35.8325 82.0389 35.8325V36.7325ZM65.4322 36.7325H82.0389V35.8325H65.4322V36.7325ZM66.9207 44.6921L65.8789 36.2275L64.9856 36.3374L66.0274 44.802L66.9207 44.6921ZM84.5197 44.2971H66.4741V45.1971H84.5197V44.2971ZM85.7757 45.5542C85.7757 44.8607 85.2147 44.2971 84.5197 44.2971V45.1971C84.7161 45.1971 84.8757 45.3563 84.8757 45.5542H85.7757ZM84.5197 46.8111C85.2146 46.8111 85.7757 46.2475 85.7757 45.5542H84.8757C84.8757 45.7518 84.7162 45.9111 84.5197 45.9111V46.8111ZM66.6727 46.8111H84.5197V45.9111H66.6727V46.8111ZM68.161 54.769L67.1193 46.3061L66.2261 46.4161L67.2677 54.8789L68.161 54.769ZM87.0012 54.374H67.7143V55.274H87.0012V54.374ZM88.258 55.6309C88.258 54.9369 87.6952 54.374 87.0012 54.374V55.274C87.1981 55.274 87.3581 55.4339 87.3581 55.6309H88.258ZM87.0012 56.8878C87.695 56.8878 88.2584 56.325 88.258 55.6307L87.3581 55.6311C87.3581 55.8277 87.1983 55.9878 87.0012 55.9878V56.8878ZM67.913 56.8878H87.0012V55.9878H67.913V56.8878ZM69.4886 65.5562L68.3596 56.3828L67.4663 56.4927L68.5954 65.6661L69.4886 65.5562ZM68.3948 66.9572C69.0836 66.8719 69.5737 66.2441 69.4886 65.5559L68.5954 65.6663C68.6194 65.8606 68.4805 66.0397 68.2843 66.064L68.3948 66.9572ZM68.24 66.9669C68.2922 66.9669 68.3445 66.9636 68.3964 66.957L68.2827 66.0642C68.2679 66.066 68.2536 66.0669 68.24 66.0669V66.9669ZM46.1934 54.374H27.911V55.274H46.1934V54.374ZM45.7434 46.3611V54.824H46.6434V46.3611H45.7434ZM28.9526 46.8111H46.1934V45.9111H28.9526V46.8111ZM28.3576 54.8789L29.3992 46.4161L28.506 46.3061L27.4643 54.769L28.3576 54.8789ZM66.0882 54.374H47.8073V55.274H66.0882V54.374ZM64.6 46.416L65.6415 54.8789L66.5348 54.769L65.4932 46.3061L64.6 46.416ZM47.8073 46.8111H65.0466V45.9111H47.8073V46.8111ZM48.2573 54.824L48.2573 46.3611L47.3573 46.3611L47.3573 54.824L48.2573 54.824ZM65.2946 44.6921L64.2528 36.2275L63.3595 36.3374L64.4013 44.802L65.2946 44.6921ZM47.8073 45.1971H64.8479V44.2971H47.8073V45.1971ZM47.3572 36.2825L47.3573 44.7471L48.2573 44.7471L48.2572 36.2825L47.3572 36.2825ZM63.8062 35.8325H47.8072V36.7325H63.8062V35.8325ZM46.6434 44.7471V36.2825H45.7434V44.7471H46.6434ZM29.1512 45.1971H46.1934V44.2971H29.1512V45.1971ZM29.7464 36.2275L28.7046 44.6921L29.5979 44.802L30.6397 36.3374L29.7464 36.2275ZM46.1934 35.8325H30.1931V36.7325H46.1934V35.8325ZM25.3677 84.004H42.6309V83.104H25.3677V84.004ZM21.0945 88.2761C21.0945 85.9208 23.0117 84.004 25.3677 84.004V83.104C22.5148 83.104 20.1945 85.4236 20.1945 88.2761H21.0945ZM21.0945 92.1932V88.2761H20.1945V92.1932H21.0945ZM21.4516 92.5503C21.2544 92.5503 21.0945 92.3903 21.0945 92.1932H20.1945C20.1945 92.887 20.7571 93.4503 21.4516 93.4503V92.5503ZM72.5462 92.5503H21.4516V93.4503H72.5462V92.5503ZM72.9033 92.1932C72.9033 92.3903 72.7434 92.5503 72.5462 92.5503V93.4503C73.2408 93.4503 73.8033 92.8871 73.8033 92.1932H72.9033ZM72.9033 88.2761V92.1932H73.8033V88.2761H72.9033ZM68.6299 84.004C70.986 84.004 72.9033 85.9209 72.9033 88.2761H73.8033C73.8033 85.4236 71.4828 83.104 68.6299 83.104V84.004ZM51.369 84.004H68.6299V83.104H51.369V84.004ZM51.819 83.554V65.7097H50.919V83.554H51.819ZM51.819 65.7097C51.819 65.0158 51.2564 64.4528 50.5621 64.4528V65.3528C50.7592 65.3528 50.919 65.5127 50.919 65.7097H51.819ZM50.5621 64.4528C49.8681 64.4528 49.3052 65.0157 49.3052 65.7097H50.2052C50.2052 65.5128 50.3652 65.3528 50.5621 65.3528V64.4528ZM49.3052 65.7097V83.554H50.2052V65.7097H49.3052ZM44.2451 84.004H49.7552V83.104H44.2451V84.004ZM44.6951 83.554L44.6949 65.7097L43.7949 65.7097L43.7951 83.554L44.6951 83.554ZM44.6949 65.7097C44.6949 65.0158 44.1323 64.4528 43.438 64.4528V65.3528C43.6351 65.3528 43.7949 65.5127 43.7949 65.7097H44.6949ZM43.438 64.4528C42.7438 64.4528 42.1809 65.0157 42.1809 65.7097H43.0809C43.0809 65.5129 43.2407 65.3528 43.438 65.3528V64.4528ZM42.1809 65.7097V83.554H43.0809V65.7097H42.1809ZM22.2585 91.8363H71.7395V90.9363H22.2585V91.8363ZM21.8085 88.2761V91.3863H22.7085V88.2761H21.8085ZM25.3677 84.718C23.4048 84.718 21.8085 86.3148 21.8085 88.2761H22.7085C22.7085 86.8119 23.9018 85.618 25.3677 85.618V84.718ZM68.6299 84.718H25.3677V85.618H68.6299V84.718ZM72.1895 88.2761C72.1895 86.3147 70.593 84.718 68.6299 84.718V85.618C70.0961 85.618 71.2895 86.812 71.2895 88.2761H72.1895ZM72.1895 91.3863V88.2761H71.2895V91.3863H72.1895Z" fill="white"/>
<path fill-rule="evenodd" clip-rule="evenodd" d="M5.5478 64.9029H88.4514L78.9265 26.2056H15.0733L5.5478 64.9029ZM89.4812 66.5169H4.51806C4.26975 66.5169 4.03566 66.4034 3.88265 66.2079C3.72984 66.0125 3.67509 65.7582 3.7343 65.5165L13.6573 25.2053C13.746 24.8439 14.0693 24.5916 14.4407 24.5916H79.5588C79.9302 24.5916 80.2534 24.8439 80.3423 25.2053L90.2649 65.5165C90.3237 65.7582 90.2692 66.0125 90.1179 66.2079C89.9644 66.4034 89.729 66.5169 89.4812 66.5169Z" fill="#121C27" stroke="white" stroke-width="0.9"/>
<path fill-rule="evenodd" clip-rule="evenodd" d="M57.4882 26.2055C57.3982 26.2055 57.3065 26.1909 57.2174 26.1573C56.7974 26.0079 56.5785 25.5478 56.7282 25.1276C57.1238 24.0179 57.3243 22.8516 57.3243 21.6621C57.3243 15.9669 52.6924 11.3352 46.9995 11.3352C41.3063 11.3352 36.6743 15.9669 36.6743 21.6621C36.6743 22.8514 36.8751 24.0179 37.2707 25.1276C37.4203 25.5478 37.2013 26.0079 36.7815 26.1573C36.3617 26.3085 35.9001 26.0879 35.7505 25.6696C35.2925 24.3835 35.0605 23.0365 35.0605 21.6621C35.0608 15.0781 40.4164 9.72119 46.9995 9.72119C53.5827 9.72119 58.9383 15.0781 58.9383 21.6621C58.9383 23.0365 58.7062 24.3835 58.2484 25.6696C58.1308 25.9997 57.8199 26.2055 57.4882 26.2055Z" fill="#121C27" stroke="white" stroke-width="0.9"/>
<path fill-rule="evenodd" clip-rule="evenodd" d="M47.0005 8.76719C46.5548 8.76719 46.1934 8.40576 46.1934 7.96029V1.8069C46.1934 1.36143 46.5548 1 47.0005 1C47.4459 1 47.8072 1.36143 47.8072 1.8069L47.8074 7.96029C47.8074 8.40576 47.4459 8.76719 47.0005 8.76719Z" fill="#121C27" stroke="white" stroke-width="0.9"/>
<path fill-rule="evenodd" clip-rule="evenodd" d="M53.8493 10.6037C53.7122 10.6037 53.5734 10.5681 53.4467 10.4944C53.0607 10.2718 52.9284 9.77795 53.1511 9.39339L56.2278 4.06387C56.451 3.67719 56.9445 3.54476 57.3303 3.7676C57.7164 3.99023 57.8484 4.48409 57.6257 4.87098L54.5488 10.2003C54.3994 10.4588 54.1282 10.6037 53.8493 10.6037Z" fill="#121C27" stroke="white" stroke-width="0.9"/>
<path fill-rule="evenodd" clip-rule="evenodd" d="M58.8663 15.618C58.5874 15.618 58.3164 15.4731 58.1668 15.2148C57.944 14.8279 58.0764 14.334 58.4622 14.1114L63.7913 11.0347C64.1769 10.8118 64.6706 10.9443 64.8934 11.331C65.1163 11.7176 64.9841 12.2094 64.598 12.4322L59.2693 15.5089C59.142 15.5824 59.0034 15.6182 58.8663 15.618Z" fill="#121C27" stroke="white" stroke-width="0.9"/>
<path fill-rule="evenodd" clip-rule="evenodd" d="M66.8531 22.4692H60.6997C60.254 22.4692 59.8926 22.1076 59.8926 21.6621C59.8926 21.2145 60.2538 20.8552 60.6995 20.8552L66.8531 20.855C67.2988 20.855 67.66 21.2145 67.66 21.6621C67.66 22.1076 67.2988 22.4692 66.8531 22.4692Z" fill="#121C27" stroke="white" stroke-width="0.9"/>
<path fill-rule="evenodd" clip-rule="evenodd" d="M27.1448 22.4692C26.6991 22.4692 26.3379 22.1076 26.3379 21.6621C26.3379 21.2164 26.6991 20.8552 27.1448 20.8552L33.2984 20.855C33.7441 20.855 34.1053 21.2145 34.1053 21.6621C34.1053 22.1076 33.7441 22.4692 33.2982 22.4692H27.1448Z" fill="#121C27" stroke="white" stroke-width="0.9"/>
<path fill-rule="evenodd" clip-rule="evenodd" d="M35.1333 15.618C34.9962 15.618 34.8578 15.5824 34.7307 15.5089L29.4016 12.4322C29.0158 12.2094 28.8833 11.7176 29.1064 11.331C29.3292 10.9443 29.8227 10.8118 30.2085 11.0347L35.5376 14.1114C35.9234 14.334 36.0557 14.8279 35.8328 15.2148C35.6834 15.4731 35.4122 15.6182 35.1333 15.618Z" fill="#121C27" stroke="white" stroke-width="0.9"/>
<path fill-rule="evenodd" clip-rule="evenodd" d="M40.15 10.6037C39.8711 10.6037 39.6001 10.4588 39.4505 10.2003L36.3738 4.87077C36.1512 4.48409 36.2832 3.99023 36.6692 3.7676C37.0548 3.54476 37.5487 3.67719 37.7715 4.06387L40.8484 9.39318C41.0711 9.77795 40.9388 10.2718 40.5528 10.4944C40.4259 10.5681 40.2871 10.6037 40.15 10.6037Z" fill="#121C27" stroke="white" stroke-width="0.9"/>
<path fill-rule="evenodd" clip-rule="evenodd" d="M29.8062 26.2056H15.0713L12.9883 34.6684H28.7646L29.8062 26.2056Z" fill="#E2E8E9"/>
<path fill-rule="evenodd" clip-rule="evenodd" d="M28.5665 36.2822H12.5915L10.5078 44.7472H27.5246L28.5665 36.2822Z" fill="#E2E8E9"/>
<path fill-rule="evenodd" clip-rule="evenodd" d="M27.3261 46.3613H10.1106L8.02734 54.8242H26.2844L27.3261 46.3613Z" fill="#E2E8E9"/>
<path fill-rule="evenodd" clip-rule="evenodd" d="M26.0861 56.438H7.63055L5.54688 64.903H25.044L26.0861 56.438Z" fill="#E2E8E9"/>
<path fill-rule="evenodd" clip-rule="evenodd" d="M27.7118 56.438L26.6699 64.903H43.4363H46.1915V56.438H27.7118Z" fill="#E2E8E9"/>
<path fill-rule="evenodd" clip-rule="evenodd" d="M27.9102 54.8242H46.1914V46.3613H28.9518L27.9102 54.8242Z" fill="#E2E8E9"/>
<path fill-rule="evenodd" clip-rule="evenodd" d="M29.1504 44.7472H46.1914V36.2822H30.1924L29.1504 44.7472Z" fill="#E2E8E9"/>
<path fill-rule="evenodd" clip-rule="evenodd" d="M30.3906 34.6684H46.1909V26.2056H31.432L30.3906 34.6684Z" fill="#E2E8E9"/>
<path fill-rule="evenodd" clip-rule="evenodd" d="M63.8058 36.2822H47.8066V44.7472H64.8476L63.8058 36.2822Z" fill="#E2E8E9"/>
<path fill-rule="evenodd" clip-rule="evenodd" d="M65.0463 46.3613H47.8066V54.8242H66.0879L65.0463 46.3613Z" fill="#E2E8E9"/>
<path fill-rule="evenodd" clip-rule="evenodd" d="M66.2866 56.438H47.8066V64.903H50.5618H67.3284L66.2866 56.438Z" fill="#E2E8E9"/>
<path fill-rule="evenodd" clip-rule="evenodd" d="M67.9121 56.438L68.9539 64.903H88.4509L86.3672 56.438H67.9121Z" fill="#E2E8E9"/>
<path fill-rule="evenodd" clip-rule="evenodd" d="M67.7135 54.8242H85.9702L83.8871 46.3613H66.6719L67.7135 54.8242Z" fill="#E2E8E9"/>
<path fill-rule="evenodd" clip-rule="evenodd" d="M66.4735 44.7472H83.4901L81.4064 36.2822H65.4316L66.4735 44.7472Z" fill="#E2E8E9"/>
<path fill-rule="evenodd" clip-rule="evenodd" d="M65.233 34.6684H81.0094L78.9263 26.2056H64.1914L65.233 34.6684Z" fill="#E2E8E9"/>
<path fill-rule="evenodd" clip-rule="evenodd" d="M49.7545 83.5538V66.5168H46.9995H44.2441L44.2444 83.5538H49.7545Z" fill="#FAD59F"/>
<path fill-rule="evenodd" clip-rule="evenodd" d="M50.5621 85.168H43.438H25.3689C23.6545 85.168 22.2598 86.5634 22.2598 88.2761V91.3863H71.7408V88.2761C71.7408 86.5634 70.3458 85.168 68.6312 85.168H50.5621Z" fill="#FAD59F"/>
<path fill-rule="evenodd" clip-rule="evenodd" d="M46.999 24.5915H56.9023C57.1823 23.6448 57.3238 22.6615 57.3238 21.6621C57.3238 15.9669 52.6919 11.3352 46.999 11.3352C41.3057 11.3352 36.6738 15.9671 36.6738 21.6621C36.6738 22.6615 36.8156 23.6448 37.0955 24.5915H46.999Z" fill="#FAD59F"/>
</svg>
