<svg width="93" height="94" viewBox="0 0 93 94" fill="none" xmlns="http://www.w3.org/2000/svg">
<path d="M9.50063 21.5L4.50063 30C2.90063 35.2 3.83396 44.5 4.50063 48.5L7.50063 56L11.0006 62L12.0006 64.5L13.5006 67.5L15.0006 72L16.5006 78.5V84.5V94H44.5006H48.0006V93.5V89.5V86.5V84.5L49.5006 82H50.0006L54.0006 82.5L59.0006 83L63.0006 82.5L65.5006 80.5L66.0006 78V73.5L65.5006 65L66.5006 63.5L69.0006 62.5L72.5006 61V59.5C72.334 59.1667 71.8006 58 71.0006 56C70.2006 54 71.0006 51.1667 71.5006 50L72.5006 44.5L72.0006 34L64.0006 23L62.5006 21.5C60.0006 18 52.4006 10.8 42.0006 10C29.0006 9 25.5006 11.5 20.0006 13.5C15.6006 15.1 11.1673 19.5 9.50063 21.5Z" fill="#C6D2D5"/>
<path d="M12.5006 18.5L7.50063 27C5.90063 32.2 6.83396 41.5 7.50063 45.5L10.5006 53L14.0006 59L15.0006 61.5L16.5006 64.5L18.0006 69L19.5006 75.5V81.5V91H47.5006H51.0006V90.5V86.5V83.5V81.5L52.5006 79H53.0006L57.0006 79.5L62.0006 80L66.0006 79.5L68.5006 77.5L69.0006 75V70.5L68.5006 62L69.5006 60.5L72.0006 59.5L75.5006 58V56.5C75.334 56.1667 74.8006 55 74.0006 53C73.2006 51 74.0006 48.1667 74.5006 47L75.5006 41.5L75.0006 31L67.0006 20L65.5006 18.5C63.0006 15 55.4006 7.8 45.0006 7C32.0006 6 28.5006 8.5 23.0006 10.5C18.6006 12.1 14.1673 16.5 12.5006 18.5Z" fill="#FAD59F"/>
<path d="M9 22.9999L7 30.4999H34L37 30L39 27.5L69.5 25V24L67.5 20.5L65 17.5L58 11.5L47.5 7.49995C45 6.99995 39 6.09995 35 6.49995C31 6.89995 25 9.33328 22.5 10.4999L14 15.9999L9 22.9999Z" fill="#FAD59F"/>
<mask id="path-4-inside-1_3546_3004" fill="white">
<path fill-rule="evenodd" clip-rule="evenodd" d="M70.2506 12.2942C69.683 11.7277 69.683 10.8064 70.2506 10.2397C75.0492 5.44052 82.8563 5.44052 87.6545 10.2397C88.2219 10.8064 88.2219 11.7277 87.6545 12.2942C87.3706 12.5779 86.9988 12.7207 86.6269 12.7207C86.2551 12.7207 85.8833 12.5779 85.5996 12.2942C81.9344 8.62904 75.9706 8.62904 72.3055 12.2942C71.7379 12.8625 70.818 12.8625 70.2506 12.2942ZM76.9099 20.1699C76.9099 19.0454 77.8275 18.1285 78.9524 18.1285C80.0777 18.1285 80.9952 19.0438 80.9952 20.1699C80.9952 21.2961 80.0772 22.213 78.9524 22.213C77.8277 22.213 76.9099 21.2945 76.9099 20.1699ZM83.4034 14.4906C82.2147 13.3021 80.6341 12.6462 78.9528 12.6462C77.271 12.6462 75.6905 13.3021 74.5015 14.4906C73.9343 15.0589 73.9343 15.9777 74.5019 16.546C75.0693 17.1126 75.9892 17.1126 76.5568 16.546C77.1969 15.9048 78.0479 15.5528 78.9528 15.5528C79.8577 15.5528 80.7085 15.9048 81.3488 16.546C81.6326 16.8298 82.0044 16.9716 82.3762 16.9716C82.748 16.9716 83.1198 16.8298 83.4034 16.546C83.971 15.9777 83.9714 15.0589 83.4034 14.4906ZM91.9643 7.98531C92.5308 7.41714 92.5317 6.49749 91.9643 5.92914C84.7896 -1.24331 73.116 -1.24331 65.9413 5.92914C65.3737 6.49731 65.3737 7.41696 65.9413 7.98531C66.509 8.55203 67.4288 8.55203 67.9964 7.98531C74.0378 1.94431 83.8675 1.94431 89.909 7.98531C90.1927 8.26921 90.564 8.41017 90.9362 8.41017C91.3084 8.41017 91.6805 8.26903 91.9643 7.98531ZM7.40092 28.2927C7.24325 28.2927 7.08232 28.2682 6.92502 28.213L6.92484 28.2126C6.16649 27.949 5.76488 27.1213 6.0279 26.3639C6.92211 23.7838 8.22502 21.2617 9.90102 18.8674C15.7929 10.4487 26.4797 5.28954 38.4889 5.06631C50.4968 4.84125 62.4464 10.5976 68.2235 19.3832C68.6645 20.0533 68.4779 20.9562 67.8075 21.3958C67.1367 21.8372 66.2361 21.6506 65.7951 20.9798C60.545 12.9947 49.5904 7.76549 38.5432 7.9731C27.46 8.17817 17.6429 12.873 12.2827 20.5334C10.7607 22.7096 9.58006 24.991 8.77376 27.3153C8.56578 27.9169 8.00269 28.2927 7.40092 28.2927ZM72.7975 53.265C72.3623 52.5908 72.5559 51.6922 73.2302 51.2561L73.23 51.2559C73.9046 50.8216 74.8037 51.0143 75.2391 51.6885C76.9556 54.3474 77.5051 56.2145 77.0207 57.7366C76.5373 59.2588 75.1728 59.9619 74.1882 60.3561C73.7001 60.5522 73.1499 60.709 72.6184 60.8596C70.699 61.4009 69.8925 61.7545 69.87 62.5358C69.8317 63.8476 69.9937 66.2305 70.1508 68.5339L70.1522 68.5545L70.1523 68.5549C70.2964 70.6781 70.4453 72.8711 70.4453 74.3462C70.4449 76.5786 69.7925 78.31 68.5059 79.4905C66.1391 81.6607 62.1212 81.5118 58.2098 81.1737L58.1914 81.1719L58.1739 81.1698L58.1624 81.1685L58.144 81.1666C56.4106 80.9381 54.8469 80.6886 53.4074 80.4126C52.717 81.023 52.4718 82.313 52.3893 83.3245C52.3671 83.8858 52.3918 89.9304 52.4458 90.9191C52.4678 91.3165 52.3246 91.7072 52.05 91.9962C51.7757 92.2861 51.3943 92.45 50.995 92.45H19.5764C19.183 92.45 18.8068 92.2923 18.5331 92.0086C18.2594 91.7274 18.1119 91.3458 18.1239 90.9516C18.6366 74.4986 18.477 70.1189 11.1062 57.1261C8.94829 53.3226 7.30135 49.6322 6.21151 46.1607C5.97138 45.3945 6.39733 44.5791 7.16294 44.3392C7.92892 44.0974 8.74412 44.5239 8.98462 45.2884C10.0129 48.5654 11.5775 52.066 13.6344 55.6915C21.1331 68.9112 21.5329 73.966 21.0746 89.5441H49.5088C49.4767 87.2899 49.4643 83.5083 49.4899 83.13C49.5976 81.7753 49.8845 80.6412 50.3462 79.7329C48.7072 79.3135 47.2163 78.8344 45.7779 78.2731C45.0305 77.9805 44.6617 77.138 44.9538 76.3893C45.2459 75.6431 46.0889 75.2746 46.836 75.5652C50.0051 76.8036 53.4931 77.6172 58.4931 78.2802C61.6097 78.549 65.0495 78.7163 66.542 77.3465C67.2128 76.7326 67.5392 75.7501 67.5392 74.3462C67.5396 72.9659 67.393 70.8135 67.2511 68.7317L67.2502 68.7187L67.2502 68.7184C67.0818 66.2407 66.9228 63.9011 66.965 62.4508C67.0533 59.4124 69.9255 58.6002 71.827 58.0626L71.8279 58.0623L71.8887 58.045L71.8889 58.045L71.8892 58.0449C72.346 57.9149 72.7748 57.7928 73.1043 57.6603C73.7827 57.3881 74.1689 57.1174 74.2514 56.8582C74.3373 56.5867 74.3673 55.697 72.7975 53.265ZM75.5682 45.068C75.4206 46.35 74.2539 47.2923 72.9697 47.1672L39.6582 43.9383C39.1816 43.8927 38.7907 43.595 38.6073 43.1825H41.8576C45.6624 43.1825 48.7575 40.0876 48.7575 36.2833C48.7575 32.479 45.6624 29.3831 41.8576 29.3831H38.5512C38.699 28.8961 39.1259 28.5292 39.6582 28.4785L71.4296 25.3976C72.5708 25.2871 73.5742 25.9467 73.9277 27.0361C75.8222 32.8853 76.1166 40.3066 75.5682 45.0681V45.068ZM3.51758 39.4482C3.51758 39.8983 3.89703 40.2757 4.34604 40.2757H41.8574C44.0594 40.2757 45.8515 38.4848 45.8515 36.2831C45.8515 34.0814 44.0596 32.2886 41.8574 32.2886H4.34622C3.89703 32.2886 3.51776 32.6688 3.51776 33.1171V39.448L3.51758 39.4482ZM71.1489 22.5057L39.378 25.5866C37.3445 25.7828 35.7826 27.3845 35.606 29.3831H4.34622C2.28678 29.3831 0.611328 31.0577 0.611328 33.1175V39.4484C0.611328 41.5082 2.28696 43.1827 4.34622 43.1827H35.6249C35.8645 45.1112 37.3956 46.6393 39.3782 46.8312L72.6896 50.0609C72.8596 50.0776 73.0284 50.0845 73.1958 50.0845C75.8409 50.0845 78.147 48.0772 78.4552 45.4C79.0399 40.3268 78.7213 32.4036 76.6924 26.1412C75.9206 23.7582 73.6405 22.2643 71.1491 22.506L71.1489 22.5057Z"/>
</mask>
<path fill-rule="evenodd" clip-rule="evenodd" d="M70.2506 12.2942C69.683 11.7277 69.683 10.8064 70.2506 10.2397C75.0492 5.44052 82.8563 5.44052 87.6545 10.2397C88.2219 10.8064 88.2219 11.7277 87.6545 12.2942C87.3706 12.5779 86.9988 12.7207 86.6269 12.7207C86.2551 12.7207 85.8833 12.5779 85.5996 12.2942C81.9344 8.62904 75.9706 8.62904 72.3055 12.2942C71.7379 12.8625 70.818 12.8625 70.2506 12.2942ZM76.9099 20.1699C76.9099 19.0454 77.8275 18.1285 78.9524 18.1285C80.0777 18.1285 80.9952 19.0438 80.9952 20.1699C80.9952 21.2961 80.0772 22.213 78.9524 22.213C77.8277 22.213 76.9099 21.2945 76.9099 20.1699ZM83.4034 14.4906C82.2147 13.3021 80.6341 12.6462 78.9528 12.6462C77.271 12.6462 75.6905 13.3021 74.5015 14.4906C73.9343 15.0589 73.9343 15.9777 74.5019 16.546C75.0693 17.1126 75.9892 17.1126 76.5568 16.546C77.1969 15.9048 78.0479 15.5528 78.9528 15.5528C79.8577 15.5528 80.7085 15.9048 81.3488 16.546C81.6326 16.8298 82.0044 16.9716 82.3762 16.9716C82.748 16.9716 83.1198 16.8298 83.4034 16.546C83.971 15.9777 83.9714 15.0589 83.4034 14.4906ZM91.9643 7.98531C92.5308 7.41714 92.5317 6.49749 91.9643 5.92914C84.7896 -1.24331 73.116 -1.24331 65.9413 5.92914C65.3737 6.49731 65.3737 7.41696 65.9413 7.98531C66.509 8.55203 67.4288 8.55203 67.9964 7.98531C74.0378 1.94431 83.8675 1.94431 89.909 7.98531C90.1927 8.26921 90.564 8.41017 90.9362 8.41017C91.3084 8.41017 91.6805 8.26903 91.9643 7.98531ZM7.40092 28.2927C7.24325 28.2927 7.08232 28.2682 6.92502 28.213L6.92484 28.2126C6.16649 27.949 5.76488 27.1213 6.0279 26.3639C6.92211 23.7838 8.22502 21.2617 9.90102 18.8674C15.7929 10.4487 26.4797 5.28954 38.4889 5.06631C50.4968 4.84125 62.4464 10.5976 68.2235 19.3832C68.6645 20.0533 68.4779 20.9562 67.8075 21.3958C67.1367 21.8372 66.2361 21.6506 65.7951 20.9798C60.545 12.9947 49.5904 7.76549 38.5432 7.9731C27.46 8.17817 17.6429 12.873 12.2827 20.5334C10.7607 22.7096 9.58006 24.991 8.77376 27.3153C8.56578 27.9169 8.00269 28.2927 7.40092 28.2927ZM72.7975 53.265C72.3623 52.5908 72.5559 51.6922 73.2302 51.2561L73.23 51.2559C73.9046 50.8216 74.8037 51.0143 75.2391 51.6885C76.9556 54.3474 77.5051 56.2145 77.0207 57.7366C76.5373 59.2588 75.1728 59.9619 74.1882 60.3561C73.7001 60.5522 73.1499 60.709 72.6184 60.8596C70.699 61.4009 69.8925 61.7545 69.87 62.5358C69.8317 63.8476 69.9937 66.2305 70.1508 68.5339L70.1522 68.5545L70.1523 68.5549C70.2964 70.6781 70.4453 72.8711 70.4453 74.3462C70.4449 76.5786 69.7925 78.31 68.5059 79.4905C66.1391 81.6607 62.1212 81.5118 58.2098 81.1737L58.1914 81.1719L58.1739 81.1698L58.1624 81.1685L58.144 81.1666C56.4106 80.9381 54.8469 80.6886 53.4074 80.4126C52.717 81.023 52.4718 82.313 52.3893 83.3245C52.3671 83.8858 52.3918 89.9304 52.4458 90.9191C52.4678 91.3165 52.3246 91.7072 52.05 91.9962C51.7757 92.2861 51.3943 92.45 50.995 92.45H19.5764C19.183 92.45 18.8068 92.2923 18.5331 92.0086C18.2594 91.7274 18.1119 91.3458 18.1239 90.9516C18.6366 74.4986 18.477 70.1189 11.1062 57.1261C8.94829 53.3226 7.30135 49.6322 6.21151 46.1607C5.97138 45.3945 6.39733 44.5791 7.16294 44.3392C7.92892 44.0974 8.74412 44.5239 8.98462 45.2884C10.0129 48.5654 11.5775 52.066 13.6344 55.6915C21.1331 68.9112 21.5329 73.966 21.0746 89.5441H49.5088C49.4767 87.2899 49.4643 83.5083 49.4899 83.13C49.5976 81.7753 49.8845 80.6412 50.3462 79.7329C48.7072 79.3135 47.2163 78.8344 45.7779 78.2731C45.0305 77.9805 44.6617 77.138 44.9538 76.3893C45.2459 75.6431 46.0889 75.2746 46.836 75.5652C50.0051 76.8036 53.4931 77.6172 58.4931 78.2802C61.6097 78.549 65.0495 78.7163 66.542 77.3465C67.2128 76.7326 67.5392 75.7501 67.5392 74.3462C67.5396 72.9659 67.393 70.8135 67.2511 68.7317L67.2502 68.7187L67.2502 68.7184C67.0818 66.2407 66.9228 63.9011 66.965 62.4508C67.0533 59.4124 69.9255 58.6002 71.827 58.0626L71.8279 58.0623L71.8887 58.045L71.8889 58.045L71.8892 58.0449C72.346 57.9149 72.7748 57.7928 73.1043 57.6603C73.7827 57.3881 74.1689 57.1174 74.2514 56.8582C74.3373 56.5867 74.3673 55.697 72.7975 53.265ZM75.5682 45.068C75.4206 46.35 74.2539 47.2923 72.9697 47.1672L39.6582 43.9383C39.1816 43.8927 38.7907 43.595 38.6073 43.1825H41.8576C45.6624 43.1825 48.7575 40.0876 48.7575 36.2833C48.7575 32.479 45.6624 29.3831 41.8576 29.3831H38.5512C38.699 28.8961 39.1259 28.5292 39.6582 28.4785L71.4296 25.3976C72.5708 25.2871 73.5742 25.9467 73.9277 27.0361C75.8222 32.8853 76.1166 40.3066 75.5682 45.0681V45.068ZM3.51758 39.4482C3.51758 39.8983 3.89703 40.2757 4.34604 40.2757H41.8574C44.0594 40.2757 45.8515 38.4848 45.8515 36.2831C45.8515 34.0814 44.0596 32.2886 41.8574 32.2886H4.34622C3.89703 32.2886 3.51776 32.6688 3.51776 33.1171V39.448L3.51758 39.4482ZM71.1489 22.5057L39.378 25.5866C37.3445 25.7828 35.7826 27.3845 35.606 29.3831H4.34622C2.28678 29.3831 0.611328 31.0577 0.611328 33.1175V39.4484C0.611328 41.5082 2.28696 43.1827 4.34622 43.1827H35.6249C35.8645 45.1112 37.3956 46.6393 39.3782 46.8312L72.6896 50.0609C72.8596 50.0776 73.0284 50.0845 73.1958 50.0845C75.8409 50.0845 78.147 48.0772 78.4552 45.4C79.0399 40.3268 78.7213 32.4036 76.6924 26.1412C75.9206 23.7582 73.6405 22.2643 71.1491 22.506L71.1489 22.5057Z" fill="#121C27"/>
<path d="M70.2506 10.2397L70.9571 10.9473L70.9577 10.9467L70.2506 10.2397ZM70.2506 12.2942L70.9583 11.5876L70.957 11.5864L70.2506 12.2942ZM87.6545 10.2397L86.9473 10.9467L86.9478 10.9472L87.6545 10.2397ZM87.6545 12.2942L86.9479 11.5865L86.9476 11.5869L87.6545 12.2942ZM85.5996 12.2942L86.3067 11.5871V11.5871L85.5996 12.2942ZM72.3055 12.2942L71.5984 11.5871L71.5979 11.5875L72.3055 12.2942ZM83.4034 14.4906L84.1107 13.7837L84.1104 13.7834L83.4034 14.4906ZM74.5015 14.4906L73.7946 13.7833L73.7937 13.7842L74.5015 14.4906ZM74.5019 16.546L73.7943 17.2527L73.7953 17.2537L74.5019 16.546ZM76.5568 16.546L77.2632 17.2538L77.2645 17.2525L76.5568 16.546ZM81.3488 16.546L80.6412 17.2526L80.6417 17.2531L81.3488 16.546ZM83.4034 16.546L84.1107 17.2529L84.1109 17.2527L83.4034 16.546ZM91.9643 5.92914L92.6719 5.2226L92.6713 5.22192L91.9643 5.92914ZM91.9643 7.98531L92.6714 8.69242L92.6724 8.6914L91.9643 7.98531ZM65.9413 5.92914L65.2343 5.22192L65.2339 5.22237L65.9413 5.92914ZM65.9413 7.98531L65.2338 8.69196L65.2348 8.69298L65.9413 7.98531ZM67.9964 7.98531L68.703 8.69298L68.7035 8.69244L67.9964 7.98531ZM89.909 7.98531L90.6163 7.27843L90.6161 7.27817L89.909 7.98531ZM6.92502 28.213L6.03153 28.662L6.21285 29.0228L6.59379 29.1565L6.92502 28.213ZM6.92484 28.2126L7.81832 27.7635L7.63619 27.4011L7.25312 27.268L6.92484 28.2126ZM6.0279 26.3639L6.97256 26.6919L6.97275 26.6913L6.0279 26.3639ZM9.90102 18.8674L10.7203 19.4408L10.7203 19.4407L9.90102 18.8674ZM38.4889 5.06631L38.5075 6.06613L38.5076 6.06613L38.4889 5.06631ZM68.2235 19.3832L67.3879 19.9326L67.3881 19.933L68.2235 19.3832ZM67.8075 21.3958L67.2592 20.5595L67.2578 20.5604L67.8075 21.3958ZM65.7951 20.9798L66.6307 20.4305L66.6307 20.4305L65.7951 20.9798ZM38.5432 7.9731L38.5617 8.97293L38.562 8.97292L38.5432 7.9731ZM12.2827 20.5334L11.4634 19.9601L11.4632 19.9603L12.2827 20.5334ZM8.77376 27.3153L7.82899 26.9875L7.82864 26.9885L8.77376 27.3153ZM73.2302 51.2561L73.7733 52.0957L74.835 51.409L73.9221 50.5341L73.2302 51.2561ZM72.7975 53.265L73.6377 52.7227L73.6377 52.7227L72.7975 53.265ZM73.23 51.2559L72.6887 50.4151L71.6231 51.101L72.5381 51.9779L73.23 51.2559ZM75.2391 51.6885L76.0793 51.1462L76.0792 51.1461L75.2391 51.6885ZM77.0207 57.7366L76.0678 57.4334L76.0676 57.434L77.0207 57.7366ZM74.1882 60.3561L73.8165 59.4277L73.8152 59.4282L74.1882 60.3561ZM72.6184 60.8596L72.8898 61.822L72.891 61.8217L72.6184 60.8596ZM69.87 62.5358L70.8696 62.565L70.8696 62.5646L69.87 62.5358ZM70.1508 68.5339L71.1486 68.4663L71.1485 68.4658L70.1508 68.5339ZM70.1522 68.5545L71.1503 68.4921L71.1499 68.487L70.1522 68.5545ZM70.1523 68.5549L69.1542 68.6173L69.1545 68.6226L70.1523 68.5549ZM70.4453 74.3462L71.4453 74.3464V74.3462H70.4453ZM68.5059 79.4905L69.1817 80.2275L69.182 80.2273L68.5059 79.4905ZM58.2098 81.1737L58.1107 82.1689L58.1237 82.17L58.2098 81.1737ZM58.1914 81.1719L58.0743 82.165L58.0833 82.1661L58.0923 82.167L58.1914 81.1719ZM58.1739 81.1698L58.291 80.1767L58.2906 80.1767L58.1739 81.1698ZM58.1624 81.1685L58.2791 80.1753L58.2705 80.1743L58.2619 80.1734L58.1624 81.1685ZM58.144 81.1666L58.0133 82.1581L58.0289 82.1601L58.0446 82.1617L58.144 81.1666ZM53.4074 80.4126L53.5956 79.4305L53.1131 79.338L52.7451 79.6634L53.4074 80.4126ZM52.3893 83.3245L51.3926 83.2433L51.3909 83.2642L51.3901 83.2851L52.3893 83.3245ZM52.4458 90.9191L51.4473 90.9736L51.4473 90.9743L52.4458 90.9191ZM52.05 91.9962L51.3251 91.3073L51.3236 91.309L52.05 91.9962ZM18.5331 92.0086L19.2528 91.3143L19.2496 91.311L18.5331 92.0086ZM18.1239 90.9516L17.1243 90.9205L17.1243 90.9212L18.1239 90.9516ZM11.1062 57.1261L11.976 56.6327L11.976 56.6327L11.1062 57.1261ZM6.21151 46.1607L5.25728 46.4597L5.25742 46.4602L6.21151 46.1607ZM7.16294 44.3392L7.462 45.2934L7.46393 45.2928L7.16294 44.3392ZM8.98462 45.2884L9.93875 44.989L9.93853 44.9884L8.98462 45.2884ZM13.6344 55.6915L14.5042 55.1982L14.5042 55.1981L13.6344 55.6915ZM21.0746 89.5441L20.0751 89.5147L20.0448 90.5441H21.0746V89.5441ZM49.5088 89.5441V90.5441H50.5232L50.5087 89.5298L49.5088 89.5441ZM49.4899 83.13L48.493 83.0507L48.4922 83.0625L49.4899 83.13ZM50.3462 79.7329L51.2376 80.1861L51.8032 79.0736L50.5941 78.7642L50.3462 79.7329ZM45.7779 78.2731L45.4134 79.2043L45.4144 79.2047L45.7779 78.2731ZM44.9538 76.3893L44.0226 76.0248L44.0222 76.0259L44.9538 76.3893ZM46.836 75.5652L47.2 74.6338L47.1985 74.6332L46.836 75.5652ZM58.4931 78.2802L58.3617 79.2715L58.3844 79.2745L58.4072 79.2765L58.4931 78.2802ZM66.542 77.3465L65.8668 76.6089L65.8658 76.6098L66.542 77.3465ZM67.5392 74.3462L66.5392 74.3459V74.3462H67.5392ZM67.2511 68.7317L68.2488 68.6637L68.2488 68.6632L67.2511 68.7317ZM67.2502 68.7187L68.2479 68.6502L68.2477 68.6475L67.2502 68.7187ZM67.2502 68.7184L66.2525 68.7862L66.2527 68.7896L67.2502 68.7184ZM66.965 62.4508L67.9646 62.4799L67.9646 62.4798L66.965 62.4508ZM71.827 58.0626L72.0991 59.0249L72.1017 59.0241L71.827 58.0626ZM71.8279 58.0623L71.5542 57.1005L71.5532 57.1008L71.8279 58.0623ZM71.8887 58.045L71.621 57.0815L71.615 57.0832L71.8887 58.045ZM71.8889 58.045L72.1566 59.0086L72.1689 59.005L71.8889 58.045ZM71.8892 58.0449L71.6155 57.083L71.6092 57.0849L71.8892 58.0449ZM73.1043 57.6603L72.7318 56.7323L72.7312 56.7325L73.1043 57.6603ZM74.2514 56.8582L75.2043 57.1614L75.2048 57.1599L74.2514 56.8582ZM72.9697 47.1672L73.0667 46.1719L73.0662 46.1719L72.9697 47.1672ZM75.5682 45.068H76.5682L74.5748 44.9535L75.5682 45.068ZM39.6582 43.9383L39.7547 42.943L39.7535 42.9429L39.6582 43.9383ZM38.6073 43.1825V42.1825H37.0681L37.6936 43.5889L38.6073 43.1825ZM38.5512 29.3831L37.5943 29.0926L37.2025 30.3831H38.5512V29.3831ZM39.6582 28.4785L39.753 29.474L39.7548 29.4739L39.6582 28.4785ZM71.4296 25.3976L71.3332 24.4022L71.333 24.4022L71.4296 25.3976ZM73.9277 27.0361L74.879 26.728L74.8788 26.7275L73.9277 27.0361ZM75.5682 45.0681H74.5682L76.5617 45.1826L75.5682 45.0681ZM3.51758 39.4482L2.80724 38.7443L2.51758 39.0367V39.4482H3.51758ZM3.51776 39.448L4.2281 40.1519L4.51776 39.8595V39.448H3.51776ZM39.378 25.5866L39.474 26.582L39.4745 26.582L39.378 25.5866ZM71.1489 22.5057L72.0415 22.0547L71.7331 21.4443L71.0524 21.5103L71.1489 22.5057ZM35.606 29.3831V30.3831H36.5216L36.6021 29.4711L35.606 29.3831ZM35.6249 43.1827L36.6173 43.0594L36.5084 42.1827H35.6249V43.1827ZM39.3782 46.8312L39.4747 45.8358L39.4745 45.8358L39.3782 46.8312ZM72.6896 50.0609L72.7874 49.0657L72.7861 49.0656L72.6896 50.0609ZM78.4552 45.4L77.4618 45.2855L77.4618 45.2856L78.4552 45.4ZM76.6924 26.1412L75.7411 26.4493L75.7411 26.4494L76.6924 26.1412ZM71.1491 22.506L70.2566 22.957L70.565 23.5674L71.2457 23.5013L71.1491 22.506ZM69.544 9.53198C68.5852 10.4893 68.585 12.0447 69.5442 13.002L70.957 11.5864C70.7809 11.4106 70.7807 11.1235 70.9571 10.9473L69.544 9.53198ZM88.3617 9.53261C83.1729 4.34286 74.7325 4.34289 69.5434 9.53258L70.9577 10.9467C75.3658 6.53815 82.5396 6.53819 86.9473 10.9467L88.3617 9.53261ZM88.361 13.0019C89.3198 12.0446 89.3196 10.4894 88.3611 9.53209L86.9478 10.9472C87.1242 11.1234 87.124 11.4107 86.9479 11.5865L88.361 13.0019ZM86.6269 13.7207C87.2549 13.7207 87.8837 13.4789 88.3614 13.0015L86.9476 11.5869C86.8575 11.6769 86.7426 11.7207 86.6269 11.7207V13.7207ZM84.8925 13.0013C85.3701 13.4789 85.9991 13.7207 86.6269 13.7207V11.7207C86.5112 11.7207 86.3965 11.6769 86.3067 11.5871L84.8925 13.0013ZM73.0126 13.0013C76.2872 9.72668 81.6179 9.72667 84.8925 13.0013L86.3067 11.5871C82.251 7.53141 75.654 7.53141 71.5984 11.5871L73.0126 13.0013ZM69.5429 13.0007C70.5011 13.9604 72.0549 13.9603 73.013 13.0008L71.5979 11.5875C71.4209 11.7648 71.135 11.7647 70.9583 11.5876L69.5429 13.0007ZM78.9524 17.1285C77.2758 17.1285 75.9099 18.4925 75.9099 20.1699H77.9099C77.9099 19.5983 78.3792 19.1285 78.9524 19.1285V17.1285ZM81.9952 20.1699C81.9952 18.4904 80.6289 17.1285 78.9524 17.1285V19.1285C79.5265 19.1285 79.9952 19.5972 79.9952 20.1699H81.9952ZM78.9524 23.213C80.6292 23.213 81.9952 21.8486 81.9952 20.1699H79.9952C79.9952 20.7436 79.5251 21.213 78.9524 21.213V23.213ZM75.9099 20.1699C75.9099 21.8464 77.275 23.213 78.9524 23.213V21.213C78.3804 21.213 77.9099 20.7426 77.9099 20.1699H75.9099ZM78.9528 13.6462C80.3684 13.6462 81.6948 14.1964 82.6963 15.1977L84.1104 13.7834C82.7346 12.4078 80.8997 11.6462 78.9528 11.6462V13.6462ZM75.2085 15.1979C76.2103 14.1964 77.5367 13.6462 78.9528 13.6462V11.6462C77.0053 11.6462 75.1707 12.4078 73.7946 13.7833L75.2085 15.1979ZM75.2094 15.8394C75.0317 15.6614 75.0317 15.375 75.2093 15.197L73.7937 13.7842C72.8368 14.7429 72.8368 16.294 73.7943 17.2527L75.2094 15.8394ZM75.8504 15.8382C75.673 16.0152 75.3854 16.0151 75.2084 15.8384L73.7953 17.2537C74.7532 18.2101 76.3053 18.2099 77.2632 17.2538L75.8504 15.8382ZM78.9528 14.5528C77.7829 14.5528 76.6771 15.0101 75.8491 15.8395L77.2645 17.2525C77.7166 16.7996 78.3129 16.5528 78.9528 16.5528V14.5528ZM82.0564 15.8394C81.2283 15.0101 80.1228 14.5528 78.9528 14.5528V16.5528C79.5927 16.5528 80.1888 16.7996 80.6412 17.2526L82.0564 15.8394ZM82.3762 15.9716C82.2588 15.9716 82.1446 15.9276 82.0559 15.8389L80.6417 17.2531C81.1205 17.7319 81.7499 17.9716 82.3762 17.9716V15.9716ZM82.696 15.8391C82.6077 15.9276 82.4936 15.9716 82.3762 15.9716V17.9716C83.0024 17.9716 83.632 17.7319 84.1107 17.2529L82.696 15.8391ZM82.696 15.1975C82.8735 15.3751 82.8738 15.6612 82.6958 15.8394L84.1109 17.2527C85.0682 16.2942 85.0692 14.7428 84.1107 13.7837L82.696 15.1975ZM91.2566 6.63568C91.4336 6.81298 91.4342 7.10068 91.2561 7.27922L92.6724 8.6914C93.6274 7.73359 93.6298 6.182 92.6719 5.2226L91.2566 6.63568ZM66.6483 6.63635C73.4325 -0.145712 84.4732 -0.145712 91.2573 6.63635L92.6713 5.22192C85.1061 -2.3409 72.7995 -2.3409 65.2343 5.22192L66.6483 6.63635ZM66.6489 7.27865C66.4711 7.10066 66.4713 6.81357 66.6488 6.6359L65.2339 5.22237C64.2761 6.18105 64.2763 7.73325 65.2338 8.69196L66.6489 7.27865ZM67.2899 7.27764C67.1127 7.45459 66.8251 7.45459 66.6479 7.27764L65.2348 8.69298C66.1928 9.64947 67.7449 9.64947 68.703 8.69298L67.2899 7.27764ZM90.6161 7.27817C84.184 0.846691 73.7212 0.846675 67.2893 7.27818L68.7035 8.69244C74.3544 3.04193 83.5509 3.04192 89.2019 8.69245L90.6161 7.27817ZM90.9362 7.41017C90.8171 7.41017 90.704 7.36617 90.6163 7.27843L89.2017 8.69219C89.6814 9.17225 90.3109 9.41017 90.9362 9.41017V7.41017ZM91.2572 7.2782C91.1696 7.36573 91.0557 7.41017 90.9362 7.41017V9.41017C91.5611 9.41017 92.1915 9.17234 92.6714 8.69241L91.2572 7.2782ZM6.59379 29.1565C6.86569 29.252 7.13944 29.2927 7.40092 29.2927V27.2927C7.34706 27.2927 7.29895 27.2844 7.25625 27.2694L6.59379 29.1565ZM6.03135 28.6617L6.03153 28.662L7.8185 27.7639L7.81832 27.7635L6.03135 28.6617ZM5.08323 26.0358C4.63867 27.3161 5.31782 28.7128 6.59655 29.1572L7.25312 27.268C7.01516 27.1853 6.89109 26.9265 6.97256 26.6919L5.08323 26.0358ZM9.08178 18.2939C7.35642 20.7588 6.00959 23.3631 5.08304 26.0364L6.97275 26.6913C7.83464 24.2046 9.09362 21.7647 10.7203 19.4408L9.08178 18.2939ZM38.4703 4.06648C26.203 4.29451 15.1896 9.56664 9.08173 18.294L10.7203 19.4407C16.3962 11.3307 26.7565 6.28457 38.5075 6.06613L38.4703 4.06648ZM69.059 18.8338C63.0639 9.71663 50.764 3.83607 38.4702 4.06648L38.5076 6.06613C50.2296 5.84644 61.8289 11.4786 67.3879 19.9326L69.059 18.8338ZM68.3558 22.2321C69.4893 21.4889 69.8034 19.9648 69.0588 18.8334L67.3881 19.933C67.5256 20.1418 67.4666 20.4236 67.2592 20.5595L68.3558 22.2321ZM64.9595 21.5292C65.7037 22.6611 67.2243 22.9766 68.3572 22.2312L67.2578 20.5604C67.0491 20.6978 66.7686 20.6402 66.6307 20.4305L64.9595 21.5292ZM38.562 8.97292C49.3288 8.77058 59.9301 13.8798 64.9595 21.5292L66.6307 20.4305C61.1598 12.1096 49.852 6.76039 38.5244 6.97328L38.562 8.97292ZM13.102 21.1067C18.2433 13.7592 27.7309 9.17333 38.5617 8.97293L38.5247 6.97327C27.1892 7.18301 17.0425 11.9869 11.4634 19.9601L13.102 21.1067ZM9.71852 27.643C10.4923 25.4127 11.6288 23.2132 13.1022 21.1065L11.4632 19.9603C9.8926 22.2061 8.66786 24.5694 7.82899 26.9875L9.71852 27.643ZM7.40092 29.2927C8.41436 29.2927 9.36685 28.6603 9.71887 27.642L7.82864 26.9885C7.76471 27.1735 7.59103 27.2927 7.40092 27.2927V29.2927ZM72.6871 50.4164C71.5501 51.1518 71.2224 52.6687 71.9573 53.8073L73.6377 52.7227C73.5022 52.5128 73.5618 52.2325 73.7733 52.0957L72.6871 50.4164ZM72.5381 51.9779L72.5383 51.978L73.9221 50.5341L73.9219 50.5339L72.5381 51.9779ZM76.0792 51.1461C75.3436 50.0069 73.8258 49.683 72.6887 50.4151L73.7713 52.0967C73.9834 51.9601 74.2639 52.0217 74.3991 52.231L76.0792 51.1461ZM77.9736 58.0399C78.6059 56.0531 77.8152 53.8351 76.0793 51.1462L74.399 52.2309C76.0961 54.8597 76.4043 56.3759 76.0678 57.4334L77.9736 58.0399ZM74.5598 61.2845C75.5807 60.8758 77.3431 60.0253 77.9738 58.0393L76.0676 57.434C75.7315 58.4922 74.765 59.048 73.8165 59.4277L74.5598 61.2845ZM72.891 61.8217C73.4126 61.6739 74.0152 61.5034 74.5611 61.2839L73.8152 59.4282C73.385 59.6011 72.8872 59.7441 72.3458 59.8974L72.891 61.8217ZM70.8696 62.5646C70.8699 62.5548 70.8667 62.5823 70.8513 62.6037C70.8481 62.6081 70.8811 62.5604 71.0287 62.4761C71.3501 62.2926 71.9138 62.0973 72.8898 61.822L72.347 59.8971C71.4037 60.1631 70.6044 60.4153 70.037 60.7393C69.7403 60.9087 69.4475 61.1297 69.2268 61.4371C68.9939 61.7615 68.8814 62.1261 68.8704 62.5069L70.8696 62.5646ZM71.1485 68.4658C70.9895 66.1352 70.8331 63.8151 70.8696 62.565L68.8704 62.5066C68.8303 63.88 68.9979 66.3258 69.1532 68.602L71.1485 68.4658ZM71.1499 68.487L71.1486 68.4663L69.1531 68.6014L69.1545 68.6221L71.1499 68.487ZM71.1503 68.4925L71.1503 68.4921L69.1542 68.6169L69.1542 68.6173L71.1503 68.4925ZM71.4453 74.3462C71.4453 72.8289 71.2931 70.5954 71.15 68.4872L69.1545 68.6226C69.2997 70.7607 69.4453 72.9132 69.4453 74.3462H71.4453ZM69.182 80.2273C70.7291 78.8078 71.4449 76.7757 71.4453 74.3464L69.4453 74.346C69.4449 76.3814 68.8559 77.8122 67.8298 78.7536L69.182 80.2273ZM58.1237 82.17C60.0812 82.3392 62.149 82.4701 64.0437 82.267C65.9387 82.0639 67.777 81.5156 69.1817 80.2275L67.8301 78.7534C66.868 79.6356 65.5139 80.0979 63.8305 80.2784C62.1467 80.4589 60.2498 80.3463 58.2959 80.1774L58.1237 82.17ZM58.0923 82.167L58.1107 82.1688L58.3088 80.1786L58.2905 80.1768L58.0923 82.167ZM58.0568 82.1629L58.0743 82.165L58.3085 80.1788L58.291 80.1767L58.0568 82.1629ZM58.0458 82.1617L58.0573 82.163L58.2906 80.1767L58.2791 80.1753L58.0458 82.1617ZM58.0446 82.1617L58.063 82.1635L58.2619 80.1734L58.2435 80.1716L58.0446 82.1617ZM53.2191 81.3948C54.6806 81.6749 56.2638 81.9274 58.0133 82.1581L58.2747 80.1752C56.5575 79.9488 55.0132 79.7022 53.5956 79.4305L53.2191 81.3948ZM53.386 83.4058C53.4241 82.9379 53.4979 82.4388 53.628 82.006C53.7638 81.5544 53.9279 81.2872 54.0697 81.1619L52.7451 79.6634C52.1965 80.1484 51.8927 80.8314 51.7127 81.4302C51.527 82.0479 51.4369 82.6996 51.3926 83.2433L53.386 83.4058ZM53.4443 90.8646C53.3922 89.9093 53.3675 83.8961 53.3885 83.364L51.3901 83.2851C51.3668 83.8755 51.3915 89.9516 51.4473 90.9736L53.4443 90.8646ZM52.7749 92.6851C53.2398 92.1959 53.4814 91.5358 53.4442 90.8639L51.4473 90.9743C51.4541 91.0973 51.4094 91.2186 51.3251 91.3074L52.7749 92.6851ZM50.995 93.45C51.6684 93.45 52.3127 93.1736 52.7764 92.6835L51.3236 91.309C51.2387 91.3987 51.1202 91.45 50.995 91.45V93.45ZM19.5764 93.45H50.995V91.45H19.5764V93.45ZM17.8134 92.7029C18.278 93.1844 18.915 93.45 19.5764 93.45V91.45C19.4511 91.45 19.3357 91.4002 19.2528 91.3143L17.8134 92.7029ZM17.1243 90.9212C17.1042 91.5841 17.3522 92.2291 17.8166 92.7061L19.2496 91.311C19.1666 91.2257 19.1196 91.1074 19.1234 90.982L17.1243 90.9212ZM10.2364 57.6196C13.9016 64.0804 15.7215 68.3107 16.5886 72.9259C17.4619 77.5747 17.3815 82.669 17.1243 90.9205L19.1234 90.9828C19.379 82.7812 19.4752 77.4591 18.5542 72.5566C17.6269 67.6206 15.6815 63.1646 11.976 56.6327L10.2364 57.6196ZM5.25742 46.4602C6.37215 50.011 8.05034 53.7664 10.2364 57.6196L11.976 56.6327C9.84624 52.8788 8.23056 49.2534 7.1656 45.8611L5.25742 46.4602ZM6.86388 43.3849C5.57069 43.7902 4.85215 45.1671 5.25728 46.4597L7.16574 45.8616C7.09061 45.6219 7.22397 45.368 7.462 45.2934L6.86388 43.3849ZM9.93853 44.9884C9.53262 43.698 8.15628 42.977 6.86195 43.3856L7.46393 45.2928C7.70156 45.2178 7.95563 45.3499 8.0307 45.5885L9.93853 44.9884ZM14.5042 55.1981C12.4751 51.6215 10.9419 48.186 9.93875 44.989L8.03049 45.5878C9.08386 48.9448 10.68 52.5105 12.7647 56.185L14.5042 55.1981ZM22.0742 89.5735C22.303 81.7964 22.3246 76.5278 21.3187 71.5359C20.3082 66.5212 18.2749 61.8456 14.5042 55.1982L12.7646 56.1849C16.4926 62.7571 18.4086 67.2188 19.3581 71.9309C20.3122 76.6659 20.3045 81.7137 20.0751 89.5147L22.0742 89.5735ZM49.5088 88.5441H21.0746V90.5441H49.5088V88.5441ZM48.4922 83.0625C48.4631 83.4932 48.4772 87.331 48.5089 89.5583L50.5087 89.5298C50.4927 88.4075 50.4816 86.9025 50.4777 85.6305C50.4758 84.9946 50.4756 84.4187 50.4776 83.9792C50.4785 83.7592 50.48 83.5753 50.482 83.436C50.483 83.3662 50.4841 83.3096 50.4852 83.2663C50.4858 83.2447 50.4864 83.2277 50.4869 83.2149C50.4874 83.2013 50.4877 83.1964 50.4877 83.1975L48.4922 83.0625ZM49.4548 79.2798C48.9179 80.3358 48.608 81.6059 48.4931 83.0507L50.4868 83.2093C50.5873 81.9447 50.851 80.9465 51.2376 80.1861L49.4548 79.2798ZM45.4144 79.2047C46.8925 79.7814 48.4221 80.2728 50.0983 80.7017L50.5941 78.7642C48.9924 78.3543 47.5402 77.8873 46.1414 77.3415L45.4144 79.2047ZM44.0222 76.0259C43.5299 77.288 44.1514 78.7102 45.4134 79.2043L46.1425 77.3419C45.9096 77.2507 45.7936 76.9881 45.8854 76.7527L44.0222 76.0259ZM47.1985 74.6332C45.9389 74.1432 44.5163 74.7637 44.0226 76.0248L45.885 76.7538C45.9755 76.5226 46.2389 76.4059 46.4734 76.4972L47.1985 74.6332ZM58.6246 77.2889C53.6702 76.6319 50.2679 75.8327 47.2 74.6338L46.472 76.4966C49.7422 77.7746 53.316 78.6025 58.3617 79.2715L58.6246 77.2889ZM65.8658 76.6098C65.3875 77.0488 64.4586 77.3368 63.06 77.4301C61.7079 77.5202 60.1366 77.4182 58.5791 77.2839L58.4072 79.2765C59.9662 79.411 61.6732 79.527 63.1931 79.4256C64.6667 79.3273 66.2039 79.0141 67.2181 78.0833L65.8658 76.6098ZM66.5392 74.3462C66.5392 75.6208 66.2406 76.2668 65.8668 76.6089L67.2171 78.0842C68.185 77.1984 68.5392 75.8794 68.5392 74.3462H66.5392ZM66.2534 68.7997C66.3964 70.8975 66.5396 73.0083 66.5392 74.3459L68.5392 74.3465C68.5396 72.9235 68.3896 70.7295 68.2488 68.6637L66.2534 68.7997ZM66.2526 68.7872L66.2535 68.8002L68.2488 68.6632L68.2479 68.6502L66.2526 68.7872ZM66.2527 68.7896L66.2528 68.7899L68.2477 68.6475L68.2477 68.6471L66.2527 68.7896ZM65.9655 62.4216C65.9214 63.933 66.0858 66.3333 66.2525 68.7862L68.2479 68.6506C68.0778 66.148 67.9241 63.8692 67.9646 62.4799L65.9655 62.4216ZM71.5549 57.1003C70.6307 57.3616 69.2792 57.7353 68.1581 58.4891C66.9788 59.282 66.0207 60.5188 65.9655 62.4217L67.9646 62.4798C67.9976 61.3444 68.5198 60.6559 69.274 60.1488C70.0865 59.6025 71.1218 59.3012 72.0991 59.0249L71.5549 57.1003ZM71.5532 57.1008L71.5522 57.1011L72.1017 59.0241L72.1026 59.0238L71.5532 57.1008ZM71.615 57.0832L71.5542 57.1005L72.1016 59.0241L72.1624 59.0068L71.615 57.0832ZM71.6213 57.0814L71.621 57.0815L72.1563 59.0085L72.1565 59.0085L71.6213 57.0814ZM71.6092 57.0849L71.6089 57.085L72.1689 59.005L72.1692 59.0049L71.6092 57.0849ZM72.7312 56.7325C72.4612 56.8411 72.0899 56.9481 71.6155 57.0831L72.1629 59.0067C72.6022 58.8817 73.0883 58.7446 73.4774 58.5881L72.7312 56.7325ZM73.2984 56.555C73.3306 56.4539 73.3762 56.4006 73.3835 56.3924C73.3911 56.3837 73.3788 56.3995 73.328 56.435C73.2233 56.5083 73.0345 56.6108 72.7318 56.7323L73.4768 58.5884C73.8526 58.4376 74.196 58.2687 74.4746 58.0737C74.7291 57.8957 75.0634 57.6042 75.2043 57.1614L73.2984 56.555ZM71.9573 53.8073C72.7154 54.9818 73.0508 55.7293 73.1922 56.1745C73.3354 56.6253 73.2559 56.6896 73.2979 56.5566L75.2048 57.1599C75.3328 56.7553 75.3112 56.2389 75.0984 55.569C74.8838 54.8935 74.4493 53.9802 73.6377 52.7227L71.9573 53.8073ZM72.8727 48.1625C74.6998 48.3405 76.3516 47.0063 76.5617 45.1824L74.5748 44.9535C74.4895 45.6937 73.808 46.2441 73.0667 46.1719L72.8727 48.1625ZM39.5618 44.9337L72.8732 48.1625L73.0662 46.1719L39.7547 42.943L39.5618 44.9337ZM37.6936 43.5889C38.0191 44.3209 38.7163 44.8528 39.563 44.9338L39.7535 42.9429C39.6469 42.9327 39.5624 42.8692 39.521 42.7762L37.6936 43.5889ZM41.8576 42.1825H38.6073V44.1825H41.8576V42.1825ZM47.7575 36.2833C47.7575 39.5352 45.1102 42.1825 41.8576 42.1825V44.1825C46.2146 44.1825 49.7575 40.6399 49.7575 36.2833H47.7575ZM41.8576 30.3831C45.11 30.3831 47.7575 33.0312 47.7575 36.2833H49.7575C49.7575 31.9268 46.2148 28.3831 41.8576 28.3831V30.3831ZM38.5512 30.3831H41.8576V28.3831H38.5512V30.3831ZM39.5635 27.483C38.6168 27.5732 37.8568 28.2278 37.5943 29.0926L39.508 29.6736C39.5412 29.5645 39.6349 29.4853 39.753 29.474L39.5635 27.483ZM71.333 24.4022L39.5617 27.4832L39.7548 29.4739L71.5261 26.3929L71.333 24.4022ZM74.8788 26.7275C74.3808 25.1925 72.9424 24.2465 71.3332 24.4022L71.5259 26.3929C72.1992 26.3277 72.7675 26.7008 72.9765 27.3447L74.8788 26.7275ZM76.5617 45.1826C77.1226 40.3122 76.8269 32.7421 74.879 26.728L72.9763 27.3443C74.8174 33.0285 75.1106 40.301 74.5748 44.9537L76.5617 45.1826ZM74.5682 45.068V45.0681H76.5682V45.068H74.5682ZM4.34604 39.2757C4.40584 39.2757 4.44749 39.3006 4.46968 39.3228C4.49207 39.3451 4.51758 39.3876 4.51758 39.4482H2.51758C2.51758 40.4528 3.34701 41.2757 4.34604 41.2757V39.2757ZM41.8574 39.2757H4.34604V41.2757H41.8574V39.2757ZM44.8515 36.2831C44.8515 37.9321 43.5075 39.2757 41.8574 39.2757V41.2757C44.6113 41.2757 46.8515 39.0375 46.8515 36.2831H44.8515ZM41.8574 33.2886C43.5071 33.2886 44.8515 34.6335 44.8515 36.2831H46.8515C46.8515 33.5294 44.6121 31.2886 41.8574 31.2886V33.2886ZM4.34622 33.2886H41.8574V31.2886H4.34622V33.2886ZM4.51776 33.1171C4.51776 33.179 4.49196 33.2205 4.47091 33.2416C4.44977 33.2628 4.40805 33.2886 4.34622 33.2886V31.2886C3.34403 31.2886 2.51776 32.1172 2.51776 33.1171H4.51776ZM4.51776 39.448V33.1171H2.51776V39.448H4.51776ZM4.22791 40.152L4.2281 40.1519L2.80742 38.7441L2.80724 38.7443L4.22791 40.152ZM39.4745 26.582L71.2454 23.501L71.0524 21.5103L39.2815 24.5913L39.4745 26.582ZM36.6021 29.4711C36.7366 27.9489 37.9233 26.7316 39.474 26.582L39.282 24.5913C36.7657 24.834 34.8285 26.8202 34.6099 29.2951L36.6021 29.4711ZM4.34622 30.3831H35.606V28.3831H4.34622V30.3831ZM1.61133 33.1175C1.61133 31.6102 2.83881 30.3831 4.34622 30.3831V28.3831C1.73475 28.3831 -0.388672 30.5051 -0.388672 33.1175H1.61133ZM1.61133 39.4484V33.1175H-0.388672V39.4484H1.61133ZM4.34622 42.1827C2.83896 42.1827 1.61133 40.9556 1.61133 39.4484H-0.388672C-0.388672 42.0607 1.73496 44.1827 4.34622 44.1827V42.1827ZM35.6249 42.1827H4.34622V44.1827H35.6249V42.1827ZM39.4745 45.8358C37.9634 45.6896 36.7998 44.5289 36.6173 43.0594L34.6325 43.306C34.9292 45.6935 36.8277 47.5891 39.2819 47.8265L39.4745 45.8358ZM72.7861 49.0656L39.4747 45.8358L39.2817 47.8265L72.5931 51.0562L72.7861 49.0656ZM73.1958 49.0845C73.0557 49.0845 72.9201 49.0787 72.7874 49.0657L72.5918 51.0561C72.7992 51.0765 73.001 51.0845 73.1958 51.0845V49.0845ZM77.4618 45.2856C77.2125 47.4512 75.3398 49.0845 73.1958 49.0845V51.0845C76.3419 51.0845 79.0815 48.7032 79.4487 45.5144L77.4618 45.2856ZM75.7411 26.4494C77.7168 32.5475 78.0339 40.322 77.4618 45.2855L79.4487 45.5145C80.046 40.3316 79.7259 32.2598 77.6437 25.833L75.7411 26.4494ZM71.2457 23.5013C73.2699 23.3049 75.114 24.5132 75.7411 26.4493L77.6438 25.8331C76.7272 23.0033 74.011 21.2236 71.0525 21.5107L71.2457 23.5013ZM70.2564 22.9566L70.2566 22.957L72.0416 22.055L72.0415 22.0547L70.2564 22.9566Z" fill="white" mask="url(#path-4-inside-1_3546_3004)"/>
<path d="M2 33C2 31.8954 2.89543 31 4 31H42.8915C43.5811 31 44.222 31.3552 44.5875 31.94L46.196 34.5136C46.3947 34.8315 46.5 35.1988 46.5 35.5736V37.3998C46.5 37.7913 46.3851 38.1742 46.1695 38.501L44.7841 40.6012C44.414 41.1623 43.7868 41.5 43.1146 41.5H4C2.89543 41.5 2 40.6046 2 39.5V33Z" fill="#E2E8E9"/>
<path d="M37 29L38.5 27.5L56.5 25.5L72 24L74 25.5L76 31L76.5 42.5L75.5 47.5L72.5 48.5L52.5 46.5L38.5 45L37 43V29Z" fill="#E2E8E9"/>
<path fill-rule="evenodd" clip-rule="evenodd" d="M43.8631 36.2831C43.8631 35.1769 42.9623 34.2758 41.8572 34.2758C40.7521 34.2758 39.8516 35.1769 39.8516 36.2831C39.8516 37.3893 40.7527 38.2886 41.8572 38.2886C42.9618 38.2886 43.8631 37.3874 43.8631 36.2831Z" fill="#121C27"/>
<path fill-rule="evenodd" clip-rule="evenodd" d="M70.3387 27.6077L59.5165 28.6543C58.7177 28.7304 58.1328 29.4408 58.21 30.2404C58.2824 30.9918 58.9151 31.554 59.6542 31.554C59.7011 31.554 59.7486 31.5515 59.7959 31.5462L70.618 30.5014C71.4169 30.4235 72.0018 29.7133 71.9249 28.9162C71.8475 28.1167 71.1364 27.5316 70.3387 27.6079V27.6077Z" fill="#121C27"/>
<path fill-rule="evenodd" clip-rule="evenodd" d="M54.867 29.1029L54.7361 29.116C53.9374 29.1921 53.352 29.9025 53.4286 30.7021C53.5009 31.4535 54.1334 32.0148 54.8732 32.0148C54.9199 32.0148 54.9666 32.013 55.0138 32.0095L55.1451 31.9964C55.944 31.9203 56.5292 31.2099 56.4526 30.4113C56.3759 29.6117 55.6673 29.025 54.867 29.1029Z" fill="#121C27"/>
</svg>
