<svg width="98" height="92" viewBox="0 0 98 92" fill="none" xmlns="http://www.w3.org/2000/svg">
<path d="M95.5885 79.9515C95.5528 80.2487 95.4557 80.5352 95.3034 80.7929L94.2085 82.6407C94.0175 82.9634 93.7457 83.2308 93.42 83.4166C93.0943 83.6024 92.7258 83.7001 92.3508 83.7003H63.2529C62.9466 83.7002 62.6437 83.7655 62.3647 83.892C62.0857 84.0185 61.8369 84.2031 61.6351 84.4335C56.1898 90.6612 51.004 86.2028 49.3016 84.3805C49.1004 84.1654 48.8572 83.994 48.587 83.877C48.3168 83.76 48.0254 83.6999 47.7309 83.7003H14.7505C14.2432 83.6999 13.7521 83.521 13.3632 83.1951C12.9744 82.8691 12.7126 82.4168 12.6235 81.9173L4.42611 36.1612C4.33514 35.6483 4.43067 35.1197 4.69543 34.6711L5.8356 32.7446C6.01579 32.439 6.26911 32.183 6.57278 31.9996V31.9976C6.94492 31.7718 7.37656 31.6635 7.81123 31.687L80.1392 35.6619C80.576 35.6868 80.995 35.8434 81.341 36.1112C81.687 36.3789 81.9437 36.7452 82.0775 37.1618L95.502 79.0197C95.599 79.3202 95.6285 79.6383 95.5885 79.9515Z" fill="#FAD59F"/>
<path d="M92.5885 82.9515C92.5528 83.2486 92.4557 83.5352 92.3034 83.7928L91.2085 85.6407C91.0175 85.9634 90.7457 86.2308 90.42 86.4165C90.0943 86.6023 89.7258 86.7001 89.3508 86.7003H60.2529C59.9466 86.7001 59.6437 86.7655 59.3647 86.892C59.0857 87.0184 58.8369 87.2031 58.635 87.4335C53.1898 93.6612 48.004 89.2027 46.3016 87.3804C46.1004 87.1654 45.8572 86.994 45.587 86.877C45.3168 86.76 45.0253 86.6998 44.7309 86.7003H11.7505C11.2431 86.6998 10.7521 86.521 10.3632 86.195C9.97439 85.8691 9.71255 85.4168 9.62353 84.9173L1.42611 39.1611C1.33514 38.6482 1.43067 38.1197 1.69543 37.671L2.8356 35.7446C3.01579 35.439 5.19634 35.1834 5.5 35L11.8429 81.1685C11.9323 81.6678 12.1943 82.1199 12.583 82.4458C12.9718 82.7717 13.4627 82.9506 13.9699 82.9515H45.3894C45.6837 82.9509 45.975 83.0108 46.2452 83.1275C46.5154 83.2442 46.7587 83.4151 46.9601 83.6297C48.6625 85.4539 53.8483 89.9124 59.2936 83.6828C59.4957 83.4528 59.7446 83.2685 60.0236 83.1424C60.3026 83.0163 60.6053 82.9512 60.9115 82.9515H92.5885Z" fill="#C6D2D5"/>
<path d="M95.5885 79.9515C95.5528 80.2486 95.4557 80.5351 95.3034 80.7928L94.2085 82.6407C94.0175 82.9634 93.7457 83.2307 93.42 83.4165C93.0943 83.6023 92.7258 83.7001 92.3508 83.7003H63.2529C62.9466 83.7001 62.6437 83.7655 62.3647 83.892C62.0857 84.0184 61.8369 84.2031 61.635 84.4335C56.1898 90.6612 51.004 86.2027 49.3016 84.3804C49.1004 84.1654 48.8572 83.994 48.587 83.877C48.3168 83.76 48.0254 83.6998 47.7309 83.7003H14.7505C14.2432 83.6998 13.7521 83.521 13.3632 83.195C12.9744 82.8691 12.7126 82.4168 12.6235 81.9173L4.42611 36.1611C4.33514 35.6482 4.43067 35.1197 4.69543 34.671L5.8356 32.7446C6.01579 32.439 6.26911 32.1829 6.57278 31.9995L14.8429 78.1685C14.9323 78.6678 15.1943 79.1199 15.583 79.4458C15.9718 79.7717 16.4627 79.9506 16.9699 79.9515H48.3894C48.6837 79.9509 48.975 80.0108 49.2452 80.1275C49.5154 80.2442 49.7587 80.4151 49.9601 80.6297C51.6625 82.4539 56.8483 86.9124 62.2936 80.6827C62.4957 80.4527 62.7446 80.2685 63.0236 80.1424C63.3026 80.0163 63.6053 79.9512 63.9115 79.9515H95.5885Z" fill="#E2E8E9"/>
<path d="M91.2546 76.1495H62.603C62.272 76.1503 61.9447 76.2187 61.6411 76.3505C61.3376 76.4823 61.0641 76.6748 60.8377 76.9162C59.3594 78.4869 55.5811 81.5791 51.6082 77.4568C51.4686 77.3133 51.3271 77.158 51.1875 76.9948C50.9606 76.7303 50.6792 76.5179 50.3627 76.3721C50.0462 76.2262 49.7019 76.1503 49.3534 76.1495H20.8649L12.1309 34.6612C12.1309 34.6612 29.3435 17.3876 46.2278 35.7443C46.2278 35.7443 60.7315 19.1254 78.701 34.6572L91.2546 76.1495Z" fill="#E2E8E9"/>
<path d="M55.7431 74.5689L46.2286 35.7442C43.018 32.2538 39.7955 30.0515 36.6816 28.7737L46.2125 71.4956L56.0612 78.4699L55.7431 74.5689Z" fill="#E2E8E9"/>
<path d="M91.2549 76.1495H62.6033C62.2723 76.1503 61.945 76.2186 61.6414 76.3505C61.3378 76.4823 61.0644 76.6748 60.838 76.9162C59.3597 78.4869 55.5814 81.5791 51.6085 77.4568C51.4689 77.3133 51.3274 77.158 51.1878 76.9948C50.9609 76.7303 50.6795 76.5179 50.363 76.372C50.0465 76.2262 49.7022 76.1503 49.3537 76.1495H20.8652C20.8652 76.1495 37.2542 59.0529 55.7426 74.569C55.7426 74.569 74.5908 57.7515 91.2549 76.1495Z" fill="#FAD59F"/>
<path d="M66.725 24.5785C66.7283 27.539 66.0797 30.4638 64.8254 33.1454C63.571 35.827 61.7417 38.1996 59.4673 40.0946H59.4653C57.295 41.9059 54.7689 43.2418 52.0502 44.0161C49.3315 44.7904 46.4806 44.9859 43.6817 44.5899C40.8827 44.1939 38.198 43.2153 35.8007 41.7173C33.4035 40.2192 31.3471 38.235 29.7644 35.8928C28.1816 33.5507 27.1078 30.9026 26.6121 28.1195C26.1164 25.3365 26.2099 22.4805 26.8865 19.7359C27.5632 16.9912 28.8081 14.419 30.5406 12.1854C32.2732 9.95176 34.4549 8.10633 36.945 6.7683H36.947C40.0266 5.1134 43.4829 4.28565 46.978 4.36593C50.4732 4.4462 53.8878 5.43175 56.8882 7.22628C59.8886 9.02082 62.3722 11.563 64.0964 14.6044C65.8205 17.6458 66.7262 21.0824 66.725 24.5785Z" fill="#E2E8E9"/>
<path d="M66.7247 24.5786C66.7279 27.539 66.0793 30.4639 64.825 33.1455C63.5707 35.8271 61.7414 38.1996 59.4669 40.0947H59.465C50.4576 42.8527 49.2899 35.7483 50.2768 31.3882C51.4111 26.3694 42.5689 26.1906 44.7194 21.3527C46.87 16.5149 55.8322 14.6611 53.6226 11.6731C51.413 8.68504 55.2385 6.3418 55.2385 6.3418H55.2404C58.6801 7.98868 61.5836 10.575 63.6158 13.802C65.6479 17.029 66.7257 20.765 66.7247 24.5786Z" fill="#FAD59F"/>
<path d="M37.1933 26.3694C38.9861 31.9857 38.7443 38.3805 31.1583 37.7219C29.1936 35.4273 27.7681 32.7215 26.9867 29.8034C26.2054 26.8854 26.088 23.8293 26.6431 20.8599C27.1983 17.8905 28.412 15.0833 30.1949 12.6447C31.9778 10.2061 34.2846 8.19807 36.9456 6.76831H36.9476C36.9476 6.76831 42.8548 11.5531 36.9476 14.1224C31.0403 16.6917 35.4005 20.755 37.1933 26.3694Z" fill="#FAD59F"/>
<path d="M95.8774 78.8997L82.4527 37.041C82.2928 36.5498 81.9887 36.1182 81.5801 35.8022C81.1715 35.4862 80.6772 35.3005 80.1616 35.2692L79.2827 35.2215L79.0776 34.5434C79.0561 34.4722 79.0147 34.4085 78.9583 34.3598C75.0302 30.9659 70.9516 28.8373 66.8293 28.0209C67.5747 23.6184 66.8701 19.0929 64.8213 15.1254C62.7726 11.158 59.4907 7.96338 55.4695 6.02233C55.4323 5.99573 55.3908 5.97578 55.3468 5.96335C52.4421 4.58282 49.2542 3.9024 46.039 3.97668C42.8237 4.05097 39.6707 4.8779 36.8328 6.39111C36.7854 6.40557 36.7411 6.42892 36.7023 6.45992C33.0509 8.43732 30.082 11.4715 28.1843 15.1649C26.2866 18.8583 25.5487 23.0388 26.0673 27.1587C21.5636 27.8664 17.7454 29.9486 15.2038 31.6983L7.83206 31.2938C7.36559 31.2678 6.90096 31.3707 6.48907 31.5911C6.07718 31.8116 5.73391 32.1412 5.49687 32.5438L4.35671 34.4703C4.04434 35.0005 3.932 35.6249 4.04001 36.2307L12.2374 81.9868C12.3422 82.5774 12.6516 83.1121 13.1113 83.4974C13.5709 83.8826 14.1516 84.0937 14.7513 84.0936H47.7317C47.9722 84.0935 48.2102 84.1427 48.431 84.2383C48.6518 84.3338 48.8506 84.4737 49.0151 84.6491C50.2003 85.9177 52.6306 88.0285 55.6778 88.0284H55.7864C57.9605 87.9926 60.0282 86.8707 61.9319 84.6936C62.0967 84.5052 62.3 84.3543 62.528 84.251C62.7559 84.1477 63.0034 84.0944 63.2537 84.0946H92.3516C92.7946 84.0933 93.2297 83.9773 93.6146 83.7578C93.9994 83.5384 94.3209 83.223 94.5476 82.8424L95.6425 80.9945C95.8277 80.6818 95.9444 80.3334 95.9849 79.9723C96.0254 79.6112 95.9887 79.2456 95.8774 78.8997ZM78.358 34.8806L90.4005 74.6833C86.8455 71.114 82.9405 68.7843 78.7698 67.7589C75.0668 66.8487 71.1548 66.9567 67.1434 68.0813C61.519 69.6577 57.3582 72.7403 55.9739 73.8608L48.9127 45.0434C52.8617 44.5821 56.5916 42.9835 59.649 40.4419C59.7002 40.4152 59.7448 40.3775 59.7795 40.3314C63.3057 37.3648 65.7367 33.3027 66.6848 28.7933C70.6388 29.5784 74.5636 31.6221 78.358 34.8806ZM90.3535 75.7566H62.6032C62.2187 75.7581 61.8386 75.8378 61.4859 75.9908C61.1332 76.1439 60.8153 76.3671 60.5517 76.6469C59.6635 77.5905 57.8471 79.17 55.7062 79.1183C54.2318 79.0847 52.8127 78.2842 51.4858 76.7385C51.2222 76.4307 50.8952 76.1835 50.5272 76.0138C50.1592 75.8442 49.7589 75.7561 49.3537 75.7556H21.8512C23.2741 74.4721 26.7746 71.6274 31.5322 69.8997C39.8857 66.8666 47.9467 68.5386 55.4899 74.869C55.4913 74.8702 55.4927 74.8708 55.494 74.872C55.5089 74.8839 55.5246 74.8948 55.541 74.9044C55.5444 74.9066 55.5473 74.9089 55.5509 74.9109C55.6093 74.9438 55.6752 74.9612 55.7423 74.9614H55.7468C55.7738 74.961 55.8006 74.9577 55.8269 74.9518C55.83 74.9518 55.833 74.9518 55.8361 74.9506C55.844 74.9487 55.8506 74.9451 55.8581 74.9428C55.8711 74.9389 55.8839 74.9344 55.8964 74.9292C55.9077 74.9245 55.9187 74.9191 55.9293 74.9131C55.9399 74.9074 55.9503 74.9011 55.9603 74.8944C55.9711 74.8871 55.9816 74.8797 55.9916 74.8714C55.9957 74.8679 56.0002 74.8655 56.0044 74.862C56.051 74.8203 60.7455 70.6834 67.3815 68.8309C75.9701 66.4332 83.6945 68.7636 90.3535 75.7566ZM55.2646 6.79843C58.2227 8.25237 60.771 10.4216 62.6787 13.1094C64.5864 15.7973 65.7932 18.9187 66.1895 22.1909C66.5858 25.463 66.1592 28.7823 64.9483 31.8478C63.7374 34.9134 61.7806 37.6283 59.2552 39.7463C56.0804 40.6996 53.6993 40.4704 52.1793 39.0599C50.2066 37.2293 50.1288 33.8308 50.6615 31.4754C51.274 28.7659 49.2508 27.3321 47.4659 26.0671C45.3867 24.5927 44.159 23.585 45.0806 21.5115C46.0438 19.346 48.469 17.7881 50.6094 16.4136C52.4862 15.2082 54.107 14.1673 54.3368 12.9144C54.3786 12.6546 54.3648 12.3888 54.2963 12.1347C54.2279 11.8805 54.1063 11.6438 53.9397 11.4401C53.4272 10.7477 53.2363 10.0398 53.3722 9.33668C53.6132 8.08289 54.806 7.12574 55.2646 6.79843ZM46.5129 4.75812C49.2486 4.75542 51.9549 5.3224 54.4594 6.42296C53.8202 6.94115 52.8475 7.91245 52.6002 9.18256C52.4193 10.113 52.6572 11.0304 53.3079 11.9078C53.4094 12.0255 53.4847 12.1636 53.5288 12.3127C53.5729 12.4619 53.5847 12.6187 53.5634 12.7727C53.3954 13.6894 51.8359 14.6909 50.1846 15.7513C47.9514 17.1863 45.4205 18.8111 44.3621 21.1917C43.1323 23.9589 45.1932 25.4195 47.0114 26.7081C48.7498 27.9401 50.3926 29.1037 49.8948 31.3012C49.3159 33.8597 49.4268 37.5779 51.6444 39.6363C52.703 40.6192 54.0944 41.1106 55.8023 41.1106C56.4387 41.1061 57.0736 41.0457 57.6995 40.9302C53.8035 43.602 49.08 44.7915 44.3833 44.2834C39.6865 43.7754 35.3267 41.6034 32.0921 38.1603C32.1277 38.1603 32.1646 38.1627 32.1998 38.1627C34.4369 38.1627 36.1104 37.4857 37.1825 36.144C39.3852 33.3877 38.3693 28.7626 37.5676 26.2509C37.0942 24.8616 36.5305 23.5048 35.8802 22.1889C34.8566 20.01 33.9734 18.1286 34.5167 16.6864C34.844 15.8187 35.6901 15.0983 37.1035 14.4836C38.8138 13.7395 39.7678 12.7285 39.938 11.4782C40.2007 9.55076 38.4833 7.65965 37.6394 6.85858C40.3922 5.47395 43.4315 4.75451 46.5129 4.75812ZM36.902 7.24958C37.5311 7.81534 39.3933 9.65317 39.1592 11.3723C39.0284 12.3314 38.2315 13.1356 36.79 13.7625C35.1715 14.4663 34.1874 15.332 33.7811 16.4089C33.1198 18.162 34.0693 20.1832 35.1686 22.5225C35.8052 23.8071 36.3565 25.1321 36.8189 26.4891C38.1016 30.5084 38.0104 33.8481 36.5684 35.6524C35.5299 36.952 33.778 37.5185 31.3636 37.3418C29.476 35.106 28.1075 32.4796 27.3565 29.6516C26.6055 26.8236 26.4906 23.8643 27.0203 20.9866C27.5499 18.1089 28.7108 15.3844 30.4195 13.0091C32.1282 10.6338 34.3421 8.6668 36.902 7.24958ZM26.1817 27.9366C26.7902 31.6188 28.3907 35.0656 30.8112 37.9065C30.8375 37.9561 30.8742 37.9994 30.9187 38.0335C32.85 40.2778 35.2432 42.0785 37.9345 43.3126C40.6259 44.5468 43.552 45.1852 46.5129 45.1844C47.0544 45.1844 47.5908 45.1635 48.1223 45.1218L55.083 73.5293C51.079 70.3858 46.8675 68.4857 42.5478 67.881C38.8236 67.3595 35.0178 67.7939 31.2362 69.1715C27.4903 70.5647 24.0494 72.6695 21.1032 75.3699L12.5608 34.7939C13.5199 33.8928 18.9373 29.0783 26.1817 27.9366ZM94.9663 80.5925L93.8713 82.4403C93.7145 82.7038 93.4921 82.9221 93.2258 83.0739C92.9594 83.2258 92.6583 83.3062 92.3518 83.3071H63.2539C62.8914 83.3068 62.5331 83.3841 62.203 83.5338C61.8729 83.6835 61.5786 83.902 61.34 84.1748C59.589 86.1773 57.7162 87.209 55.7736 87.2414C52.9859 87.2916 50.7 85.3008 49.5901 84.1129C49.352 83.8586 49.0642 83.6559 48.7446 83.5172C48.4249 83.3786 48.0803 83.307 47.7319 83.3069H14.7515C14.3363 83.3068 13.9344 83.1606 13.6162 82.8938C13.298 82.627 13.084 82.2567 13.0116 81.8479L4.81435 36.0931C4.73971 35.6726 4.81794 35.2393 5.03491 34.8715L6.17508 32.945C6.33912 32.6665 6.57666 32.4384 6.86167 32.2859C7.14669 32.1333 7.46819 32.0621 7.79097 32.0801L14.1852 32.4312C13.3674 33.032 12.5883 33.6838 11.8527 34.3828C11.8066 34.4291 11.7727 34.4861 11.7542 34.5487C11.7356 34.6113 11.7329 34.6775 11.7464 34.7414L20.4805 76.23C20.4818 76.2367 20.4846 76.2429 20.4864 76.2496C20.4905 76.2665 20.4959 76.283 20.5023 76.2992C20.5056 76.3072 20.5101 76.3147 20.5141 76.3226C20.5208 76.3366 20.5284 76.3503 20.5367 76.3634C20.5416 76.3709 20.5473 76.378 20.5528 76.3853C20.5625 76.398 20.573 76.4102 20.5841 76.4218C20.5872 76.4252 20.5896 76.4289 20.5929 76.4321C20.5962 76.4352 20.6 76.4374 20.6033 76.4403C20.6158 76.4512 20.6289 76.4613 20.6426 76.4706C20.6497 76.4755 20.6566 76.4806 20.6639 76.4849C20.6787 76.4944 20.6941 76.5028 20.7101 76.5101C20.7162 76.5126 20.7219 76.516 20.7281 76.5183C20.7721 76.535 20.8187 76.5435 20.8658 76.5435H49.3542C49.6461 76.5439 49.9345 76.6073 50.1995 76.7295C50.4646 76.8516 50.7002 77.0296 50.8901 77.2512C52.3682 78.9731 53.9827 79.8657 55.6889 79.905C55.7282 79.905 55.7659 79.9062 55.8044 79.9062C58.2039 79.9062 60.1626 78.2093 61.1245 77.1867C61.3146 76.9848 61.5437 76.8236 61.798 76.7131C62.0523 76.6025 62.3265 76.5448 62.6038 76.5435H91.256C91.2841 76.5431 91.3121 76.5397 91.3396 76.5335C91.3459 76.5321 91.352 76.53 91.3582 76.5282C91.38 76.5224 91.4012 76.5147 91.4215 76.5052L91.4388 76.4967C91.4605 76.4852 91.4811 76.4716 91.5004 76.4562C91.5033 76.4537 91.5065 76.4519 91.5094 76.4494C91.5124 76.4468 91.5165 76.4446 91.5198 76.4417C91.5616 76.4033 91.5945 76.3564 91.6163 76.3041C91.6274 76.2778 91.6355 76.2504 91.6405 76.2223C91.6405 76.218 91.6419 76.2137 91.6425 76.2093C91.6462 76.1847 91.6476 76.1597 91.6466 76.1348C91.6466 76.1301 91.6466 76.1254 91.6466 76.1207C91.6447 76.0932 91.6398 76.0659 91.6321 76.0395V76.0361L91.6311 76.0326C91.6293 76.0271 91.628 76.0214 91.626 76.0157L79.5251 36.0221L80.1185 36.0546C80.4755 36.0763 80.8176 36.205 81.1004 36.4239C81.3832 36.6428 81.5936 36.9417 81.7042 37.2818L95.1289 79.1403C95.206 79.3801 95.2314 79.6335 95.2033 79.8839C95.1753 80.1342 95.0945 80.3757 94.9663 80.5925Z" fill="#121C27"/>
<path d="M87.6664 79.5585H63.912C63.5497 79.5581 63.1916 79.6351 62.8615 79.7843C62.5314 79.9334 62.2369 80.1514 61.9978 80.4235C60.2463 82.4271 58.3731 83.4591 56.4301 83.4902C53.6408 83.5324 51.3569 81.5487 50.2472 80.36C50.0088 80.1064 49.7209 79.9043 49.4014 79.7662C49.0819 79.628 48.7375 79.5568 48.3894 79.5568H16.9708C16.5555 79.5565 16.1536 79.41 15.8355 79.143C15.5174 78.876 15.3035 78.5055 15.2313 78.0966L8.43568 40.1643C8.41639 40.0627 8.35779 39.9727 8.2726 39.914C8.18741 39.8552 8.08249 39.8324 7.98061 39.8506C7.87872 39.8687 7.78808 39.9262 7.72835 40.0107C7.66862 40.0952 7.64462 40.1999 7.66155 40.302L14.4581 78.2369C14.5628 78.8276 14.872 79.3625 15.3317 79.748C15.7913 80.1334 16.372 80.3447 16.9718 80.3449H48.3894C48.6297 80.3447 48.8675 80.3937 49.0882 80.4889C49.3088 80.5841 49.5077 80.7235 49.6724 80.8984C50.8574 82.1676 53.2874 84.2796 56.3351 84.2796H56.4431C58.6176 84.2441 60.6859 83.1218 62.5898 80.9439C62.7549 80.7559 62.9583 80.6053 63.1863 80.5023C63.4143 80.3993 63.6617 80.3461 63.912 80.3464H87.6664C87.7707 80.3464 87.8707 80.305 87.9444 80.2313C88.0181 80.1576 88.0595 80.0576 88.0595 79.9533C88.0595 79.849 88.0181 79.749 87.9444 79.6753C87.8707 79.6015 87.7707 79.5601 87.6664 79.5601V79.5585Z" fill="#121C27"/>
</svg>
