<svg width="93" height="100" viewBox="0 0 93 100" fill="none" xmlns="http://www.w3.org/2000/svg">
<path d="M87.2478 64.6118V68.4925C87.2475 69.362 87.0058 70.2143 86.5498 70.9545C86.0937 71.6948 85.4411 72.2939 84.6646 72.6852L46.1333 92.095C45.421 92.4545 44.6287 92.6264 43.8314 92.5945C43.0341 92.5625 42.2582 92.3276 41.5769 91.9121L8.00334 71.4493C7.31529 71.0304 6.74659 70.4414 6.35196 69.7392C5.95733 69.0369 5.75003 68.2449 5.75 67.4394V63.3976C5.7507 62.4655 6.0286 61.5545 6.54838 60.7807C7.06816 60.0069 7.80632 59.4051 8.66901 59.0519L44.6529 44.3396C45.2368 44.1016 45.8625 43.9834 46.493 43.9919C47.1235 44.0004 47.7458 44.1356 48.323 44.3893L84.446 60.3157C85.2788 60.6838 85.9867 61.2856 86.4841 62.0482C86.9814 62.8108 87.2467 63.7013 87.2478 64.6118Z" fill="#E2E8E9"/>
<path d="M71.3531 60.9674C71.3531 60.9674 65.6641 70.9544 46.5008 70.9544C46.1292 70.9544 45.7616 70.9505 45.3999 70.9425C27.3792 70.565 21.6484 60.9674 21.6484 60.9674L25.2629 49.2417L30.8923 30.9785V30.9765L35.7288 15.2846L39.4367 3.25684H53.5648L57.2727 15.2886L62.1092 30.9785V30.9805L67.7386 49.2437L71.3531 60.9674Z" fill="#FAD59F"/>
<path d="M39.9859 54.5313C34.1598 53.7146 29.0411 51.8269 25.2617 49.2417L30.8911 30.9785C33.5498 32.224 36.3603 33.1158 39.2507 33.6313C38.7698 40.3635 38.8374 47.5746 39.9859 54.5313Z" fill="#FAD59F"/>
<path d="M71.3531 60.9674C71.3531 60.9674 65.6641 70.9544 46.5008 70.9544C46.1292 70.9544 45.7616 70.9505 45.3999 70.9425C45.2588 70.9405 45.1197 70.9366 44.9806 70.9326C44.8416 70.9286 44.7025 70.9227 44.5634 70.9187L44.154 70.9008C44.0169 70.8948 43.8818 70.8889 43.7467 70.8809L43.3433 70.8571C43.2161 70.8491 43.087 70.8412 42.9598 70.8312C42.8108 70.8213 42.6637 70.8094 42.5167 70.7975C42.3994 70.7895 42.2802 70.7796 42.163 70.7677C42.0338 70.7577 41.9066 70.7458 41.7795 70.7319C41.6523 70.718 41.5251 70.708 41.398 70.6941L41.0224 70.6524C40.8972 70.6385 40.774 70.6246 40.6508 70.6087C40.5276 70.5928 40.4044 70.5789 40.2832 70.561C40.1362 70.5431 39.9891 70.5233 39.8441 70.5014C39.6533 70.4756 39.4665 70.4477 39.2797 70.4179C39.2539 70.414 39.2301 70.41 39.2062 70.406C39.089 70.3861 38.9717 70.3683 38.8545 70.3484C38.622 70.3086 38.3935 70.2689 38.167 70.2272C37.9524 70.1874 37.7398 70.1457 37.5291 70.104C37.1854 70.0324 36.8476 69.9583 36.5157 69.8814C36.1958 69.8079 35.8818 69.7304 35.5758 69.6489C35.4685 69.6211 35.3632 69.5933 35.2599 69.5655C35.0612 69.5118 34.8645 69.4562 34.6697 69.4006C33.8809 69.1701 33.1337 68.9237 32.4283 68.6614C32.2634 68.5998 32.1004 68.5382 31.9395 68.4766C31.3275 68.2361 30.7459 67.9871 30.1948 67.7294C30.0418 67.6579 29.8888 67.5844 29.7398 67.5109C29.6643 67.4751 29.5908 67.4373 29.5172 67.4016C29.4437 67.3658 29.3702 67.328 29.2987 67.2903C29.1536 67.2168 29.0105 67.1413 28.8714 67.0677C28.7999 67.03 28.7304 66.9922 28.6628 66.9545C28.5237 66.879 28.3886 66.8054 28.2555 66.7279C27.7905 66.4637 27.3513 66.1954 26.942 65.9291C26.8387 65.8616 26.7373 65.794 26.638 65.7265C26.5307 65.6549 26.4254 65.5834 26.322 65.5119C26.2962 65.494 26.2724 65.4761 26.2505 65.4622C26.167 65.4026 26.0856 65.3449 26.0061 65.2873C25.8789 65.1959 25.7557 65.1045 25.6365 65.0131C25.5491 64.9495 25.4636 64.8839 25.3802 64.8184C25.2729 64.7369 25.1695 64.6554 25.0682 64.572C24.8814 64.4229 24.7026 64.2739 24.5317 64.1269C24.2753 63.9083 24.0389 63.6937 23.8203 63.487C23.7468 63.4175 23.6772 63.3499 23.6077 63.2824C23.401 63.0817 23.2103 62.8889 23.0414 62.7061C22.9838 62.6465 22.9281 62.5869 22.8745 62.5273C22.8049 62.4498 22.7393 62.3763 22.6758 62.3047C22.6281 62.2511 22.5843 62.1994 22.5406 62.1477C22.2797 61.8465 22.0343 61.5321 21.8054 61.2059C21.7756 61.1621 21.7478 61.1224 21.7279 61.0906C21.6743 61.0091 21.6484 60.9674 21.6484 60.9674L25.2629 49.2417C29.0423 51.8269 34.161 53.7146 39.9871 54.5313C42.1452 54.8324 44.3217 54.9825 46.5008 54.9804C54.9935 54.9804 62.6 52.7568 67.7386 49.2437L71.3531 60.9674Z" fill="#E2E8E9"/>
<path d="M62.1075 30.9786V30.9806C57.7618 33.0511 52.357 34.2811 46.4991 34.2811C44.0681 34.2846 41.6418 34.0671 39.2502 33.6313C36.3598 33.1159 33.5494 32.2241 30.8906 30.9786V30.9766L35.7272 15.2847H35.7291C37.6528 15.8765 39.624 16.3007 41.6208 16.5524C43.2387 16.7588 44.8681 16.8617 46.4991 16.8604C50.1474 16.8753 53.7775 16.3449 57.269 15.2867L57.271 15.2886L62.1075 30.9786Z" fill="#E2E8E9"/>
<path d="M46.4995 6.67502C50.4159 6.67502 53.5907 5.26974 53.5907 3.53624C53.5907 1.80274 50.4159 0.397461 46.4995 0.397461C42.5831 0.397461 39.4082 1.80274 39.4082 3.53624C39.4082 5.26974 42.5831 6.67502 46.4995 6.67502Z" fill="#E2E8E9"/>
<path d="M87.2478 64.6117V68.4925C87.2475 69.3619 87.0058 70.2143 86.5498 70.9545C86.0937 71.6948 85.4411 72.2939 84.6646 72.6852L46.1333 92.0949C45.421 92.4545 44.6287 92.6264 43.8314 92.5944C43.0341 92.5624 42.2582 92.3276 41.5769 91.9121L8.00334 71.4492C7.31529 71.0303 6.74659 70.4414 6.35196 69.7391C5.95733 69.0369 5.75003 68.2449 5.75 67.4393V63.3976C5.74965 62.4505 6.03648 61.5256 6.57265 60.7449L41.5769 82.0781C42.2582 82.4936 43.0341 82.7284 43.8314 82.7604C44.6287 82.7924 45.421 82.6205 46.1333 82.2609L86.4272 61.9629C86.9621 62.7426 87.2483 63.6661 87.2478 64.6117Z" fill="#FAD59F"/>
<path d="M85.2478 67.6117V71.4925C85.2475 72.3619 85.0058 73.2143 84.5498 73.9545C84.0937 74.6948 83.4411 75.2939 82.6646 75.6852L44.1333 95.0949C43.421 95.4545 42.6287 95.6264 41.8314 95.5944C41.0341 95.5624 40.2582 95.3276 39.5769 94.9121L6.00334 74.4492C5.31529 74.0303 4.74659 73.4414 4.35196 72.7391C3.95733 72.0369 3.75003 71.2449 3.75 70.4393V66.3976C3.74965 65.4505 4.03648 64.5256 4.57265 63.7449L39.5769 85.0781C40.2582 85.4936 41.0341 85.7284 41.8314 85.7604C42.6287 85.7924 43.421 85.6205 44.1333 85.2609L84.4272 64.9629C84.9621 65.7426 85.2483 66.6661 85.2478 67.6117Z" fill="#C6D2D5"/>
<path d="M87.2478 64.6117V68.4925C87.2475 69.3619 87.0058 70.2143 86.5498 70.9545C86.0937 71.6948 85.4411 72.2939 84.6646 72.6852L46.1333 92.0949C45.421 92.4545 44.6287 92.6264 43.8314 92.5944C43.0341 92.5624 42.2582 92.3276 41.5769 91.9121L8.00334 71.4492C7.31529 71.0303 6.74659 70.4414 6.35196 69.7391C5.95733 69.0369 5.75003 68.2449 5.75 67.4393V63.3976C5.74965 62.4505 6.03648 61.5256 6.57265 60.7449L41.5769 82.0781C42.2582 82.4936 43.0341 82.7284 43.8314 82.7604C44.6287 82.7924 45.421 82.6205 46.1333 82.2609L86.4272 61.9629C86.9621 62.7426 87.2483 63.6661 87.2478 64.6117Z" fill="#FAD59F"/>
<path d="M84.6073 59.952L69.3864 53.241L53.9432 3.14057V3.13858C53.3926 1.29021 50.3343 0 46.4999 0C42.6425 0 39.5095 1.32895 39.0503 3.15945V3.16243L35.3498 15.1665L23.8693 52.4089L8.51953 58.684C7.58199 59.0645 6.77959 59.7165 6.21544 60.5565C5.65128 61.3964 5.35112 62.3858 5.35353 63.3976V67.4393C5.35663 68.3124 5.58278 69.1703 6.01053 69.9315C6.43828 70.6926 7.05344 71.3319 7.79763 71.7886L41.3712 92.2515C42.109 92.7049 42.951 92.9613 43.8163 92.9961C44.6816 93.0309 45.5414 92.8429 46.3133 92.4502L84.8448 73.0404C85.6888 72.6183 86.3982 71.969 86.8932 71.1656C87.3882 70.3621 87.6491 69.4365 87.6466 68.4928V64.6117C87.646 63.624 87.3585 62.6578 86.8189 61.8305C86.2794 61.0032 85.511 60.3506 84.6073 59.952ZM39.8163 3.37465C39.8181 3.36908 39.8183 3.36332 39.8197 3.35776L39.8213 3.35338C40.1367 2.09577 42.721 0.794829 46.4999 0.794829C49.8779 0.794829 52.7508 1.90183 53.1822 3.36968V3.37147V3.37465L56.7716 15.0189C53.4342 15.9918 49.9738 16.478 46.4975 16.4623C43.0218 16.4775 39.5621 15.9909 36.2255 15.0175L39.8163 3.37465ZM35.993 15.7774C39.4055 16.7741 42.944 17.2725 46.4991 17.2573C50.0548 17.273 53.5941 16.775 57.0075 15.7788L61.6262 30.7627C57.2149 32.803 51.9939 33.8824 46.4991 33.8824C41.0076 33.8824 35.7887 32.802 31.3741 30.7609L35.993 15.7774ZM31.1378 31.5277C35.6351 33.5879 40.9341 34.678 46.4991 34.678C52.068 34.678 57.367 33.5883 61.8623 31.5291L67.2707 49.0765C62.0129 52.5776 54.4646 54.5823 46.4983 54.5823C38.5319 54.5823 30.9868 52.578 25.7286 49.0753L31.1378 31.5277ZM25.4844 49.8684C30.86 53.3746 38.4798 55.3779 46.4991 55.3779C54.5183 55.3779 62.1399 53.375 67.5157 49.8696L70.9196 60.9123C70.5575 61.4687 69.0517 63.5762 65.8478 65.6614C62.4133 67.8957 56.2685 70.5592 46.4999 70.5592C36.8699 70.5592 30.7171 67.8945 27.2515 65.6591C24.0207 63.5752 22.4606 61.4675 22.0813 60.9086L25.4844 49.8684ZM86.8513 68.4924C86.8534 69.2887 86.6331 70.0697 86.2153 70.7476C85.7976 71.4255 85.1989 71.9733 84.4867 72.3295L45.9552 91.7402C45.3038 92.0716 44.5783 92.2303 43.8481 92.2009C43.1179 92.1716 42.4074 91.9553 41.7847 91.5727L8.21094 71.1098C7.58293 70.7244 7.06381 70.1849 6.70283 69.5425C6.34186 68.9001 6.151 68.1761 6.14836 67.4393V63.3976C6.14639 62.5437 6.39974 61.7087 6.87587 60.9999C7.35199 60.291 8.02916 59.7407 8.82038 59.4197L23.5664 53.3915L21.267 60.8509C21.2506 60.9041 21.2456 60.9601 21.2522 61.0154C21.2589 61.0706 21.277 61.1239 21.3056 61.1716C21.3683 61.277 22.8885 63.7769 26.7734 66.2951C30.333 68.6023 36.645 71.3526 46.4999 71.3526C56.4972 71.3526 62.8018 68.6019 66.3308 66.2941C70.1846 63.7739 71.6387 61.27 71.6985 61.1647C71.7254 61.1175 71.7423 61.0654 71.7483 61.0114C71.7542 60.9574 71.7491 60.9028 71.7331 60.8509L69.6967 54.2471L84.2866 60.68C85.0492 61.0165 85.6976 61.5673 86.1529 62.2654C86.6083 62.9636 86.8509 63.779 86.8513 64.6125V68.4924Z" fill="#121C27"/>
<path d="M51.5493 6.17324C51.5974 6.15293 51.641 6.12334 51.6776 6.08618C51.7143 6.04901 51.7432 6.00499 51.7629 5.95663C51.7825 5.90826 51.7924 5.85651 51.792 5.80431C51.7917 5.75212 51.781 5.70051 51.7607 5.65243C51.7404 5.60435 51.7108 5.56075 51.6736 5.5241C51.6365 5.48745 51.5925 5.45849 51.5441 5.43886C51.4957 5.41922 51.444 5.40931 51.3918 5.40968C51.3396 5.41005 51.288 5.42069 51.2399 5.44101C49.963 5.9805 48.2792 6.27776 46.4991 6.27776C44.7903 6.27776 43.1551 6.00077 41.8965 5.49784C41.799 5.46066 41.6908 5.46329 41.5953 5.50517C41.4997 5.54705 41.4245 5.62482 41.3858 5.72169C41.3471 5.81857 41.348 5.92678 41.3884 6.02297C41.4288 6.11916 41.5053 6.19561 41.6016 6.23584C42.9518 6.77533 44.6911 7.07259 46.4991 7.07259C48.3831 7.07259 50.1766 6.75307 51.5493 6.17324Z" fill="#121C27"/>
<path d="M77.8923 65.8187L45.9565 81.9072C45.305 82.2383 44.5795 82.3967 43.8494 82.3673C43.1192 82.338 42.4088 82.1218 41.786 81.7395L15.0289 65.4328C14.9843 65.4048 14.9346 65.3859 14.8827 65.3772C14.8307 65.3686 14.7776 65.3703 14.7263 65.3824C14.6751 65.3944 14.6267 65.4166 14.5841 65.4475C14.5415 65.4784 14.5054 65.5174 14.478 65.5624C14.4506 65.6073 14.4324 65.6573 14.4245 65.7093C14.4165 65.7614 14.419 65.8145 14.4318 65.8656C14.4445 65.9166 14.4673 65.9647 14.4988 66.0069C14.5303 66.0491 14.5698 66.0846 14.6152 66.1114L41.3725 82.4181C42.1104 82.8712 42.9522 83.1274 43.8174 83.1622C44.6826 83.1969 45.5423 83.0092 46.3142 82.6168L78.25 66.5285C78.297 66.5052 78.3389 66.4729 78.3733 66.4334C78.4078 66.3938 78.4341 66.3479 78.4507 66.2981C78.4673 66.2484 78.4739 66.1959 78.4701 66.1436C78.4663 66.0913 78.4522 66.0403 78.4286 65.9935C78.405 65.9467 78.3724 65.905 78.3326 65.8708C78.2928 65.8367 78.2467 65.8107 78.1968 65.7945C78.147 65.7782 78.0944 65.772 78.0422 65.7761C77.9899 65.7803 77.939 65.7948 77.8923 65.8187Z" fill="#121C27"/>
</svg>
