<svg width="89" height="94" viewBox="0 0 89 94" fill="none" xmlns="http://www.w3.org/2000/svg">
<path d="M72.195 20.1059C71.8233 18.6669 70.874 17.484 69.6349 16.7628C68.7967 16.2759 67.8236 16 66.8087 16H18.1912C17.5224 16 16.8737 16.119 16.2688 16.3408C14.596 16.9503 13.264 18.3333 12.8048 20.1059C10.6619 28.4025 7.96874 45.4157 9.40279 59.1562C10.1304 66.6844 12.7509 74.5472 16.2688 80.9136C17.65 83.4417 19.0622 85.5966 20.3395 87.3655C21.533 89.0173 23.4518 90 25.5017 90H59.5309C61.5681 89.9892 63.4741 89.0082 64.6603 87.3655C65.9395 85.5966 67.3517 83.4417 68.7329 80.9136C72.2501 74.544 74.87 66.6872 75.597 59.1562C77.0311 45.4175 74.3397 28.4025 72.195 20.1059Z" fill="#C6D2D5"/>
<path d="M4.99987 53.5C5.39987 51.9 8.16654 52.5 9.49987 53L27.4994 82.5C28.3327 84.3333 30.5 90.8 24.5 90C17 89 12.0001 84.5 7.49987 77C3.28056 69.9681 4.49987 55.5 4.99987 53.5Z" fill="#C6D2D5"/>
<path d="M67.7107 3.17578H63.5875C62.0613 3.17578 60.8323 4.43082 60.8619 5.95877L60.9331 9.52746L67.7402 14.8831C68.7085 14.8831 69.6367 15.1491 70.4363 15.6184V5.90488C70.4363 4.39779 69.216 3.17578 67.7107 3.17578Z" fill="#FAD59F"/>
<path d="M26.3762 2.78125H22.253C20.7476 2.78125 19.5273 4.00326 19.5273 5.51035V15.2117C20.1045 14.9979 20.7233 14.8832 21.3612 14.8832L29.0236 9.52752L29.1018 5.56424C29.1313 4.03629 27.9024 2.78125 26.3762 2.78125Z" fill="#FAD59F"/>
<path d="M81.6417 57.179C81.8381 58.5905 81.9442 60.6278 81.819 63.0266H75.0449C75.1614 62.5295 75.2692 62.0254 75.3735 61.5143C75.6985 59.9099 75.9454 58.2255 76.1244 56.4855H80.849C81.2488 56.4855 81.5861 56.781 81.6417 57.179Z" fill="#FAD59F"/>
<path d="M75.0458 63.0266H81.8199C81.6808 65.6983 81.2567 68.8186 80.3475 72.0327C77.2847 82.8778 69.0591 86.184 60.7988 86.2188C62.7422 86.2083 64.5605 85.2627 65.6921 83.6791C66.9124 81.9739 68.2595 79.8966 69.5771 77.4596C70.827 75.1511 72.0507 72.5176 73.1145 69.573C73.8498 67.5375 74.5087 65.3542 75.0458 63.0266Z" fill="#FAD59F"/>
<path d="M23.412 83.6791C24.5505 85.2714 26.381 86.2188 28.3365 86.2188C20.031 86.2188 11.7342 82.9369 8.65396 72.0327C7.74484 68.8186 7.3207 65.6983 7.18164 63.0266H14.0583C14.5971 65.3542 15.256 67.5375 15.9912 69.573C17.0533 72.5176 18.2771 75.1511 19.5287 77.4596C20.8463 79.8966 22.1934 81.9739 23.412 83.6791Z" fill="#FAD59F"/>
<path d="M14.0576 63.0266H7.18098C7.05582 60.6278 7.16186 58.5905 7.35828 57.179C7.41391 56.781 7.75113 56.4855 8.15094 56.4855H12.9781C13.1572 58.2255 13.404 59.9099 13.7291 61.5143C13.8334 62.0254 13.9429 62.5295 14.0576 63.0266Z" fill="#FAD59F"/>
<path d="M72.8792 18.8412C72.5246 17.4541 71.6189 16.3138 70.4369 15.6185C69.6373 15.1491 68.709 14.8832 67.7408 14.8832H21.3617C20.7238 14.8832 20.1049 14.9979 19.5278 15.2117C17.9321 15.7993 16.6614 17.1325 16.2234 18.8412C14.1791 26.8391 11.61 43.2398 12.978 56.4855C13.6721 63.7426 16.1719 71.3224 19.5278 77.4596C20.8455 79.8966 22.1926 81.9739 23.4112 83.6791C24.5497 85.2714 26.3801 86.2188 28.3357 86.2188H60.7981C62.7415 86.2083 64.5598 85.2627 65.6914 83.6791C66.9117 81.9739 68.2588 79.8966 69.5764 77.4596C72.9317 71.3193 75.431 63.7454 76.1245 56.4855C77.4926 43.2415 74.9251 26.8391 72.8792 18.8412Z" fill="#E2E8E9"/>
<path d="M15.9902 69.573H73.1136C72.0498 72.5176 70.8261 75.1511 69.5762 77.4596H19.5276C18.2761 75.1511 17.0523 72.5176 15.9902 69.573Z" fill="#FAD59F"/>
<path d="M67.7405 14.8831C67.2625 11.8481 64.6394 9.52747 61.4757 9.52747H27.6262C24.4625 9.52747 21.8395 11.8481 21.3614 14.8831L21.2832 24.3359C21.2832 35.859 29.3454 45.4543 40.3122 47.3351H48.5499C59.5932 45.5186 67.8187 35.9128 67.8187 24.3359L67.7405 14.8831Z" fill="#FAD59F"/>
<path d="M48.5502 46.3877C48.5502 44.3783 46.9214 42.7495 44.9137 42.7495H43.9507C41.9413 42.7495 40.3125 44.3783 40.3125 46.3877V52.8472C40.3125 54.8566 41.9413 56.4854 43.9507 56.4854H44.9137C46.9214 56.4854 48.5502 54.8566 48.5502 52.8472" fill="#FAD59F"/>
<path d="M80.8475 55.6154H77.0801C78.2163 42.7391 75.8847 27.0867 73.7202 18.6263C73.3486 17.1735 72.472 15.9555 71.3047 15.1364V5.90541C71.3047 3.92082 69.6924 2.30647 67.7105 2.30647H63.5864C62.6138 2.30647 61.703 2.68924 61.0217 3.38403C60.3389 4.08022 59.9737 5.00081 59.9928 5.97651L60.0457 8.65798H52.7557C52.3437 6.32277 50.3042 4.54277 47.856 4.54277H41.5867C39.1385 4.54277 37.099 6.32277 36.687 8.65798H29.9096L29.9701 5.58209C29.9892 4.60657 29.624 3.68597 28.9412 2.98979C28.26 2.295 27.3491 1.91223 26.3766 1.91223H22.2525C20.2707 1.91223 18.6582 3.52675 18.6582 5.51117V14.6305C17.0655 15.4001 15.8393 16.8349 15.3809 18.6265C13.2164 27.0871 10.885 42.7396 12.021 55.6156H8.15051C7.32187 55.6156 6.61091 56.2365 6.49671 57.0601C6.04406 60.3227 6.11759 66.2632 7.81502 72.269C11.2763 84.5171 20.8843 87.088 28.3347 87.088H60.766C60.7735 87.088 60.781 87.0873 60.7884 87.0873C68.221 87.0585 77.7407 84.4486 81.1827 72.269C82.8801 66.2632 82.9536 60.3225 82.501 57.0601C82.3869 56.2366 81.6758 55.6156 80.8472 55.6156L80.8475 55.6154ZM62.2629 4.601C62.6145 4.24222 63.0847 4.04475 63.5864 4.04475H67.7105C68.7338 4.04475 69.5664 4.87948 69.5664 5.90541V14.2869C69.2078 14.1768 68.8349 14.1025 68.4541 14.0586C67.6708 11.0514 64.9961 8.80243 61.7845 8.66598L61.7308 5.94244C61.7209 5.43764 61.9098 4.96135 62.2629 4.60135V4.601ZM41.5867 6.28105H47.856C49.341 6.28105 50.5929 7.28943 50.9734 8.65798H38.4693C38.8498 7.28943 40.1015 6.28105 41.5867 6.28105ZM61.4752 10.3963C64.4932 10.3963 66.9487 12.8566 66.9487 15.8811V24.3364C66.9487 35.0496 59.6358 44.121 49.4166 46.2881C49.3632 43.849 47.3639 41.8809 44.9124 41.8809H43.9497C41.5006 41.8809 39.503 43.8448 39.4455 46.2801C29.3648 44.0593 22.1527 34.9938 22.1527 24.3364V15.8811C22.1527 12.8568 24.6082 10.3963 27.6262 10.3963H61.4754H61.4752ZM47.6809 46.3877V52.847C47.6809 54.3737 46.4389 55.6157 44.9124 55.6157H43.9497C42.4232 55.6157 41.181 54.3737 41.181 52.847V46.3877C41.181 44.861 42.4232 43.619 43.9497 43.619H44.9124C46.4389 43.619 47.6809 44.861 47.6809 46.3877ZM20.3967 5.51099C20.3967 4.48506 21.2293 3.65034 22.2527 3.65034H26.3767C26.8786 3.65034 27.3486 3.84781 27.7003 4.20659C28.0531 4.56659 28.2421 5.04288 28.2323 5.54767L28.1712 8.65781H27.6264C24.2795 8.65781 21.4583 10.9534 20.6484 14.0548C20.5641 14.0646 20.4801 14.0757 20.3969 14.0887L20.3967 5.51099ZM17.0651 19.0572C17.4762 17.4507 18.8145 16.2171 20.415 15.8599C20.415 15.867 20.4144 15.8738 20.4144 15.8809V24.3362C20.4144 35.9453 28.3733 45.8023 39.4429 48.0551V52.8468C39.4429 55.3319 41.4647 57.3538 43.9499 57.3538H44.9125C47.3976 57.3538 49.4194 55.332 49.4194 52.8468V48.0601C60.6282 45.8614 68.6874 36.0022 68.6874 24.3362V15.8809C68.6874 15.8738 68.6868 15.867 68.6868 15.8599C70.2871 16.2171 71.6256 17.4506 72.0367 19.0572C74.5165 28.7511 77.2248 48.0116 74.5214 61.3413C74.0124 63.851 73.3374 66.3069 72.5031 68.7038H16.5987C15.7642 66.3069 15.0892 63.8508 14.5804 61.3413C11.877 48.0118 14.5851 28.7513 17.0651 19.0572ZM71.8623 70.4421C71.053 72.541 70.1194 74.5927 69.0595 76.5909H20.0419C18.9821 74.5927 18.0486 72.5412 17.2391 70.4421H71.8623ZM8.21117 57.3537H12.1988C12.3719 58.8488 12.5953 60.2992 12.8765 61.6867C12.9085 61.8443 12.9454 62.0004 12.9786 62.1578H8.01475C7.9546 60.2557 8.04221 58.6018 8.21117 57.3537ZM16.9947 82.4772C13.3786 80.2197 10.853 76.626 9.48794 71.796C8.71249 69.0519 8.29079 66.3296 8.10809 63.896H13.3742C15.1436 71.1713 18.2734 77.9876 22.7039 84.184C22.8804 84.4307 23.0728 84.6628 23.2772 84.8816C20.9255 84.4199 18.8225 83.6182 16.9947 82.4772ZM60.8498 85.3469L28.3349 85.3496C26.6689 85.3496 25.0925 84.5359 24.118 83.1731C22.9925 81.5989 21.9559 79.9824 21.0039 78.329H68.0972C67.1452 79.9824 66.1088 81.5989 64.9831 83.1731C64.0249 84.5129 62.4847 85.3202 60.8498 85.3469ZM79.5103 71.796C78.1452 76.626 75.6196 80.2197 72.0035 82.4772C70.2089 83.5977 68.1487 84.3907 65.8484 84.8562C66.0438 84.6449 66.2275 84.4211 66.397 84.184C70.8277 77.9878 73.9575 71.1713 75.7269 63.896H80.8899C80.7072 66.3296 80.2857 69.0518 79.5103 71.796ZM80.9834 62.1578H76.1227C76.1559 62.0004 76.1927 61.8443 76.2247 61.6867C76.5062 60.2992 76.7294 58.8488 76.9025 57.3537H80.7872C80.9563 58.6018 81.0438 60.2557 80.9834 62.1578Z" fill="#121C27" stroke="#E2E8E9" stroke-width="0.9"/>
<circle cx="45" cy="26" r="8" fill="#E2E8E9"/>
<path d="M44.7219 35.7429C50.032 35.7429 54.352 31.4344 54.352 26.1383C54.352 20.8423 50.0318 16.5338 44.7219 16.5338C39.4119 16.5338 35.0918 20.8423 35.0918 26.1383C35.0918 31.4344 39.4119 35.7429 44.7219 35.7429ZM44.7219 18.2721C49.0735 18.2721 52.6137 21.8008 52.6137 26.1383C52.6137 30.4759 49.0735 34.0046 44.7219 34.0046C40.3703 34.0046 36.8301 30.4759 36.8301 26.1383C36.8301 21.8008 40.3703 18.2721 44.7219 18.2721Z" fill="#121C27" stroke="#FAD59F"/>
</svg>
