<svg width="108" height="100" viewBox="0 0 108 100" fill="none" xmlns="http://www.w3.org/2000/svg">
<g clip-path="url(#clip0_3736_2900)">
<path d="M5.1543 50.3869C5.1543 43.9228 6.41317 37.522 8.85902 31.55C11.3049 25.5779 14.8898 20.1517 19.409 15.581C23.9283 11.0103 29.2933 7.38471 35.1979 4.91114C41.1023 2.43756 47.4308 1.16443 53.8218 1.16443" stroke="#121C27" stroke-width="1.04688"/>
<path d="M0.740234 45.9438L5.13319 50.3868L9.52611 45.9438" stroke="#121C27" stroke-width="1.04688" stroke-linecap="square"/>
<path d="M102.847 49.6132C102.847 56.0773 101.589 62.4781 99.1423 68.4501C96.6968 74.4221 93.1113 79.8486 88.5923 84.4188C84.0733 88.9897 78.7081 92.615 72.8036 95.0889C66.8991 97.5628 60.5706 98.8359 54.1797 98.8359" stroke="#121C27" stroke-width="1.04688"/>
<path d="M107.26 54.0561L102.867 49.6132L98.4746 54.0561" stroke="#121C27" stroke-width="1.04688" stroke-linecap="square"/>
<path d="M49.7203 88.1851C68.3209 88.1851 83.3996 72.9347 83.3996 54.1224C83.3996 35.3101 68.3209 20.0597 49.7203 20.0597C31.1197 20.0597 16.041 35.3101 16.041 54.1224C16.041 72.9347 31.1197 88.1851 49.7203 88.1851Z" fill="#C6D2D5"/>
<path d="M87.4709 49.613C87.4709 68.2105 72.5646 83.2851 54.1788 83.2851C35.7931 83.2851 20.8867 68.2105 20.8867 49.613C20.8867 31.0155 35.7931 15.9409 54.1788 15.9409C72.5646 15.9409 87.4709 31.0155 87.4709 49.613Z" fill="#FAD59F" stroke="#121C27" stroke-width="1.04688"/>
<path d="M63.5979 55.9095C63.5979 52.3767 61.3198 50.3031 55.7006 48.844V37.3623C58.1684 37.7463 60.4845 38.8983 62.307 40.7031L63.1423 39.6279C61.0161 37.631 58.3583 36.3254 55.7006 35.9798V33.5607H54.3337V35.8647H54.1439C49.246 35.8647 45.7909 38.9367 45.7909 43.3527C45.7909 46.6551 48.2209 48.5367 54.3337 49.9575V61.7463C50.9166 61.5928 47.6134 60.1719 45.3353 57.868L44.5 58.9431C47.0438 61.4775 50.6508 63.0136 54.3337 63.1288V65.548H55.7006V63.0904C60.3706 62.7832 63.5979 59.8648 63.5979 55.9095ZM47.1578 43.2375C47.1578 39.7047 50.0053 37.2471 54.0679 37.2471H54.3337V48.4984C49.2081 47.1927 47.1578 45.6567 47.1578 43.2375ZM55.7006 61.708V50.3031C60.3706 51.6087 62.231 53.2984 62.231 56.0248C62.231 59.1351 59.5732 61.4007 55.7006 61.708Z" fill="#121C27"/>
</g>
<defs>
<clipPath id="clip0_3736_2900">
<rect width="108" height="100" fill="white"/>
</clipPath>
</defs>
</svg>
