<svg width="96" height="87" viewBox="0 0 96 87" fill="none" xmlns="http://www.w3.org/2000/svg">
<path d="M22.5 51L31.5 49L41.5 47.5L54 48.5H55.5L59 49L64 50L71 52L78.5 55L85.5 60L87.5 61.5L88.5 62L90 61.5L91 59L90.5 24.5L89 21.5L85.5 17L80 13L72.5 9.5L59 6L46.5 5L32.5 6L18 9.5L7 15.5L2 21.5L0 27V58.5V60.5L0.5 62H2L4 61.5L7.5 58L10.5 56L17 53L22.5 51Z" fill="#C6D2D5"/>
<path d="M25.5 48L34.5 46L44.5 44.5L57 45.5H58.5L62 46L67 47L74 49L81.5 52L88.5 57L90.5 58.5L91.5 59L93 58.5L94 56L93.5 21.5L92 18.5L88.5 14L83 10L75.5 6.5L62 3L49.5 2L35.5 3L21 6.5L10 12.5L5 18.5L3 24V55.5V57.5L5 59L7 58.5L10.5 55L13.5 53L20 50L25.5 48Z" fill="#E2E8E9"/>
<path d="M58.5 85H38.5H38V84V82.5L38.5 82L40 81V80.5V63.5L36.5 62.5L35 60.5L34.5 58.5L35 45L36.5 41.5L39.5 38.5L42 37L46 36H61.5L62.5 35L64.5 33L67 30L68 28L69.5 27.5H70L71.5 29L72 31V33L70.5 35.5L67 39L65 42L62.5 42.5H57V81L58 81.5L59 82.5V84.5L58.5 85Z" fill="#FAD59F"/>
<circle cx="49" cy="27" r="6" fill="#FAD59F"/>
<path d="M60 28L62 35L66 31L67 29.5L67.5 28L67 27.5V26.5C67.3333 25.8333 68.1 24.5 68.5 24.5C68.9 24.5 69.6667 23.5 70 23L71.5 22V20.5V16L70.5 15.5L68 16.5L62.5 20.5L61 24.5L60 28Z" fill="#FAD59F"/>
<path d="M75 15.5V22L78 24L79 26L85.5 25V24.5L85 22.5L82.5 19L79 16.5L75 15.5Z" fill="#FAD59F"/>
<path d="M86 28.5L79.5 29.5L77 33.5V35L78 37.5L78.5 39.5H79.5L80.5 39L81.5 38L82.5 37.5L84 36L85 34.5L85.5 33.5L86 31.5L86.5 31L86 28.5Z" fill="#FAD59F"/>
<path d="M71 41L67.5 40V39L68 38L70 35.5L71.5 34.5H73.5L74 37L75 39V41H74H71Z" fill="#FAD59F"/>
<path fill-rule="evenodd" clip-rule="evenodd" d="M2.11328 24.5781C2.11328 11.3068 22.4886 0.911011 48.4994 0.911011C74.0773 0.911011 94.886 11.528 94.886 24.5781V56.72C94.886 58.1494 94.0313 59.3933 92.7086 59.8891C92.3061 60.0504 91.8885 60.1285 91.4754 60.1285C90.5406 60.1285 89.6294 59.7273 88.9719 58.9751C83.2326 52.6176 71.6689 48 57.8886 46.5349V80.2751C59.2106 80.7451 60.161 81.9986 60.161 83.4715V84.2732C60.161 85.2748 59.3466 86.089 58.3454 86.089H38.6325C37.6441 86.089 36.8394 85.2748 36.8394 84.2732V83.4715C36.8394 81.9932 37.7905 80.7354 39.1118 80.2697V64.503C36.0872 64.4136 33.6543 61.9261 33.6543 58.881V47.7879C33.6543 47.6198 33.6575 47.4524 33.6639 47.2859C22.242 49.2851 12.9456 53.5152 8.01627 58.9874C7.04957 60.055 5.57837 60.4048 4.26748 59.8797C2.96772 59.3935 2.11328 58.1496 2.11328 56.7202V24.5781ZM55.6392 45.3345C55.6383 45.3083 55.6383 45.2819 55.6392 45.2553V42.2192C55.6392 41.598 56.1429 41.0942 56.7642 41.0942H63.0232C63.5644 41.0942 64.0241 40.8833 64.4276 40.4502L65.8365 38.8901C65.8954 38.8036 65.9647 38.7276 66.0417 38.6629L70.2295 34.0257C70.2886 33.9594 70.3446 33.8913 70.3975 33.8217C70.4433 33.732 70.5002 33.6505 70.566 33.5782C71.423 32.2143 71.2047 30.3675 69.9708 29.2393L69.5001 28.8164L67.9775 30.5077C67.9363 30.563 67.8899 30.6147 67.8388 30.6619L63.1415 35.8797C63.1026 35.9315 63.0588 35.9803 63.0103 36.0254L62.4115 36.6907C62.1979 36.9276 61.8943 37.0629 61.5756 37.0629H46.607C40.7053 37.0629 35.9044 41.8741 35.9044 47.7879V58.881C35.9044 60.686 37.3283 62.1635 39.1118 62.2514V45.0482C39.1118 44.4265 39.6154 43.9233 40.2366 43.9233C40.8578 43.9233 41.3615 44.4265 41.3615 45.0482V80.0741H43.8228C44.4438 80.0741 44.9478 80.5775 44.9478 81.1991C44.9478 81.8207 44.4438 82.3242 43.8228 82.3242H40.2368C39.615 82.3242 39.0895 82.8495 39.0895 83.4715V83.8389H47.3755V66.1639C47.3755 65.5423 47.8794 65.0389 48.5005 65.0389C49.1215 65.0389 49.6254 65.5423 49.6254 66.1639V83.8389H57.9116V83.4715C57.9116 82.8388 57.3869 82.3242 56.7419 82.3242H53.156C52.535 82.3242 52.031 81.8209 52.031 81.1991C52.031 80.5775 52.5348 80.0741 53.156 80.0741H55.6392V45.3345ZM90.6538 57.4815C84.5092 50.6746 72.3112 45.7693 57.8886 44.2728V43.3442H63.023C64.1899 43.3442 65.2444 42.8738 66.0857 41.971L67.0238 40.9321C68.944 41.8684 71.0186 42.3424 73.2032 42.3424C74.0599 42.3424 74.8995 42.2687 75.6982 42.1232C76.0185 42.0652 76.2979 41.8713 76.4642 41.5916C76.6306 41.3113 76.6674 40.9732 76.5653 40.6643L74.4495 34.2495C74.2974 33.7885 73.8663 33.4769 73.3811 33.4769H73.203V33.4766C73.158 33.4766 73.1131 33.476 73.0683 33.4748C73.7065 31.4355 73.1597 29.1068 71.4819 27.5721L70.1679 26.3919C69.7062 25.9776 68.9952 26.0154 68.58 26.4759L68.1764 26.9243C68.6366 25.2086 69.9654 23.7924 71.7178 23.2729C72.1949 23.1312 72.5228 22.6927 72.5228 22.1944V15.4232C72.5226 15.0976 72.3814 14.7875 72.1353 14.5739C71.8895 14.3604 71.5629 14.2635 71.2402 14.3092C64.3264 15.2864 59.1133 21.2809 59.1133 28.2526C59.1133 30.556 59.6659 32.802 60.72 34.8131H46.607C40.437 34.8131 35.2605 39.157 33.9658 44.9524C21.7425 46.9848 11.7045 51.5315 6.34653 57.4796C6.01014 57.8518 5.54497 57.9693 5.08073 57.7821C4.63134 57.614 4.36304 57.2167 4.36304 56.72V24.5781C4.36304 12.7684 24.1626 3.16095 48.4994 3.16095C72.8365 3.16095 92.6362 12.7682 92.6362 24.5781V56.7202C92.6362 57.2169 92.3679 57.614 91.8953 57.7913C91.453 57.9693 90.9819 57.8548 90.6538 57.4815ZM73.2032 40.0922C71.5896 40.0922 70.0492 39.7858 68.6061 39.1798L71.8389 35.5998C72.0761 35.6446 72.3163 35.6775 72.5586 35.6985L73.9999 40.0668C73.7372 40.0837 73.4713 40.0922 73.2032 40.0922ZM65.751 28.2528C65.751 28.6843 65.7855 29.1033 65.8536 29.5047L62.4656 33.2683C61.741 31.7097 61.363 30.0012 61.363 28.2526C61.363 22.8343 65.1118 18.1183 70.2728 16.7912V21.4071C67.5727 22.5651 65.751 25.2689 65.751 28.2528ZM32.0621 7.03694C32.6725 6.9154 33.2648 7.30858 33.3874 7.91698C33.5104 8.52576 33.1163 9.11877 32.5072 9.24179C27.497 10.253 22.9641 11.7439 19.0337 13.6728C18.7326 13.8511 18.4652 13.9875 18.1948 14.1001C18.0529 14.1597 17.9065 14.1874 17.7623 14.1874C17.3218 14.1874 16.9036 13.9272 16.7234 13.4951C16.4847 12.9214 16.7559 12.263 17.3291 12.0237C17.5091 11.9489 17.6961 11.8519 17.918 11.7188C17.9443 11.7027 17.9722 11.6879 18 11.6741C22.1136 9.64999 26.8448 8.08954 32.0621 7.03694ZM28.1688 13.7971C27.9843 13.2036 27.3555 12.8712 26.7606 13.0566C24.3799 13.7968 22.1134 14.6957 20.0075 15.7379C19.3154 16.0955 18.2663 16.6538 17.1512 17.3741C16.6292 17.7109 16.4799 18.4074 16.817 18.9294C17.0319 19.2624 17.3937 19.4439 17.7629 19.4439C17.972 19.4439 18.1837 19.3854 18.3722 19.2635C19.4048 18.5961 20.3893 18.0723 21.0224 17.7456C23.0052 16.7644 25.1603 15.9094 27.4284 15.2052C28.0216 15.0208 28.3528 14.3903 28.1688 13.7971ZM26.7005 17.844L26.7082 17.8413C27.2936 17.6333 27.941 17.9378 28.1494 18.5233C28.3574 19.1091 28.0561 19.75 27.4705 19.958L27.461 19.9615C26.7726 20.2057 26.1225 20.4363 25.4924 20.7096C23.9829 21.3219 20.3293 23.0937 18.5132 24.7241C18.2985 24.9173 18.0297 25.0123 17.7619 25.0123C17.4537 25.0123 17.1466 24.8863 16.9245 24.639C16.5095 24.1764 16.5481 23.4652 17.0097 23.0505C19.2114 21.0739 23.3471 19.1522 24.622 18.635C25.295 18.343 26.0092 18.0894 26.7004 17.8441L26.7005 17.844ZM75.1842 14.3088C74.8612 14.2665 74.5359 14.3608 74.2906 14.5751C74.0449 14.7887 73.9043 15.0978 73.9043 15.4234V22.1946C73.9043 22.69 74.2284 23.1268 74.7025 23.2708C76.1518 23.7111 77.3432 24.7485 77.9722 26.1167C78.1576 26.5199 78.5593 26.7718 78.994 26.7718C79.043 26.7718 79.0924 26.7683 79.1425 26.7622L85.8472 25.871C86.1706 25.828 86.4597 25.6469 86.6387 25.3745C86.8178 25.1015 86.8701 24.7646 86.7818 24.4508C85.2616 19.0581 80.7096 15.0774 75.1842 14.3088ZM79.6195 24.4293C78.8092 23.0895 77.5963 22.0326 76.1542 21.4106V16.7883C79.7895 17.7125 82.7788 20.3282 84.1919 23.8215L79.6195 24.4293ZM79.3102 28.1408L86.015 27.2278C86.3374 27.1836 86.6638 27.282 86.9086 27.4966C87.1533 27.7113 87.2926 28.0215 87.2917 28.3474C87.268 33.7137 84.2623 38.5198 79.447 40.8894C79.2902 40.9666 79.1202 41.0054 78.9499 41.0054C78.802 41.0054 78.6539 40.9757 78.5142 40.9174C78.2142 40.7912 77.9837 40.5419 77.8817 40.2328L75.7655 33.8175C75.6112 33.3488 75.7802 32.8339 76.1828 32.5481C77.3661 31.7085 78.1357 30.4786 78.3504 29.0844C78.4261 28.5925 78.8167 28.208 79.3102 28.1408ZM78.148 33.857L79.5913 38.2326C82.6007 36.3211 84.5636 33.1838 84.9655 29.6412L80.3959 30.2635C80.0157 31.6503 79.241 32.8886 78.148 33.857ZM56.2856 26.5379C56.2856 30.8427 52.7932 34.3453 48.5006 34.3453C44.1956 34.3453 40.6934 30.8427 40.6934 26.5379C40.6934 22.2452 44.1956 18.7527 48.5006 18.7527C52.7932 18.7527 56.2856 22.2452 56.2856 26.5379ZM54.0357 26.5379C54.0357 23.4856 51.5527 21.0028 48.5006 21.0028C45.4358 21.0028 42.9435 23.4856 42.9435 26.5379C42.9435 29.6022 45.4358 32.0952 48.5006 32.0952C51.5527 32.0952 54.0357 29.6024 54.0357 26.5379Z" fill="#121C27"/>
<path d="M92.7086 59.8891L92.4979 59.3272L92.4854 59.3322L92.7086 59.8891ZM88.9719 58.9751L89.4236 58.5802L89.4172 58.5731L88.9719 58.9751ZM57.8886 46.5349L57.952 45.9383L57.2886 45.8677V46.5349H57.8886ZM57.8886 80.2751H57.2886V80.6986L57.6876 80.8404L57.8886 80.2751ZM39.1118 80.2697L39.3112 80.8356L39.7118 80.6944V80.2697H39.1118ZM39.1118 64.503H39.7118V63.9205L39.1295 63.9033L39.1118 64.503ZM33.6639 47.2859L34.2634 47.3087L34.2917 46.5668L33.5604 46.6948L33.6639 47.2859ZM8.01627 58.9874L8.46104 59.3901L8.46207 59.3889L8.01627 58.9874ZM4.26748 59.8797L4.49065 59.3225L4.47767 59.3177L4.26748 59.8797ZM55.6392 45.2553L56.2388 45.2764L56.2392 45.2659V45.2553H55.6392ZM55.6392 45.3345H56.2392V45.3239L56.2388 45.3134L55.6392 45.3345ZM64.4276 40.4502L64.8666 40.8593L64.8729 40.8523L64.4276 40.4502ZM65.8365 38.8901L66.2818 39.2922L66.3094 39.2617L66.3325 39.2278L65.8365 38.8901ZM66.0417 38.6629L66.4277 39.1222L66.4593 39.0957L66.487 39.0651L66.0417 38.6629ZM70.2295 34.0257L70.6748 34.4278L70.6773 34.425L70.2295 34.0257ZM70.3975 33.8217L70.8752 34.1847L70.9075 34.1422L70.9318 34.0946L70.3975 33.8217ZM70.566 33.5782L71.0097 33.9821L71.0456 33.9426L71.074 33.8974L70.566 33.5782ZM69.9708 29.2393L70.3757 28.7965L70.3718 28.7929L69.9708 29.2393ZM69.5001 28.8164L69.9011 28.3701L69.4552 27.9695L69.0542 28.415L69.5001 28.8164ZM67.9775 30.5077L67.5316 30.1063L67.5131 30.1268L67.4966 30.149L67.9775 30.5077ZM67.8388 30.6619L67.4318 30.221L67.4114 30.2398L67.3928 30.2605L67.8388 30.6619ZM63.1415 35.8797L62.6956 35.4783L62.678 35.4979L62.6621 35.5189L63.1415 35.8797ZM63.0103 36.0254L62.6013 35.5864L62.582 35.6044L62.5644 35.624L63.0103 36.0254ZM62.4115 36.6907L62.8571 37.0924L62.8574 37.0921L62.4115 36.6907ZM39.1118 62.2514L39.0822 62.8507L39.7118 62.8817V62.2514H39.1118ZM41.3615 80.0741H40.7615V80.6741H41.3615V80.0741ZM39.0895 83.8389H38.4895V84.4389H39.0895V83.8389ZM47.3755 83.8389V84.4389H47.9755V83.8389H47.3755ZM49.6254 83.8389H49.0254V84.4389H49.6254V83.8389ZM57.9116 83.8389V84.4389H58.5116V83.8389H57.9116ZM55.6392 80.0741V80.6741H56.2392V80.0741H55.6392ZM57.8886 44.2728H57.2886V44.8137L57.8266 44.8696L57.8886 44.2728ZM90.6538 57.4815L91.1046 57.0854L91.0992 57.0794L90.6538 57.4815ZM57.8886 43.3442V42.7442H57.2886V43.3442H57.8886ZM66.0857 41.971L66.5247 42.38L66.531 42.3731L66.0857 41.971ZM67.0238 40.9321L67.2868 40.3928L66.881 40.1949L66.5785 40.5299L67.0238 40.9321ZM75.6982 42.1232L75.5912 41.5329L75.5908 41.5329L75.6982 42.1232ZM76.4642 41.5916L76.9799 41.8983L76.9801 41.8979L76.4642 41.5916ZM76.5653 40.6643L75.9955 40.8522L75.9956 40.8525L76.5653 40.6643ZM74.4495 34.2495L75.0193 34.0616L75.0193 34.0615L74.4495 34.2495ZM73.203 33.4769H72.603V34.0769H73.203V33.4769ZM73.203 33.4766H73.803V32.8766H73.203V33.4766ZM73.0683 33.4748L72.4957 33.2957L72.2583 34.0543L73.0529 34.0746L73.0683 33.4748ZM71.4819 27.5721L71.8869 27.1294L71.8829 27.1258L71.4819 27.5721ZM70.1679 26.3919L70.5688 25.9455L70.5686 25.9454L70.1679 26.3919ZM68.58 26.4759L68.1344 26.0741L68.134 26.0745L68.58 26.4759ZM68.1764 26.9243L67.5969 26.7688L68.6223 27.3257L68.1764 26.9243ZM71.7178 23.2729L71.8884 23.8482L71.8888 23.8481L71.7178 23.2729ZM72.5228 15.4232H73.1227V15.4229L72.5228 15.4232ZM72.1353 14.5739L71.7419 15.0269L71.742 15.0271L72.1353 14.5739ZM71.2402 14.3092L71.3242 14.9033L71.3243 14.9033L71.2402 14.3092ZM60.72 34.8131V35.4131H61.712L61.2515 34.5346L60.72 34.8131ZM33.9658 44.9524L34.0643 45.5443L34.4632 45.4779L34.5514 45.0832L33.9658 44.9524ZM6.34653 57.4796L6.79167 57.8819L6.79233 57.8812L6.34653 57.4796ZM5.08073 57.7821L5.30514 57.2256L5.29808 57.2228L5.29095 57.2201L5.08073 57.7821ZM91.8953 57.7913L91.6844 57.2295L91.6714 57.2347L91.8953 57.7913ZM68.6061 39.1798L68.1608 38.7776L67.5939 39.4054L68.3738 39.7329L68.6061 39.1798ZM71.8389 35.5998L71.9502 35.0102L71.6193 34.9477L71.3936 35.1977L71.8389 35.5998ZM72.5586 35.6985L73.1284 35.5105L73.0044 35.1348L72.6103 35.1007L72.5586 35.6985ZM73.9999 40.0668L74.0384 40.6656L74.8129 40.6158L74.5697 39.8788L73.9999 40.0668ZM65.8536 29.5047L66.2995 29.9061L66.4937 29.6904L66.4451 29.4043L65.8536 29.5047ZM62.4656 33.2683L61.9215 33.5212L62.3042 34.3444L62.9115 33.6697L62.4656 33.2683ZM70.2728 16.7912H70.8728V16.0174L70.1234 16.2101L70.2728 16.7912ZM70.2728 21.4071L70.5093 21.9585L70.8728 21.8026V21.4071H70.2728ZM33.3874 7.91698L32.7992 8.03555L32.7993 8.03583L33.3874 7.91698ZM32.0621 7.03694L31.9449 6.44848L31.9434 6.44879L32.0621 7.03694ZM32.5072 9.24179L32.6259 9.82993L32.626 9.82992L32.5072 9.24179ZM19.0337 13.6728L18.7694 13.1342L18.7482 13.1446L18.728 13.1565L19.0337 13.6728ZM18.1948 14.1001L17.9641 13.5463L17.9627 13.5469L18.1948 14.1001ZM16.7234 13.4951L16.1695 13.7256L16.1697 13.726L16.7234 13.4951ZM17.3291 12.0237L17.0989 11.4696L17.0979 11.47L17.3291 12.0237ZM17.918 11.7188L18.2265 12.2335L18.2315 12.2305L17.918 11.7188ZM18 11.6741L17.7351 11.1358L17.7346 11.136L18 11.6741ZM26.7606 13.0566L26.9388 13.6296L26.9391 13.6294L26.7606 13.0566ZM28.1688 13.7971L28.7418 13.6193L28.7417 13.6191L28.1688 13.7971ZM20.0075 15.7379L19.7413 15.2001L19.7321 15.2049L20.0075 15.7379ZM17.1512 17.3741L17.4765 17.8783L17.4767 17.8781L17.1512 17.3741ZM16.817 18.9294L17.3212 18.6041L17.321 18.6038L16.817 18.9294ZM18.3722 19.2635L18.0465 18.7596L18.0464 18.7597L18.3722 19.2635ZM21.0224 17.7456L20.7563 17.2077L20.7472 17.2124L21.0224 17.7456ZM27.4284 15.2052L27.6063 15.7783L27.6066 15.7782L27.4284 15.2052ZM26.7082 17.8413L26.9088 18.4068L26.9091 18.4066L26.7082 17.8413ZM26.7005 17.844L26.9002 18.4098L26.9011 18.4095L26.7005 17.844ZM28.1494 18.5233L28.7148 18.3226L28.7147 18.3222L28.1494 18.5233ZM27.4705 19.958L27.2696 19.3925L27.261 19.3957L27.4705 19.958ZM27.461 19.9615L27.6616 20.5271L27.6704 20.5238L27.461 19.9615ZM25.4924 20.7096L25.7179 21.2656L25.7245 21.2629L25.7311 21.2601L25.4924 20.7096ZM18.5132 24.7241L18.1124 24.2777L18.1119 24.2781L18.5132 24.7241ZM16.9245 24.639L16.478 25.0397L16.4781 25.0398L16.9245 24.639ZM17.0097 23.0505L16.6089 22.604L16.6087 22.6042L17.0097 23.0505ZM24.622 18.635L24.8475 19.191L24.8542 19.1883L24.8608 19.1855L24.622 18.635ZM26.7004 17.8441L26.5007 17.2783L26.4997 17.2786L26.7004 17.8441ZM74.2906 14.5751L74.6843 15.0279L74.6854 15.0269L74.2906 14.5751ZM75.1842 14.3088L75.2669 13.7145L75.2621 13.7139L75.1842 14.3088ZM74.7025 23.2708L74.8769 22.6967L74.8769 22.6966L74.7025 23.2708ZM77.9722 26.1167L77.4271 26.3673V26.3673L77.9722 26.1167ZM79.1425 26.7622L79.2153 27.3578L79.2215 27.357L79.1425 26.7622ZM85.8472 25.871L85.9263 26.4658L85.9264 26.4658L85.8472 25.871ZM86.6387 25.3745L87.1401 25.7041L87.1404 25.7036L86.6387 25.3745ZM86.7818 24.4508L87.3594 24.2883L87.3593 24.288L86.7818 24.4508ZM76.1542 21.4106H75.5542V21.8053L75.9166 21.9616L76.1542 21.4106ZM79.6195 24.4293L79.1061 24.7398L79.3093 25.0758L79.6986 25.0241L79.6195 24.4293ZM76.1542 16.7883L76.3021 16.2068L75.5542 16.0167V16.7883H76.1542ZM84.1919 23.8215L84.271 24.4162L85.0385 24.3142L84.7482 23.5965L84.1919 23.8215ZM86.015 27.2278L86.0959 27.8223L86.0964 27.8222L86.015 27.2278ZM79.3102 28.1408L79.3911 28.7354L79.3912 28.7354L79.3102 28.1408ZM86.9086 27.4966L86.5129 27.9477V27.9477L86.9086 27.4966ZM87.2917 28.3474L87.8917 28.35V28.3491L87.2917 28.3474ZM79.447 40.8894L79.1821 40.3511L79.182 40.3511L79.447 40.8894ZM78.5142 40.9174L78.2816 41.4705L78.2833 41.4712L78.5142 40.9174ZM77.8817 40.2328L77.3119 40.4207L77.3119 40.4208L77.8817 40.2328ZM75.7655 33.8175L75.1957 34.0052L75.1957 34.0054L75.7655 33.8175ZM76.1828 32.5481L75.8356 32.0588L75.8356 32.0588L76.1828 32.5481ZM78.3504 29.0844L78.9434 29.1757L78.9434 29.1756L78.3504 29.0844ZM79.5913 38.2326L79.0215 38.4205L79.2628 39.152L79.913 38.739L79.5913 38.2326ZM78.148 33.857L77.7501 33.4079L77.4544 33.6698L77.5782 34.045L78.148 33.857ZM84.9655 29.6412L85.5617 29.7088L85.6486 28.9426L84.8845 29.0467L84.9655 29.6412ZM80.3959 30.2635L80.3149 29.669L79.922 29.7225L79.8172 30.1049L80.3959 30.2635ZM48.4994 0.311011C35.4224 0.311011 23.7277 2.92299 15.2796 7.23337C6.85801 11.5302 1.51328 17.6049 1.51328 24.5781H2.71328C2.71328 18.28 7.55619 12.5212 15.825 8.30228C24.0672 4.09694 35.5656 1.51101 48.4994 1.51101V0.311011ZM95.486 24.5781C95.486 17.7091 90.0238 11.6362 81.5571 7.31631C73.0572 2.97953 61.3633 0.311011 48.4994 0.311011V1.51101C61.2134 1.51101 72.7128 4.15098 81.0117 8.38522C89.3438 12.6364 94.286 18.397 94.286 24.5781H95.486ZM95.486 56.72V24.5781H94.286V56.72H95.486ZM92.9192 60.451C94.4799 59.866 95.486 58.3956 95.486 56.72H94.286C94.286 57.9033 93.5828 58.9207 92.498 59.3273L92.9192 60.451ZM91.4754 60.7285C91.9645 60.7285 92.4579 60.6359 92.9317 60.4461L92.4854 59.3322C92.1544 59.4648 91.8125 59.5285 91.4754 59.5285V60.7285ZM88.5201 59.37C89.2911 60.2519 90.3667 60.7285 91.4754 60.7285V59.5285C90.7146 59.5285 89.9678 59.2028 89.4236 58.5802L88.5201 59.37ZM57.8251 47.1315C71.5449 48.5901 82.9321 53.1801 88.5265 59.3772L89.4172 58.5731C83.5332 52.0551 71.793 47.4098 57.952 45.9383L57.8251 47.1315ZM58.4886 80.2751V46.5349H57.2886V80.2751H58.4886ZM60.761 83.4715C60.761 81.7329 59.6395 80.2607 58.0896 79.7097L57.6876 80.8404C58.7817 81.2294 59.561 82.2643 59.561 83.4715H60.761ZM60.761 84.2732V83.4715H59.561V84.2732H60.761ZM58.3454 86.689C59.678 86.689 60.761 85.6062 60.761 84.2732H59.561C59.561 84.9435 59.0152 85.489 58.3454 85.489V86.689ZM38.6325 86.689H58.3454V85.489H38.6325V86.689ZM36.2394 84.2732C36.2394 85.5992 37.3058 86.689 38.6325 86.689V85.489C37.9824 85.489 37.4394 84.9504 37.4394 84.2732H36.2394ZM36.2394 83.4715V84.2732H37.4394V83.4715H36.2394ZM38.9123 79.7038C37.3603 80.2509 36.2394 81.7291 36.2394 83.4715H37.4394C37.4394 82.2574 38.2207 81.2199 39.3112 80.8356L38.9123 79.7038ZM38.5118 64.503V80.2697H39.7118V64.503H38.5118ZM33.0543 58.881C33.0543 62.2518 35.7463 65.0038 39.0941 65.1028L39.1295 63.9033C36.428 63.8234 34.2543 61.6005 34.2543 58.881H33.0543ZM33.0543 47.7879V58.881H34.2543V47.7879H33.0543ZM33.0643 47.263C33.0577 47.4371 33.0543 47.6121 33.0543 47.7879H34.2543C34.2543 47.6274 34.2574 47.4677 34.2634 47.3087L33.0643 47.263ZM8.46207 59.3889C13.2627 54.0597 22.4056 49.8656 33.7673 47.8769L33.5604 46.6948C22.0784 48.7046 12.6286 52.9707 7.57047 58.5858L8.46207 59.3889ZM4.04437 60.4366C5.59419 61.0574 7.33023 60.639 8.46104 59.3901L7.5715 58.5847C6.76891 59.471 5.56255 59.7521 4.49059 59.3227L4.04437 60.4366ZM1.51328 56.7202C1.51328 58.393 2.51671 59.8654 4.05729 60.4416L4.47767 59.3177C3.41874 58.9216 2.71328 57.9062 2.71328 56.7202H1.51328ZM1.51328 24.5781V56.7202H2.71328V24.5781H1.51328ZM55.0396 45.2343C55.0381 45.275 55.0382 45.3154 55.0396 45.3555L56.2388 45.3134C56.2384 45.3012 56.2384 45.2888 56.2388 45.2764L55.0396 45.2343ZM55.0392 42.2192V45.2553H56.2392V42.2192H55.0392ZM56.7642 40.4942C55.8116 40.4942 55.0392 41.2666 55.0392 42.2192H56.2392C56.2392 41.9294 56.4743 41.6942 56.7642 41.6942V40.4942ZM63.0232 40.4942H56.7642V41.6942H63.0232V40.4942ZM63.9887 40.0412C63.6866 40.3653 63.3812 40.4942 63.0232 40.4942V41.6942C63.7477 41.6942 64.3615 41.4012 64.8666 40.8593L63.9887 40.0412ZM65.3912 38.488L63.9823 40.0481L64.8729 40.8523L66.2818 39.2922L65.3912 38.488ZM65.6556 38.2036C65.5372 38.3032 65.4308 38.4199 65.3406 38.5524L66.3325 39.2278C66.3601 39.1873 66.3922 39.1521 66.4277 39.1222L65.6556 38.2036ZM69.7842 33.6235L65.5964 38.2608L66.487 39.0651L70.6748 34.4278L69.7842 33.6235ZM69.9197 33.4587C69.8763 33.5159 69.8303 33.5718 69.7817 33.6263L70.6773 34.425C70.7469 34.347 70.8129 34.2668 70.8752 34.1847L69.9197 33.4587ZM70.1223 33.1743C70.0212 33.2854 69.9336 33.4109 69.8632 33.5488L70.9318 34.0946C70.953 34.0532 70.9792 34.0156 71.0097 33.9821L70.1223 33.1743ZM69.566 29.6821C70.5829 30.6119 70.7628 32.1372 70.0579 33.259L71.074 33.8974C72.0832 32.2913 71.8266 30.123 70.3757 28.7965L69.566 29.6821ZM69.0991 29.2628L69.5699 29.6856L70.3718 28.7929L69.9011 28.3701L69.0991 29.2628ZM68.4235 30.9092L69.946 29.2179L69.0542 28.415L67.5316 30.1063L68.4235 30.9092ZM68.2458 31.1027C68.3242 31.0303 68.3953 30.9511 68.4585 30.8664L67.4966 30.149C67.4772 30.175 67.4555 30.1991 67.4318 30.221L68.2458 31.1027ZM63.5874 36.2811L68.2847 31.0633L67.3928 30.2605L62.6956 35.4783L63.5874 36.2811ZM63.4193 36.4644C63.4938 36.3951 63.5611 36.32 63.6209 36.2405L62.6621 35.5189C62.6441 35.5429 62.6238 35.5655 62.6013 35.5864L63.4193 36.4644ZM62.8574 37.0921L63.4563 36.4269L62.5644 35.624L61.9655 36.2892L62.8574 37.0921ZM61.5756 37.6629C62.0646 37.6629 62.53 37.4553 62.8571 37.0924L61.9658 36.289C61.8658 36.3999 61.7241 36.4629 61.5756 36.4629V37.6629ZM46.607 37.6629H61.5756V36.4629H46.607V37.6629ZM36.5044 47.7879C36.5044 42.2043 41.0378 37.6629 46.607 37.6629V36.4629C40.3727 36.4629 35.3044 41.5439 35.3044 47.7879H36.5044ZM36.5044 58.881V47.7879H35.3044V58.881H36.5044ZM39.1413 61.6521C37.6754 61.5798 36.5044 60.3641 36.5044 58.881H35.3044C35.3044 61.0078 36.9812 62.7471 39.0822 62.8507L39.1413 61.6521ZM38.5118 45.0482V62.2514H39.7118V45.0482H38.5118ZM40.2366 43.3233C39.2841 43.3233 38.5118 44.095 38.5118 45.0482H39.7118C39.7118 44.7579 39.9467 44.5233 40.2366 44.5233V43.3233ZM41.9615 45.0482C41.9615 44.0949 41.189 43.3233 40.2366 43.3233V44.5233C40.5266 44.5233 40.7615 44.758 40.7615 45.0482H41.9615ZM41.9615 80.0741V45.0482H40.7615V80.0741H41.9615ZM43.8228 79.4741H41.3615V80.6741H43.8228V79.4741ZM45.5478 81.1991C45.5478 80.246 44.775 79.4741 43.8228 79.4741V80.6741C44.1127 80.6741 44.3478 80.9091 44.3478 81.1991H45.5478ZM43.8228 82.9242C44.7752 82.9242 45.5478 82.1521 45.5478 81.1991H44.3478C44.3478 81.4892 44.1125 81.7243 43.8228 81.7243V82.9242ZM40.2368 82.9242H43.8228V81.7243H40.2368V82.9242ZM39.6895 83.4715C39.6895 83.181 39.9463 82.9242 40.2368 82.9242V81.7243C39.2837 81.7243 38.4895 82.5181 38.4895 83.4715H39.6895ZM39.6895 83.8389V83.4715H38.4895V83.8389H39.6895ZM47.3755 83.2389H39.0895V84.4389H47.3755V83.2389ZM46.7755 66.1639V83.8389H47.9755V66.1639H46.7755ZM48.5005 64.4389C47.5483 64.4389 46.7755 65.2107 46.7755 66.1639H47.9755C47.9755 65.8738 48.2106 65.6389 48.5005 65.6389V64.4389ZM50.2254 66.1639C50.2254 65.2107 49.4527 64.4389 48.5005 64.4389V65.6389C48.7903 65.6389 49.0254 65.8738 49.0254 66.1639H50.2254ZM50.2254 83.8389V66.1639H49.0254V83.8389H50.2254ZM57.9116 83.2389H49.6254V84.4389H57.9116V83.2389ZM57.3116 83.4715V83.8389H58.5116V83.4715H57.3116ZM56.7419 82.9242C57.0665 82.9242 57.3116 83.1811 57.3116 83.4715H58.5116C58.5116 82.4964 57.7072 81.7243 56.7419 81.7243V82.9242ZM53.156 82.9242H56.7419V81.7243H53.156V82.9242ZM51.431 81.1991C51.431 82.1524 52.2038 82.9242 53.156 82.9242V81.7243C52.8662 81.7243 52.631 81.4894 52.631 81.1991H51.431ZM53.156 79.4741C52.2036 79.4741 51.431 80.246 51.431 81.1991H52.631C52.631 80.909 52.8661 80.6741 53.156 80.6741V79.4741ZM55.6392 79.4741H53.156V80.6741H55.6392V79.4741ZM55.0392 45.3345V80.0741H56.2392V45.3345H55.0392ZM57.8266 44.8696C72.1842 46.3593 84.2074 51.2357 90.2085 57.8835L91.0992 57.0794C84.811 50.1135 72.4382 45.1792 57.9505 43.676L57.8266 44.8696ZM57.2886 43.3442V44.2728H58.4886V43.3442H57.2886ZM63.023 42.7442H57.8886V43.9442H63.023V42.7442ZM65.6467 41.5619C64.9125 42.3499 64.0143 42.7442 63.023 42.7442V43.9442C64.3656 43.9442 65.5763 43.3978 66.5246 42.38L65.6467 41.5619ZM66.5785 40.5299L65.6404 41.5688L66.531 42.3731L67.4691 41.3342L66.5785 40.5299ZM73.2032 41.7424C71.1078 41.7424 69.1233 41.2883 67.2868 40.3928L66.7608 41.4713C68.7647 42.4485 70.9295 42.9424 73.2032 42.9424V41.7424ZM75.5908 41.5329C74.8294 41.6716 74.0258 41.7424 73.2032 41.7424V42.9424C74.0939 42.9424 74.9696 42.8658 75.8057 42.7135L75.5908 41.5329ZM75.9485 41.285C75.871 41.4152 75.7408 41.5057 75.5912 41.5329L75.8053 42.7136C76.2962 42.6246 76.7248 42.3273 76.9799 41.8983L75.9485 41.285ZM75.9956 40.8525C76.0431 40.9964 76.0261 41.1542 75.9482 41.2854L76.9801 41.8979C77.2351 41.4684 77.2916 40.95 77.135 40.4761L75.9956 40.8525ZM73.8797 34.4375L75.9955 40.8522L77.1351 40.4763L75.0193 34.0616L73.8797 34.4375ZM73.3811 34.0769C73.6074 34.0769 73.8087 34.2224 73.8797 34.4376L75.0193 34.0615C74.786 33.3546 74.1253 32.8769 73.3811 32.8769V34.0769ZM73.203 34.0769H73.3811V32.8769H73.203V34.0769ZM72.603 33.4766V33.4769H73.803V33.4766H72.603ZM73.0529 34.0746C73.1029 34.0759 73.1529 34.0766 73.203 34.0766V32.8766C73.1631 32.8766 73.1234 32.8761 73.0837 32.875L73.0529 34.0746ZM71.077 28.0149C72.5761 29.3861 73.0671 31.4697 72.4957 33.2957L73.6409 33.654C74.3459 31.4013 73.7433 28.8275 71.8869 27.1294L71.077 28.0149ZM69.767 26.8383L71.081 28.0185L71.8829 27.1258L70.5688 25.9455L69.767 26.8383ZM69.0256 26.8777C69.2194 26.6628 69.5518 26.6452 69.7671 26.8384L70.5686 25.9454C69.8606 25.3099 68.771 25.3681 68.1344 26.0741L69.0256 26.8777ZM68.6223 27.3257L69.0259 26.8774L68.134 26.0745L67.7304 26.5229L68.6223 27.3257ZM71.5473 22.6977C69.5889 23.2782 68.1096 24.8576 67.5969 26.7688L68.7559 27.0797C69.1637 25.5595 70.342 24.3066 71.8884 23.8482L71.5473 22.6977ZM71.9228 22.1944C71.9228 22.4268 71.7698 22.6316 71.5469 22.6978L71.8888 23.8481C72.6199 23.6308 73.1227 22.9587 73.1227 22.1944H71.9228ZM71.9228 15.4232V22.1944H73.1227V15.4232H71.9228ZM71.742 15.0271C71.8566 15.1265 71.9227 15.2713 71.9228 15.4235L73.1227 15.4229C73.1225 14.9239 72.9062 14.4485 72.5286 14.1208L71.742 15.0271ZM71.3243 14.9033C71.4745 14.882 71.6269 14.9271 71.7419 15.0269L72.5288 14.121C72.152 13.7937 71.6514 13.645 71.1562 13.7151L71.3243 14.9033ZM59.7133 28.2526C59.7133 21.5805 64.7057 15.8388 71.3242 14.9033L71.1563 13.7151C63.9471 14.7341 58.5133 20.9813 58.5133 28.2526H59.7133ZM61.2515 34.5346C60.2427 32.61 59.7133 30.4598 59.7133 28.2526H58.5133C58.5133 30.6523 59.0891 32.9939 60.1886 35.0917L61.2515 34.5346ZM46.607 35.4131H60.72V34.2131H46.607V35.4131ZM34.5514 45.0832C35.7864 39.555 40.7251 35.4131 46.607 35.4131V34.2131C40.1488 34.2131 34.7346 38.7591 33.3803 44.8216L34.5514 45.0832ZM6.79233 57.8812C12.0213 52.0764 21.9051 47.566 34.0643 45.5443L33.8674 44.3605C21.58 46.4036 11.3878 50.9867 5.90073 57.078L6.79233 57.8812ZM4.85633 58.3385C5.56448 58.6241 6.29423 58.4323 6.79167 57.8819L5.9014 57.0773C5.72604 57.2713 5.52546 57.3144 5.30514 57.2256L4.85633 58.3385ZM3.76304 56.72C3.76304 57.455 4.17565 58.0841 4.87052 58.344L5.29095 57.2201C5.08702 57.1438 4.96304 56.9784 4.96304 56.72H3.76304ZM3.76304 24.5781V56.72H4.96304V24.5781H3.76304ZM48.4994 2.56095C36.2602 2.56095 25.1328 4.97552 17.043 8.90107C8.99499 12.8063 3.76304 18.3135 3.76304 24.5781H4.96304C4.96304 19.033 9.63084 13.8316 17.5668 9.98068C25.461 6.1501 36.4018 3.76095 48.4994 3.76095V2.56095ZM93.2362 24.5781C93.2362 18.3134 88.0042 12.8062 79.9562 8.901C71.8662 4.97548 60.7388 2.56095 48.4994 2.56095V3.76095C60.5972 3.76095 71.5381 6.15005 79.4323 9.98061C87.3684 13.8315 92.0362 19.0329 92.0362 24.5781H93.2362ZM93.2362 56.7202V24.5781H92.0362V56.7202H93.2362ZM92.1062 58.3531C92.8162 58.0866 93.2362 57.4633 93.2362 56.7202H92.0362C92.0362 56.9704 91.9196 57.1413 91.6845 57.2296L92.1062 58.3531ZM90.2031 57.8775C90.6932 58.4353 91.4324 58.6243 92.1193 58.348L91.6714 57.2347C91.4735 57.3143 91.2705 57.2743 91.1045 57.0854L90.2031 57.8775ZM68.3738 39.7329C69.8925 40.3708 71.5121 40.6922 73.2032 40.6922V39.4922C71.6671 39.4922 70.2059 39.2009 68.8385 38.6266L68.3738 39.7329ZM71.3936 35.1977L68.1608 38.7776L69.0514 39.5819L72.2842 36.0019L71.3936 35.1977ZM72.6103 35.1007C72.3878 35.0815 72.1676 35.0513 71.9502 35.0102L71.7275 36.1894C71.9846 36.2379 72.2447 36.2736 72.5069 36.2963L72.6103 35.1007ZM74.5697 39.8788L73.1284 35.5105L71.9888 35.8865L73.4302 40.2548L74.5697 39.8788ZM73.2032 40.6922C73.484 40.6922 73.7628 40.6833 74.0384 40.6656L73.9615 39.468C73.7116 39.4841 73.4586 39.4922 73.2032 39.4922V40.6922ZM66.4451 29.4043C66.3829 29.0379 66.351 28.6525 66.351 28.2528H65.151C65.151 28.7161 65.188 29.1688 65.262 29.605L66.4451 29.4043ZM62.9115 33.6697L66.2995 29.9061L65.4076 29.1032L62.0197 32.8669L62.9115 33.6697ZM60.763 28.2526C60.763 30.0879 61.1598 31.8828 61.9215 33.5212L63.0097 33.0154C62.3222 31.5366 61.963 29.9146 61.963 28.2526H60.763ZM70.1234 16.2101C64.7015 17.6042 60.763 22.556 60.763 28.2526H61.963C61.963 23.1126 65.5221 18.6323 70.4222 17.3723L70.1234 16.2101ZM70.8728 21.4071V16.7912H69.6728V21.4071H70.8728ZM66.351 28.2528C66.351 25.5122 68.0266 23.0233 70.5093 21.9585L70.0363 20.8557C67.1188 22.1069 65.151 25.0255 65.151 28.2528H66.351ZM33.9756 7.79842C33.7872 6.864 32.8781 6.2627 31.9449 6.44848L32.1792 7.62539C32.4669 7.5681 32.7423 7.75315 32.7992 8.03555L33.9756 7.79842ZM32.626 9.82992C33.5595 9.64139 34.1643 8.73221 33.9755 7.79814L32.7993 8.03583C32.8566 8.31931 32.6732 8.59615 32.3884 8.65366L32.626 9.82992ZM19.298 14.2115C23.1753 12.3086 27.658 10.8326 32.6259 9.82993L32.3885 8.65365C27.336 9.67341 22.7529 11.1792 18.7694 13.1342L19.298 14.2115ZM18.4256 14.654C18.7264 14.5287 19.0189 14.3789 19.3394 14.1891L18.728 13.1565C18.4462 13.3234 18.204 13.4464 17.9641 13.5463L18.4256 14.654ZM17.7623 14.7874C17.9839 14.7874 18.2094 14.7447 18.427 14.6534L17.9627 13.5469C17.8963 13.5747 17.8291 13.5874 17.7623 13.5874V14.7874ZM16.1697 13.726C16.4463 14.3895 17.0883 14.7874 17.7623 14.7874V13.5874C17.5553 13.5874 17.3609 13.4649 17.2772 13.2642L16.1697 13.726ZM17.0979 11.47C16.2194 11.8369 15.8034 12.8461 16.1695 13.7256L17.2774 13.2645C17.1659 12.9967 17.2925 12.6892 17.5603 12.5774L17.0979 11.47ZM17.6095 11.2042C17.4046 11.3271 17.2443 11.4092 17.0989 11.4696L17.5593 12.5778C17.7738 12.4886 17.9876 12.3767 18.2265 12.2334L17.6095 11.2042ZM17.7346 11.136C17.6959 11.1551 17.651 11.1788 17.6045 11.2072L18.2315 12.2305C18.2377 12.2266 18.2485 12.2206 18.2655 12.2122L17.7346 11.136ZM31.9434 6.44879C26.6834 7.51003 21.9018 9.0855 17.7351 11.1358L18.2649 12.2125C22.3254 10.2145 27.0063 8.66906 32.1807 7.62508L31.9434 6.44879ZM26.9391 13.6294C27.2163 13.5431 27.5094 13.6971 27.5958 13.9752L28.7417 13.6191C28.4593 12.71 27.4947 12.1994 26.5821 12.4838L26.9391 13.6294ZM20.2736 16.2757C22.3494 15.2484 24.5862 14.3609 26.9388 13.6296L26.5825 12.4837C24.1736 13.2326 21.8775 14.143 19.7413 15.2002L20.2736 16.2757ZM17.4767 17.8781C18.5679 17.1733 19.5972 16.6252 20.2829 16.271L19.7321 15.2049C19.0335 15.5658 17.9647 16.1343 16.8256 16.8701L17.4767 17.8781ZM17.321 18.6038C17.1633 18.3597 17.2337 18.0349 17.4765 17.8783L16.8259 16.8699C16.0248 17.3868 15.7964 18.4551 16.313 19.2549L17.321 18.6038ZM17.7629 18.8439C17.5884 18.8439 17.4207 18.7584 17.3212 18.6041L16.3128 19.2546C16.643 19.7664 17.1989 20.0439 17.7629 20.0439V18.8439ZM18.0464 18.7597C17.9578 18.817 17.8598 18.8439 17.7629 18.8439V20.0439C18.0843 20.0439 18.4097 19.9538 18.6981 19.7674L18.0464 18.7597ZM20.7472 17.2124C20.1076 17.5425 19.1032 18.0766 18.0465 18.7596L18.698 19.7674C19.7064 19.1156 20.671 18.6021 21.2976 18.2787L20.7472 17.2124ZM27.2505 14.6322C24.9542 15.3451 22.7694 16.2116 20.7563 17.2078L21.2885 18.2833C23.2409 17.3172 25.3664 16.4737 27.6063 15.7783L27.2505 14.6322ZM27.5957 13.9749C27.6817 14.2521 27.5268 14.5463 27.2503 14.6323L27.6066 15.7782C28.5164 15.4953 29.0239 14.5285 28.7418 13.6193L27.5957 13.9749ZM26.5077 17.2758L26.4999 17.2785L26.9011 18.4095L26.9088 18.4068L26.5077 17.2758ZM28.7147 18.3222C28.3943 17.4219 27.4023 16.9579 26.5074 17.2759L26.9091 18.4066C27.185 18.3086 27.4877 18.4536 27.5841 18.7245L28.7147 18.3222ZM27.6713 20.5234C28.5722 20.2034 29.0326 19.2175 28.7148 18.3226L27.584 18.7241C27.6822 19.0008 27.5399 19.2966 27.2696 19.3926L27.6713 20.5234ZM27.6704 20.5238L27.6799 20.5203L27.261 19.3957L27.2516 19.3993L27.6704 20.5238ZM25.7311 21.2601C26.3391 20.9964 26.9696 20.7724 27.6616 20.527L27.2604 19.396C26.5756 19.639 25.9058 19.8763 25.2536 20.1592L25.7311 21.2601ZM18.914 25.1706C19.7685 24.4035 21.0857 23.5798 22.4046 22.8621C23.7156 22.1486 24.986 21.5625 25.7179 21.2656L25.2668 20.1536C24.4893 20.469 23.1781 21.075 21.831 21.8081C20.4916 22.5369 19.0741 23.4143 18.1124 24.2777L18.914 25.1706ZM17.7619 25.6123C18.1718 25.6123 18.5852 25.4664 18.9145 25.1702L18.1119 24.2781C18.0118 24.3681 17.8876 24.4123 17.7619 24.4123V25.6123ZM16.4781 25.0398C16.8187 25.4192 17.2906 25.6123 17.7619 25.6123V24.4123C17.6168 24.4123 17.4745 24.3534 17.371 24.2381L16.4781 25.0398ZM16.6087 22.6042C15.9007 23.2402 15.8417 24.3306 16.478 25.0397L17.3711 24.2383C17.1772 24.0222 17.1955 23.6902 17.4107 23.4969L16.6087 22.6042ZM24.3964 18.079C23.7381 18.3461 22.3657 18.9652 20.8785 19.7674C19.3984 20.5658 17.7637 21.5673 16.6089 22.604L17.4105 23.497C18.4575 22.5571 19.9914 21.6094 21.4482 20.8235C22.8981 20.0414 24.2309 19.4411 24.8475 19.191L24.3964 18.079ZM26.4997 17.2786C25.8121 17.5227 25.0782 17.783 24.3831 18.0846L24.8608 19.1855C25.5118 18.903 26.2064 18.6561 26.9011 18.4095L26.4997 17.2786ZM26.5008 17.2782L26.5007 17.2783L26.9001 18.4099L26.9002 18.4098L26.5008 17.2782ZM74.6854 15.0269C74.7968 14.9296 74.9485 14.8831 75.1063 14.9038L75.2621 13.7139C74.7738 13.65 74.275 13.792 73.8958 14.1233L74.6854 15.0269ZM74.5043 15.4234C74.5043 15.2712 74.5699 15.1273 74.6843 15.0279L73.8969 14.1223C73.52 14.45 73.3043 14.9244 73.3043 15.4234H74.5043ZM74.5043 22.1946V15.4234H73.3043V22.1946H74.5043ZM74.8769 22.6966C74.6553 22.6294 74.5043 22.4255 74.5043 22.1946H73.3043C73.3043 22.9545 73.8016 23.6242 74.5282 23.8449L74.8769 22.6966ZM78.5174 25.8661C77.8163 24.3411 76.4894 23.1865 74.8769 22.6967L74.5281 23.8448C75.8142 24.2356 76.8701 25.1558 77.4271 26.3673L78.5174 25.8661ZM78.994 26.1718C78.7912 26.1718 78.6038 26.0541 78.5174 25.866L77.4271 26.3673C77.7114 26.9856 78.3274 27.3718 78.994 27.3718V26.1718ZM79.0697 26.1666C79.039 26.1704 79.0144 26.1718 78.994 26.1718V27.3718C79.0717 27.3718 79.1457 27.3663 79.2152 27.3578L79.0697 26.1666ZM85.7682 25.2762L79.0634 26.1674L79.2215 27.357L85.9263 26.4658L85.7682 25.2762ZM86.1374 25.0449C86.0543 25.1713 85.9195 25.2561 85.768 25.2763L85.9264 26.4658C86.4217 26.3998 86.8651 26.1224 87.1401 25.7041L86.1374 25.0449ZM86.2043 24.6134C86.2454 24.7595 86.2212 24.9171 86.1371 25.0454L87.1404 25.7036C87.4144 25.286 87.4949 24.7697 87.3594 24.2883L86.2043 24.6134ZM75.1015 14.9031C80.3896 15.6386 84.7484 19.4489 86.2043 24.6136L87.3593 24.288C85.7748 18.6673 81.0296 14.5161 75.2669 13.7146L75.1015 14.9031ZM75.9166 21.9616C77.2443 22.5342 78.3606 23.5071 79.1061 24.7398L80.1329 24.1188C79.2578 22.6718 77.9484 21.531 76.3919 20.8597L75.9166 21.9616ZM75.5542 16.7883V21.4106H76.7542V16.7883H75.5542ZM84.7482 23.5965C83.2638 19.9271 80.1234 17.1783 76.3021 16.2068L76.0064 17.3698C79.4555 18.2467 82.2938 20.7293 83.6357 24.0465L84.7482 23.5965ZM79.6986 25.0241L84.271 24.4162L84.1129 23.2267L79.5404 23.8345L79.6986 25.0241ZM85.934 26.6333L79.2293 27.5463L79.3912 28.7354L86.0959 27.8223L85.934 26.6333ZM87.3042 27.0456C86.929 26.7164 86.4287 26.5655 85.9336 26.6333L86.0964 27.8222C86.2462 27.8017 86.3986 27.8475 86.5129 27.9477L87.3042 27.0456ZM87.8917 28.3491C87.8931 27.8508 87.68 27.3752 87.3042 27.0456L86.5129 27.9477C86.6266 28.0474 86.6922 28.1923 86.6917 28.3456L87.8917 28.3491ZM79.7119 41.4277C84.7315 38.9576 87.8669 33.944 87.8917 28.35L86.6917 28.3447C86.669 33.4834 83.7931 38.082 79.1821 40.3511L79.7119 41.4277ZM78.9499 41.6054C79.2115 41.6054 79.4722 41.5458 79.712 41.4277L79.182 40.3511C79.1082 40.3874 79.029 40.4054 78.9499 40.4054V41.6054ZM78.2833 41.4712C78.4952 41.5596 78.7217 41.6054 78.9499 41.6054V40.4054C78.8824 40.4054 78.8127 40.3918 78.7452 40.3636L78.2833 41.4712ZM77.3119 40.4208C77.4684 40.8947 77.8218 41.2771 78.2816 41.4705L78.7468 40.3643C78.6066 40.3054 78.4991 40.189 78.4515 40.0447L77.3119 40.4208ZM75.1957 34.0054L77.3119 40.4207L78.4515 40.0448L76.3353 33.6295L75.1957 34.0054ZM75.8356 32.0588C75.2181 32.4971 74.959 33.2866 75.1957 34.0052L76.3354 33.6298C76.2634 33.4109 76.3423 33.1707 76.5301 33.0374L75.8356 32.0588ZM77.7574 28.993C77.5682 30.2217 76.8907 31.3102 75.8356 32.0588L76.53 33.0375C77.8415 32.1069 78.7032 30.7354 78.9434 29.1757L77.7574 28.993ZM79.2293 27.5463C78.4721 27.6494 77.8735 28.2389 77.7574 28.9931L78.9434 29.1756C78.9787 28.9461 79.1612 28.7667 79.3911 28.7354L79.2293 27.5463ZM80.1611 38.0446L78.7178 33.669L77.5782 34.045L79.0215 38.4205L80.1611 38.0446ZM84.3693 29.5735C83.9879 32.9359 82.1259 35.9118 79.2696 37.7261L79.913 38.739C83.0755 36.7303 85.1393 33.4318 85.5617 29.7088L84.3693 29.5735ZM80.4768 30.858L85.0465 30.2357L84.8845 29.0467L80.3149 29.669L80.4768 30.858ZM78.5458 34.3061C79.7246 33.2618 80.563 31.9231 80.9745 30.4221L79.8172 30.1049C79.4683 31.3775 78.7574 32.5155 77.7501 33.4079L78.5458 34.3061ZM48.5006 34.9453C53.1262 34.9453 56.8856 31.1725 56.8856 26.5379H55.6856C55.6856 30.513 52.4602 33.7453 48.5006 33.7453V34.9453ZM40.0934 26.5379C40.0934 31.1741 43.8642 34.9453 48.5006 34.9453V33.7453C44.527 33.7453 41.2934 30.5114 41.2934 26.5379H40.0934ZM48.5006 18.1527C43.8658 18.1527 40.0934 21.9123 40.0934 26.5379H41.2934C41.2934 22.5782 44.5253 19.3527 48.5006 19.3527V18.1527ZM56.8856 26.5379C56.8856 21.9139 53.1246 18.1527 48.5006 18.1527V19.3527C52.4618 19.3527 55.6856 22.5766 55.6856 26.5379H56.8856ZM48.5006 21.6028C51.2213 21.6028 53.4357 23.817 53.4357 26.5379H54.6357C54.6357 23.1542 51.884 20.4028 48.5006 20.4028V21.6028ZM43.5435 26.5379C43.5435 23.8192 45.7649 21.6028 48.5006 21.6028V20.4028C45.1066 20.4028 42.3435 23.152 42.3435 26.5379H43.5435ZM48.5006 31.4952C45.7672 31.4952 43.5435 29.2709 43.5435 26.5379H42.3435C42.3435 29.9335 45.1043 32.6952 48.5006 32.6952V31.4952ZM53.4357 26.5379C53.4357 29.2732 51.219 31.4952 48.5006 31.4952V32.6952C51.8863 32.6952 54.6357 29.9315 54.6357 26.5379H53.4357Z" fill="white"/>
</svg>
