<svg width="108" height="97" viewBox="0 0 108 97" fill="none" xmlns="http://www.w3.org/2000/svg">
<path d="M13.6016 54.4461C13.6016 31.8494 31.9195 13.5315 54.5162 13.5315C77.1129 13.5315 95.4308 31.8494 95.4308 54.4461C95.4308 77.0428 77.1129 95.3607 54.5162 95.3607C31.9195 95.3607 13.6016 77.0428 13.6016 54.4461ZM86.238 54.4461C86.238 36.9268 72.0355 22.7244 54.5162 22.7244C36.9969 22.7244 22.7944 36.9268 22.7944 54.4461C22.7944 71.9655 36.9969 86.1679 54.5162 86.1679C72.0355 86.1679 86.238 71.9655 86.238 54.4461Z" fill="#E2E8E9"/>
<path d="M13.7988 54.4462C13.7988 49.099 14.852 43.8041 16.8981 38.864C18.9446 33.924 21.944 29.4352 25.7247 25.6541C29.5057 21.8733 33.9945 18.874 38.9346 16.8278C43.8746 14.7815 49.1695 13.7283 54.5168 13.7283C59.864 13.7283 65.1589 14.7815 70.0989 16.8278C75.039 18.874 79.5278 21.8733 83.3088 25.6541C87.0895 29.4352 90.0889 33.924 92.1354 38.864C94.1815 43.8041 95.2347 49.099 95.2347 54.4462C95.2347 59.7934 94.1815 65.0883 92.1354 70.0284C90.0889 74.9684 87.0895 79.4572 83.3088 83.2383C79.5278 87.019 75.039 90.0183 70.0989 92.0648C65.1589 94.111 59.864 95.1641 54.5168 95.1641C49.1695 95.1641 43.8746 94.111 38.9346 92.0648C33.9945 90.0183 29.5057 87.019 25.7247 83.2383C21.944 79.4572 18.9446 74.9684 16.8981 70.0284C14.852 65.0883 13.7988 59.7934 13.7988 54.4462Z" stroke="#121C27" stroke-linecap="square"/>
<path d="M16.8219 96.146C25.888 96.146 33.2376 88.7965 33.2376 79.7304C33.2376 70.6642 25.888 63.3147 16.8219 63.3147C7.75579 63.3147 0.40625 70.6642 0.40625 79.7304C0.40625 88.7965 7.75579 96.146 16.8219 96.146Z" fill="#C6D2D5"/>
<path d="M19.7893 92.9821C28.7467 92.9821 36.0082 85.7206 36.0082 76.7631C36.0082 67.8057 28.7467 60.5442 19.7893 60.5442C10.8318 60.5442 3.57031 67.8057 3.57031 76.7631C3.57031 85.7206 10.8318 92.9821 19.7893 92.9821Z" fill="#FAD59F" stroke="#121C27"/>
<path d="M15.3879 77.5023C15.5159 77.3313 15.6438 77.1603 15.6864 76.9893H16.7525C16.7951 77.716 17.0936 78.4 17.648 78.913L16.2834 81.0076C16.1555 80.9649 15.9849 80.9221 15.8144 80.9221C15.3027 80.9221 14.791 81.1786 14.5351 81.6061C14.066 82.3328 14.2793 83.2733 14.9615 83.7435C15.2174 83.9145 15.5159 84 15.8144 84C16.3261 84 16.8378 83.7435 17.0936 83.316C17.4774 82.7176 17.3921 81.9908 16.9657 81.4779L18.3302 79.3832C18.714 79.5542 19.1404 79.6824 19.5669 79.6824C19.9933 79.6824 20.4197 79.597 20.8035 79.3832L21.5284 80.4947C21.0593 81.0504 21.102 81.9053 21.6563 82.4183C22.2107 82.9313 23.1061 82.8885 23.6178 82.3328C24.1295 81.7771 24.0869 80.8794 23.5326 80.3664C23.1914 80.0672 22.7224 79.9389 22.2533 80.0672L21.4857 78.913C21.6563 78.7847 21.7842 78.6137 21.9122 78.4C22.1254 78.058 22.2533 77.716 22.3386 77.3741L24.9824 77.2886C25.0677 77.6305 25.2809 77.9298 25.622 78.1008C26.3469 78.571 27.285 78.3573 27.7541 77.6733C27.9673 77.3313 28.0526 76.9038 27.9673 76.5191C27.882 76.1344 27.6262 75.7496 27.285 75.5359C26.5601 75.0657 25.622 75.2794 25.153 75.9634C25.0677 76.0916 24.9824 76.2626 24.9397 76.4336L22.3386 76.5191C22.2533 75.8779 21.9548 75.3221 21.5284 74.8519L22.5944 73.3557C22.7224 73.3985 22.8503 73.3985 22.9782 73.3985C23.4473 73.3985 23.8737 73.1847 24.1295 72.7573C24.556 72.116 24.3854 71.2611 23.7458 70.8336C23.1061 70.4061 22.2533 70.5771 21.8269 71.2183C21.5284 71.6886 21.5284 72.3298 21.9122 72.8428L20.8461 74.3389C20.4623 74.1252 20.0359 74.0397 19.5669 74.0397C19.2684 74.0397 18.9699 74.0825 18.714 74.168L17.7759 71.8168C17.9465 71.6886 18.0744 71.5603 18.2023 71.3893C18.6714 70.6626 18.4582 69.7222 17.7759 69.2519C17.051 68.7817 16.1129 68.9954 15.6438 69.6794C15.1747 70.4061 15.3879 71.3466 16.0702 71.8168C16.3261 71.9878 16.6246 72.0733 16.9657 72.0733L17.9465 74.5527C17.4348 74.9374 17.051 75.4504 16.8804 76.0916H15.7291C15.6438 75.8779 15.5159 75.6641 15.3453 75.4931C14.791 74.9802 13.8955 75.0229 13.3838 75.5786C13.1279 75.8351 13 76.2199 13 76.5618C13 76.9466 13.1706 77.2886 13.4264 77.545C13.9808 78.1008 14.8762 78.058 15.3879 77.5023ZM16.3261 70.1924C16.5393 69.8931 16.9657 69.7649 17.3068 69.9786C17.6053 70.1924 17.7333 70.6199 17.52 70.9191C17.3068 71.2183 16.8804 71.3038 16.5819 71.1328C16.1981 70.9191 16.1129 70.4916 16.3261 70.1924ZM16.3687 82.8886C16.1555 83.1878 15.7291 83.2733 15.3879 83.1023C15.0895 82.8886 14.9615 82.4611 15.1747 82.1618C15.3027 81.9481 15.5159 81.8626 15.7717 81.8626C15.8997 81.8626 16.0276 81.9053 16.1555 81.9908C16.4966 82.1618 16.5819 82.5893 16.3687 82.8886ZM22.9356 81.0076C23.1488 81.2214 23.1488 81.5634 22.9782 81.7771C22.765 81.9908 22.4239 81.9908 22.2107 81.8199C21.9974 81.6061 21.9974 81.2641 22.168 81.0504C22.3812 80.8366 22.7224 80.7939 22.9356 81.0076ZM25.8352 76.4336C26.0484 76.1344 26.4749 76.0061 26.7733 76.2199C26.9439 76.3054 27.0292 76.4763 27.0718 76.6473C27.1145 76.8183 27.0718 77.0321 26.9866 77.1603C26.7733 77.4596 26.3469 77.545 26.0484 77.3741C25.7073 77.2031 25.622 76.7756 25.8352 76.4336ZM22.5518 71.7313C22.7224 71.4748 23.0635 71.4321 23.2767 71.5603C23.5326 71.7313 23.5752 72.0733 23.4473 72.287C23.2767 72.5435 22.9356 72.5863 22.7224 72.458C22.4239 72.3298 22.3812 71.9878 22.5518 71.7313ZM19.5669 74.9374C19.9506 74.9374 20.3344 75.0657 20.6329 75.2794C22.2107 76.3481 21.5284 78.8702 19.5669 78.8702C19.1831 78.8702 18.7993 78.742 18.5008 78.5283C16.8378 77.4596 17.6053 74.9374 19.5669 74.9374ZM13.9808 76.1771C14.194 75.9634 14.5351 75.9634 14.7483 76.1344C14.9615 76.3481 14.9615 76.6901 14.791 76.9038C14.5778 77.1176 14.2366 77.1176 14.0234 76.9466C13.8102 76.7756 13.7676 76.4336 13.9808 76.1771Z" fill="#121C27"/>
<path d="M88.0289 96.146C97.0951 96.146 104.445 88.7965 104.445 79.7304C104.445 70.6642 97.0951 63.3147 88.0289 63.3147C78.9628 63.3147 71.6133 70.6642 71.6133 79.7304C71.6133 88.7965 78.9628 96.146 88.0289 96.146Z" fill="#C6D2D5"/>
<path d="M90.7814 92.9821C99.7389 92.9821 107 85.7206 107 76.7631C107 67.8057 99.7389 60.5442 90.7814 60.5442C81.824 60.5442 74.5625 67.8057 74.5625 76.7631C74.5625 85.7206 81.824 92.9821 90.7814 92.9821Z" fill="#E2E8E9" stroke="#121C27"/>
<path d="M89.3511 84.4318C89.3693 84.4397 89.3881 84.446 89.4079 84.4499C89.5492 84.4778 89.6998 84.4914 89.8583 84.4914C90.9109 84.4914 92.2913 83.8748 93.2406 82.5467C93.9293 81.5832 94.6341 79.5386 94.5851 78.03C94.582 77.9323 94.5403 77.8403 94.4704 77.7784C94.4006 77.7165 94.3104 77.6899 94.2212 77.7058C93.2302 77.8835 90.8603 78.6886 89.8625 80.0422C89.7546 80.1887 89.6566 80.3375 89.5685 80.4891C89.1837 79.9065 88.6973 79.4193 88.3408 79.1701C88.2631 79.1156 88.1672 79.1014 88.0791 79.1315C87.9909 79.161 87.919 79.232 87.8836 79.3245C87.6005 80.0558 87.2747 81.5468 87.4743 82.4229C87.7313 83.5517 88.6165 84.2478 89.3511 84.4318ZM90.3504 80.4692C91.0683 79.4954 92.7918 78.7471 93.9538 78.4581C93.8782 79.7498 93.2969 81.3595 92.7475 82.1277C91.917 83.2894 90.732 83.8225 89.851 83.8117C90.2264 82.2918 91.0443 81.2266 92.345 80.564C92.5014 80.4845 92.5692 80.2812 92.4957 80.1109C92.4222 79.9406 92.2366 79.8668 92.0797 79.9468C90.9494 80.5226 90.1237 81.3969 89.6122 82.5547C89.6461 81.7762 89.8891 81.0949 90.3504 80.4692ZM88.3199 80.007C88.6374 80.3057 88.9945 80.7377 89.2411 81.1857C88.9783 81.9051 88.9142 82.6898 89.0419 83.5738C88.6452 83.3359 88.2281 82.9033 88.0811 82.2588C87.9623 81.7359 88.1004 80.7576 88.3199 80.007ZM86.2033 86H95.7967C96.5896 86 97.2777 85.5742 97.6833 84.8321C98.0894 84.09 98.1056 83.2286 97.7281 82.4689L93.8229 74.613V70.8486H94.5132C94.6857 70.8486 94.826 70.6959 94.826 70.5079V68.3407C94.826 68.1527 94.6857 68 94.5132 68H87.4868C87.3143 68 87.174 68.1527 87.174 68.3407V70.5079C87.174 70.6959 87.3143 70.8486 87.4868 70.8486H88.1771V74.613L84.2719 82.4689C83.8944 83.2286 83.9106 84.09 84.3167 84.8321C84.7223 85.5742 85.4104 86 86.2033 86ZM87.7996 68.6813H94.2009V70.1672H87.7996V68.6813ZM84.8218 82.7931L88.7646 74.8611C88.7891 74.8112 88.8021 74.7555 88.8021 74.6988V70.848H93.1968V74.6988C93.1968 74.7555 93.2099 74.8112 93.2344 74.8611L97.1771 82.7931C97.4513 83.3445 97.4399 83.9446 97.1453 84.4834C96.8508 85.0223 96.3717 85.3187 95.7961 85.3187H86.2033C85.6278 85.3187 85.1487 85.0223 84.8542 84.4834C84.5596 83.9446 84.5482 83.3445 84.8218 82.7931Z" fill="#121C27" stroke="#121C27" stroke-width="0.2"/>
<path d="M52.6227 36.7407C61.6888 36.7407 69.0383 29.3912 69.0383 20.3251C69.0383 11.259 61.6888 3.90942 52.6227 3.90942C43.5566 3.90942 36.207 11.259 36.207 20.3251C36.207 29.3912 43.5566 36.7407 52.6227 36.7407Z" fill="#C6D2D5"/>
<path d="M55.1955 33.5771C64.153 33.5771 71.4145 26.3156 71.4145 17.3581C71.4145 8.40063 64.153 1.13916 55.1955 1.13916C46.238 1.13916 38.9766 8.40063 38.9766 17.3581C38.9766 26.3156 46.238 33.5771 55.1955 33.5771Z" fill="#FAD59F" stroke="#121C27"/>
<path fill-rule="evenodd" clip-rule="evenodd" d="M54.1836 22.1838C54.1836 22.6342 54.5485 22.9991 54.9988 22.9991C55.4492 22.9991 55.8141 22.6342 55.8141 22.1838V17.8148H60.1838C60.6342 17.8148 60.9991 17.4499 60.9991 16.9996C60.9991 16.5492 60.6342 16.1843 60.1838 16.1843H55.8141V11.8152C55.8141 11.3649 55.4492 11 54.9988 11C54.5485 11 54.1836 11.3649 54.1836 11.8152V16.1843H49.8152C49.3649 16.1843 49 16.5492 49 16.9996C49 17.4499 49.3649 17.8148 49.8152 17.8148H54.1836V22.1838Z" fill="#121C27"/>
<path d="M55.8141 17.8148V17.4148H55.4141V17.8148H55.8141ZM55.8141 16.1843H55.4141V16.5843H55.8141V16.1843ZM54.1836 16.1843V16.5843H54.5836V16.1843H54.1836ZM54.1836 17.8148H54.5836V17.4148H54.1836V17.8148ZM54.9988 22.5991C54.7694 22.5991 54.5836 22.4133 54.5836 22.1838H53.7836C53.7836 22.8551 54.3276 23.3991 54.9988 23.3991V22.5991ZM55.4141 22.1838C55.4141 22.4133 55.2283 22.5991 54.9988 22.5991V23.3991C55.6701 23.3991 56.2141 22.8551 56.2141 22.1838H55.4141ZM55.4141 17.8148V22.1838H56.2141V17.8148H55.4141ZM60.1838 17.4148H55.8141V18.2148H60.1838V17.4148ZM60.5991 16.9996C60.5991 17.229 60.4133 17.4148 60.1838 17.4148V18.2148C60.8551 18.2148 61.3991 17.6708 61.3991 16.9996H60.5991ZM60.1838 16.5843C60.4133 16.5843 60.5991 16.7701 60.5991 16.9996H61.3991C61.3991 16.3283 60.8551 15.7843 60.1838 15.7843V16.5843ZM55.8141 16.5843H60.1838V15.7843H55.8141V16.5843ZM55.4141 11.8152V16.1843H56.2141V11.8152H55.4141ZM54.9988 11.4C55.2283 11.4 55.4141 11.5858 55.4141 11.8152H56.2141C56.2141 11.144 55.6701 10.6 54.9988 10.6V11.4ZM54.5836 11.8152C54.5836 11.5858 54.7694 11.4 54.9988 11.4V10.6C54.3276 10.6 53.7836 11.144 53.7836 11.8152H54.5836ZM54.5836 16.1843V11.8152H53.7836V16.1843H54.5836ZM49.8152 16.5843H54.1836V15.7843H49.8152V16.5843ZM49.4 16.9996C49.4 16.7701 49.5858 16.5843 49.8152 16.5843V15.7843C49.144 15.7843 48.6 16.3283 48.6 16.9996H49.4ZM49.8152 17.4148C49.5858 17.4148 49.4 17.229 49.4 16.9996H48.6C48.6 17.6708 49.144 18.2148 49.8152 18.2148V17.4148ZM54.1836 17.4148H49.8152V18.2148H54.1836V17.4148ZM54.5836 22.1838V17.8148H53.7836V22.1838H54.5836Z" fill="#FAD59F"/>
</svg>
