<svg width="19" height="19" viewBox="0 0 19 19" fill="none" xmlns="http://www.w3.org/2000/svg">
<path fill-rule="evenodd" clip-rule="evenodd" d="M16.3176 7.53683C16.4368 8.06117 16.5 8.60658 16.5 9.16667C16.5 13.2138 13.2138 16.5 9.16667 16.5C5.11958 16.5 1.83333 13.2138 1.83333 9.16667C1.83333 5.11958 5.11958 1.83333 9.16667 1.83333C10.0128 1.83333 10.8249 1.97633 11.5812 2.24033C12.0588 2.40717 12.5813 2.15508 12.7481 1.6775C12.9149 1.199 12.6628 0.6765 12.1853 0.509667C11.2393 0.179667 10.2236 0 9.16667 0C4.10758 0 0 4.10758 0 9.16667C0 14.2258 4.10758 18.3333 9.16667 18.3333C14.2258 18.3333 18.3333 14.2258 18.3333 9.16667C18.3333 8.46725 18.2545 7.78525 18.106 7.12983C17.9933 6.63667 17.5019 6.32775 17.0088 6.43958C16.5156 6.55142 16.2058 7.04275 16.3176 7.53683ZM8.25 9.70384L15.8519 2.10192C16.2094 1.74442 16.7906 1.74442 17.1481 2.10192C17.5056 2.45942 17.5056 3.04058 17.1481 3.39808L8.89808 11.6481C8.54058 12.0065 7.95942 12.0065 7.60192 11.6481L4.85192 8.89808C4.49442 8.54058 4.49442 7.95942 4.85192 7.60192C5.20942 7.24442 5.79058 7.24442 6.14808 7.60192L8.25 9.70384Z" fill="#0DF888"/>
</svg>
