<svg width="36" height="36" viewBox="0 0 36 36" fill="none" xmlns="http://www.w3.org/2000/svg">
<path fill-rule="evenodd" clip-rule="evenodd" d="M32.0418 14.7996C32.2758 15.8292 32.4 16.9002 32.4 18C32.4 25.947 25.947 32.4 18 32.4C10.053 32.4 3.6 25.947 3.6 18C3.6 10.053 10.053 3.6 18 3.6C19.6614 3.6 21.2562 3.8808 22.7412 4.3992C23.679 4.7268 24.705 4.2318 25.0326 3.294C25.3602 2.3544 24.8652 1.3284 23.9274 1.0008C22.0698 0.3528 20.0754 0 18 0C8.0658 0 0 8.0658 0 18C0 27.9342 8.0658 36 18 36C27.9342 36 36 27.9342 36 18C36 16.6266 35.8452 15.2874 35.5536 14.0004C35.3322 13.032 34.3674 12.4254 33.399 12.645C32.4306 12.8646 31.8222 13.8294 32.0418 14.7996ZM16.2 19.0548L31.1274 4.1274C31.8294 3.4254 32.9706 3.4254 33.6726 4.1274C34.3746 4.8294 34.3746 5.9706 33.6726 6.6726L17.4726 22.8726C16.7706 23.5764 15.6294 23.5764 14.9274 22.8726L9.5274 17.4726C8.8254 16.7706 8.8254 15.6294 9.5274 14.9274C10.2294 14.2254 11.3706 14.2254 12.0726 14.9274L16.2 19.0548Z" fill="#0DF888"/>
</svg>
