<svg width="117" height="37" viewBox="0 0 117 37" fill="none" xmlns="http://www.w3.org/2000/svg">
<path d="M44.57 30.7907C42.89 30.7907 41.42 30.4107 40.16 29.6507C38.9 28.8907 37.92 27.8607 37.22 26.5607C36.52 25.2607 36.17 23.8207 36.17 22.2407C36.17 20.6007 36.52 19.1507 37.22 17.8907C37.94 16.6107 38.91 15.6007 40.13 14.8607C41.37 14.1207 42.75 13.7507 44.27 13.7507C45.55 13.7507 46.67 13.9607 47.63 14.3807C48.61 14.8007 49.44 15.3807 50.12 16.1207C50.8 16.8607 51.32 17.7107 51.68 18.6707C52.04 19.6107 52.22 20.6307 52.22 21.7307C52.22 22.0107 52.2 22.3007 52.16 22.6007C52.14 22.9007 52.09 23.1607 52.01 23.3807H39.41V20.3807H49.79L47.93 21.7907C48.11 20.8707 48.06 20.0507 47.78 19.3307C47.52 18.6107 47.08 18.0407 46.46 17.6207C45.86 17.2007 45.13 16.9907 44.27 16.9907C43.45 16.9907 42.72 17.2007 42.08 17.6207C41.44 18.0207 40.95 18.6207 40.61 19.4207C40.29 20.2007 40.17 21.1507 40.25 22.2707C40.17 23.2707 40.3 24.1607 40.64 24.9407C41 25.7007 41.52 26.2907 42.2 26.7107C42.9 27.1307 43.7 27.3407 44.6 27.3407C45.5 27.3407 46.26 27.1507 46.88 26.7707C47.52 26.3907 48.02 25.8807 48.38 25.2407L51.56 26.8007C51.24 27.5807 50.74 28.2707 50.06 28.8707C49.38 29.4707 48.57 29.9407 47.63 30.2807C46.71 30.6207 45.69 30.7907 44.57 30.7907ZM55.8591 30.4307V26.2307H59.8191V30.4307H55.8591ZM69.057 30.4307L62.637 14.1107H66.927L71.577 26.9507H69.987L74.667 14.1107H78.957L72.537 30.4307H69.057ZM79.9292 30.4307V14.1107H83.8592V30.4307H79.9292ZM79.9292 12.2807V8.08066H83.8592V12.2807H79.9292ZM92.4978 30.7907C90.7578 30.7907 89.2378 30.3807 87.9378 29.5607C86.6578 28.7207 85.7778 27.5907 85.2978 26.1707L88.2378 24.7607C88.6578 25.6807 89.2378 26.4007 89.9778 26.9207C90.7378 27.4407 91.5778 27.7007 92.4978 27.7007C93.2178 27.7007 93.7878 27.5407 94.2078 27.2207C94.6278 26.9007 94.8378 26.4807 94.8378 25.9607C94.8378 25.6407 94.7478 25.3807 94.5678 25.1807C94.4078 24.9607 94.1778 24.7807 93.8778 24.6407C93.5978 24.4807 93.2878 24.3507 92.9478 24.2507L90.2778 23.5007C88.8978 23.1007 87.8478 22.4907 87.1278 21.6707C86.4278 20.8507 86.0778 19.8807 86.0778 18.7607C86.0778 17.7607 86.3278 16.8907 86.8278 16.1507C87.3478 15.3907 88.0578 14.8007 88.9578 14.3807C89.8778 13.9607 90.9278 13.7507 92.1078 13.7507C93.6478 13.7507 95.0078 14.1207 96.1878 14.8607C97.3678 15.6007 98.2078 16.6407 98.7078 17.9807L95.7078 19.3907C95.4278 18.6507 94.9578 18.0607 94.2978 17.6207C93.6378 17.1807 92.8978 16.9607 92.0778 16.9607C91.4178 16.9607 90.8978 17.1107 90.5178 17.4107C90.1378 17.7107 89.9478 18.1007 89.9478 18.5807C89.9478 18.8807 90.0278 19.1407 90.1878 19.3607C90.3478 19.5807 90.5678 19.7607 90.8478 19.9007C91.1478 20.0407 91.4878 20.1707 91.8678 20.2907L94.4778 21.0707C95.8178 21.4707 96.8478 22.0707 97.5678 22.8707C98.3078 23.6707 98.6778 24.6507 98.6778 25.8107C98.6778 26.7907 98.4178 27.6607 97.8978 28.4207C97.3778 29.1607 96.6578 29.7407 95.7378 30.1607C94.8178 30.5807 93.7378 30.7907 92.4978 30.7907ZM105.448 30.7907C104.308 30.7907 103.318 30.6007 102.478 30.2207C101.638 29.8407 100.988 29.3007 100.528 28.6007C100.068 27.8807 99.838 27.0507 99.838 26.1107C99.838 25.2107 100.038 24.4107 100.438 23.7107C100.838 22.9907 101.458 22.3907 102.298 21.9107C103.138 21.4307 104.198 21.0907 105.478 20.8907L110.818 20.0207V23.0207L106.228 23.8007C105.448 23.9407 104.868 24.1907 104.488 24.5507C104.108 24.9107 103.918 25.3807 103.918 25.9607C103.918 26.5207 104.128 26.9707 104.548 27.3107C104.988 27.6307 105.528 27.7907 106.168 27.7907C106.988 27.7907 107.708 27.6207 108.328 27.2807C108.968 26.9207 109.458 26.4307 109.798 25.8107C110.158 25.1907 110.338 24.5107 110.338 23.7707V19.5707C110.338 18.8707 110.058 18.2907 109.498 17.8307C108.958 17.3507 108.238 17.1107 107.338 17.1107C106.498 17.1107 105.748 17.3407 105.088 17.8007C104.448 18.2407 103.978 18.8307 103.678 19.5707L100.468 18.0107C100.788 17.1507 101.288 16.4107 101.968 15.7907C102.668 15.1507 103.488 14.6507 104.428 14.2907C105.368 13.9307 106.388 13.7507 107.488 13.7507C108.828 13.7507 110.008 14.0007 111.028 14.5007C112.048 14.9807 112.838 15.6607 113.398 16.5407C113.978 17.4007 114.268 18.4107 114.268 19.5707V30.4307H110.548V27.6407L111.388 27.5807C110.968 28.2807 110.468 28.8707 109.888 29.3507C109.308 29.8107 108.648 30.1707 107.908 30.4307C107.168 30.6707 106.348 30.7907 105.448 30.7907Z" fill="white"/>
<path fill-rule="evenodd" clip-rule="evenodd" d="M7.5313 7.72266C-1.3953 12.3484 -2.8144 24.6995 5.58575 25.4387C12.933 26.0825 26.2085 17.2841 25.7049 11.5615C24.7207 9.05792 23.0956 8.3426 20.8983 8.46182C9.82017 26.7263 -7.02593 19.0724 7.5313 7.72266Z" fill="white"/>
<path fill-rule="evenodd" clip-rule="evenodd" d="M3.22852 29.7065C12.0178 38.9818 31.2672 29.1104 28.7723 16.9023C26.5063 21.0273 21.9286 24.4132 18.4724 26.3445C14.65 28.5143 9.61447 30.4457 5.19695 30.0403C4.53317 29.9927 3.8694 29.8734 3.22852 29.7065Z" fill="#0DF888"/>
<path fill-rule="evenodd" clip-rule="evenodd" d="M12.7266 35.9774C18.4716 37.6226 24.4227 34.7375 26.8947 29.6826C24.8576 31.757 22.3627 33.3784 19.7763 34.4514C17.5103 35.3575 15.107 35.9059 12.7266 35.9774Z" fill="#0DF888"/>
<path d="M14.5249 6.25895L13.539 11.2561L13.484 11.3015L12.8362 11.5573L12.5148 6.82372L9.75921 7.62564L9.25559 9.25038L8.78503 9.43962L8.51966 7.55571L7.46589 6.02366L7.93644 5.83443L9.36404 6.6222L11.9252 5.24652L9.02481 1.60573L9.72763 1.30453L13.7651 4.24674C16.5032 2.98321 17.8637 3.74694 17.8637 3.74694C17.8637 3.74694 17.3664 5.2276 14.5249 6.25895Z" fill="#0DF888"/>
</svg>
