<svg width="65" height="18" viewBox="0 0 65 18" fill="none" xmlns="http://www.w3.org/2000/svg">
<path fill-rule="evenodd" clip-rule="evenodd" d="M49.4565 10.3623L0 10.3623V7.53623L49.9275 7.53623C49.9903 7.53623 50.0482 7.53658 50.102 7.53691C50.4515 7.53904 50.6284 7.54011 50.8696 7.43665C51.689 7.08511 52.4368 6.57924 53.071 5.94367C53.9205 5.09228 54.5378 4.03664 54.8638 2.87777L55.5976 0.304369C55.6345 0.214334 55.6973 0.137326 55.778 0.0831311C55.8587 0.028936 55.9536 0 56.0507 0C56.1479 0 56.2428 0.028936 56.3235 0.0831311C56.4041 0.137326 56.4669 0.214334 56.5038 0.304369L57.2376 2.87777C57.5636 4.03664 58.1809 5.09228 59.0305 5.94367C59.88 6.79506 60.9334 7.41371 62.0898 7.74043L64.6576 8.47582C64.7562 8.50387 64.843 8.56338 64.9048 8.64532C64.9666 8.72727 65 8.82718 65 8.92989C65 9.03261 64.9666 9.13252 64.9048 9.21447C64.843 9.29641 64.7562 9.35592 64.6576 9.38397L62.0898 10.1194C60.9334 10.4461 59.88 11.0647 59.0305 11.9161C58.1809 12.7675 57.5636 13.8231 57.2376 14.982L56.5038 17.5554C56.4758 17.6542 56.4165 17.7412 56.3347 17.8031C56.2529 17.865 56.1532 17.8986 56.0507 17.8986C55.9482 17.8986 55.8485 17.865 55.7668 17.8031C55.685 17.7412 55.6256 17.6542 55.5976 17.5554L54.8638 14.982C54.5378 13.8231 53.9205 12.7675 53.071 11.9161C52.3992 11.2429 51.8116 10.8333 50.7233 10.3623C50.6002 10.3128 50.3193 10.335 50.0465 10.3567C49.8051 10.3758 49.5701 10.3944 49.4565 10.3623Z" fill="url(#paint0_linear_3740_2960)"/>
<defs>
<linearGradient id="paint0_linear_3740_2960" x1="65" y1="8.94928" x2="0" y2="8.94928" gradientUnits="userSpaceOnUse">
<stop stop-color="#0DF888"/>
<stop offset="1" stop-color="#0DF888" stop-opacity="0"/>
</linearGradient>
</defs>
</svg>
