<svg width="65" height="18" viewBox="0 0 65 18" fill="none" xmlns="http://www.w3.org/2000/svg">
<path fill-rule="evenodd" clip-rule="evenodd" d="M15.5435 10.3623L65 10.3623V7.53623L15.0725 7.53623C15.0097 7.53623 14.9518 7.53658 14.898 7.53691C14.5485 7.53904 14.3716 7.54011 14.1304 7.43665C13.311 7.08511 12.5632 6.57924 11.929 5.94367C11.0795 5.09228 10.4622 4.03664 10.1362 2.87777L9.40237 0.304369C9.36546 0.214334 9.30269 0.137326 9.22201 0.0831311C9.14133 0.028936 9.0464 0 8.94928 0C8.85215 0 8.75722 0.028936 8.67654 0.0831311C8.59586 0.137326 8.53309 0.214334 8.49618 0.304369L7.76238 2.87777C7.43637 4.03664 6.81905 5.09228 5.9695 5.94367C5.11995 6.79506 4.0666 7.41371 2.91023 7.74043L0.342387 8.47582C0.24379 8.50387 0.157013 8.56338 0.0952224 8.64532C0.0334316 8.72727 0 8.82718 0 8.92989C0 9.03261 0.0334316 9.13252 0.0952224 9.21447C0.157013 9.29641 0.24379 9.35592 0.342387 9.38397L2.91023 10.1194C4.0666 10.4461 5.11995 11.0647 5.9695 11.9161C6.81905 12.7675 7.43637 13.8231 7.76238 14.982L8.49618 17.5554C8.52417 17.6542 8.58355 17.7412 8.66532 17.8031C8.74709 17.865 8.84678 17.8986 8.94928 17.8986C9.05177 17.8986 9.15146 17.865 9.23323 17.8031C9.315 17.7412 9.37438 17.6542 9.40237 17.5554L10.1362 14.982C10.4622 13.8231 11.0795 12.7675 11.929 11.9161C12.6008 11.2429 13.1884 10.8333 14.2767 10.3623C14.3998 10.3128 14.6807 10.335 14.9535 10.3567C15.1949 10.3758 15.4299 10.3944 15.5435 10.3623Z" fill="url(#paint0_linear_3740_2968)"/>
<defs>
<linearGradient id="paint0_linear_3740_2968" x1="0" y1="8.94928" x2="65" y2="8.94928" gradientUnits="userSpaceOnUse">
<stop stop-color="#0DF888"/>
<stop offset="1" stop-color="#0DF888" stop-opacity="0"/>
</linearGradient>
</defs>
</svg>
