<svg width="33" height="33" viewBox="0 0 33 33" fill="none" xmlns="http://www.w3.org/2000/svg">
<path d="M29.2183 25.3963L26.9496 25.9325C26.4408 26.0563 26.0421 26.4413 25.9321 26.95L25.4508 28.9713C25.1896 30.0713 23.7871 30.415 23.0583 29.5488L18.9471 24.8188C18.6171 24.4338 18.7958 23.8288 19.2908 23.705C21.7246 23.1138 23.9108 21.7525 25.5196 19.8138C25.7808 19.4975 26.2483 19.4563 26.5371 19.745L29.5896 22.7975C30.6346 23.8425 30.2633 25.1488 29.2183 25.3963Z" fill="#121C27"/>
<path d="M3.71236 25.3963L5.98111 25.9325C6.48986 26.0563 6.88861 26.4413 6.99861 26.95L7.47986 28.9713C7.74111 30.0713 9.14361 30.415 9.87236 29.5488L13.9836 24.8188C14.3136 24.4338 14.1349 23.8288 13.6399 23.705C11.2061 23.1138 9.01986 21.7525 7.41111 19.8138C7.14986 19.4975 6.68236 19.4563 6.39361 19.745L3.34111 22.7975C2.29611 23.8425 2.66736 25.1488 3.71236 25.3963Z" fill="#121C27"/>
<path d="M16.5 2.75C11.1788 2.75 6.875 7.05375 6.875 12.375C6.875 14.3687 7.46625 16.1975 8.48375 17.7238C9.96875 19.9237 12.32 21.4775 15.0562 21.8762C15.5237 21.9587 16.005 22 16.5 22C16.995 22 17.4763 21.9587 17.9438 21.8762C20.68 21.4775 23.0312 19.9237 24.5163 17.7238C25.5338 16.1975 26.125 14.3687 26.125 12.375C26.125 7.05375 21.8212 2.75 16.5 2.75ZM20.7075 12.0725L19.5662 13.2137C19.3737 13.4062 19.2638 13.7775 19.3325 14.0525L19.6625 15.4688C19.9237 16.5825 19.3325 17.0225 18.3425 16.4312L16.9675 15.62C16.72 15.4688 16.3075 15.4688 16.06 15.62L14.685 16.4312C13.695 17.0087 13.1038 16.5825 13.365 15.4688L13.695 14.0525C13.75 13.7913 13.6537 13.4062 13.4612 13.2137L12.2925 12.0725C11.6187 11.3987 11.8387 10.725 12.7737 10.5738L14.245 10.3263C14.4925 10.285 14.7812 10.065 14.8912 9.845L15.7025 8.2225C16.1425 7.3425 16.8575 7.3425 17.2975 8.2225L18.1088 9.845C18.2188 10.065 18.5075 10.285 18.7687 10.3263L20.24 10.5738C21.1613 10.725 21.3813 11.3987 20.7075 12.0725Z" fill="#121C27"/>
</svg>
