<svg width="20" height="20" viewBox="0 0 20 20" fill="none" xmlns="http://www.w3.org/2000/svg">
<path d="M16.6667 5.62502C17.9323 5.62502 18.9583 4.59901 18.9583 3.33335C18.9583 2.0677 17.9323 1.04169 16.6667 1.04169C15.401 1.04169 14.375 2.0677 14.375 3.33335C14.375 4.59901 15.401 5.62502 16.6667 5.62502Z" fill="#121C27"/>
<path d="M15.868 6.79169C14.5596 6.50835 13.493 5.44169 13.2096 4.13335C13.1013 3.62502 13.093 3.13335 13.1846 2.66669C13.293 2.15002 12.9096 1.66669 12.3763 1.66669H5.83464C3.53464 1.66669 1.66797 3.53335 1.66797 5.83335V11.625C1.66797 13.925 3.53464 15.7917 5.83464 15.7917H7.08464C7.31797 15.7917 7.61797 15.9417 7.7513 16.125L9.0013 17.7834C9.5513 18.5167 10.4513 18.5167 11.0013 17.7834L12.2513 16.125C12.4096 15.9167 12.6513 15.7917 12.918 15.7917H14.1763C16.4763 15.7917 18.3346 13.9334 18.3346 11.6334V7.62502C18.3346 7.10002 17.8513 6.71669 17.3346 6.81669C16.868 6.90002 16.3763 6.90002 15.868 6.79169ZM6.66797 10C6.2013 10 5.83464 9.62502 5.83464 9.16669C5.83464 8.70835 6.2013 8.33335 6.66797 8.33335C7.1263 8.33335 7.5013 8.70835 7.5013 9.16669C7.5013 9.62502 7.13464 10 6.66797 10ZM10.0013 10C9.53464 10 9.16797 9.62502 9.16797 9.16669C9.16797 8.70835 9.53464 8.33335 10.0013 8.33335C10.4596 8.33335 10.8346 8.70835 10.8346 9.16669C10.8346 9.62502 10.468 10 10.0013 10ZM13.3346 10C12.868 10 12.5013 9.62502 12.5013 9.16669C12.5013 8.70835 12.868 8.33335 13.3346 8.33335C13.793 8.33335 14.168 8.70835 14.168 9.16669C14.168 9.62502 13.8013 10 13.3346 10Z" fill="#121C27"/>
</svg>
