<svg width="15" height="16" viewBox="0 0 15 16" fill="none" xmlns="http://www.w3.org/2000/svg">
<path d="M13.3619 11.2753C12.4169 10.4233 11.875 9.178 11.875 7.85867V6C11.875 3.654 10.2413 1.712 8.125 1.38667V0.666667C8.125 0.298 7.845 0 7.5 0C7.155 0 6.875 0.298 6.875 0.666667V1.38667C4.75813 1.712 3.125 3.654 3.125 6V7.85867C3.125 9.178 2.58313 10.4233 1.6325 11.2807C1.38938 11.5027 1.25 11.8253 1.25 12.1667C1.25 12.81 1.74063 13.3333 2.34375 13.3333H12.6563C13.2594 13.3333 13.75 12.81 13.75 12.1667C13.75 11.8253 13.6106 11.5027 13.3619 11.2753Z" fill="white"/>
<path d="M7.49937 16C8.63125 16 9.57812 15.1393 9.79562 14H5.20312C5.42063 15.1393 6.3675 16 7.49937 16Z" fill="white"/>
</svg>
