<svg width="33" height="33" viewBox="0 0 33 33" fill="none" xmlns="http://www.w3.org/2000/svg">
<path d="M24.1034 10.6838C24.0072 10.67 23.9109 10.67 23.8147 10.6838C21.6834 10.615 19.9922 8.86875 19.9922 6.72375C19.9922 4.5375 21.7659 2.75 23.9659 2.75C26.1522 2.75 27.9397 4.52375 27.9397 6.72375C27.9259 8.86875 26.2347 10.615 24.1034 10.6838Z" fill="#121C27"/>
<path d="M28.5855 20.2124C27.0455 21.2437 24.8867 21.6287 22.893 21.3674C23.4155 20.2399 23.6905 18.9887 23.7042 17.6687C23.7042 16.2937 23.4017 14.9874 22.8242 13.8462C24.8592 13.5712 27.018 13.9562 28.5717 14.9874C30.7442 16.4174 30.7442 18.7687 28.5855 20.2124Z" fill="#121C27"/>
<path d="M8.8557 10.6838C8.95195 10.67 9.0482 10.67 9.14445 10.6838C11.2757 10.615 12.967 8.86875 12.967 6.72375C12.967 4.52375 11.1932 2.75 8.9932 2.75C6.80695 2.75 5.0332 4.52375 5.0332 6.72375C5.0332 8.86875 6.72445 10.615 8.8557 10.6838Z" fill="#121C27"/>
<path d="M9.00531 17.6687C9.00531 19.0025 9.29406 20.2675 9.81656 21.4087C7.87781 21.615 5.85656 21.2025 4.37156 20.2262C2.19906 18.7825 2.19906 16.4312 4.37156 14.9875C5.84281 13.9975 7.91906 13.5987 9.87156 13.8187C9.30781 14.9737 9.00531 16.28 9.00531 17.6687Z" fill="#121C27"/>
<path d="M16.6646 21.8212C16.5546 21.8075 16.4309 21.8075 16.3071 21.8212C13.7771 21.7387 11.7559 19.6625 11.7559 17.105C11.7696 14.4925 13.8734 12.375 16.4996 12.375C19.1121 12.375 21.2296 14.4925 21.2296 17.105C21.2159 19.6625 19.2084 21.7387 16.6646 21.8212Z" fill="#121C27"/>
<path d="M12.1959 24.6675C10.1196 26.0563 10.1196 28.3388 12.1959 29.7138C14.5609 31.295 18.4384 31.295 20.8034 29.7138C22.8796 28.325 22.8796 26.0425 20.8034 24.6675C18.4521 23.0863 14.5746 23.0863 12.1959 24.6675Z" fill="#121C27"/>
</svg>
