<svg width="75" height="106" viewBox="0 0 75 106" fill="none" xmlns="http://www.w3.org/2000/svg">
<path d="M53.2104 79.8324C63.2567 67.9517 74.5315 51.4434 74.5315 37.2742C74.5147 16.7103 57.8044 0 37.2573 0C16.7103 0 0 16.7103 0 37.2573C0 51.4266 11.2748 67.9349 21.3212 79.8155C8.91888 82.1041 1.27893 86.7823 1.27893 92.2178C1.27893 99.9419 17.0805 106 37.2573 106C57.4342 106 73.2358 99.9419 73.2358 92.2178C73.2358 86.7992 65.6126 82.1041 53.2104 79.8324ZM37.2573 2.01937C56.6938 2.01937 72.4953 17.8209 72.4953 37.2573C72.4953 59.5041 42.2216 89.0541 37.2573 93.7492C32.2931 89.0541 2.01937 59.5209 2.01937 37.2573C2.01937 17.8378 17.8209 2.01937 37.2573 2.01937ZM37.2573 103.997C16.9459 103.997 3.2983 97.9225 3.2983 92.2346C3.2983 87.8257 11.1234 83.585 22.8357 81.6161C29.8867 89.7441 35.9784 95.331 36.5842 95.8863C36.7693 96.0546 37.0218 96.1556 37.2573 96.1556C37.5098 96.1556 37.7454 96.0714 37.9305 95.8863C38.5363 95.331 44.628 89.7441 51.6622 81.6161C63.3745 83.585 71.1996 87.8089 71.1996 92.2346C71.2164 97.9057 57.5688 103.997 37.2573 103.997Z" fill="#FAD59F"/>
<path d="M64.7037 37.2571C64.7037 22.1287 52.3856 9.81055 37.2571 9.81055C22.1287 9.81055 9.81055 22.1287 9.81055 37.2571C9.81055 52.3856 22.1287 64.7037 37.2571 64.7037C52.3856 64.7037 64.7037 52.4024 64.7037 37.2571ZM11.8467 37.2571C11.8467 23.2393 23.2562 11.8467 37.2571 11.8467C51.2581 11.8467 62.6675 23.2562 62.6675 37.2571C62.6675 51.2581 51.2581 62.6675 37.2571 62.6675C23.2562 62.6675 11.8467 51.2749 11.8467 37.2571Z" fill="#FAD59F"/>
<path d="M51.7138 50.0974C54.8607 46.5635 56.6108 42.0031 56.6108 37.2744V37.2576V37.2407C56.6108 32.4952 54.8775 27.9516 51.7138 24.4177C48.0453 20.278 42.7781 17.9053 37.2585 17.9053C31.7389 17.9053 26.4717 20.278 22.8032 24.4177C19.6395 27.9516 17.9062 32.512 17.9062 37.2576C17.9062 42.0031 19.6395 46.5635 22.8032 50.0974C26.4717 54.2371 31.7389 56.6098 37.2585 56.6098C42.7781 56.6098 48.0453 54.2371 51.7138 50.0974ZM46.514 44.6282C46.9178 42.6594 47.1703 40.5222 47.2207 38.2841H54.541C54.339 41.8011 53.0769 45.1331 50.9061 47.9097C49.5935 46.5971 48.1126 45.5033 46.514 44.6282ZM23.611 47.8929C21.4401 45.1331 20.178 41.7843 19.9761 38.2672H27.2963C27.3468 40.5222 27.5992 42.6425 28.0031 44.6114C26.4044 45.4865 24.9236 46.5971 23.611 47.8929ZM23.611 26.6222C24.9236 27.9348 26.4044 29.0286 28.0031 29.9037C27.5992 31.8726 27.3468 33.9929 27.2963 36.2479H19.9761C20.178 32.7476 21.457 29.3988 23.611 26.6222ZM50.8893 26.6222C53.0601 29.382 54.3222 32.7308 54.5241 36.2479H47.2039C47.1534 33.9929 46.901 31.8726 46.4971 29.9037C48.1126 29.0286 49.5935 27.9348 50.8893 26.6222ZM45.1845 36.2479H38.2682V32.2428C40.4559 32.125 42.6099 31.637 44.6124 30.8124C44.9321 32.512 45.1341 34.3463 45.1845 36.2479ZM38.2682 30.2234V20.0929C40.7588 20.8165 42.9296 24.1821 44.158 28.8099C42.3069 29.6176 40.3212 30.1056 38.2682 30.2234ZM36.2488 20.0929V30.2234C34.1958 30.1056 32.2101 29.6176 30.359 28.8099C31.5875 24.1821 33.7583 20.8165 36.2488 20.0929ZM36.2488 32.2428V36.2479H29.3325C29.383 34.3463 29.5849 32.512 29.9047 30.8124C31.9072 31.637 34.0444 32.1418 36.2488 32.2428ZM29.3325 38.2841H36.2488V42.2891C34.0444 42.4069 31.9072 42.895 29.9047 43.7195C29.5849 42.0031 29.383 40.1856 29.3325 38.2841ZM36.2488 44.3085V54.439C33.7583 53.7154 31.5875 50.3498 30.359 45.7221C32.2101 44.9143 34.1958 44.4263 36.2488 44.3085ZM38.2682 54.439V44.3085C40.3212 44.4263 42.3069 44.9143 44.158 45.7221C42.9296 50.3498 40.7588 53.7154 38.2682 54.439ZM38.2682 42.2723V38.2672H45.1845C45.1341 40.1688 44.9321 42.0031 44.6124 43.7027C42.6099 42.895 40.4727 42.3901 38.2682 42.2723ZM49.5767 25.0909C48.5165 26.1679 47.3049 27.0934 46.026 27.8675C45.2014 24.9394 44.0066 22.5162 42.5594 20.7829C45.1677 21.6243 47.591 23.0883 49.5767 25.0909ZM31.9745 20.766C30.5105 22.4993 29.3157 24.9394 28.5079 27.8675C27.2122 27.1102 26.0174 26.1847 24.9404 25.0909C26.9261 23.0883 29.3325 21.6243 31.9745 20.766ZM24.9404 49.4242C26.0174 48.3472 27.2122 47.4049 28.5079 46.6476C29.3325 49.5757 30.5273 52.0158 31.9745 53.7491C29.3325 52.9077 26.9261 51.4268 24.9404 49.4242ZM42.5425 53.7491C43.9898 52.0158 45.2014 49.5757 46.0091 46.6644C47.3049 47.4217 48.4997 48.3472 49.5599 49.4411C47.591 51.4268 45.1845 52.9077 42.5425 53.7491Z" fill="#FAD59F"/>
</svg>
