<svg width="96" height="88" viewBox="0 0 96 88" fill="none" xmlns="http://www.w3.org/2000/svg">
<path d="M14.1873 15.1006C15.4251 13.3355 17.8535 12.9144 19.6139 14.1478L20.4838 14.7579V6.68067C20.4838 3.52309 23.0531 0.953857 26.211 0.953857H58.2147V0.954238H89.4148C92.572 0.954238 95.1406 3.5229 95.1406 6.6801V81.3194C95.1406 84.4766 92.572 87.0452 89.4148 87.0452C88.8639 87.0452 38.6699 87.046 26.2108 87.0462C23.0529 87.0462 20.4837 84.477 20.4837 81.319V52.9496L1.66028 39.7486C-0.105186 38.5106 -0.527435 36.0816 0.706947 34.322L14.1873 15.1006ZM22.3492 6.68067V16.0659L26.8161 19.1986V6.68029C26.8161 5.19188 27.3918 3.83877 28.326 2.8196H26.2108C24.0817 2.8196 22.3492 4.55158 22.3492 6.68067ZM93.2753 81.3196V6.68029C93.2753 4.55158 91.5437 2.81998 89.4149 2.81998H32.5426C30.4139 2.81998 28.6819 4.55158 28.6819 6.68029V81.3196C28.6819 83.4483 30.4139 85.1799 32.5426 85.1799H89.4148C91.5437 85.1799 93.2753 83.4483 93.2753 81.3196ZM22.3492 81.319C22.3492 83.4481 24.0817 85.1806 26.2108 85.1806H28.3264C27.3919 84.1613 26.8161 82.808 26.8161 81.3194V57.3907L22.3492 54.2578V81.319ZM2.73139 38.221L26.8161 55.1118V21.4776C22.8917 18.7253 20.962 17.3722 18.5425 15.6753C17.6204 15.0281 16.3558 15.2566 15.7147 16.1717L2.23455 35.3932C1.59101 36.3096 1.81079 37.5752 2.73139 38.221Z" fill="#FAD59F"/>
<path d="M60.978 16.3518C72.6168 16.3518 82.0859 25.821 82.0859 37.4597C82.0859 49.0985 72.6168 58.5677 60.978 58.5677C49.3392 58.5677 39.8705 49.0985 39.8705 37.4597C39.8705 25.821 49.3392 16.3518 60.978 16.3518ZM41.7834 36.527H51.9515C52.0913 28.6596 53.9928 22.0368 56.7818 18.6921C48.4807 20.5482 42.2058 27.7769 41.7834 36.527ZM61.9108 18.4322V36.5272H68.1301C67.9468 26.7086 64.931 19.667 61.9108 18.4322ZM61.9108 38.3925V56.4875C64.931 55.2527 67.9468 48.211 68.1301 38.3925H61.9108ZM60.0452 56.4873V38.3925H53.8263C54.0098 48.2107 57.0254 55.2523 60.0452 56.4873ZM60.0452 36.527V18.4322C57.0254 19.6671 54.0098 26.7088 53.8263 36.527H60.0452ZM65.1742 18.6923C67.9636 22.037 69.8651 28.6598 70.0051 36.5272H80.1732C79.7506 27.7769 73.4757 20.548 65.1742 18.6923ZM80.1732 38.3925H70.0051C69.8653 46.2599 67.9636 52.8827 65.1742 56.2274C73.4757 54.3717 79.7506 47.1428 80.1732 38.3925ZM56.7818 56.2274C53.9926 52.8827 52.0913 46.2599 51.9515 38.3925H41.7834C42.2058 47.1428 48.4807 54.3715 56.7818 56.2274Z" fill="#FAD59F"/>
<path d="M43.1821 69.7827H78.7762C79.2913 69.7827 79.709 70.2004 79.709 70.7155C79.709 71.2306 79.2913 71.6483 78.7762 71.6483H43.1821C42.667 71.6483 42.2493 71.2306 42.2493 70.7155C42.2493 70.2002 42.667 69.7827 43.1821 69.7827Z" fill="#FAD59F"/>
</svg>
