<svg width="94" height="94" viewBox="0 0 94 94" fill="none" xmlns="http://www.w3.org/2000/svg">
<mask id="mask0_3824_2472" style="mask-type:luminance" maskUnits="userSpaceOnUse" x="0" y="0" width="94" height="94">
<path d="M0 -1.52588e-05H94V94H0V-1.52588e-05Z" fill="white"/>
</mask>
<g mask="url(#mask0_3824_2472)">
<path d="M9.25373 92.623H73.2018C69.2206 92.623 65.9932 89.3955 65.9932 85.4142V83.4953C65.9932 82.0319 64.8068 80.8457 63.3434 80.8457H4.69455C3.23112 80.8457 2.04492 82.0319 2.04492 83.4953V85.4142C2.04492 89.3955 5.27232 92.623 9.25373 92.623Z" stroke="#FAD59F" stroke-width="2" stroke-miterlimit="10" stroke-linecap="round" stroke-linejoin="round"/>
<path d="M80.0107 15.4556V7.02735C80.0107 3.90662 77.4809 1.3767 74.36 1.3767H14.5022C11.3813 1.3767 8.85156 3.90662 8.85156 7.02735V80.8455" stroke="#FAD59F" stroke-width="2" stroke-miterlimit="10" stroke-linecap="round" stroke-linejoin="round"/>
<path d="M73.082 92.6201C76.9188 92.5568 80.0099 89.4289 80.0099 85.5771V79.4722" stroke="#FAD59F" stroke-width="2" stroke-miterlimit="10" stroke-linecap="round" stroke-linejoin="round"/>
<path d="M17.752 23.8433H46.2303" stroke="#FAD59F" stroke-width="2" stroke-miterlimit="10" stroke-linecap="round" stroke-linejoin="round"/>
<path d="M17.752 34.8445H46.2303" stroke="#FAD59F" stroke-width="2" stroke-miterlimit="10" stroke-linecap="round" stroke-linejoin="round"/>
<path d="M17.752 45.8459H46.2303" stroke="#FAD59F" stroke-width="2" stroke-miterlimit="10" stroke-linecap="round" stroke-linejoin="round"/>
<path d="M17.752 56.8477H46.2303" stroke="#FAD59F" stroke-width="2" stroke-miterlimit="10" stroke-linecap="round" stroke-linejoin="round"/>
<path d="M74.579 22.4814C75.4834 23.8886 77.3092 24.3779 78.7959 23.6112C80.8959 22.5285 83.4119 23.9811 83.5244 26.3412C83.6037 28.0121 84.9405 29.3487 86.6113 29.4282C88.9713 29.5405 90.424 32.0565 89.3412 34.1565C88.5745 35.6432 89.0638 37.4692 90.4712 38.3736C92.4588 39.6507 92.4588 42.5561 90.4712 43.8333C89.0638 44.7377 88.5745 46.5634 89.3412 48.0503C90.424 50.1502 88.9713 52.6662 86.6113 52.7786C84.9405 52.8581 83.6037 54.1948 83.5244 55.8655C83.4119 58.2256 80.8959 59.6782 78.7959 58.5955C77.3092 57.8289 75.4834 58.3181 74.579 59.7254C73.3017 61.713 70.3965 61.713 69.1193 59.7254C68.2149 58.3181 66.389 57.8289 64.9023 58.5955C62.8022 59.6782 60.2862 58.2256 60.1738 55.8655C60.0943 54.1948 58.7578 52.8581 57.0869 52.7786C54.727 52.6662 53.2742 50.1502 54.3569 48.0503C55.1235 46.5634 54.6343 44.7377 53.227 43.8333C51.2394 42.5561 51.2394 39.6507 53.227 38.3736C54.6343 37.4692 55.1235 35.6432 54.3569 34.1565C53.2742 32.0565 54.727 29.5405 57.0869 29.4282C58.7578 29.3487 60.0943 28.0121 60.1738 26.3412C60.2862 23.9811 62.8022 22.5285 64.9023 23.6112C66.389 24.3779 68.2149 23.8886 69.1193 22.4814C70.3965 20.4938 73.3017 20.4938 74.579 22.4814Z" stroke="#FAD59F" stroke-width="2" stroke-miterlimit="10" stroke-linecap="round" stroke-linejoin="round"/>
<path d="M83.7093 41.1033C83.7093 47.6554 78.3978 52.9668 71.8459 52.9668C65.2938 52.9668 59.9824 47.6554 59.9824 41.1033C59.9824 34.5512 65.2938 29.2399 71.8459 29.2399C78.3978 29.2399 83.7093 34.5512 83.7093 41.1033Z" stroke="#FAD59F" stroke-width="2" stroke-miterlimit="10" stroke-linecap="round" stroke-linejoin="round"/>
<path d="M63.6855 58.948V72.2261C63.6855 72.8316 64.3435 73.2076 64.8653 72.9003L71.4481 69.0216C71.6932 68.8773 71.9972 68.8773 72.2423 69.0216L78.8252 72.9003C79.347 73.2076 80.005 72.8316 80.005 72.2261V58.948" stroke="#FAD59F" stroke-width="2" stroke-miterlimit="10" stroke-linecap="round" stroke-linejoin="round"/>
</g>
</svg>
