<svg width="106" height="108" viewBox="0 0 106 108" fill="none" xmlns="http://www.w3.org/2000/svg">
<path d="M69.119 61.6215C79.7385 61.6215 88.3781 53.0401 88.3781 42.4922C88.3781 31.9443 79.7385 23.3629 69.119 23.3629C58.4995 23.3629 49.8599 31.9443 49.8599 42.4922C49.8599 53.0401 58.4995 61.6215 69.119 61.6215ZM60.202 43.9645C60.2795 46.1892 60.5308 48.3389 60.9435 50.3283C59.4437 51.0276 58.0352 51.9271 56.745 53.005C54.6062 50.5249 53.2082 47.3987 52.8949 43.9645H60.202ZM75.7553 29.6216C75.3704 28.7242 74.9477 27.9216 74.4933 27.2162C76.2771 27.837 77.92 28.7565 79.3607 29.9165C78.4797 30.6261 77.5332 31.2341 76.5382 31.7408C76.3025 30.9981 76.0416 30.2891 75.7553 29.6218V29.6216ZM61.6999 31.7405C60.7051 31.2339 59.7584 30.6261 58.8773 29.9162C60.318 28.7565 61.961 27.837 63.7447 27.216C63.2903 27.9214 62.8674 28.7239 62.4827 29.6214C62.1964 30.2887 61.9356 30.9979 61.6999 31.7405ZM69.119 26.5646C70.7977 26.5646 72.5946 28.9736 73.7755 32.8432C72.2825 33.2836 70.7179 33.5125 69.119 33.5125C67.5201 33.5125 65.9555 33.2834 64.4625 32.8432C65.6434 28.9736 67.4403 26.5646 69.119 26.5646ZM69.119 36.4569C70.9568 36.4569 72.7558 36.1984 74.4766 35.7057C74.7887 37.3293 74.9981 39.1151 75.0701 41.02H63.1681C63.2401 39.1151 63.4495 37.3293 63.7616 35.7057C65.4825 36.1984 67.2813 36.4569 69.1192 36.4569H69.119ZM75.0699 43.9645C74.9979 45.8693 74.7885 47.6551 74.4764 49.2786C72.7555 48.7858 70.9566 48.5271 69.1188 48.5271C67.2811 48.5271 65.4821 48.7856 63.7612 49.2786C63.4491 47.6549 63.2399 45.8693 63.1677 43.9645H75.0697H75.0699ZM62.4827 55.3629C62.8677 56.2603 63.2903 57.0629 63.7447 57.7683C61.9608 57.1472 60.3178 56.2279 58.8771 55.068C59.7582 54.3584 60.7049 53.7504 61.6997 53.2437C61.9353 53.9865 62.1964 54.6953 62.4827 55.3629ZM76.5382 53.2437C77.533 53.7504 78.4797 54.3584 79.3607 55.068C77.92 56.2277 76.2771 57.1472 74.4931 57.7683C74.9475 57.0629 75.3704 56.2603 75.7551 55.3629C76.0414 54.6955 76.3023 53.9865 76.5382 53.2437ZM69.119 58.4196C67.4403 58.4196 65.6434 56.0106 64.4625 52.141C65.9555 51.7006 67.5203 51.4715 69.119 51.4715C70.7177 51.4715 72.2825 51.7006 73.7755 52.141C72.5946 56.0106 70.7977 58.4196 69.119 58.4196ZM81.493 53.0048C80.2029 51.9267 78.7943 51.0274 77.2945 50.3281C77.707 48.3389 77.9583 46.189 78.0361 43.9642H85.3432C85.0298 47.3985 83.6319 50.5247 81.493 53.0048ZM85.3432 41.0198H78.0361C77.9586 38.795 77.7072 36.6452 77.2945 34.656C78.7943 33.9567 80.2029 33.0573 81.493 31.9793C83.6319 34.4593 85.0298 37.5855 85.3432 41.0198ZM56.745 31.9793C58.035 33.0573 59.4437 33.9567 60.9435 34.656C60.531 36.6452 60.2797 38.795 60.202 41.0198H52.8949C53.2082 37.5855 54.6062 34.4593 56.745 31.9793ZM59.9642 70.3775C59.1456 70.3775 58.482 69.7183 58.482 68.9053C58.482 68.0922 59.1456 67.433 59.9642 67.433H78.2736C79.0922 67.433 79.7559 68.0922 79.7559 68.9053C79.7559 69.7183 79.0922 70.3775 78.2736 70.3775H59.9642ZM83.6994 75.7898C83.6994 76.6029 83.0358 77.262 82.2172 77.262H56.0209C55.2022 77.262 54.5386 76.6029 54.5386 75.7898C54.5386 74.9767 55.2022 74.3176 56.0209 74.3176H82.2172C83.0358 74.3176 83.6994 74.9767 83.6994 75.7898ZM103.763 79.6916C102.596 78.3765 100.563 77.5462 98.1309 77.9761V18.916C98.1309 15.61 95.4231 12.9204 92.0947 12.9204H86.8023V5.91682C86.8023 4.35542 86.1156 2.97236 84.8687 2.02236C83.6219 1.07193 82.0995 0.770963 80.5808 1.17498L36.2603 12.9707C36.2557 12.9719 36.2516 12.9743 36.247 12.9755C36.1748 12.9955 36.1049 13.0203 36.0376 13.0502C36.0285 13.0542 36.0198 13.0588 36.0107 13.063C35.8766 13.1261 35.754 13.2081 35.6458 13.3064C35.6365 13.3148 35.627 13.323 35.6179 13.3316C35.5679 13.3793 35.5213 13.4307 35.4786 13.4849C35.4709 13.4946 35.4637 13.5045 35.4563 13.5144C35.3697 13.6298 35.2998 13.7579 35.2501 13.8959C35.2465 13.9058 35.2427 13.9152 35.2393 13.9253C35.2166 13.9922 35.1991 14.0612 35.1863 14.1321C35.184 14.1447 35.1823 14.1575 35.1804 14.1703C35.1692 14.2431 35.1618 14.3169 35.1618 14.3929V70.0904C34.8349 70.1077 34.505 70.1299 34.17 70.1606L18.6509 71.5862C18.1133 69.1993 15.9647 67.4095 13.4019 67.4095H2.48222C1.66361 67.4095 1 68.0686 1 68.8817V104.069C1 104.882 1.66361 105.541 2.48222 105.541H13.4017C16.0236 105.541 18.2122 103.668 18.6854 101.198C24.8004 101.463 31.0673 102.684 37.6748 103.972C45.3461 105.468 53.1985 107 61.0651 107C64.4598 107 67.8579 106.715 71.2437 106.018C77.948 104.639 99.3044 92.5438 103.455 87.1239C105.397 84.5885 105.518 81.6712 103.763 79.6919V79.6916ZM95.1665 18.9158V79.0815C95.1544 79.0884 95.1424 79.0946 95.1303 79.1015C89.9463 82.0743 80.9793 86.2298 73.8562 88.7585C74.4226 86.9867 74.2107 85.0693 73.2135 83.4025C71.9486 81.2884 69.7227 80.0763 67.2599 80.1602C66.7284 80.1602 66.2293 80.1625 65.7569 80.1646C60.5814 80.1884 59.0179 80.1954 53.8672 77.1472L47.3355 73.2822C45.8757 72.4184 44.4703 71.7414 43.0711 71.2322V15.8649H92.0947C93.7885 15.8649 95.1665 17.2334 95.1665 18.9158ZM40.1069 15.8647V70.405C39.4543 70.2791 38.7947 70.1916 38.126 70.1341V15.8649L40.1069 15.8647ZM81.3482 4.01912C81.9735 3.85255 82.5507 3.96675 83.0642 4.35836C83.5777 4.74955 83.8379 5.27388 83.8379 5.91682V12.9204H47.9023L81.3482 4.01912ZM15.8171 100.198C15.8171 101.521 14.7336 102.597 13.4019 102.597H3.96444V70.3539H13.4017C14.7334 70.3539 15.8169 71.4301 15.8169 72.7528V100.197L15.8171 100.198ZM101.096 85.3412C97.3835 90.1886 76.6108 101.907 70.6425 103.135C59.9966 105.325 48.9394 103.169 38.2461 101.083C31.8069 99.8273 25.1644 98.5332 18.7816 98.2558V74.5313L34.4429 73.0927C38.612 72.7095 41.908 73.4976 45.8185 75.8117L52.3502 79.6767C58.2084 83.1434 60.4247 83.1331 65.7711 83.1089C66.2469 83.1068 66.7504 83.1045 67.2868 83.1045C67.3054 83.1045 67.3243 83.1043 67.3429 83.1034C68.7131 83.0511 69.959 83.7255 70.6656 84.9065C71.372 86.0872 71.3743 87.493 70.6715 88.6674C70.1166 89.5949 68.9464 90.273 67.1934 90.6825C60.989 92.1318 49.4157 89.4803 45.7116 87.1085C45.0228 86.6677 44.1061 86.8648 43.6625 87.5483C43.2189 88.2316 43.4173 89.1429 44.1053 89.5833C47.526 91.7736 56.0437 94.0385 62.9627 94.0385C64.0123 94.0385 65.0237 93.9847 65.9763 93.8724L65.9767 93.8774C73.3476 93.1583 89.8392 85.5358 96.6129 81.6514C98.874 80.355 100.716 80.7102 101.538 81.6379C102.343 82.5452 102.178 83.9296 101.096 85.3414L101.096 85.3412ZM9.89078 91.9789C7.46439 91.9789 5.49028 93.9397 5.49028 96.3497C5.49028 98.7597 7.46439 100.721 9.89078 100.721C12.3172 100.721 14.2913 98.7597 14.2913 96.3497C14.2913 93.9397 12.3172 91.9789 9.89078 91.9789ZM9.89078 97.7761C9.09906 97.7761 8.45472 97.1363 8.45472 96.3497C8.45472 95.5631 9.09906 94.9233 9.89078 94.9233C10.6825 94.9233 11.3268 95.5631 11.3268 96.3497C11.3268 97.1363 10.6825 97.7761 9.89078 97.7761Z" fill="#FAD59F" stroke="#121C27"/>
</svg>
