<svg width="98" height="96" viewBox="0 0 98 96" fill="none" xmlns="http://www.w3.org/2000/svg">
<path d="M20.9113 11.033V19.5224H1V11.6504C1 5.93944 5.63054 1.0002 11.3415 1.3089C13.9655 1.46325 16.2808 2.54371 17.9787 4.24158C19.8309 5.78509 20.9113 8.25471 20.9113 11.033Z" stroke="#FAD59F" stroke-width="2" stroke-miterlimit="10" stroke-linecap="round" stroke-linejoin="round"/>
<path d="M78.0215 52.8623V80.7999" stroke="#FAD59F" stroke-width="2" stroke-miterlimit="10" stroke-linecap="round" stroke-linejoin="round"/>
<path d="M11.3418 1H71.8475C74.9346 1 77.4042 3.16092 77.8672 6.0936V37.4269" stroke="#FAD59F" stroke-width="2" stroke-miterlimit="10" stroke-linecap="round" stroke-linejoin="round"/>
<path d="M20.9121 11.033V19.5223V84.9673C20.9121 90.3696 25.3883 94.8458 30.7906 94.8458C33.5689 94.8458 36.0385 93.7653 37.8908 91.9131C39.743 90.0609 40.8234 87.5913 40.8234 84.9673V80.7998H96.6986V84.9673C96.6986 87.7456 95.6182 90.2152 93.766 92.0674C91.9137 93.9197 89.4441 95.0001 86.6658 95.0001H30.7906" stroke="#FAD59F" stroke-width="2" stroke-miterlimit="10" stroke-linecap="round" stroke-linejoin="round"/>
<path d="M88.8242 24.9246L58.88 61.8145L55.6387 72.6191L65.6715 67.2168L95.6157 30.3269C94.3809 27.2398 92.0656 25.3876 88.8242 24.9246Z" stroke="#FAD59F" stroke-width="2" stroke-miterlimit="10" stroke-linecap="round" stroke-linejoin="round"/>
<path d="M85.1211 29.5552L96.6974 38.9706L90.6777 44.6816L87.8994 51.1644" stroke="#FAD59F" stroke-width="2" stroke-miterlimit="10" stroke-linecap="round" stroke-linejoin="round"/>
<path d="M58.8789 61.8145L65.6704 67.2168" stroke="#FAD59F" stroke-width="2" stroke-miterlimit="10" stroke-linecap="round" stroke-linejoin="round"/>
<path d="M29.0898 10.5698H68.6038V17.9787H29.0898V10.5698Z" stroke="#FAD59F" stroke-width="2" stroke-miterlimit="10" stroke-linecap="round" stroke-linejoin="round"/>
<path d="M44.5254 28.0115H68.4499" stroke="#FAD59F" stroke-width="2" stroke-miterlimit="10" stroke-linecap="round" stroke-linejoin="round"/>
<path d="M44.5254 41.9031H68.4499" stroke="#FAD59F" stroke-width="2" stroke-miterlimit="10" stroke-linecap="round" stroke-linejoin="round"/>
<path d="M44.5254 55.949H55.6387" stroke="#FAD59F" stroke-width="2" stroke-miterlimit="10" stroke-linecap="round" stroke-linejoin="round"/>
<path d="M44.5254 69.8408H50.8538" stroke="#FAD59F" stroke-width="2" stroke-miterlimit="10" stroke-linecap="round" stroke-linejoin="round"/>
<path d="M29.5527 24.1528H39.1225V31.8704H29.5527V24.1528Z" stroke="#FAD59F" stroke-width="2" stroke-miterlimit="10" stroke-linecap="round" stroke-linejoin="round"/>
<path d="M29.5527 38.0444H39.1225V45.762H29.5527V38.0444Z" stroke="#FAD59F" stroke-width="2" stroke-miterlimit="10" stroke-linecap="round" stroke-linejoin="round"/>
<path d="M29.5527 51.9358H39.1225V59.6534H29.5527V51.9358Z" stroke="#FAD59F" stroke-width="2" stroke-miterlimit="10" stroke-linecap="round" stroke-linejoin="round"/>
<path d="M29.5527 65.9819H39.1225V73.6995H29.5527V65.9819Z" stroke="#FAD59F" stroke-width="2" stroke-miterlimit="10" stroke-linecap="round" stroke-linejoin="round"/>
</svg>
