<svg width="45" height="32" viewBox="0 0 45 32" fill="none" xmlns="http://www.w3.org/2000/svg">
<path fill-rule="evenodd" clip-rule="evenodd" d="M35.3432 8.77725C36.9641 6.50639 40.0279 4.06174 44.1989 2.0266C45.2828 1.49772 44.7939 -0.141525 43.5973 0.00982666C34.8337 1.11836 29.1534 4.9565 26.0516 10.6643C24.8979 12.7872 24.1731 15.0467 23.7871 17.3534C23.5326 18.8742 23.4654 20.0156 23.4654 21.3338C23.4654 27.2246 28.2408 32 34.1316 32C40.0224 32 44.7978 27.2246 44.7978 21.3338C44.7978 15.443 39.9462 10.6643 34.3709 10.6643C34.665 9.85669 34.7357 9.62847 35.3432 8.77725ZM11.8776 8.77725C13.4985 6.50639 16.5623 4.06174 20.7332 2.0266C21.8172 1.49772 21.3282 -0.141525 20.1317 0.00982666C11.368 1.11836 5.6878 4.9565 2.58594 10.6643C1.43227 12.7872 0.707451 15.0467 0.321453 17.3534C0.0669518 18.8742 -0.000263214 20.0156 -0.000263214 21.3338C-0.000263214 27.2246 4.77516 32 10.6659 32C16.5567 32 21.3321 27.2246 21.3321 21.3338C21.3321 15.443 16.4805 10.6643 10.9053 10.6643C11.1994 9.85669 11.27 9.62847 11.8776 8.77725Z" fill="#121C27"/>
</svg>
