<?xml version="1.0" encoding="UTF-8"?>
<!DOCTYPE svg PUBLIC "-//W3C//DTD SVG 1.1//EN" "http://www.w3.org/Graphics/SVG/1.1/DTD/svg11.dtd">
<!-- Creator: CorelDRAW -->
<svg xmlns="http://www.w3.org/2000/svg" xml:space="preserve" width="428px" height="60px" version="1.1" style="shape-rendering:geometricPrecision; text-rendering:geometricPrecision; image-rendering:optimizeQuality; fill-rule:evenodd; clip-rule:evenodd"
viewBox="0 0 40.83 5.72"
 xmlns:xlink="http://www.w3.org/1999/xlink"
 xmlns:xodm="http://www.corel.com/coreldraw/odm/2003">
 <defs>
  <style type="text/css">
   <![CDATA[
    .fil1 {fill:#27488D}
    .fil2 {fill:#00ADE1}
    .fil3 {fill:#27488D;fill-rule:nonzero}
    .fil5 {fill:#00A1E0;fill-rule:nonzero}
    .fil0 {fill:#00ADE1;fill-rule:nonzero}
    .fil7 {fill:#808996;fill-rule:nonzero}
    .fil4 {fill:#F4F6F9;fill-rule:nonzero}
    .fil6 {fill:white;fill-rule:nonzero}
   ]]>
  </style>
 </defs>
 <g id="Layer_x0020_1">
  <metadata id="CorelCorpID_0Corel-Layer"/>
  <g id="_2028791733024">
   <path class="fil0" d="M4.32 4.42c-0.08,0 -0.15,-0.01 -0.21,-0.03 -0.07,-0.01 -0.13,-0.04 -0.18,-0.07 -0.06,-0.03 -0.11,-0.07 -0.16,-0.12 -0.04,-0.04 -0.08,-0.09 -0.11,-0.15 -0.04,-0.06 -0.06,-0.12 -0.08,-0.18 -0.01,-0.07 -0.02,-0.14 -0.02,-0.21 0,-0.07 0.01,-0.14 0.02,-0.21 0.02,-0.06 0.04,-0.13 0.08,-0.18 0.03,-0.06 0.07,-0.11 0.11,-0.16 0.04,-0.04 0.09,-0.08 0.15,-0.11 0.05,-0.04 0.11,-0.06 0.18,-0.08 0.06,-0.01 0.13,-0.02 0.2,-0.02 0.11,0 0.21,0.02 0.3,0.06 0.04,0.02 0.09,0.05 0.13,0.08 0.04,0.03 0.08,0.06 0.11,0.1 0.02,0.02 0.02,0.04 0.03,0.05l0 0c0,0.02 0.01,0.04 0,0.06 0,0.01 -0.01,0.03 -0.02,0.04 -0.01,0.02 -0.03,0.03 -0.04,0.04l0 0c-0.02,0.01 -0.03,0.02 -0.05,0.02 -0.01,0.01 -0.03,0.01 -0.05,0 -0.01,0 -0.03,-0.01 -0.05,-0.01 -0.01,-0.01 -0.02,-0.02 -0.04,-0.04l0 0c-0.04,-0.04 -0.09,-0.08 -0.14,-0.1 -0.06,-0.02 -0.11,-0.03 -0.18,-0.03 -0.04,0 -0.08,0 -0.12,0.01 -0.04,0.01 -0.08,0.03 -0.11,0.05 -0.04,0.02 -0.07,0.04 -0.09,0.07 -0.03,0.03 -0.05,0.06 -0.07,0.1 -0.02,0.04 -0.04,0.08 -0.04,0.12 -0.01,0.04 -0.02,0.09 -0.02,0.14 0,0.05 0.01,0.09 0.02,0.13 0.01,0.05 0.02,0.09 0.04,0.12 0.02,0.04 0.04,0.07 0.07,0.1 0.03,0.03 0.06,0.05 0.09,0.08 0.04,0.02 0.08,0.03 0.12,0.04 0.04,0.01 0.08,0.02 0.13,0.02 0.03,0 0.06,0 0.08,-0.01 0.03,0 0.05,0 0.08,-0.01 0.02,-0.01 0.04,-0.02 0.06,-0.03 0.02,-0.01 0.04,-0.03 0.06,-0.04l0 0c0.02,-0.01 0.03,-0.02 0.05,-0.03 0.02,-0.01 0.03,-0.01 0.05,-0.01l0 0c0.02,0 0.03,0 0.05,0 0.01,0.01 0.03,0.01 0.04,0.03 0.02,0.01 0.03,0.02 0.04,0.04 0.01,0.01 0.02,0.03 0.02,0.05 0,0.02 0,0.03 -0.01,0.05 -0.01,0.02 -0.02,0.03 -0.03,0.05l0 0c-0.07,0.06 -0.14,0.1 -0.22,0.13 -0.08,0.03 -0.18,0.05 -0.27,0.05zm1.45 -0.01c-0.08,0 -0.15,-0.02 -0.21,-0.07 -0.04,-0.02 -0.06,-0.05 -0.09,-0.08 -0.02,-0.03 -0.04,-0.06 -0.06,-0.1 -0.02,-0.04 -0.03,-0.08 -0.04,-0.12 -0.01,-0.05 -0.01,-0.09 -0.01,-0.14l0 -1.47c0,-0.02 0,-0.04 0.01,-0.06 0,-0.02 0.01,-0.04 0.03,-0.05 0.01,-0.01 0.03,-0.02 0.05,-0.03 0.01,-0.01 0.03,-0.01 0.05,-0.01 0.03,0 0.05,0 0.06,0.01 0.02,0.01 0.04,0.02 0.05,0.03l0 0c0.02,0.01 0.03,0.03 0.03,0.05 0.01,0.02 0.01,0.04 0.01,0.06l0 1.47c0,0.03 0.01,0.06 0.01,0.08 0.01,0.03 0.02,0.05 0.03,0.07 0.01,0.02 0.02,0.04 0.04,0.05 0.01,0.01 0.03,0.01 0.04,0.01l0.07 0c0.02,0 0.04,0.01 0.06,0.01 0.01,0.01 0.03,0.02 0.04,0.03l0 0c0.01,0.02 0.02,0.03 0.03,0.05 0,0.02 0.01,0.04 0.01,0.06 0,0.02 -0.01,0.04 -0.02,0.06 -0.01,0.02 -0.02,0.04 -0.04,0.05 -0.02,0.01 -0.04,0.02 -0.06,0.03 -0.03,0.01 -0.05,0.01 -0.08,0.01l-0.01 0zm1.21 0.01c-0.15,0 -0.28,-0.03 -0.4,-0.1 -0.05,-0.03 -0.1,-0.07 -0.15,-0.11 -0.04,-0.05 -0.08,-0.1 -0.11,-0.16 -0.04,-0.05 -0.06,-0.12 -0.08,-0.18 -0.01,-0.07 -0.02,-0.14 -0.02,-0.21 0,-0.07 0.01,-0.14 0.02,-0.21 0.02,-0.07 0.04,-0.13 0.08,-0.19 0.03,-0.05 0.07,-0.1 0.11,-0.15 0.05,-0.04 0.1,-0.08 0.15,-0.12 0.06,-0.03 0.12,-0.05 0.19,-0.07 0.06,-0.01 0.13,-0.02 0.21,-0.02 0.14,0 0.27,0.03 0.38,0.09 0.06,0.04 0.11,0.08 0.16,0.12 0.04,0.05 0.08,0.1 0.11,0.15 0.03,0.06 0.06,0.12 0.08,0.19 0.01,0.07 0.02,0.14 0.02,0.21 0,0.07 -0.01,0.14 -0.02,0.21 -0.02,0.06 -0.04,0.13 -0.08,0.18 -0.03,0.06 -0.07,0.11 -0.11,0.16 -0.05,0.04 -0.1,0.08 -0.15,0.11 -0.06,0.04 -0.12,0.06 -0.19,0.08 -0.06,0.01 -0.13,0.02 -0.2,0.02zm0 -0.27c0.04,0 0.08,-0.01 0.12,-0.02 0.04,-0.01 0.08,-0.02 0.12,-0.04 0.03,-0.02 0.06,-0.05 0.09,-0.08 0.03,-0.03 0.05,-0.06 0.07,-0.1 0.02,-0.03 0.03,-0.07 0.04,-0.11 0.01,-0.05 0.02,-0.09 0.02,-0.14 0,-0.1 -0.02,-0.18 -0.06,-0.26 -0.02,-0.03 -0.04,-0.07 -0.07,-0.1 -0.03,-0.02 -0.06,-0.05 -0.09,-0.07 -0.04,-0.02 -0.08,-0.04 -0.12,-0.05 -0.04,-0.01 -0.08,-0.01 -0.12,-0.01 -0.05,0 -0.09,0 -0.13,0.01 -0.04,0.01 -0.08,0.03 -0.12,0.05 -0.03,0.02 -0.06,0.05 -0.09,0.07 -0.03,0.03 -0.05,0.07 -0.07,0.1 -0.02,0.04 -0.04,0.08 -0.05,0.12 -0.01,0.05 -0.01,0.09 -0.01,0.14 0,0.05 0,0.09 0.01,0.14 0.01,0.04 0.03,0.08 0.05,0.11 0.02,0.04 0.04,0.07 0.07,0.1 0.03,0.03 0.06,0.06 0.09,0.08 0.04,0.02 0.08,0.03 0.12,0.04 0.04,0.01 0.08,0.02 0.13,0.02zm1.92 0.27c-0.06,0 -0.12,0 -0.18,-0.02l0 0c-0.05,-0.01 -0.11,-0.03 -0.16,-0.06 -0.05,-0.03 -0.09,-0.06 -0.13,-0.1 -0.04,-0.04 -0.08,-0.08 -0.1,-0.14 -0.03,-0.05 -0.06,-0.11 -0.07,-0.17 -0.01,-0.07 -0.02,-0.14 -0.02,-0.21l0 -0.66c0,-0.05 0.01,-0.08 0.04,-0.11l0 0c0.02,-0.02 0.03,-0.03 0.05,-0.03 0.02,-0.01 0.04,-0.01 0.06,-0.01 0.02,0 0.04,0 0.06,0.01 0.02,0 0.03,0.01 0.05,0.03l0 0c0.01,0.01 0.02,0.03 0.03,0.05 0.01,0.02 0.01,0.04 0.01,0.06l0 0.66c0,0.05 0.01,0.09 0.01,0.13 0.01,0.04 0.03,0.08 0.05,0.11 0.01,0.03 0.04,0.06 0.06,0.08 0.02,0.03 0.05,0.05 0.08,0.06 0.03,0.02 0.07,0.03 0.1,0.04 0.04,0 0.08,0.01 0.12,0.01 0.03,0 0.07,-0.01 0.1,-0.01 0.04,-0.01 0.07,-0.02 0.1,-0.04 0.02,-0.01 0.05,-0.03 0.07,-0.05 0.03,-0.02 0.05,-0.04 0.06,-0.07 0.02,-0.02 0.03,-0.05 0.04,-0.08 0.01,-0.02 0.02,-0.05 0.02,-0.08l0 -0.76c0,-0.03 0,-0.05 0.01,-0.06 0,-0.02 0.01,-0.04 0.03,-0.05 0.01,-0.02 0.03,-0.03 0.05,-0.03 0.02,-0.01 0.04,-0.01 0.06,-0.01 0.02,0 0.04,0 0.06,0.01 0.02,0 0.03,0.01 0.05,0.03 0.02,0.03 0.04,0.06 0.04,0.11l0 1.2c0,0.02 -0.01,0.04 -0.01,0.06 -0.01,0.02 -0.02,0.03 -0.03,0.05 -0.02,0.01 -0.03,0.02 -0.05,0.03 -0.02,0.01 -0.04,0.01 -0.06,0.01 -0.02,0 -0.04,0 -0.06,-0.01 -0.02,-0.01 -0.04,-0.02 -0.05,-0.03 -0.02,-0.02 -0.03,-0.03 -0.03,-0.05 -0.01,-0.02 -0.01,-0.04 -0.01,-0.06 -0.04,0.03 -0.08,0.06 -0.12,0.08 -0.05,0.03 -0.1,0.05 -0.15,0.06 -0.06,0.02 -0.12,0.02 -0.18,0.02zm2.04 0c-0.07,0 -0.14,-0.01 -0.2,-0.03 -0.06,-0.01 -0.12,-0.04 -0.18,-0.07 -0.06,-0.03 -0.11,-0.07 -0.16,-0.12 -0.04,-0.04 -0.08,-0.1 -0.11,-0.15 -0.04,-0.06 -0.06,-0.12 -0.08,-0.19 -0.02,-0.06 -0.02,-0.13 -0.02,-0.2 0,-0.07 0,-0.14 0.02,-0.21 0.01,-0.06 0.04,-0.12 0.07,-0.18 0.03,-0.06 0.07,-0.11 0.11,-0.15 0.04,-0.05 0.09,-0.09 0.14,-0.12 0.05,-0.04 0.11,-0.06 0.17,-0.08 0.06,-0.01 0.12,-0.02 0.19,-0.02 0.05,0 0.11,0 0.16,0.01 0.05,0.02 0.09,0.03 0.14,0.05 0.05,0.03 0.09,0.05 0.13,0.08 0.02,0.03 0.05,0.05 0.08,0.08l0 -1.14c0,-0.02 0,-0.04 0.01,-0.06 0,-0.02 0.01,-0.03 0.03,-0.05 0.01,-0.01 0.03,-0.02 0.05,-0.03 0.02,0 0.04,-0.01 0.06,-0.01 0.02,0 0.04,0.01 0.06,0.01 0.02,0.01 0.03,0.02 0.05,0.03l0 0c0.01,0.02 0.02,0.03 0.03,0.05 0,0.02 0.01,0.04 0.01,0.06l0 1.68c0,0.07 -0.01,0.14 -0.03,0.2 -0.01,0.07 -0.04,0.13 -0.07,0.19 -0.04,0.05 -0.07,0.11 -0.12,0.15 -0.04,0.05 -0.1,0.09 -0.15,0.12 -0.06,0.03 -0.12,0.06 -0.18,0.07 -0.07,0.02 -0.14,0.03 -0.21,0.03zm0 -0.27c0.09,0 0.17,-0.02 0.24,-0.06 0.04,-0.03 0.07,-0.05 0.09,-0.08 0.03,-0.03 0.06,-0.06 0.08,-0.1 0.02,-0.04 0.03,-0.08 0.04,-0.12 0.01,-0.04 0.02,-0.09 0.02,-0.13 0,-0.1 -0.02,-0.18 -0.06,-0.25 -0.02,-0.04 -0.05,-0.07 -0.07,-0.1 -0.03,-0.03 -0.06,-0.06 -0.1,-0.08 -0.03,-0.02 -0.07,-0.04 -0.11,-0.05 -0.04,-0.01 -0.08,-0.01 -0.13,-0.01 -0.04,0 -0.08,0 -0.12,0.01 -0.04,0.01 -0.08,0.03 -0.11,0.05 -0.04,0.02 -0.07,0.05 -0.1,0.08 -0.03,0.03 -0.05,0.06 -0.07,0.1 -0.02,0.03 -0.04,0.07 -0.05,0.11 -0.01,0.05 -0.01,0.09 -0.01,0.14 0,0.04 0,0.09 0.01,0.13 0.01,0.04 0.03,0.08 0.05,0.12 0.02,0.04 0.04,0.07 0.07,0.1 0.03,0.03 0.06,0.05 0.1,0.08 0.07,0.04 0.15,0.06 0.23,0.06z"/>
   <path class="fil1" d="M2.85 0.98c0.26,-0.65 -0.51,-1.24 -1.06,-0.83 -0.51,0.38 -0.06,1.09 -0.86,1.33 -0.2,0.06 -0.28,0.03 -0.5,0.1 -0.22,0.08 -0.46,0.35 -0.43,0.71 0.03,0.28 0.21,0.47 0.4,0.55 0.19,0.07 0.27,0.05 0.49,0.1 0.27,0.06 0.47,0.26 0.56,0.51 0.14,0.38 -0.01,0.53 0.31,0.81 0.19,0.17 0.57,0.21 0.82,0.04 0.53,-0.37 0.36,-1.2 -0.32,-1.28 -0.37,-0.04 -0.58,-0.13 -0.73,-0.37 -0.16,-0.25 -0.18,-0.55 -0.03,-0.83 0.36,-0.64 1.06,-0.15 1.35,-0.84z"/>
   <path class="fil2" d="M0 1.39c0.3,-0.26 0.67,-0.03 0.93,-0.33 0.32,-0.31 0.22,-0.92 0.17,-0.98 -0.06,-0.07 -0.1,-0.07 -0.18,-0.07 -0.2,0 -0.51,0 -0.64,0 -0.22,0 -0.28,0.04 -0.28,0.33l0 0.27c0,0.26 0,0.52 0,0.78z"/>
   <path class="fil1" d="M0 3.03c0.3,0.27 0.67,0.03 0.93,0.33 0.32,0.32 0.22,0.92 0.17,0.99 -0.06,0.06 -0.1,0.06 -0.18,0.06 -0.2,0 -0.51,0 -0.64,0 -0.22,0 -0.28,-0.03 -0.28,-0.33l0 -0.27c0,-0.26 0,-0.52 0,-0.78z"/>
   <path class="fil3" d="M3.72 2.13c-0.02,0 -0.04,0 -0.06,-0.01 -0.02,0 -0.03,-0.01 -0.05,-0.03 -0.01,-0.01 -0.02,-0.03 -0.03,-0.05 -0.01,-0.02 -0.01,-0.04 -0.01,-0.06l0 -1.83c0,-0.02 0,-0.04 0.01,-0.06 0.01,-0.01 0.02,-0.03 0.03,-0.05 0.02,-0.01 0.03,-0.02 0.05,-0.03 0.02,-0.01 0.04,-0.01 0.06,-0.01 0.02,0 0.04,0 0.06,0.01 0.02,0.01 0.03,0.02 0.05,0.03 0.01,0.02 0.03,0.04 0.03,0.05 0.01,0.02 0.01,0.04 0.01,0.06l0 0.78 0.87 -0.87c0.01,-0.01 0.03,-0.02 0.04,-0.03 0.01,-0.01 0.02,-0.01 0.03,-0.02l0 0c0.01,0 0.02,0 0.03,-0.01 0.01,0 0.02,0 0.03,0 0.02,0 0.04,0 0.06,0.01 0.02,0.01 0.04,0.02 0.05,0.04 0.01,0.01 0.02,0.03 0.02,0.05 0,0.01 0,0.03 0,0.05l0 0c0,0.02 -0.01,0.04 -0.02,0.06 -0.01,0.02 -0.02,0.03 -0.03,0.05l-0.68 0.68 0.69 0.95c0.01,0.02 0.02,0.03 0.03,0.05 0,0.02 0,0.04 0,0.06 0,0.02 -0.01,0.03 -0.01,0.05 -0.01,0.02 -0.02,0.03 -0.03,0.04 -0.01,0.02 -0.03,0.03 -0.04,0.03 -0.02,0.01 -0.04,0.01 -0.06,0.01 -0.02,0 -0.05,0 -0.07,-0.01 -0.02,-0.01 -0.04,-0.03 -0.05,-0.05l-0.68 -0.91 -0.18 0.18 0 0.64c0,0.02 0,0.04 -0.01,0.06 0,0.02 -0.02,0.04 -0.03,0.05 -0.03,0.03 -0.07,0.04 -0.11,0.04zm1.8 0c-0.05,0 -0.08,-0.01 -0.11,-0.04l0 0c-0.02,-0.01 -0.03,-0.03 -0.03,-0.05 -0.01,-0.02 -0.01,-0.04 -0.01,-0.06l0 -1.2c0,-0.02 0,-0.04 0.01,-0.06 0,-0.02 0.01,-0.03 0.03,-0.05 0.01,-0.01 0.03,-0.02 0.05,-0.03 0.02,-0.01 0.04,-0.01 0.06,-0.01 0.02,0 0.04,0 0.06,0.01 0.02,0.01 0.03,0.02 0.05,0.03 0.01,0.02 0.02,0.03 0.03,0.05 0,0.02 0.01,0.04 0.01,0.06l0 1.2c0,0.02 -0.01,0.04 -0.01,0.06 -0.01,0.02 -0.02,0.04 -0.03,0.05 -0.02,0.02 -0.03,0.03 -0.05,0.03 -0.02,0.01 -0.04,0.01 -0.06,0.01zm1.18 0c-0.04,0 -0.09,0 -0.13,-0.01 -0.04,-0.01 -0.08,-0.03 -0.12,-0.06 -0.03,-0.02 -0.07,-0.05 -0.1,-0.08 -0.02,-0.03 -0.05,-0.07 -0.07,-0.11 -0.02,-0.04 -0.04,-0.08 -0.05,-0.13 -0.01,-0.04 -0.01,-0.09 -0.01,-0.14l0 -0.66 -0.11 0c-0.03,0 -0.04,0 -0.06,0 -0.02,-0.01 -0.03,-0.02 -0.05,-0.03 -0.01,-0.01 -0.02,-0.03 -0.03,-0.04 0,-0.02 -0.01,-0.03 -0.01,-0.05 0,-0.02 0.01,-0.04 0.01,-0.06 0.01,-0.01 0.02,-0.03 0.03,-0.04 0.02,-0.01 0.03,-0.02 0.05,-0.03 0.02,0 0.03,0 0.06,0l0.11 0 0 -0.38c0,-0.02 0,-0.04 0.01,-0.06 0,-0.02 0.01,-0.03 0.03,-0.05 0.01,-0.01 0.03,-0.02 0.05,-0.03 0.01,0 0.03,-0.01 0.05,-0.01 0.03,0 0.05,0.01 0.06,0.01 0.02,0.01 0.04,0.02 0.05,0.03l0 0c0.01,0.02 0.03,0.03 0.03,0.05 0.01,0.02 0.01,0.04 0.01,0.06l0 0.38 0.22 0c0.02,0 0.04,0 0.05,0 0.02,0.01 0.04,0.02 0.05,0.03 0.01,0.01 0.02,0.03 0.03,0.04 0.01,0.02 0.01,0.04 0.01,0.06 0,0.02 0,0.03 -0.01,0.05 -0.01,0.01 -0.02,0.03 -0.03,0.04 -0.01,0.01 -0.03,0.02 -0.05,0.03 -0.01,0 -0.03,0 -0.05,0l-0.22 0 0 0.66c0,0.03 0.01,0.06 0.02,0.09 0.01,0.03 0.02,0.06 0.04,0.08 0.02,0.02 0.04,0.04 0.06,0.05 0.02,0.01 0.05,0.02 0.07,0.02l0.1 0c0.01,0 0.03,0 0.05,0.01 0.01,0.01 0.03,0.02 0.04,0.03l0 0c0.01,0.01 0.02,0.03 0.03,0.05 0,0.02 0.01,0.03 0.01,0.06 0,0.02 -0.01,0.04 -0.02,0.06 -0.01,0.01 -0.02,0.03 -0.03,0.04 -0.02,0.02 -0.04,0.03 -0.06,0.03 -0.02,0.01 -0.04,0.01 -0.07,0.01l-0.05 0zm1.16 0.02c-0.06,0 -0.13,-0.01 -0.19,-0.03 -0.06,-0.02 -0.11,-0.04 -0.17,-0.08 -0.05,-0.03 -0.1,-0.07 -0.14,-0.11 -0.04,-0.05 -0.08,-0.1 -0.11,-0.16 -0.03,-0.05 -0.05,-0.12 -0.07,-0.18 -0.01,-0.07 -0.02,-0.13 -0.02,-0.21 0,-0.07 0.01,-0.14 0.02,-0.2 0.02,-0.07 0.05,-0.13 0.08,-0.19 0.03,-0.05 0.07,-0.1 0.12,-0.15 0.04,-0.05 0.09,-0.09 0.15,-0.12 0.06,-0.03 0.12,-0.06 0.18,-0.07 0.07,-0.02 0.14,-0.03 0.21,-0.03 0.07,0 0.14,0.01 0.2,0.03 0.07,0.01 0.13,0.04 0.18,0.07 0.06,0.03 0.11,0.07 0.16,0.12 0.04,0.05 0.08,0.1 0.11,0.15 0.04,0.06 0.06,0.12 0.08,0.19 0.01,0.06 0.02,0.13 0.02,0.2l0 0 0 0.61c0,0.02 0,0.04 -0.01,0.06 0,0.01 -0.01,0.03 -0.03,0.04 -0.01,0.02 -0.03,0.03 -0.05,0.04 -0.02,0 -0.04,0.01 -0.06,0.01 -0.02,0 -0.04,-0.01 -0.06,-0.01 -0.02,-0.01 -0.03,-0.02 -0.05,-0.04l0 0c-0.01,-0.01 -0.02,-0.03 -0.03,-0.04 -0.01,-0.02 -0.01,-0.04 -0.01,-0.06l0 -0.07 0 0.01c-0.04,0.04 -0.09,0.08 -0.15,0.11 -0.05,0.04 -0.11,0.06 -0.17,0.08 -0.06,0.02 -0.12,0.03 -0.19,0.03zm0.06 -0.27c0.04,0 0.08,-0.01 0.12,-0.02 0.04,-0.01 0.08,-0.03 0.12,-0.05 0.03,-0.02 0.06,-0.05 0.09,-0.07 0.03,-0.03 0.05,-0.07 0.07,-0.1 0.02,-0.04 0.04,-0.08 0.05,-0.12 0.01,-0.04 0.01,-0.09 0.01,-0.14 0,-0.09 -0.02,-0.18 -0.06,-0.25 -0.02,-0.04 -0.04,-0.07 -0.07,-0.1 -0.03,-0.03 -0.06,-0.05 -0.09,-0.07 -0.04,-0.03 -0.08,-0.04 -0.12,-0.05 -0.04,-0.01 -0.08,-0.02 -0.12,-0.02 -0.05,0 -0.09,0.01 -0.13,0.02 -0.04,0.01 -0.07,0.02 -0.11,0.05l0 0c-0.03,0.02 -0.07,0.04 -0.09,0.07 -0.03,0.03 -0.06,0.06 -0.08,0.1 -0.02,0.04 -0.03,0.08 -0.04,0.12 -0.01,0.04 -0.02,0.09 -0.02,0.13 0,0.05 0.01,0.1 0.02,0.14 0.01,0.04 0.02,0.08 0.04,0.12l0 0c0.02,0.03 0.05,0.07 0.08,0.1 0.02,0.02 0.06,0.05 0.09,0.07 0.04,0.02 0.07,0.04 0.11,0.05 0.04,0.01 0.08,0.02 0.13,0.02zm1.43 -1.08c0.01,-0.01 0.01,-0.01 0.02,-0.02 0.03,-0.03 0.07,-0.06 0.12,-0.09 0.05,-0.02 0.09,-0.04 0.14,-0.06 0.06,-0.01 0.11,-0.01 0.16,-0.01 0.06,0 0.11,0 0.15,0.01 0.04,0.01 0.07,0.02 0.1,0.04 0.03,0.02 0.05,0.04 0.06,0.06 0.01,0.03 0.02,0.05 0.01,0.08 0,0.01 -0.01,0.03 -0.01,0.04 -0.01,0.01 -0.02,0.02 -0.03,0.03l0 0c-0.01,0 -0.01,0.01 -0.02,0.01 -0.01,0.01 -0.02,0.01 -0.04,0.01 -0.01,0.01 -0.02,0.01 -0.03,0.01 -0.01,0 -0.02,-0.01 -0.04,-0.01 -0.05,-0.01 -0.11,-0.02 -0.16,-0.02 -0.05,0 -0.1,0.01 -0.14,0.02l0 0c-0.05,0.01 -0.08,0.02 -0.12,0.04 -0.04,0.02 -0.07,0.04 -0.09,0.06 -0.05,0.05 -0.08,0.12 -0.08,0.2l0 0.79c0,0.02 0,0.04 -0.01,0.06 0,0.02 -0.01,0.03 -0.02,0.05 -0.02,0.01 -0.03,0.02 -0.05,0.03 -0.02,0 -0.04,0 -0.06,0 -0.03,0 -0.05,0 -0.07,0 -0.02,-0.01 -0.03,-0.02 -0.04,-0.03 -0.02,-0.02 -0.03,-0.03 -0.03,-0.05 -0.01,-0.02 -0.01,-0.04 -0.01,-0.06l0 -1.21c0,-0.02 0,-0.04 0.01,-0.06 0,-0.02 0.01,-0.04 0.03,-0.05 0.01,-0.01 0.02,-0.02 0.04,-0.03 0.02,-0.01 0.04,-0.01 0.07,-0.01 0.02,0 0.04,0 0.06,0.01 0.02,0.01 0.03,0.02 0.05,0.03 0.02,0.02 0.03,0.06 0.03,0.11l0 0.02zm1.54 1.35c-0.07,0 -0.13,-0.01 -0.19,-0.03 -0.06,-0.02 -0.12,-0.04 -0.17,-0.08 -0.06,-0.03 -0.1,-0.07 -0.14,-0.11 -0.05,-0.05 -0.08,-0.1 -0.11,-0.16 -0.03,-0.05 -0.06,-0.12 -0.07,-0.18 -0.02,-0.07 -0.03,-0.13 -0.03,-0.21 0,-0.07 0.01,-0.14 0.03,-0.2 0.02,-0.07 0.04,-0.13 0.07,-0.19 0.04,-0.05 0.08,-0.1 0.12,-0.15 0.05,-0.05 0.1,-0.09 0.16,-0.12 0.05,-0.03 0.11,-0.06 0.18,-0.07 0.06,-0.02 0.13,-0.03 0.2,-0.03 0.07,0 0.14,0.01 0.21,0.03 0.06,0.01 0.12,0.04 0.18,0.07 0.05,0.03 0.11,0.07 0.15,0.12 0.05,0.05 0.08,0.1 0.12,0.15 0.03,0.06 0.06,0.12 0.07,0.19 0.02,0.06 0.03,0.13 0.03,0.2l0 0c0,0.2 0,0.4 0,0.61 0,0.02 -0.01,0.04 -0.01,0.06 -0.01,0.01 -0.02,0.03 -0.03,0.04 -0.02,0.02 -0.04,0.03 -0.05,0.04 -0.02,0 -0.04,0.01 -0.06,0.01 -0.02,0 -0.04,-0.01 -0.06,-0.01 -0.02,-0.01 -0.04,-0.02 -0.05,-0.04l0 0c-0.02,-0.01 -0.03,-0.03 -0.03,-0.04 -0.01,-0.02 -0.01,-0.04 -0.01,-0.06l0 -0.07 -0.01 0.01c-0.04,0.04 -0.09,0.08 -0.14,0.11 -0.05,0.04 -0.11,0.06 -0.17,0.08 -0.06,0.02 -0.12,0.03 -0.19,0.03zm0.05 -0.27c0.05,0 0.09,-0.01 0.13,-0.02 0.04,-0.01 0.08,-0.03 0.11,-0.05 0.04,-0.02 0.07,-0.05 0.09,-0.07 0.03,-0.03 0.06,-0.07 0.08,-0.1 0.02,-0.04 0.03,-0.08 0.04,-0.12 0.01,-0.04 0.02,-0.09 0.02,-0.14 0,-0.09 -0.02,-0.18 -0.06,-0.25 -0.02,-0.04 -0.05,-0.07 -0.08,-0.1 -0.02,-0.03 -0.05,-0.05 -0.09,-0.07 -0.03,-0.03 -0.07,-0.04 -0.11,-0.05 -0.04,-0.01 -0.08,-0.02 -0.13,-0.02 -0.04,0 -0.08,0.01 -0.12,0.02 -0.04,0.01 -0.08,0.02 -0.11,0.05l0 0c-0.04,0.02 -0.07,0.04 -0.1,0.07 -0.03,0.03 -0.05,0.06 -0.07,0.1 -0.02,0.04 -0.04,0.08 -0.05,0.12 -0.01,0.04 -0.01,0.09 -0.01,0.13 0,0.05 0,0.1 0.01,0.14 0.01,0.04 0.03,0.08 0.05,0.12l0 0c0.02,0.03 0.04,0.07 0.07,0.1 0.03,0.02 0.06,0.05 0.1,0.07 0.03,0.02 0.07,0.04 0.11,0.05 0.04,0.01 0.08,0.02 0.12,0.02z"/>
   <path class="fil3" d="M3.77 5.54c-0.04,0 -0.07,-0.01 -0.1,-0.03 -0.02,-0.01 -0.03,-0.02 -0.04,-0.03 -0.01,-0.01 -0.02,-0.03 -0.03,-0.04 -0.01,-0.02 -0.02,-0.03 -0.02,-0.05 -0.01,-0.02 -0.01,-0.04 -0.01,-0.06 0,-0.02 0,-0.04 0.01,-0.06 0,-0.01 0.01,-0.03 0.02,-0.05 0.01,-0.01 0.02,-0.03 0.03,-0.04 0.01,-0.01 0.03,-0.02 0.04,-0.03 0.04,-0.02 0.07,-0.03 0.11,-0.03 0.04,0 0.08,0.01 0.11,0.03 0.01,0.01 0.03,0.02 0.04,0.03 0.01,0.01 0.02,0.03 0.03,0.04 0.01,0.02 0.02,0.04 0.02,0.05 0.01,0.02 0.01,0.04 0.01,0.06l0 0.17c0,0.01 -0.01,0.02 -0.01,0.03 -0.01,0 -0.01,0 -0.02,0.01 0,0 -0.01,0 -0.01,0 -0.01,0 -0.02,-0.01 -0.03,-0.01 -0.01,-0.01 -0.01,-0.02 -0.01,-0.03l0 -0.03c0,0.01 0,0.01 -0.01,0.01 -0.01,0.01 -0.02,0.02 -0.04,0.03 -0.01,0.01 -0.03,0.02 -0.04,0.02 -0.02,0.01 -0.04,0.01 -0.05,0.01zm0.01 -0.07c0.03,0 0.05,-0.01 0.07,-0.02 0.01,0 0.02,-0.01 0.02,-0.02 0.01,-0.01 0.02,-0.02 0.03,-0.03 0,-0.01 0.01,-0.02 0.01,-0.03 0,-0.01 0,-0.03 0,-0.04 0,-0.03 0,-0.05 -0.01,-0.07 -0.01,-0.01 -0.02,-0.02 -0.03,-0.03 0,-0.01 -0.01,-0.01 -0.02,-0.02 -0.02,-0.01 -0.04,-0.02 -0.07,-0.02 -0.02,0 -0.05,0.01 -0.07,0.02 -0.01,0.01 -0.02,0.01 -0.02,0.02 -0.01,0.01 -0.02,0.02 -0.02,0.03 -0.01,0.01 -0.01,0.02 -0.02,0.03 0,0.01 0,0.03 0,0.04 0,0.03 0,0.05 0.02,0.07 0,0.01 0.01,0.02 0.02,0.03 0,0.01 0.01,0.02 0.02,0.02 0.02,0.01 0.05,0.02 0.07,0.02zm0.61 0.07c-0.02,0 -0.04,-0.01 -0.06,-0.02 -0.02,-0.01 -0.03,-0.03 -0.04,-0.05 0,-0.01 -0.01,-0.02 -0.01,-0.03 0,-0.02 0,-0.03 0,-0.04l0 -0.41c0,-0.01 0,-0.01 0,-0.02 0,0 0,-0.01 0.01,-0.01 0,0 0.01,-0.01 0.01,-0.01 0,0 0.01,0 0.02,0 0,0 0.01,0 0.01,0 0.01,0 0.01,0.01 0.01,0.01 0.01,0 0.01,0.01 0.01,0.01 0,0.01 0,0.01 0,0.02l0 0.41c0,0.02 0.01,0.03 0.02,0.04 0,0.01 0,0.01 0.01,0.01 0,0.01 0.01,0.01 0.01,0.01l0.02 0c0.01,0 0.02,0 0.03,0.01 0,0 0,0.01 0,0.01 0,0.01 0,0.01 0,0.02 0,0 0,0.01 0,0.01 0,0.01 -0.01,0.01 -0.01,0.02 0,0 -0.01,0 -0.02,0 0,0.01 -0.01,0.01 -0.02,0.01l0 0zm0.39 0c0,0 -0.01,0 -0.01,0 0,-0.01 -0.01,-0.01 -0.01,-0.01 0,0 -0.01,-0.01 -0.01,-0.01 0,0 0,0 -0.01,-0.01l-0.11 -0.33c0,-0.01 0,-0.02 0,-0.02 0,-0.01 0,-0.02 0,-0.02 0.01,-0.01 0.01,-0.01 0.02,-0.01 0,-0.01 0.01,-0.01 0.01,-0.01 0.01,0 0.01,0 0.02,0.01 0,0 0.01,0 0.01,0 0,0 0,0.01 0.01,0.01 0,0.01 0,0.01 0,0.02l0.08 0.25 0.08 -0.26c0,0 0,-0.01 0,-0.01 0.01,0 0.01,-0.01 0.01,-0.01 0.01,0 0.01,0 0.01,0 0.01,-0.01 0.01,-0.01 0.02,-0.01 0,0 0.01,0 0.01,0.01 0.01,0 0.01,0 0.01,0 0.01,0 0.01,0.01 0.01,0.01 0,0 0.01,0.01 0.01,0.01l0.06 0.26 0.08 -0.25c0.01,-0.01 0.01,-0.02 0.02,-0.03 0.01,0 0.01,-0.01 0.02,-0.01 0.01,0 0.02,0 0.02,0.01 0.01,0 0.01,0 0.01,0.01 0.01,0 0.01,0.01 0.01,0.02 0,0 0,0.01 -0.01,0.02l-0.11 0.33c0,0 0,0.01 0,0.01 -0.01,0 -0.01,0.01 -0.01,0.01 0,0 -0.01,0 -0.01,0.01 -0.01,0 -0.01,0 -0.01,0 -0.01,0 -0.01,0 -0.02,0 0,-0.01 0,-0.01 -0.01,-0.01 0,0 0,-0.01 -0.01,-0.01 0,0 0,-0.01 0,-0.01l-0.07 -0.27 -0.08 0.27c0,0 0,0.01 -0.01,0.01 0,0 0,0.01 0,0.01 -0.01,0 -0.01,0 -0.02,0.01 0,0 0,0 -0.01,0zm0.8 0c-0.03,0 -0.07,-0.01 -0.1,-0.03 -0.01,-0.01 -0.02,-0.02 -0.04,-0.03 -0.01,-0.01 -0.02,-0.03 -0.03,-0.04 0,-0.02 -0.01,-0.03 -0.02,-0.05 0,-0.02 0,-0.04 0,-0.06 0,-0.02 0,-0.04 0.01,-0.06 0,-0.01 0.01,-0.03 0.02,-0.05 0.01,-0.01 0.02,-0.03 0.03,-0.04 0.01,-0.01 0.03,-0.02 0.04,-0.03 0.03,-0.02 0.07,-0.03 0.11,-0.03 0.04,0 0.07,0.01 0.1,0.03 0.02,0.01 0.03,0.02 0.05,0.03 0.01,0.01 0.02,0.03 0.03,0.04 0.01,0.02 0.01,0.04 0.02,0.05 0,0.02 0.01,0.04 0.01,0.06l0 0.17c0,0.01 -0.01,0.02 -0.02,0.03 0,0 0,0 -0.01,0.01 0,0 -0.01,0 -0.01,0 -0.02,0 -0.03,-0.01 -0.03,-0.01 -0.01,-0.01 -0.01,-0.02 -0.01,-0.03l0 -0.03c-0.01,0.01 -0.01,0.01 -0.01,0.01 -0.01,0.01 -0.02,0.02 -0.04,0.03 -0.01,0.01 -0.03,0.02 -0.05,0.02 -0.01,0.01 -0.03,0.01 -0.05,0.01zm0.02 -0.07c0.02,0 0.05,-0.01 0.06,-0.02 0.01,0 0.02,-0.01 0.03,-0.02 0.01,-0.01 0.02,-0.02 0.02,-0.03 0.01,-0.01 0.01,-0.02 0.01,-0.03 0.01,-0.01 0.01,-0.03 0.01,-0.04 0,-0.03 -0.01,-0.05 -0.02,-0.07 0,-0.01 -0.01,-0.02 -0.02,-0.03 -0.01,-0.01 -0.02,-0.01 -0.03,-0.02 -0.01,-0.01 -0.04,-0.02 -0.06,-0.02 -0.03,0 -0.05,0.01 -0.07,0.02 -0.01,0.01 -0.02,0.01 -0.03,0.02 0,0.01 -0.01,0.02 -0.02,0.03 0,0.01 -0.01,0.02 -0.01,0.03 0,0.01 0,0.03 0,0.04 0,0.03 0,0.05 0.01,0.07 0.01,0.01 0.02,0.02 0.02,0.03 0.01,0.01 0.02,0.02 0.03,0.02 0.02,0.01 0.04,0.02 0.07,0.02zm0.58 0.25c0,0 0,0 -0.01,0 0,0 0,-0.01 -0.01,-0.01 -0.01,0 -0.01,-0.01 -0.02,-0.02 0,-0.01 0,-0.02 0.01,-0.03l0.07 -0.16 -0.17 -0.32c0,-0.01 0,-0.01 0,-0.02 0,0 0,-0.01 0,-0.01 0,-0.01 0.01,-0.02 0.02,-0.02 0.01,-0.01 0.02,-0.01 0.03,0 0.01,0 0.01,0.01 0.02,0.02l0.14 0.27 0.11 -0.27c0.02,-0.03 0.03,-0.03 0.05,-0.02 0.03,0.01 0.03,0.02 0.02,0.05l-0.23 0.51c0,0.01 0,0.02 -0.01,0.02 0,0.01 -0.01,0.01 -0.02,0.01zm0.68 -0.18c-0.02,0 -0.04,0 -0.06,0 -0.01,-0.01 -0.03,-0.01 -0.04,-0.02 -0.02,0 -0.03,-0.01 -0.04,-0.01 -0.01,-0.01 -0.02,-0.02 -0.03,-0.03l0 0c-0.01,0 -0.01,-0.01 -0.01,-0.01 0,-0.01 0,-0.01 0,-0.02 0,0 0,-0.01 0,-0.01 0.01,0 0.01,-0.01 0.01,-0.01 0.01,-0.01 0.01,-0.01 0.02,-0.01 0,0 0.01,0 0.01,0 0.01,0 0.01,0 0.02,0 0,0 0.01,0.01 0.01,0.01 0,0.01 0.01,0.01 0.02,0.01 0,0.01 0.01,0.01 0.02,0.02 0.01,0 0.02,0 0.03,0.01 0.01,0 0.02,0 0.03,0 0.02,0 0.03,0 0.04,0 0.01,-0.01 0.02,-0.01 0.03,-0.01 0.01,-0.01 0.01,-0.01 0.02,-0.02 0,-0.01 0,-0.01 0,-0.02 0,-0.01 0,-0.01 0,-0.02 -0.01,-0.01 -0.01,-0.01 -0.02,-0.02 -0.01,0 -0.02,-0.01 -0.03,-0.01 -0.01,-0.01 -0.03,-0.01 -0.05,-0.01 -0.03,-0.01 -0.05,-0.02 -0.07,-0.02 -0.01,-0.01 -0.03,-0.02 -0.04,-0.03 -0.01,-0.01 -0.02,-0.02 -0.03,-0.03 0,-0.02 -0.01,-0.03 -0.01,-0.04 0,-0.02 0.01,-0.03 0.01,-0.04 0,-0.01 0.01,-0.02 0.02,-0.03 0.01,-0.01 0.01,-0.01 0.02,-0.02 0.01,-0.01 0.02,-0.01 0.04,-0.02 0.01,0 0.02,0 0.03,-0.01 0.01,0 0.03,0 0.04,0 0.02,0 0.03,0 0.05,0 0.01,0.01 0.03,0.01 0.04,0.02 0.01,0 0.02,0.01 0.03,0.02 0.01,0 0.02,0.01 0.03,0.02 0,0 0.01,0.01 0.01,0.01 0,0.01 0,0.01 0,0.02 0,0 0,0.01 0,0.01 -0.01,0 -0.01,0.01 -0.01,0.01l0 0c-0.01,0 -0.01,0 -0.02,0.01 0,0 -0.01,0 -0.01,0 -0.01,-0.01 -0.01,-0.01 -0.02,-0.01 0,0 -0.01,0 -0.01,-0.01 -0.01,0 -0.01,-0.01 -0.02,-0.01 -0.01,-0.01 -0.01,-0.01 -0.02,-0.01 -0.01,-0.01 -0.02,-0.01 -0.02,-0.01 -0.01,0 -0.02,0 -0.03,0 -0.02,0 -0.04,0 -0.06,0.01 0,0.01 -0.01,0.01 -0.01,0.01 -0.01,0.01 -0.01,0.02 -0.01,0.02 0,0.01 0,0.01 0,0.02 0,0 0.01,0 0.01,0.01 0,0 0.01,0.01 0.03,0.02 0,0 0.01,0 0.02,0 0.01,0.01 0.02,0.01 0.04,0.01 0.02,0.01 0.03,0.01 0.05,0.02 0.01,0 0.03,0.01 0.04,0.01 0.01,0.01 0.02,0.01 0.02,0.02 0.01,0.01 0.02,0.01 0.02,0.02 0.01,0.01 0.01,0.02 0.01,0.03 0.01,0.01 0.01,0.02 0.01,0.03 0,0.02 -0.01,0.04 -0.02,0.06 -0.01,0.01 -0.01,0.02 -0.02,0.02 -0.01,0.01 -0.02,0.02 -0.03,0.02 -0.02,0.01 -0.03,0.01 -0.05,0.02 -0.01,0 -0.03,0 -0.04,0zm0.74 -0.37c0,0 0.01,0 0.01,0 0.01,-0.01 0.02,-0.02 0.03,-0.03 0.02,-0.01 0.03,-0.01 0.04,-0.02 0.02,0 0.03,0 0.05,0 0.01,0 0.03,0 0.04,0 0.01,0.01 0.02,0.01 0.02,0.01 0.01,0.01 0.02,0.01 0.02,0.02 0,0.01 0,0.01 0,0.02 0,0 0,0.01 0,0.01 0,0 0,0.01 -0.01,0.01 0,0 0,0 0,0 -0.01,0 -0.01,0 -0.01,0 -0.01,0.01 -0.01,0.01 -0.02,0 -0.03,0 -0.06,0 -0.09,0 -0.01,0.01 -0.02,0.01 -0.03,0.01 -0.01,0.01 -0.02,0.02 -0.03,0.02 0,0.01 -0.01,0.02 -0.01,0.03 -0.01,0.01 -0.01,0.02 -0.01,0.03l0 0.22c0,0 0,0.01 0,0.01 0,0.01 0,0.01 -0.01,0.02 0,0 -0.01,0.01 -0.03,0.01 -0.01,0 -0.02,-0.01 -0.03,-0.01 0,-0.01 -0.01,-0.02 -0.01,-0.03l0 -0.34c0,-0.01 0.01,-0.02 0.01,-0.03 0.01,0 0.02,-0.01 0.03,-0.01 0.02,0 0.03,0.01 0.03,0.01 0.01,0.01 0.01,0.01 0.01,0.02 0,0 0,0.01 0,0.01l0 0.01zm0.65 0.37c-0.03,0 -0.05,0 -0.06,-0.01 -0.02,0 -0.04,-0.01 -0.06,-0.02 -0.01,-0.01 -0.03,-0.02 -0.04,-0.03 -0.01,-0.01 -0.02,-0.03 -0.03,-0.04 -0.01,-0.02 -0.02,-0.03 -0.02,-0.05 -0.01,-0.02 -0.01,-0.04 -0.01,-0.06 0,-0.02 0,-0.04 0.01,-0.06 0,-0.02 0.01,-0.03 0.02,-0.05 0,-0.01 0.01,-0.03 0.03,-0.04 0.01,-0.01 0.02,-0.02 0.04,-0.03 0.01,-0.01 0.03,-0.02 0.05,-0.02 0.02,-0.01 0.03,-0.01 0.05,-0.01 0.02,0 0.04,0 0.06,0.01 0.02,0 0.03,0.01 0.05,0.02 0.01,0.01 0.02,0.02 0.03,0.03 0.01,0.01 0.02,0.02 0.03,0.04 0.01,0.01 0.01,0.03 0.02,0.05 0,0.02 0,0.03 0,0.05 0,0.01 0,0.02 -0.01,0.03 0,0 -0.01,0 -0.01,0.01 0,0 -0.01,0 -0.01,0l-0.29 0c0,0 0,0.01 0,0.01 0.01,0.01 0.01,0.02 0.02,0.03 0.01,0.01 0.01,0.02 0.02,0.03 0.01,0.01 0.02,0.02 0.03,0.02 0.01,0.01 0.02,0.01 0.04,0.02 0.01,0 0.02,0 0.04,0 0.01,0 0.03,0 0.04,-0.01 0.02,0 0.03,-0.01 0.04,-0.02 0.01,0 0.01,0 0.01,0 0.01,0 0.01,0 0.02,0 0,0 0.01,0 0.01,0 0,0 0.01,0 0.01,0 0,0.01 0.01,0.01 0.01,0.02 0,0 0,0 0,0.01 0,0 0,0.01 0,0.01 0,0.01 0,0.01 -0.01,0.01 -0.01,0.01 -0.02,0.02 -0.03,0.02 -0.01,0.01 -0.02,0.01 -0.03,0.02 -0.01,0 -0.03,0 -0.04,0.01 -0.01,0 -0.02,0 -0.03,0zm-0.15 -0.24l0.25 0c0,-0.01 0,-0.01 0,-0.02 0,-0.01 -0.01,-0.02 -0.01,-0.03 -0.01,-0.01 -0.01,-0.02 -0.02,-0.02 -0.01,-0.01 -0.01,-0.02 -0.02,-0.02 -0.01,-0.01 -0.02,-0.01 -0.03,-0.02 -0.01,0 -0.02,0 -0.04,0 -0.02,0 -0.05,0 -0.07,0.02 -0.01,0 -0.02,0.01 -0.02,0.02 -0.01,0.01 -0.02,0.02 -0.02,0.03 -0.01,0.01 -0.01,0.02 -0.02,0.03l0 0.01zm0.71 0.24c-0.02,0 -0.04,-0.01 -0.06,-0.02 -0.02,-0.01 -0.03,-0.03 -0.04,-0.05 -0.01,-0.01 -0.01,-0.02 -0.01,-0.03 0,-0.02 -0.01,-0.03 -0.01,-0.04l0 -0.41c0,-0.01 0,-0.01 0.01,-0.02 0,0 0,-0.01 0,-0.01 0.01,0 0.01,-0.01 0.02,-0.01 0,0 0.01,0 0.01,0 0.01,0 0.01,0 0.02,0 0,0 0.01,0.01 0.01,0.01 0,0 0.01,0.01 0.01,0.01 0,0.01 0,0.01 0,0.02l0 0.41c0,0.02 0.01,0.03 0.01,0.04 0.01,0.01 0.01,0.01 0.01,0.01 0.01,0.01 0.01,0.01 0.02,0.01l0.02 0c0.01,0 0.02,0 0.02,0.01 0.01,0 0.01,0.01 0.01,0.01 0,0.01 0,0.01 0,0.02 0,0 0,0.01 0,0.01 0,0.01 -0.01,0.01 -0.01,0.02 -0.01,0 -0.01,0 -0.02,0 -0.01,0.01 -0.01,0.01 -0.02,0.01l0 0zm0.36 0c-0.01,0 -0.02,-0.01 -0.03,-0.01 0,-0.01 0,-0.01 0,-0.02 -0.01,0 -0.01,-0.01 -0.01,-0.01l0 -0.34c0,0 0,-0.01 0.01,-0.01 0,-0.01 0,-0.01 0,-0.02 0.01,0 0.01,0 0.02,0 0,-0.01 0.01,-0.01 0.01,-0.01 0.02,0 0.02,0.01 0.03,0.01 0.01,0.01 0.01,0.02 0.01,0.03l0 0.34c0,0.01 0,0.02 -0.01,0.03 -0.01,0 -0.01,0.01 -0.03,0.01zm0 -0.48c0,0 -0.01,0 -0.02,0 0,-0.01 -0.01,-0.01 -0.01,-0.02 -0.01,0 -0.01,-0.01 -0.01,-0.01 -0.01,-0.01 -0.01,-0.01 -0.01,-0.02 0,-0.01 0,-0.01 0.01,-0.02 0,-0.01 0,-0.01 0.01,-0.02 0.01,-0.01 0.02,-0.01 0.03,-0.01 0.01,0 0.02,0 0.02,0 0.01,0 0.01,0.01 0.02,0.01 0.01,0.01 0.01,0.02 0.01,0.04 0,0.01 0,0.01 0,0.02 0,0 -0.01,0.01 -0.01,0.01 -0.01,0.01 -0.01,0.01 -0.02,0.02 0,0 -0.01,0 -0.02,0zm0.55 0.48c-0.04,0 -0.07,-0.01 -0.1,-0.03 -0.02,-0.01 -0.03,-0.02 -0.04,-0.03 -0.01,-0.01 -0.02,-0.03 -0.03,-0.04 -0.01,-0.02 -0.02,-0.03 -0.02,-0.05 0,-0.02 -0.01,-0.04 -0.01,-0.06 0,-0.02 0.01,-0.04 0.01,-0.06 0,-0.01 0.01,-0.03 0.02,-0.05 0.01,-0.01 0.02,-0.03 0.03,-0.04 0.02,-0.01 0.03,-0.02 0.05,-0.03 0.03,-0.02 0.06,-0.03 0.1,-0.03 0.04,0 0.08,0.01 0.11,0.03 0.01,0.01 0.03,0.02 0.04,0.03 0.01,0.01 0.02,0.03 0.03,0.04 0.01,0.02 0.02,0.04 0.02,0.05 0.01,0.02 0.01,0.04 0.01,0.06l0 0.17c0,0.01 0,0.02 -0.01,0.03 -0.01,0 -0.01,0 -0.01,0.01 -0.01,0 -0.01,0 -0.02,0 -0.01,0 -0.02,-0.01 -0.03,-0.01 -0.01,-0.01 -0.01,-0.02 -0.01,-0.03l0 -0.03c0,0.01 0,0.01 0,0.01 -0.02,0.01 -0.03,0.02 -0.04,0.03 -0.02,0.01 -0.03,0.02 -0.05,0.02 -0.02,0.01 -0.03,0.01 -0.05,0.01zm0.01 -0.07c0.03,0 0.05,-0.01 0.07,-0.02 0.01,0 0.02,-0.01 0.03,-0.02 0,-0.01 0.01,-0.02 0.02,-0.03 0,-0.01 0.01,-0.02 0.01,-0.03 0,-0.01 0,-0.03 0,-0.04 0,-0.03 0,-0.05 -0.01,-0.07 -0.01,-0.01 -0.02,-0.02 -0.02,-0.03 -0.01,-0.01 -0.02,-0.01 -0.03,-0.02 -0.02,-0.01 -0.04,-0.02 -0.07,-0.02 -0.02,0 -0.05,0.01 -0.07,0.02 -0.01,0.01 -0.01,0.01 -0.02,0.02 -0.01,0.01 -0.02,0.02 -0.02,0.03 -0.01,0.01 -0.01,0.02 -0.02,0.03 0,0.01 0,0.03 0,0.04 0,0.03 0.01,0.05 0.02,0.07 0,0.01 0.01,0.02 0.02,0.03 0.01,0.01 0.01,0.02 0.02,0.02 0.02,0.01 0.05,0.02 0.07,0.02zm0.72 0.07c-0.04,0 -0.07,-0.01 -0.1,-0.03 -0.02,-0.01 -0.03,-0.02 -0.05,-0.03 -0.01,-0.01 -0.02,-0.03 -0.03,-0.04 -0.02,-0.03 -0.03,-0.07 -0.03,-0.11l0 -0.34c0,-0.01 0.01,-0.02 0.01,-0.03 0.01,0 0.01,-0.01 0.02,-0.01 0,0 0.01,0 0.01,0 0.01,0 0.01,0 0.02,0 0,0 0.01,0.01 0.01,0.01 0.01,0 0.01,0.01 0.01,0.01 0,0.01 0,0.01 0,0.02l0 0.2c0.01,-0.01 0.02,-0.02 0.03,-0.03 0.01,-0.01 0.02,-0.01 0.03,-0.02 0.02,-0.01 0.03,-0.01 0.04,-0.01 0.02,-0.01 0.03,-0.01 0.05,-0.01 0.03,0 0.07,0.01 0.1,0.03 0.01,0.01 0.02,0.02 0.03,0.03 0.02,0.01 0.03,0.03 0.03,0.04 0.01,0.02 0.02,0.04 0.02,0.05 0.01,0.02 0.01,0.04 0.01,0.06 0,0.04 -0.01,0.08 -0.03,0.11 -0.01,0.01 -0.02,0.03 -0.03,0.04 -0.01,0.01 -0.03,0.02 -0.04,0.03 -0.03,0.02 -0.07,0.03 -0.11,0.03zm0 -0.07c0.03,0 0.05,-0.01 0.07,-0.02 0.01,0 0.02,-0.01 0.03,-0.02 0,-0.01 0.01,-0.02 0.02,-0.03 0,-0.01 0.01,-0.02 0.01,-0.03 0,-0.01 0,-0.03 0,-0.04 0,-0.01 0,-0.03 0,-0.04 0,-0.01 -0.01,-0.02 -0.01,-0.03 -0.02,-0.02 -0.03,-0.04 -0.05,-0.05 -0.01,-0.01 -0.02,-0.01 -0.03,-0.01 -0.01,-0.01 -0.03,-0.01 -0.04,-0.01 -0.02,0 -0.05,0.01 -0.07,0.02 -0.02,0.01 -0.03,0.03 -0.04,0.05 -0.01,0.01 -0.01,0.02 -0.02,0.03 0,0.01 0,0.03 0,0.04 0,0.01 0,0.03 0,0.04 0.01,0.01 0.01,0.02 0.02,0.03 0,0.01 0.01,0.02 0.02,0.03 0,0.01 0.01,0.02 0.02,0.02 0.02,0.01 0.05,0.02 0.07,0.02zm0.61 0.07c-0.02,0 -0.04,-0.01 -0.06,-0.02 -0.01,-0.01 -0.03,-0.03 -0.04,-0.05 0,-0.01 -0.01,-0.02 -0.01,-0.03 0,-0.02 0,-0.03 0,-0.04l0 -0.41c0,-0.01 0,-0.01 0,-0.02 0,0 0,-0.01 0.01,-0.01 0,0 0.01,-0.01 0.01,-0.01 0.01,0 0.01,0 0.02,0 0,0 0.01,0 0.01,0 0.01,0 0.01,0.01 0.01,0.01 0.01,0 0.01,0.01 0.01,0.01 0,0.01 0.01,0.01 0.01,0.02l0 0.41c0,0.02 0,0.03 0.01,0.04 0,0.01 0,0.01 0.01,0.01 0,0.01 0.01,0.01 0.01,0.01l0.02 0c0.01,0 0.02,0 0.03,0.01 0,0 0,0.01 0,0.01 0,0.01 0.01,0.01 0.01,0.02 0,0 -0.01,0.01 -0.01,0.01 0,0.01 0,0.01 -0.01,0.02 0,0 -0.01,0 -0.02,0 0,0.01 -0.01,0.01 -0.02,0.01l0 0zm0.49 0c-0.02,0 -0.04,0 -0.06,-0.01 -0.02,0 -0.03,-0.01 -0.05,-0.02 -0.02,-0.01 -0.03,-0.02 -0.04,-0.03 -0.02,-0.01 -0.03,-0.03 -0.04,-0.04 -0.01,-0.02 -0.01,-0.03 -0.02,-0.05 0,-0.02 0,-0.04 0,-0.06 0,-0.02 0,-0.04 0,-0.06 0.01,-0.02 0.01,-0.03 0.02,-0.05 0.01,-0.01 0.02,-0.03 0.03,-0.04 0.02,-0.01 0.03,-0.02 0.04,-0.03 0.02,-0.01 0.04,-0.02 0.05,-0.02 0.02,-0.01 0.04,-0.01 0.06,-0.01 0.02,0 0.04,0 0.06,0.01 0.01,0 0.03,0.01 0.04,0.02 0.02,0.01 0.03,0.02 0.04,0.03 0.01,0.01 0.02,0.02 0.03,0.04 0,0.01 0.01,0.03 0.01,0.05 0.01,0.02 0.01,0.03 0.01,0.05 0,0.01 0,0.02 -0.01,0.03 0,0 -0.01,0 -0.01,0.01 -0.01,0 -0.01,0 -0.02,0l-0.28 0c0,0 0,0.01 0,0.01 0,0.01 0.01,0.02 0.02,0.03 0,0.01 0.01,0.02 0.02,0.03 0.01,0.01 0.02,0.02 0.03,0.02 0.01,0.01 0.02,0.01 0.03,0.02 0.01,0 0.03,0 0.04,0 0.02,0 0.03,0 0.05,-0.01 0.01,0 0.03,-0.01 0.04,-0.02 0,0 0.01,0 0.01,0 0,0 0.01,0 0.01,0 0.01,0 0.01,0 0.02,0 0,0 0,0 0.01,0 0,0.01 0,0.01 0.01,0.02 0,0 0,0 0,0.01 0,0 0,0.01 0,0.01 0,0.01 -0.01,0.01 -0.01,0.01 -0.01,0.01 -0.02,0.02 -0.03,0.02 -0.01,0.01 -0.02,0.01 -0.04,0.02 -0.01,0 -0.02,0 -0.03,0.01 -0.01,0 -0.03,0 -0.04,0zm-0.14 -0.24l0.25 0c0,-0.01 -0.01,-0.01 -0.01,-0.02 0,-0.01 0,-0.02 -0.01,-0.03 0,-0.01 -0.01,-0.02 -0.01,-0.02 -0.01,-0.01 -0.02,-0.02 -0.03,-0.02 -0.01,-0.01 -0.01,-0.01 -0.03,-0.02 -0.01,0 -0.02,0 -0.03,0 -0.03,0 -0.05,0 -0.07,0.02 -0.01,0 -0.02,0.01 -0.03,0.02 -0.01,0.01 -0.01,0.02 -0.02,0.03 0,0.01 -0.01,0.02 -0.01,0.03l0 0.01z"/>
   <polygon class="fil2" points="0,5.27 2.9,5.27 2.9,5.4 0,5.4 "/>
   <path class="fil0" d="M5.52 0.42c-0.03,0 -0.05,-0.01 -0.08,-0.02 -0.02,0 -0.04,-0.02 -0.06,-0.04 -0.02,-0.02 -0.03,-0.04 -0.04,-0.06 -0.01,-0.02 -0.02,-0.05 -0.02,-0.07 0,-0.03 0.01,-0.05 0.02,-0.08 0.01,-0.02 0.02,-0.04 0.04,-0.06 0.02,-0.02 0.04,-0.03 0.06,-0.04 0.03,-0.01 0.05,-0.01 0.08,-0.01 0.02,0 0.05,0 0.07,0.01 0.02,0.01 0.04,0.02 0.06,0.04 0.02,0.02 0.03,0.04 0.04,0.06 0.01,0.03 0.02,0.05 0.02,0.08 0,0.02 -0.01,0.05 -0.02,0.07 -0.01,0.02 -0.02,0.04 -0.04,0.06 -0.02,0.02 -0.04,0.04 -0.06,0.04 -0.02,0.01 -0.05,0.02 -0.07,0.02z"/>
  </g>
  <polygon class="fil4" points="14.35,0.62 14.35,5.06 14.18,5.06 14.18,0.62 "/>
  <g id="_2028791732112">
   <g id="Test-B">
    <g id="Mobile-Nav---Test-B-28029">
     <g id="Group">
      <g id="logo-salesforce">
       <path id="Fill-1" class="fil5" d="M19.88 0.82c0.24,-0.25 0.57,-0.41 0.94,-0.41 0.48,0 0.9,0.28 1.13,0.68 0.19,-0.1 0.41,-0.13 0.65,-0.13 0.87,0 1.58,0.71 1.58,1.61 0,0.89 -0.71,1.6 -1.58,1.6 -0.12,0 -0.21,-0.02 -0.31,-0.03 -0.19,0.35 -0.58,0.59 -1.02,0.59 -0.18,0 -0.36,-0.03 -0.52,-0.11 -0.19,0.47 -0.66,0.79 -1.21,0.79 -0.57,0 -1.05,-0.35 -1.25,-0.87 -0.08,0.02 -0.16,0.03 -0.26,0.03 -0.68,0 -1.23,-0.55 -1.23,-1.23 0,-0.45 0.25,-0.86 0.62,-1.08 -0.08,-0.18 -0.12,-0.37 -0.12,-0.57 0,-0.79 0.65,-1.42 1.43,-1.42 0.47,0 0.87,0.21 1.15,0.55z"/>
       <path id="Combined-Shape" class="fil6" d="M17.87 2.94l0.03 -0.08c0,-0.02 0.02,0 0.02,0 0,0 0.02,0 0.03,0.01 0.1,0.07 0.16,0.07 0.2,0.07 0.06,0 0.11,-0.03 0.11,-0.08l0 0c0,-0.05 -0.06,-0.07 -0.13,-0.1l-0.02 0c-0.09,-0.03 -0.21,-0.07 -0.21,-0.19l0 0c0,-0.13 0.1,-0.22 0.23,-0.22l0.02 0c0.08,0 0.16,0.04 0.22,0.07 0,0 0.02,0 0,0.02 0,0 -0.03,0.08 -0.03,0.08 0,0.01 -0.02,0 -0.02,0 -0.04,-0.04 -0.12,-0.05 -0.19,-0.05 -0.06,0 -0.1,0.03 -0.1,0.06l0 0c0,0.05 0.07,0.07 0.15,0.1l0.02 0c0.09,0.03 0.21,0.08 0.21,0.19l0 0c0,0.13 -0.1,0.21 -0.25,0.21 -0.08,0 -0.14,-0.01 -0.22,-0.04 -0.02,0 -0.04,-0.02 -0.05,-0.04 -0.02,0 -0.02,0 -0.02,-0.01zm2.22 0l0.03 -0.08c0,-0.02 0.02,0 0.02,0 0,0 0.01,0 0.03,0.01 0.1,0.07 0.16,0.07 0.19,0.07 0.07,0 0.1,-0.03 0.1,-0.08l0 0c0,-0.05 -0.06,-0.07 -0.13,-0.1l-0.01 0c-0.1,-0.03 -0.21,-0.07 -0.21,-0.19l0 0c0,-0.13 0.09,-0.22 0.22,-0.22l0.02 0c0.08,0 0.16,0.04 0.22,0.07 0,0 0.02,0 0,0.02 0,0 -0.03,0.08 -0.03,0.08 0,0.01 -0.01,0 -0.01,0 -0.05,-0.04 -0.13,-0.05 -0.2,-0.05 -0.06,0 -0.1,0.03 -0.1,0.06l0 0c0,0.05 0.07,0.07 0.15,0.1l0.02 0c0.09,0.03 0.21,0.08 0.21,0.19l0 0c0,0.13 -0.1,0.21 -0.25,0.21 -0.08,0 -0.14,-0.01 -0.22,-0.04 -0.02,0 -0.03,-0.02 -0.05,-0.04 0,0 -0.02,0 0,-0.01zm1.63 -0.39c0.02,0.03 0.02,0.1 0.02,0.13 0,0.05 0,0.1 -0.02,0.13 -0.01,0.05 -0.03,0.08 -0.06,0.11 -0.03,0.03 -0.07,0.07 -0.1,0.07 -0.03,0.01 -0.08,0.03 -0.13,0.03 -0.05,0 -0.09,0 -0.13,-0.03 -0.03,-0.02 -0.06,-0.05 -0.09,-0.07 -0.04,-0.03 -0.05,-0.06 -0.07,-0.11 -0.01,-0.03 -0.01,-0.1 -0.01,-0.13 0,-0.05 0,-0.1 0.01,-0.13 0.02,-0.03 0.03,-0.08 0.07,-0.11 0.03,-0.04 0.06,-0.07 0.09,-0.07 0.04,-0.02 0.08,-0.03 0.13,-0.03 0.05,0 0.1,0 0.13,0.03 0.03,0.02 0.07,0.05 0.1,0.07 0.03,0.03 0.05,0.06 0.06,0.11zm-0.13 0.13c0,-0.07 -0.01,-0.13 -0.03,-0.18 -0.03,-0.03 -0.06,-0.06 -0.13,-0.06 -0.06,0 -0.09,0.01 -0.13,0.06 -0.03,0.03 -0.03,0.1 -0.03,0.18 0,0.06 0.02,0.13 0.03,0.18 0.04,0.03 0.07,0.06 0.13,0.06 0.07,0 0.1,-0.01 0.13,-0.06 0.02,-0.05 0.03,-0.1 0.03,-0.18zm1.17 0.21l0.03 0.08c0,0.02 0,0.02 0,0.02 -0.05,0.01 -0.11,0.03 -0.18,0.03 -0.11,0 -0.19,-0.03 -0.25,-0.1 -0.07,-0.06 -0.09,-0.14 -0.09,-0.26 0,-0.05 0,-0.09 0.02,-0.13 0.02,-0.03 0.03,-0.08 0.07,-0.11 0.03,-0.03 0.06,-0.07 0.09,-0.07 0.03,-0.01 0.1,-0.03 0.15,-0.03 0.03,0 0.06,0 0.1,0 0.03,0 0.06,0.02 0.08,0.02 0,0 0.01,0 0,0.01 -0.02,0.04 -0.02,0.07 -0.04,0.09 0,0.01 -0.01,0 -0.01,0 -0.03,-0.02 -0.08,-0.02 -0.13,-0.02 -0.07,0 -0.12,0.02 -0.15,0.06 -0.03,0.04 -0.05,0.1 -0.05,0.17 0,0.08 0.02,0.13 0.05,0.17 0.03,0.04 0.08,0.05 0.15,0.05 0.03,0 0.05,0 0.06,0 0.02,0 0.04,-0.01 0.07,-0.01 0.01,0.03 0.03,0.03 0.03,0.03zm0.65 -0.36c0.03,0.1 0.01,0.18 0.01,0.2 0,0.01 -0.01,0.01 -0.01,0.01l-0.42 0c0,0.07 0.01,0.12 0.05,0.15 0.03,0.03 0.08,0.05 0.14,0.05 0.1,0 0.15,-0.02 0.18,-0.03 0,0 0.02,0 0.02,0l0.03 0.08c0,0.01 0,0.01 0,0.01 -0.03,0.02 -0.1,0.05 -0.21,0.05 -0.07,0 -0.12,0 -0.16,-0.03 -0.05,-0.02 -0.09,-0.03 -0.12,-0.07 -0.03,-0.03 -0.05,-0.06 -0.06,-0.11 -0.02,-0.03 -0.02,-0.1 -0.02,-0.13 0,-0.03 0,-0.1 0.02,-0.13 0.01,-0.05 0.03,-0.08 0.06,-0.11 0.03,-0.03 0.07,-0.07 0.1,-0.08 0.03,-0.02 0.1,-0.04 0.14,-0.04 0.05,0 0.1,0.02 0.13,0.04 0.04,0.01 0.05,0.03 0.09,0.06 0,-0.01 0.01,0.03 0.03,0.08zm-0.42 0.08l0.3 0c0,-0.03 -0.01,-0.08 -0.03,-0.09 -0.03,-0.04 -0.06,-0.07 -0.13,-0.07 -0.06,0 -0.09,0.02 -0.13,0.07 0,0.01 -0.01,0.05 -0.01,0.09zm-3 -0.08c0.03,0.1 0.02,0.18 0.02,0.2 0,0.01 -0.02,0.01 -0.02,0.01l-0.42 0c0,0.07 0.02,0.12 0.05,0.15 0.03,0.03 0.08,0.05 0.15,0.05 0.09,0 0.14,-0.02 0.17,-0.03 0,0 0.02,0 0.02,0l0.03 0.08c0,0.01 0,0.01 0,0.01 -0.03,0.02 -0.1,0.05 -0.21,0.05 -0.06,0 -0.11,0 -0.16,-0.03 -0.05,-0.02 -0.08,-0.03 -0.11,-0.07 -0.04,-0.03 -0.05,-0.06 -0.07,-0.11 -0.01,-0.03 -0.01,-0.1 -0.01,-0.13 0,-0.03 0,-0.1 0.01,-0.13 0.02,-0.05 0.03,-0.08 0.07,-0.11 0.03,-0.03 0.06,-0.07 0.09,-0.08 0.04,-0.02 0.1,-0.04 0.15,-0.04 0.05,0 0.1,0.02 0.13,0.04 0.03,0.01 0.05,0.03 0.08,0.06 -0.02,-0.01 0.02,0.03 0.03,0.08zm-0.44 0.08l0.31 0c0,-0.03 -0.01,-0.08 -0.03,-0.09 -0.03,-0.04 -0.06,-0.07 -0.13,-0.07 -0.06,0 -0.1,0.02 -0.13,0.07 0,0.01 0,0.05 -0.02,0.09zm-0.74 -0.03c0,0 0.03,0 0.07,0l0 -0.01c0,-0.07 -0.02,-0.09 -0.04,-0.1 -0.03,-0.02 -0.06,-0.03 -0.09,-0.03 0,0 -0.1,0 -0.2,0.04 0,0 0,0 0,0 0,0 -0.01,0 -0.01,0l-0.04 -0.08c0,-0.01 0,-0.01 0,-0.01 0.04,-0.04 0.13,-0.05 0.13,-0.05 0.03,0 0.08,-0.02 0.12,-0.02 0.08,0 0.14,0.02 0.19,0.07 0.05,0.03 0.06,0.09 0.06,0.19l0 0.39c0,0 0,0.02 -0.01,0.02 0,0 -0.02,0 -0.03,0 -0.02,0 -0.07,0.01 -0.12,0.01 -0.05,0 -0.08,0.02 -0.13,0.02 -0.03,0 -0.08,0 -0.11,-0.02 -0.03,0 -0.06,-0.01 -0.08,-0.03 -0.03,-0.02 -0.05,-0.03 -0.07,-0.06 -0.01,-0.04 -0.01,-0.07 -0.01,-0.1 0,-0.03 0,-0.07 0.03,-0.1 0.02,-0.03 0.03,-0.05 0.07,-0.06 0.03,-0.02 0.06,-0.04 0.09,-0.04 0.03,0 0.07,-0.01 0.1,-0.01 0.03,-0.02 0.06,-0.02 0.08,-0.02zm-0.18 0.31c0,0 0.03,0.03 0.13,0.03 0.07,0 0.12,-0.01 0.12,-0.01l0 -0.2c0,0 -0.05,0 -0.12,-0.02 -0.08,0 -0.13,0.04 -0.13,0.04 -0.03,0.01 -0.03,0.05 -0.03,0.08 0,0.03 0,0.05 0.02,0.06 0,0 0,0 0.01,0.02zm3.63 -0.52c0,0.02 -0.03,0.07 -0.03,0.1 0,0 0,0.01 -0.02,0.01 0,0 -0.03,0 -0.05,0 -0.02,0 -0.03,0 -0.06,0 -0.02,0 -0.04,0.02 -0.05,0.04 -0.02,0.01 -0.03,0.03 -0.03,0.06 0,0.03 -0.02,0.07 -0.02,0.11l0 0.31c0,0 0,0.02 -0.02,0.02l-0.11 0c0,0 -0.02,0 -0.02,-0.02l0 -0.63c0,0 0,-0.02 0.02,-0.02l0.11 0c0,0 0.02,0 0.02,0.02l0 0.05c0.02,-0.02 0.05,-0.03 0.06,-0.05 0.04,-0.02 0.07,-0.02 0.12,-0.02 0.03,0 0.06,0 0.06,0.02 0,-0.02 0.02,0 0.02,0zm-1.07 -0.29c0,0 0.02,0 0,0l-0.03 0.1c0,0 0,0.01 -0.02,0 0,0 0,0 -0.01,0 0,0 -0.02,0 -0.04,0 -0.01,0 -0.03,0 -0.05,0 -0.01,0 -0.03,0.01 -0.03,0.01 -0.01,0.02 -0.03,0.04 -0.03,0.05 -0.02,0.05 -0.02,0.1 -0.02,0.1l0.13 0c0.02,0 0.02,0 0.02,0.01l-0.02 0.1c0,0.02 -0.01,0.02 -0.01,0.02l-0.15 0 -0.1 0.53c-0.01,0.07 -0.03,0.1 -0.03,0.15 -0.01,0.03 -0.03,0.06 -0.06,0.1 -0.04,0.03 -0.05,0.04 -0.08,0.06 -0.04,0.02 -0.07,0.02 -0.1,0.02 -0.02,0 -0.03,0 -0.07,0 -0.01,0 -0.03,0 -0.03,-0.02 0,0 0,0 0,-0.02 0,0 0.03,-0.08 0.03,-0.08 0,-0.01 0.02,0 0.02,0 0,0 0.02,0 0.03,0 0.02,0 0.03,0 0.03,0 0.02,0 0.04,0 0.05,0 0.02,0 0.04,-0.01 0.04,-0.03 0.01,-0.02 0.01,-0.03 0.03,-0.06 0,-0.04 0.01,-0.07 0.03,-0.1l0.1 -0.54 -0.1 0c-0.02,0 -0.02,0 -0.02,-0.01l0.02 -0.1c0,-0.02 0.02,-0.02 0.02,-0.02l0.09 0 0 -0.03c0.02,-0.08 0.05,-0.14 0.08,-0.19 0.05,-0.05 0.1,-0.07 0.18,-0.07 0.02,0 0.04,0 0.07,0 0.01,0 0.03,0.02 0.03,0.02zm-1.91 0.92c0,0 0,0.02 0,0l-0.13 0.02c0,0 -0.02,0 -0.02,-0.02l0 -0.92c0,0 0,-0.02 0.02,-0.02l0.11 0c0,0 0.02,0 0.02,0.02l0 0.92 0 0z"/>
      </g>
     </g>
    </g>
   </g>
   <path class="fil7" d="M26.01 0.79c0,0.01 0,0.01 0,0.02 0,0.01 0,0.01 0,0.01 0,0.01 0,0.01 -0.01,0.01 0,0 0,0.01 0,0.01 -0.01,0 -0.01,-0.01 -0.02,-0.01 0,0 -0.01,0 -0.01,0 -0.01,0 -0.01,-0.01 -0.02,-0.01 -0.01,0 -0.02,0 -0.03,0 -0.01,0 -0.02,0 -0.03,0.01 -0.01,0 -0.02,0.01 -0.03,0.02 -0.01,0.01 -0.02,0.02 -0.04,0.04 -0.01,0.01 -0.02,0.03 -0.04,0.06l0 0.37c0,0.01 0,0.01 0,0.01 0,0 0,0.01 -0.01,0.01 0,0 -0.01,0 -0.01,0 -0.01,0 -0.02,0 -0.03,0 -0.01,0 -0.02,0 -0.03,0 0,0 -0.01,0 -0.01,0 -0.01,0 -0.01,-0.01 -0.01,-0.01 0,0 0,0 0,-0.01l0 -0.57c0,0 0,-0.01 0,-0.01 0,0 0,0 0.01,-0.01 0,0 0.01,0 0.01,0 0.01,0 0.02,0 0.03,0 0.01,0 0.01,0 0.02,0 0.01,0 0.01,0 0.01,0 0.01,0.01 0.01,0.01 0.01,0.01 0,0 0,0.01 0,0.01l0 0.08c0.02,-0.02 0.03,-0.04 0.05,-0.05 0.01,-0.02 0.02,-0.03 0.04,-0.04 0.01,-0.01 0.02,-0.01 0.03,-0.02 0.02,0 0.03,0 0.04,0 0.01,0 0.01,0 0.02,0 0.01,0 0.01,0 0.02,0 0.01,0.01 0.01,0.01 0.02,0.01 0.01,0 0.01,0 0.01,0.01 0.01,0 0.01,0 0.01,0 0,0 0,0.01 0,0.01 0,0 0,0.01 0,0.01 0,0.01 0,0.02 0,0.03z"/>
   <path id="_1" class="fil7" d="M26.6 1.01c0,0.02 0,0.03 -0.01,0.04 -0.01,0 -0.02,0.01 -0.03,0.01l-0.37 0c0,0.03 0,0.06 0.01,0.08 0,0.03 0.01,0.05 0.03,0.07 0.01,0.02 0.03,0.03 0.06,0.04 0.02,0.01 0.05,0.01 0.08,0.01 0.03,0 0.05,0 0.07,0 0.03,-0.01 0.04,-0.01 0.06,-0.02 0.02,0 0.03,-0.01 0.04,-0.01 0.01,-0.01 0.02,-0.01 0.02,-0.01 0,0 0.01,0 0.01,0 0,0.01 0,0.01 0,0.01 0.01,0 0.01,0.01 0.01,0.01 0,0.01 0,0.01 0,0.02 0,0.01 0,0.01 0,0.02 0,0 0,0 0,0.01 0,0 -0.01,0 -0.01,0.01 0,0 0,0 0,0 -0.01,0.01 -0.01,0.01 -0.02,0.01 -0.02,0.01 -0.03,0.01 -0.05,0.02 -0.02,0.01 -0.04,0.01 -0.06,0.01 -0.03,0.01 -0.05,0.01 -0.08,0.01 -0.05,0 -0.09,-0.01 -0.12,-0.02 -0.04,-0.01 -0.07,-0.03 -0.09,-0.06 -0.02,-0.02 -0.04,-0.06 -0.06,-0.1 -0.01,-0.03 -0.01,-0.08 -0.01,-0.13 0,-0.05 0,-0.1 0.02,-0.14 0.01,-0.03 0.03,-0.07 0.05,-0.1 0.02,-0.02 0.05,-0.04 0.09,-0.06 0.03,-0.01 0.07,-0.02 0.11,-0.02 0.05,0 0.08,0.01 0.12,0.02 0.03,0.02 0.05,0.04 0.07,0.06 0.02,0.02 0.04,0.05 0.05,0.09 0.01,0.03 0.01,0.06 0.01,0.1l0 0.02zm-0.1 -0.03c0,-0.06 -0.01,-0.1 -0.04,-0.13 -0.03,-0.03 -0.06,-0.05 -0.11,-0.05 -0.03,0 -0.05,0.01 -0.07,0.02 -0.02,0.01 -0.04,0.02 -0.05,0.04 -0.01,0.01 -0.03,0.03 -0.03,0.05 -0.01,0.02 -0.01,0.05 -0.01,0.07l0.31 0z"/>
   <path id="_2" class="fil7" d="M27.24 0.78c0,0.01 0,0.02 0,0.03 -0.01,0 -0.01,0.01 -0.02,0.01l-0.08 0c0.01,0.01 0.02,0.03 0.03,0.05 0.01,0.02 0.01,0.04 0.01,0.06 0,0.03 -0.01,0.06 -0.02,0.08 -0.01,0.03 -0.02,0.05 -0.04,0.07 -0.02,0.02 -0.05,0.03 -0.07,0.04 -0.03,0.01 -0.06,0.01 -0.09,0.01 -0.03,0 -0.05,0 -0.07,-0.01 -0.02,0 -0.04,-0.01 -0.05,-0.02 -0.01,0.01 -0.01,0.02 -0.02,0.03 0,0.01 0,0.02 0,0.03 0,0.01 0,0.03 0.02,0.04 0.01,0.01 0.03,0.01 0.05,0.01l0.15 0.01c0.03,0 0.06,0 0.08,0.01 0.02,0.01 0.04,0.02 0.06,0.03 0.02,0.01 0.03,0.03 0.04,0.05 0.01,0.02 0.02,0.04 0.02,0.06 0,0.03 -0.01,0.06 -0.02,0.08 -0.01,0.02 -0.03,0.04 -0.05,0.06 -0.02,0.02 -0.05,0.03 -0.09,0.04 -0.03,0.01 -0.07,0.02 -0.12,0.02 -0.05,0 -0.09,0 -0.12,-0.01 -0.03,-0.01 -0.06,-0.02 -0.08,-0.03 -0.02,-0.02 -0.04,-0.03 -0.05,-0.05 -0.01,-0.02 -0.01,-0.04 -0.01,-0.06 0,-0.02 0,-0.03 0.01,-0.04 0,-0.02 0,-0.03 0.01,-0.04 0.01,-0.01 0.02,-0.03 0.03,-0.04 0.01,-0.01 0.02,-0.02 0.03,-0.03 -0.02,-0.01 -0.03,-0.02 -0.04,-0.04 -0.01,-0.01 -0.02,-0.03 -0.02,-0.05 0,-0.03 0.01,-0.05 0.02,-0.07 0.01,-0.02 0.02,-0.04 0.04,-0.06 -0.02,-0.01 -0.03,-0.03 -0.03,-0.05 -0.01,-0.02 -0.02,-0.04 -0.02,-0.07 0,-0.03 0.01,-0.06 0.02,-0.09 0.01,-0.02 0.03,-0.05 0.05,-0.06 0.02,-0.02 0.04,-0.03 0.07,-0.04 0.02,-0.01 0.05,-0.02 0.09,-0.02 0.01,0 0.03,0 0.05,0 0.01,0.01 0.02,0.01 0.04,0.01l0.17 0c0.01,0 0.01,0.01 0.02,0.01 0,0.01 0,0.02 0,0.04zm-0.16 0.15c0,-0.04 -0.01,-0.07 -0.03,-0.1 -0.03,-0.02 -0.06,-0.03 -0.1,-0.03 -0.02,0 -0.03,0.01 -0.05,0.01 -0.01,0.01 -0.03,0.02 -0.04,0.03 -0.01,0.01 -0.01,0.03 -0.02,0.04 0,0.02 -0.01,0.03 -0.01,0.05 0,0.04 0.02,0.07 0.04,0.09 0.02,0.02 0.05,0.03 0.09,0.03 0.02,0 0.04,0 0.05,-0.01 0.02,-0.01 0.03,-0.01 0.04,-0.03 0.01,-0.01 0.02,-0.02 0.02,-0.04 0.01,-0.01 0.01,-0.03 0.01,-0.04zm0.05 0.45c0,-0.03 -0.01,-0.04 -0.03,-0.06 -0.02,-0.01 -0.05,-0.02 -0.08,-0.02l-0.15 0c-0.01,0.01 -0.02,0.02 -0.03,0.03 -0.01,0.01 -0.02,0.01 -0.02,0.02 -0.01,0.01 -0.01,0.02 -0.01,0.03 -0.01,0.01 -0.01,0.02 -0.01,0.03 0,0.02 0.02,0.04 0.05,0.06 0.02,0.01 0.06,0.02 0.11,0.02 0.03,0 0.06,0 0.08,-0.01 0.02,-0.01 0.04,-0.01 0.05,-0.02 0.02,-0.01 0.03,-0.03 0.03,-0.04 0.01,-0.01 0.01,-0.03 0.01,-0.04z"/>
   <path id="_3" class="fil7" d="M27.48 1.32c0,0.01 0,0.01 0,0.01 0,0 0,0.01 -0.01,0.01 0,0 -0.01,0 -0.01,0 -0.01,0 -0.02,0 -0.03,0 -0.01,0 -0.02,0 -0.03,0 0,0 -0.01,0 -0.01,0 -0.01,0 -0.01,-0.01 -0.01,-0.01 0,0 0,0 0,-0.01l0 -0.57c0,0 0,-0.01 0,-0.01 0,0 0,0 0.01,-0.01 0,0 0.01,0 0.01,0 0.01,0 0.02,0 0.03,0 0.01,0 0.02,0 0.03,0 0,0 0.01,0 0.01,0 0.01,0.01 0.01,0.01 0.01,0.01 0,0 0,0.01 0,0.01l0 0.57zm0.02 -0.76c0,0.02 -0.01,0.04 -0.02,0.05 -0.01,0 -0.03,0.01 -0.05,0.01 -0.03,0 -0.04,0 -0.05,-0.01 -0.01,-0.01 -0.02,-0.03 -0.02,-0.05 0,-0.03 0.01,-0.04 0.02,-0.05 0.01,-0.01 0.03,-0.02 0.05,-0.02 0.03,0 0.04,0.01 0.05,0.02 0.01,0 0.02,0.02 0.02,0.05z"/>
   <path id="_4" class="fil7" d="M28.04 1.17c0,0.03 -0.01,0.05 -0.02,0.07 -0.01,0.03 -0.03,0.05 -0.05,0.06 -0.02,0.02 -0.04,0.03 -0.07,0.04 -0.02,0.01 -0.05,0.01 -0.09,0.01 -0.02,0 -0.04,0 -0.06,-0.01 -0.01,0 -0.03,0 -0.05,-0.01 -0.01,0 -0.02,-0.01 -0.03,-0.01 -0.01,-0.01 -0.02,-0.01 -0.03,-0.02 0,0 0,-0.01 -0.01,-0.01 0,-0.01 0,-0.02 0,-0.04 0,0 0,-0.01 0,-0.02 0,0 0,-0.01 0.01,-0.01 0,0 0,0 0,-0.01 0,0 0.01,0 0.01,0 0,0 0.01,0 0.02,0.01 0.01,0.01 0.02,0.01 0.03,0.02 0.02,0.01 0.03,0.01 0.05,0.02 0.02,0 0.04,0.01 0.06,0.01 0.02,0 0.04,-0.01 0.05,-0.01 0.02,0 0.03,-0.01 0.04,-0.02 0.01,0 0.02,-0.01 0.02,-0.03 0.01,-0.01 0.01,-0.02 0.01,-0.04 0,-0.01 0,-0.03 -0.01,-0.04 -0.01,-0.01 -0.02,-0.02 -0.03,-0.03 -0.02,0 -0.03,-0.01 -0.05,-0.02 -0.02,-0.01 -0.03,-0.01 -0.05,-0.02 -0.02,-0.01 -0.04,-0.01 -0.05,-0.02 -0.02,-0.01 -0.04,-0.02 -0.05,-0.04 -0.01,-0.01 -0.02,-0.03 -0.03,-0.04 -0.01,-0.02 -0.01,-0.04 -0.01,-0.07 0,-0.02 0,-0.04 0.01,-0.06 0.01,-0.03 0.02,-0.04 0.04,-0.06 0.02,-0.01 0.04,-0.03 0.06,-0.04 0.03,-0.01 0.06,-0.01 0.09,-0.01 0.02,0 0.04,0 0.05,0 0.02,0.01 0.03,0.01 0.04,0.01 0.01,0.01 0.02,0.01 0.03,0.02 0.01,0 0.02,0.01 0.02,0.01 0.01,0 0.01,0.01 0.01,0.01 0,0 0,0 0.01,0.01 0,0 0,0 0,0.01 0,0 0,0.01 0,0.02 0,0 0,0.01 0,0.01 0,0.01 0,0.01 -0.01,0.02 0,0 0,0 0,0 0,0.01 -0.01,0.01 -0.01,0.01 0,0 -0.01,-0.01 -0.02,-0.01 0,-0.01 -0.01,-0.01 -0.02,-0.02 -0.01,0 -0.03,-0.01 -0.04,-0.01 -0.02,-0.01 -0.04,-0.01 -0.06,-0.01 -0.01,0 -0.03,0 -0.04,0.01 -0.02,0 -0.03,0.01 -0.04,0.02 -0.01,0 -0.01,0.01 -0.02,0.02 0,0.01 0,0.02 0,0.03 0,0.02 0,0.03 0.01,0.05 0.01,0.01 0.02,0.02 0.03,0.03 0.02,0 0.03,0.01 0.05,0.02 0.02,0.01 0.03,0.01 0.05,0.02 0.02,0.01 0.04,0.01 0.05,0.02 0.02,0.01 0.04,0.02 0.05,0.04 0.02,0.01 0.03,0.02 0.03,0.04 0.01,0.02 0.02,0.04 0.02,0.07z"/>
   <path id="_5" class="fil7" d="M28.47 1.28c0,0.01 0,0.02 0,0.03 0,0.01 -0.01,0.01 -0.01,0.01 0,0.01 -0.01,0.01 -0.02,0.01 0,0.01 -0.01,0.01 -0.02,0.01 -0.01,0 -0.02,0.01 -0.03,0.01 -0.01,0 -0.02,0 -0.03,0 -0.03,0 -0.05,-0.01 -0.07,-0.01 -0.02,-0.01 -0.04,-0.02 -0.05,-0.04 -0.02,-0.01 -0.03,-0.04 -0.03,-0.06 -0.01,-0.02 -0.01,-0.05 -0.01,-0.09l0 -0.33 -0.08 0c-0.01,0 -0.02,0 -0.02,-0.01 0,-0.01 0,-0.02 0,-0.03 0,-0.01 0,-0.02 0,-0.02 0,-0.01 0,-0.01 0,-0.02 0,0 0,0 0.01,0 0,-0.01 0,-0.01 0.01,-0.01l0.08 0 0 -0.13c0,-0.01 0,-0.01 0,-0.01 0,0 0,-0.01 0.01,-0.01 0,0 0.01,0 0.01,0 0.01,0 0.02,0 0.03,0 0.01,0 0.02,0 0.03,0 0,0 0.01,0 0.01,0 0.01,0 0.01,0.01 0.01,0.01 0,0 0,0 0,0.01l0 0.13 0.15 0c0,0 0,0 0.01,0.01 0,0 0,0 0,0 0.01,0.01 0.01,0.01 0.01,0.02 0,0 0,0.01 0,0.02 0,0.01 0,0.02 -0.01,0.03 0,0.01 -0.01,0.01 -0.01,0.01l-0.15 0 0 0.32c0,0.04 0.01,0.07 0.02,0.09 0.01,0.02 0.03,0.03 0.06,0.03 0.01,0 0.02,0 0.03,0 0.01,-0.01 0.01,-0.01 0.02,-0.01 0,0 0.01,0 0.01,-0.01 0.01,0 0.01,0 0.01,0 0.01,0 0.01,0 0.01,0 0,0 0,0.01 0.01,0.01 0,0 0,0.01 0,0.01 0,0.01 0,0.01 0,0.02z"/>
   <path id="_6" class="fil7" d="M29.08 1.01c0,0.02 0,0.03 -0.01,0.04 -0.01,0 -0.02,0.01 -0.03,0.01l-0.37 0c0,0.03 0,0.06 0,0.08 0.01,0.03 0.02,0.05 0.04,0.07 0.01,0.02 0.03,0.03 0.05,0.04 0.03,0.01 0.06,0.01 0.09,0.01 0.03,0 0.05,0 0.07,0 0.03,-0.01 0.04,-0.01 0.06,-0.02 0.01,0 0.03,-0.01 0.04,-0.01 0.01,-0.01 0.02,-0.01 0.02,-0.01 0,0 0.01,0 0.01,0 0,0.01 0,0.01 0,0.01 0,0 0.01,0.01 0.01,0.01 0,0.01 0,0.01 0,0.02 0,0.01 0,0.01 0,0.02 0,0 0,0 0,0.01 -0.01,0 -0.01,0 -0.01,0.01 0,0 0,0 0,0 -0.01,0.01 -0.01,0.01 -0.02,0.01 -0.02,0.01 -0.03,0.01 -0.05,0.02 -0.02,0.01 -0.04,0.01 -0.06,0.01 -0.03,0.01 -0.05,0.01 -0.08,0.01 -0.05,0 -0.09,-0.01 -0.12,-0.02 -0.04,-0.01 -0.07,-0.03 -0.09,-0.06 -0.03,-0.02 -0.04,-0.06 -0.06,-0.1 -0.01,-0.03 -0.01,-0.08 -0.01,-0.13 0,-0.05 0,-0.1 0.01,-0.14 0.02,-0.03 0.04,-0.07 0.06,-0.1 0.02,-0.02 0.05,-0.04 0.09,-0.06 0.03,-0.01 0.07,-0.02 0.11,-0.02 0.05,0 0.08,0.01 0.12,0.02 0.03,0.02 0.05,0.04 0.07,0.06 0.02,0.02 0.04,0.05 0.05,0.09 0.01,0.03 0.01,0.06 0.01,0.1l0 0.02zm-0.1 -0.03c0,-0.06 -0.01,-0.1 -0.04,-0.13 -0.03,-0.03 -0.06,-0.05 -0.11,-0.05 -0.03,0 -0.05,0.01 -0.07,0.02 -0.02,0.01 -0.04,0.02 -0.05,0.04 -0.02,0.01 -0.03,0.03 -0.03,0.05 -0.01,0.02 -0.01,0.05 -0.01,0.07l0.31 0z"/>
   <path id="_7" class="fil7" d="M29.58 0.79c0,0.01 0,0.01 0,0.02 0,0.01 0,0.01 0,0.01 -0.01,0.01 -0.01,0.01 -0.01,0.01 0,0 0,0.01 -0.01,0.01 0,0 0,-0.01 -0.01,-0.01 0,0 -0.01,0 -0.02,0 0,0 -0.01,-0.01 -0.02,-0.01 0,0 -0.01,0 -0.02,0 -0.01,0 -0.02,0 -0.03,0.01 -0.01,0 -0.02,0.01 -0.03,0.02 -0.02,0.01 -0.03,0.02 -0.04,0.04 -0.01,0.01 -0.03,0.03 -0.04,0.06l0 0.37c0,0.01 0,0.01 0,0.01 -0.01,0 -0.01,0.01 -0.01,0.01 -0.01,0 -0.01,0 -0.02,0 0,0 -0.01,0 -0.02,0 -0.01,0 -0.02,0 -0.03,0 -0.01,0 -0.01,0 -0.02,0 0,0 0,-0.01 0,-0.01 -0.01,0 -0.01,0 -0.01,-0.01l0 -0.57c0,0 0,-0.01 0.01,-0.01 0,0 0,0 0,-0.01 0.01,0 0.01,0 0.02,0 0,0 0.01,0 0.02,0 0.01,0 0.02,0 0.02,0 0.01,0 0.02,0 0.02,0 0,0.01 0.01,0.01 0.01,0.01 0,0 0,0.01 0,0.01l0 0.08c0.01,-0.02 0.03,-0.04 0.04,-0.05 0.02,-0.02 0.03,-0.03 0.04,-0.04 0.01,-0.01 0.03,-0.01 0.04,-0.02 0.01,0 0.02,0 0.04,0 0,0 0.01,0 0.01,0 0.01,0 0.02,0 0.03,0 0,0.01 0.01,0.01 0.02,0.01 0,0 0.01,0 0.01,0.01 0,0 0,0 0,0 0.01,0 0.01,0.01 0.01,0.01 0,0 0,0.01 0,0.01 0,0.01 0,0.02 0,0.03z"/>
   <path id="_8" class="fil7" d="M30.17 1.01c0,0.02 -0.01,0.03 -0.01,0.04 -0.01,0 -0.02,0.01 -0.03,0.01l-0.38 0c0,0.03 0,0.06 0.01,0.08 0.01,0.03 0.02,0.05 0.03,0.07 0.02,0.02 0.04,0.03 0.06,0.04 0.02,0.01 0.05,0.01 0.09,0.01 0.03,0 0.05,0 0.07,0 0.02,-0.01 0.04,-0.01 0.06,-0.02 0.01,0 0.02,-0.01 0.03,-0.01 0.01,-0.01 0.02,-0.01 0.03,-0.01 0,0 0,0 0,0 0.01,0.01 0.01,0.01 0.01,0.01 0,0 0,0.01 0,0.01 0,0.01 0,0.01 0,0.02 0,0.01 0,0.01 0,0.02 0,0 0,0 0,0.01 0,0 0,0 0,0.01 0,0 0,0 -0.01,0 0,0.01 -0.01,0.01 -0.02,0.01 -0.01,0.01 -0.02,0.01 -0.04,0.02 -0.02,0.01 -0.04,0.01 -0.07,0.01 -0.02,0.01 -0.05,0.01 -0.07,0.01 -0.05,0 -0.09,-0.01 -0.13,-0.02 -0.03,-0.01 -0.06,-0.03 -0.09,-0.06 -0.02,-0.02 -0.04,-0.06 -0.05,-0.1 -0.01,-0.03 -0.02,-0.08 -0.02,-0.13 0,-0.05 0.01,-0.1 0.02,-0.14 0.01,-0.03 0.03,-0.07 0.06,-0.1 0.02,-0.02 0.05,-0.04 0.08,-0.06 0.04,-0.01 0.07,-0.02 0.12,-0.02 0.04,0 0.08,0.01 0.11,0.02 0.03,0.02 0.06,0.04 0.08,0.06 0.02,0.02 0.03,0.05 0.04,0.09 0.01,0.03 0.02,0.06 0.02,0.1l0 0.02zm-0.11 -0.03c0,-0.06 -0.01,-0.1 -0.03,-0.13 -0.03,-0.03 -0.07,-0.05 -0.12,-0.05 -0.02,0 -0.05,0.01 -0.07,0.02 -0.02,0.01 -0.03,0.02 -0.05,0.04 -0.01,0.01 -0.02,0.03 -0.03,0.05 0,0.02 -0.01,0.05 -0.01,0.07l0.31 0z"/>
   <path id="_9" class="fil7" d="M30.82 1.32c0,0.01 0,0.01 0,0.01 0,0 -0.01,0.01 -0.01,0.01 0,0 -0.01,0 -0.01,0 -0.01,0 -0.02,0 -0.03,0 0,0 -0.01,0 -0.02,0 0,0 -0.01,0 -0.01,0 -0.01,0 -0.01,-0.01 -0.01,-0.01 0,0 0,0 0,-0.01l0 -0.07c-0.03,0.03 -0.07,0.05 -0.1,0.07 -0.03,0.02 -0.07,0.03 -0.1,0.03 -0.05,0 -0.08,-0.01 -0.11,-0.02 -0.03,-0.02 -0.06,-0.04 -0.07,-0.07 -0.02,-0.03 -0.04,-0.06 -0.04,-0.1 -0.01,-0.04 -0.02,-0.08 -0.02,-0.12 0,-0.05 0.01,-0.09 0.02,-0.13 0.01,-0.04 0.03,-0.07 0.05,-0.1 0.02,-0.03 0.04,-0.05 0.07,-0.07 0.03,-0.01 0.07,-0.02 0.11,-0.02 0.03,0 0.06,0.01 0.09,0.02 0.03,0.02 0.06,0.04 0.08,0.07l0 -0.34c0,0 0,0 0.01,0 0,-0.01 0,-0.01 0.01,-0.01 0,0 0,0 0.01,0 0.01,-0.01 0.02,-0.01 0.03,-0.01 0.01,0 0.02,0 0.02,0.01 0.01,0 0.01,0 0.02,0 0,0 0.01,0 0.01,0.01 0,0 0,0 0,0l0 0.85zm-0.11 -0.4c-0.02,-0.04 -0.05,-0.06 -0.08,-0.08 -0.02,-0.02 -0.05,-0.03 -0.08,-0.03 -0.03,0 -0.05,0.01 -0.07,0.02 -0.02,0.01 -0.03,0.03 -0.04,0.05 -0.02,0.02 -0.02,0.04 -0.03,0.07 0,0.03 -0.01,0.05 -0.01,0.08 0,0.03 0,0.06 0.01,0.08 0,0.03 0.01,0.06 0.02,0.08 0.01,0.02 0.03,0.04 0.05,0.05 0.01,0.01 0.04,0.02 0.06,0.02 0.02,0 0.03,0 0.05,-0.01 0.01,0 0.02,-0.01 0.03,-0.02 0.02,0 0.03,-0.02 0.05,-0.03 0.01,-0.01 0.03,-0.03 0.04,-0.05l0 -0.23z"/>
   <path class="fil7" d="M26.36 2.97c0,0 0,0.01 0,0.02 0,0.01 0,0.01 0,0.02 0,0 0,0.01 -0.01,0.01 0,0 0,0.01 -0.01,0.02 -0.01,0.01 -0.03,0.02 -0.05,0.03 -0.02,0.02 -0.04,0.03 -0.07,0.04 -0.03,0.01 -0.06,0.02 -0.09,0.03 -0.03,0.01 -0.06,0.01 -0.09,0.01 -0.07,0 -0.13,-0.01 -0.18,-0.03 -0.05,-0.03 -0.09,-0.06 -0.13,-0.1 -0.03,-0.05 -0.06,-0.1 -0.08,-0.16 -0.02,-0.07 -0.03,-0.14 -0.03,-0.22 0,-0.1 0.02,-0.17 0.04,-0.24 0.02,-0.07 0.05,-0.12 0.09,-0.16 0.04,-0.05 0.08,-0.08 0.14,-0.1 0.05,-0.02 0.1,-0.03 0.16,-0.03 0.03,0 0.06,0 0.09,0.01 0.03,0.01 0.06,0.01 0.08,0.02 0.03,0.01 0.05,0.03 0.07,0.04 0.02,0.01 0.03,0.02 0.04,0.03 0.01,0.01 0.02,0.02 0.02,0.02 0,0.01 0,0.01 0.01,0.02 0,0 0,0.01 0,0.01 0,0.01 0,0.02 0,0.03 0,0.02 0,0.03 -0.01,0.04 0,0.01 -0.01,0.01 -0.02,0.01 -0.01,0 -0.02,0 -0.03,-0.02 -0.02,-0.01 -0.04,-0.02 -0.06,-0.04 -0.02,-0.01 -0.05,-0.03 -0.08,-0.04 -0.03,-0.01 -0.07,-0.02 -0.12,-0.02 -0.09,0 -0.16,0.04 -0.21,0.11 -0.05,0.07 -0.07,0.17 -0.07,0.3 0,0.07 0,0.13 0.02,0.18 0.01,0.05 0.03,0.09 0.06,0.13 0.02,0.03 0.05,0.05 0.09,0.07 0.03,0.02 0.07,0.03 0.12,0.03 0.04,0 0.08,-0.01 0.11,-0.02 0.03,-0.02 0.06,-0.03 0.08,-0.05 0.03,-0.02 0.05,-0.03 0.06,-0.04 0.02,-0.02 0.03,-0.02 0.04,-0.02 0,0 0.01,0 0.01,0 0,0 0.01,0.01 0.01,0.01 0,0.01 0,0.01 0,0.02 0,0.01 0,0.02 0,0.03z"/>
   <path id="_1_0" class="fil7" d="M27.41 2.62c0,0.08 -0.01,0.15 -0.03,0.21 -0.02,0.06 -0.05,0.12 -0.09,0.17 -0.04,0.05 -0.09,0.08 -0.15,0.11 -0.06,0.02 -0.13,0.04 -0.2,0.04 -0.08,0 -0.14,-0.01 -0.2,-0.04 -0.06,-0.02 -0.1,-0.05 -0.14,-0.1 -0.04,-0.04 -0.07,-0.1 -0.09,-0.16 -0.01,-0.06 -0.02,-0.13 -0.02,-0.21 0,-0.08 0.01,-0.15 0.03,-0.21 0.01,-0.07 0.04,-0.12 0.08,-0.17 0.04,-0.05 0.09,-0.08 0.15,-0.11 0.06,-0.03 0.13,-0.04 0.21,-0.04 0.07,0 0.14,0.01 0.19,0.04 0.06,0.02 0.11,0.05 0.14,0.1 0.04,0.04 0.07,0.09 0.09,0.16 0.02,0.06 0.03,0.13 0.03,0.21zm-0.14 0.01c0,-0.05 0,-0.1 -0.01,-0.15 -0.01,-0.05 -0.03,-0.1 -0.06,-0.13 -0.02,-0.04 -0.05,-0.07 -0.1,-0.09 -0.04,-0.03 -0.09,-0.04 -0.15,-0.04 -0.06,0 -0.11,0.01 -0.15,0.03 -0.04,0.02 -0.07,0.05 -0.1,0.09 -0.03,0.03 -0.05,0.08 -0.06,0.13 -0.01,0.05 -0.02,0.1 -0.02,0.16 0,0.05 0.01,0.1 0.02,0.15 0.01,0.05 0.02,0.1 0.05,0.13 0.02,0.04 0.06,0.07 0.1,0.09 0.04,0.02 0.09,0.04 0.15,0.04 0.06,0 0.11,-0.01 0.15,-0.04 0.04,-0.02 0.08,-0.04 0.1,-0.08 0.03,-0.04 0.05,-0.08 0.06,-0.13 0.02,-0.05 0.02,-0.1 0.02,-0.16z"/>
   <path id="_2_1" class="fil7" d="M28.43 3.11c0,0 -0.01,0.01 -0.01,0.01 0,0.01 0,0.01 -0.01,0.01 0,0 -0.01,0 -0.02,0.01 0,0 -0.01,0 -0.03,0 -0.01,0 -0.02,0 -0.03,0 -0.01,-0.01 -0.01,-0.01 -0.02,-0.01 0,0 0,0 -0.01,-0.01 0,0 0,-0.01 0,-0.01l0 -0.57c0,-0.06 0,-0.11 -0.01,-0.14 -0.01,-0.04 -0.03,-0.07 -0.04,-0.1 -0.02,-0.03 -0.05,-0.05 -0.08,-0.06 -0.02,-0.01 -0.06,-0.02 -0.1,-0.02 -0.04,0 -0.09,0.02 -0.14,0.05 -0.05,0.03 -0.1,0.09 -0.15,0.15l0 0.69c0,0 -0.01,0.01 -0.01,0.01 0,0.01 0,0.01 -0.01,0.01 0,0 -0.01,0 -0.02,0.01 -0.01,0 -0.02,0 -0.03,0 -0.01,0 -0.02,0 -0.03,0 -0.01,-0.01 -0.01,-0.01 -0.02,-0.01 0,0 -0.01,0 -0.01,-0.01 0,0 0,-0.01 0,-0.01l0 -0.96c0,0 0,-0.01 0,-0.01 0,0 0.01,-0.01 0.01,-0.01 0.01,0 0.01,0 0.02,0 0.01,-0.01 0.02,-0.01 0.03,-0.01 0.01,0 0.02,0 0.03,0.01 0.01,0 0.01,0 0.02,0 0,0 0,0.01 0.01,0.01 0,0 0,0.01 0,0.01l0 0.14c0.05,-0.06 0.11,-0.11 0.16,-0.14 0.05,-0.02 0.11,-0.04 0.16,-0.04 0.06,0 0.11,0.01 0.16,0.03 0.04,0.02 0.07,0.05 0.1,0.09 0.03,0.04 0.05,0.08 0.06,0.13 0.01,0.04 0.02,0.1 0.02,0.17l0 0.58z"/>
   <path id="_3_2" class="fil7" d="M29.3 2.85c0,0.05 -0.01,0.09 -0.02,0.13 -0.02,0.03 -0.05,0.06 -0.08,0.09 -0.03,0.03 -0.07,0.04 -0.11,0.06 -0.04,0.01 -0.09,0.02 -0.15,0.02 -0.03,0 -0.06,0 -0.09,-0.01 -0.03,-0.01 -0.06,-0.01 -0.08,-0.02 -0.02,-0.01 -0.04,-0.02 -0.06,-0.03 -0.02,0 -0.03,-0.01 -0.04,-0.02 -0.01,-0.01 -0.01,-0.02 -0.01,-0.03 -0.01,-0.01 -0.01,-0.02 -0.01,-0.04 0,-0.01 0,-0.02 0,-0.02 0,-0.01 0.01,-0.02 0.01,-0.02 0,-0.01 0,-0.01 0.01,-0.01 0,0 0,-0.01 0.01,-0.01 0.01,0 0.02,0.01 0.03,0.02 0.02,0.01 0.03,0.02 0.06,0.03 0.02,0.01 0.05,0.02 0.08,0.03 0.03,0.01 0.06,0.02 0.1,0.02 0.04,0 0.07,-0.01 0.09,-0.01 0.03,-0.01 0.05,-0.02 0.07,-0.03 0.02,-0.02 0.04,-0.04 0.05,-0.06 0.01,-0.02 0.01,-0.05 0.01,-0.08 0,-0.03 0,-0.05 -0.02,-0.07 -0.01,-0.02 -0.03,-0.04 -0.05,-0.06 -0.03,-0.01 -0.05,-0.02 -0.08,-0.04 -0.03,-0.01 -0.06,-0.02 -0.09,-0.03 -0.03,-0.01 -0.06,-0.03 -0.09,-0.04 -0.03,-0.02 -0.06,-0.04 -0.08,-0.06 -0.02,-0.02 -0.04,-0.04 -0.05,-0.07 -0.02,-0.03 -0.03,-0.07 -0.03,-0.11 0,-0.03 0.01,-0.07 0.02,-0.1 0.02,-0.03 0.04,-0.06 0.06,-0.08 0.03,-0.03 0.06,-0.05 0.1,-0.07 0.04,-0.01 0.09,-0.02 0.15,-0.02 0.02,0 0.05,0 0.07,0.01 0.03,0 0.05,0.01 0.07,0.01 0.02,0.01 0.03,0.02 0.05,0.02 0.01,0.01 0.02,0.02 0.03,0.02 0.01,0.01 0.01,0.01 0.01,0.02 0.01,0 0.01,0 0.01,0.01 0,0 0,0.01 0,0.01 0,0.01 0,0.02 0,0.03 0,0 0,0.01 0,0.02 0,0.01 0,0.01 0,0.02 -0.01,0 -0.01,0.01 -0.01,0.01 0,0 -0.01,0 -0.01,0 -0.01,0 -0.02,0 -0.03,-0.01 -0.01,-0.01 -0.02,-0.02 -0.04,-0.03 -0.02,0 -0.04,-0.01 -0.07,-0.02 -0.02,-0.01 -0.05,-0.01 -0.09,-0.01 -0.03,0 -0.06,0 -0.08,0.01 -0.03,0.01 -0.05,0.02 -0.07,0.03 -0.01,0.02 -0.02,0.03 -0.03,0.05 -0.01,0.02 -0.01,0.04 -0.01,0.06 0,0.04 0,0.06 0.02,0.08 0.01,0.02 0.03,0.04 0.05,0.06 0.03,0.01 0.05,0.03 0.08,0.04 0.03,0.01 0.06,0.02 0.09,0.03 0.03,0.02 0.06,0.03 0.09,0.04 0.03,0.02 0.06,0.04 0.08,0.06 0.03,0.02 0.04,0.04 0.06,0.07 0.01,0.03 0.02,0.06 0.02,0.1z"/>
   <path id="_4_3" class="fil7" d="M30.31 3.11c0,0 0,0.01 0,0.01 -0.01,0.01 -0.01,0.01 -0.02,0.01 0,0 -0.01,0 -0.01,0.01 -0.01,0 -0.02,0 -0.03,0 -0.02,0 -0.03,0 -0.03,0 -0.01,-0.01 -0.02,-0.01 -0.02,-0.01 -0.01,0 -0.01,0 -0.01,-0.01 0,0 0,-0.01 0,-0.01l0 -0.14c-0.06,0.07 -0.11,0.11 -0.16,0.14 -0.06,0.02 -0.11,0.04 -0.16,0.04 -0.06,0 -0.12,-0.01 -0.16,-0.03 -0.04,-0.02 -0.08,-0.05 -0.1,-0.09 -0.03,-0.04 -0.05,-0.08 -0.06,-0.13 -0.01,-0.04 -0.02,-0.1 -0.02,-0.17l0 -0.58c0,0 0,-0.01 0,-0.01 0.01,0 0.01,-0.01 0.01,-0.01 0.01,0 0.02,0 0.02,0 0.01,-0.01 0.02,-0.01 0.03,-0.01 0.02,0 0.03,0 0.03,0.01 0.01,0 0.02,0 0.02,0 0.01,0 0.01,0.01 0.01,0.01 0.01,0 0.01,0.01 0.01,0.01l0 0.57c0,0.06 0,0.11 0.01,0.14 0.01,0.04 0.02,0.07 0.04,0.1 0.02,0.03 0.04,0.05 0.07,0.06 0.03,0.01 0.06,0.02 0.1,0.02 0.05,0 0.1,-0.02 0.15,-0.05 0.05,-0.03 0.1,-0.08 0.15,-0.15l0 -0.69c0,0 0,-0.01 0,-0.01 0.01,0 0.01,-0.01 0.01,-0.01 0.01,0 0.02,0 0.02,0 0.01,-0.01 0.02,-0.01 0.04,-0.01 0.01,0 0.02,0 0.03,0.01 0,0 0.01,0 0.01,0 0.01,0 0.01,0.01 0.01,0.01 0.01,0 0.01,0.01 0.01,0.01l0 0.96z"/>
   <path id="_5_4" class="fil7" d="M30.75 3.11c0,0 0,0.01 -0.01,0.01 0,0.01 0,0.01 -0.01,0.01 0,0 -0.01,0 -0.01,0.01 -0.01,0 -0.02,0 -0.04,0 -0.01,0 -0.02,0 -0.03,0 0,-0.01 -0.01,-0.01 -0.01,-0.01 -0.01,0 -0.01,0 -0.02,-0.01 0,0 0,-0.01 0,-0.01l0 -1.43c0,0 0,-0.01 0,-0.01 0.01,0 0.01,-0.01 0.02,-0.01 0,0 0.01,0 0.01,0 0.01,-0.01 0.02,-0.01 0.03,-0.01 0.02,0 0.03,0 0.04,0.01 0,0 0.01,0 0.01,0 0.01,0 0.01,0.01 0.01,0.01 0.01,0 0.01,0.01 0.01,0.01l0 1.43z"/>
   <path id="_6_5" class="fil7" d="M32.95 3.11c0,0 0,0.01 0,0.01 -0.01,0.01 -0.01,0.01 -0.01,0.01 -0.01,0 -0.01,0 -0.02,0.01 -0.01,0 -0.02,0 -0.03,0 -0.02,0 -0.03,0 -0.03,0 -0.01,-0.01 -0.02,-0.01 -0.02,-0.01 -0.01,0 -0.01,0 -0.01,-0.01 -0.01,0 -0.01,-0.01 -0.01,-0.01l0 -0.57c0,-0.06 0,-0.11 -0.01,-0.14 -0.01,-0.04 -0.02,-0.07 -0.04,-0.1 -0.02,-0.03 -0.04,-0.05 -0.07,-0.06 -0.03,-0.01 -0.06,-0.02 -0.1,-0.02 -0.05,0 -0.1,0.02 -0.15,0.05 -0.05,0.03 -0.1,0.09 -0.15,0.15l0 0.69c0,0 0,0.01 0,0.01 -0.01,0.01 -0.01,0.01 -0.01,0.01 -0.01,0 -0.02,0 -0.02,0.01 -0.01,0 -0.02,0 -0.03,0 -0.02,0 -0.03,0 -0.03,0 -0.01,-0.01 -0.02,-0.01 -0.02,-0.01 -0.01,0 -0.01,0 -0.01,-0.01 -0.01,0 -0.01,-0.01 -0.01,-0.01l0 -0.96c0,0 0,-0.01 0.01,-0.01 0,0 0,-0.01 0.01,-0.01 0,0 0.01,0 0.01,0 0.01,-0.01 0.02,-0.01 0.03,-0.01 0.02,0 0.03,0 0.03,0.01 0.01,0 0.02,0 0.02,0 0.01,0 0.01,0.01 0.01,0.01 0,0 0,0.01 0,0.01l0 0.14c0.06,-0.06 0.11,-0.11 0.16,-0.14 0.06,-0.02 0.11,-0.04 0.16,-0.04 0.06,0 0.12,0.01 0.16,0.03 0.04,0.02 0.08,0.05 0.11,0.09 0.02,0.04 0.04,0.08 0.05,0.13 0.01,0.04 0.02,0.1 0.02,0.17l0 0.58z"/>
   <path id="_7_6" class="fil7" d="M34.03 2.18c0,0.02 -0.01,0.04 -0.01,0.04 -0.01,0.01 -0.02,0.02 -0.03,0.02l-0.15 0c0.03,0.03 0.05,0.06 0.06,0.09 0.02,0.04 0.02,0.08 0.02,0.12 0,0.05 -0.01,0.1 -0.02,0.14 -0.02,0.04 -0.05,0.08 -0.08,0.11 -0.03,0.03 -0.07,0.05 -0.11,0.07 -0.05,0.01 -0.09,0.02 -0.15,0.02 -0.04,0 -0.08,-0.01 -0.12,-0.02 -0.04,-0.01 -0.07,-0.02 -0.09,-0.04 -0.01,0.01 -0.03,0.03 -0.04,0.05 0,0.02 -0.01,0.04 -0.01,0.06 0,0.03 0.01,0.05 0.04,0.07 0.03,0.02 0.06,0.03 0.1,0.03l0.26 0.01c0.04,0 0.09,0.01 0.12,0.02 0.04,0.01 0.08,0.02 0.11,0.04 0.02,0.02 0.05,0.05 0.06,0.08 0.02,0.03 0.03,0.07 0.03,0.11 0,0.04 -0.01,0.08 -0.03,0.12 -0.01,0.04 -0.04,0.07 -0.08,0.1 -0.03,0.03 -0.08,0.05 -0.14,0.07 -0.05,0.02 -0.12,0.03 -0.2,0.03 -0.07,0 -0.14,-0.01 -0.19,-0.02 -0.05,-0.02 -0.1,-0.03 -0.13,-0.06 -0.03,-0.02 -0.06,-0.05 -0.07,-0.08 -0.02,-0.03 -0.03,-0.06 -0.03,-0.1 0,-0.02 0.01,-0.05 0.01,-0.07 0.01,-0.02 0.02,-0.04 0.03,-0.06 0.01,-0.02 0.02,-0.04 0.04,-0.06 0.02,-0.02 0.04,-0.03 0.06,-0.05 -0.03,-0.02 -0.06,-0.04 -0.08,-0.07 -0.01,-0.03 -0.02,-0.05 -0.02,-0.08 0,-0.05 0,-0.09 0.02,-0.12 0.02,-0.03 0.04,-0.06 0.06,-0.09 -0.02,-0.03 -0.03,-0.06 -0.04,-0.09 -0.02,-0.03 -0.02,-0.07 -0.02,-0.11 0,-0.06 0.01,-0.11 0.02,-0.15 0.02,-0.04 0.05,-0.08 0.08,-0.11 0.03,-0.03 0.07,-0.05 0.11,-0.06 0.05,-0.02 0.09,-0.03 0.15,-0.03 0.02,0 0.05,0 0.07,0.01 0.03,0 0.05,0 0.07,0.01l0.28 0c0.02,0 0.02,0 0.03,0.01 0.01,0.01 0.01,0.03 0.01,0.04zm-0.24 0.27c0,-0.07 -0.02,-0.13 -0.06,-0.17 -0.04,-0.04 -0.09,-0.06 -0.17,-0.06 -0.04,0 -0.07,0 -0.1,0.02 -0.02,0.01 -0.05,0.03 -0.07,0.05 -0.01,0.02 -0.03,0.05 -0.04,0.07 -0.01,0.03 -0.01,0.06 -0.01,0.1 0,0.07 0.02,0.12 0.06,0.16 0.04,0.04 0.09,0.06 0.17,0.06 0.03,0 0.07,0 0.1,-0.02 0.02,-0.01 0.05,-0.02 0.07,-0.05 0.01,-0.02 0.03,-0.04 0.04,-0.07 0.01,-0.03 0.01,-0.06 0.01,-0.09zm0.1 0.75c0,-0.04 -0.02,-0.08 -0.05,-0.1 -0.04,-0.03 -0.09,-0.04 -0.16,-0.04l-0.27 -0.01c-0.03,0.02 -0.05,0.04 -0.07,0.05 -0.01,0.02 -0.03,0.04 -0.04,0.06 0,0.01 -0.01,0.03 -0.01,0.04 -0.01,0.02 -0.01,0.04 -0.01,0.05 0,0.05 0.03,0.09 0.08,0.12 0.05,0.03 0.12,0.04 0.22,0.04 0.06,0 0.11,0 0.15,-0.02 0.04,-0.01 0.07,-0.02 0.09,-0.04 0.03,-0.02 0.05,-0.04 0.06,-0.07 0.01,-0.02 0.01,-0.05 0.01,-0.08z"/>
   <path id="_8_7" class="fil7" d="M35.56 2.62c0,0.08 0,0.15 -0.02,0.22 -0.02,0.06 -0.05,0.12 -0.08,0.16 -0.04,0.05 -0.08,0.09 -0.13,0.11 -0.05,0.03 -0.11,0.04 -0.18,0.04 -0.03,0 -0.05,0 -0.08,-0.01 -0.02,-0.01 -0.05,-0.02 -0.07,-0.03 -0.02,-0.01 -0.05,-0.03 -0.07,-0.05 -0.03,-0.02 -0.05,-0.04 -0.08,-0.07l0 0.5c0,0 0,0.01 0,0.01 0,0 -0.01,0.01 -0.01,0.01 0,0 -0.01,0 -0.02,0.01 -0.01,0 -0.02,0 -0.03,0 -0.01,0 -0.02,0 -0.03,0 -0.01,-0.01 -0.01,-0.01 -0.02,-0.01 0,0 -0.01,-0.01 -0.01,-0.01 0,0 0,-0.01 0,-0.01l0 -1.34c0,0 0,-0.01 0,-0.01 0,0 0.01,-0.01 0.01,-0.01 0,0 0.01,0 0.02,0 0.01,-0.01 0.01,-0.01 0.02,-0.01 0.02,0 0.02,0 0.03,0.01 0.01,0 0.01,0 0.02,0 0,0 0.01,0.01 0.01,0.01 0,0 0,0.01 0,0.01l0 0.14c0.03,-0.03 0.06,-0.06 0.09,-0.08 0.02,-0.02 0.05,-0.04 0.08,-0.06 0.03,-0.01 0.05,-0.02 0.08,-0.03 0.03,0 0.06,-0.01 0.09,-0.01 0.07,0 0.13,0.01 0.18,0.04 0.05,0.03 0.09,0.06 0.12,0.11 0.03,0.05 0.05,0.1 0.06,0.16 0.02,0.06 0.02,0.13 0.02,0.2zm-0.13 0.02c0,-0.06 0,-0.11 -0.01,-0.16 -0.01,-0.05 -0.02,-0.09 -0.04,-0.13 -0.02,-0.04 -0.05,-0.07 -0.08,-0.09 -0.04,-0.03 -0.08,-0.04 -0.13,-0.04 -0.03,0 -0.05,0 -0.08,0.01 -0.02,0.01 -0.04,0.02 -0.07,0.04 -0.03,0.01 -0.05,0.03 -0.08,0.06 -0.03,0.02 -0.06,0.06 -0.09,0.09l0 0.42c0.06,0.07 0.11,0.11 0.16,0.15 0.04,0.03 0.09,0.05 0.15,0.05 0.05,0 0.09,-0.01 0.12,-0.04 0.04,-0.02 0.07,-0.05 0.09,-0.09 0.02,-0.04 0.04,-0.08 0.05,-0.13 0.01,-0.05 0.01,-0.1 0.01,-0.14z"/>
   <path id="_9_8" class="fil7" d="M36.48 3.11c0,0.01 0,0.01 0,0.02 -0.01,0 -0.01,0 -0.02,0 -0.01,0.01 -0.02,0.01 -0.03,0.01 -0.01,0 -0.02,0 -0.03,-0.01 -0.01,0 -0.02,0 -0.02,0 0,-0.01 -0.01,-0.01 -0.01,-0.02l0 -0.11c-0.04,0.05 -0.09,0.09 -0.14,0.11 -0.05,0.03 -0.11,0.04 -0.16,0.04 -0.05,0 -0.1,-0.01 -0.14,-0.02 -0.04,-0.01 -0.07,-0.03 -0.1,-0.06 -0.02,-0.02 -0.05,-0.05 -0.06,-0.09 -0.02,-0.03 -0.02,-0.07 -0.02,-0.11 0,-0.06 0.01,-0.1 0.03,-0.14 0.02,-0.04 0.05,-0.07 0.09,-0.1 0.04,-0.03 0.09,-0.05 0.15,-0.06 0.05,-0.01 0.12,-0.02 0.19,-0.02l0.15 0 0 -0.08c0,-0.04 -0.01,-0.08 -0.01,-0.11 -0.01,-0.03 -0.03,-0.06 -0.04,-0.08 -0.02,-0.02 -0.05,-0.03 -0.08,-0.04 -0.03,-0.01 -0.07,-0.02 -0.11,-0.02 -0.04,0 -0.08,0.01 -0.11,0.02 -0.04,0.01 -0.07,0.02 -0.09,0.03 -0.03,0.01 -0.05,0.02 -0.07,0.03 -0.01,0.01 -0.02,0.02 -0.03,0.02 -0.01,0 -0.01,0 -0.01,0 -0.01,0 -0.01,-0.01 -0.01,-0.01 0,0 -0.01,-0.01 -0.01,-0.02 0,0 0,-0.01 0,-0.02 0,-0.01 0,-0.02 0,-0.03 0.01,-0.01 0.01,-0.02 0.02,-0.03 0.01,-0.01 0.02,-0.02 0.05,-0.03 0.02,-0.01 0.05,-0.02 0.08,-0.03 0.02,-0.01 0.06,-0.02 0.09,-0.03 0.03,-0.01 0.07,-0.01 0.1,-0.01 0.07,0 0.12,0.01 0.17,0.03 0.04,0.01 0.08,0.03 0.11,0.06 0.03,0.03 0.05,0.07 0.06,0.11 0.01,0.05 0.01,0.1 0.01,0.15l0 0.65zm-0.12 -0.45l-0.18 0c-0.05,0 -0.09,0 -0.13,0.01 -0.04,0.01 -0.07,0.02 -0.09,0.04 -0.03,0.02 -0.05,0.04 -0.06,0.06 -0.01,0.03 -0.02,0.06 -0.02,0.09 0,0.05 0.02,0.1 0.05,0.13 0.04,0.03 0.09,0.05 0.15,0.05 0.05,0 0.1,-0.01 0.14,-0.04 0.04,-0.02 0.09,-0.06 0.14,-0.12l0 -0.22z"/>
   <path id="_10" class="fil7" d="M37.33 2.2c0,0.01 0,0.02 0,0.03 0,0 -0.01,0.01 -0.01,0.01 0,0.01 0,0.01 0,0.01 -0.01,0.01 -0.01,0.01 -0.01,0.01 -0.01,0 -0.02,0 -0.03,-0.01 0,0 -0.01,0 -0.03,-0.01 -0.01,0 -0.02,0 -0.03,-0.01 -0.02,0 -0.03,0 -0.05,0 -0.02,0 -0.03,0 -0.05,0.01 -0.02,0.01 -0.04,0.02 -0.06,0.04 -0.02,0.02 -0.04,0.04 -0.06,0.07 -0.03,0.03 -0.05,0.07 -0.08,0.11l0 0.65c0,0 0,0.01 0,0.01 0,0.01 -0.01,0.01 -0.01,0.01 -0.01,0 -0.01,0 -0.02,0.01 -0.01,0 -0.02,0 -0.03,0 -0.01,0 -0.02,0 -0.03,0 -0.01,-0.01 -0.02,-0.01 -0.02,-0.01 -0.01,0 -0.01,0 -0.01,-0.01 0,0 0,-0.01 0,-0.01l0 -0.96c0,0 0,-0.01 0,-0.01 0,0 0,-0.01 0.01,-0.01 0,0 0.01,0 0.02,0 0,-0.01 0.01,-0.01 0.03,-0.01 0.01,0 0.02,0 0.03,0.01 0,0 0.01,0 0.01,0 0.01,0 0.01,0.01 0.01,0.01 0,0 0.01,0.01 0.01,0.01l0 0.15c0.02,-0.04 0.05,-0.07 0.07,-0.09 0.02,-0.03 0.05,-0.05 0.07,-0.06 0.02,-0.02 0.04,-0.03 0.06,-0.03 0.02,-0.01 0.04,-0.01 0.06,-0.01 0.01,0 0.02,0 0.03,0 0.02,0 0.03,0.01 0.04,0.01 0.02,0 0.03,0 0.04,0.01 0.01,0 0.02,0.01 0.02,0.01 0.01,0 0.01,0.01 0.01,0.01 0,0 0,0 0,0.01 0.01,0 0.01,0.01 0.01,0.01 0,0.01 0,0.02 0,0.03z"/>
   <path id="_11" class="fil7" d="M37.96 3.05c0,0.02 0,0.03 0,0.04 0,0.01 -0.01,0.01 -0.01,0.02 -0.01,0 -0.02,0.01 -0.03,0.01 -0.01,0.01 -0.02,0.01 -0.03,0.02 -0.01,0 -0.03,0 -0.04,0 -0.02,0.01 -0.03,0.01 -0.05,0.01 -0.04,0 -0.08,-0.01 -0.12,-0.02 -0.03,-0.02 -0.06,-0.03 -0.08,-0.06 -0.02,-0.03 -0.04,-0.06 -0.04,-0.1 -0.01,-0.04 -0.02,-0.08 -0.02,-0.14l0 -0.59 -0.14 0c-0.01,0 -0.02,-0.01 -0.02,-0.02 -0.01,-0.01 -0.01,-0.02 -0.01,-0.04 0,-0.01 0,-0.01 0,-0.02 0,-0.01 0,-0.01 0.01,-0.02 0,0 0,-0.01 0.01,-0.01 0,0 0,0 0.01,0l0.14 0 0 -0.24c0,0 0,0 0,-0.01 0,0 0.01,0 0.01,-0.01 0.01,0 0.01,0 0.02,0 0.01,0 0.02,0 0.03,0 0.02,0 0.03,0 0.03,0 0.01,0 0.02,0 0.02,0 0.01,0.01 0.01,0.01 0.01,0.01 0.01,0.01 0.01,0.01 0.01,0.01l0 0.24 0.26 0c0.01,0 0.01,0 0.02,0 0,0 0,0.01 0.01,0.01 0,0.01 0,0.01 0,0.02 0,0.01 0,0.01 0,0.02 0,0.02 0,0.03 -0.01,0.04 0,0.01 -0.01,0.02 -0.02,0.02l-0.26 0 0 0.57c0,0.08 0.01,0.13 0.03,0.17 0.02,0.04 0.06,0.06 0.11,0.06 0.02,0 0.03,0 0.05,-0.01 0.01,0 0.02,0 0.03,-0.01 0.02,0 0.02,-0.01 0.03,-0.01 0.01,0 0.02,-0.01 0.02,-0.01 0,0 0.01,0 0.01,0.01 0,0 0.01,0 0.01,0 0,0.01 0,0.01 0,0.02 0,0 0,0.01 0,0.02z"/>
   <path id="_12" class="fil7" d="M38.95 3.11c0,0 0,0.01 0,0.01 0,0.01 -0.01,0.01 -0.01,0.01 0,0 -0.01,0 -0.02,0.01 -0.01,0 -0.02,0 -0.03,0 -0.01,0 -0.02,0 -0.03,0 -0.01,-0.01 -0.01,-0.01 -0.02,-0.01 0,0 -0.01,0 -0.01,-0.01 0,0 0,-0.01 0,-0.01l0 -0.57c0,-0.06 -0.01,-0.11 -0.02,-0.14 -0.01,-0.04 -0.02,-0.07 -0.04,-0.1 -0.02,-0.03 -0.04,-0.05 -0.07,-0.06 -0.03,-0.01 -0.06,-0.02 -0.1,-0.02 -0.05,0 -0.1,0.02 -0.14,0.05 -0.05,0.03 -0.1,0.09 -0.16,0.15l0 0.69c0,0 0,0.01 0,0.01 0,0.01 -0.01,0.01 -0.01,0.01 -0.01,0 -0.01,0 -0.02,0.01 -0.01,0 -0.02,0 -0.03,0 -0.01,0 -0.02,0 -0.03,0 -0.01,-0.01 -0.02,-0.01 -0.02,-0.01 -0.01,0 -0.01,0 -0.01,-0.01 0,0 0,-0.01 0,-0.01l0 -0.96c0,0 0,-0.01 0,-0.01 0,0 0,-0.01 0.01,-0.01 0,0 0.01,0 0.02,0 0.01,-0.01 0.02,-0.01 0.03,-0.01 0.01,0 0.02,0 0.03,0.01 0,0 0.01,0 0.01,0 0.01,0 0.01,0.01 0.01,0.01 0.01,0 0.01,0.01 0.01,0.01l0 0.14c0.05,-0.06 0.11,-0.11 0.16,-0.14 0.05,-0.02 0.1,-0.04 0.16,-0.04 0.06,0 0.11,0.01 0.15,0.03 0.05,0.02 0.08,0.05 0.11,0.09 0.03,0.04 0.04,0.08 0.06,0.13 0.01,0.04 0.01,0.1 0.01,0.17l0 0.58z"/>
   <path id="_13" class="fil7" d="M40.04 2.58c0,0.03 0,0.04 -0.02,0.05 -0.01,0.01 -0.02,0.02 -0.03,0.02l-0.66 0c0,0.06 0.01,0.11 0.02,0.16 0.01,0.05 0.03,0.09 0.06,0.12 0.03,0.04 0.06,0.06 0.1,0.08 0.05,0.02 0.1,0.03 0.16,0.03 0.05,0 0.09,-0.01 0.12,-0.01 0.04,-0.01 0.07,-0.02 0.09,-0.03 0.03,-0.01 0.05,-0.02 0.07,-0.03 0.01,0 0.02,-0.01 0.03,-0.01 0.01,0 0.01,0 0.01,0.01 0.01,0 0.01,0 0.01,0 0,0.01 0.01,0.02 0.01,0.02 0,0.01 0,0.02 0,0.03 0,0 0,0.01 0,0.01 0,0.01 0,0.01 -0.01,0.02 0,0 0,0 0,0.01 0,0 -0.01,0 -0.01,0.01 0,0 -0.01,0.01 -0.03,0.02 -0.02,0 -0.04,0.01 -0.07,0.02 -0.03,0.01 -0.07,0.02 -0.11,0.03 -0.04,0 -0.08,0.01 -0.12,0.01 -0.08,0 -0.14,-0.01 -0.2,-0.03 -0.06,-0.03 -0.11,-0.06 -0.14,-0.1 -0.04,-0.05 -0.07,-0.1 -0.09,-0.16 -0.02,-0.07 -0.03,-0.14 -0.03,-0.23 0,-0.08 0.01,-0.15 0.03,-0.22 0.02,-0.06 0.05,-0.12 0.09,-0.16 0.04,-0.05 0.08,-0.08 0.14,-0.1 0.05,-0.03 0.11,-0.04 0.18,-0.04 0.07,0 0.13,0.01 0.18,0.04 0.06,0.02 0.1,0.05 0.13,0.09 0.03,0.05 0.06,0.09 0.07,0.15 0.02,0.05 0.02,0.11 0.02,0.17l0 0.02zm-0.13 -0.04c0.01,-0.1 -0.02,-0.18 -0.07,-0.23 -0.04,-0.06 -0.11,-0.09 -0.21,-0.09 -0.05,0 -0.09,0.01 -0.12,0.03 -0.04,0.01 -0.07,0.04 -0.1,0.07 -0.02,0.03 -0.04,0.06 -0.05,0.1 -0.02,0.04 -0.02,0.08 -0.03,0.12l0.58 0z"/>
   <path id="_14" class="fil7" d="M40.83 2.2c0,0.01 0,0.02 0,0.03 0,0 -0.01,0.01 -0.01,0.01 0,0.01 0,0.01 0,0.01 -0.01,0.01 -0.01,0.01 -0.01,0.01 -0.01,0 -0.02,0 -0.03,-0.01 0,0 -0.01,0 -0.03,-0.01 -0.01,0 -0.02,0 -0.03,-0.01 -0.02,0 -0.03,0 -0.05,0 -0.02,0 -0.03,0 -0.05,0.01 -0.02,0.01 -0.04,0.02 -0.06,0.04 -0.02,0.02 -0.04,0.04 -0.06,0.07 -0.03,0.03 -0.05,0.07 -0.08,0.11l0 0.65c0,0 0,0.01 0,0.01 0,0.01 -0.01,0.01 -0.01,0.01 -0.01,0 -0.01,0 -0.02,0.01 -0.01,0 -0.02,0 -0.03,0 -0.01,0 -0.02,0 -0.03,0 -0.01,-0.01 -0.02,-0.01 -0.02,-0.01 -0.01,0 -0.01,0 -0.01,-0.01 0,0 0,-0.01 0,-0.01l0 -0.96c0,0 0,-0.01 0,-0.01 0,0 0,-0.01 0.01,-0.01 0,0 0.01,0 0.02,0 0,-0.01 0.01,-0.01 0.03,-0.01 0.01,0 0.02,0 0.03,0.01 0,0 0.01,0 0.01,0 0.01,0 0.01,0.01 0.01,0.01 0,0 0.01,0.01 0.01,0.01l0 0.15c0.02,-0.04 0.05,-0.07 0.07,-0.09 0.03,-0.03 0.05,-0.05 0.07,-0.06 0.02,-0.02 0.04,-0.03 0.06,-0.03 0.02,-0.01 0.04,-0.01 0.06,-0.01 0.01,0 0.02,0 0.03,0 0.02,0 0.03,0.01 0.04,0.01 0.02,0 0.03,0 0.04,0.01 0.01,0 0.02,0.01 0.02,0.01 0.01,0 0.01,0.01 0.01,0.01 0,0 0,0 0,0.01 0.01,0 0.01,0.01 0.01,0.01 0,0.01 0,0.02 0,0.03z"/>
   <path id="_15" class="fil7" d="M31.52 3.05c0,0.02 0,0.03 0,0.04 -0.01,0.01 -0.01,0.01 -0.01,0.02 -0.01,0 -0.02,0.01 -0.03,0.01 -0.01,0.01 -0.02,0.01 -0.03,0.02 -0.02,0 -0.03,0 -0.05,0 -0.01,0.01 -0.02,0.01 -0.04,0.01 -0.05,0 -0.09,-0.01 -0.12,-0.02 -0.03,-0.02 -0.06,-0.03 -0.08,-0.06 -0.02,-0.03 -0.04,-0.06 -0.05,-0.1 -0.01,-0.04 -0.01,-0.08 -0.01,-0.14l0 -0.59 -0.14 0c-0.01,0 -0.02,-0.01 -0.03,-0.02 0,-0.01 -0.01,-0.02 -0.01,-0.04 0,-0.01 0.01,-0.01 0.01,-0.02 0,-0.01 0,-0.01 0,-0.02 0.01,0 0.01,-0.01 0.01,-0.01 0.01,0 0.01,0 0.02,0l0.14 0 0 -0.24c0,0 0,0 0,-0.01 0,0 0.01,0 0.01,-0.01 0.01,0 0.01,0 0.02,0 0.01,0 0.02,0 0.03,0 0.01,0 0.02,0 0.03,0 0.01,0 0.02,0 0.02,0 0.01,0.01 0.01,0.01 0.01,0.01 0,0.01 0,0.01 0,0.01l0 0.24 0.27 0c0,0 0.01,0 0.01,0 0.01,0 0.01,0.01 0.01,0.01 0.01,0.01 0.01,0.01 0.01,0.02 0,0.01 0,0.01 0,0.02 0,0.02 0,0.03 -0.01,0.04 0,0.01 -0.01,0.02 -0.02,0.02l-0.27 0 0 0.57c0,0.08 0.01,0.13 0.04,0.17 0.02,0.04 0.05,0.06 0.11,0.06 0.02,0 0.03,0 0.05,-0.01 0.01,0 0.02,0 0.03,-0.01 0.01,0 0.02,-0.01 0.03,-0.01 0.01,0 0.01,-0.01 0.02,-0.01 0,0 0.01,0 0.01,0.01 0,0 0,0 0.01,0 0,0.01 0,0.01 0,0.02 0,0 0,0.01 0,0.02z"/>
   <path id="_16" class="fil7" d="M31.86 3.11c0,0 0,0.01 0,0.01 -0.01,0.01 -0.01,0.01 -0.01,0.01 -0.01,0 -0.01,0 -0.02,0.01 -0.01,0 -0.02,0 -0.03,0 -0.02,0 -0.03,0 -0.03,0 -0.01,-0.01 -0.02,-0.01 -0.02,-0.01 -0.01,0 -0.01,0 -0.01,-0.01 0,0 -0.01,-0.01 -0.01,-0.01l0 -0.96c0,0 0.01,-0.01 0.01,-0.01 0,0 0,-0.01 0.01,-0.01 0,0 0.01,0 0.02,0 0,-0.01 0.01,-0.01 0.03,-0.01 0.01,0 0.02,0 0.03,0.01 0.01,0 0.01,0 0.02,0 0,0 0,0.01 0.01,0.01 0,0 0,0.01 0,0.01l0 0.96zm0.02 -1.28c0,0.03 -0.01,0.06 -0.02,0.07 -0.01,0.01 -0.03,0.02 -0.06,0.02 -0.03,0 -0.06,-0.01 -0.07,-0.02 -0.01,-0.01 -0.02,-0.04 -0.02,-0.07 0,-0.03 0.01,-0.06 0.02,-0.07 0.01,-0.01 0.04,-0.02 0.07,-0.02 0.03,0 0.05,0.01 0.06,0.02 0.01,0.01 0.02,0.03 0.02,0.07z"/>
  </g>
 </g>
</svg>
