<?xml version="1.0" encoding="UTF-8"?>
<!DOCTYPE svg PUBLIC "-//W3C//DTD SVG 1.1//EN" "http://www.w3.org/Graphics/SVG/1.1/DTD/svg11.dtd">
<!-- Creator: CorelDRAW 2019 (64-Bit) -->
<svg xmlns="http://www.w3.org/2000/svg" xml:space="preserve" width="1101px" height="125px" version="1.1" style="shape-rendering:geometricPrecision; text-rendering:geometricPrecision; image-rendering:optimizeQuality; fill-rule:evenodd; clip-rule:evenodd"
viewBox="0 0 241.42 27.41"
 xmlns:xlink="http://www.w3.org/1999/xlink">
 <defs>
  <style type="text/css">
   <![CDATA[
    .fil0 {fill:#373487}
    .fil1 {fill:#373487;fill-rule:nonzero}
   ]]>
  </style>
 </defs>
 <g id="Layer_x0020_1">
  <metadata id="CorelCorpID_0Corel-Layer"/>
  <g id="_2042768779728">
   <path class="fil0" d="M23.46 21.49c1.64,0 2.96,1.32 2.96,2.96 0,1.63 -1.32,2.96 -2.96,2.96 -1.63,0 -2.95,-1.33 -2.95,-2.96 0,-1.64 1.32,-2.96 2.95,-2.96z"/>
   <path class="fil0" d="M26.35 16.31c1.32,0 2.38,1.06 2.38,2.37 0,1.32 -1.06,2.38 -2.38,2.38 -1.31,0 -2.37,-1.06 -2.37,-2.38 0,-1.31 1.06,-2.37 2.37,-2.37z"/>
   <path class="fil0" d="M20.57 16.31c1.32,0 2.38,1.06 2.38,2.37 0,1.32 -1.06,2.38 -2.38,2.38 -1.31,0 -2.37,-1.06 -2.37,-2.38 0,-1.31 1.06,-2.37 2.37,-2.37z"/>
   <path class="fil0" d="M29.19 12.16c1.05,0 1.9,0.85 1.9,1.89 0,1.05 -0.85,1.9 -1.9,1.9 -1.04,0 -1.89,-0.85 -1.89,-1.9 0,-1.04 0.85,-1.89 1.89,-1.89z"/>
   <path class="fil0" d="M23.46 12.16c1.05,0 1.9,0.85 1.9,1.89 0,1.05 -0.85,1.9 -1.9,1.9 -1.04,0 -1.89,-0.85 -1.89,-1.9 0,-1.04 0.85,-1.89 1.89,-1.89z"/>
   <path class="fil0" d="M17.73 12.16c1.05,0 1.9,0.85 1.9,1.89 0,1.05 -0.85,1.9 -1.9,1.9 -1.04,0 -1.89,-0.85 -1.89,-1.9 0,-1.04 0.85,-1.89 1.89,-1.89z"/>
   <path class="fil0" d="M32.04 8.88c0.81,0 1.47,0.65 1.47,1.47 0,0.81 -0.66,1.47 -1.47,1.47 -0.82,0 -1.47,-0.66 -1.47,-1.47 0,-0.82 0.65,-1.47 1.47,-1.47z"/>
   <path class="fil0" d="M26.32 8.88c0.81,0 1.47,0.65 1.47,1.47 0,0.81 -0.66,1.47 -1.47,1.47 -0.81,0 -1.47,-0.66 -1.47,-1.47 0,-0.82 0.66,-1.47 1.47,-1.47z"/>
   <path class="fil0" d="M20.51 8.88c0.81,0 1.47,0.65 1.47,1.47 0,0.81 -0.66,1.47 -1.47,1.47 -0.82,0 -1.48,-0.66 -1.48,-1.47 0,-0.82 0.66,-1.47 1.48,-1.47z"/>
   <path class="fil0" d="M14.79 8.88c0.81,0 1.47,0.65 1.47,1.47 0,0.81 -0.66,1.47 -1.47,1.47 -0.81,0 -1.47,-0.66 -1.47,-1.47 0,-0.82 0.66,-1.47 1.47,-1.47z"/>
   <path class="fil0" d="M34.97 6.22c0.68,0 1.24,0.55 1.24,1.24 0,0.68 -0.56,1.24 -1.24,1.24 -0.69,0 -1.24,-0.56 -1.24,-1.24 0,-0.69 0.55,-1.24 1.24,-1.24z"/>
   <path class="fil0" d="M29.2 6.22c0.68,0 1.24,0.55 1.24,1.24 0,0.68 -0.56,1.24 -1.24,1.24 -0.69,0 -1.24,-0.56 -1.24,-1.24 0,-0.69 0.55,-1.24 1.24,-1.24z"/>
   <path class="fil0" d="M23.49 6.22c0.68,0 1.24,0.55 1.24,1.24 0,0.68 -0.56,1.24 -1.24,1.24 -0.69,0 -1.24,-0.56 -1.24,-1.24 0,-0.69 0.55,-1.24 1.24,-1.24z"/>
   <path class="fil0" d="M17.72 6.22c0.69,0 1.24,0.55 1.24,1.24 0,0.68 -0.55,1.24 -1.24,1.24 -0.68,0 -1.24,-0.56 -1.24,-1.24 0,-0.69 0.56,-1.24 1.24,-1.24z"/>
   <path class="fil0" d="M11.96 6.22c0.68,0 1.24,0.55 1.24,1.24 0,0.68 -0.56,1.24 -1.24,1.24 -0.69,0 -1.24,-0.56 -1.24,-1.24 0,-0.69 0.55,-1.24 1.24,-1.24z"/>
   <path class="fil0" d="M37.8 4.04c0.59,0 1.07,0.47 1.07,1.06 0,0.59 -0.48,1.06 -1.07,1.06 -0.58,0 -1.06,-0.47 -1.06,-1.06 0,-0.59 0.48,-1.06 1.06,-1.06z"/>
   <path class="fil0" d="M32.06 4.04c0.59,0 1.06,0.47 1.06,1.06 0,0.59 -0.47,1.06 -1.06,1.06 -0.59,0 -1.06,-0.47 -1.06,-1.06 0,-0.59 0.47,-1.06 1.06,-1.06z"/>
   <path class="fil0" d="M26.32 4.04c0.58,0 1.06,0.47 1.06,1.06 0,0.59 -0.48,1.06 -1.06,1.06 -0.59,0 -1.06,-0.47 -1.06,-1.06 0,-0.59 0.47,-1.06 1.06,-1.06z"/>
   <path class="fil0" d="M20.58 4.04c0.58,0 1.06,0.47 1.06,1.06 0,0.59 -0.48,1.06 -1.06,1.06 -0.59,0 -1.07,-0.47 -1.07,-1.06 0,-0.59 0.48,-1.06 1.07,-1.06z"/>
   <path class="fil0" d="M14.83 4.04c0.59,0 1.06,0.47 1.06,1.06 0,0.59 -0.47,1.06 -1.06,1.06 -0.58,0 -1.06,-0.47 -1.06,-1.06 0,-0.59 0.48,-1.06 1.06,-1.06z"/>
   <path class="fil0" d="M9.09 4.04c0.59,0 1.06,0.47 1.06,1.06 0,0.59 -0.47,1.06 -1.06,1.06 -0.59,0 -1.06,-0.47 -1.06,-1.06 0,-0.59 0.47,-1.06 1.06,-1.06z"/>
   <path class="fil0" d="M40.69 2.51c0.43,0 0.78,0.35 0.78,0.77 0,0.43 -0.35,0.78 -0.78,0.78 -0.43,0 -0.78,-0.35 -0.78,-0.78 0,-0.42 0.35,-0.77 0.78,-0.77z"/>
   <path class="fil0" d="M34.94 2.51c0.43,0 0.78,0.35 0.78,0.77 0,0.43 -0.35,0.78 -0.78,0.78 -0.43,0 -0.77,-0.35 -0.77,-0.78 0,-0.42 0.34,-0.77 0.77,-0.77z"/>
   <path class="fil0" d="M29.2 2.51c0.43,0 0.77,0.35 0.77,0.77 0,0.43 -0.34,0.78 -0.77,0.78 -0.43,0 -0.78,-0.35 -0.78,-0.78 0,-0.42 0.35,-0.77 0.78,-0.77z"/>
   <path class="fil0" d="M23.45 2.51c0.43,0 0.78,0.35 0.78,0.77 0,0.43 -0.35,0.78 -0.78,0.78 -0.43,0 -0.78,-0.35 -0.78,-0.78 0,-0.42 0.35,-0.77 0.78,-0.77z"/>
   <path class="fil0" d="M17.71 2.51c0.43,0 0.77,0.35 0.77,0.77 0,0.43 -0.34,0.78 -0.77,0.78 -0.43,0 -0.78,-0.35 -0.78,-0.78 0,-0.42 0.35,-0.77 0.78,-0.77z"/>
   <path class="fil0" d="M11.96 2.51c0.43,0 0.78,0.35 0.78,0.77 0,0.43 -0.35,0.78 -0.78,0.78 -0.43,0 -0.78,-0.35 -0.78,-0.78 0,-0.42 0.35,-0.77 0.78,-0.77z"/>
   <path class="fil0" d="M6.21 2.51c0.43,0 0.78,0.35 0.78,0.77 0,0.43 -0.35,0.78 -0.78,0.78 -0.42,0 -0.77,-0.35 -0.77,-0.78 0,-0.42 0.35,-0.77 0.77,-0.77z"/>
   <path class="fil0" d="M43.54 1.11c0.35,0 0.63,0.28 0.63,0.63 0,0.35 -0.28,0.63 -0.63,0.63 -0.34,0 -0.63,-0.28 -0.63,-0.63 0,-0.35 0.29,-0.63 0.63,-0.63z"/>
   <path class="fil0" d="M37.8 1.11c0.35,0 0.63,0.28 0.63,0.63 0,0.35 -0.28,0.63 -0.63,0.63 -0.35,0 -0.63,-0.28 -0.63,-0.63 0,-0.35 0.28,-0.63 0.63,-0.63z"/>
   <path class="fil0" d="M32.06 1.11c0.35,0 0.63,0.28 0.63,0.63 0,0.35 -0.28,0.63 -0.63,0.63 -0.35,0 -0.63,-0.28 -0.63,-0.63 0,-0.35 0.28,-0.63 0.63,-0.63z"/>
   <path class="fil0" d="M26.32 1.11c0.35,0 0.63,0.28 0.63,0.63 0,0.35 -0.28,0.63 -0.63,0.63 -0.34,0 -0.63,-0.28 -0.63,-0.63 0,-0.35 0.29,-0.63 0.63,-0.63z"/>
   <path class="fil0" d="M20.58 1.11c0.35,0 0.63,0.28 0.63,0.63 0,0.35 -0.28,0.63 -0.63,0.63 -0.34,0 -0.63,-0.28 -0.63,-0.63 0,-0.35 0.29,-0.63 0.63,-0.63z"/>
   <path class="fil0" d="M14.84 1.11c0.35,0 0.63,0.28 0.63,0.63 0,0.35 -0.28,0.63 -0.63,0.63 -0.34,0 -0.63,-0.28 -0.63,-0.63 0,-0.35 0.29,-0.63 0.63,-0.63z"/>
   <path class="fil0" d="M9.1 1.11c0.35,0 0.63,0.28 0.63,0.63 0,0.35 -0.28,0.63 -0.63,0.63 -0.34,0 -0.63,-0.28 -0.63,-0.63 0,-0.35 0.29,-0.63 0.63,-0.63z"/>
   <path class="fil0" d="M3.36 1.11c0.35,0 0.63,0.28 0.63,0.63 0,0.35 -0.28,0.63 -0.63,0.63 -0.34,0 -0.63,-0.28 -0.63,-0.63 0,-0.35 0.29,-0.63 0.63,-0.63z"/>
   <path class="fil0" d="M46.44 0c0.28,0 0.5,0.22 0.5,0.5 0,0.27 -0.22,0.49 -0.5,0.49 -0.27,0 -0.49,-0.22 -0.49,-0.49 0,-0.28 0.22,-0.5 0.49,-0.5z"/>
   <path class="fil0" d="M40.7 0c0.27,0 0.5,0.22 0.5,0.5 0,0.27 -0.23,0.49 -0.5,0.49 -0.27,0 -0.5,-0.22 -0.5,-0.49 0,-0.28 0.23,-0.5 0.5,-0.5z"/>
   <path class="fil0" d="M34.96 0c0.27,0 0.49,0.22 0.49,0.5 0,0.27 -0.22,0.49 -0.49,0.49 -0.28,0 -0.5,-0.22 -0.5,-0.49 0,-0.28 0.22,-0.5 0.5,-0.5z"/>
   <path class="fil0" d="M29.21 0c0.28,0 0.5,0.22 0.5,0.5 0,0.27 -0.22,0.49 -0.5,0.49 -0.27,0 -0.49,-0.22 -0.49,-0.49 0,-0.28 0.22,-0.5 0.49,-0.5z"/>
   <path class="fil0" d="M23.47 0c0.27,0 0.49,0.22 0.49,0.5 0,0.27 -0.22,0.49 -0.49,0.49 -0.27,0 -0.5,-0.22 -0.5,-0.49 0,-0.28 0.23,-0.5 0.5,-0.5z"/>
   <path class="fil0" d="M17.73 0c0.27,0 0.49,0.22 0.49,0.5 0,0.27 -0.22,0.49 -0.49,0.49 -0.28,0 -0.5,-0.22 -0.5,-0.49 0,-0.28 0.22,-0.5 0.5,-0.5z"/>
   <path class="fil0" d="M11.98 0c0.28,0 0.5,0.22 0.5,0.5 0,0.27 -0.22,0.49 -0.5,0.49 -0.27,0 -0.49,-0.22 -0.49,-0.49 0,-0.28 0.22,-0.5 0.49,-0.5z"/>
   <path class="fil0" d="M6.24 0c0.27,0 0.49,0.22 0.49,0.5 0,0.27 -0.22,0.49 -0.49,0.49 -0.27,0 -0.5,-0.22 -0.5,-0.49 0,-0.28 0.23,-0.5 0.5,-0.5z"/>
   <path class="fil0" d="M0.5 0c0.27,0 0.49,0.22 0.49,0.5 0,0.27 -0.22,0.49 -0.49,0.49 -0.28,0 -0.5,-0.22 -0.5,-0.49 0,-0.28 0.22,-0.5 0.5,-0.5z"/>
  </g>
  <path class="fil1" d="M238.93 27.32c1.82,0 2.48,-1.01 2.48,-1.98 0,-2.51 -3.98,-1.64 -3.98,-3.16 0,-0.63 0.58,-1.07 1.38,-1.07 0.74,0 1.44,0.25 1.95,0.81l0.5 -0.61c-0.56,-0.6 -1.36,-0.95 -2.38,-0.95 -1.33,0 -2.32,0.76 -2.32,1.87 0,2.4 3.99,1.44 3.99,3.17 0,0.53 -0.39,1.17 -1.59,1.17 -0.95,0 -1.67,-0.46 -2.11,-0.97l-0.5 0.65c0.56,0.62 1.42,1.07 2.58,1.07zm-8.11 0c1.81,0 2.48,-1.01 2.48,-1.98 0,-2.51 -3.98,-1.64 -3.98,-3.16 0,-0.63 0.58,-1.07 1.38,-1.07 0.74,0 1.44,0.25 1.94,0.81l0.51 -0.61c-0.57,-0.6 -1.36,-0.95 -2.38,-0.95 -1.33,0 -2.32,0.76 -2.32,1.87 0,2.4 3.98,1.44 3.98,3.17 0,0.53 -0.38,1.17 -1.58,1.17 -0.95,0 -1.68,-0.46 -2.11,-0.97l-0.5 0.65c0.55,0.62 1.42,1.07 2.58,1.07zm-5.71 -0.12l0 -0.75 -3.57 0 0 -2.32 3.5 0 0 -0.75 -3.5 0 0 -2.16 3.57 0 0 -0.75 -4.41 0 0 6.73 4.41 0zm-8.19 0l0 -6.73 -0.83 0 0 5.25 -3.88 -5.25 -0.86 0 0 6.73 0.84 0 0 -5.37 3.93 5.37 0.8 0zm-9.34 -6.73l-0.84 0 0 6.73 0.84 0 0 -6.73zm-6.77 6.85c1.81,0 2.48,-1.01 2.48,-1.98 0,-2.51 -3.99,-1.64 -3.99,-3.16 0,-0.63 0.59,-1.07 1.39,-1.07 0.73,0 1.44,0.25 1.94,0.81l0.51 -0.61c-0.57,-0.6 -1.37,-0.95 -2.38,-0.95 -1.34,0 -2.32,0.76 -2.32,1.87 0,2.4 3.98,1.44 3.98,3.17 0,0.53 -0.38,1.17 -1.58,1.17 -0.95,0 -1.68,-0.46 -2.11,-0.97l-0.51 0.65c0.56,0.62 1.43,1.07 2.59,1.07zm-8.71 0c1.82,0 2.75,-1.07 2.75,-2.75l0 -4.1 -0.85 0 0 4.09c0,1.24 -0.66,2.01 -1.9,2.01 -1.24,0 -1.9,-0.77 -1.9,-2.01l0 -4.09 -0.85 0 0 4.11c0,1.66 0.93,2.74 2.75,2.74zm-8.39 -0.87l-2.07 0 0 -2.32 2.07 0c0.82,0 1.24,0.55 1.24,1.16 0,0.72 -0.46,1.16 -1.24,1.16zm-0.05 -3.07l-2.02 0 0 -2.16 2.02 0c0.76,0 1.16,0.48 1.16,1.09 0,0.61 -0.4,1.07 -1.16,1.07zm0.21 3.82c1.23,0 1.95,-0.74 1.95,-1.82 0,-0.81 -0.59,-1.54 -1.31,-1.65 0.61,-0.13 1.18,-0.7 1.18,-1.55 0,-1 -0.72,-1.71 -1.89,-1.71l-2.99 0 0 6.73 3.06 0zm-11.42 -3.41l-1.76 0 0 -2.57 1.76 0c0.8,0 1.35,0.51 1.35,1.28 0,0.75 -0.55,1.29 -1.35,1.29zm2.28 3.41l-1.81 -2.75c0.91,-0.08 1.75,-0.74 1.75,-1.95 0,-1.24 -0.89,-2.03 -2.12,-2.03l-2.7 0 0 6.73 0.84 0 0 -2.68 1.35 0 1.7 2.68 0.99 0zm-11.41 0.12c1.83,0 2.75,-1.07 2.75,-2.75l0 -4.1 -0.84 0 0 4.09c0,1.24 -0.67,2.01 -1.91,2.01 -1.24,0 -1.9,-0.77 -1.9,-2.01l0 -4.09 -0.84 0 0 4.11c0,1.66 0.92,2.74 2.74,2.74zm-9.6 -0.75c-1.51,0 -2.47,-1.17 -2.47,-2.73 0,-1.58 0.96,-2.74 2.47,-2.74 1.51,0 2.48,1.16 2.48,2.74 0,1.56 -0.97,2.73 -2.48,2.73zm0 0.75c1.99,0 3.35,-1.49 3.35,-3.48 0,-1.99 -1.36,-3.48 -3.35,-3.48 -1.98,0 -3.34,1.49 -3.34,3.48 0,1.99 1.36,3.48 3.34,3.48zm-8.38 -0.12l0 -2.85 2.64 -3.88 -0.98 0 -2.09 3.13 -2.08 -3.13 -0.98 0 2.65 3.88 0 2.85 0.84 0zm-8.94 0l0 -0.75 -3.57 0 0 -2.32 3.5 0 0 -0.75 -3.5 0 0 -2.16 3.57 0 0 -0.75 -4.41 0 0 6.73 4.41 0zm-9.86 0l0 -5.98 2.14 0 0 -0.75 -5.11 0 0 0.75 2.13 0 0 5.98 0.84 0zm-6.7 -2.24l-2.86 0 1.43 -3.63 1.43 3.63zm1.79 2.24l-2.7 -6.73 -1.04 0 -2.71 6.73 0.96 0 0.59 -1.51 3.35 0 0.59 1.51 0.96 0zm-11.5 -3.41l-1.76 0 0 -2.57 1.76 0c0.8,0 1.35,0.51 1.35,1.28 0,0.75 -0.55,1.29 -1.35,1.29zm2.28 3.41l-1.82 -2.75c0.92,-0.08 1.76,-0.74 1.76,-1.95 0,-1.24 -0.89,-2.03 -2.12,-2.03l-2.7 0 0 6.73 0.84 0 0 -2.68 1.35 0 1.7 2.68 0.99 0zm-8.42 0l0 -0.75 -3.57 0 0 -2.32 3.5 0 0 -0.75 -3.5 0 0 -2.16 3.57 0 0 -0.75 -4.4 0 0 6.73 4.4 0zm-7.73 0l0 -0.75 -3.12 0 0 -5.98 -0.84 0 0 6.73 3.96 0zm-7.38 0l0 -0.75 -3.57 0 0 -2.32 3.5 0 0 -0.75 -3.5 0 0 -2.16 3.57 0 0 -0.75 -4.41 0 0 6.73 4.41 0zm-10.24 0.12c1.19,0 1.99,-0.57 2.56,-1.34l-0.71 -0.39c-0.38,0.57 -1.09,0.98 -1.85,0.98 -1.48,0 -2.6,-1.14 -2.6,-2.73 0,-1.62 1.12,-2.74 2.6,-2.74 0.76,0 1.47,0.41 1.85,0.98l0.7 -0.39c-0.54,-0.77 -1.36,-1.33 -2.55,-1.33 -1.94,0 -3.46,1.41 -3.46,3.48 0,2.07 1.52,3.48 3.46,3.48zm-9.03 0c1.19,0 2,-0.57 2.57,-1.34l-0.71 -0.39c-0.38,0.57 -1.09,0.98 -1.86,0.98 -1.47,0 -2.59,-1.14 -2.59,-2.73 0,-1.62 1.12,-2.74 2.59,-2.74 0.77,0 1.48,0.41 1.86,0.98l0.7 -0.39c-0.54,-0.77 -1.37,-1.33 -2.56,-1.33 -1.93,0 -3.46,1.41 -3.46,3.48 0,2.07 1.53,3.48 3.46,3.48zm-7.68 -2.36l-2.86 0 1.42 -3.63 1.44 3.63zm1.79 2.24l-2.7 -6.73 -1.04 0 -2.72 6.73 0.96 0 0.6 -1.51 3.35 0 0.59 1.51 0.96 0z"/>
  <path class="fil1" d="M233.7 0.78c0.37,-0.25 0.81,-0.45 1.31,-0.58 0.49,-0.13 1.03,-0.2 1.61,-0.2 0.62,0 1.24,0.06 1.88,0.19 0.64,0.13 1.19,0.3 1.65,0.51 0.23,0.09 0.38,0.25 0.46,0.47 0.08,0.23 0.07,0.45 -0.02,0.67 -0.1,0.22 -0.27,0.37 -0.49,0.46 -0.22,0.08 -0.44,0.07 -0.66,-0.02 -0.35,-0.16 -0.78,-0.29 -1.3,-0.39 -0.53,-0.1 -1.03,-0.15 -1.52,-0.15 -0.4,0 -0.77,0.04 -1.1,0.12 -0.33,0.08 -0.61,0.2 -0.84,0.37 -0.42,0.28 -0.63,0.67 -0.63,1.18 0,0.15 0.03,0.32 0.1,0.5 0.07,0.18 0.24,0.35 0.51,0.53 0.45,0.29 1.15,0.5 2.08,0.64 1.34,0.2 2.4,0.56 3.19,1.08 0.49,0.33 0.86,0.73 1.11,1.18 0.26,0.45 0.38,0.95 0.38,1.5 0,0.59 -0.13,1.13 -0.39,1.62 -0.26,0.5 -0.64,0.91 -1.14,1.25 -0.43,0.3 -0.92,0.52 -1.47,0.67 -0.55,0.14 -1.15,0.21 -1.8,0.21 -1.69,0 -3.11,-0.44 -4.26,-1.34 -0.2,-0.15 -0.31,-0.34 -0.34,-0.58 -0.03,-0.24 0.03,-0.45 0.19,-0.63 0.15,-0.2 0.34,-0.31 0.57,-0.34 0.23,-0.03 0.45,0.03 0.64,0.18 0.37,0.28 0.76,0.49 1.15,0.64 0.58,0.22 1.26,0.33 2.05,0.33 0.95,0 1.72,-0.19 2.3,-0.57 0.51,-0.36 0.77,-0.84 0.77,-1.44 0,-0.17 -0.04,-0.35 -0.12,-0.57 -0.07,-0.21 -0.28,-0.44 -0.62,-0.67 -0.56,-0.37 -1.38,-0.64 -2.45,-0.8 -1.16,-0.17 -2.09,-0.47 -2.78,-0.9 -0.94,-0.61 -1.41,-1.43 -1.41,-2.49 0,-0.55 0.12,-1.04 0.36,-1.5 0.23,-0.45 0.58,-0.83 1.03,-1.13zm-5.01 9.87c0.25,0 0.45,0.08 0.62,0.25 0.17,0.17 0.25,0.37 0.25,0.62 0,0.24 -0.08,0.45 -0.25,0.61 -0.17,0.17 -0.37,0.26 -0.62,0.26l-7.5 0c-0.23,0 -0.43,-0.09 -0.6,-0.26 -0.18,-0.16 -0.27,-0.37 -0.27,-0.61l0 -10.44c0,-0.23 0.09,-0.44 0.27,-0.61 0.17,-0.17 0.37,-0.26 0.6,-0.26l7.5 0c0.25,0 0.45,0.09 0.62,0.26 0.17,0.17 0.25,0.38 0.25,0.61 0,0.24 -0.08,0.45 -0.25,0.62 -0.17,0.16 -0.37,0.25 -0.62,0.25l-6.63 0 0 3.48 5.73 0c0.24,0 0.45,0.08 0.61,0.26 0.17,0.17 0.26,0.38 0.26,0.61 0,0.24 -0.09,0.45 -0.26,0.61 -0.16,0.17 -0.37,0.26 -0.61,0.26l-5.73 0 0 3.48 6.63 0zm-13.57 -9.57c0,-0.23 0.09,-0.44 0.26,-0.61 0.16,-0.17 0.37,-0.26 0.61,-0.26 0.25,0 0.45,0.09 0.62,0.26 0.17,0.17 0.25,0.38 0.25,0.61l0 10.44c0,0.24 -0.08,0.45 -0.25,0.61 -0.17,0.17 -0.37,0.26 -0.62,0.26 -0.24,0 -0.45,-0.09 -0.61,-0.26 -0.17,-0.16 -0.26,-0.37 -0.26,-0.61l0 -10.44zm-10.12 -0.59c0.79,-0.33 1.61,-0.49 2.45,-0.49 0.83,0 1.64,0.16 2.46,0.49 0.76,0.33 1.43,0.79 2,1.35 0.16,0.18 0.24,0.38 0.24,0.62 0,0.24 -0.08,0.45 -0.24,0.62 -0.18,0.16 -0.38,0.24 -0.62,0.24 -0.24,0 -0.45,-0.08 -0.62,-0.24 -0.43,-0.44 -0.92,-0.77 -1.47,-1 -0.55,-0.23 -1.13,-0.34 -1.75,-0.34 -0.61,0 -1.2,0.11 -1.75,0.34 -0.55,0.23 -1.04,0.56 -1.48,1 -0.43,0.43 -0.76,0.92 -0.99,1.47 -0.24,0.55 -0.35,1.13 -0.35,1.75 0,0.61 0.11,1.19 0.35,1.75 0.23,0.55 0.56,1.04 0.99,1.48 0.44,0.43 0.93,0.76 1.48,0.99 0.55,0.22 1.14,0.33 1.75,0.33 0.56,0 1.09,-0.09 1.59,-0.27 0.51,-0.19 0.96,-0.46 1.37,-0.82l0 -2.24c0,-0.25 0.09,-0.45 0.26,-0.62 0.17,-0.17 0.38,-0.25 0.61,-0.25 0.24,0 0.45,0.08 0.62,0.25 0.16,0.17 0.25,0.37 0.25,0.62l0 2.62c0,0.25 -0.08,0.45 -0.24,0.61 -0.57,0.58 -1.24,1.03 -2,1.36 -0.4,0.16 -0.8,0.28 -1.21,0.36 -0.42,0.08 -0.83,0.12 -1.25,0.12 -0.88,0 -1.7,-0.16 -2.45,-0.48 -0.74,-0.3 -1.42,-0.76 -2.02,-1.36 -0.58,-0.58 -1.02,-1.25 -1.34,-2 -0.33,-0.78 -0.5,-1.59 -0.5,-2.45 0,-0.84 0.17,-1.66 0.5,-2.46 0.32,-0.75 0.76,-1.42 1.34,-2 0.6,-0.58 1.28,-1.03 2.02,-1.35zm-15.59 9.04c0.44,0.43 0.94,0.76 1.49,0.99 0.55,0.22 1.13,0.33 1.75,0.33 0.61,0 1.2,-0.11 1.75,-0.33 0.55,-0.23 1.04,-0.56 1.47,-0.99 0.44,-0.44 0.77,-0.93 1,-1.48 0.22,-0.56 0.34,-1.14 0.34,-1.75 0,-0.62 -0.12,-1.2 -0.34,-1.75 -0.23,-0.55 -0.56,-1.04 -1,-1.47 -0.43,-0.44 -0.92,-0.77 -1.47,-1 -0.55,-0.23 -1.14,-0.34 -1.75,-0.34 -0.62,0 -1.2,0.11 -1.75,0.34 -0.55,0.23 -1.05,0.56 -1.49,1 -0.43,0.43 -0.75,0.92 -0.98,1.47 -0.23,0.55 -0.34,1.13 -0.34,1.75 0,0.61 0.11,1.19 0.34,1.75 0.23,0.55 0.55,1.04 0.98,1.48zm0.79 -9.04c0.81,-0.33 1.63,-0.49 2.45,-0.49 0.82,0 1.64,0.16 2.45,0.49 0.77,0.33 1.43,0.79 2,1.35 0.57,0.57 1.02,1.24 1.36,2 0.32,0.77 0.49,1.59 0.49,2.46 0,0.88 -0.17,1.7 -0.49,2.45 -0.34,0.77 -0.79,1.43 -1.36,2 -0.57,0.58 -1.23,1.03 -2,1.36 -0.76,0.32 -1.58,0.48 -2.45,0.48 -0.87,0 -1.69,-0.16 -2.45,-0.48 -0.77,-0.33 -1.44,-0.78 -2,-1.36 -0.6,-0.59 -1.05,-1.26 -1.36,-2 -0.33,-0.75 -0.49,-1.57 -0.49,-2.45 0,-0.87 0.16,-1.69 0.49,-2.46 0.31,-0.74 0.76,-1.4 1.36,-2 0.56,-0.56 1.23,-1.02 2,-1.35zm-13.47 0.59c0,-0.23 0.09,-0.44 0.26,-0.61 0.18,-0.17 0.38,-0.26 0.61,-0.26 0.25,0 0.45,0.09 0.62,0.26 0.17,0.17 0.25,0.38 0.25,0.61l0 9.57 6.63 0c0.24,0 0.45,0.08 0.62,0.25 0.17,0.17 0.25,0.37 0.25,0.62 0,0.24 -0.08,0.45 -0.25,0.61 -0.17,0.17 -0.38,0.26 -0.62,0.26l-7.5 0c-0.23,0 -0.43,-0.09 -0.61,-0.26 -0.17,-0.16 -0.26,-0.37 -0.26,-0.61l0 -10.44zm-12.35 8.45c0.44,0.43 0.94,0.76 1.49,0.99 0.55,0.22 1.13,0.33 1.75,0.33 0.61,0 1.2,-0.11 1.75,-0.33 0.55,-0.23 1.04,-0.56 1.47,-0.99 0.44,-0.44 0.77,-0.93 1,-1.48 0.22,-0.56 0.34,-1.14 0.34,-1.75 0,-0.62 -0.12,-1.2 -0.34,-1.75 -0.23,-0.55 -0.56,-1.04 -1,-1.47 -0.43,-0.44 -0.92,-0.77 -1.47,-1 -0.55,-0.23 -1.14,-0.34 -1.75,-0.34 -0.62,0 -1.2,0.11 -1.75,0.34 -0.55,0.23 -1.05,0.56 -1.49,1 -0.43,0.43 -0.75,0.92 -0.98,1.47 -0.23,0.55 -0.34,1.13 -0.34,1.75 0,0.61 0.11,1.19 0.34,1.75 0.23,0.55 0.55,1.04 0.98,1.48zm0.79 -9.04c0.81,-0.33 1.62,-0.49 2.45,-0.49 0.82,0 1.64,0.16 2.45,0.49 0.77,0.33 1.43,0.79 2,1.35 0.57,0.57 1.02,1.24 1.36,2 0.32,0.77 0.48,1.59 0.48,2.46 0,0.88 -0.16,1.7 -0.48,2.45 -0.34,0.77 -0.79,1.43 -1.36,2 -0.57,0.58 -1.23,1.03 -2,1.36 -0.76,0.32 -1.58,0.48 -2.45,0.48 -0.87,0 -1.69,-0.16 -2.45,-0.48 -0.77,-0.33 -1.44,-0.78 -2.01,-1.36 -0.59,-0.59 -1.04,-1.26 -1.35,-2 -0.33,-0.75 -0.49,-1.57 -0.49,-2.45 0,-0.87 0.16,-1.69 0.49,-2.46 0.31,-0.74 0.76,-1.4 1.35,-2 0.57,-0.56 1.24,-1.02 2.01,-1.35zm-16.69 -0.21c0.18,-0.07 0.35,-0.08 0.53,-0.04 0.17,0.05 0.32,0.14 0.45,0.28 0.99,1.2 1.95,2.34 2.87,3.43 0.39,0.46 0.8,0.94 1.21,1.43 0.41,0.5 0.81,0.97 1.2,1.43 0.39,0.46 0.75,0.89 1.1,1.3 0.35,0.4 0.66,0.76 0.92,1.06l0 -8.09c0,-0.23 0.09,-0.44 0.26,-0.61 0.16,-0.17 0.37,-0.26 0.61,-0.26 0.25,0 0.45,0.09 0.62,0.26 0.17,0.17 0.25,0.38 0.25,0.61l0 10.44c0,0.18 -0.05,0.35 -0.15,0.49 -0.11,0.15 -0.25,0.25 -0.42,0.31 -0.16,0.07 -0.33,0.08 -0.51,0.03 -0.17,-0.05 -0.32,-0.14 -0.45,-0.28 -0.99,-1.19 -1.95,-2.33 -2.87,-3.42 -0.39,-0.47 -0.8,-0.94 -1.21,-1.43 -0.41,-0.49 -0.81,-0.96 -1.21,-1.43 -0.39,-0.46 -0.76,-0.9 -1.11,-1.3 -0.35,-0.41 -0.65,-0.76 -0.9,-1.06l0 8.09c0,0.24 -0.09,0.45 -0.26,0.61 -0.18,0.17 -0.38,0.26 -0.61,0.26 -0.25,0 -0.45,-0.09 -0.62,-0.26 -0.17,-0.16 -0.25,-0.37 -0.25,-0.61l0 -10.44c0,-0.18 0.05,-0.34 0.15,-0.49 0.11,-0.15 0.24,-0.25 0.4,-0.31zm-4.87 -0.07c0.25,0 0.45,0.09 0.62,0.26 0.17,0.17 0.25,0.38 0.25,0.61l0 10.44c0,0.24 -0.08,0.45 -0.25,0.61 -0.17,0.17 -0.37,0.26 -0.62,0.26 -0.23,0 -0.43,-0.09 -0.61,-0.26 -0.17,-0.16 -0.26,-0.37 -0.26,-0.61l0 -4.35 -7.55 0 0 4.35c0,0.24 -0.08,0.45 -0.26,0.61 -0.17,0.17 -0.37,0.26 -0.61,0.26 -0.24,0 -0.45,-0.09 -0.61,-0.26 -0.17,-0.16 -0.26,-0.37 -0.26,-0.61l0 -10.44c0,-0.23 0.09,-0.44 0.26,-0.61 0.16,-0.17 0.37,-0.26 0.61,-0.26 0.24,0 0.44,0.09 0.61,0.26 0.18,0.17 0.26,0.38 0.26,0.61l0 4.35 7.55 0 0 -4.35c0,-0.23 0.09,-0.44 0.26,-0.61 0.18,-0.17 0.38,-0.26 0.61,-0.26zm-20.12 0.28c0.79,-0.33 1.6,-0.49 2.45,-0.49 0.82,0 1.64,0.16 2.45,0.49 0.77,0.33 1.43,0.79 2,1.35 0.17,0.18 0.25,0.38 0.25,0.62 0,0.24 -0.08,0.45 -0.25,0.62 -0.17,0.16 -0.38,0.24 -0.61,0.24 -0.24,0 -0.45,-0.08 -0.62,-0.24 -0.43,-0.44 -0.92,-0.77 -1.47,-1 -0.55,-0.23 -1.14,-0.34 -1.75,-0.34 -0.61,0 -1.2,0.11 -1.75,0.34 -0.55,0.23 -1.05,0.56 -1.49,1 -0.42,0.43 -0.76,0.92 -0.99,1.47 -0.23,0.55 -0.34,1.13 -0.34,1.75 0,0.61 0.11,1.19 0.34,1.75 0.23,0.55 0.57,1.04 0.99,1.48 0.44,0.43 0.94,0.76 1.49,0.99 0.55,0.22 1.14,0.33 1.75,0.33 0.61,0 1.2,-0.11 1.75,-0.33 0.55,-0.23 1.04,-0.56 1.47,-0.99 0.17,-0.17 0.38,-0.26 0.62,-0.26 0.23,0 0.44,0.09 0.61,0.26 0.17,0.17 0.25,0.37 0.25,0.61 0,0.25 -0.08,0.45 -0.25,0.61 -0.57,0.58 -1.23,1.03 -2,1.36 -0.39,0.16 -0.79,0.28 -1.21,0.36 -0.41,0.08 -0.82,0.12 -1.24,0.12 -0.88,0 -1.7,-0.16 -2.45,-0.48 -0.74,-0.3 -1.42,-0.76 -2.02,-1.36 -0.58,-0.58 -1.03,-1.25 -1.34,-2 -0.34,-0.78 -0.5,-1.59 -0.5,-2.45 0,-0.84 0.16,-1.66 0.5,-2.46 0.31,-0.75 0.76,-1.42 1.34,-2 0.6,-0.58 1.28,-1.03 2.02,-1.35zm-6.93 10.16c0.25,0 0.45,0.08 0.62,0.25 0.17,0.17 0.25,0.37 0.25,0.62 0,0.24 -0.08,0.45 -0.25,0.61 -0.17,0.17 -0.37,0.26 -0.62,0.26l-7.49 0c-0.24,0 -0.44,-0.09 -0.61,-0.26 -0.18,-0.16 -0.26,-0.37 -0.26,-0.61l0 -10.44c0,-0.23 0.08,-0.44 0.26,-0.61 0.17,-0.17 0.37,-0.26 0.61,-0.26l7.49 0c0.25,0 0.45,0.09 0.62,0.26 0.17,0.17 0.25,0.38 0.25,0.61 0,0.24 -0.08,0.45 -0.25,0.62 -0.17,0.16 -0.37,0.25 -0.62,0.25l-6.62 0 0 3.48 5.72 0c0.24,0 0.45,0.08 0.62,0.26 0.17,0.17 0.25,0.38 0.25,0.61 0,0.24 -0.08,0.45 -0.25,0.61 -0.17,0.17 -0.38,0.26 -0.62,0.26l-5.72 0 0 3.48 6.62 0zm-11.27 -10.44c0.23,0 0.44,0.09 0.61,0.26 0.18,0.17 0.26,0.38 0.26,0.61 0,0.24 -0.08,0.45 -0.26,0.62 -0.17,0.16 -0.38,0.25 -0.61,0.25l-3.37 0 0 9.57c0,0.24 -0.09,0.45 -0.25,0.61 -0.17,0.17 -0.38,0.26 -0.62,0.26 -0.25,0 -0.45,-0.09 -0.62,-0.26 -0.17,-0.16 -0.25,-0.37 -0.25,-0.61l0 -9.57 -3.38 0c-0.24,0 -0.45,-0.09 -0.61,-0.25 -0.17,-0.17 -0.26,-0.38 -0.26,-0.62 0,-0.23 0.09,-0.44 0.26,-0.61 0.16,-0.17 0.37,-0.26 0.61,-0.26l8.49 0zm-24.8 0.57c0.37,-0.25 0.8,-0.45 1.3,-0.58 0.5,-0.13 1.04,-0.2 1.62,-0.2 0.61,0 1.24,0.06 1.88,0.19 0.64,0.13 1.19,0.3 1.65,0.51 0.22,0.09 0.37,0.25 0.45,0.47 0.08,0.23 0.08,0.45 -0.01,0.67 -0.11,0.22 -0.27,0.37 -0.49,0.46 -0.22,0.08 -0.44,0.07 -0.66,-0.02 -0.35,-0.16 -0.79,-0.29 -1.31,-0.39 -0.52,-0.1 -1.02,-0.15 -1.51,-0.15 -0.41,0 -0.77,0.04 -1.11,0.12 -0.33,0.08 -0.61,0.2 -0.84,0.37 -0.42,0.28 -0.63,0.67 -0.63,1.18 0,0.15 0.04,0.32 0.11,0.5 0.07,0.18 0.24,0.35 0.5,0.53 0.46,0.29 1.15,0.5 2.09,0.64 1.33,0.2 2.4,0.56 3.18,1.08 0.49,0.33 0.86,0.73 1.12,1.18 0.25,0.45 0.38,0.95 0.38,1.5 0,0.59 -0.13,1.13 -0.39,1.62 -0.26,0.5 -0.64,0.91 -1.14,1.25 -0.43,0.3 -0.92,0.52 -1.47,0.67 -0.55,0.14 -1.15,0.21 -1.8,0.21 -1.69,0 -3.11,-0.44 -4.26,-1.34 -0.2,-0.15 -0.31,-0.34 -0.34,-0.58 -0.03,-0.24 0.03,-0.45 0.18,-0.63 0.15,-0.2 0.34,-0.31 0.57,-0.34 0.24,-0.03 0.45,0.03 0.65,0.18 0.37,0.28 0.75,0.49 1.15,0.64 0.58,0.22 1.26,0.33 2.05,0.33 0.95,0 1.72,-0.19 2.3,-0.57 0.51,-0.36 0.76,-0.84 0.76,-1.44 0,-0.17 -0.04,-0.35 -0.11,-0.57 -0.08,-0.21 -0.28,-0.44 -0.62,-0.67 -0.57,-0.37 -1.39,-0.64 -2.45,-0.8 -1.16,-0.17 -2.09,-0.47 -2.79,-0.9 -0.94,-0.61 -1.4,-1.43 -1.4,-2.49 0,-0.55 0.11,-1.04 0.35,-1.5 0.24,-0.45 0.58,-0.83 1.04,-1.13zm-4.39 -0.57c0.25,0 0.45,0.09 0.62,0.26 0.17,0.17 0.25,0.38 0.25,0.61 0,0.24 -0.08,0.45 -0.25,0.62 -0.17,0.16 -0.37,0.25 -0.62,0.25l-6.62 0 0 3.48 5.72 0c0.24,0 0.45,0.08 0.62,0.26 0.16,0.17 0.25,0.38 0.25,0.61 0,0.24 -0.09,0.45 -0.25,0.61 -0.17,0.17 -0.38,0.26 -0.62,0.26l-5.72 0 0 4.35c0,0.24 -0.09,0.45 -0.26,0.61 -0.16,0.17 -0.37,0.26 -0.61,0.26 -0.24,0 -0.44,-0.09 -0.61,-0.26 -0.18,-0.16 -0.26,-0.37 -0.26,-0.61l0 -10.44c0,-0.23 0.08,-0.44 0.26,-0.61 0.17,-0.17 0.37,-0.26 0.61,-0.26l7.49 0zm-13.48 0.87c0,-0.23 0.09,-0.44 0.26,-0.61 0.18,-0.17 0.38,-0.26 0.61,-0.26 0.25,0 0.45,0.09 0.62,0.26 0.17,0.17 0.25,0.38 0.25,0.61l0 7.36c0,0.58 -0.11,1.12 -0.33,1.62 -0.22,0.51 -0.51,0.95 -0.89,1.32 -0.37,0.37 -0.81,0.66 -1.32,0.88 -0.51,0.22 -1.05,0.33 -1.62,0.33 -0.55,0 -1.08,-0.1 -1.59,-0.3 -0.5,-0.2 -0.95,-0.51 -1.35,-0.91 -0.16,-0.17 -0.24,-0.37 -0.24,-0.61 0,-0.25 0.08,-0.45 0.24,-0.61 0.18,-0.18 0.38,-0.26 0.62,-0.26 0.24,0 0.45,0.08 0.62,0.26 0.46,0.46 1.03,0.69 1.7,0.69 0.34,0 0.66,-0.06 0.95,-0.19 0.3,-0.12 0.55,-0.3 0.77,-0.51 0.21,-0.21 0.38,-0.47 0.51,-0.77 0.13,-0.29 0.19,-0.61 0.19,-0.94l0 -7.36z"/>
 </g>
</svg>
