<?xml version="1.0" encoding="UTF-8"?>
<!DOCTYPE svg PUBLIC "-//W3C//DTD SVG 1.1//EN" "http://www.w3.org/Graphics/SVG/1.1/DTD/svg11.dtd">
<!-- Creator: CorelDRAW 2019 (64-Bit) -->
<svg xmlns="http://www.w3.org/2000/svg" xml:space="preserve" width="640px" height="640px" version="1.1" style="shape-rendering:geometricPrecision; text-rendering:geometricPrecision; image-rendering:optimizeQuality; fill-rule:evenodd; clip-rule:evenodd"
viewBox="0 0 112.15 112.15"
 xmlns:xlink="http://www.w3.org/1999/xlink">
 <defs>
  <style type="text/css">
   <![CDATA[
    .fil0 {fill:none}
    .fil2 {fill:#FFC221}
    .fil1 {fill:#0A2155;fill-rule:nonzero}
   ]]>
  </style>
 </defs>
 <g id="Layer_x0020_1">
  <metadata id="CorelCorpID_0Corel-Layer"/>
  <rect class="fil0" width="112.15" height="112.15"/>
 </g>
 <g id="Capa_x0020_1">
  <metadata id="CorelCorpID_1Corel-Layer"/>
  <path class="fil1" d="M93.88 68.48l-75.61 0c-0.63,0 -1.14,-0.51 -1.14,-1.14l0 -44.79c0,-1.51 0.61,-2.87 1.6,-3.86 0.99,-0.99 2.35,-1.6 3.85,-1.6l66.99 0c1.5,0 2.87,0.61 3.85,1.6 0.99,0.99 1.6,2.35 1.6,3.86l0 44.79c0,0.63 -0.51,1.14 -1.14,1.14zm-74.46 -2.28l73.32 0 0 -43.65c0,-0.88 -0.36,-1.67 -0.93,-2.24 -0.58,-0.58 -1.37,-0.93 -2.24,-0.93l-66.99 0c-0.87,0 -1.66,0.35 -2.24,0.93 -0.57,0.57 -0.92,1.36 -0.92,2.24l0 43.65z"/>
  <path class="fil1" d="M89.57 80.34l-66.99 0c-1.5,0 -2.86,-0.61 -3.85,-1.59 -0.99,-0.99 -1.6,-2.35 -1.6,-3.86l0 -7.55c0,-0.63 0.51,-1.14 1.14,-1.14l75.61 0c0.63,0 1.14,0.51 1.14,1.14l0 7.55c0,1.51 -0.61,2.87 -1.6,3.86 -0.98,0.98 -2.34,1.59 -3.85,1.59l0 0zm-66.99 -2.28l66.99 0 0 0c0.87,0 1.66,-0.35 2.24,-0.93 0.57,-0.57 0.93,-1.36 0.93,-2.24l0 -6.41 -73.32 0 0 6.41c0,0.88 0.35,1.67 0.92,2.24 0.58,0.57 1.37,0.93 2.24,0.93z"/>
  <path class="fil1" d="M63.12 88.83c0,-0.63 0.51,-1.14 1.14,-1.14 0.63,0 1.14,0.51 1.14,1.14l0 5.09c0,0.63 -0.51,1.14 -1.14,1.14l-16.37 0c-0.63,0 -1.14,-0.51 -1.14,-1.14l0 -14.72c0,-0.63 0.51,-1.14 1.14,-1.14l16.37 0c0.63,0 1.14,0.51 1.14,1.14l0 4.27c0,0.63 -0.51,1.14 -1.14,1.14 -0.63,0 -1.14,-0.51 -1.14,-1.14l0 -3.13 -14.09 0 0 12.43 14.09 0 0 -3.94z"/>
  <path class="fil1" d="M42.34 95.03c-0.63,0 -1.14,-0.51 -1.14,-1.14 0,-0.63 0.51,-1.14 1.14,-1.14l27.47 0c0.63,0 1.14,0.51 1.14,1.14 0,0.63 -0.51,1.14 -1.14,1.14l-27.47 0z"/>
  <path class="fil1" d="M53.8 74.41c-0.63,0 -1.15,-0.51 -1.15,-1.14 0,-0.63 0.52,-1.14 1.15,-1.14l4.56 0c0.63,0 1.14,0.51 1.14,1.14 0,0.63 -0.51,1.14 -1.14,1.14l-4.56 0z"/>
 </g>
 <g id="Capa_x0020_1_0">
  <metadata id="CorelCorpID_2Corel-Layer"/>
  <path id="ergonomic.svg" class="fil2" d="M44.82 39.24c3.55,0 6.43,2.88 6.43,6.42 0,3.55 -2.88,6.43 -6.43,6.43 -3.54,0 -6.42,-2.88 -6.42,-6.43 0,-3.54 2.88,-6.42 6.42,-6.42zm0 1.11c-2.93,0 -5.31,2.38 -5.31,5.31 0,2.93 2.38,5.31 5.31,5.31 2.94,0 5.32,-2.38 5.32,-5.31 0,-2.93 -2.38,-5.31 -5.32,-5.31zm-0.58 4.85l2.15 -2.16c0.57,-0.57 1.49,-0.57 2.06,0 0.57,0.57 0.57,1.49 0,2.06l-3.19 3.18c-0.56,0.57 -1.49,0.57 -2.05,0l-2.01 -2c-0.57,-0.57 -0.57,-1.49 0,-2.06 0.57,-0.57 1.49,-0.57 2.06,0l0.98 0.98zm-2.25 0.29l2 2.01c0.14,0.13 0.35,0.13 0.49,0l3.18 -3.19c0.13,-0.13 0.13,-0.35 0,-0.48 -0.13,-0.13 -0.35,-0.13 -0.48,0l-2.45 2.45c-0.27,0.27 -0.72,0.27 -0.99,0l-1.27 -1.27c-0.13,-0.14 -0.35,-0.14 -0.48,0 -0.14,0.13 -0.14,0.34 0,0.48l0 0zm15.95 -9.61c0.26,0.16 0.73,0.44 1.24,0.44l1.57 0c0.55,0 0.97,-0.28 1.24,-0.44 0,0 0,0 0,0 0,0 7.57,-4.39 7.57,-4.38 0.63,-0.38 1.4,-0.48 2.11,-0.29 0.71,0.19 1.28,0.59 1.71,1.31 0.76,1.29 0.33,2.95 -0.95,3.73l-7.55 4.63 0 5.57c0,0 5.22,10.3 5.22,10.3 0.71,1.33 0.34,2.72 -0.9,3.57 -0.61,0.42 -1.57,0.63 -2.29,0.44 -0.72,-0.2 -1.33,-0.66 -1.7,-1.31 0,0 0,0 0,-0.01 0,0 -4.76,-8.76 -4.76,-8.76 -0.09,-0.15 -0.25,-0.24 -0.42,-0.24 -0.17,0 -0.33,0.09 -0.41,0.24l-4.76 8.76c-0.01,0.01 -0.01,0.01 -0.01,0.01 -0.37,0.65 -0.98,1.11 -1.7,1.31 -0.71,0.19 -1.48,0.09 -2.12,-0.28l-0.04 -0.02c-1.28,-0.74 -1.74,-2.37 -1.05,-3.67l5.11 -10.12 0 -5.79 -7.27 -4.45c-1.28,-0.79 -1.77,-2.32 -0.96,-3.76 0.36,-0.65 0.98,-1.11 1.7,-1.3 0.71,-0.19 1.47,-0.09 2.11,0.28 0.09,0.05 2.91,1.67 7.31,4.23l0 0zm-0.56 0.97c-4.46,-2.61 -7.3,-4.23 -7.3,-4.23 0,0 -0.01,0 -0.01,0 -0.38,-0.23 -0.84,-0.29 -1.27,-0.17 -0.42,0.11 -0.79,0.38 -1.01,0.77 -0.48,0.86 -0.2,1.78 0.57,2.26l7.54 4.61c0.16,0.1 0.26,0.28 0.26,0.48l0 6.24c0,0.08 -0.02,0.17 -0.06,0.25l-5.17 10.23c0,0.01 0,0.01 0,0.01 -0.42,0.78 -0.14,1.75 0.62,2.19l0.04 0.02c0.38,0.22 0.84,0.28 1.27,0.17 0.43,-0.12 0.8,-0.39 1.02,-0.78l4.76 -8.76c0,-0.01 0.01,-0.01 0.01,-0.01 0.28,-0.5 0.81,-0.8 1.38,-0.8 0.57,0 1.1,0.3 1.38,0.8 0.01,0 0.01,0 0.01,0.01 0,0 4.76,8.76 4.76,8.76 0.23,0.39 0.59,0.67 1.02,0.78 0.43,0.11 1,-0.02 1.37,-0.28 0.74,-0.51 0.97,-1.34 0.55,-2.13 -0.01,-0.01 -0.01,-0.01 -0.01,-0.01l-5.28 -10.43c-0.04,-0.07 -0.06,-0.16 -0.06,-0.25l0 -6.01c0,-0.2 0.1,-0.38 0.27,-0.48l7.81 -4.79c0.76,-0.46 1.02,-1.45 0.57,-2.21 -0.26,-0.44 -0.6,-0.69 -1.03,-0.8 -0.43,-0.12 -0.89,-0.06 -1.27,0.17 0,0 0,0 0,0l-7.57 4.39c-0.39,0.23 -1,0.58 -1.8,0.58l-1.57 0c-0.73,0 -1.42,-0.36 -1.8,-0.58zm2.72 -12.13c2.58,0 4.67,2.1 4.67,4.68 0,2.58 -2.09,4.67 -4.67,4.67 -2.58,0 -4.67,-2.09 -4.67,-4.67 0,-2.58 2.09,-4.68 4.67,-4.68zm0 1.12c-1.96,0 -3.56,1.59 -3.56,3.56 0,1.96 1.6,3.56 3.56,3.56 1.96,0 3.56,-1.6 3.56,-3.56 0,-1.97 -1.6,-3.56 -3.56,-3.56z"/>
 </g>
</svg>
