<?xml version="1.0" encoding="UTF-8"?>
<!DOCTYPE svg PUBLIC "-//W3C//DTD SVG 1.1//EN" "http://www.w3.org/Graphics/SVG/1.1/DTD/svg11.dtd">
<!-- Creator: CorelDRAW 2019 (64-Bit) -->
<svg xmlns="http://www.w3.org/2000/svg" xml:space="preserve" width="640px" height="640px" version="1.1" style="shape-rendering:geometricPrecision; text-rendering:geometricPrecision; image-rendering:optimizeQuality; fill-rule:evenodd; clip-rule:evenodd"
viewBox="0 0 40.75 40.75"
 xmlns:xlink="http://www.w3.org/1999/xlink">
 <defs>
  <style type="text/css">
   <![CDATA[
    .fil2 {fill:none}
    .fil0 {fill:#0A2155}
    .fil1 {fill:#FFC221}
   ]]>
  </style>
 </defs>
 <g id="Layer_x0020_1">
  <metadata id="CorelCorpID_0Corel-Layer"/>
  <g id="_2356616492672">
   <g>
    <path class="fil0" d="M30.44 13.03l0 8.64 1.27 0 0 -14.95c0,-0.35 -0.29,-0.63 -0.63,-0.63l-20.79 0c-0.35,0 -0.63,0.28 -0.63,0.63l0 18.52 1.26 0 0 -12.21 19.52 0zm0 -5.68l0 4.42 -19.52 0 0 -4.42 19.52 0z"/>
    <rect class="fil0" x="14.53" y="23.89" width="11.52" height="1.26"/>
    <path class="fil0" d="M29.18 21.87l0 -6.94c0,-0.35 -0.28,-0.63 -0.63,-0.63l-15.73 0c-0.35,0 -0.64,0.28 -0.64,0.63l0 6.64 1.27 0 0 -6.01 14.47 0 0 6.31 1.26 0z"/>
    <path class="fil0" d="M31.74 24.48l-1.16 -0.68c-0.51,-0.29 -1.11,-0.29 -1.61,0 -0.51,0.29 -0.81,0.82 -0.81,1.4l0 1.34c0,0.59 0.3,1.11 0.81,1.4 0.25,0.15 0.52,0.22 0.8,0.22 0.28,0 0.56,-0.07 0.81,-0.22l1.16 -0.67c0.51,-0.29 0.81,-0.82 0.81,-1.4 0,-0.58 -0.3,-1.1 -0.81,-1.39zm-0.63 1.69l-1.16 0.68c-0.16,0.09 -0.3,0.03 -0.35,0 -0.06,-0.03 -0.18,-0.12 -0.18,-0.31l0 -1.34c0,-0.18 0.12,-0.27 0.18,-0.3 0.03,-0.02 0.09,-0.05 0.17,-0.05 0.06,0 0.11,0.01 0.18,0.05l1.16 0.67c0.16,0.09 0.17,0.24 0.17,0.3 0,0.06 -0.01,0.21 -0.17,0.3z"/>
    <rect class="fil0" x="15.98" y="26.42" width="10.01" height="1.26"/>
    <path class="fil0" d="M16.77 22.27l0.28 -0.72 1.9 0 0.27 0.72c0.09,0.26 0.33,0.41 0.59,0.41 0.07,0 0.15,-0.01 0.22,-0.04 0.33,-0.12 0.49,-0.49 0.37,-0.81l-1.71 -4.53c0,-0.01 0,-0.01 -0.01,-0.02 -0.11,-0.28 -0.38,-0.46 -0.68,-0.46 0,0 0,0 0,0 -0.3,0 -0.56,0.18 -0.68,0.46 0,0.01 0,0.01 0,0.02l-1.73 4.52c-0.12,0.33 0.04,0.7 0.37,0.82 0.32,0.12 0.69,-0.04 0.81,-0.37zm1.7 -1.98l-0.94 0 0.47 -1.24 0.47 1.24z"/>
    <path class="fil0" d="M22.34 22.68c0.01,0 0.01,0 0.01,0 0.04,0 0.94,0 1.3,-0.01 1.38,-0.02 2.38,-1.25 2.38,-2.92 0,-1.75 -0.98,-2.93 -2.43,-2.93l-1.26 0c-0.17,0 -0.33,0.07 -0.45,0.19 -0.12,0.12 -0.19,0.28 -0.19,0.45l0.01 4.59c0,0.17 0.07,0.33 0.19,0.45 0.12,0.11 0.28,0.18 0.44,0.18zm1.26 -4.59c1.11,0 1.17,1.38 1.17,1.66 0,0.79 -0.36,1.64 -1.15,1.66 -0.15,0 -0.4,0 -0.64,0l-0.01 -3.32 0.63 0 0 0z"/>
   </g>
   <g>
    <path class="fil1" d="M13.36 21.25c-0.1,-0.19 -0.3,-0.31 -0.52,-0.32 -0.22,0 -0.42,0.1 -0.54,0.28l-3.63 5.26 -2.1 1.22c-0.85,0.49 -1.15,1.59 -0.65,2.44l0.7 1.22c0.33,0.58 0.93,0.9 1.55,0.9 0.11,0 0.22,-0.01 0.33,-0.03l1.71 2.95c0.12,0.2 0.33,0.32 0.55,0.32 0.11,0 0.21,-0.03 0.31,-0.09l2.19 -1.26c0.15,-0.08 0.25,-0.22 0.3,-0.38 0.04,-0.17 0.02,-0.34 -0.07,-0.48l-1.47 -2.55 5.52 -0.44c0.21,-0.02 0.41,-0.15 0.51,-0.34 0.1,-0.19 0.09,-0.42 -0.01,-0.61l-4.68 -8.09zm-5.65 9.47l-0.7 -1.22c-0.07,-0.12 -0.09,-0.26 -0.05,-0.4 0.03,-0.14 0.12,-0.25 0.24,-0.32l1.68 -0.97 1.23 2.14 -1.68 0.96c-0.25,0.15 -0.57,0.06 -0.72,-0.19zm3.28 3.27l-1.34 -2.32 1.09 -0.63 1.34 2.32 -1.09 0.63zm0.33 -4.47l-1.46 -2.54 2.91 -4.23 3.67 6.36 -5.12 0.41z"/>
    <path class="fil1" d="M30.14 20.93c-2.73,0 -4.94,2.22 -4.94,4.94 0,2.72 2.21,4.94 4.94,4.94 2.72,0 4.93,-2.22 4.93,-4.94 0,-2.72 -2.21,-4.94 -4.93,-4.94zm0 8.62c-2.03,0 -3.68,-1.65 -3.68,-3.68 0,-2.02 1.65,-3.67 3.68,-3.67 2.02,0 3.67,1.65 3.67,3.67 0,2.03 -1.65,3.68 -3.67,3.68z"/>
    <g>
     <path class="fil1" d="M27.6 8.93l-5.57 0c-0.35,0 -0.63,0.28 -0.63,0.63 0,0.35 0.28,0.63 0.63,0.63l5.57 0c0.35,0 0.63,-0.28 0.63,-0.63 0,-0.35 -0.28,-0.63 -0.63,-0.63z"/>
     <circle class="fil1" cx="18.83" cy="9.56" r="0.63"/>
     <circle class="fil1" cx="15.99" cy="9.56" r="0.63"/>
     <circle class="fil1" cx="13.15" cy="9.56" r="0.63"/>
    </g>
   </g>
  </g>
  <rect class="fil2" width="40.75" height="40.75"/>
 </g>
</svg>
