<?xml version="1.0" encoding="UTF-8"?>
<!DOCTYPE svg PUBLIC "-//W3C//DTD SVG 1.1//EN" "http://www.w3.org/Graphics/SVG/1.1/DTD/svg11.dtd">
<!-- Creator: CorelDRAW -->
<svg xmlns="http://www.w3.org/2000/svg" xml:space="preserve" width="640px" height="640px" version="1.1" style="shape-rendering:geometricPrecision; text-rendering:geometricPrecision; image-rendering:optimizeQuality; fill-rule:evenodd; clip-rule:evenodd"
viewBox="0 0 57.77 57.77"
 xmlns:xlink="http://www.w3.org/1999/xlink"
 xmlns:xodm="http://www.corel.com/coreldraw/odm/2003">
 <defs>
  <style type="text/css">
   <![CDATA[
    .fil0 {fill:none}
    .fil1 {fill:#002155;fill-rule:nonzero}
    .fil2 {fill:#FFC221;fill-rule:nonzero}
   ]]>
  </style>
 </defs>
 <g id="Layer_x0020_1">
  <metadata id="CorelCorpID_0Corel-Layer"/>
  <rect class="fil0" width="57.77" height="57.77"/>
 </g>
 <g id="Layer_x0020_1_2">
  <metadata id="CorelCorpID_1Corel-Layer"/>
  <g id="_2173777122800">
   <g>
    <path class="fil1" d="M45.05 42.01c1.34,0 2.43,-1.09 2.43,-2.43l0 -24.72c0,-1.92 -1.56,-3.48 -3.47,-3.48l-28.65 0c-1.92,0 -3.48,1.56 -3.48,3.48l0 24.72c0,1.34 1.09,2.43 2.43,2.43l0.77 0 0 3.58 -2.5 0c-0.38,0 -0.7,0.31 -0.7,0.7 0,0.38 0.32,0.69 0.7,0.69l34.21 0c0.38,0 0.69,-0.31 0.69,-0.69 0,-0.39 -0.31,-0.7 -0.69,-0.7l-2.51 0 0 -3.58 0.77 0zm-31.78 -27.15c0,-1.15 0.94,-2.08 2.09,-2.08l28.65 0c1.15,0 2.08,0.93 2.08,2.08l0 1.53 -32.75 0c-0.02,0 -0.04,0 -0.07,0l0 -1.53zm6.26 30.73l-3.06 0 0 -6.26 3.06 0 0 6.26zm7.79 0l-3.06 0 0 -13.94 3.06 0 0 13.94zm7.79 0l-3.06 0 0 -8.06 3.06 0 0 8.06zm8.48 -16.37l-4.45 0c-0.39,0 -0.7,0.31 -0.7,0.69l0 3.51c0,0.39 0.31,0.7 0.7,0.7 0.38,0 0.69,-0.31 0.69,-0.7l0 -2.81 3.06 0 0 14.98 -3.06 0 0 -7.49c0,-0.38 -0.31,-0.69 -0.69,-0.69 -0.39,0 -0.7,0.31 -0.7,0.69l0 7.49 -1.94 0 0 -8.76c0,-0.38 -0.31,-0.69 -0.7,-0.69l-4.45 0c-0.38,0 -0.69,0.31 -0.69,0.69l0 8.76 -1.95 0 0 -14.64c0,-0.38 -0.31,-0.69 -0.7,-0.69l-4.45 0c-0.38,0 -0.69,0.31 -0.69,0.69l0 14.64 -1.95 0 0 -6.95c0,-0.38 -0.31,-0.7 -0.69,-0.7l-4.45 0c-0.39,0 -0.7,0.32 -0.7,0.7l0 1.98 -0.77 0c-0.57,0 -1.04,-0.46 -1.04,-1.04l0 -21.8c0.03,0 0.05,0 0.07,0l32.75 0 0 21.8c0,0.58 -0.46,1.04 -1.04,1.04l-0.77 0 0 -10.71c0,-0.38 -0.31,-0.69 -0.69,-0.69z"/>
   </g>
  </g>
  <g id="_2173777126064">
   <g>
    <path class="fil1" d="M43.03 13.89l-15.71 0c-0.38,0 -0.69,0.31 -0.69,0.69 0,0.39 0.31,0.7 0.69,0.7l15.71 0c0.39,0 0.7,-0.31 0.7,-0.7 0,-0.38 -0.31,-0.69 -0.7,-0.69z"/>
   </g>
  </g>
  <g id="_2173777126592">
   <g>
    <path class="fil1" d="M19.61 14.09c-0.13,-0.13 -0.31,-0.2 -0.49,-0.2 -0.19,0 -0.37,0.07 -0.5,0.2 -0.13,0.13 -0.2,0.31 -0.2,0.49 0,0.19 0.07,0.37 0.2,0.49 0.13,0.13 0.31,0.21 0.5,0.21 0.18,0 0.36,-0.08 0.49,-0.21 0.13,-0.12 0.2,-0.3 0.2,-0.49 0,-0.18 -0.07,-0.36 -0.2,-0.49z"/>
   </g>
  </g>
  <g id="_2173777067936">
   <g>
    <path class="fil1" d="M16.83 14.09c-0.13,-0.13 -0.31,-0.2 -0.5,-0.2 -0.18,0 -0.36,0.07 -0.49,0.2 -0.13,0.13 -0.2,0.31 -0.2,0.49 0,0.19 0.07,0.37 0.2,0.49 0.13,0.13 0.31,0.21 0.49,0.21 0.19,0 0.37,-0.08 0.5,-0.21 0.12,-0.12 0.2,-0.3 0.2,-0.49 0,-0.18 -0.08,-0.36 -0.2,-0.49z"/>
   </g>
  </g>
  <g id="_2173777072064">
   <g>
    <path class="fil1" d="M22.39 14.09c-0.13,-0.13 -0.31,-0.2 -0.49,-0.2 -0.19,0 -0.37,0.07 -0.5,0.2 -0.12,0.13 -0.2,0.31 -0.2,0.49 0,0.19 0.08,0.37 0.2,0.49 0.13,0.13 0.31,0.21 0.5,0.21 0.18,0 0.36,-0.08 0.49,-0.21 0.13,-0.12 0.2,-0.3 0.2,-0.49 0,-0.18 -0.07,-0.36 -0.2,-0.49z"/>
   </g>
  </g>
  <g id="_2173777080560">
   <g>
    <path class="fil1" d="M39.63 35.41c-0.13,-0.13 -0.31,-0.2 -0.49,-0.2 -0.18,0 -0.36,0.07 -0.49,0.2 -0.13,0.13 -0.21,0.31 -0.21,0.49 0,0.19 0.08,0.36 0.21,0.49 0.13,0.13 0.31,0.21 0.49,0.21 0.18,0 0.36,-0.08 0.49,-0.21 0.13,-0.13 0.2,-0.3 0.2,-0.49 0,-0.18 -0.07,-0.36 -0.2,-0.49z"/>
   </g>
  </g>
  <g id="_2173777083392">
   <g>
    <path class="fil2" d="M41.36 20.84c-1.38,0 -2.5,1.12 -2.5,2.5 0,0.55 0.18,1.05 0.48,1.47l-4.62 4.62c-0.36,-0.2 -0.77,-0.32 -1.21,-0.32 -0.39,0 -0.77,0.1 -1.1,0.26l-4.82 -4.82c0.2,-0.36 0.31,-0.77 0.31,-1.21 0,-1.38 -1.12,-2.5 -2.5,-2.5 -1.38,0 -2.5,1.12 -2.5,2.5 0,0.48 0.13,0.93 0.37,1.31l-4.11 4.11c-0.35,-0.2 -0.77,-0.31 -1.2,-0.31 -1.38,0 -2.51,1.12 -2.51,2.5 0,1.38 1.13,2.5 2.51,2.5 1.38,0 2.5,-1.12 2.5,-2.5 0,-0.44 -0.11,-0.85 -0.31,-1.21l4.15 -4.15c0.33,0.16 0.71,0.25 1.1,0.25 0.44,0 0.85,-0.11 1.21,-0.31l4.77 4.78c-0.23,0.38 -0.37,0.83 -0.37,1.31 0,1.38 1.12,2.5 2.5,2.5 1.38,0 2.51,-1.12 2.51,-2.5 0,-0.44 -0.12,-0.85 -0.32,-1.21l4.75 -4.74c0.28,0.11 0.59,0.17 0.91,0.17 1.38,0 2.51,-1.12 2.51,-2.5 0,-1.38 -1.13,-2.5 -2.51,-2.5zm-23.4 11.22c-0.62,0 -1.12,-0.49 -1.12,-1.11 0,-0.61 0.5,-1.11 1.12,-1.11 0.61,0 1.11,0.5 1.11,1.11 0,0.62 -0.5,1.11 -1.11,1.11zm7.44 -7.61c-0.61,0 -1.11,-0.5 -1.11,-1.11 0,-0.61 0.5,-1.11 1.11,-1.11 0.61,0 1.11,0.5 1.11,1.11 0,0.61 -0.5,1.11 -1.11,1.11zm8.11 8.28c-0.61,0 -1.11,-0.5 -1.11,-1.11 0,-0.62 0.5,-1.12 1.11,-1.12 0.62,0 1.11,0.5 1.11,1.12 0,0.61 -0.49,1.11 -1.11,1.11zm7.85 -8.28c-0.61,0 -1.11,-0.5 -1.11,-1.11 0,-0.61 0.5,-1.11 1.11,-1.11 0.62,0 1.12,0.5 1.12,1.11 0,0.61 -0.5,1.11 -1.12,1.11z"/>
   </g>
  </g>
  <g id="_2173777085552">
   <g>
    <path class="fil1" d="M22.2 20.35c-0.13,-0.13 -0.31,-0.2 -0.49,-0.2 -0.19,0 -0.37,0.07 -0.5,0.2 -0.13,0.13 -0.2,0.31 -0.2,0.49 0,0.18 0.07,0.36 0.2,0.49 0.13,0.13 0.31,0.21 0.5,0.21 0.18,0 0.36,-0.08 0.49,-0.21 0.13,-0.13 0.2,-0.31 0.2,-0.49 0,-0.18 -0.07,-0.36 -0.2,-0.49z"/>
   </g>
  </g>
  <g id="_2173777088624">
   <g>
    <path class="fil1" d="M19.12 20.15l-3.34 0c-0.39,0 -0.7,0.31 -0.7,0.69 0,0.39 0.31,0.7 0.7,0.7l3.34 0c0.38,0 0.69,-0.31 0.69,-0.7 0,-0.38 -0.31,-0.69 -0.69,-0.69z"/>
   </g>
  </g>
  <g id="_2173777092752">
   <g>
    <path class="fil1" d="M19.12 23.48l-3.34 0c-0.39,0 -0.7,0.32 -0.7,0.7 0,0.38 0.31,0.69 0.7,0.69l3.34 0c0.38,0 0.69,-0.31 0.69,-0.69 0,-0.38 -0.31,-0.7 -0.69,-0.7z"/>
   </g>
  </g>
 </g>
</svg>
