<?xml version="1.0" encoding="UTF-8"?>
<!DOCTYPE svg PUBLIC "-//W3C//DTD SVG 1.1//EN" "http://www.w3.org/Graphics/SVG/1.1/DTD/svg11.dtd">
<!-- Creator: CorelDRAW 2019 (64-Bit) -->
<svg xmlns="http://www.w3.org/2000/svg" xml:space="preserve" width="640px" height="640px" version="1.1" style="shape-rendering:geometricPrecision; text-rendering:geometricPrecision; image-rendering:optimizeQuality; fill-rule:evenodd; clip-rule:evenodd"
viewBox="0 0 50.75 50.75"
 xmlns:xlink="http://www.w3.org/1999/xlink">
 <defs>
  <style type="text/css">
   <![CDATA[
    .fil0 {fill:none}
    .fil3 {fill:#C3002F}
    .fil2 {fill:#DD0031}
    .fil4 {fill:white}
    .fil1 {fill:#0A2155;fill-rule:nonzero}
   ]]>
  </style>
 </defs>
 <g id="Layer_x0020_1">
  <metadata id="CorelCorpID_0Corel-Layer"/>
  <rect class="fil0" width="50.75" height="50.75"/>
 </g>
 <g id="Capa_x0020_1">
  <metadata id="CorelCorpID_1Corel-Layer"/>
  <path class="fil1" d="M42.48 30.99l-34.21 0c-0.29,0 -0.52,-0.23 -0.52,-0.52l0 -20.27c0,-0.68 0.28,-1.3 0.72,-1.74 0.45,-0.45 1.07,-0.72 1.75,-0.72l30.31 0c0.68,0 1.3,0.27 1.75,0.72 0.44,0.44 0.72,1.06 0.72,1.74l0 20.27c0,0.29 -0.23,0.52 -0.52,0.52zm-33.69 -1.03l33.17 0 0 -19.76c0,-0.39 -0.16,-0.75 -0.42,-1.01 -0.25,-0.26 -0.61,-0.42 -1.01,-0.42l-30.31 0c-0.4,0 -0.75,0.16 -1.01,0.42 -0.26,0.26 -0.42,0.62 -0.42,1.01l0 19.76z"/>
  <path class="fil1" d="M40.53 36.36l-30.31 0c-0.68,0 -1.3,-0.28 -1.75,-0.73 -0.44,-0.44 -0.72,-1.06 -0.72,-1.74l0 -3.42c0,-0.28 0.23,-0.51 0.52,-0.51l34.21 0c0.29,0 0.52,0.23 0.52,0.51l0 3.42c0,0.68 -0.28,1.3 -0.72,1.74 -0.45,0.45 -1.07,0.72 -1.75,0.72l0 0.01zm-30.31 -1.04l30.31 0 0 0c0.4,0 0.75,-0.16 1.01,-0.42 0.26,-0.26 0.42,-0.61 0.42,-1.01l0 -2.9 -33.17 0 0 2.9c0,0.4 0.16,0.75 0.42,1.01 0.26,0.26 0.61,0.42 1.01,0.42z"/>
  <path class="fil1" d="M28.56 40.2c0,-0.29 0.23,-0.52 0.52,-0.52 0.28,0 0.52,0.23 0.52,0.52l0 2.3c0,0.28 -0.24,0.51 -0.52,0.51l-7.41 0c-0.29,0 -0.52,-0.23 -0.52,-0.51l0 -6.66c0,-0.29 0.23,-0.52 0.52,-0.52l7.41 0c0.28,0 0.52,0.23 0.52,0.52l0 1.93c0,0.28 -0.24,0.52 -0.52,0.52 -0.29,0 -0.52,-0.24 -0.52,-0.52l0 -1.41 -6.37 0 0 5.62 6.37 0 0 -1.78z"/>
  <path class="fil1" d="M19.16 43c-0.29,0 -0.52,-0.23 -0.52,-0.51 0,-0.29 0.23,-0.52 0.52,-0.52l12.43 0c0.29,0 0.52,0.23 0.52,0.52 0,0.28 -0.23,0.51 -0.52,0.51l-12.43 0z"/>
  <path class="fil1" d="M24.34 33.67c-0.28,0 -0.51,-0.23 -0.51,-0.51 0,-0.29 0.23,-0.52 0.51,-0.52l2.07 0c0.28,0 0.51,0.23 0.51,0.52 0,0.28 -0.23,0.51 -0.51,0.51l-2.07 0z"/>
 </g>
 <g id="Capa_x0020_1_0">
  <metadata id="CorelCorpID_2Corel-Layer"/>
  <g id="Angular_full_color_logo.svg">
   <g>
    <polygon class="fil2" points="25.37,11.64 25.37,11.64 25.37,11.64 17.92,14.3 19.06,24.15 25.37,27.65 25.37,27.65 25.37,27.65 31.69,24.15 32.83,14.3 "/>
    <polygon class="fil3" points="25.37,11.64 25.37,13.42 25.37,13.41 25.37,21.51 25.37,21.51 25.37,27.65 25.37,27.65 31.69,24.15 32.83,14.3 "/>
    <path class="fil4" d="M25.37 13.41l-4.65 10.44 0 0 1.73 0 0 0 0.94 -2.34 3.95 0 0.94 2.34 0 0 1.74 0 0 0 -4.65 -10.44 0 0 0 0 0 0 0 0zm1.37 6.66l-2.73 0 1.36 -3.27 1.37 3.27z"/>
   </g>
  </g>
 </g>
</svg>
