<?xml version="1.0" encoding="UTF-8"?>
<!DOCTYPE svg PUBLIC "-//W3C//DTD SVG 1.1//EN" "http://www.w3.org/Graphics/SVG/1.1/DTD/svg11.dtd">
<!-- Creator: CorelDRAW 2019 (64-Bit) -->
<svg xmlns="http://www.w3.org/2000/svg" xml:space="preserve" width="640px" height="640px" version="1.1" style="shape-rendering:geometricPrecision; text-rendering:geometricPrecision; image-rendering:optimizeQuality; fill-rule:evenodd; clip-rule:evenodd"
viewBox="0 0 37.62 37.62"
 xmlns:xlink="http://www.w3.org/1999/xlink">
 <defs>
  <style type="text/css">
   <![CDATA[
    .fil0 {fill:none}
    .fil1 {fill:#0A2155}
    .fil2 {fill:#FFC221;fill-rule:nonzero}
   ]]>
  </style>
 </defs>
 <g id="Layer_x0020_1">
  <metadata id="CorelCorpID_0Corel-Layer"/>
  <rect class="fil0" width="37.62" height="37.62"/>
  <path class="fil1" d="M30.44 17.88l0 -2.51c0,-2.68 -1.05,-5.21 -2.97,-7.13 -1.91,-1.91 -4.44,-2.96 -7.13,-2.96l-2.94 0c-2.68,0 -5.22,1.05 -7.13,2.96 -1.91,1.92 -2.96,4.45 -2.96,7.13l0 2.51c-0.36,0.19 -0.6,0.57 -0.6,1l0 4.68c0,0.62 0.5,1.13 1.13,1.13l0.97 0 0 0.28c0,0.32 0.26,0.58 0.58,0.58l0.87 0c0.8,0 1.45,-0.65 1.45,-1.45l0 -5.76c0,-0.8 -0.65,-1.45 -1.45,-1.45l-0.63 0 0 -1.51c0,-4.29 3.49,-7.77 7.77,-7.77l2.94 0c4.29,0 7.77,3.48 7.77,7.77l0 1.51 -0.62 0c-0.8,0 -1.45,0.65 -1.45,1.45l0 5.76c0,0.8 0.65,1.45 1.45,1.45l0.87 0c0.32,0 0.58,-0.26 0.58,-0.58l0 -0.28 0.23 0 0 1.76c0,1.92 -1.56,3.48 -3.48,3.48l-4.52 0c-0.18,-0.56 -0.7,-0.97 -1.33,-0.97l-1.94 0c-0.77,0 -1.39,0.62 -1.39,1.38 0,0.77 0.62,1.39 1.39,1.39l1.94 0c0.63,0 1.15,-0.41 1.33,-0.97l4.52 0c2.38,0 4.31,-1.94 4.31,-4.31l0 -1.77c0.58,-0.04 1.04,-0.53 1.04,-1.12l0 -4.68c0,-0.43 -0.25,-0.81 -0.6,-1l0 0zm-10.59 13.02l-1.95 0c-0.31,0 -0.56,-0.25 -0.56,-0.56 0,-0.31 0.25,-0.56 0.56,-0.56l1.95 0c0.3,0 0.56,0.25 0.56,0.56 0,0.31 -0.26,0.56 -0.56,0.56zm-12.01 -7.04c-0.17,0 -0.31,-0.13 -0.31,-0.3l0 -4.68c0,-0.17 0.14,-0.31 0.31,-0.31l0.97 0 0 5.29 -0.97 0zm2.42 -6.15c0.34,0 0.62,0.28 0.62,0.63l0 5.76c0,0.35 -0.28,0.63 -0.62,0.63l-0.63 0 0 -6.57 0 -0.45 0.63 0 0 0zm16.15 -8.41c-1.63,-1.62 -3.78,-2.52 -6.07,-2.52l-2.94 0c-2.29,0 -4.44,0.9 -6.07,2.52 -1.63,1.63 -2.52,3.79 -2.52,6.07l0 2.1 0 0.28 -0.68 0 0 -2.38c0,-5.11 4.16,-9.27 9.27,-9.27l2.94 0c5.11,0 9.27,4.16 9.27,9.27l0 2.38 -0.67 0 0 -0.28 0 -2.1c0,-2.28 -0.9,-4.44 -2.53,-6.07zm1.7 15.43l-0.62 0c-0.35,0 -0.63,-0.28 -0.63,-0.63l0 -5.76c0,-0.35 0.28,-0.63 0.63,-0.63l0.62 0 0 0.45 0 6.57zm2.1 -1.17c0,0.17 -0.14,0.3 -0.3,0.3l-0.97 0 0 -5.29 0.97 0c0.16,0 0.3,0.14 0.3,0.31l0 4.68z"/>
  <path class="fil2" d="M12.94 22.43c0,0.5 0.41,0.91 0.91,0.91l10 0c0.5,0 0.9,-0.41 0.9,-0.91l0 -9.94c0,-0.5 -0.4,-0.91 -0.9,-0.91l-10 0c-0.5,0 -0.91,0.41 -0.91,0.91l0 9.94zm0.46 -9.94c0,-0.25 0.2,-0.46 0.45,-0.46l10 0c0.25,0 0.45,0.21 0.45,0.46l0 9.94c0,0.25 -0.2,0.45 -0.45,0.45l-10 0c-0.25,0 -0.45,-0.2 -0.45,-0.45l0 -9.94zm0 0z"/>
  <path class="fil2" d="M13.85 12.73l0.46 0 0 0.46 -0.46 0 0 -0.46zm0 0z"/>
  <path class="fil2" d="M14.76 12.73l0.45 0 0 0.46 -0.45 0 0 -0.46zm0 0z"/>
  <path class="fil2" d="M15.67 12.73l0.45 0 0 0.46 -0.45 0 0 -0.46zm0 0z"/>
  <path class="fil2" d="M13.85 13.64l10 0 0 0.45 -10 0 0 -0.45zm0 0z"/>
  <path class="fil2" d="M13.85 14.78l1.82 0 0 0.45 -1.82 0 0 -0.45zm0 0z"/>
  <path class="fil2" d="M13.85 15.68l1.36 0 0 0.46 -1.36 0 0 -0.46zm0 0z"/>
  <path class="fil2" d="M18.85 16.59c-0.88,0 -1.59,0.72 -1.59,1.59 0,0.88 0.71,1.59 1.59,1.59 0.88,0 1.59,-0.71 1.59,-1.59 0,-0.87 -0.71,-1.59 -1.59,-1.59zm0 2.73c-0.63,0 -1.14,-0.51 -1.14,-1.14 0,-0.62 0.51,-1.13 1.14,-1.13 0.63,0 1.13,0.51 1.13,1.13 0,0.63 -0.5,1.14 -1.13,1.14zm0 0z"/>
  <path class="fil2" d="M22.48 17.5c0,-0.12 -0.1,-0.23 -0.22,-0.23l-0.6 0c-0.05,-0.14 -0.11,-0.29 -0.18,-0.43l0.42 -0.42c0.09,-0.09 0.09,-0.24 0,-0.32l-0.96 -0.97c-0.09,-0.09 -0.24,-0.09 -0.32,0l-0.43 0.43c-0.14,-0.08 -0.28,-0.14 -0.43,-0.18l0 -0.6c0,-0.13 -0.1,-0.23 -0.23,-0.23l-1.36 0c-0.13,0 -0.23,0.1 -0.23,0.23l0 0.6c-0.15,0.04 -0.29,0.1 -0.43,0.18l-0.43 -0.43c-0.09,-0.09 -0.23,-0.09 -0.32,0l-0.96 0.97c-0.09,0.08 -0.09,0.23 0,0.32l0.42 0.42c-0.02,0.04 -0.04,0.08 -0.05,0.11 -0.05,0.11 -0.09,0.22 -0.13,0.32l-0.6 0c-0.12,0 -0.23,0.11 -0.23,0.23l0 1.36c0,0.13 0.11,0.23 0.23,0.23l0.6 0c0.05,0.15 0.11,0.3 0.18,0.44l-0.42 0.42c-0.09,0.09 -0.09,0.23 0,0.32l0.96 0.96c0.09,0.09 0.23,0.09 0.32,0l0.43 -0.42c0.14,0.07 0.28,0.13 0.43,0.18l0 0.6c0,0.13 0.1,0.23 0.23,0.23l1.36 0c0.13,0 0.23,-0.1 0.23,-0.23l0 -0.6c0.15,-0.05 0.29,-0.11 0.43,-0.18l0.43 0.42c0.08,0.09 0.23,0.09 0.32,0l0.96 -0.96c0.09,-0.09 0.09,-0.23 0,-0.32l-0.42 -0.42c0.07,-0.14 0.13,-0.29 0.18,-0.44l0.6 0c0.12,0 0.22,-0.1 0.22,-0.23l0 -1.36zm-0.45 1.14l-0.55 0c-0.1,0 -0.19,0.07 -0.22,0.17 -0.05,0.22 -0.14,0.44 -0.26,0.64 -0.05,0.09 -0.04,0.2 0.03,0.28l0.39 0.38 -0.64 0.64 -0.39 -0.38c-0.07,-0.07 -0.19,-0.09 -0.27,-0.04 -0.2,0.12 -0.42,0.21 -0.65,0.27 -0.1,0.03 -0.17,0.12 -0.17,0.22l0 0.54 -0.91 0 0 -0.54c0,-0.1 -0.07,-0.19 -0.17,-0.22 -0.22,-0.06 -0.44,-0.15 -0.64,-0.27 -0.09,-0.05 -0.2,-0.03 -0.27,0.04l-0.39 0.38 -0.64 -0.64 0.38 -0.38c0.08,-0.08 0.09,-0.19 0.04,-0.28 -0.12,-0.2 -0.21,-0.42 -0.27,-0.64 -0.02,-0.1 -0.11,-0.17 -0.22,-0.17l-0.54 0 0 -0.91 0.54 0c0.11,0 0.2,-0.07 0.22,-0.17 0.04,-0.14 0.09,-0.28 0.15,-0.42 0.04,-0.08 0.08,-0.15 0.12,-0.22 0.05,-0.09 0.04,-0.21 -0.04,-0.28l-0.38 -0.38 0.64 -0.65 0.39 0.39c0.07,0.07 0.18,0.08 0.27,0.03 0.2,-0.12 0.42,-0.21 0.64,-0.26 0.1,-0.03 0.17,-0.12 0.17,-0.22l0 -0.55 0.91 0 0 0.55c0,0.1 0.07,0.19 0.17,0.22 0.23,0.06 0.45,0.14 0.65,0.26 0.08,0.06 0.2,0.04 0.27,-0.03l0.39 -0.39 0.64 0.65 -0.39 0.38c-0.07,0.07 -0.08,0.19 -0.03,0.28 0.12,0.2 0.21,0.41 0.26,0.64 0.03,0.1 0.12,0.17 0.22,0.17l0.55 0 0 0.91zm0 0z"/>
  <path class="fil2" d="M22.48 21.36l1.37 0 0 0.46 -1.37 0 0 -0.46zm0 0z"/>
 </g>
</svg>
