<?xml version="1.0" encoding="UTF-8"?>
<!DOCTYPE svg PUBLIC "-//W3C//DTD SVG 1.1//EN" "http://www.w3.org/Graphics/SVG/1.1/DTD/svg11.dtd">
<!-- Creator: CorelDRAW 2019 (64-Bit) -->
<svg xmlns="http://www.w3.org/2000/svg" xml:space="preserve" width="640px" height="640px" version="1.1" style="shape-rendering:geometricPrecision; text-rendering:geometricPrecision; image-rendering:optimizeQuality; fill-rule:evenodd; clip-rule:evenodd"
viewBox="0 0 43.83 43.83"
 xmlns:xlink="http://www.w3.org/1999/xlink">
 <defs>
  <style type="text/css">
   <![CDATA[
    .fil0 {fill:none}
    .fil2 {fill:#0A2155}
    .fil1 {fill:#FFC221}
   ]]>
  </style>
 </defs>
 <g id="Layer_x0020_1">
  <metadata id="CorelCorpID_0Corel-Layer"/>
  <rect class="fil0" width="43.83" height="43.83"/>
 </g>
 <g id="Layer_x0020_3">
  <metadata id="CorelCorpID_1Corel-Layer"/>
  <g id="_2389633671840">
   <path class="fil1" d="M17.98 22.16c-0.42,0.24 -0.99,0.43 -1.77,0.53l0 0 -5.43 0.72 0 -9.05 5.43 0.72c0.78,0.1 1.35,0.29 1.77,0.53l1.54 -0.01c-0.66,-0.83 -1.71,-1.33 -3.18,-1.53l-0.15 -0.02 1.34 -1.34 4.15 0c0.21,0.69 0.86,1.2 1.62,1.2 0.94,0 1.7,-0.77 1.7,-1.71 0,-0.93 -0.76,-1.7 -1.7,-1.7 -0.76,0 -1.41,0.51 -1.62,1.2l-4.36 0c-0.13,0 -0.26,0.05 -0.35,0.15l-2.04 2.03 -3.29 -0.43 -1.28 -0.17 0 0 -0.89 -0.12c-0.46,-0.06 -1.13,-0.09 -1.73,0.39 -0.51,0.41 -0.8,1 -0.8,1.67l0 7.33c0,0.67 0.29,1.26 0.8,1.67 0.16,0.13 0.34,0.22 0.51,0.29l0 0 1.16 0.11 0 0c0.02,-0.01 0.04,-0.01 0.06,-0.01l5.46 -0.72 2.04 2.03c0.09,0.1 0.22,0.15 0.35,0.15l4.36 0c0.21,0.69 0.86,1.2 1.62,1.2 0.94,0 1.7,-0.77 1.7,-1.7 0,-0.94 -0.76,-1.71 -1.7,-1.71 -0.76,0 -1.41,0.51 -1.62,1.2l-4.15 0 -1.34 -1.34 0.15 -0.02c1.47,-0.2 2.52,-0.7 3.18,-1.53l-1.54 -0.01zm5.32 2.72c0.38,0 0.69,0.31 0.69,0.69 0,0.37 -0.31,0.68 -0.69,0.68 -0.38,0 -0.68,-0.31 -0.68,-0.68 0,-0.38 0.3,-0.69 0.68,-0.69zm-0.68 -12.68c0,-0.37 0.3,-0.68 0.68,-0.68 0.38,0 0.69,0.31 0.69,0.68 0,0.38 -0.31,0.69 -0.69,0.69 -0.38,0 -0.68,-0.31 -0.68,-0.69zm-14.66 3.02c0,-0.36 0.14,-0.66 0.41,-0.87 0.24,-0.19 0.51,-0.24 0.96,-0.18l0.44 0.05 0 9.33 -0.44 0.05c-0.45,0.06 -0.72,0.01 -0.96,-0.18 -0.27,-0.21 -0.41,-0.51 -0.41,-0.87l0 -7.33 0 0z"/>
   <path class="fil2" d="M34.06 16.1l-14.22 0 0 0 -1.23 0 0 0 -0.1 0 -0.22 0 0 0 -0.02 0c-1.54,0 -2.79,1.25 -2.79,2.79 0,1.53 1.25,2.78 2.78,2.78l1.77 0 13.86 0 1.09 -0.02 0 -0.01c1.08,-0.19 1.91,-1.14 1.91,-2.28l0 -0.95c0,-1.09 -0.75,-2 -1.77,-2.25l-1.06 -0.06zm1.82 3.26c0,0.72 -0.58,1.3 -1.3,1.3l-16.31 0c-0.98,0 -1.77,-0.8 -1.77,-1.77 0,-0.98 0.79,-1.78 1.77,-1.78l16.31 0c0.72,0 1.3,0.58 1.3,1.3l0 0.95 0 0z"/>
   <path class="fil2" d="M8.03 24.93c-0.18,0.4 -0.21,0.77 -0.11,1.1 0.24,0.78 1.12,1.03 1.71,1.19 0.05,0.01 0.11,0.03 0.17,0.05 -0.04,0.14 -0.14,0.39 -0.33,0.81 -0.35,0.73 0.15,1.3 0.52,1.64 -0.13,0.12 -0.25,0.29 -0.26,0.53 -0.01,0.43 0.37,0.71 0.49,0.8 0.85,0.62 0.84,1.08 0.83,1.84 0,0.06 0,0.12 0,0.19 -0.01,1.14 -0.02,2.71 2.14,2.75 1.29,0.03 3.08,-0.36 4.79,-1.02 0.06,0.26 0.09,0.53 0.12,0.86 0.02,0.25 0.05,0.55 0.1,0.88 0.03,0.25 0.25,0.44 0.5,0.44 0.02,0 0.05,-0.01 0.07,-0.01 0.28,-0.04 0.47,-0.3 0.43,-0.58 -0.05,-0.3 -0.07,-0.57 -0.09,-0.83 -0.04,-0.41 -0.08,-0.78 -0.18,-1.16 1.27,-0.58 2.43,-1.3 3.21,-2.11 0.74,-0.77 1.09,-1.56 1.04,-2.35 -0.02,-0.28 -0.26,-0.49 -0.54,-0.48 -0.28,0.02 -0.49,0.26 -0.47,0.54 0.03,0.5 -0.23,1.03 -0.76,1.59 -1.73,1.79 -5.95,3.26 -8.2,3.22 -0.99,-0.02 -1.16,-0.28 -1.15,-1.74 0,-0.06 0,-0.12 0,-0.17 0.02,-0.84 0.03,-1.71 -1.15,-2.61 0.13,-0.1 0.28,-0.24 0.31,-0.47 0.03,-0.17 -0.02,-0.35 -0.14,-0.49 -0.08,-0.08 -0.17,-0.17 -0.28,-0.26 -0.31,-0.27 -0.47,-0.45 -0.41,-0.57 0.41,-0.9 0.52,-1.29 0.45,-1.63 -0.1,-0.41 -0.51,-0.52 -0.94,-0.64 -0.35,-0.1 -0.93,-0.26 -1.01,-0.51 -0.02,-0.06 -0.04,-0.26 0.2,-0.66l-1.06 -0.14z"/>
   <path class="fil2" d="M33.74 22.16c-0.46,1.27 -1.11,2.53 -1.74,3.75 -0.32,0.62 -0.64,1.25 -0.93,1.86 -0.01,0.01 -0.01,0.02 -0.02,0.03 -1.32,3.33 -0.23,6.34 0.57,8.54 0.04,0.1 0.07,0.21 0.11,0.31 0.07,0.21 0.27,0.34 0.48,0.34 0.05,0 0.11,-0.01 0.17,-0.03 0.26,-0.1 0.4,-0.39 0.3,-0.65 -0.03,-0.11 -0.07,-0.21 -0.11,-0.32 -0.78,-2.15 -1.75,-4.83 -0.58,-7.8 0.28,-0.59 0.59,-1.18 0.91,-1.81 0.71,-1.37 1.44,-2.78 1.92,-4.25l-1.08 0.03z"/>
   <path class="fil2" d="M35 15.64c-0.61,-2.51 -1.91,-4.75 -3.73,-6.38 -2.26,-2.02 -5.25,-3.1 -8.65,-3.1 -2.81,0 -5.54,0.67 -7.7,1.89 -2.11,1.18 -3.62,2.84 -4.41,4.83l1.03 0.16c1.75,-4.04 6.69,-5.86 11.08,-5.86l0 0c6.72,0 10.21,4.33 11.33,8.44l1.05 0.02z"/>
  </g>
 </g>
</svg>
