<?xml version="1.0" encoding="UTF-8"?>
<!DOCTYPE svg PUBLIC "-//W3C//DTD SVG 1.1//EN" "http://www.w3.org/Graphics/SVG/1.1/DTD/svg11.dtd">
<!-- Creator: CorelDRAW 2019 (64-Bit) -->
<svg xmlns="http://www.w3.org/2000/svg" xml:space="preserve" width="640px" height="640px" version="1.1" style="shape-rendering:geometricPrecision; text-rendering:geometricPrecision; image-rendering:optimizeQuality; fill-rule:evenodd; clip-rule:evenodd"
viewBox="0 0 38.33 38.33"
 xmlns:xlink="http://www.w3.org/1999/xlink">
 <defs>
  <style type="text/css">
   <![CDATA[
    .fil0 {fill:none}
    .fil2 {fill:#0A2155;fill-rule:nonzero}
    .fil1 {fill:#FFC221;fill-rule:nonzero}
   ]]>
  </style>
 </defs>
 <g id="Layer_x0020_1">
  <metadata id="CorelCorpID_0Corel-Layer"/>
  <rect class="fil0" width="38.33" height="38.33"/>
 </g>
 <g id="Layer_x0020_3">
  <metadata id="CorelCorpID_1Corel-Layer"/>
  <g id="_2392898396112">
   <path class="fil1" d="M18.84 15.69c-0.1,0 -0.19,0.04 -0.26,0.1l-2.02 2.02c-0.2,-0.12 -0.44,-0.19 -0.7,-0.19 -0.78,0 -1.42,0.64 -1.42,1.42 0,0.78 0.64,1.41 1.42,1.41 0.78,0 1.41,-0.63 1.41,-1.41 0,-0.26 -0.07,-0.5 -0.19,-0.71l1.91 -1.91 3.83 0c0.02,0.14 0.09,0.28 0.2,0.39l0.77 0.77c0.14,0.14 0.32,0.21 0.51,0.21 0.2,0 0.38,-0.07 0.52,-0.21 0.29,-0.29 0.66,-0.29 0.92,-0.18 0.25,0.1 0.52,0.36 0.52,0.78 0,0.4 0.32,0.72 0.72,0.72l1.09 0c0.4,0 0.73,-0.32 0.73,-0.72 0,-0.42 0.27,-0.68 0.52,-0.78 0.25,-0.11 0.62,-0.11 0.92,0.18 0.13,0.14 0.32,0.21 0.51,0.21 0.19,0 0.38,-0.07 0.51,-0.21l0.78 -0.77c0.13,-0.14 0.21,-0.32 0.21,-0.52 0,-0.19 -0.08,-0.37 -0.21,-0.51 -0.3,-0.29 -0.29,-0.67 -0.19,-0.92 0.11,-0.25 0.37,-0.52 0.78,-0.52 0.4,0 0.73,-0.32 0.73,-0.72l0 -1.1c0,-0.4 -0.33,-0.72 -0.73,-0.72 -0.41,0 -0.67,-0.27 -0.78,-0.52 -0.1,-0.25 -0.11,-0.63 0.19,-0.92 0.13,-0.14 0.21,-0.32 0.21,-0.51 0,-0.2 -0.08,-0.38 -0.21,-0.52l-0.78 -0.77c-0.13,-0.14 -0.32,-0.21 -0.51,-0.21 -0.19,0 -0.38,0.07 -0.51,0.21 -0.3,0.29 -0.67,0.29 -0.92,0.18 -0.25,-0.1 -0.52,-0.36 -0.52,-0.77 0,-0.4 -0.33,-0.73 -0.73,-0.73l-1.09 0c-0.4,0 -0.72,0.33 -0.72,0.73 0,0.41 -0.27,0.67 -0.52,0.77 -0.26,0.11 -0.63,0.11 -0.92,-0.18 -0.29,-0.28 -0.75,-0.28 -1.03,0l-0.77 0.77c-0.11,0.11 -0.18,0.24 -0.2,0.39l-3.83 0 -1.91 -1.91c0.12,-0.21 0.19,-0.45 0.19,-0.71 0,-0.78 -0.63,-1.41 -1.41,-1.41 -0.78,0 -1.42,0.63 -1.42,1.41 0,0.78 0.64,1.42 1.42,1.42 0.26,0 0.5,-0.07 0.7,-0.19l2.02 2.02c0.07,0.07 0.16,0.1 0.26,0.1l4.26 0c0.21,0.28 0.19,0.6 0.1,0.83 -0.1,0.25 -0.36,0.52 -0.78,0.52 -0.4,0 -0.72,0.32 -0.72,0.72l0 0.18 -2.9 0c-0.16,-0.6 -0.71,-1.04 -1.36,-1.04 -0.78,0 -1.42,0.63 -1.42,1.41 0,0.78 0.64,1.42 1.42,1.42 0.65,0 1.2,-0.45 1.36,-1.05l2.9 0 0 0.18c0,0.4 0.32,0.72 0.72,0.72 0.42,0 0.68,0.27 0.78,0.52 0.09,0.23 0.11,0.55 -0.1,0.83l-4.26 0 0 0zm-2.98 4.03c-0.38,0 -0.68,-0.31 -0.68,-0.68 0,-0.38 0.3,-0.68 0.68,-0.68 0.37,0 0.68,0.3 0.68,0.68 0,0.37 -0.31,0.68 -0.68,0.68zm0 -11.94c-0.38,0 -0.68,-0.3 -0.68,-0.68 0,-0.37 0.3,-0.68 0.68,-0.68 0.37,0 0.68,0.31 0.68,0.68 0,0.38 -0.31,0.68 -0.68,0.68zm1.58 5.97c-0.38,0 -0.68,-0.3 -0.68,-0.68 0,-0.38 0.3,-0.68 0.68,-0.68 0.37,0 0.68,0.3 0.68,0.68 0,0.38 -0.31,0.68 -0.68,0.68zm4.99 -0.14l0 -1.08c0.65,0 1.2,-0.37 1.45,-0.97 0.25,-0.6 0.12,-1.25 -0.34,-1.71l0.76 -0.76c0.46,0.45 1.12,0.58 1.72,0.33 0.59,-0.25 0.97,-0.8 0.97,-1.45l1.08 0c0,0.65 0.37,1.2 0.97,1.45 0.6,0.25 1.25,0.12 1.71,-0.33l0.76 0.76c-0.45,0.46 -0.58,1.11 -0.33,1.71 0.25,0.6 0.8,0.97 1.44,0.97l0 1.08c-0.64,0 -1.19,0.37 -1.44,0.97 -0.25,0.6 -0.12,1.26 0.33,1.71l-0.76 0.77c-0.46,-0.46 -1.11,-0.59 -1.71,-0.34 -0.6,0.25 -0.97,0.8 -0.97,1.45l-1.08 0c0,-0.65 -0.38,-1.2 -0.97,-1.45 -0.6,-0.25 -1.26,-0.12 -1.72,0.34l-0.76 -0.77c0.46,-0.45 0.59,-1.11 0.34,-1.71 -0.25,-0.6 -0.8,-0.97 -1.45,-0.97zm5.1 2.5c1.67,0 3.03,-1.37 3.03,-3.04 0,-1.67 -1.36,-3.04 -3.03,-3.04 -1.68,0 -3.04,1.37 -3.04,3.04 0,1.67 1.36,3.04 3.04,3.04zm0 -5.34c1.27,0 2.3,1.03 2.3,2.3 0,1.27 -1.03,2.3 -2.3,2.3 -1.27,0 -2.31,-1.03 -2.31,-2.3 0,-1.27 1.04,-2.3 2.31,-2.3z"/>
   <path class="fil2" d="M34.08 24.89c-0.42,-0.73 -1.36,-0.98 -2.09,-0.56l-6.27 3.62 -5.21 -1.81c0.06,-0.08 0.12,-0.16 0.18,-0.24l3.24 -0.47c0.91,-0.13 1.55,-0.79 1.55,-1.61 0,-0.88 -0.72,-1.61 -1.61,-1.61l-4.27 0c-0.3,-0.13 -0.63,-0.2 -0.98,-0.2 -0.37,0 -0.73,0.09 -1.05,0.23l0 0 -6.13 2.46 -2.96 0 0 -1.06c0,-0.24 -0.19,-0.43 -0.43,-0.43l-3.57 0c-0.24,0 -0.43,0.19 -0.43,0.43l0 8.57c0,0.24 0.19,0.43 0.43,0.43l3.57 0c0.24,0 0.43,-0.19 0.43,-0.43l0 -1.06c1.34,0.04 3.03,0.22 4.82,0.42 2.42,0.27 5.14,0.57 7.62,0.57 0.08,0 0.16,0 0.24,0 2.97,-0.03 5.1,-0.51 6.49,-1.47l5.88 -3.71c0.72,-0.45 0.96,-1.36 0.55,-2.07zm-8.17 4.66l0.47 0.85c-0.25,0.12 -0.51,0.22 -0.78,0.31l0.31 -1.16zm-1.29 -5.73c0,0.45 -0.41,0.7 -0.81,0.76l-2.74 0.4c0.03,-0.15 0.05,-0.31 0.05,-0.47 0,-0.54 -0.17,-1.03 -0.46,-1.44l3.21 0c0.42,0 0.75,0.34 0.75,0.75zm-4.36 0.69c0,0.9 -0.73,1.63 -1.64,1.63 -0.9,0 -1.64,-0.73 -1.64,-1.63 0,-0.91 0.74,-1.64 1.64,-1.64 0.91,0 1.64,0.73 1.64,1.64zm-8.8 3.41c0,1.31 -1.06,2.37 -2.36,2.37 -1.31,0 -2.37,-1.06 -2.37,-2.37 0,-1.3 1.06,-2.36 2.37,-2.36 1.3,0 2.36,1.06 2.36,2.36zm-6.55 3.86l0 -7.72 2.71 0 0 1c-1.04,0.53 -1.75,1.62 -1.75,2.86 0,1.25 0.71,2.33 1.75,2.87l0 0.99 -2.71 0zm8.49 -1.06c-0.81,-0.09 -1.59,-0.18 -2.34,-0.25 0.76,-0.59 1.26,-1.51 1.26,-2.55 0,-0.93 -0.4,-1.77 -1.04,-2.36l0.25 0c0.05,0 0.1,-0.01 0.15,-0.03l4.59 -1.84c-0.09,0.26 -0.14,0.53 -0.14,0.82 0,1.37 1.12,2.49 2.49,2.49 0.39,0 0.75,-0.09 1.07,-0.24l5.56 1.93 -0.61 2.26c-3.13,0.66 -7.53,0.18 -11.24,-0.23zm19.68 -4.48l-5.9 3.71c0,0 -0.01,0.01 -0.01,0.01 -0.01,0.01 -0.03,0.02 -0.04,0.02l-0.79 -1.4 6.08 -3.51c0.32,-0.18 0.73,-0.07 0.91,0.25 0.18,0.31 0.07,0.72 -0.25,0.92zm-15.02 -1.73c0,-0.31 0.25,-0.57 0.56,-0.57 0.31,0 0.56,0.26 0.56,0.57 0,0.31 -0.25,0.56 -0.56,0.56 -0.31,0 -0.56,-0.25 -0.56,-0.56zm-9.53 3.41c0,-0.31 0.26,-0.56 0.57,-0.56 0.3,0 0.56,0.25 0.56,0.56 0,0.31 -0.26,0.56 -0.56,0.56 -0.31,0 -0.57,-0.25 -0.57,-0.56z"/>
  </g>
 </g>
</svg>
