<?xml version="1.0" encoding="UTF-8"?>
<!DOCTYPE svg PUBLIC "-//W3C//DTD SVG 1.1//EN" "http://www.w3.org/Graphics/SVG/1.1/DTD/svg11.dtd">
<!-- Creator: CorelDRAW 2019 (64-Bit) -->
<svg xmlns="http://www.w3.org/2000/svg" xml:space="preserve" width="640px" height="640px" version="1.1" style="shape-rendering:geometricPrecision; text-rendering:geometricPrecision; image-rendering:optimizeQuality; fill-rule:evenodd; clip-rule:evenodd"
viewBox="0 0 48.23 48.23"
 xmlns:xlink="http://www.w3.org/1999/xlink">
 <defs>
  <style type="text/css">
   <![CDATA[
    .fil4 {fill:none}
    .fil3 {fill:#0A2155}
    .fil2 {fill:#FFC221}
    .fil1 {fill:#0A2155;fill-rule:nonzero}
    .fil0 {fill:#FFC221;fill-rule:nonzero}
   ]]>
  </style>
 </defs>
 <g id="Layer_x0020_3">
  <metadata id="CorelCorpID_0Corel-Layer"/>
  <g id="_1914288333584">
   <path class="fil0" d="M29.74 41.07l-11.25 0c-0.68,0 -1.29,-0.34 -1.64,-0.9 -0.34,-0.56 -0.37,-1.24 -0.07,-1.83l2.28 -4.46c0.11,-0.21 0.32,-0.34 0.56,-0.34l8.98 0c0.24,0 0.45,0.13 0.56,0.34l2.28 4.46c0.3,0.59 0.27,1.27 -0.07,1.83 -0.35,0.56 -0.96,0.9 -1.64,0.9l0.01 0zm-9.73 -6.28l-2.1 4.13c-0.14,0.27 -0.03,0.5 0.02,0.59 0.06,0.1 0.23,0.31 0.57,0.31l11.24 0c0.34,0 0.51,-0.22 0.57,-0.31 0.05,-0.09 0.16,-0.32 0.03,-0.59l-2.11 -4.13 -8.22 0z"/>
   <path class="fil1" d="M21.39 7.16l-12.97 0c-1.74,0 -3.14,1.41 -3.14,3.14l0 21.35c0,1.74 1.4,3.14 3.14,3.14l31.4 0c1.73,0 3.14,-1.4 3.14,-3.14l0 -21.35c0,-1.61 -1.21,-2.93 -2.77,-3.12l0 1.27c0.86,0.18 1.51,0.94 1.51,1.85l0 19.47c-11.72,0 -23.44,0 -35.17,0l0 -19.47c0,-1.04 0.85,-1.88 1.89,-1.88l12.97 0 0 -1.26zm20.31 24.49c0,1.04 -0.84,1.89 -1.88,1.89l-31.4 0c-1.04,0 -1.89,-0.85 -1.89,-1.89l0 -0.62 35.17 0 0 0.62z"/>
   <g>
    <path class="fil2" d="M30.79 11.85c-5.27,0 -9.4,-1.91 -9.4,-4.34 0,-2.43 4.13,-4.33 9.4,-4.33 5.27,0 9.4,1.9 9.4,4.32 0,2.43 -4.13,4.35 -9.4,4.35zm0 -7.83c-2.33,0 -4.53,0.4 -6.17,1.11 -1.51,0.66 -2.38,1.52 -2.38,2.37 0,0.86 0.87,1.72 2.38,2.38 1.65,0.72 3.84,1.11 6.17,1.11 2.33,0 4.53,-0.4 6.17,-1.12 1.52,-0.66 2.38,-1.52 2.38,-2.37 0,-0.86 -0.87,-1.72 -2.38,-2.38 -1.64,-0.7 -3.83,-1.1 -6.17,-1.1z"/>
   </g>
   <g>
    <path class="fil2" d="M30.79 16.63c-5.27,0 -9.4,-1.91 -9.4,-4.33 0,-0.24 0.18,-0.43 0.42,-0.43 0.24,0 0.42,0.19 0.42,0.43 0,1.68 3.44,3.48 8.56,3.48 5.12,0 8.56,-1.8 8.56,-3.48 0,-0.24 0.18,-0.43 0.42,-0.43 0.24,0 0.42,0.19 0.42,0.43 0,2.42 -4.13,4.33 -9.4,4.33z"/>
   </g>
   <g>
    <path class="fil2" d="M30.79 21.42c-5.27,0 -9.4,-1.91 -9.4,-4.33 0,-0.24 0.18,-0.43 0.42,-0.43 0.24,0 0.42,0.19 0.42,0.43 0,1.68 3.44,3.48 8.56,3.48 5.12,0 8.56,-1.8 8.56,-3.48 0,-0.24 0.18,-0.43 0.42,-0.43 0.24,0 0.42,0.19 0.42,0.43 0,2.42 -4.13,4.33 -9.4,4.33z"/>
   </g>
   <g>
    <path class="fil2" d="M21.81 17.51c-0.24,0 -0.42,-0.19 -0.42,-0.42l0 -9.59c0,-0.23 0.18,-0.42 0.42,-0.42 0.24,0 0.42,0.19 0.42,0.42l0 9.59c0,0.22 -0.18,0.42 -0.42,0.42z"/>
   </g>
   <g>
    <path class="fil2" d="M39.77 17.51c-0.24,0 -0.42,-0.19 -0.42,-0.42l0 -9.59c0,-0.23 0.18,-0.42 0.42,-0.42 0.24,0 0.42,0.19 0.42,0.42l0 9.59c0,0.22 -0.19,0.42 -0.42,0.42z"/>
   </g>
   <g>
    <g>
     <path class="fil2" d="M11.89 20.66c-0.09,0 -0.18,-0.04 -0.27,-0.1l-2.95 -2.41c-0.1,-0.07 -0.16,-0.2 -0.16,-0.33 0,-0.12 0.06,-0.24 0.16,-0.33l2.95 -2.41c0.18,-0.14 0.45,-0.12 0.59,0.06 0.15,0.18 0.12,0.45 -0.06,0.59l-2.55 2.09 2.55 2.09c0.18,0.15 0.22,0.42 0.06,0.6 -0.07,0.1 -0.2,0.15 -0.32,0.15l0 0z"/>
    </g>
    <g>
     <path class="fil2" d="M17.22 20.66c-0.11,0 -0.24,-0.05 -0.33,-0.15 -0.14,-0.18 -0.11,-0.45 0.06,-0.6l2.55 -2.09 -2.55 -2.09c-0.17,-0.14 -0.21,-0.41 -0.06,-0.59 0.16,-0.18 0.42,-0.21 0.6,-0.06l2.95 2.41c0.1,0.08 0.15,0.21 0.15,0.33 0,0.13 -0.06,0.25 -0.15,0.33l-2.95 2.41c-0.07,0.06 -0.17,0.1 -0.27,0.1l0 0z"/>
    </g>
    <g>
     <path class="fil2" d="M13.8 21.06c-0.03,0 -0.07,-0.01 -0.11,-0.02 -0.22,-0.06 -0.36,-0.3 -0.29,-0.52l1.5 -5.63c0.06,-0.22 0.3,-0.36 0.52,-0.29 0.23,0.06 0.36,0.29 0.3,0.51l-1.51 5.63c-0.05,0.19 -0.22,0.32 -0.41,0.32z"/>
    </g>
   </g>
   <g>
    <g>
     <g>
      <path class="fil3" d="M16.01 24.75l-6.89 0c-0.23,0 -0.42,-0.18 -0.42,-0.42 0,-0.24 0.19,-0.42 0.42,-0.42l6.89 0c0.24,0 0.43,0.18 0.43,0.42 0,0.24 -0.2,0.42 -0.43,0.42l0 0z"/>
     </g>
     <g>
      <path class="fil3" d="M20.94 24.75l-2.51 0c-0.23,0 -0.42,-0.18 -0.42,-0.42 0,-0.24 0.19,-0.42 0.42,-0.42l2.51 0c0.24,0 0.42,0.18 0.42,0.42 0,0.24 -0.18,0.42 -0.42,0.42l0 0z"/>
     </g>
     <g>
      <path class="fil3" d="M28.07 24.75l-2.51 0c-0.24,0 -0.42,-0.18 -0.42,-0.42 0,-0.24 0.18,-0.42 0.42,-0.42l2.51 0c0.23,0 0.42,0.18 0.42,0.42 0,0.24 -0.2,0.42 -0.42,0.42l0 0z"/>
     </g>
     <g>
      <path class="fil3" d="M39.26 24.75l-8.76 0c-0.24,0 -0.43,-0.18 -0.43,-0.42 0,-0.24 0.19,-0.42 0.43,-0.42l8.76 0c0.24,0 0.43,0.18 0.43,0.42 0,0.24 -0.2,0.42 -0.43,0.42l0 0z"/>
     </g>
     <g>
      <path class="fil3" d="M14.07 27.87l-4.95 0c-0.23,0 -0.42,-0.19 -0.42,-0.42 0,-0.24 0.19,-0.43 0.42,-0.43l4.95 0c0.23,0 0.42,0.19 0.42,0.43 0,0.23 -0.19,0.42 -0.42,0.42z"/>
     </g>
     <g>
      <path class="fil3" d="M28.78 27.87l-12.09 0c-0.24,0 -0.42,-0.19 -0.42,-0.42 0,-0.24 0.18,-0.43 0.42,-0.43l12.09 0c0.23,0 0.42,0.19 0.42,0.43 0,0.23 -0.19,0.42 -0.42,0.42z"/>
     </g>
     <g>
      <path class="fil3" d="M34.13 27.87l-2.19 0c-0.23,0 -0.42,-0.19 -0.42,-0.42 0,-0.24 0.19,-0.43 0.42,-0.43l2.19 0c0.23,0 0.42,0.19 0.42,0.43 0,0.23 -0.2,0.42 -0.42,0.42z"/>
     </g>
     <g>
      <path class="fil3" d="M39.29 27.87l-2.18 0c-0.24,0 -0.43,-0.19 -0.43,-0.42 0,-0.24 0.19,-0.43 0.43,-0.43l2.18 0c0.24,0 0.42,0.19 0.42,0.43 0,0.23 -0.19,0.42 -0.42,0.42z"/>
     </g>
    </g>
    <g>
     <g>
      <path class="fil3" d="M19.13 12.08l-4.83 0c-0.24,0 -0.43,-0.19 -0.43,-0.43 0,-0.24 0.19,-0.42 0.43,-0.42l4.83 0c0.24,0 0.42,0.18 0.42,0.42 0,0.24 -0.18,0.43 -0.42,0.43z"/>
     </g>
     <g>
      <path class="fil3" d="M11.66 12.08l-2.54 0c-0.23,0 -0.42,-0.19 -0.42,-0.43 0,-0.24 0.19,-0.42 0.42,-0.42l2.55 0c0.24,0 0.42,0.18 0.42,0.42 0,0.24 -0.19,0.43 -0.43,0.43z"/>
     </g>
    </g>
   </g>
  </g>
  <rect class="fil4" width="48.23" height="48.23"/>
 </g>
</svg>
