<?xml version="1.0" encoding="UTF-8"?>
<!DOCTYPE svg PUBLIC "-//W3C//DTD SVG 1.1//EN" "http://www.w3.org/Graphics/SVG/1.1/DTD/svg11.dtd">
<!-- Creator: CorelDRAW -->
<svg xmlns="http://www.w3.org/2000/svg" xml:space="preserve" width="640px" height="640px" version="1.1" style="shape-rendering:geometricPrecision; text-rendering:geometricPrecision; image-rendering:optimizeQuality; fill-rule:evenodd; clip-rule:evenodd"
viewBox="0 0 74.19 74.19"
 xmlns:xlink="http://www.w3.org/1999/xlink"
 xmlns:xodm="http://www.corel.com/coreldraw/odm/2003">
 <defs>
  <style type="text/css">
   <![CDATA[
    .fil0 {fill:none}
    .fil1 {fill:#002155;fill-rule:nonzero}
    .fil2 {fill:#FFC221;fill-rule:nonzero}
   ]]>
  </style>
 </defs>
 <g id="Layer_x0020_1">
  <metadata id="CorelCorpID_0Corel-Layer"/>
  <rect class="fil0" width="74.19" height="74.19"/>
 </g>
 <g id="Capa_x0020_1">
  <metadata id="CorelCorpID_1Corel-Layer"/>
  <g id="_2173576097600">
   <path class="fil1" d="M18.88 56.96c-0.46,0 -0.83,-0.37 -0.83,-0.82l0 -38.09c0,-2.29 1.85,-4.14 4.14,-4.14l33.12 0c0.46,0 0.83,0.37 0.83,0.83l0 38.08c0,0.46 -0.37,0.83 -0.83,0.83 -0.46,0 -0.83,-0.37 -0.83,-0.83l0 -37.25 -32.29 0c-1.37,0 -2.48,1.11 -2.48,2.48l0 38.09c0,0.45 -0.37,0.82 -0.83,0.82l0 0z"/>
   <path class="fil1" d="M55.31 60.28l-33.12 0c-2.29,0 -4.14,-1.86 -4.14,-4.14 0,-2.29 1.85,-4.14 4.14,-4.14l33.12 0c0.46,0 0.83,0.37 0.83,0.82l0 6.63c0,0.46 -0.37,0.83 -0.83,0.83l0 0zm-33.12 -6.63c-1.37,0 -2.48,1.11 -2.48,2.49 0,1.37 1.11,2.48 2.48,2.48l32.29 0 0 -4.97 -32.29 0z"/>
   <path class="fil1" d="M50.34 22.19l-21.53 0c-0.45,0 -0.82,-0.37 -0.82,-0.83 0,-0.46 0.37,-0.83 0.82,-0.83l21.53 0c0.46,0 0.83,0.37 0.83,0.83 0,0.46 -0.37,0.83 -0.83,0.83z"/>
   <path class="fil1" d="M47.03 25.5l-14.9 0c-0.46,0 -0.83,-0.37 -0.83,-0.83 0,-0.45 0.37,-0.82 0.83,-0.82l14.9 0c0.46,0 0.83,0.37 0.83,0.82 0,0.46 -0.37,0.83 -0.83,0.83z"/>
   <path class="fil1" d="M23.85 53.65c-0.46,0 -0.83,-0.37 -0.83,-0.83l0 -38.08c0,-0.46 0.37,-0.83 0.83,-0.83 0.45,0 0.82,0.37 0.82,0.83l0 38.08c0,0.46 -0.37,0.83 -0.82,0.83l0 0z"/>
   <path class="fil1" d="M55.31 56.96l-33.12 0c-0.46,0 -0.83,-0.37 -0.83,-0.82 0,-0.46 0.37,-0.83 0.83,-0.83l33.12 0c0.46,0 0.83,0.37 0.83,0.83 0,0.45 -0.37,0.82 -0.83,0.82l0 0z"/>
   <path class="fil2" d="M43.72 47.03l-8.28 0c-0.46,0 -0.83,-0.37 -0.83,-0.83l0 -3.12 -1.57 -3.13c-0.06,-0.12 -0.09,-0.24 -0.09,-0.37 0,-0.13 0.03,-0.26 0.09,-0.37l4.97 -9.94c0.14,-0.28 0.43,-0.46 0.74,-0.46 0,0 0,0 0,0l1.66 0c0,0 0,0 0,0 0.31,0 0.6,0.18 0.74,0.46l4.96 9.94c0.06,0.11 0.09,0.24 0.09,0.37 0,0.13 -0.03,0.25 -0.09,0.37l-1.56 3.13 0 3.12c0,0.46 -0.38,0.83 -0.83,0.83l0 0zm-7.45 -1.66l6.62 0 0 -2.48c0,0 0,0 0,0 0,-0.13 0.03,-0.26 0.09,-0.37l1.47 -2.94 -4.56 -9.11 -0.63 0 -4.55 9.11 1.47 2.94c0.06,0.11 0.09,0.24 0.09,0.37 0,0 0,0 0,0l0 2.48z"/>
   <path class="fil2" d="M43.72 43.72l-8.28 0c-0.46,0 -0.83,-0.37 -0.83,-0.83 0,-0.46 0.37,-0.83 0.83,-0.83l8.28 0c0.45,0 0.83,0.37 0.83,0.83 0,0.46 -0.38,0.83 -0.83,0.83z"/>
   <path class="fil2" d="M39.58 37.09c-0.46,0 -0.83,-0.37 -0.83,-0.82l0 -6.63c0,-0.46 0.37,-0.83 0.83,-0.83 0.45,0 0.83,0.37 0.83,0.83l0 6.63c0,0.45 -0.38,0.82 -0.83,0.82z"/>
   <path class="fil2" d="M39.58 40.41c-1.37,-0.01 -2.49,-1.12 -2.49,-2.49 0,-1.37 1.12,-2.48 2.49,-2.48 1.37,0 2.48,1.11 2.48,2.48 0,1.37 -1.11,2.48 -2.48,2.48l0 0.01zm0 -3.32c-0.46,0 -0.83,0.37 -0.83,0.83 0,0.46 0.37,0.83 0.83,0.83 0.45,0 0.83,-0.37 0.83,-0.83 -0.01,-0.46 -0.38,-0.83 -0.83,-0.83z"/>
  </g>
 </g>
</svg>
