<?xml version="1.0" encoding="UTF-8"?>
<!DOCTYPE svg PUBLIC "-//W3C//DTD SVG 1.1//EN" "http://www.w3.org/Graphics/SVG/1.1/DTD/svg11.dtd">
<!-- Creator: CorelDRAW -->
<svg xmlns="http://www.w3.org/2000/svg" xml:space="preserve" width="640px" height="640px" version="1.1" style="shape-rendering:geometricPrecision; text-rendering:geometricPrecision; image-rendering:optimizeQuality; fill-rule:evenodd; clip-rule:evenodd"
viewBox="0 0 57.46 57.46"
 xmlns:xlink="http://www.w3.org/1999/xlink"
 xmlns:xodm="http://www.corel.com/coreldraw/odm/2003">
 <defs>
  <style type="text/css">
   <![CDATA[
    .fil0 {fill:none}
    .fil1 {fill:#002155;fill-rule:nonzero}
    .fil2 {fill:#FFC221;fill-rule:nonzero}
   ]]>
  </style>
 </defs>
 <g id="Layer_x0020_1">
  <metadata id="CorelCorpID_0Corel-Layer"/>
  <rect class="fil0" width="57.46" height="57.46"/>
 </g>
 <g id="Capa_x0020_1">
  <metadata id="CorelCorpID_1Corel-Layer"/>
  <g id="_2174036833488">
   <path class="fil1" d="M30.25 18.5c-0.47,-0.33 -0.96,-0.36 -1.31,-0.07 -4.75,3.78 -8.95,5.33 -12.86,4.72l0 0c-0.03,0 -0.05,0 -0.08,0l-3.46 0c-2.19,0 -3.97,1.78 -3.97,3.96l0 0.63c0,1.23 0.58,2.34 1.47,3.07l0 6.31c0,1.16 0.94,2.1 2.1,2.1 1.15,0 2.09,-0.94 2.09,-2.1l0 -5.42 1.77 0c0.03,0 0.05,0 0.08,-0.01l0 0c3.93,-0.65 8.14,0.85 12.87,4.58 0.16,0.13 0.35,0.19 0.55,0.19 0.24,0 0.5,-0.09 0.76,-0.27 0.34,-0.25 0.54,-0.63 0.54,-1.05l0 -15.59c0,-0.42 -0.2,-0.8 -0.55,-1.05l0 0zm-17.02 18.62c0,0.61 -0.49,1.1 -1.09,1.1 -0.61,0 -1.1,-0.49 -1.1,-1.1l0 -5.71c0.46,0.18 0.97,0.29 1.5,0.29l0.69 0 0 5.42zm2.27 -6.42l-2.96 0c-1.63,0 -2.96,-1.33 -2.96,-2.96l0 -0.63c0,-1.63 1.33,-2.96 2.96,-2.96l2.96 0 0 6.55 0 0zm14.3 4.44c0,0.1 -0.04,0.17 -0.12,0.23 -0.07,0.05 -0.12,0.07 -0.15,0.08 -4.72,-3.71 -8.99,-5.3 -13.03,-4.83l0 -6.4c4.02,0.42 8.29,-1.21 13.02,-4.98 0.04,0.01 0.09,0.04 0.16,0.08 0.08,0.06 0.12,0.13 0.12,0.23l0 15.59 0 0zm-5.69 -9.98c0.1,0.26 -0.03,0.55 -0.29,0.65 -1.13,0.44 -2.36,0.72 -3.86,0.87 -0.02,0 -0.04,0 -0.05,0 -0.26,0 -0.48,-0.19 -0.5,-0.45 -0.03,-0.27 0.17,-0.52 0.45,-0.55 1.4,-0.14 2.55,-0.4 3.6,-0.81 0.26,-0.1 0.55,0.03 0.65,0.29l0 0zm3.05 -2.04c0.18,0.21 0.16,0.53 -0.05,0.71 -0.41,0.34 -0.83,0.66 -1.27,0.94 -0.08,0.06 -0.17,0.08 -0.27,0.08 -0.16,0 -0.32,-0.08 -0.42,-0.23 -0.15,-0.23 -0.08,-0.54 0.15,-0.69 0.39,-0.26 0.78,-0.55 1.15,-0.87 0.21,-0.18 0.53,-0.15 0.71,0.06l0 0zm5.59 -5.04c-0.16,-0.23 -0.1,-0.54 0.13,-0.7l10.82 -7.35c0.23,-0.16 0.54,-0.1 0.7,0.13 0.16,0.23 0.1,0.54 -0.13,0.7l-10.82 7.35c-0.09,0.06 -0.19,0.09 -0.29,0.09 -0.16,0 -0.31,-0.08 -0.41,-0.22l0 0zm-0.1 2.39c-0.12,-0.25 -0.01,-0.55 0.24,-0.67l9.48 -4.36c0.25,-0.12 0.55,-0.01 0.67,0.24 0.11,0.26 0,0.55 -0.25,0.67l-9.48 4.37c-0.06,0.03 -0.14,0.04 -0.21,0.04 -0.19,0 -0.37,-0.11 -0.45,-0.29zm11.75 26.84c-0.1,0.14 -0.25,0.22 -0.42,0.22 -0.09,0 -0.19,-0.03 -0.28,-0.09l-10.82 -7.36c-0.23,-0.15 -0.29,-0.47 -0.13,-0.7 0.15,-0.22 0.47,-0.28 0.69,-0.13l10.83 7.36c0.23,0.15 0.29,0.47 0.13,0.69l0 0.01zm-11.09 -10.56l9.48 4.36c0.25,0.12 0.36,0.42 0.25,0.67 -0.09,0.18 -0.27,0.29 -0.46,0.29 -0.07,0 -0.14,-0.01 -0.21,-0.04l-9.48 -4.37c-0.25,-0.12 -0.36,-0.42 -0.24,-0.67 0.11,-0.25 0.41,-0.36 0.66,-0.24z"/>
   <path class="fil2" d="M48.78 28.3c-2,-2.52 -4.99,-3.96 -8.2,-3.96 -3.2,0 -6.19,1.44 -8.19,3.96 -0.15,0.18 -0.15,0.44 0,0.62 2,2.52 4.99,3.96 8.19,3.96 3.21,0 6.2,-1.44 8.2,-3.96 0.15,-0.18 0.15,-0.44 0,-0.62zm-8.2 3.56c-1.79,0 -3.24,-1.46 -3.24,-3.25 0,-1.8 1.45,-3.25 3.24,-3.25 1.79,0 3.25,1.46 3.25,3.25 0,1.79 -1.46,3.25 -3.25,3.25zm-7.15 -3.25c1.06,-1.22 2.38,-2.13 3.85,-2.67 -0.59,0.73 -0.95,1.66 -0.95,2.67 0,1.01 0.36,1.94 0.95,2.67 -1.47,-0.54 -2.79,-1.45 -3.85,-2.67zm10.46 2.68c0.59,-0.74 0.94,-1.67 0.94,-2.68 0,-1.01 -0.35,-1.94 -0.94,-2.67 1.47,0.54 2.79,1.45 3.85,2.67 -1.06,1.22 -2.38,2.13 -3.85,2.68zm-3.31 -4.76c-1.14,0 -2.07,0.93 -2.07,2.08 0,1.15 0.93,2.08 2.07,2.08 1.15,0 2.08,-0.93 2.08,-2.08 0,-1.15 -0.93,-2.08 -2.08,-2.08zm0 3.16c-0.59,0 -1.07,-0.49 -1.07,-1.08 0,-0.59 0.48,-1.07 1.07,-1.07 0.59,0 1.08,0.48 1.08,1.07 0,0.59 -0.49,1.08 -1.08,1.08zm0 -9.12c0.28,0 0.5,0.22 0.5,0.5l0 2.15c0,0.28 -0.22,0.5 -0.5,0.5 -0.27,0 -0.5,-0.22 -0.5,-0.5l0 -2.15c0,-0.28 0.23,-0.5 0.5,-0.5zm2.77 3.39l1.26 -1.74c0.16,-0.22 0.48,-0.27 0.7,-0.11 0.23,0.16 0.28,0.48 0.11,0.7l-1.26 1.74c-0.1,0.13 -0.25,0.21 -0.41,0.21 -0.1,0 -0.2,-0.03 -0.29,-0.1 -0.23,-0.16 -0.28,-0.48 -0.11,-0.7l0 0zm2.02 10.49c0.16,0.23 0.11,0.54 -0.12,0.7 -0.09,0.06 -0.19,0.1 -0.29,0.1 -0.15,0 -0.31,-0.08 -0.41,-0.21l-1.25 -1.75c-0.16,-0.23 -0.1,-0.54 0.12,-0.7 0.23,-0.17 0.54,-0.11 0.7,0.11l1.25 1.75zm-4.86 2.2c-0.28,0 -0.5,-0.23 -0.5,-0.5l0.02 -2.15c0.01,-0.28 0.23,-0.51 0.51,-0.5 0.28,0 0.5,0.23 0.5,0.5l-0.02 2.16c-0.01,0.27 -0.23,0.49 -0.5,0.49 -0.01,0 -0.01,0 -0.01,0zm-4.72 -1.58c-0.22,-0.17 -0.26,-0.48 -0.1,-0.71l1.28 -1.72c0.17,-0.23 0.48,-0.27 0.7,-0.11 0.22,0.17 0.27,0.48 0.11,0.7l-1.28 1.73c-0.1,0.13 -0.25,0.2 -0.41,0.2 -0.1,0 -0.21,-0.03 -0.3,-0.09zm0.88 -12.92l1.23 1.76c0.16,0.23 0.11,0.54 -0.12,0.7 -0.09,0.06 -0.19,0.09 -0.29,0.09 -0.15,0 -0.31,-0.07 -0.41,-0.21l-1.23 -1.76c-0.16,-0.23 -0.11,-0.54 0.12,-0.7 0.23,-0.16 0.54,-0.11 0.7,0.12l0 0z"/>
  </g>
 </g>
</svg>
