<?xml version="1.0" encoding="UTF-8"?>
<!DOCTYPE svg PUBLIC "-//W3C//DTD SVG 1.1//EN" "http://www.w3.org/Graphics/SVG/1.1/DTD/svg11.dtd">
<!-- Creator: CorelDRAW 2019 (64-Bit) -->
<svg xmlns="http://www.w3.org/2000/svg" xml:space="preserve" width="640px" height="640px" version="1.1" style="shape-rendering:geometricPrecision; text-rendering:geometricPrecision; image-rendering:optimizeQuality; fill-rule:evenodd; clip-rule:evenodd"
viewBox="0 0 325.22 325.22"
 xmlns:xlink="http://www.w3.org/1999/xlink">
 <defs>
  <style type="text/css">
   <![CDATA[
    .fil0 {fill:none}
    .fil2 {fill:#FFC221}
    .fil1 {fill:#0A2155;fill-rule:nonzero}
   ]]>
  </style>
 </defs>
 <g id="Layer_x0020_1">
  <metadata id="CorelCorpID_0Corel-Layer"/>
  <rect class="fil0" width="325.22" height="325.22"/>
  <g id="_2044547823888">
   <g>
    <path class="fil1" d="M225.32 146.7l10.33 2.04 -1.64 8.3 -10.33 -2.03 -3.09 -2.54 4.73 -5.77zm-1.64 8.31c-2.29,-0.45 -3.79,-2.68 -3.33,-4.98 0.45,-2.29 2.68,-3.78 4.97,-3.33l-1.64 8.31zm-2.71 -23.75l7.44 17.97 -7.82 3.24 -7.45 -17.97 0.4 -3.98 7.43 0.74zm-7.83 3.24c-0.89,-2.16 0.13,-4.64 2.29,-5.53 2.16,-0.9 4.64,0.13 5.54,2.29l-7.83 3.24zm13.3 -8.01l-5.87 8.75 -7.03 -4.72 5.86 -8.75 7.04 4.72 0 0zm-7.04 -4.72c1.31,-1.94 3.94,-2.46 5.88,-1.16 1.94,1.31 2.46,3.94 1.16,5.88l-7.04 -4.72zm0.09 0.85l5.99 -5.99 0 0 0.23 0.25 0.23 0.26 0.21 0.26 0.2 0.27 0.19 0.29 0.18 0.29 0.16 0.29 0.15 0.3 0.14 0.31 0.12 0.3 0.11 0.32 0.09 0.32 0.08 0.32 0.07 0.32 0.05 0.34 0.04 0.32 0.03 0.32 0.01 0.34 -0.01 0.33 -0.01 0.33 -0.03 0.33 -0.05 0.33 -0.06 0.33 -0.07 0.32 -0.09 0.33 -0.11 0.32 -0.11 0.31 -0.13 0.31 -0.15 0.31 -0.15 0.31 -0.18 0.29 -0.18 0.29 -7.04 -4.72 -0.01 0.02 -0.01 0.02 -0.01 0.03 -0.02 0.03 -0.01 0.02 0 0.02 -0.01 0.03 -0.01 0.03 -0.01 0.02 0 0.04 -0.01 0.03 0 0.03 0 0.02 0 0.04 0 0.04 0 0.02 0.01 0.03 0 0.03 0.01 0.03 0 0.03 0.01 0.03 0.01 0.03 0.01 0.03 0.02 0.03 0.01 0.02 0.01 0.03 0.02 0.02 0.02 0.03 0.01 0.02 0.01 0.01 0.02 0.03 0.02 0.01 0 0zm0 0c-1.66,-1.65 -1.66,-4.33 0,-5.99 1.65,-1.65 4.33,-1.65 5.99,0l-5.99 5.99zm-7.55 -19.53l13.54 13.54 -5.99 5.99 -13.54 -13.54 0 0 5.99 -5.99zm-5.99 5.99c-1.66,-1.65 -1.66,-4.33 0,-5.99 1.65,-1.65 4.33,-1.65 5.99,0l-5.99 5.99zm0.85 0.09l-4.72 -7.04 0 0 0.29 -0.18 0.29 -0.18 0.31 -0.15 0.3 -0.15 0.31 -0.13 0.32 -0.12 0.32 -0.1 0.33 -0.09 0.32 -0.07 0.33 -0.06 0.33 -0.05 0.33 -0.03 0.33 -0.01 0.33 -0.01 0.33 0.01 0.33 0.03 0.32 0.04 0.34 0.05 0.32 0.07 0.32 0.08 0.32 0.09 0.32 0.11 0.3 0.12 0.31 0.14 0.3 0.15 0.29 0.16 0.29 0.18 0.28 0.19 0.28 0.2 0.26 0.21 0.26 0.23 0.25 0.23 -5.99 5.99 0.01 0.02 0.02 0.01 0.02 0.02 0.02 0.01 0.03 0.02 0.03 0.02 0.01 0.01 0.03 0.01 0.04 0.02 0.02 0.01 0.02 0.01 0.03 0 0.04 0.01 0.03 0.01 0.03 0 0.03 0.01 0.03 0 0.03 0 0.03 0 0.03 0 0.03 0 0.03 -0.01 0.03 0 0.03 -0.01 0.03 -0.01 0.03 -0.01 0.03 -0.01 0.02 -0.01 0.02 -0.01 0.03 -0.01 0.02 -0.01 0.02 -0.01 0 0zm0 0c-1.95,1.3 -4.58,0.78 -5.88,-1.16 -1.3,-1.95 -0.78,-4.58 1.16,-5.88l4.72 7.04zm-13.47 -1.17l8.75 -5.87 4.72 7.04 -8.75 5.86 -3.98 0.4 -0.74 -7.43zm4.72 7.03c-1.94,1.3 -4.58,0.79 -5.88,-1.16 -1.3,-1.94 -0.78,-4.57 1.16,-5.87l4.72 7.03zm-18.71 -14.87l17.97 7.44 -3.24 7.83 -17.97 -7.45 -2.54 -3.09 5.78 -4.73zm-3.24 7.82c-2.16,-0.89 -3.19,-3.37 -2.29,-5.53 0.89,-2.16 3.37,-3.19 5.53,-2.29l-3.24 7.82zm3.73 -15.06l2.04 10.33 -8.31 1.64 -2.03 -10.33 0 0 8.3 -1.64zm-8.3 1.64c-0.46,-2.3 1.04,-4.53 3.33,-4.98 2.29,-0.45 4.52,1.04 4.97,3.34l-8.3 1.64zm0.65 0.54l0 -8.47 0 0 0.35 0.01 0.33 0.02 0.34 0.03 0.35 0.06 0.33 0.06 0.32 0.08 0.32 0.09 0.32 0.11 0.32 0.12 0.3 0.13 0.3 0.15 0.29 0.16 0.28 0.16 0.28 0.19 0.27 0.19 0.26 0.2 0.25 0.22 0.24 0.22 0.23 0.24 0.23 0.25 0.21 0.26 0.2 0.26 0.19 0.27 0.18 0.29 0.16 0.29 0.16 0.3 0.14 0.3 0.13 0.32 0.11 0.31 0.1 0.33 0.09 0.33 0.07 0.34 -8.3 1.64 0 0.01 0.01 0.04 0 0.02 0.01 0.02 0.01 0.03 0.02 0.02 0.01 0.03 0.01 0.02 0.02 0.03 0.02 0.03 0.01 0.01 0.02 0.03 0.03 0.03 0.02 0.02 0.02 0.02 0.02 0.02 0.03 0.02 0.02 0.02 0.03 0.01 0.02 0.02 0.03 0.01 0.03 0.02 0.02 0.01 0.03 0.01 0.03 0.01 0.03 0.01 0.02 0 0.03 0.01 0.04 0 0.02 0.01 0.02 0 0.02 0 0 0zm0 0c-2.34,0 -4.23,-1.9 -4.23,-4.24 0,-2.34 1.89,-4.23 4.23,-4.23l0 8.47zm-19.15 -8.47l19.15 0 0 8.47 -19.15 0 0 0 0 -8.47zm0 8.47c-2.33,0 -4.23,-1.9 -4.23,-4.24 0,-2.34 1.9,-4.23 4.23,-4.23l0 8.47zm0.66 -0.54l-8.31 -1.64 0 0 0.08 -0.34 0.09 -0.33 0.1 -0.33 0.11 -0.31 0.13 -0.32 0.14 -0.3 0.16 -0.3 0.16 -0.29 0.18 -0.29 0.19 -0.27 0.19 -0.26 0.22 -0.26 0.23 -0.25 0.23 -0.24 0.23 -0.22 0.26 -0.22 0.26 -0.2 0.27 -0.19 0.28 -0.19 0.27 -0.16 0.3 -0.16 0.3 -0.15 0.3 -0.13 0.32 -0.12 0.31 -0.11 0.33 -0.09 0.32 -0.08 0.33 -0.06 0.35 -0.06 0.34 -0.03 0.33 -0.02 0.34 -0.01 0 8.47 0.03 0 0.02 0 0.02 -0.01 0.04 0 0.02 -0.01 0.02 0 0.04 -0.01 0.02 -0.01 0.03 -0.01 0.03 -0.01 0.02 -0.02 0.04 -0.01 0.02 -0.02 0.02 -0.01 0.03 -0.02 0.02 -0.02 0.03 -0.02 0.02 -0.02 0.02 -0.02 0.03 -0.03 0.02 -0.03 0.01 -0.01 0.02 -0.03 0.02 -0.03 0.01 -0.02 0.01 -0.03 0.01 -0.02 0.02 -0.03 0 -0.02 0.01 -0.02 0.01 -0.04 0 -0.01 0 0zm0 0c-0.45,2.29 -2.68,3.78 -4.97,3.33 -2.29,-0.45 -3.79,-2.68 -3.34,-4.97l8.31 1.64zm-10.34 8.69l2.03 -10.33 8.31 1.64 -2.03 10.33 -2.54 3.09 -5.77 -4.73zm8.31 1.64c-0.46,2.29 -2.68,3.79 -4.98,3.33 -2.29,-0.45 -3.79,-2.68 -3.33,-4.97l8.31 1.64zm-23.75 2.71l17.97 -7.44 3.24 7.82 -17.97 7.45 -3.98 -0.4 0.74 -7.43zm3.24 7.83c-2.16,0.89 -4.64,-0.13 -5.53,-2.29 -0.9,-2.16 0.13,-4.64 2.29,-5.54l3.24 7.83zm-8.01 -13.3l8.75 5.87 -4.72 7.03 -8.75 -5.86 4.72 -7.04zm-4.72 7.04c-1.94,-1.31 -2.46,-3.94 -1.16,-5.88 1.31,-1.94 3.94,-2.46 5.88,-1.16l-4.72 7.04zm0.85 -0.09l-5.99 -5.99 0 0 0.25 -0.24 0.26 -0.22 0.26 -0.21 0.28 -0.21 0.28 -0.18 0.28 -0.18 0.3 -0.16 0.3 -0.15 0.3 -0.13 0.31 -0.13 0.33 -0.11 0.31 -0.09 0.32 -0.08 0.33 -0.07 0.32 -0.05 0.32 -0.04 0.34 -0.03 0.33 -0.01 0.33 0.01 0.33 0.01 0.33 0.03 0.33 0.05 0.32 0.06 0.33 0.07 0.33 0.09 0.32 0.11 0.32 0.11 0.31 0.13 0.3 0.15 0.3 0.15 0.3 0.18 0.29 0.18 -4.72 7.04 0.02 0.01 0.02 0.01 0.02 0.01 0.03 0.01 0.02 0.01 0.03 0.01 0.03 0.01 0.03 0.01 0.03 0.01 0.03 0 0.02 0.01 0.04 0 0.03 0 0.03 0 0.03 0 0.03 0 0.03 -0.01 0.03 0 0.03 -0.01 0.03 0 0.02 -0.01 0.04 -0.01 0.03 -0.02 0.03 -0.01 0.02 -0.01 0.03 -0.02 0.02 -0.01 0.02 -0.01 0.03 -0.02 0.01 -0.01 0.02 -0.02 0.02 -0.02 0 0zm0 0c-1.65,1.66 -4.34,1.65 -5.99,0 -1.65,-1.65 -1.65,-4.33 0,-5.99l5.99 5.99zm-19.53 7.55l13.54 -13.54 5.99 5.99 -13.54 13.54 -5.99 -5.99zm5.99 5.99c-1.65,1.65 -4.33,1.65 -5.99,0 -1.65,-1.65 -1.65,-4.33 0,-5.99l5.99 5.99zm0.08 -0.85l-7.03 4.72 0 0 -0.19 -0.29 -0.17 -0.29 -0.16 -0.31 -0.14 -0.31 -0.13 -0.31 -0.12 -0.31 -0.1 -0.32 -0.09 -0.33 -0.07 -0.32 -0.06 -0.33 -0.05 -0.33 -0.03 -0.33 -0.02 -0.33 0 -0.33 0.01 -0.34 0.03 -0.32 0.03 -0.32 0.06 -0.34 0.07 -0.32 0.08 -0.32 0.09 -0.32 0.11 -0.32 0.12 -0.3 0.14 -0.31 0.15 -0.3 0.16 -0.29 0.18 -0.29 0.18 -0.29 0.2 -0.27 0.22 -0.26 0.23 -0.26 0.23 -0.25 5.99 5.99 0.01 -0.01 0.02 -0.03 0.02 -0.01 0.01 -0.02 0.02 -0.03 0.01 -0.02 0.02 -0.03 0.01 -0.02 0.01 -0.03 0.01 -0.03 0.01 -0.03 0.01 -0.03 0.01 -0.03 0.01 -0.03 0 -0.03 0.01 -0.03 0 -0.02 0 -0.04 0 -0.04 0 -0.02 0 -0.03 -0.01 -0.03 -0.01 -0.04 0 -0.02 -0.01 -0.03 -0.01 -0.03 -0.01 -0.02 -0.01 -0.02 -0.01 -0.03 -0.01 -0.03 -0.02 -0.02 -0.01 -0.02 0 0zm0 0c1.31,1.95 0.79,4.58 -1.16,5.88 -1.94,1.3 -4.57,0.78 -5.87,-1.16l7.03 -4.72zm-1.16 13.47l-5.87 -8.75 7.03 -4.72 5.87 8.75 0.39 3.98 -7.42 0.74zm7.03 -4.72c1.3,1.94 0.78,4.58 -1.16,5.88 -1.94,1.3 -4.57,0.78 -5.87,-1.16l7.03 -4.72zm-14.87 18.71l7.44 -17.97 7.82 3.24 -7.44 17.97 -3.09 2.54 -4.73 -5.78zm7.82 3.24c-0.9,2.16 -3.37,3.19 -5.53,2.29 -2.16,-0.89 -3.19,-3.37 -2.29,-5.53l7.82 3.24zm-15.06 -3.73l10.33 -2.04 1.64 8.31 -10.34 2.03 0 0 -1.63 -8.3zm1.63 8.3c-2.29,0.46 -4.52,-1.04 -4.97,-3.33 -0.45,-2.29 1.04,-4.52 3.34,-4.97l1.63 8.3zm0.54 -0.65l-8.46 0 0 0 0 -0.35 0.02 -0.33 0.04 -0.34 0.05 -0.35 0.07 -0.33 0.08 -0.32 0.09 -0.33 0.11 -0.31 0.12 -0.32 0.13 -0.3 0.14 -0.3 0.17 -0.29 0.16 -0.28 0.18 -0.28 0.2 -0.27 0.2 -0.26 0.22 -0.25 0.23 -0.25 0.23 -0.23 0.25 -0.22 0.26 -0.21 0.26 -0.2 0.27 -0.19 0.28 -0.18 0.3 -0.17 0.3 -0.15 0.3 -0.14 0.32 -0.13 0.31 -0.11 0.33 -0.1 0.33 -0.09 0.34 -0.07 1.63 8.3 0.02 0 0.03 -0.01 0.03 0 0.01 -0.01 0.03 -0.01 0.03 -0.02 0.02 -0.01 0.03 -0.01 0.03 -0.02 0.02 -0.02 0.02 -0.01 0.03 -0.03 0.02 -0.01 0.02 -0.03 0.03 -0.02 0.02 -0.02 0.01 -0.02 0.02 -0.04 0.02 -0.02 0.01 -0.02 0.02 -0.04 0.01 -0.02 0.01 -0.02 0.02 -0.03 0.01 -0.03 0.01 -0.03 0 -0.03 0 -0.02 0.01 -0.04 0 -0.02 0 -0.02 0 -0.02 0 0zm0 0c0,2.33 -1.89,4.23 -4.23,4.23 -2.34,0 -4.23,-1.9 -4.23,-4.23l8.46 0zm-8.46 19.14l0 -19.14 8.46 0 0 19.14 0 0 -8.46 0zm8.46 0c0,2.34 -1.89,4.24 -4.23,4.24 -2.34,0 -4.23,-1.9 -4.23,-4.24l8.46 0zm-0.54 -0.65l-1.63 8.31 0 0 -0.34 -0.08 -0.33 -0.09 -0.33 -0.1 -0.32 -0.11 -0.31 -0.13 -0.31 -0.14 -0.29 -0.16 -0.29 -0.16 -0.28 -0.18 -0.28 -0.19 -0.26 -0.2 -0.26 -0.21 -0.25 -0.23 -0.23 -0.22 -0.23 -0.24 -0.22 -0.26 -0.2 -0.26 -0.2 -0.27 -0.18 -0.27 -0.17 -0.29 -0.16 -0.29 -0.14 -0.3 -0.13 -0.3 -0.12 -0.32 -0.11 -0.32 -0.09 -0.32 -0.08 -0.32 -0.07 -0.33 -0.05 -0.35 -0.04 -0.34 -0.02 -0.33 0 -0.35 8.46 0 0 -0.02 0 -0.02 0 -0.02 -0.01 -0.04 0 -0.02 0 -0.02 -0.01 -0.03 -0.01 -0.03 -0.02 -0.04 -0.01 -0.02 -0.01 -0.02 -0.01 -0.03 -0.02 -0.03 -0.02 -0.02 -0.01 -0.03 -0.02 -0.03 -0.03 -0.02 -0.02 -0.02 -0.01 -0.02 -0.03 -0.02 -0.03 -0.03 -0.02 -0.01 -0.03 -0.02 -0.02 -0.02 -0.02 -0.01 -0.03 -0.01 -0.03 -0.02 -0.02 0 -0.03 -0.01 -0.02 -0.01 -0.03 -0.01 -0.02 0 0 0zm0 0c2.3,0.45 3.79,2.68 3.34,4.97 -0.45,2.29 -2.68,3.79 -4.97,3.34l1.63 -8.31zm8.7 10.34l-10.33 -2.03 1.63 -8.31 10.34 2.03 3.09 2.54 -4.73 5.77zm1.64 -8.31c2.29,0.46 3.78,2.68 3.33,4.98 -0.45,2.29 -2.68,3.78 -4.97,3.33l1.64 -8.31zm2.71 23.75l-7.44 -17.97 7.82 -3.24 7.44 17.97 -0.39 3.98 -7.43 -0.74zm7.82 -3.24c0.9,2.16 -0.13,4.64 -2.29,5.53 -2.16,0.9 -4.63,-0.13 -5.53,-2.29l7.82 -3.24zm-13.29 8.01l5.87 -8.75 7.03 4.72 -5.87 8.75 0 0 -7.03 -4.72zm7.03 4.72c-1.3,1.94 -3.93,2.46 -5.87,1.16 -1.94,-1.31 -2.46,-3.94 -1.16,-5.88l7.03 4.72zm-0.08 -0.85l-5.99 5.99 0 0 -0.23 -0.25 -0.23 -0.26 -0.22 -0.26 -0.2 -0.27 -0.18 -0.29 -0.18 -0.29 -0.16 -0.29 -0.15 -0.3 -0.14 -0.31 -0.12 -0.3 -0.11 -0.32 -0.09 -0.32 -0.08 -0.32 -0.07 -0.32 -0.06 -0.33 -0.03 -0.33 -0.03 -0.33 -0.01 -0.33 0 -0.33 0.02 -0.33 0.03 -0.33 0.05 -0.33 0.06 -0.33 0.07 -0.32 0.09 -0.33 0.1 -0.32 0.12 -0.32 0.13 -0.31 0.14 -0.3 0.16 -0.31 0.18 -0.29 0.18 -0.29 7.03 4.72 0.02 -0.02 0.01 -0.02 0.01 -0.03 0.01 -0.02 0.01 -0.02 0.01 -0.03 0.01 -0.03 0.01 -0.03 0 -0.02 0.01 -0.04 0.01 -0.03 0 -0.03 0 -0.03 0 -0.03 0 -0.03 0 -0.03 -0.01 -0.03 0 -0.03 -0.01 -0.03 -0.01 -0.03 -0.01 -0.03 -0.01 -0.03 -0.01 -0.03 -0.01 -0.03 -0.01 -0.02 -0.02 -0.03 -0.01 -0.02 -0.02 -0.03 -0.01 -0.02 -0.02 -0.01 -0.02 -0.03 -0.01 -0.01 0 0zm0 0c1.65,1.65 1.65,4.33 0,5.99 -1.65,1.65 -4.33,1.65 -5.99,0l5.99 -5.99zm7.55 19.53l-13.54 -13.54 5.99 -5.99 13.54 13.54 0 0 -5.99 5.99zm5.99 -5.99c1.65,1.65 1.65,4.33 0,5.99 -1.65,1.65 -4.33,1.65 -5.99,0l5.99 -5.99zm-0.85 -0.09l4.72 7.04 0 0 -0.29 0.18 -0.3 0.18 -0.3 0.15 -0.3 0.15 -0.31 0.13 -0.32 0.12 -0.32 0.1 -0.32 0.09 -0.33 0.07 -0.33 0.06 -0.33 0.05 -0.34 0.03 -0.32 0.01 -0.32 0.01 -0.34 -0.01 -0.34 -0.03 -0.32 -0.04 -0.33 -0.05 -0.32 -0.07 -0.33 -0.08 -0.31 -0.09 -0.31 -0.11 -0.31 -0.12 -0.32 -0.14 -0.29 -0.15 -0.29 -0.16 -0.29 -0.18 -0.29 -0.19 -0.27 -0.2 -0.26 -0.21 -0.26 -0.23 -0.25 -0.23 5.99 -5.99 -0.01 -0.02 -0.02 -0.01 -0.02 -0.02 -0.02 -0.01 -0.03 -0.02 -0.03 -0.02 -0.01 -0.01 -0.03 -0.01 -0.04 -0.02 -0.03 -0.01 -0.02 -0.01 -0.03 0 -0.03 -0.01 -0.03 -0.01 -0.03 0 -0.03 -0.01 -0.03 0 -0.04 0 -0.03 0 -0.02 0 -0.03 0 -0.03 0.01 -0.04 0 -0.03 0.01 -0.02 0.01 -0.03 0.01 -0.03 0.01 -0.02 0.01 -0.03 0.01 -0.02 0.01 -0.02 0.01 -0.02 0.02 0 -0.01zm0 0.01c1.94,-1.31 4.57,-0.79 5.88,1.15 1.3,1.94 0.78,4.58 -1.16,5.88l-4.72 -7.03zm13.47 1.16l-8.75 5.87 -4.72 -7.04 8.75 -5.86 3.98 -0.4 0.74 7.43zm-4.72 -7.03c1.94,-1.3 4.57,-0.79 5.88,1.16 1.3,1.94 0.78,4.57 -1.16,5.87l-4.72 -7.03zm18.71 14.87l-17.97 -7.44 3.24 -7.83 17.97 7.45 2.54 3.09 -5.78 4.73zm3.24 -7.82c2.16,0.89 3.19,3.37 2.29,5.53 -0.89,2.16 -3.37,3.19 -5.53,2.29l3.24 -7.82zm-3.74 15.06l-2.03 -10.33 8.31 -1.64 2.03 10.33 0 0.01 -8.31 1.63zm8.31 -1.64c0.45,2.3 -1.04,4.53 -3.33,4.98 -2.3,0.45 -4.52,-1.04 -4.98,-3.34l8.31 -1.64zm-0.66 -0.54l0 8.47 0 0 -0.34 0 -0.34 -0.03 -0.33 -0.03 -0.35 -0.06 -0.33 -0.06 -0.32 -0.08 -0.33 -0.09 -0.31 -0.11 -0.32 -0.12 -0.3 -0.13 -0.3 -0.15 -0.29 -0.16 -0.29 -0.17 -0.27 -0.18 -0.27 -0.19 -0.26 -0.2 -0.26 -0.22 -0.23 -0.22 -0.23 -0.24 -0.23 -0.25 -0.21 -0.26 -0.2 -0.26 -0.19 -0.27 -0.18 -0.29 -0.16 -0.29 -0.16 -0.3 -0.14 -0.3 -0.13 -0.32 -0.11 -0.31 -0.1 -0.33 -0.09 -0.33 -0.08 -0.34 8.31 -1.63 0 -0.02 -0.01 -0.04 -0.01 -0.02 0 -0.02 -0.02 -0.03 -0.01 -0.02 -0.01 -0.03 -0.01 -0.02 -0.02 -0.03 -0.02 -0.03 -0.02 -0.02 -0.01 -0.02 -0.03 -0.03 -0.02 -0.02 -0.02 -0.01 -0.03 -0.03 -0.02 -0.02 -0.03 -0.02 -0.02 -0.01 -0.03 -0.02 -0.03 -0.01 -0.02 -0.01 -0.02 -0.02 -0.04 -0.01 -0.02 -0.01 -0.03 -0.01 -0.03 0 -0.02 -0.01 -0.04 0 -0.02 0 -0.02 -0.01 -0.03 0 0 0zm0 0c2.34,0 4.24,1.9 4.24,4.24 0,2.34 -1.9,4.23 -4.24,4.23l0 -8.47zm19.15 8.47l-19.15 0 0 -8.47 19.15 0 0 0 0 8.47zm0 -8.47c2.34,0 4.24,1.9 4.24,4.24 0,2.34 -1.9,4.23 -4.24,4.23l0 -8.47zm-0.65 0.54l8.3 1.64 0 0 -0.07 0.34 -0.09 0.33 -0.1 0.33 -0.11 0.31 -0.13 0.32 -0.14 0.3 -0.16 0.3 -0.16 0.29 -0.18 0.29 -0.19 0.27 -0.2 0.26 -0.21 0.26 -0.23 0.25 -0.23 0.24 -0.24 0.22 -0.25 0.22 -0.26 0.2 -0.27 0.19 -0.28 0.19 -0.28 0.16 -0.29 0.16 -0.3 0.15 -0.3 0.13 -0.32 0.12 -0.32 0.11 -0.32 0.09 -0.32 0.08 -0.33 0.06 -0.35 0.06 -0.34 0.03 -0.33 0.03 -0.35 0 0 -8.47 -0.02 0 -0.02 0.01 -0.02 0 -0.04 0 -0.03 0.01 -0.02 0 -0.03 0.01 -0.03 0.01 -0.03 0.01 -0.02 0.02 -0.03 0.01 -0.03 0.02 -0.02 0.01 -0.03 0.01 -0.02 0.02 -0.03 0.02 -0.02 0.03 -0.02 0.01 -0.02 0.02 -0.03 0.03 -0.02 0.03 -0.01 0.01 -0.02 0.03 -0.02 0.03 -0.01 0.02 -0.01 0.03 -0.02 0.02 -0.01 0.03 -0.01 0.02 0 0.02 -0.01 0.04 0 0.02 0 -0.01zm0 0.01c0.45,-2.3 2.67,-3.79 4.97,-3.34 2.29,0.45 3.79,2.68 3.33,4.97l-8.3 -1.63zm10.34 -8.7l-2.04 10.33 -8.3 -1.64 2.03 -10.33 2.54 -3.09 5.77 4.73zm-8.31 -1.64c0.45,-2.29 2.68,-3.79 4.98,-3.33 2.29,0.45 3.78,2.68 3.33,4.97l-8.31 -1.64zm23.75 -2.71l-17.97 7.44 -3.24 -7.82 17.97 -7.45 3.98 0.4 -0.74 7.43zm-3.24 -7.83c2.16,-0.89 4.64,0.13 5.53,2.29 0.89,2.16 -0.13,4.64 -2.29,5.54l-3.24 -7.83zm8.01 13.3l-8.75 -5.87 4.72 -7.03 8.75 5.86 -4.72 7.04zm4.72 -7.04c1.94,1.31 2.46,3.94 1.15,5.88 -1.3,1.94 -3.93,2.46 -5.87,1.16l4.72 -7.04zm-0.85 0.09l5.99 5.99 0 0 -0.25 0.24 -0.26 0.22 -0.27 0.21 -0.27 0.21 -0.28 0.18 -0.28 0.18 -0.3 0.16 -0.3 0.15 -0.3 0.13 -0.31 0.13 -0.33 0.11 -0.31 0.09 -0.32 0.08 -0.33 0.07 -0.32 0.05 -0.33 0.04 -0.33 0.03 -0.33 0.01 -0.33 -0.01 -0.33 -0.01 -0.34 -0.03 -0.32 -0.05 -0.33 -0.06 -0.32 -0.07 -0.33 -0.09 -0.32 -0.11 -0.32 -0.11 -0.31 -0.13 -0.3 -0.15 -0.31 -0.15 -0.29 -0.18 -0.29 -0.18 4.72 -7.04 -0.02 -0.01 -0.02 -0.01 -0.03 -0.01 -0.02 -0.01 -0.02 -0.01 -0.03 -0.01 -0.03 -0.01 -0.03 -0.01 -0.03 -0.01 -0.03 0 -0.02 -0.01 -0.04 0 -0.03 0 -0.03 0 -0.03 0 -0.04 0 -0.03 0.01 -0.02 0 -0.03 0.01 -0.03 0.01 -0.03 0 -0.03 0.01 -0.03 0.02 -0.03 0.01 -0.02 0.01 -0.03 0.02 -0.03 0.01 -0.01 0.01 -0.03 0.02 -0.02 0.01 -0.01 0.02 -0.02 0.02 0 0zm0 0c1.65,-1.66 4.33,-1.65 5.99,0 1.65,1.65 1.65,4.33 0,5.99l-5.99 -5.99zm19.53 -7.55l-13.54 13.54 -5.99 -5.99 13.54 -13.54 5.99 5.99 0 0zm-5.99 -5.99c1.65,-1.65 4.33,-1.65 5.99,0 1.65,1.65 1.65,4.33 0,5.99l-5.99 -5.99zm-0.09 0.85l7.04 -4.72 0 0 0.18 0.29 0.18 0.29 0.15 0.31 0.15 0.3 0.13 0.31 0.12 0.33 0.1 0.31 0.08 0.32 0.08 0.34 0.06 0.32 0.05 0.33 0.03 0.34 0.01 0.32 0.01 0.33 -0.01 0.34 -0.03 0.32 -0.04 0.33 -0.05 0.33 -0.07 0.32 -0.08 0.32 -0.09 0.32 -0.11 0.32 -0.13 0.31 -0.13 0.3 -0.15 0.3 -0.17 0.3 -0.17 0.28 -0.18 0.28 -0.21 0.28 -0.21 0.26 -0.22 0.26 -0.24 0.25 -5.99 -5.99 -0.02 0.02 -0.02 0.02 -0.01 0.01 -0.02 0.03 -0.01 0.02 -0.01 0.02 -0.02 0.03 -0.01 0.02 -0.01 0.03 -0.02 0.03 -0.01 0.03 -0.01 0.03 0 0.03 -0.01 0.03 0 0.03 -0.01 0.03 0 0.02 0 0.04 0 0.04 0 0.02 0 0.03 0.01 0.03 0 0.03 0.01 0.04 0.01 0.02 0.01 0.02 0.01 0.04 0.01 0.02 0.01 0.02 0.01 0.03 0.01 0.02 0.01 0.02 0 0zm0 0c-1.3,-1.95 -0.78,-4.58 1.16,-5.88 1.95,-1.3 4.58,-0.78 5.88,1.16l-7.04 4.72zm1.17 -13.47l5.87 8.75 -7.04 4.72 -5.86 -8.75 -0.4 -3.98 7.43 -0.74zm-7.03 4.72c-1.3,-1.94 -0.79,-4.58 1.16,-5.88 1.94,-1.3 4.57,-0.78 5.87,1.16l-7.03 4.72zm14.87 -18.71l-7.44 17.97 -7.83 -3.24 7.45 -17.97 3.09 -2.54 4.73 5.78zm-7.82 -3.24c0.89,-2.16 3.37,-3.19 5.53,-2.29 2.16,0.89 3.19,3.37 2.29,5.53l-7.82 -3.24zm15.06 3.74l-10.33 2.03 -1.64 -8.31 10.33 -2.03 0 0 1.64 8.31zm-1.64 -8.31c2.3,-0.46 4.53,1.04 4.98,3.33 0.45,2.3 -1.04,4.52 -3.34,4.98l-1.64 -8.31zm-0.54 0.65l8.47 0 0 0 -0.01 0.35 -0.02 0.33 -0.03 0.34 -0.06 0.35 -0.06 0.33 -0.08 0.32 -0.09 0.32 -0.11 0.32 -0.12 0.32 -0.13 0.3 -0.15 0.3 -0.16 0.29 -0.17 0.29 -0.18 0.27 -0.19 0.27 -0.2 0.26 -0.22 0.26 -0.23 0.24 -0.23 0.22 -0.25 0.23 -0.25 0.21 -0.27 0.2 -0.28 0.19 -0.28 0.18 -0.29 0.17 -0.3 0.15 -0.3 0.14 -0.32 0.13 -0.32 0.11 -0.32 0.1 -0.33 0.09 -0.34 0.08 -1.64 -8.31 -0.01 0 -0.03 0.01 -0.03 0.01 -0.02 0 -0.03 0.02 -0.02 0.01 -0.02 0.01 -0.03 0.01 -0.03 0.02 -0.02 0.02 -0.03 0.02 -0.02 0.02 -0.03 0.02 -0.02 0.02 -0.02 0.02 -0.02 0.02 -0.02 0.03 -0.02 0.03 -0.01 0.02 -0.02 0.03 -0.01 0.03 -0.02 0.02 -0.01 0.02 -0.01 0.04 -0.01 0.03 -0.01 0.03 0 0.02 -0.01 0.02 0 0.04 -0.01 0.02 0 0.02 0 0.02 0 0zm0 0c0,-2.33 1.9,-4.23 4.24,-4.23 2.34,0 4.23,1.9 4.23,4.23l-8.47 0zm8.47 -19.14l0 19.14 -8.47 0 0 -19.14 0 0 8.47 0zm-8.47 0c0,-2.34 1.9,-4.24 4.24,-4.24 2.34,0 4.23,1.9 4.23,4.24l-8.47 0zm1.36 -7.73l0 8.46 0.82 -8.38 0.33 0.07 0.34 0.09 0.32 0.1 0.32 0.11 0.32 0.13 0.3 0.14 0.3 0.16 0.29 0.16 0.29 0.18 0.27 0.19 0.26 0.2 0.26 0.21 0.25 0.23 0.23 0.23 0.23 0.23 0.22 0.26 0.2 0.26 0.19 0.27 0.18 0.27 0.17 0.29 0.16 0.29 0.15 0.3 0.13 0.3 0.12 0.32 0.11 0.31 0.09 0.33 0.08 0.32 0.06 0.33 0.06 0.35 0.03 0.34 0.02 0.33 0.01 0.35 -8.47 0 0 0.02 0 0.02 0.01 0.02 0 0.04 0.01 0.02 0 0.03 0.01 0.03 0.01 0.03 0.01 0.02 0.01 0.03 0.02 0.02 0.01 0.04 0.02 0.02 0.02 0.03 0.01 0.02 0.02 0.03 0.02 0.02 0.02 0.02 0.02 0.02 0.03 0.02 0.03 0.03 0.02 0.01 0.02 0.02 0.03 0.02 0.02 0.01 0.03 0.01 0.02 0.02 0.03 0.01 0.02 0.01 0.02 0 0.03 0.01 0.02 0 0.82 -8.38zm-0.82 8.38c-2.29,-0.45 -3.78,-2.68 -3.33,-4.97 0.45,-2.29 2.68,-3.79 4.97,-3.33l-1.64 8.3zm0.82 0.08l0 0 0 -8.46 0 0 0.82 0.08 -0.82 8.38zm0 -8.46c2.34,0 4.24,1.89 4.24,4.23 0,2.34 -1.9,4.23 -4.24,4.23l0 -8.46zm-112.92 17.3l8.47 0 0 0 0.05 1.66 0.12 1.64 0.21 1.61 0.28 1.59 0.36 1.56 0.43 1.53 0.51 1.49 0.58 1.46 0.64 1.43 0.71 1.39 0.78 1.35 0.84 1.3 0.89 1.27 0.96 1.22 1.01 1.17 1.07 1.12 1.12 1.06 1.17 1.02 1.22 0.96 1.26 0.89 1.31 0.84 1.35 0.78 1.39 0.71 1.43 0.64 1.46 0.58 1.49 0.51 1.53 0.43 1.56 0.36 1.59 0.28 1.61 0.21 1.64 0.12 1.66 0.05 0 8.46 -2.09 -0.05 -2.07 -0.16 -2.03 -0.25 -2.01 -0.36 -1.97 -0.46 -1.93 -0.55 -1.89 -0.64 -1.85 -0.73 -1.81 -0.81 -1.75 -0.9 -1.7 -0.98 -1.66 -1.06 -1.59 -1.13 -1.54 -1.21 -1.47 -1.28 -1.42 -1.34 -1.34 -1.42 -1.28 -1.47 -1.21 -1.54 -1.13 -1.59 -1.06 -1.65 -0.98 -1.71 -0.9 -1.76 -0.81 -1.8 -0.73 -1.85 -0.65 -1.89 -0.54 -1.93 -0.46 -1.97 -0.36 -2.01 -0.26 -2.03 -0.15 -2.07 -0.06 -2.09 0 0zm0 0c0,-2.34 1.9,-4.23 4.24,-4.23 2.34,0 4.23,1.89 4.23,4.23l-8.47 0zm40.7 -40.69l0 8.47 0 0 -1.66 0.04 -1.64 0.12 -1.61 0.21 -1.59 0.28 -1.56 0.36 -1.53 0.43 -1.49 0.51 -1.46 0.58 -1.43 0.64 -1.39 0.71 -1.35 0.78 -1.31 0.84 -1.26 0.9 -1.22 0.95 -1.17 1.02 -1.12 1.06 -1.06 1.12 -1.02 1.17 -0.96 1.22 -0.89 1.27 -0.84 1.3 -0.78 1.35 -0.71 1.39 -0.64 1.43 -0.58 1.46 -0.51 1.5 -0.43 1.52 -0.36 1.56 -0.28 1.59 -0.21 1.61 -0.12 1.64 -0.05 1.66 -8.47 0 0.06 -2.09 0.15 -2.06 0.26 -2.04 0.36 -2.01 0.46 -1.97 0.55 -1.93 0.64 -1.89 0.73 -1.85 0.81 -1.8 0.9 -1.76 0.98 -1.7 1.06 -1.65 1.13 -1.6 1.21 -1.54 1.28 -1.47 1.34 -1.41 1.42 -1.35 1.47 -1.28 1.54 -1.21 1.59 -1.13 1.65 -1.06 1.71 -0.98 1.75 -0.9 1.81 -0.81 1.85 -0.73 1.89 -0.64 1.93 -0.55 1.97 -0.46 2.01 -0.35 2.03 -0.26 2.07 -0.16 2.09 -0.05 0 0zm0 0c2.34,0 4.23,1.89 4.23,4.23 0,2.34 -1.89,4.24 -4.23,4.24l0 -8.47zm40.69 40.69l-8.47 0 0 0 -0.04 -1.66 -0.12 -1.64 -0.21 -1.61 -0.28 -1.59 -0.36 -1.56 -0.43 -1.52 -0.51 -1.5 -0.58 -1.46 -0.64 -1.43 -0.71 -1.39 -0.78 -1.35 -0.84 -1.3 -0.9 -1.27 -0.95 -1.22 -1.02 -1.17 -1.06 -1.11 -1.13 -1.07 -1.16 -1.02 -1.22 -0.95 -1.27 -0.9 -1.3 -0.84 -1.35 -0.78 -1.39 -0.71 -1.43 -0.64 -1.46 -0.58 -1.5 -0.51 -1.52 -0.43 -1.56 -0.36 -1.59 -0.28 -1.61 -0.21 -1.64 -0.12 -1.66 -0.04 0 -8.47 2.09 0.05 2.06 0.16 2.04 0.26 2.01 0.35 1.97 0.46 1.93 0.55 1.89 0.64 1.85 0.73 1.8 0.81 1.76 0.9 1.7 0.98 1.65 1.06 1.6 1.13 1.54 1.21 1.47 1.28 1.41 1.35 1.35 1.41 1.28 1.47 1.21 1.54 1.13 1.6 1.06 1.65 0.98 1.7 0.9 1.76 0.81 1.8 0.73 1.85 0.64 1.89 0.55 1.93 0.46 1.97 0.35 2.01 0.26 2.04 0.16 2.06 0.05 2.09 0 0zm0 0c0,2.34 -1.89,4.23 -4.23,4.23 -2.34,0 -4.24,-1.89 -4.24,-4.23l8.47 0zm-40.69 40.69l0 -8.46 0 0 1.66 -0.05 1.64 -0.12 1.61 -0.21 1.59 -0.28 1.56 -0.36 1.52 -0.43 1.5 -0.51 1.46 -0.58 1.43 -0.64 1.39 -0.71 1.35 -0.78 1.3 -0.84 1.27 -0.89 1.22 -0.96 1.16 -1.02 1.13 -1.06 1.06 -1.12 1.02 -1.17 0.95 -1.22 0.9 -1.27 0.84 -1.3 0.78 -1.35 0.71 -1.39 0.64 -1.43 0.58 -1.46 0.51 -1.5 0.43 -1.52 0.36 -1.56 0.28 -1.59 0.21 -1.61 0.12 -1.64 0.04 -1.66 8.47 0 -0.05 2.09 -0.16 2.07 -0.26 2.03 -0.35 2.01 -0.46 1.97 -0.55 1.93 -0.64 1.89 -0.73 1.85 -0.81 1.8 -0.9 1.76 -0.98 1.7 -1.06 1.66 -1.13 1.59 -1.21 1.54 -1.28 1.47 -1.35 1.41 -1.41 1.35 -1.47 1.28 -1.54 1.21 -1.6 1.13 -1.65 1.06 -1.7 0.98 -1.76 0.9 -1.8 0.81 -1.85 0.73 -1.89 0.64 -1.93 0.55 -1.97 0.46 -2.01 0.36 -2.04 0.25 -2.06 0.16 -2.09 0.05 0 0zm0 0c-2.34,0 -4.24,-1.89 -4.24,-4.23 0,-2.34 1.9,-4.23 4.24,-4.23l0 8.46z"/>
   </g>
   <path class="fil2" d="M115.3 78.25c-2.13,0 -4.22,-1.18 -5.24,-3.23 -1.46,-2.9 -0.3,-6.44 2.59,-7.9 3.1,-1.56 6.33,-3 9.56,-4.26 3.03,-1.18 6.43,0.31 7.62,3.33 1.17,3.03 -0.32,6.44 -3.35,7.62 -2.88,1.13 -5.76,2.41 -8.52,3.81 -0.87,0.43 -1.76,0.63 -2.66,0.63l0 0zm-31.77 24.72c-1.36,0 -2.73,-0.47 -3.85,-1.44 -2.43,-2.13 -2.7,-5.85 -0.57,-8.3 2.63,-3.02 5.44,-5.93 8.37,-8.64 2.39,-2.21 6.11,-2.06 8.32,0.32 2.21,2.39 2.07,6.11 -0.32,8.31 -2.63,2.43 -5.14,5.03 -7.5,7.73 -1.17,1.34 -2.78,2.02 -4.45,2.02l0 0zm-21.21 38.23c-0.55,0 -1.14,-0.08 -1.71,-0.26 -3.11,-0.95 -4.85,-4.24 -3.9,-7.35 1.36,-4.44 3.03,-8.85 4.94,-13.1 1.34,-2.96 4.82,-4.28 7.77,-2.95 2.96,1.34 4.3,4.82 2.96,7.78 -1.71,3.8 -3.2,7.75 -4.42,11.72 -0.77,2.53 -3.11,4.16 -5.64,4.16l0 0zm100.3 135.49c29.59,0 57.38,-11.52 78.3,-32.43 20.91,-20.92 32.41,-48.72 32.41,-78.3 0,-45.45 -27.55,-85.91 -69.25,-102.71l8.37 -3.39c3,-1.22 4.47,-4.65 3.25,-7.66 -1.21,-3.01 -4.64,-4.46 -7.67,-3.24l-23.5 9.51c-1.64,0.67 -2.88,2.02 -3.4,3.71 -0.53,1.69 -0.28,3.51 0.72,4.98l13.96 21.16c1.79,2.71 5.44,3.45 8.14,1.66 2.71,-1.79 3.46,-5.44 1.67,-8.15l-4.72 -7.17c36.59,15.3 60.68,51.12 60.68,91.3 0,54.57 -44.39,98.97 -98.96,98.97 -54.57,0 -98.96,-44.4 -98.96,-98.97 0,-3.25 -2.63,-5.88 -5.89,-5.88 -3.25,0 -5.88,2.63 -5.88,5.88 0,29.58 11.52,57.38 32.44,78.3 20.91,20.91 48.71,32.43 78.29,32.43l0 0z"/>
  </g>
 </g>
</svg>
