<?xml version="1.0" encoding="UTF-8"?>
<!DOCTYPE svg PUBLIC "-//W3C//DTD SVG 1.1//EN" "http://www.w3.org/Graphics/SVG/1.1/DTD/svg11.dtd">
<!-- Creator: CorelDRAW 2019 (64-Bit) -->
<svg xmlns="http://www.w3.org/2000/svg" xml:space="preserve" width="640px" height="640px" version="1.1" style="shape-rendering:geometricPrecision; text-rendering:geometricPrecision; image-rendering:optimizeQuality; fill-rule:evenodd; clip-rule:evenodd"
viewBox="0 0 50.62 50.62"
 xmlns:xlink="http://www.w3.org/1999/xlink">
 <defs>
  <style type="text/css">
   <![CDATA[
    .fil0 {fill:none}
    .fil1 {fill:#0A2155}
    .fil2 {fill:#FFC221}
   ]]>
  </style>
 </defs>
 <g id="Layer_x0020_1">
  <metadata id="CorelCorpID_0Corel-Layer"/>
  <rect class="fil0" width="50.62" height="50.62"/>
  <g id="_2356623975824">
   <path class="fil1" d="M40.3 17.91c-1.74,0 -3.15,1.48 -3.15,3.29l0 7.31c-1.13,-0.42 -2.46,-0.11 -3.3,0.8 0,0 -7.02,7.44 -7.02,7.44 -0.63,0.66 -1.14,1.42 -1.52,2.24 -0.38,-0.82 -0.88,-1.58 -1.51,-2.24l-7.03 -7.44c-0.83,-0.91 -2.16,-1.22 -3.3,-0.8 0,0 0,-7.31 0,-7.31 -0.17,-4.35 -6.11,-4.36 -6.29,0 0,0 0,12.56 0,12.56 0,1.7 0.62,3.3 1.75,4.52 0,0 5.06,5.44 5.06,5.44 0.73,0.72 1.82,-0.27 1.14,-1.07 0,0 -5.06,-5.44 -5.06,-5.44 -0.86,-0.92 -1.33,-2.15 -1.33,-3.45l0 -12.56c0,-0.95 0.71,-1.73 1.59,-1.73 0.87,0 1.58,0.78 1.58,1.73l0 8.58c-0.83,1.29 -0.69,3.03 0.37,4.15l5.23 5.54c0.3,0.31 0.79,0.32 1.1,0.03 0.32,-0.3 0.33,-0.79 0.03,-1.1l-5.22 -5.54c-0.98,-1.02 -0.38,-2.96 1.11,-2.97 0.41,0 0.81,0.17 1.11,0.49l7.02 7.44c1.14,1.2 1.79,2.78 1.87,4.47 0,0.15 -0.02,0.3 0.01,0.44 0,0 -0.01,0.45 -0.01,0.45 0.03,1.03 1.51,1.05 1.56,0.02 0,-0.22 0.02,-0.7 0,-0.91 0.08,-1.69 0.74,-3.27 1.87,-4.47l7.03 -7.44c0.3,-0.32 0.69,-0.49 1.11,-0.49 1.48,0.01 2.08,1.95 1.11,2.97 0,0 -5.23,5.54 -5.23,5.54 -0.3,0.31 -0.28,0.8 0.03,1.1 0.32,0.29 0.81,0.28 1.11,-0.03 0,0 5.22,-5.54 5.22,-5.54 1.06,-1.12 1.2,-2.86 0.37,-4.15 0,0 0,-8.58 0,-8.58 0,-0.95 0.71,-1.73 1.59,-1.73 0.87,0 1.58,0.78 1.58,1.73l0 12.56c0,1.3 -0.47,2.53 -1.33,3.45l-5.06 5.45c-0.29,0.31 -0.28,0.8 0.04,1.1 0.31,0.29 0.81,0.27 1.1,-0.04 0,0 5.06,-5.44 5.06,-5.44 1.13,-1.22 1.75,-2.82 1.75,-4.52l0 -12.56c0,-1.81 -1.41,-3.29 -3.14,-3.29z"/>
   <path class="fil2" d="M25.35 26.14c-0.18,0 -0.37,-0.07 -0.51,-0.19 -0.87,-0.76 -1.69,-1.45 -2.48,-2.12 -4.53,-3.82 -7.52,-6.35 -7.52,-10.05 0,-1.59 0.56,-3.1 1.57,-4.25 1.07,-1.21 2.53,-1.88 4.11,-1.88 1.76,0 3.31,0.87 4.46,2.49 0.15,0.22 0.29,0.44 0.41,0.65 0.11,-0.21 0.24,-0.42 0.38,-0.63 1.11,-1.64 2.64,-2.51 4.41,-2.51 3.14,0 5.61,2.7 5.61,6.13 0,3.73 -3.03,6.29 -7.6,10.18 -0.75,0.63 -1.52,1.28 -2.33,1.99 -0.15,0.12 -0.33,0.19 -0.51,0.19zm-4.83 -16.93c-2.31,0 -4.12,2.01 -4.12,4.57 0,2.98 2.77,5.32 6.97,8.86 0.63,0.54 1.29,1.1 1.98,1.69 0.63,-0.55 1.24,-1.06 1.83,-1.56 4.39,-3.73 7.05,-5.98 7.05,-8.99 0,-2.24 -1.52,-4.57 -4.05,-4.57 -1.24,0 -2.28,0.6 -3.09,1.79 -0.66,0.95 -0.92,1.94 -0.92,1.95 -0.09,0.34 -0.4,0.58 -0.75,0.58 0,0 -0.01,0 -0.01,0 -0.35,0 -0.66,-0.23 -0.75,-0.56 0,-0.01 -0.29,-1 -0.98,-1.96 -0.86,-1.19 -1.92,-1.8 -3.16,-1.8z"/>
  </g>
 </g>
</svg>
