<?xml version="1.0" encoding="UTF-8"?>
<!DOCTYPE svg PUBLIC "-//W3C//DTD SVG 1.1//EN" "http://www.w3.org/Graphics/SVG/1.1/DTD/svg11.dtd">
<!-- Creator: CorelDRAW 2019 (64-Bit) -->
<svg xmlns="http://www.w3.org/2000/svg" xml:space="preserve" width="640px" height="640px" version="1.1" style="shape-rendering:geometricPrecision; text-rendering:geometricPrecision; image-rendering:optimizeQuality; fill-rule:evenodd; clip-rule:evenodd"
viewBox="0 0 62.37 62.37"
 xmlns:xlink="http://www.w3.org/1999/xlink">
 <defs>
  <style type="text/css">
   <![CDATA[
    .fil2 {fill:none}
    .fil1 {fill:#0A2155}
    .fil0 {fill:#FFC221}
   ]]>
  </style>
 </defs>
 <g id="Layer_x0020_1">
  <metadata id="CorelCorpID_0Corel-Layer"/>
  <g id="shopping-cart.svg">
   <g>
    <polygon class="fil0" points="52.06,31.01 52.56,28.85 46.56,28.85 46.27,31.01 "/>
    <polygon class="fil0" points="44.09,31.01 44.38,28.85 37.88,28.85 37.88,31.01 "/>
    <polygon class="fil0" points="27.31,31.01 27.02,28.85 20.4,28.85 20.98,31.01 "/>
    <polygon class="fil0" points="35.72,31.01 35.72,28.85 29.2,28.85 29.49,31.01 "/>
    <path class="fil1" d="M55.78 20.16c-0.5,-0.63 -1.24,-0.99 -2.04,-0.99l-35.99 -0.14 -1.86 -6.91c-0.38,-1.39 -1.65,-2.36 -3.09,-2.36l-5.7 0c-0.59,0 -1.08,0.48 -1.08,1.08 0,0.6 0.49,1.08 1.08,1.08l5.7 0c0.47,0 0.88,0.32 1,0.77l6.88 25.51c0.03,0.11 0.07,0.22 0.11,0.33l-0.39 0c-1.15,0 -2.23,0.45 -3.04,1.27 -0.82,0.83 -1.25,1.92 -1.23,3.07 0.04,2.31 1.95,4.19 4.26,4.19l2.91 0c-0.51,0.77 -0.81,1.68 -0.81,2.67 0,2.66 2.17,4.83 4.83,4.83 2.66,0 4.83,-2.17 4.83,-4.83 0,-0.99 -0.3,-1.9 -0.81,-2.67l10.91 0c-0.51,0.77 -0.81,1.68 -0.81,2.67 0,2.66 2.17,4.83 4.83,4.83 2.67,0 4.83,-2.17 4.83,-4.83 0,-0.99 -0.29,-1.9 -0.8,-2.67l0.2 0c0.59,0 1.08,-0.48 1.08,-1.08 0,-0.6 -0.49,-1.08 -1.08,-1.08l-30.11 0c-1.14,0 -2.08,-0.93 -2.1,-2.07 -0.01,-0.57 0.21,-1.1 0.61,-1.51 0.4,-0.4 0.93,-0.63 1.5,-0.63l29 0.01c1.56,0 2.89,-1.05 3.24,-2.57l3.64 -15.76c0.18,-0.78 0,-1.58 -0.5,-2.21zm-25.79 29.57c0,1.47 -1.2,2.67 -2.67,2.67 -1.47,0 -2.67,-1.2 -2.67,-2.67 0,-1.47 1.2,-2.67 2.67,-2.67l0 0c1.47,0 2.67,1.2 2.67,2.67zm18.95 0c0,1.47 -1.2,2.67 -2.67,2.67 -1.47,0 -2.67,-1.2 -2.67,-2.67 0,-1.46 1.18,-2.65 2.64,-2.67l0.07 0c1.45,0.02 2.63,1.21 2.63,2.67zm-11.06 -11.19l0 -17.27 7.49 0.03 -2.27 17.24 -5.22 0zm-7.39 0l-2.3 -17.31 7.53 0.03 0 17.28 -5.23 0zm-7.72 -0.9l-4.44 -16.45 7.68 0.03 2.3 17.32 -4.35 0 -0.01 0c-0.55,0 -1.04,-0.37 -1.18,-0.9zm31.4 -15.76l-3.64 15.76c-0.12,0.53 -0.59,0.9 -1.13,0.9l-4.12 0 2.27 -17.23 6.19 0.02c0.18,0 0.3,0.11 0.35,0.17 0.05,0.07 0.12,0.2 0.08,0.38z"/>
   </g>
  </g>
  <rect class="fil2" width="62.37" height="62.37"/>
 </g>
</svg>
