<?xml version="1.0" encoding="UTF-8"?>
<!DOCTYPE svg PUBLIC "-//W3C//DTD SVG 1.1//EN" "http://www.w3.org/Graphics/SVG/1.1/DTD/svg11.dtd">
<!-- Creator: CorelDRAW 2019 (64-Bit) -->
<svg xmlns="http://www.w3.org/2000/svg" xml:space="preserve" width="640px" height="640px" version="1.1" style="shape-rendering:geometricPrecision; text-rendering:geometricPrecision; image-rendering:optimizeQuality; fill-rule:evenodd; clip-rule:evenodd"
viewBox="0 0 71.68 71.68"
 xmlns:xlink="http://www.w3.org/1999/xlink">
 <defs>
  <style type="text/css">
   <![CDATA[
    .fil0 {fill:none}
    .fil3 {fill:#0A2155}
    .fil4 {fill:#FFC221}
    .fil2 {fill:#0A2155;fill-rule:nonzero}
    .fil1 {fill:#FFC221;fill-rule:nonzero}
   ]]>
  </style>
 </defs>
 <g id="Layer_x0020_1">
  <metadata id="CorelCorpID_0Corel-Layer"/>
  <rect class="fil0" width="71.68" height="71.68"/>
  <path class="fil1" d="M54.21 46.84c0.79,-0.07 1.49,0.5 1.56,1.29 0.07,0.79 -0.5,1.49 -1.29,1.56 -1.61,0.15 -3.05,0.91 -4.09,2.05 -1.02,1.13 -1.64,2.62 -1.64,4.27l0 8.28c0,0.32 0.12,0.61 0.33,0.82 0.21,0.21 0.5,0.33 0.82,0.33l17.76 0c0.32,0 0.61,-0.13 0.81,-0.33l0.06 -0.05c0.17,-0.21 0.28,-0.47 0.28,-0.77l0 -8.28c0,-1.65 -0.62,-3.14 -1.64,-4.27 -1.04,-1.14 -2.48,-1.9 -4.1,-2.05 -0.78,-0.07 -1.36,-0.77 -1.29,-1.55 0.07,-0.79 0.77,-1.37 1.55,-1.3 2.36,0.22 4.45,1.32 5.95,2.97 1.49,1.64 2.4,3.81 2.4,6.2l0 8.28c0,1.06 -0.41,2.02 -1.09,2.75l-0.09 0.1c-0.72,0.72 -1.73,1.17 -2.84,1.17l-17.76 0c-1.11,0 -2.11,-0.45 -2.84,-1.17l-0.01 -0.01c-0.72,-0.73 -1.18,-1.73 -1.18,-2.84l0 -8.28c0,-2.38 0.91,-4.56 2.4,-6.19 1.5,-1.65 3.59,-2.76 5.94,-2.98z"/>
  <path class="fil1" d="M68.9 40.76c0,2.8 -1.13,5.33 -2.96,7.16 -1.83,1.84 -4.37,2.97 -7.16,2.97 -2.8,0 -5.33,-1.13 -7.16,-2.97 -1.83,-1.83 -2.97,-4.36 -2.97,-7.16 0,-2.79 1.14,-5.32 2.97,-7.16 1.83,-1.83 4.36,-2.96 7.16,-2.96 2.79,0 5.33,1.13 7.16,2.96 1.83,1.84 2.96,4.37 2.96,7.16zm-4.99 5.13c1.31,-1.31 2.12,-3.12 2.12,-5.13 0,-2 -0.81,-3.81 -2.12,-5.13 -1.31,-1.31 -3.13,-2.12 -5.13,-2.12 -2,0 -3.82,0.81 -5.13,2.12 -1.31,1.32 -2.13,3.13 -2.13,5.13 0,2.01 0.82,3.82 2.13,5.13 1.31,1.32 3.13,2.13 5.13,2.13 2,0 3.82,-0.81 5.13,-2.13z"/>
  <path class="fil1" d="M8.34 46.84c0.78,-0.07 1.48,0.5 1.56,1.29 0.07,0.79 -0.51,1.49 -1.29,1.56 -1.62,0.15 -3.06,0.92 -4.09,2.05 -1.03,1.13 -1.65,2.62 -1.65,4.27l0 8.28c0,0.32 0.13,0.61 0.33,0.82l0.01 0 0 0c0.21,0.2 0.5,0.33 0.82,0.33l17.75 0c0.32,0 0.61,-0.13 0.82,-0.33 0.21,-0.21 0.34,-0.5 0.34,-0.82l0 -8.28c0,-1.65 -0.63,-3.14 -1.65,-4.27 -1.04,-1.14 -2.48,-1.9 -4.09,-2.05 -0.79,-0.07 -1.37,-0.77 -1.3,-1.55 0.08,-0.79 0.77,-1.37 1.56,-1.3 2.35,0.22 4.45,1.32 5.95,2.97 1.49,1.64 2.4,3.81 2.4,6.2l0 8.28c0,1.11 -0.45,2.12 -1.18,2.85 -0.73,0.72 -1.74,1.17 -2.85,1.17l-17.75 0c-1.12,0 -2.12,-0.45 -2.85,-1.17l0 -0.01c-0.73,-0.73 -1.18,-1.73 -1.18,-2.84l0 -8.28c0,-2.38 0.91,-4.56 2.4,-6.19 1.49,-1.65 3.59,-2.76 5.94,-2.98z"/>
  <path class="fil1" d="M23.03 40.76c0,2.8 -1.13,5.33 -2.97,7.16 -1.83,1.84 -4.36,2.97 -7.16,2.97 -2.79,0 -5.32,-1.13 -7.16,-2.97 -1.83,-1.83 -2.96,-4.36 -2.96,-7.16 0,-2.79 1.13,-5.32 2.96,-7.16 1.84,-1.83 4.37,-2.96 7.16,-2.96 2.8,0 5.33,1.13 7.16,2.96 1.84,1.84 2.97,4.37 2.97,7.16zm-5 5.13c1.32,-1.31 2.13,-3.12 2.13,-5.13 0,-2 -0.81,-3.81 -2.13,-5.13 -1.31,-1.31 -3.12,-2.12 -5.13,-2.12 -2,0 -3.81,0.81 -5.13,2.12 -1.31,1.32 -2.12,3.13 -2.12,5.13 0,2.01 0.81,3.82 2.12,5.13 1.32,1.32 3.13,2.13 5.13,2.13 2.01,0 3.82,-0.81 5.13,-2.13z"/>
 </g>
 <g id="Layer_x0020_3">
  <metadata id="CorelCorpID_1Corel-Layer"/>
  <g id="_2494567842128">
   <path class="fil2" d="M31.27 41.28c0.79,-0.08 1.49,0.5 1.56,1.29 0.08,0.78 -0.5,1.48 -1.29,1.56 -1.61,0.15 -3.05,0.91 -4.09,2.05 -1.02,1.12 -1.64,2.62 -1.64,4.26l0 8.28c0,0.33 0.13,0.62 0.33,0.82l0.01 0c0.2,0.21 0.49,0.34 0.81,0.34l17.76 0c0.32,0 0.61,-0.13 0.82,-0.33l0 -0.01 0 0c0.21,-0.21 0.33,-0.5 0.33,-0.82l0 -8.28c0,-1.64 -0.62,-3.14 -1.64,-4.26 -1.04,-1.14 -2.48,-1.9 -4.09,-2.06 -0.79,-0.07 -1.37,-0.76 -1.3,-1.55 0.07,-0.79 0.77,-1.37 1.56,-1.29 2.35,0.22 4.45,1.32 5.95,2.97 1.49,1.64 2.4,3.81 2.4,6.19l0 8.28c0,1.12 -0.46,2.12 -1.18,2.85l-0.01 0c-0.73,0.73 -1.73,1.18 -2.84,1.18l-17.76 0c-1.11,0 -2.12,-0.45 -2.84,-1.18l0 0 0 0c-0.73,-0.73 -1.18,-1.74 -1.18,-2.85l0 -8.28c0,-2.38 0.9,-4.55 2.39,-6.19 1.5,-1.65 3.59,-2.75 5.94,-2.97z"/>
   <path class="fil2" d="M45.97 35.2c0,2.79 -1.14,5.33 -2.97,7.16 -1.83,1.83 -4.36,2.96 -7.16,2.96 -2.79,0 -5.33,-1.13 -7.16,-2.96 -1.83,-1.83 -2.96,-4.37 -2.96,-7.16 0,-2.8 1.13,-5.33 2.96,-7.16 1.83,-1.83 4.37,-2.97 7.16,-2.97 2.8,0 5.33,1.14 7.16,2.97 1.83,1.83 2.97,4.36 2.97,7.16zm-5 5.13c1.31,-1.31 2.13,-3.13 2.13,-5.13 0,-2 -0.82,-3.82 -2.13,-5.13 -1.31,-1.31 -3.13,-2.12 -5.13,-2.12 -2,0 -3.82,0.81 -5.13,2.12 -1.31,1.31 -2.12,3.13 -2.12,5.13 0,2 0.81,3.82 2.12,5.13 1.31,1.31 3.13,2.12 5.13,2.12 2,0 3.82,-0.81 5.13,-2.12z"/>
  </g>
  <g id="_2494567796720">
   <path class="fil3" d="M51.59 5.66c-0.38,0 -0.75,0.21 -0.93,0.57 -0.26,0.52 -0.05,1.14 0.47,1.4l5.14 2.54c0.29,0.15 0.63,0.15 0.92,0l3.36 -1.66 -0.55 3.71c-0.04,0.32 0.06,0.64 0.29,0.87l2.63 2.69 -3.7 0.63c-0.32,0.05 -0.6,0.25 -0.75,0.54l-1.74 3.32 -1.74 -3.32c-0.15,-0.29 -0.43,-0.49 -0.74,-0.54l-3.7 -0.63 2.62 -2.69c0.4,-0.41 0.39,-1.07 -0.02,-1.47 -0.41,-0.4 -1.07,-0.39 -1.46,0.02l-4.01 4.1c-0.27,0.28 -0.37,0.68 -0.25,1.05 0.12,0.37 0.43,0.64 0.82,0.7l5.14 0.88 2.42 4.62c0.18,0.34 0.54,0.56 0.92,0.56 0.39,0 0.74,-0.22 0.92,-0.56l2.42 -4.62 5.15 -0.88c0.38,-0.06 0.7,-0.34 0.82,-0.7 0.12,-0.37 0.02,-0.77 -0.25,-1.05l-3.65 -3.73 0.76 -5.16c0.05,-0.39 -0.11,-0.77 -0.42,-0.99 -0.31,-0.23 -0.72,-0.27 -1.07,-0.09l-4.68 2.31 -4.67 -2.31c-0.16,-0.08 -0.31,-0.11 -0.47,-0.11l0 0z"/>
   <path class="fil4" d="M29.68 20.74c-0.22,0 -0.43,-0.07 -0.61,-0.2 -0.31,-0.22 -0.48,-0.61 -0.42,-0.99l0.91 -6.2 -4.38 -4.48c-0.27,-0.28 -0.37,-0.68 -0.25,-1.05 0.12,-0.37 0.44,-0.64 0.82,-0.7l6.18 -1.05 2.9 -5.56c0.37,-0.68 1.49,-0.68 1.85,0l2.9 5.56 6.19 1.05c0.38,0.06 0.69,0.33 0.81,0.7 0.12,0.37 0.03,0.77 -0.25,1.05l-4.38 4.48 0.91 6.2c0.06,0.38 -0.1,0.76 -0.41,0.99 -0.32,0.23 -0.73,0.26 -1.08,0.09l-5.61 -2.78 -5.62 2.78c-0.15,0.07 -0.3,0.11 -0.46,0.11zm-1.63 -11.91l3.36 3.43c0.22,0.24 0.33,0.56 0.28,0.88l-0.7 4.75 4.3 -2.13c0.29,-0.15 0.64,-0.15 0.92,0l4.3 2.13 -0.7 -4.75c-0.04,-0.32 0.06,-0.65 0.29,-0.88l3.36 -3.43 -4.73 -0.8c-0.32,-0.06 -0.6,-0.26 -0.75,-0.55l-2.22 -4.25 -2.23 4.25c-0.15,0.29 -0.43,0.49 -0.74,0.55l-4.74 0.8z"/>
   <path class="fil3" d="M20.09 5.66c-0.16,0 -0.31,0.03 -0.46,0.1l-4.68 2.32 -4.68 -2.32c-0.34,-0.17 -0.75,-0.14 -1.07,0.09 -0.31,0.23 -0.47,0.61 -0.42,0.99l0.76 5.17 -3.65 3.73c-0.27,0.27 -0.36,0.68 -0.24,1.05 0.12,0.36 0.43,0.64 0.81,0.7l5.15 0.88 2.42 4.62c0.18,0.34 0.54,0.56 0.92,0.56 0.39,0 0.74,-0.22 0.92,-0.56l2.42 -4.62 5.15 -0.88c0.38,-0.07 0.69,-0.34 0.81,-0.7 0.12,-0.37 0.03,-0.78 -0.24,-1.05l-4.01 -4.1c-0.4,-0.41 -1.06,-0.42 -1.47,-0.02 -0.41,0.4 -0.42,1.06 -0.02,1.47l2.63 2.69 -3.7 0.63c-0.32,0.05 -0.6,0.25 -0.75,0.54l-1.74 3.32 -1.74 -3.32c-0.15,-0.29 -0.42,-0.49 -0.74,-0.54l-3.7 -0.63 2.62 -2.69c0.23,-0.23 0.34,-0.55 0.29,-0.87l-0.55 -3.71 3.36 1.66c0.29,0.15 0.64,0.15 0.93,0l5.13 -2.54c0.52,-0.26 0.73,-0.88 0.48,-1.4 -0.19,-0.36 -0.56,-0.57 -0.94,-0.57l0 0z"/>
  </g>
 </g>
</svg>
