<?xml version="1.0" encoding="UTF-8"?>
<!DOCTYPE svg PUBLIC "-//W3C//DTD SVG 1.1//EN" "http://www.w3.org/Graphics/SVG/1.1/DTD/svg11.dtd">
<!-- Creator: CorelDRAW -->
<svg xmlns="http://www.w3.org/2000/svg" xml:space="preserve" width="640px" height="640px" version="1.1" style="shape-rendering:geometricPrecision; text-rendering:geometricPrecision; image-rendering:optimizeQuality; fill-rule:evenodd; clip-rule:evenodd"
viewBox="0 0 40.94 40.94"
 xmlns:xlink="http://www.w3.org/1999/xlink"
 xmlns:xodm="http://www.corel.com/coreldraw/odm/2003">
 <defs>
  <style type="text/css">
   <![CDATA[
    .fil0 {fill:none}
    .fil2 {fill:#002155;fill-rule:nonzero}
    .fil1 {fill:#FFC221;fill-rule:nonzero}
   ]]>
  </style>
 </defs>
 <g id="Layer_x0020_1">
  <metadata id="CorelCorpID_0Corel-Layer"/>
  <rect class="fil0" width="40.94" height="40.94"/>
  <g id="_2173816876000">
   <path class="fil1" d="M21.55 20.66c0.76,-0.39 1.24,-1.19 1.24,-2.05 0,-1.27 -1.04,-2.31 -2.31,-2.31 -1.28,0 -2.32,1.04 -2.32,2.31 0,0.86 0.48,1.66 1.24,2.05 -1.29,0.46 -2.16,1.69 -2.16,3.06 0,0.26 0.2,0.46 0.46,0.46l5.55 0c0.26,0 0.47,-0.2 0.47,-0.46 0,-1.37 -0.87,-2.6 -2.17,-3.06l0 0zm-1.07 -3.42c0.76,0 1.39,0.62 1.39,1.39 0,0.76 -0.63,1.39 -1.39,1.39 -0.77,0 -1.39,-0.63 -1.39,-1.39 0,-0.77 0.62,-1.39 1.39,-1.39zm-2.27 6.02c0.22,-1.08 1.17,-1.86 2.27,-1.86 1.1,0 2.05,0.78 2.27,1.86l-4.54 0z"/>
   <path class="fil2" d="M30.2 25.57c0,0 0,0 0,0 -1.07,0 -2.1,0.37 -2.93,1.05l-2.23 -2.23c0.88,-1.02 1.39,-2.32 1.44,-3.67l4.73 -0.18c0.24,0.78 0.95,1.3 1.76,1.3 1.01,0 1.84,-0.82 1.84,-1.84 0,-1.01 -0.83,-1.84 -1.84,-1.84 -0.87,0 -1.62,0.61 -1.8,1.46l-4.72 0.17c-0.2,-1.77 -1.18,-3.36 -2.68,-4.34l0.89 -1.61c0.29,0.1 0.6,0.15 0.91,0.15 1.54,0 2.78,-1.24 2.78,-2.78 0,-1.53 -1.24,-2.78 -2.78,-2.78 -1.53,0 -2.78,1.25 -2.78,2.78 0,0.85 0.39,1.65 1.06,2.18l-0.89 1.61c-0.78,-0.35 -1.63,-0.54 -2.49,-0.54 -1.43,0 -2.82,0.52 -3.9,1.45l-2.23 -2.23c0.67,-0.82 1.04,-1.86 1.04,-2.93 0,-2.56 -2.07,-4.64 -4.63,-4.64 -2.56,0 -4.64,2.08 -4.64,4.64 0,2.56 2.08,4.64 4.64,4.64 1.07,0 2.1,-0.38 2.93,-1.05l2.23 2.23c-0.94,1.08 -1.45,2.46 -1.45,3.89 0,0.38 0.03,0.76 0.1,1.13l-4.06 1.1c-0.4,-0.77 -1.18,-1.25 -2.04,-1.25 -1.27,0 -2.3,1.03 -2.3,2.3 0,1.27 1.03,2.29 2.3,2.29 1.26,0 2.29,-1.02 2.29,-2.29 0,-0.01 0,-0.01 0,-0.02 0,-0.05 -0.01,-0.09 -0.01,-0.14l4.07 -1.09c0.47,1.31 1.38,2.42 2.57,3.14l-0.98 1.96c-0.33,-0.11 -0.68,-0.17 -1.03,-0.17 -1.79,0 -3.25,1.46 -3.25,3.25 0,1.79 1.46,3.25 3.25,3.25 1.79,0 3.25,-1.46 3.25,-3.25 0,-1.06 -0.52,-2.06 -1.39,-2.66l0.98 -1.96c0.72,0.3 1.49,0.45 2.27,0.45 1.43,0 2.82,-0.52 3.91,-1.45l2.23 2.22c-0.68,0.83 -1.05,1.86 -1.05,2.93 0,2.56 2.08,4.63 4.63,4.63 2.56,0 4.63,-2.07 4.63,-4.63 0,-2.56 -2.07,-4.63 -4.63,-4.63 0,0 0,0 0,0l0 0zm2.78 -6.48c0.51,0 0.92,0.41 0.92,0.93 0,0.51 -0.41,0.92 -0.92,0.92 -0.51,0 -0.93,-0.41 -0.93,-0.92 0,-0.52 0.42,-0.93 0.93,-0.93zm-7.41 -9.72c1.02,0 1.85,0.83 1.85,1.85 0,1.02 -0.83,1.85 -1.85,1.85 -1.02,0 -1.85,-0.83 -1.85,-1.85 0,-1.02 0.83,-1.85 1.85,-1.85zm-17.13 15.74c-0.77,0 -1.39,-0.62 -1.39,-1.39 0,-0.77 0.62,-1.39 1.39,-1.39 0.77,0 1.39,0.62 1.39,1.39 0,0.77 -0.62,1.39 -1.39,1.39l0 0zm9.26 5.56c0,1.27 -1.04,2.31 -2.32,2.31 -1.28,0 -2.31,-1.04 -2.31,-2.31 0,-1.28 1.03,-2.32 2.31,-2.32 1.28,0 2.32,1.04 2.32,2.32l0 0zm-10.65 -19.91c0,-0.01 0,-0.01 0,-0.01 0,-2.05 1.66,-3.71 3.7,-3.71 2.05,0 3.71,1.66 3.71,3.71 0,0.92 -0.35,1.8 -0.96,2.48 0.02,-0.05 0.03,-0.1 0.03,-0.16 0,0 0,-0.01 0,-0.01 0,-0.73 -0.29,-1.44 -0.81,-1.95 -0.19,-0.19 -0.4,-0.35 -0.62,-0.47 0.32,-0.35 0.51,-0.8 0.51,-1.28 0,-1.02 -0.83,-1.85 -1.85,-1.85 -1.03,0 -1.86,0.83 -1.86,1.85 0,0.48 0.19,0.93 0.52,1.28 -0.89,0.49 -1.44,1.42 -1.44,2.43 0,0.06 0.01,0.11 0.03,0.16 -0.62,-0.67 -0.96,-1.56 -0.96,-2.47l0 0zm3.7 -0.47c-0.51,0 -0.92,-0.41 -0.92,-0.92 0,-0.51 0.41,-0.93 0.92,-0.93 0.51,0 0.93,0.42 0.93,0.93 0,0.51 -0.42,0.92 -0.93,0.92l0 0zm0 0.93c0,0 0,0 0,0 0.85,0 1.59,0.57 1.8,1.39l-3.59 0c0.21,-0.82 0.95,-1.39 1.79,-1.39l0 0zm-2.47 2.28c0.05,0.02 0.1,0.03 0.16,0.03l4.63 0c0.05,0 0.11,-0.01 0.16,-0.03 -0.67,0.62 -1.56,0.96 -2.47,0.96 -0.92,0 -1.8,-0.34 -2.48,-0.96l0 0zm7.1 6.98c0,-2.81 2.28,-5.09 5.1,-5.09 2.81,0 5.09,2.28 5.09,5.09 0,2.81 -2.28,5.09 -5.09,5.09 -2.82,0 -5.09,-2.28 -5.1,-5.09l0 0zm12.34 12.47c0.05,0.02 0.11,0.03 0.16,0.03l4.63 0c0.06,0 0.12,-0.01 0.17,-0.03 -0.68,0.61 -1.56,0.96 -2.48,0.96 -0.91,0 -1.8,-0.35 -2.48,-0.96l0 0zm2.48 -3.21c-0.51,0 -0.93,-0.42 -0.93,-0.93 0,-0.51 0.42,-0.92 0.93,-0.92 0.51,0 0.93,0.41 0.93,0.92 0,0.51 -0.42,0.93 -0.93,0.93l0 0zm0 0.93c0,0 0,0 0,0 0.84,0 1.58,0.57 1.79,1.38l-3.58 0c0.21,-0.81 0.95,-1.38 1.79,-1.38l0 0zm2.74 2.01c0.02,-0.05 0.04,-0.11 0.04,-0.16 0,-0.01 0,-0.01 0,-0.01 0,-0.74 -0.3,-1.44 -0.82,-1.96 -0.18,-0.18 -0.39,-0.34 -0.62,-0.47 0.33,-0.34 0.51,-0.8 0.51,-1.27 0,-1.03 -0.83,-1.86 -1.85,-1.86 -1.02,0 -1.85,0.83 -1.85,1.86 0,0.47 0.18,0.93 0.51,1.27 -0.89,0.49 -1.44,1.42 -1.44,2.44 0,0.05 0.01,0.11 0.03,0.16 -0.61,-0.68 -0.96,-1.57 -0.96,-2.49 0,-2.04 1.66,-3.7 3.71,-3.7 2.04,0 3.7,1.66 3.7,3.7 0,0.92 -0.34,1.81 -0.96,2.49l0 0z"/>
  </g>
 </g>
</svg>
