<?xml version="1.0" encoding="UTF-8"?>
<!DOCTYPE svg PUBLIC "-//W3C//DTD SVG 1.1//EN" "http://www.w3.org/Graphics/SVG/1.1/DTD/svg11.dtd">
<!-- Creator: CorelDRAW 2019 (64-Bit) -->
<svg xmlns="http://www.w3.org/2000/svg" xml:space="preserve" width="640px" height="640px" version="1.1" style="shape-rendering:geometricPrecision; text-rendering:geometricPrecision; image-rendering:optimizeQuality; fill-rule:evenodd; clip-rule:evenodd"
viewBox="0 0 43.38 43.38"
 xmlns:xlink="http://www.w3.org/1999/xlink">
 <defs>
  <style type="text/css">
   <![CDATA[
    .fil0 {fill:none}
    .fil2 {fill:#0A2155;fill-rule:nonzero}
    .fil1 {fill:#FFC221;fill-rule:nonzero}
   ]]>
  </style>
 </defs>
 <g id="Layer_x0020_1">
  <metadata id="CorelCorpID_0Corel-Layer"/>
  <rect class="fil0" width="43.38" height="43.38"/>
 </g>
 <g id="Capa_x0020_1">
  <metadata id="CorelCorpID_1Corel-Layer"/>
  <g id="_1719502318048">
   <path class="fil1" d="M18.98 24.63c-2.72,0 -4.91,-2.19 -4.91,-4.9 0,-2.72 2.19,-4.91 4.91,-4.91 2.71,0 4.9,2.19 4.9,4.91 0,2.71 -2.2,4.9 -4.9,4.9zm0 -10.79c-3.26,0 -5.89,2.63 -5.89,5.89 0,3.25 2.63,5.89 5.89,5.89 3.25,0 5.89,-2.64 5.89,-5.89 -0.01,-3.26 -2.64,-5.89 -5.89,-5.89z"/>
   <path class="fil1" d="M18.41 20.92l-1.54 -1.54 -0.7 0.69 1.97 1.97c0.09,0.09 0.21,0.14 0.34,0.14 0.02,0 0.04,0 0.05,0 0.15,-0.02 0.28,-0.1 0.36,-0.22l2.95 -4.42 -0.82 -0.54 -2.61 3.92z"/>
   <polygon class="fil2" points="10.63,8.44 26.34,8.44 26.34,9.42 10.63,9.42 "/>
   <path class="fil2" d="M34.61 35.36c-0.76,0.74 -1.96,0.75 -2.73,0.02l-5.38 -5.38c-0.18,-0.24 -0.21,-0.56 -0.08,-0.83l1.95 -1.95c0.25,-0.19 0.61,-0.18 0.85,0.02l5.4 5.39c0.74,0.76 0.74,1.97 -0.01,2.73zm-8.27 -7.49l-2.6 -2.61c-0.18,-0.17 -0.45,-0.19 -0.65,-0.04 -1.18,0.89 -2.63,1.38 -4.11,1.38 -3.8,0 -6.88,-3.08 -6.88,-6.87 0,-3.8 3.08,-6.88 6.88,-6.88 3.79,0 6.87,3.08 6.87,6.88 0,1.48 -0.49,2.93 -1.38,4.11 -0.15,0.2 -0.13,0.47 0.04,0.64l2.61 2.61 -0.78 0.78zm2.45 6.58c0.02,0.8 -0.62,1.46 -1.41,1.47 -0.01,0 -0.03,0 -0.04,0l-17.67 0c-0.81,0 -1.47,-0.66 -1.47,-1.47l0 -25.52c0,-0.82 0.66,-1.48 1.47,-1.48l17.67 0c0.8,0 1.45,0.65 1.45,1.45 0,0.01 0,0.02 0,0.03l0 17.18c-0.34,0.01 -0.68,0.11 -0.96,0.3l-2.33 -2.33c0.87,-1.28 1.33,-2.8 1.33,-4.35 0,-4.34 -3.52,-7.86 -7.85,-7.86 -4.34,0 -7.86,3.52 -7.86,7.86 0,4.33 3.52,7.85 7.86,7.85l0 0c1.55,0 3.07,-0.46 4.35,-1.33l2.32 2.32 -0.22 0.48c-0.09,0.32 -0.09,0.66 0,0.98l-14.8 0 0 0.98 15.5 0 2.66 2.66 0 0.78zm4.42 -23.56c0.81,0 1.47,0.66 1.47,1.47l0 18.95 -4.78 -4.78c-0.04,-0.04 -0.08,-0.07 -0.13,-0.1 0,-3.43 0,-1.3 0,-3.76l2.95 0 0 -0.98 -2.95 0 0 -0.98 2.95 0 0 -0.98 -2.95 0 0 -0.99 2.95 0 0 -0.98 -2.95 0 0 -0.98 2.95 0 0 -0.98 -2.95 0c0,-2.57 0,-0.3 0,-4.91l3.44 0zm2.45 1.47c0,-1.35 -1.1,-2.45 -2.45,-2.45l-3.44 0 0 -0.98c0.01,-1.35 -1.08,-2.45 -2.43,-2.46l-17.67 0c-1.35,0 -2.45,1.1 -2.45,2.46l0 25.52c0,1.36 1.1,2.45 2.45,2.46l17.67 0c1.28,-0.01 2.33,-1 2.42,-2.27l1.43 1.44c0.55,0.53 1.29,0.82 2.05,0.82 1.61,0.01 2.91,-1.29 2.92,-2.89 0,-0.58 -0.17,-1.15 -0.5,-1.63l0 -20.02z"/>
   <polygon class="fil2" points="10.63,32 26.34,32 26.34,32.98 10.63,32.98 "/>
  </g>
 </g>
</svg>
