<?xml version="1.0" encoding="UTF-8"?>
<!DOCTYPE svg PUBLIC "-//W3C//DTD SVG 1.1//EN" "http://www.w3.org/Graphics/SVG/1.1/DTD/svg11.dtd">
<!-- Creator: CorelDRAW 2019 (64-Bit) -->
<svg xmlns="http://www.w3.org/2000/svg" xml:space="preserve" width="640px" height="640px" version="1.1" style="shape-rendering:geometricPrecision; text-rendering:geometricPrecision; image-rendering:optimizeQuality; fill-rule:evenodd; clip-rule:evenodd"
viewBox="0 0 81.21 81.21"
 xmlns:xlink="http://www.w3.org/1999/xlink">
 <defs>
  <style type="text/css">
   <![CDATA[
    .fil2 {fill:none}
    .fil0 {fill:#0A2155}
    .fil1 {fill:#FFC221}
   ]]>
  </style>
 </defs>
 <g id="Layer_x0020_1">
  <metadata id="CorelCorpID_0Corel-Layer"/>
  <g id="_2356623975088">
   <path class="fil0" d="M69.45 61.55l-1.09 0 0 -16.97c0,-2.73 -2.22,-4.95 -4.94,-4.95l-5.67 0 0 -22.21c0,-2.84 -2.31,-5.14 -5.14,-5.14l-36.89 0c-2.83,0 -5.14,2.3 -5.14,5.14l0 28.38c0,2.83 2.31,5.13 5.14,5.13l9.94 0 0 2.85 -2.17 0c-0.65,0 -1.18,0.53 -1.18,1.17 0,0.65 0.53,1.18 1.18,1.18l9.35 0 0 5.42 -1.09 0c-0.64,0 -1.17,0.52 -1.17,1.17l0 2.58c0,2.9 2.35,5.25 5.25,5.25l29.55 0c2.89,0 5.24,-2.35 5.24,-5.25l0 -2.58c0.01,-0.65 -0.52,-1.17 -1.17,-1.17zm-53.73 -46.93l36.89 0c1.54,0 2.79,1.26 2.79,2.8l0 22.21 -42.47 0 0 -22.21c0,-1.54 1.25,-2.8 2.79,-2.8zm-2.79 31.17l0 -3.81 20.65 0c-0.46,0.75 -0.74,1.64 -0.74,2.6l0 4.01 -17.12 0c-1.54,0 -2.79,-1.26 -2.79,-2.8zm15.08 7.99l0 -2.85 4.83 0 0 2.85 -4.83 0zm7.18 -9.2c0,-1.44 1.17,-2.6 2.6,-2.6l25.63 0c1.43,0 2.6,1.16 2.6,2.6l0 16.97 -30.83 0 0 -16.97zm33.09 20.72c0,1.6 -1.3,2.9 -2.9,2.9l-29.55 0c-1.6,0 -2.9,-1.3 -2.9,-2.9l0 -1.4 35.35 0 0 1.4z"/>
   <g>
    <path class="fil1" d="M45.91 47.57c-0.47,-0.44 -1.22,-0.42 -1.66,0.06l-2.98 3.21c-0.42,0.45 -0.42,1.14 0,1.59l2.98 3.21c0.23,0.25 0.55,0.38 0.86,0.38 0.29,0 0.57,-0.11 0.8,-0.32 0.47,-0.44 0.5,-1.18 0.06,-1.66l-2.24 -2.41 2.24 -2.41c0.44,-0.47 0.41,-1.21 -0.06,-1.65z"/>
    <path class="fil1" d="M59.94 51.03l-2.99 -3.21c-0.44,-0.48 -1.18,-0.5 -1.65,-0.06 -0.48,0.44 -0.51,1.18 -0.07,1.66l2.24 2.41 -2.24 2.41c-0.44,0.47 -0.41,1.21 0.07,1.65 0.22,0.21 0.51,0.32 0.79,0.32 0.32,0 0.63,-0.13 0.86,-0.38l2.99 -3.21c0.41,-0.45 0.41,-1.14 0,-1.59z"/>
    <path class="fil1" d="M52.55 47.55c-0.59,-0.27 -1.28,-0.02 -1.56,0.57l-2.9 6.23c-0.28,0.58 -0.02,1.28 0.56,1.56 0.16,0.07 0.33,0.11 0.5,0.11 0.44,0 0.86,-0.25 1.06,-0.68l2.91 -6.23c0.27,-0.58 0.02,-1.28 -0.57,-1.56z"/>
    <path class="fil1" d="M22.33 22.81l11.69 0c0.65,0 1.17,-0.52 1.17,-1.17 0,-0.65 -0.52,-1.18 -1.17,-1.18l-11.69 0c-0.64,0 -1.17,0.53 -1.17,1.18 0,0.65 0.53,1.17 1.17,1.17z"/>
    <path class="fil1" d="M38.86 22.81l2.97 0c0.65,0 1.17,-0.52 1.17,-1.17 0,-0.65 -0.52,-1.18 -1.17,-1.18l-2.97 0c-0.64,0 -1.17,0.53 -1.17,1.18 0,0.65 0.53,1.17 1.17,1.17z"/>
    <path class="fil1" d="M46.05 22.81c0.55,0 1.04,-0.4 1.15,-0.94 0.09,-0.48 -0.13,-0.97 -0.54,-1.23 -0.42,-0.26 -0.99,-0.22 -1.37,0.1 -0.37,0.32 -0.51,0.84 -0.35,1.29 0.17,0.46 0.62,0.78 1.11,0.78z"/>
    <path class="fil1" d="M46.05 25.88l-14.04 0c-0.65,0 -1.17,0.52 -1.17,1.17 0,0.65 0.52,1.17 1.17,1.17l14.04 0c0.64,0 1.17,-0.52 1.17,-1.17 0,-0.65 -0.53,-1.17 -1.17,-1.17z"/>
    <path class="fil1" d="M22.33 28.22l4.84 0c0.65,0 1.17,-0.52 1.17,-1.17 0,-0.65 -0.52,-1.17 -1.17,-1.17l-4.84 0c-0.64,0 -1.17,0.52 -1.17,1.17 0,0.65 0.53,1.17 1.17,1.17z"/>
    <path class="fil1" d="M46.05 31.29l-23.72 0c-0.64,0 -1.17,0.53 -1.17,1.17 0,0.65 0.53,1.18 1.17,1.18l23.72 0c0.64,0 1.17,-0.53 1.17,-1.18 0,-0.64 -0.53,-1.17 -1.17,-1.17z"/>
   </g>
  </g>
  <rect class="fil2" width="81.21" height="81.21"/>
 </g>
</svg>
