<?xml version="1.0" encoding="UTF-8"?>
<!DOCTYPE svg PUBLIC "-//W3C//DTD SVG 1.1//EN" "http://www.w3.org/Graphics/SVG/1.1/DTD/svg11.dtd">
<!-- Creator: CorelDRAW 2019 (64-Bit) -->
<svg xmlns="http://www.w3.org/2000/svg" xml:space="preserve" width="640px" height="640px" version="1.1" style="shape-rendering:geometricPrecision; text-rendering:geometricPrecision; image-rendering:optimizeQuality; fill-rule:evenodd; clip-rule:evenodd"
viewBox="0 0 325.22 325.22"
 xmlns:xlink="http://www.w3.org/1999/xlink">
 <defs>
  <style type="text/css">
   <![CDATA[
    .str0 {stroke:#0A2155;stroke-width:1.2;stroke-miterlimit:22.9256}
    .fil0 {fill:none}
    .fil2 {fill:white}
    .fil1 {fill:#0A2155;fill-rule:nonzero}
    .fil3 {fill:#FFC221;fill-rule:nonzero}
   ]]>
  </style>
 </defs>
 <g id="Layer_x0020_1">
  <metadata id="CorelCorpID_0Corel-Layer"/>
  <rect class="fil0" width="325.22" height="325.22"/>
  <path class="fil1 str0" d="M64.19 76.56l202.34 0c2.78,0 5.33,1.15 7.17,2.99 1.85,1.83 2.99,4.38 2.99,7.18 0,2.79 -1.14,5.34 -2.98,7.18 -1.85,1.83 -4.4,2.98 -7.18,2.98l-202.34 0c-2.79,0 -5.33,-1.15 -7.18,-2.99 -1.84,-1.83 -2.98,-4.38 -2.98,-7.17 0,-2.8 1.14,-5.35 2.98,-7.19 1.85,-1.83 4.39,-2.98 7.18,-2.98zm202.34 5.1l-202.34 0c-1.4,0 -2.66,0.57 -3.57,1.48 -0.92,0.93 -1.49,2.2 -1.49,3.59 0,1.39 0.57,2.65 1.49,3.57 0.91,0.92 2.17,1.49 3.57,1.49l202.34 0c1.39,0 2.66,-0.57 3.57,-1.48 0.91,-0.93 1.49,-2.19 1.49,-3.58 0,-1.39 -0.58,-2.66 -1.49,-3.58 -0.91,-0.92 -2.18,-1.49 -3.57,-1.49z"/>
  <circle class="fil2" cx="177.49" cy="87.11" r="16.36"/>
  <path class="fil3" d="M177.49 68.48c5.13,0 9.79,2.08 13.16,5.45 3.38,3.39 5.47,8.05 5.47,13.18 0,5.13 -2.09,9.79 -5.46,13.16 -3.38,3.38 -8.04,5.47 -13.17,5.47 -5.14,0 -9.79,-2.09 -13.17,-5.46 -3.38,-3.38 -5.47,-8.04 -5.47,-13.17 0,-5.13 2.09,-9.79 5.46,-13.17 3.39,-3.38 8.04,-5.46 13.18,-5.46zm9.96 8.66c-2.54,-2.55 -6.07,-4.12 -9.96,-4.12 -3.9,0 -7.43,1.57 -9.97,4.11 -2.55,2.56 -4.12,6.08 -4.12,9.98 0,3.89 1.57,7.42 4.11,9.96 2.55,2.55 6.08,4.13 9.98,4.13 3.89,0 7.42,-1.58 9.96,-4.12 2.55,-2.55 4.13,-6.08 4.13,-9.97 0,-3.9 -1.58,-7.42 -4.13,-9.97z"/>
  <path class="fil3" d="M177.49 78.62c2.34,0 4.46,0.95 6,2.49 1.53,1.53 2.48,3.65 2.48,6 0,2.34 -0.95,4.46 -2.48,6 -1.54,1.53 -3.66,2.49 -6,2.49 -2.35,0 -4.47,-0.96 -6,-2.49 -1.54,-1.54 -2.49,-3.66 -2.49,-6 0,-2.35 0.95,-4.47 2.49,-6 1.53,-1.54 3.65,-2.49 6,-2.49zm2.79 5.7c-0.71,-0.72 -1.7,-1.16 -2.79,-1.16 -1.09,0 -2.08,0.44 -2.79,1.16 -0.72,0.71 -1.16,1.7 -1.16,2.79 0,1.09 0.44,2.08 1.16,2.79 0.71,0.71 1.7,1.15 2.79,1.15 1.09,0 2.08,-0.44 2.79,-1.15 0.71,-0.71 1.15,-1.7 1.15,-2.79 0,-1.09 -0.44,-2.08 -1.15,-2.79z"/>
  <path class="fil3" d="M90.73 196.08c-10.2,0 -18.47,8.27 -18.47,18.47 0,10.19 8.27,18.46 18.47,18.46 10.19,0 18.46,-8.27 18.46,-18.46 -0.01,-10.2 -8.27,-18.45 -18.46,-18.47zm0 31.65c-7.29,0 -13.19,-5.9 -13.19,-13.18 0,-7.29 5.9,-13.19 13.19,-13.19 7.28,0 13.18,5.9 13.18,13.19 -0.01,7.27 -5.9,13.17 -13.18,13.18zm0 0z"/>
  <path class="fil1 str0" d="M129.98 204.38l136.55 0c2.78,0 5.33,1.15 7.17,2.99 1.85,1.83 2.99,4.38 2.99,7.18 0,2.79 -1.14,5.34 -2.98,7.18 -1.85,1.83 -4.4,2.98 -7.18,2.98l-136.55 0 0 -5.1 136.55 0c1.39,0 2.66,-0.57 3.57,-1.48 0.91,-0.93 1.49,-2.19 1.49,-3.58 0,-1.39 -0.58,-2.66 -1.49,-3.58 -0.91,-0.92 -2.18,-1.49 -3.57,-1.49l-136.55 0 0 -5.1z"/>
  <path class="fil3" d="M132.92 206.63c0,-1.45 -1.18,-2.63 -2.63,-2.63l-6.97 0c-0.56,-1.74 -1.26,-3.42 -2.09,-5.04l4.93 -4.93c1.03,-1.03 1.03,-2.7 0,-3.73l-11.19 -11.19c-1.03,-1.03 -2.7,-1.03 -3.73,0l-4.93 4.93c-1.62,-0.83 -3.3,-1.53 -5.03,-2.08l0 -6.97c0,-1.46 -1.18,-2.64 -2.64,-2.64l-15.83 0c-1.45,0 -2.63,1.18 -2.63,2.64l0 6.97c-1.73,0.55 -3.42,1.25 -5.04,2.08l-4.93 -4.93c-1.03,-1.03 -2.7,-1.03 -3.73,0l-11.19 11.19c-1.02,1.03 -1.02,2.7 0,3.73l4.93 4.93c-0.22,0.43 -0.43,0.86 -0.63,1.3 -0.56,1.22 -1.04,2.46 -1.45,3.74l-6.97 0c-1.46,0 -2.64,1.18 -2.64,2.63l0 15.83c0,1.45 1.18,2.63 2.64,2.63l6.97 0c0.56,1.74 1.25,3.42 2.08,5.04l-4.93 4.93c-1.02,1.03 -1.02,2.7 0,3.73l11.19 11.19c1.03,1.03 2.7,1.03 3.73,0l4.93 -4.93c1.62,0.83 3.31,1.53 5.04,2.08l0 6.97c0,1.46 1.18,2.64 2.63,2.64l15.83 0c1.46,0 2.64,-1.18 2.64,-2.64l0 -6.97c1.73,-0.55 3.41,-1.25 5.03,-2.08l4.93 4.93c1.03,1.03 2.7,1.03 3.73,0l11.19 -11.19c1.03,-1.03 1.03,-2.7 0,-3.73l-4.93 -4.93c0.83,-1.62 1.53,-3.3 2.09,-5.04l6.97 0c1.45,0 2.63,-1.18 2.63,-2.63l0 -15.83zm-5.27 13.19l-6.31 0c-1.21,0 -2.26,0.81 -2.56,1.98 -0.67,2.62 -1.71,5.13 -3.08,7.46 -0.61,1.03 -0.45,2.35 0.4,3.2l4.46 4.46 -7.46 7.46 -4.46 -4.46c-0.85,-0.85 -2.17,-1.02 -3.2,-0.4 -2.33,1.37 -4.84,2.41 -7.46,3.08 -1.16,0.3 -1.98,1.35 -1.98,2.55l0 6.32 -10.55 0 0 -6.32c0,-1.2 -0.81,-2.25 -1.98,-2.55 -2.61,-0.67 -5.12,-1.71 -7.45,-3.08 -1.04,-0.62 -2.36,-0.45 -3.21,0.4l-4.46 4.46 -7.46 -7.46 4.46 -4.46c0.85,-0.85 1.02,-2.17 0.41,-3.2 -1.38,-2.33 -2.42,-4.84 -3.09,-7.46 -0.3,-1.17 -1.35,-1.98 -2.55,-1.98l-6.32 0 0 -10.55 6.32 0c1.2,0 2.25,-0.81 2.55,-1.98 0.43,-1.66 1,-3.27 1.72,-4.83 0.41,-0.9 0.87,-1.78 1.37,-2.64 0.61,-1.04 0.44,-2.35 -0.41,-3.2l-4.46 -4.46 7.46 -7.46 4.46 4.46c0.85,0.85 2.17,1.02 3.21,0.4 2.33,-1.37 4.84,-2.41 7.45,-3.08 1.17,-0.3 1.98,-1.35 1.98,-2.55l0 -6.31 10.55 0 0 6.32c0,1.2 0.82,2.25 1.98,2.55 2.62,0.67 5.13,1.71 7.46,3.08 1.03,0.62 2.35,0.45 3.2,-0.4l4.46 -4.46 7.46 7.46 -4.46 4.46c-0.85,0.85 -1.01,2.17 -0.4,3.2 1.37,2.33 2.41,4.85 3.08,7.46 0.3,1.17 1.35,1.98 2.56,1.98l6.31 0 0 10.55z"/>
  <circle class="fil2" cx="231.07" cy="214.55" r="16.36"/>
  <path class="fil1" d="M231.07 195.91c5.13,0 9.79,2.09 13.16,5.46 3.38,3.38 5.47,8.04 5.47,13.18 0,5.13 -2.09,9.79 -5.46,13.16 -3.38,3.38 -8.04,5.47 -13.17,5.47 -5.14,0 -9.79,-2.09 -13.17,-5.46 -3.38,-3.38 -5.47,-8.04 -5.47,-13.17 0,-5.14 2.09,-9.8 5.46,-13.17 3.39,-3.38 8.04,-5.47 13.18,-5.47zm9.96 8.67c-2.54,-2.55 -6.07,-4.13 -9.96,-4.13 -3.9,0 -7.43,1.58 -9.97,4.12 -2.55,2.55 -4.12,6.08 -4.12,9.98 0,3.89 1.57,7.42 4.11,9.96 2.55,2.55 6.08,4.13 9.98,4.13 3.89,0 7.42,-1.58 9.96,-4.12 2.55,-2.55 4.13,-6.08 4.13,-9.97 0,-3.9 -1.58,-7.43 -4.13,-9.97z"/>
  <path class="fil1" d="M231.07 206.06c2.34,0 4.46,0.95 6,2.48 1.53,1.54 2.48,3.66 2.48,6.01 0,2.34 -0.95,4.46 -2.48,6 -1.54,1.53 -3.66,2.48 -6,2.48 -2.35,0 -4.47,-0.95 -6,-2.48 -1.54,-1.54 -2.49,-3.66 -2.49,-6 0,-2.35 0.95,-4.47 2.49,-6.01 1.53,-1.53 3.65,-2.48 6,-2.48zm2.79 5.69c-0.71,-0.71 -1.7,-1.15 -2.79,-1.15 -1.09,0 -2.08,0.44 -2.8,1.15 -0.71,0.72 -1.15,1.71 -1.15,2.8 0,1.09 0.44,2.07 1.15,2.79 0.72,0.71 1.71,1.15 2.8,1.15 1.09,0 2.08,-0.44 2.79,-1.15 0.71,-0.72 1.15,-1.7 1.15,-2.79 0,-1.09 -0.44,-2.08 -1.15,-2.8z"/>
  <path class="fil1 str0" d="M64.19 128.5l202.34 0c2.78,0 5.33,1.14 7.17,2.99 1.85,1.83 2.99,4.37 2.99,7.17 0,2.8 -1.14,5.34 -2.98,7.18 -1.85,1.84 -4.4,2.99 -7.18,2.99l-202.34 0c-2.79,0 -5.33,-1.15 -7.18,-2.99 -1.84,-1.84 -2.98,-4.38 -2.98,-7.18 0,-2.8 1.14,-5.34 2.98,-7.18 1.85,-1.84 4.39,-2.98 7.18,-2.98zm202.34 5.1l-202.34 0c-1.4,0 -2.66,0.57 -3.57,1.48 -0.92,0.92 -1.49,2.19 -1.49,3.58 0,1.39 0.57,2.66 1.49,3.58 0.91,0.92 2.17,1.48 3.57,1.48l202.34 0c1.39,0 2.66,-0.56 3.57,-1.47 0.91,-0.93 1.49,-2.2 1.49,-3.59 0,-1.39 -0.58,-2.66 -1.49,-3.57 -0.91,-0.92 -2.18,-1.49 -3.57,-1.49z"/>
  <circle class="fil2" cx="122.05" cy="139.04" r="16.36"/>
  <path class="fil1" d="M122.05 120.41c5.13,0 9.79,2.09 13.17,5.46 3.38,3.38 5.46,8.04 5.46,13.17 0,5.14 -2.08,9.79 -5.45,13.17 -3.39,3.38 -8.05,5.47 -13.18,5.47 -5.13,0 -9.79,-2.09 -13.16,-5.46 -3.38,-3.39 -5.47,-8.04 -5.47,-13.18 0,-5.13 2.09,-9.79 5.46,-13.16 3.38,-3.38 8.04,-5.47 13.17,-5.47zm9.97 8.67c-2.55,-2.55 -6.07,-4.13 -9.97,-4.13 -3.89,0 -7.42,1.58 -9.96,4.12 -2.55,2.55 -4.13,6.08 -4.13,9.97 0,3.9 1.58,7.43 4.12,9.97 2.55,2.55 6.08,4.13 9.97,4.13 3.9,0 7.42,-1.58 9.97,-4.12 2.55,-2.55 4.12,-6.08 4.12,-9.98 0,-3.89 -1.57,-7.42 -4.12,-9.96z"/>
  <path class="fil1" d="M122.05 130.56c2.34,0 4.47,0.95 6,2.48 1.54,1.54 2.49,3.66 2.49,6 0,2.35 -0.95,4.47 -2.49,6.01 -1.53,1.53 -3.66,2.48 -6,2.48 -2.34,0 -4.46,-0.95 -6,-2.48 -1.53,-1.54 -2.49,-3.66 -2.49,-6.01 0,-2.34 0.96,-4.46 2.49,-6 1.54,-1.53 3.66,-2.48 6,-2.48zm2.79 5.69c-0.71,-0.71 -1.7,-1.15 -2.79,-1.15 -1.09,0 -2.08,0.44 -2.79,1.15 -0.71,0.72 -1.16,1.7 -1.16,2.79 0,1.09 0.45,2.08 1.16,2.8 0.71,0.71 1.7,1.15 2.79,1.15 1.09,0 2.08,-0.44 2.79,-1.15 0.72,-0.72 1.16,-1.71 1.16,-2.8 0,-1.09 -0.44,-2.07 -1.16,-2.79z"/>
 </g>
</svg>
