<?xml version="1.0" encoding="UTF-8"?>
<!DOCTYPE svg PUBLIC "-//W3C//DTD SVG 1.1//EN" "http://www.w3.org/Graphics/SVG/1.1/DTD/svg11.dtd">
<!-- Creator: CorelDRAW 2019 (64-Bit) -->
<svg xmlns="http://www.w3.org/2000/svg" xml:space="preserve" width="640px" height="640px" version="1.1" style="shape-rendering:geometricPrecision; text-rendering:geometricPrecision; image-rendering:optimizeQuality; fill-rule:evenodd; clip-rule:evenodd"
viewBox="0 0 149.33 149.33"
 xmlns:xlink="http://www.w3.org/1999/xlink">
 <defs>
  <style type="text/css">
   <![CDATA[
    .fil0 {fill:none}
    .fil1 {fill:#0A2155}
    .fil2 {fill:#FFC221}
   ]]>
  </style>
 </defs>
 <g id="Layer_x0020_1">
  <metadata id="CorelCorpID_0Corel-Layer"/>
  <rect class="fil0" width="149.33" height="149.33"/>
  <path class="fil1" d="M69.38 76.7l7.3 -7.29c0.6,-0.6 0.6,-1.59 0,-2.19 0,0 0,0 0,0l-3.88 -3.88c0.8,-1.45 1.44,-3.02 1.92,-4.61l5.49 0c0.86,0 1.54,-0.68 1.54,-1.54l0 -10.32c0,-0.86 -0.68,-1.54 -1.54,-1.54l-5.49 0c-0.46,-1.61 -1.12,-3.16 -1.92,-4.61l3.88 -3.88c0.6,-0.6 0.6,-1.59 0,-2.19 0,0 0,0 0,0l-7.3 -7.3c-0.59,-0.59 -1.58,-0.59 -2.18,0 0,0 0,0 0,0l-3.88 3.89c-1.48,-0.8 -3.02,-1.46 -4.61,-1.92l0 -5.49c0,-0.86 -0.68,-1.55 -1.54,-1.55 0,0 0,0 0,0l-10.34 0c-0.86,0 -1.55,0.69 -1.55,1.55l0 0 0 5.49c-1.61,0.46 -3.15,1.12 -4.61,1.92l-3.88 -3.89c-0.59,-0.59 -1.59,-0.59 -2.18,0 0,0 0,0 0,0l-7.3 7.3c-0.59,0.6 -0.59,1.59 0,2.19 0,0 0,0 0,0l3.88 3.88c-0.79,1.45 -1.43,3.02 -1.92,4.61l-5.49 0c-0.86,0 -1.54,0.68 -1.54,1.54 0,0 0,0 0,0l0 10.32c0,0.86 0.68,1.54 1.54,1.54l5.49 0c0.47,1.61 1.13,3.16 1.92,4.61l-3.88 3.88c-0.59,0.6 -0.59,1.59 0,2.19 0,0 0,0 0,0l7.3 7.29c0.59,0.6 1.59,0.6 2.18,0l3.88 -3.88c1.48,0.8 3.02,1.46 4.63,1.92l0 5.49c0,0.86 0.69,1.55 1.55,1.55l10.34 0c0.86,0 1.54,-0.69 1.54,-1.55l0 -5.49c1.61,-0.46 3.16,-1.12 4.61,-1.92l3.88 3.88c0.6,0.6 1.59,0.6 2.19,0l0 0 -0.03 0zm-4.72 -6.92c-0.5,-0.51 -1.3,-0.59 -1.89,-0.22 -1.85,1.12 -3.86,1.96 -5.96,2.47 -0.68,0.18 -1.19,0.79 -1.19,1.5l0 5.14 -7.25 0 0 -5.14c0,-0.71 -0.49,-1.35 -1.19,-1.5 -2.1,-0.51 -4.13,-1.35 -5.96,-2.47 -0.61,-0.37 -1.38,-0.29 -1.89,0.22l-3.64 3.64 -5.12 -5.12 3.64 -3.64c0.51,-0.5 0.6,-1.3 0.22,-1.89 -1.14,-1.85 -1.98,-3.86 -2.47,-5.96 -0.15,-0.7 -0.79,-1.19 -1.5,-1.19l-5.13 0 0 -7.23 5.13 0c0.71,0 1.33,-0.48 1.5,-1.19 0.51,-2.09 1.35,-4.12 2.47,-5.95 0.38,-0.62 0.29,-1.39 -0.22,-1.9l-3.64 -3.64 5.12 -5.11 3.64 3.63c0.51,0.51 1.3,0.6 1.89,0.22 1.86,-1.12 3.86,-1.96 5.96,-2.46 0.68,-0.18 1.19,-0.8 1.19,-1.5l0 -5.14 7.25 0 0 5.14c0,0.7 0.49,1.34 1.19,1.5 2.12,0.5 4.13,1.34 5.96,2.46 0.62,0.38 1.39,0.29 1.89,-0.22l3.64 -3.63 5.12 5.11 -3.64 3.64c-0.51,0.51 -0.59,1.3 -0.22,1.9 1.15,1.85 1.98,3.86 2.47,5.95 0.15,0.71 0.79,1.19 1.5,1.19l5.14 0 0 7.23 -5.14 0c-0.71,0 -1.32,0.49 -1.5,1.19 -0.51,2.1 -1.35,4.13 -2.47,5.96 -0.37,0.62 -0.29,1.39 0.22,1.89l3.64 3.64 -5.12 5.12 -3.64 -3.64 0 0z"/>
  <path class="fil1" d="M51.99 38.62c-7.39,0 -13.37,5.98 -13.37,13.37 0,7.38 5.98,13.36 13.37,13.36 7.38,0 13.36,-5.98 13.36,-13.36 0,-7.39 -5.98,-13.37 -13.36,-13.37zm0 23.64c-5.67,0 -10.28,-4.61 -10.28,-10.27 0,-5.67 4.61,-10.28 10.28,-10.28 5.66,0 10.27,4.61 10.27,10.28 0,5.66 -4.61,10.27 -10.27,10.27l0 0z"/>
  <path class="fil1" d="M125.55 90.6l-5.49 0c-0.47,-1.61 -1.13,-3.16 -1.92,-4.61l3.88 -3.88c0.6,-0.6 0.6,-1.59 0,-2.19l0 0c0,0 -7.3,-7.29 -7.3,-7.29 -0.59,-0.6 -1.59,-0.6 -2.18,0 0,0 0,0 0,0l-3.88 3.88c-1.46,-0.8 -3.02,-1.46 -4.61,-1.92l0 -5.49c0,-0.86 -0.69,-1.55 -1.55,-1.55l-10.34 0c-0.86,0 -1.54,0.69 -1.54,1.55l0 5.49c-1.61,0.46 -3.15,1.12 -4.61,1.92l-3.88 -3.88c-0.6,-0.6 -1.59,-0.6 -2.18,0 0,0 0,0 0,0l-7.3 7.29c-0.6,0.6 -0.6,1.59 0,2.19l3.9 3.88c-0.79,1.45 -1.43,3.02 -1.92,4.61l-5.51 0c-0.86,0 -1.54,0.68 -1.54,1.54l0 10.32c0,0.86 0.68,1.54 1.54,1.54l5.49 0c0.46,1.61 1.12,3.16 1.92,4.61l-3.88 3.88c-0.6,0.6 -0.6,1.59 0,2.19l7.3 7.3c0.59,0.59 1.58,0.59 2.18,0l0 0c0,0 3.88,-3.89 3.88,-3.89 1.46,0.8 3.02,1.46 4.61,1.92l0 5.49c0,0.86 0.68,1.55 1.54,1.55l10.34 0c0.86,0 1.55,-0.69 1.55,-1.55l0 0 0 -5.49c1.61,-0.46 3.15,-1.12 4.61,-1.92l3.88 3.89c0.59,0.59 1.59,0.59 2.18,0 0,0 0,0 0,0l7.3 -7.3c0.6,-0.6 0.6,-1.59 0,-2.19 0,0 0,0 0,0l-3.88 -3.88c0.79,-1.45 1.43,-3.02 1.92,-4.61l5.49 0c0.86,0 1.54,-0.68 1.54,-1.54l0 0 0 -10.34c0,-0.86 -0.68,-1.55 -1.54,-1.55l0 0 0 0.03zm-1.55 10.34l-5.13 0c-0.71,0 -1.33,0.48 -1.5,1.19 -0.51,2.09 -1.35,4.12 -2.47,5.95 -0.38,0.62 -0.29,1.39 0.22,1.9l3.64 3.64 -5.12 5.11 -3.64 -3.63c-0.51,-0.51 -1.3,-0.6 -1.89,-0.22 -1.86,1.12 -3.86,1.96 -5.96,2.46 -0.68,0.18 -1.19,0.8 -1.19,1.5l0 5.14 -7.25 0 0 -5.14c0,-0.7 -0.49,-1.34 -1.19,-1.5 -2.12,-0.5 -4.13,-1.34 -5.96,-2.46 -0.62,-0.38 -1.39,-0.29 -1.89,0.22l-3.64 3.63 -5.12 -5.11 3.64 -3.64c0.51,-0.51 0.59,-1.3 0.22,-1.9 -1.15,-1.85 -1.98,-3.86 -2.47,-5.95 -0.15,-0.71 -0.79,-1.19 -1.5,-1.19l-5.14 0 0 -7.23 5.14 0c0.71,0 1.32,-0.49 1.5,-1.19 0.51,-2.1 1.35,-4.13 2.47,-5.96 0.37,-0.62 0.29,-1.39 -0.22,-1.89l-3.64 -3.64 5.12 -5.12 3.64 3.64c0.5,0.51 1.3,0.59 1.89,0.22 1.85,-1.12 3.86,-1.96 5.96,-2.47 0.68,-0.18 1.19,-0.79 1.19,-1.5l0 -5.14 7.25 0 0 5.14c0,0.71 0.49,1.35 1.19,1.5 2.12,0.51 4.13,1.35 5.96,2.47 0.61,0.37 1.38,0.29 1.89,-0.22l3.64 -3.64 5.12 5.12 -3.64 3.64c-0.51,0.5 -0.6,1.3 -0.22,1.89 1.14,1.85 1.98,3.86 2.47,5.96 0.15,0.7 0.79,1.19 1.5,1.19l5.13 0 0 7.23 0 0z"/>
  <path class="fil1" d="M97.32 83.96c-7.38,0 -13.36,5.98 -13.36,13.36 0,7.39 5.98,13.37 13.36,13.37 7.39,0 13.37,-5.98 13.37,-13.37 0,-7.38 -5.98,-13.36 -13.37,-13.36zm0 23.64c-5.66,0 -10.27,-4.61 -10.27,-10.28 0,-5.66 4.61,-10.27 10.27,-10.27 5.67,0 10.28,4.61 10.28,10.27 0,5.67 -4.61,10.28 -10.28,10.28l0 0z"/>
  <path class="fil2" d="M85.86 36.59c8.97,2.65 16.71,8.36 21.87,16.17 -2.78,2.51 -3,6.81 -0.48,9.59 2.51,2.78 6.81,3 9.59,0.48 2.78,-2.51 3,-6.81 0.48,-9.59 -1.74,-1.92 -4.41,-2.69 -6.88,-1.98 -5.55,-8.51 -13.96,-14.75 -23.7,-17.64 -0.82,-0.27 -1.68,0.2 -1.94,1.01 -0.27,0.82 0.2,1.68 1.01,1.94 0,0 0.05,0 0.07,0l0 0 -0.02 0.02zm30.07 21.19c0,2.03 -1.65,3.69 -3.68,3.69 -2.03,0 -3.68,-1.66 -3.68,-3.69 0,-2.02 1.65,-3.68 3.68,-3.68l0 0c2.03,0 3.68,1.66 3.68,3.68l0 0z"/>
  <path class="fil2" d="M63.45 112.71c-8.97,-2.64 -16.71,-8.38 -21.85,-16.16 2.78,-2.51 3,-6.81 0.48,-9.59 -2.51,-2.78 -6.81,-3 -9.59,-0.49 -2.78,2.52 -3,6.82 -0.48,9.6 1.74,1.91 4.41,2.69 6.88,1.98 5.55,8.51 13.96,14.75 23.7,17.64 0.13,0.05 0.29,0.07 0.44,0.07 0.86,0 1.55,-0.69 1.55,-1.55 0,-0.68 -0.44,-1.28 -1.11,-1.47l0 0 -0.02 -0.03zm-30.08 -21.19c0,-2.03 1.66,-3.68 3.69,-3.68 2.03,0 3.68,1.65 3.68,3.68 0,2.03 -1.65,3.69 -3.68,3.69 -2.03,0 -3.69,-1.66 -3.69,-3.69z"/>
 </g>
</svg>
