<?xml version="1.0" encoding="UTF-8"?>
<!DOCTYPE svg PUBLIC "-//W3C//DTD SVG 1.1//EN" "http://www.w3.org/Graphics/SVG/1.1/DTD/svg11.dtd">
<!-- Creator: CorelDRAW 2019 (64-Bit) -->
<svg xmlns="http://www.w3.org/2000/svg" xml:space="preserve" width="640px" height="640px" version="1.1" style="shape-rendering:geometricPrecision; text-rendering:geometricPrecision; image-rendering:optimizeQuality; fill-rule:evenodd; clip-rule:evenodd"
viewBox="0 0 96.18 96.18"
 xmlns:xlink="http://www.w3.org/1999/xlink">
 <defs>
  <style type="text/css">
   <![CDATA[
    .str1 {stroke:#0A2155;stroke-width:0.35;stroke-miterlimit:22.9256}
    .str0 {stroke:#FFC221;stroke-width:0.35;stroke-miterlimit:22.9256}
    .fil0 {fill:none}
    .fil2 {fill:#0A2155}
    .fil1 {fill:#FFC221}
   ]]>
  </style>
 </defs>
 <g id="Layer_x0020_1">
  <metadata id="CorelCorpID_0Corel-Layer"/>
  <rect class="fil0" width="96.18" height="96.18"/>
  <g id="_2042505908432">
   <path class="fil1 str0" d="M69.72 72.9c0.29,0.35 0.24,0.87 -0.11,1.16 -6.24,5.18 -13.88,7.76 -21.52,7.76 -6.98,0 -13.95,-2.16 -19.86,-6.48l0.7 4.38c0.08,0.44 -0.23,0.87 -0.68,0.94 -0.04,0.01 -0.09,0.01 -0.13,0.01 -0.39,0 -0.74,-0.29 -0.81,-0.69l-1.03 -6.42c0,-0.02 0,-0.03 0,-0.05 0,-0.01 0,-0.02 0,-0.03 -0.01,-0.09 0,-0.19 0.02,-0.28 0.01,-0.01 0.01,-0.02 0.02,-0.03 0.02,-0.08 0.06,-0.16 0.11,-0.23 0,-0.01 0.01,-0.01 0.02,-0.02 0,-0.01 0.01,-0.02 0.01,-0.02 0.03,-0.04 0.07,-0.06 0.1,-0.09 0.05,-0.03 0.08,-0.07 0.13,-0.1 0.05,-0.03 0.11,-0.04 0.17,-0.06 0.03,-0.01 0.07,-0.04 0.11,-0.04l6.42 -1.03c0.44,-0.07 0.87,0.23 0.94,0.68 0.07,0.45 -0.23,0.87 -0.68,0.94l-4.55 0.73c11.77,8.68 28.08,8.31 39.46,-1.14 0.35,-0.29 0.86,-0.24 1.16,0.11l0 0zm0.18 -50.24c0,-0.01 0,-0.03 0,-0.04l-1.03 -6.43c-0.08,-0.44 -0.5,-0.75 -0.95,-0.68 -0.45,0.07 -0.75,0.5 -0.68,0.94l0.7 4.38c-12.37,-9.04 -29.45,-8.62 -41.37,1.29 -0.35,0.29 -0.4,0.8 -0.11,1.15 0.29,0.35 0.81,0.4 1.16,0.11 11.38,-9.45 27.68,-9.83 39.46,-1.14l-4.55 0.73c-0.45,0.07 -0.75,0.49 -0.68,0.94 0.06,0.4 0.41,0.69 0.81,0.69 0.04,0 0.09,0 0.13,-0.01l6.42 -1.03c0.01,0 0.02,-0.01 0.02,-0.01 0.03,0 0.06,-0.01 0.08,-0.02 0.03,-0.01 0.06,-0.02 0.09,-0.03 0.02,-0.01 0.04,-0.02 0.07,-0.03 0.02,-0.02 0.05,-0.03 0.08,-0.05 0.02,-0.02 0.04,-0.03 0.06,-0.04 0.02,-0.03 0.05,-0.05 0.07,-0.08 0.01,-0.01 0.02,-0.02 0.03,-0.03 0.01,0 0.01,-0.01 0.01,-0.01 0.06,-0.08 0.11,-0.16 0.14,-0.26 0,-0.01 0.01,-0.02 0.01,-0.03 0.03,-0.09 0.04,-0.18 0.03,-0.28 0,-0.01 0,-0.02 0,-0.03l0 0zm-46.34 4.3c-0.01,-0.08 -0.04,-0.15 -0.07,-0.22 -0.01,-0.02 -0.02,-0.03 -0.02,-0.04 -0.05,-0.09 -0.11,-0.16 -0.18,-0.22 0,-0.01 -0.01,-0.01 -0.02,-0.02 0,-0.01 -0.01,-0.01 -0.02,-0.01 -0.07,-0.06 -0.15,-0.1 -0.24,-0.13 -0.01,-0.01 -0.03,-0.01 -0.04,-0.02 -0.09,-0.02 -0.18,-0.03 -0.27,-0.02 -0.02,0 -0.03,0 -0.04,0 -0.02,0 -0.03,0 -0.04,0l-6.42 1.03c-0.45,0.07 -0.76,0.49 -0.69,0.94 0.08,0.45 0.5,0.76 0.95,0.68l4.37 -0.7c-9.04,12.38 -8.62,29.45 1.29,41.38 0.16,0.19 0.4,0.29 0.63,0.29 0.19,0 0.37,-0.06 0.53,-0.19 0.35,-0.28 0.39,-0.8 0.1,-1.15 -9.45,-11.38 -9.83,-27.69 -1.14,-39.47l0.73 4.55c0.06,0.41 0.41,0.7 0.81,0.7 0.04,0 0.09,-0.01 0.13,-0.01 0.45,-0.08 0.75,-0.5 0.68,-0.95l-1.03 -6.42zm56.16 40.28l-4.37 0.7c9.04,-12.37 8.61,-29.45 -1.29,-41.37 -0.29,-0.35 -0.81,-0.4 -1.16,-0.11 -0.35,0.29 -0.4,0.81 -0.11,1.16 9.45,11.38 9.83,27.68 1.15,39.46l-0.73 -4.55c-0.07,-0.45 -0.5,-0.75 -0.94,-0.68 -0.45,0.07 -0.76,0.49 -0.68,0.94l1.03 6.42c0.01,0.06 0.03,0.1 0.05,0.15 0.01,0.04 0.02,0.08 0.04,0.12 0.05,0.09 0.11,0.17 0.19,0.23 0,0 0,0.01 0,0.01 0.03,0.02 0.06,0.03 0.08,0.04 0.06,0.04 0.11,0.08 0.17,0.1 0.09,0.03 0.18,0.05 0.27,0.05 0,0 0.01,0 0.01,0l0 0c0.04,0 0.09,-0.01 0.13,-0.01l6.42 -1.03c0.45,-0.07 0.75,-0.5 0.68,-0.94 -0.07,-0.46 -0.49,-0.76 -0.94,-0.69l0 0z"/>
   <path class="fil2 str1" d="M60.04 38.33l0 3.67 6.05 7.19c0.12,0.15 0.19,0.34 0.19,0.53l0 9.03c0,0.31 -0.18,0.6 -0.47,0.74 -0.11,0.05 -0.23,0.08 -0.35,0.08 -0.19,0 -0.37,-0.06 -0.52,-0.18l-5.17 -4.15c-0.61,1.71 -2.25,2.94 -4.17,2.94l-1.74 0 0 1.8c0,1.9 -1.55,3.45 -3.45,3.45l-4.64 0c-1.91,0 -3.45,-1.55 -3.45,-3.45l0 -1.8 -1.74 0c-1.92,0 -3.56,-1.23 -4.18,-2.94l-5.17 4.15c-0.14,0.12 -0.33,0.18 -0.51,0.18 -0.12,0 -0.24,-0.03 -0.36,-0.08 -0.28,-0.14 -0.46,-0.43 -0.46,-0.74l0 -9.03c0,-0.19 0.07,-0.38 0.19,-0.53l6.05 -7.19 0 -3.67c-0.14,-7.73 3.74,-14.11 11.51,-18.98 0.27,-0.16 0.61,-0.16 0.88,0 7.77,4.87 11.65,11.25 11.51,18.98l0 0zm-28.5 18.7l4.59 -3.69 0 -8.79 -4.59 5.47 0 7.01zm20.67 1.15l-8.25 0 0 1.8c0,0.99 0.81,1.8 1.81,1.8l4.64 0c0.99,0 1.8,-0.81 1.8,-1.8l0 -1.8zm6.19 -19.86c0.12,-6.98 -3.35,-12.8 -10.31,-17.29 -6.96,4.49 -10.43,10.31 -10.31,17.27l0 0.02 0 15.41c0,1.55 1.25,2.8 2.8,2.8l6.68 0 0 -17.83c0,-0.45 0.37,-0.82 0.83,-0.82 0.45,0 0.82,0.37 0.82,0.82l0 17.83 6.69 0c1.54,0 2.79,-1.25 2.79,-2.8l0 -15.41 0.01 0zm1.64 6.23l0 8.79 4.59 3.69 0 -7.01 -4.59 -5.47zm-7.52 -14.51c0,2.45 -1.99,4.44 -4.43,4.44 -2.45,0 -4.43,-1.99 -4.43,-4.44 0,-2.44 1.98,-4.43 4.43,-4.43 2.44,0 4.43,1.99 4.43,4.43zm-1.65 0c0,-1.53 -1.25,-2.78 -2.78,-2.78 -1.54,0 -2.79,1.25 -2.79,2.78 0,1.54 1.25,2.79 2.79,2.79 1.53,0 2.78,-1.25 2.78,-2.79zm-3.6 36.58l0 9.5c0,0.46 0.36,0.82 0.82,0.82 0.45,0 0.82,-0.36 0.82,-0.82l0 -9.5c0,-0.45 -0.37,-0.82 -0.82,-0.82 -0.46,0 -0.82,0.37 -0.82,0.82zm4.94 0l0 6.88c0,0.46 0.37,0.82 0.83,0.82 0.45,0 0.82,-0.36 0.82,-0.82l0 -6.88c0,-0.45 -0.37,-0.82 -0.82,-0.82 -0.46,0 -0.83,0.37 -0.83,0.82zm-9.89 0l0 6.88c0,0.46 0.37,0.82 0.82,0.82 0.45,0 0.82,-0.36 0.82,-0.82l0 -6.88c0,-0.45 -0.37,-0.82 -0.82,-0.82 -0.45,0 -0.82,0.37 -0.82,0.82z"/>
  </g>
 </g>
</svg>
