<?xml version="1.0" encoding="UTF-8"?>
<!DOCTYPE svg PUBLIC "-//W3C//DTD SVG 1.1//EN" "http://www.w3.org/Graphics/SVG/1.1/DTD/svg11.dtd">
<!-- Creator: CorelDRAW -->
<svg xmlns="http://www.w3.org/2000/svg" xml:space="preserve" width="640px" height="640px" version="1.1" style="shape-rendering:geometricPrecision; text-rendering:geometricPrecision; image-rendering:optimizeQuality; fill-rule:evenodd; clip-rule:evenodd"
viewBox="0 0 62.65 62.65"
 xmlns:xlink="http://www.w3.org/1999/xlink"
 xmlns:xodm="http://www.corel.com/coreldraw/odm/2003">
 <defs>
  <style type="text/css">
   <![CDATA[
    .fil0 {fill:none}
    .fil1 {fill:#002155;fill-rule:nonzero}
    .fil2 {fill:#FFC221;fill-rule:nonzero}
   ]]>
  </style>
 </defs>
 <g id="Layer_x0020_1">
  <metadata id="CorelCorpID_0Corel-Layer"/>
  <rect class="fil0" width="62.65" height="62.65"/>
 </g>
 <g id="Capa_x0020_1">
  <metadata id="CorelCorpID_1Corel-Layer"/>
  <g id="_2173840560944">
   <path class="fil1" d="M29.51 45.24l3.62 0c0.31,0 0.57,-0.25 0.57,-0.57 0,-0.31 -0.26,-0.56 -0.57,-0.56l-3.62 0c-0.31,0 -0.56,0.25 -0.56,0.56 0,0.32 0.25,0.57 0.56,0.57l0 0z"/>
   <path class="fil1" d="M33.62 35.52l-0.62 0c-0.31,0 -0.57,0.26 -0.57,0.57 0,0.31 0.26,0.57 0.57,0.57l0.62 0c0.31,0 0.57,-0.26 0.57,-0.57 0,-0.31 -0.26,-0.57 -0.57,-0.57l0 0z"/>
   <path class="fil1" d="M31.34 35.52l-2.32 0c-0.31,0 -0.56,0.26 -0.56,0.57 0,0.31 0.25,0.57 0.56,0.57l2.32 0c0.31,0 0.57,-0.26 0.57,-0.57 0,-0.31 -0.26,-0.57 -0.57,-0.57l0 0z"/>
   <path class="fil1" d="M53.3 29.66l0 -7.98c-0.01,-1.48 -1.2,-2.68 -2.68,-2.68l-5.09 0c0.31,-0.81 0.47,-1.67 0.47,-2.54 0,-0.05 0,-0.11 0,-0.16 0,-3.93 -3.19,-7.12 -7.12,-7.12 -3.93,0 -7.11,3.19 -7.11,7.12 0,0.05 0,0.11 0,0.16 0,0.87 0.16,1.73 0.47,2.54l-1.8 0c0.31,-0.81 0.47,-1.67 0.47,-2.54 0,-0.05 0,-0.11 0,-0.16 0,-3.93 -3.18,-7.12 -7.11,-7.12 -3.93,0 -7.12,3.19 -7.12,7.12 0,0.05 0,0.11 0,0.16 0,0.87 0.16,1.73 0.47,2.54l-5.13 0c-1.47,0 -2.67,1.2 -2.67,2.68 0,11.11 0,-3.12 0,23.63 0,1.48 1.2,2.68 2.67,2.68l13.77 0 0 4.34 -3.06 0c-0.31,0 -0.56,0.26 -0.56,0.57 0,0.31 0.25,0.57 0.56,0.57l17.23 0c0.31,0 0.56,-0.26 0.56,-0.57 0,-0.31 -0.25,-0.57 -0.56,-0.57l-3.06 0 0 -4.34 13.72 0c1.48,0 2.67,-1.2 2.68,-2.68l0 -15c0,-0.11 0,-0.21 0,-0.32 0,-0.11 0,-0.22 0,-0.33zm-14.43 -19.18c0.01,0 0.01,0 0.02,0 3.31,0 5.99,2.68 5.99,5.98 0,3.31 -2.68,5.99 -5.99,5.99 -3.31,0 -5.99,-2.68 -5.99,-5.99 0,0 0,0 0,0 0,-3.3 2.67,-5.97 5.97,-5.98l0 0zm-6.08 9.65c0.65,1.08 1.58,1.96 2.69,2.56l-4.16 5.23 -4.15 -5.2c1.11,-0.6 2.05,-1.49 2.7,-2.57l2.92 -0.02zm-1.47 17.76l-4.4 0 0 -6.19 8.8 0 0 6.19 -2.1 0c-0.13,0 -0.25,0.05 -0.35,0.13l-1.38 1.13 0 -0.69c0,-0.31 -0.26,-0.57 -0.57,-0.57l0 0zm-7.52 -27.41c0,0 0,0 0,0 3.31,0 5.99,2.68 5.99,5.98 0,3.31 -2.68,5.99 -5.99,5.99 -3.31,0 -5.99,-2.68 -5.99,-5.99 0,0 0,0 0,0 0.01,-3.3 2.68,-5.98 5.99,-5.98l0 0zm-13.32 11.2c0,-0.85 0.69,-1.55 1.54,-1.55l5.67 0c1.29,2.14 3.6,3.44 6.09,3.44 0.79,0 1.58,-0.13 2.32,-0.38l4.05 5.06 -6.8 0c-0.8,-3.15 -3.63,-5.36 -6.88,-5.36 -2.4,0 -4.65,1.22 -5.95,3.23l-0.04 -4.44zm0 7.98c0.17,-3.17 2.8,-5.66 5.98,-5.66 3.3,0 5.98,2.68 5.98,5.99 0,3.3 -2.68,5.98 -5.98,5.98 -3.18,0 -5.81,-2.48 -5.98,-5.66l0 -0.65zm25.3 22.67l-8.86 0 0 -4.34 8.85 0 0.01 4.34zm16.39 -7.02c0,0.86 -0.69,1.55 -1.54,1.55l-38.61 0c-0.85,0 -1.54,-0.69 -1.54,-1.55l0 -2.97 41.68 0 0.01 2.97zm0 -4.11l-41.69 0 0 -7.35c1.31,2.03 3.56,3.25 5.97,3.25 3.93,0 7.11,-3.18 7.11,-7.11 0,0 0,0 0,0 0,-0.2 0,-0.41 -0.03,-0.61l7.23 0.01 0 1.18 -4.41 0c-0.31,0 -0.56,0.25 -0.56,0.57l0 7.32c0,0.31 0.25,0.56 0.56,0.56l4.41 0 0 0.66c0,0 0,0 0,0.01 0,0.33 0.19,0.64 0.49,0.79 0.12,0.06 0.25,0.08 0.38,0.08 0.19,0 0.38,-0.06 0.53,-0.18l1.66 -1.34 2.47 0c0.31,0 0.57,-0.26 0.57,-0.57l0 -7.33c0,-0.32 -0.26,-0.57 -0.57,-0.57l-4.38 0 0 -1.18 7.21 0c0,0.19 -0.04,0.4 -0.04,0.6 0,0 0,0 0,0 0,3.93 3.19,7.11 7.11,7.11 2.42,0 4.66,-1.22 5.97,-3.25l0.01 7.35zm0 -10.89c-0.17,3.18 -2.8,5.66 -5.97,5.66 -3.31,0 -5.99,-2.68 -5.99,-5.98 0,-3.31 2.68,-5.99 5.99,-5.99 3.17,0 5.8,2.49 5.97,5.66l0 0.65zm0 -4.19c-1.31,-2.01 -3.55,-3.23 -5.95,-3.23 -3.25,0 -6.09,2.21 -6.89,5.36l-6.79 0 3.99 -5.08c0.76,0.27 1.56,0.41 2.36,0.41 2.49,0 4.8,-1.3 6.08,-3.43l5.67 0c0.85,0 1.54,0.7 1.54,1.55l-0.01 4.42z"/>
   <path class="fil1" d="M29.02 34.25l0.63 0c0.31,0 0.56,-0.26 0.56,-0.57 0,-0.31 -0.25,-0.56 -0.56,-0.56l-0.63 0c-0.31,0 -0.56,0.25 -0.56,0.56 0,0.31 0.25,0.57 0.56,0.57l0 0z"/>
   <path class="fil1" d="M31.32 34.25l2.32 0c0.31,0 0.57,-0.26 0.57,-0.57 0,-0.31 -0.26,-0.56 -0.57,-0.56l-2.32 0c-0.31,0 -0.56,0.25 -0.56,0.56 0,0.31 0.25,0.57 0.56,0.57l0 0z"/>
   <path class="fil2" d="M36.8 20.58l3.96 0c0.88,0 1.59,-0.71 1.59,-1.59l0 -1.99c0,-0.88 -0.71,-1.59 -1.59,-1.59l-2 0 0.37 -1.09c0.03,-0.12 0.05,-0.24 0.05,-0.36 0,-0.83 -0.68,-1.51 -1.51,-1.51 -0.61,0 -1.16,0.37 -1.39,0.92l-0.59 1.77c-0.16,0.49 -0.24,1 -0.24,1.51l0 2.56c0,0 0,0 0,0 0,0.75 0.6,1.36 1.35,1.37l0 0zm-0.24 -3.92c0,-0.39 0.07,-0.79 0.19,-1.16l0.59 -1.77c0.06,-0.12 0.19,-0.2 0.33,-0.2 0.21,0 0.38,0.17 0.38,0.38 0,0.01 -0.01,0.03 -0.01,0.04l-0.4 1.23c-0.04,0.1 -0.06,0.21 -0.06,0.32 0,0.57 0.46,1.03 1.03,1.03l2.15 0c0.25,0 0.46,0.2 0.46,0.46l0 1.99c0,0 0,0.01 0,0.01 0,0.25 -0.21,0.46 -0.46,0.46 0,0 0,0 0,0l-3.96 0c-0.13,0 -0.24,-0.11 -0.24,-0.24l0 -2.55z"/>
   <path class="fil2" d="M21.78 20.16l4.03 0c0,0 0,0 0,0 0.93,0 1.68,-0.75 1.68,-1.68l0 -4.03c0,0 0,0 0,0 0,-0.93 -0.75,-1.69 -1.68,-1.69l-4.03 0c-0.93,0 -1.68,0.76 -1.68,1.69 0,0 0,0 0,0l0 4.03c0,0.93 0.75,1.68 1.68,1.68 0,0 0,0 0,0l0 0zm-0.55 -5.71c0,0 0,0 0,0 0,-0.31 0.25,-0.55 0.55,-0.56l4.03 0c0.3,0.01 0.55,0.25 0.55,0.56 0,0 0,0 0,0l0 2.28 -0.49 -0.4c-0.1,-0.09 -0.22,-0.13 -0.35,-0.13 -0.14,0 -0.26,0.04 -0.36,0.13l-0.96 0.75 -1.16 -1.21c-0.1,-0.1 -0.25,-0.16 -0.4,-0.16 -0.13,0 -0.25,0.04 -0.35,0.12l-1.04 0.88 -0.02 -2.26zm0 3.77l1.36 -1.15 1.14 1.19c0.1,0.11 0.25,0.17 0.4,0.17 0.13,0 0.25,-0.04 0.35,-0.12l1 -0.8 0.86 0.71 0 0.26c0,0.31 -0.25,0.55 -0.55,0.55l-4.01 0c-0.3,0 -0.55,-0.24 -0.55,-0.55l0 -0.26z"/>
   <path class="fil1" d="M49.77 27.75c-0.13,-0.08 -0.28,-0.12 -0.43,-0.12 -0.15,0 -0.3,0.04 -0.43,0.12l-0.86 0.48 0 0c0,-0.63 -0.51,-1.14 -1.13,-1.14l-3.58 0c-0.63,0 -1.13,0.51 -1.13,1.14l0 3.54c0,0.63 0.5,1.13 1.13,1.13l3.57 0c0.62,0 1.13,-0.5 1.13,-1.13l0 0 0.86 0.48c0.13,0.07 0.27,0.11 0.42,0.11 0.48,0 0.87,-0.39 0.87,-0.86l0 -3.01c0,0 0,0 0,0 0,-0.31 -0.16,-0.59 -0.42,-0.74l0 0zm-2.86 4.03l-3.58 0 0 -3.58 3.57 0 0.01 3.58zm2.15 -0.76l-1.01 -0.56 0 -0.95 1.02 -0.56 -0.01 2.07z"/>
   <path class="fil1" d="M14.01 32.29l0.78 0 1.6 1.06c0.18,0.12 0.39,0.19 0.6,0.19 0.6,0 1.09,-0.49 1.09,-1.09 0,0 0,0 0,0l0 -0.14 0.81 0c0.86,0 1.57,-0.71 1.57,-1.58 0,0 0,0 0,0l0 -2.72c0,-0.87 -0.71,-1.57 -1.57,-1.57l-4.88 0c-0.87,0 -1.57,0.71 -1.57,1.57 0,0 0,0 0,0l0 2.71c0,0 0,0 0,0 0,0.86 0.7,1.57 1.57,1.57l0 0zm-0.43 -4.28c0,-0.24 0.19,-0.44 0.43,-0.44l4.88 0c0.24,0 0.43,0.2 0.43,0.44l0 2.71c0,0 0,0 0,0 0,0.24 -0.19,0.44 -0.43,0.44l-1.38 0c0,0 0,0 0,0 -0.31,0 -0.57,0.25 -0.57,0.56 0,0 0,0.01 0,0.01l0 0.63 -1.66 -1.11c-0.1,-0.06 -0.2,-0.09 -0.31,-0.09 -0.01,0 -0.01,0 -0.01,0l-0.95 0c-0.24,-0.01 -0.43,-0.2 -0.43,-0.44 0,0 0,0 0,0l0 -2.71z"/>
  </g>
 </g>
</svg>
