<?xml version="1.0" encoding="UTF-8"?>
<!DOCTYPE svg PUBLIC "-//W3C//DTD SVG 1.1//EN" "http://www.w3.org/Graphics/SVG/1.1/DTD/svg11.dtd">
<!-- Creator: CorelDRAW -->
<svg xmlns="http://www.w3.org/2000/svg" xml:space="preserve" width="640px" height="640px" version="1.1" style="shape-rendering:geometricPrecision; text-rendering:geometricPrecision; image-rendering:optimizeQuality; fill-rule:evenodd; clip-rule:evenodd"
viewBox="0 0 48.72 48.72"
 xmlns:xlink="http://www.w3.org/1999/xlink"
 xmlns:xodm="http://www.corel.com/coreldraw/odm/2003">
 <defs>
  <style type="text/css">
   <![CDATA[
    .fil0 {fill:none}
    .fil1 {fill:#002155;fill-rule:nonzero}
    .fil2 {fill:#FFC221;fill-rule:nonzero}
   ]]>
  </style>
 </defs>
 <g id="Layer_x0020_1">
  <metadata id="CorelCorpID_0Corel-Layer"/>
  <rect class="fil0" width="48.72" height="48.72"/>
  <g id="_2173813467344">
   <path class="fil1" d="M34.45 12.91c0.85,0 1.55,-0.7 1.55,-1.56 0,-0.86 -0.7,-1.56 -1.55,-1.56 -0.86,0 -1.56,0.7 -1.56,1.56 0,0.86 0.7,1.56 1.56,1.56zm0 -2.21c0.35,0 0.64,0.29 0.64,0.65 0,0.35 -0.29,0.64 -0.64,0.64 -0.36,0 -0.65,-0.29 -0.65,-0.64 0,-0.36 0.29,-0.65 0.65,-0.65z"/>
   <path class="fil1" d="M30.68 12.91c0.86,0 1.56,-0.7 1.56,-1.56 0,-0.86 -0.7,-1.56 -1.56,-1.56 -0.86,0 -1.56,0.7 -1.56,1.56 0,0.86 0.7,1.56 1.56,1.56zm0 -2.21c0.36,0 0.65,0.29 0.65,0.65 0,0.35 -0.29,0.64 -0.65,0.64 -0.35,0 -0.65,-0.29 -0.65,-0.64 0,-0.36 0.29,-0.65 0.65,-0.65z"/>
   <path class="fil1" d="M26.91 12.91c0.85,0 1.55,-0.7 1.55,-1.56 0,-0.86 -0.7,-1.56 -1.55,-1.56 -0.86,0 -1.56,0.7 -1.56,1.56 0,0.86 0.7,1.56 1.56,1.56zm0 -2.21c0.35,0 0.64,0.29 0.64,0.65 0,0.35 -0.29,0.64 -0.64,0.64 -0.36,0 -0.65,-0.29 -0.65,-0.64 0,-0.36 0.29,-0.65 0.65,-0.65z"/>
   <path class="fil1" d="M11.04 11.8l11.72 0c0.25,0 0.45,-0.2 0.45,-0.45 0,-0.25 -0.21,-0.45 -0.45,-0.45l-11.72 0c-0.25,0 -0.45,0.2 -0.45,0.45 0,0.25 0.2,0.45 0.45,0.45l0 0z"/>
   <path class="fil2" d="M23.7 22.12l10.98 0c0.43,0 0.77,-0.34 0.77,-0.77l0 -4.04c0,-0.42 -0.34,-0.77 -0.77,-0.77l-10.98 0c-0.43,0 -0.77,0.34 -0.77,0.77l0 4.04c-0.01,0.43 0.34,0.77 0.77,0.77l0 0zm0.13 -4.68l10.72 0 0 3.77 -10.72 0 0 -3.77z"/>
   <path class="fil1" d="M32.87 23.74l-6.59 0c-0.25,0 -0.45,0.21 -0.45,0.45 0,0.25 0.2,0.46 0.45,0.46l6.6 0c0.25,0 0.45,-0.21 0.45,-0.46 0,-0.24 -0.21,-0.45 -0.46,-0.45z"/>
   <path class="fil1" d="M30.35 26.22l-6.97 0c-0.26,0 -0.46,0.21 -0.46,0.46 0,0.24 0.21,0.45 0.46,0.45l6.97 0c0.25,0 0.45,-0.21 0.45,-0.45 0,-0.25 -0.2,-0.46 -0.45,-0.46l0 0z"/>
   <path class="fil1" d="M23.38 29.61l6.49 0c0.26,0 0.46,-0.2 0.46,-0.45 0,-0.25 -0.21,-0.45 -0.46,-0.45l-6.49 0c-0.26,0 -0.46,0.2 -0.46,0.45 0,0.25 0.21,0.45 0.46,0.45z"/>
   <path class="fil1" d="M30.03 31.19l-6.65 0c-0.26,0 -0.46,0.2 -0.46,0.45 0,0.25 0.21,0.45 0.46,0.45l6.65 0c0.25,0 0.45,-0.2 0.45,-0.45 0,-0.25 -0.2,-0.45 -0.45,-0.45l0 0z"/>
   <path class="fil1" d="M18.34 33.96l-2.62 -1.88c-0.28,-0.2 -0.66,-0.23 -0.96,-0.07 -0.31,0.16 -0.5,0.47 -0.5,0.82l0 3.77c0,0.35 0.19,0.66 0.5,0.81 0.13,0.07 0.28,0.11 0.42,0.11 0.19,0 0.37,-0.06 0.54,-0.18l2.62 -1.88c0.25,-0.17 0.38,-0.45 0.38,-0.75 0,-0.29 -0.13,-0.57 -0.38,-0.75l0 0zm-0.52 0.76l-2.65 1.88 0.02 -3.78 2.63 1.89c0,0.01 0,0.01 0,0.01l0 0z"/>
   <path class="fil1" d="M41.42 22c-0.09,-0.59 -0.41,-1.11 -0.88,-1.46 -0.36,-0.26 -0.78,-0.4 -1.22,-0.42l0 -10.5c0,-0.89 -0.72,-1.61 -1.61,-1.61l-28.83 0c-0.89,0 -1.61,0.72 -1.61,1.61l0 23.88c0,0.88 0.72,1.6 1.61,1.6l1.33 0c0.21,3.13 2.8,5.61 5.98,5.61 3.17,0 5.77,-2.48 5.97,-5.61l15.55 0c0.89,0 1.61,-0.72 1.61,-1.6l0 -7.5 1.71 -2.34c0.34,-0.48 0.49,-1.06 0.39,-1.66l0 0zm-0.89 0.14c0.05,0.35 -0.04,0.7 -0.24,0.98l-0.28 0.37 -2.14 -1.56 0.28 -0.37c0.21,-0.28 0.51,-0.47 0.86,-0.53 0.07,-0.01 0.14,-0.01 0.21,-0.01 0.28,0 0.55,0.08 0.78,0.25 0.28,0.22 0.47,0.52 0.53,0.87zm-5 7.51l-2.14 -1.56 3.95 -5.42 2.14 1.56 -3.95 5.42zm-2.73 -0.37c0.02,-0.15 0.06,-0.29 0.11,-0.42l2.04 1.48c-0.11,0.09 -0.23,0.17 -0.37,0.23l-2.04 0.93 0.26 -2.22zm-23.92 -20.36l28.83 0c0.39,0 0.7,0.31 0.7,0.7l0 4.15 -30.23 0 0 -4.15c0,-0.38 0.31,-0.7 0.7,-0.7l0 0zm7.31 30.88c-2.8,0 -5.09,-2.28 -5.09,-5.08 0,-2.81 2.29,-5.09 5.09,-5.09 2.8,0 5.08,2.28 5.08,5.09 0,2.8 -2.28,5.08 -5.08,5.08zm22.22 -6.3c0,0.38 -0.31,0.7 -0.7,0.7l-15.56 0c-0.26,-3.07 -2.83,-5.48 -5.96,-5.48 -3.13,0 -5.71,2.41 -5.97,5.48l-1.34 0c-0.39,0 -0.7,-0.32 -0.7,-0.7l0 -18.82 30.23 0 0 5.59c-0.39,0.15 -0.74,0.41 -1,0.76l-5.02 6.89c-0.01,0.02 -0.01,0.03 -0.02,0.04 0,0 0,0 -0.01,0l0 0.01c-0.25,0.36 -0.41,0.77 -0.47,1.21l-0.31 2.61c-0.03,0.25 0.08,0.49 0.28,0.65 0.12,0.08 0.26,0.13 0.41,0.13 0.1,0 0.2,-0.02 0.29,-0.06l2.39 -1.1c0.41,-0.19 0.77,-0.48 1.03,-0.84l2.42 -3.31 0 6.24 0.01 0z"/>
   <path class="fil2" d="M20.21 22.63l-0.48 -0.31c0.03,-0.45 0.01,-0.89 -0.08,-1.32l0.44 -0.36c0.26,-0.21 0.34,-0.57 0.2,-0.87l-0.32 -0.65c-0.15,-0.29 -0.48,-0.45 -0.79,-0.38l-0.56 0.12c-0.29,-0.33 -0.62,-0.63 -0.99,-0.88l0.05 -0.57c0.03,-0.33 -0.16,-0.64 -0.47,-0.75l-0.69 -0.24c-0.31,-0.11 -0.66,0.01 -0.84,0.29l-0.3 0.49c-0.45,-0.04 -0.89,-0.01 -1.33,0.07l-0.36 -0.45c-0.21,-0.25 -0.57,-0.33 -0.86,-0.18l-0.66 0.31c-0.3,0.15 -0.46,0.47 -0.39,0.8l0.12 0.56c-0.33,0.28 -0.63,0.61 -0.88,0.99l-0.57 -0.06c-0.33,-0.04 -0.63,0.16 -0.74,0.47l-0.24 0.69c-0.11,0.31 0.01,0.65 0.29,0.83l0.48 0.31c-0.04,0.45 -0.01,0.89 0.08,1.32l-0.44 0.37c-0.26,0.2 -0.34,0.56 -0.2,0.86l0.32 0.65c0.14,0.29 0.47,0.46 0.79,0.39l0.56 -0.13c0.29,0.34 0.62,0.64 0.99,0.88l-0.05 0.58c-0.04,0.33 0.16,0.63 0.47,0.74l0.69 0.24c0.08,0.03 0.16,0.04 0.24,0.04 0.23,0 0.46,-0.12 0.59,-0.33l0.31 -0.49c0.44,0.04 0.89,0.02 1.33,-0.07l0.36 0.45c0.21,0.25 0.57,0.33 0.86,0.18l0.66 -0.31c0.3,-0.15 0.46,-0.47 0.39,-0.79l-0.13 -0.56c0.34,-0.29 0.64,-0.62 0.88,-0.99l0.58 0.05c0.33,0.03 0.63,-0.16 0.74,-0.47l0.24 -0.69c0.1,-0.31 -0.01,-0.65 -0.29,-0.83l0 0zm-0.76 1.07l-0.7 -0.07c-0.18,-0.01 -0.35,0.07 -0.44,0.23 -0.26,0.45 -0.61,0.85 -1.02,1.15 -0.15,0.11 -0.21,0.29 -0.17,0.47l0.15 0.68 -0.38 0.19 -0.45 -0.55c-0.11,-0.14 -0.29,-0.2 -0.47,-0.15 -0.5,0.14 -1.01,0.17 -1.54,0.09 -0.17,-0.03 -0.35,0.05 -0.44,0.2l-0.38 0.6 -0.39 -0.14 0.07 -0.7c0.01,-0.18 -0.07,-0.35 -0.23,-0.44 -0.46,-0.26 -0.84,-0.61 -1.15,-1.03 -0.11,-0.14 -0.29,-0.21 -0.46,-0.17l-0.69 0.15 -0.18 -0.37 0.54 -0.44c0.14,-0.12 0.2,-0.3 0.16,-0.47 -0.14,-0.51 -0.17,-1.02 -0.09,-1.54 0.03,-0.18 -0.05,-0.35 -0.21,-0.45l-0.59 -0.38 0.14 -0.39 0.7 0.07c0.18,0.02 0.35,-0.07 0.44,-0.23 0.26,-0.45 0.61,-0.84 1.02,-1.15 0.15,-0.11 0.21,-0.29 0.17,-0.46l-0.15 -0.69 0.38 -0.19 0.45 0.55c0.11,0.14 0.29,0.2 0.46,0.15 0.5,-0.14 1.03,-0.17 1.54,-0.09 0.18,0.03 0.36,-0.05 0.45,-0.2l0.38 -0.59 0.39 0.14 -0.07 0.7c-0.02,0.17 0.07,0.35 0.23,0.43 0.45,0.27 0.84,0.61 1.15,1.03 0.11,0.15 0.28,0.21 0.46,0.17l0.68 -0.15 0.18 0.37 -0.54 0.44c-0.14,0.12 -0.2,0.3 -0.15,0.47 0.13,0.51 0.16,1.03 0.08,1.54 -0.02,0.18 0.06,0.35 0.21,0.45l0.59 0.38 -0.13 0.39z"/>
   <path class="fil2" d="M15.74 19.76c-0.58,-0.2 -1.2,-0.16 -1.75,0.11 -0.55,0.26 -0.97,0.73 -1.17,1.3 -0.2,0.58 -0.17,1.2 0.1,1.75 0.4,0.82 1.21,1.3 2.07,1.3 0.33,0 0.67,-0.08 0.99,-0.23 1.14,-0.55 1.61,-1.92 1.07,-3.06 -0.27,-0.55 -0.74,-0.96 -1.31,-1.17zm-0.15 3.41c-0.69,0.33 -1.52,0.04 -1.85,-0.64 -0.16,-0.33 -0.18,-0.7 -0.06,-1.05 0.13,-0.35 0.37,-0.63 0.71,-0.8 0.18,-0.09 0.39,-0.14 0.6,-0.14 0.15,0 0.31,0.03 0.45,0.08 0.35,0.12 0.63,0.37 0.79,0.7 0.33,0.69 0.04,1.52 -0.64,1.85l0 0z"/>
  </g>
 </g>
</svg>
