<?xml version="1.0" encoding="UTF-8"?>
<!DOCTYPE svg PUBLIC "-//W3C//DTD SVG 1.1//EN" "http://www.w3.org/Graphics/SVG/1.1/DTD/svg11.dtd">
<!-- Creator: CorelDRAW 2019 (64-Bit) -->
<svg xmlns="http://www.w3.org/2000/svg" xml:space="preserve" width="640px" height="640px" version="1.1" style="shape-rendering:geometricPrecision; text-rendering:geometricPrecision; image-rendering:optimizeQuality; fill-rule:evenodd; clip-rule:evenodd"
viewBox="0 0 83.97 83.97"
 xmlns:xlink="http://www.w3.org/1999/xlink">
 <defs>
  <style type="text/css">
   <![CDATA[
    .fil0 {fill:none}
    .fil1 {fill:#0A2155}
    .fil2 {fill:#FFC221}
   ]]>
  </style>
 </defs>
 <g id="Layer_x0020_1">
  <metadata id="CorelCorpID_0Corel-Layer"/>
  <rect class="fil0" width="83.97" height="83.97"/>
 </g>
 <g id="Layer_x0020_1_0">
  <metadata id="CorelCorpID_1Corel-Layer"/>
  <g id="_2891231627216">
   <path class="fil1" d="M32.7 32.56c-4.52,-0.02 -9.93,-0.31 -14.29,-1.51 -3.53,-0.97 -2.74,-1.9 -2.75,-8.37l-0.01 -1.81c2.9,0.72 4.73,1.43 8.03,1.82 2.98,0.35 5.99,0.5 9.02,0.49 4.11,-0.01 9.09,-0.29 13.11,-1.21 1.31,-0.3 2.63,-0.88 3.75,-1.03 -0.01,2.37 0,4.74 0.01,7.12 0.01,1.95 0.16,2.3 -3.73,3.25 -4.04,0.99 -8.8,1.26 -13.14,1.25zm-6.91 -17.83c5.96,-0.57 13.16,-0.43 18.94,0.7 1.48,0.3 8.01,2.05 3.5,3.85 -6.84,2.72 -26.04,2.64 -31.5,-0.1 -1.82,-0.92 -1.36,-2.16 0.36,-2.82 2.45,-0.95 5.73,-1.35 8.7,-1.63zm11 42.21l0.14 -1.87c-5.61,-0.26 -17.51,0.44 -21.19,-2.79l-0.09 -8.84c11.73,3.14 19.33,2.7 31.31,0.86l-0.3 -1.61 -1.52 -0.01c-7.37,1.45 -25.18,2.12 -29.39,-1.67l-0.1 -8.86c5.95,1.71 10.12,2.29 16.77,2.31 8.13,0.02 9.72,-0.46 16.92,-2.24 0.67,1.53 -0.22,1.34 2.08,1.27 -0.05,-18.41 3.03,-19.18 -11.19,-20.62 -5.58,-0.56 -26.04,-1.16 -26.42,4.72l0.03 11.86c0.18,2.75 -0.26,7.45 0,11.28 0.15,2.22 -0.03,4.93 -0.03,7.61 0,3.23 -0.62,4.98 1.73,6.17 5.25,2.65 15.42,2.43 21.25,2.43z"/>
   <path class="fil2" d="M55.54 50.42c-1.88,1.64 -3.28,3.68 -4.97,5.06 -1.67,1.38 -2.05,-0.34 -3.77,1.31 -2.31,2.2 -0.6,1.43 -1.41,3.92 -0.47,0.61 -4.1,-0.31 -4.71,2.62 -0.47,2.21 0.92,1.57 -2.62,4.74 -0.88,-0.29 -1.53,-0.8 -2.25,-1.4 -0.16,-1.24 -0.29,-3.17 0.16,-4.06 0.22,-0.44 14.08,-14 15.55,-15.96 -1.22,-3.83 -1.97,-7.46 2.02,-11.03 7.2,-6.44 18.1,2.93 12.91,11.22 -3.5,5.57 -8.15,3.92 -10.91,3.58zm-22.29 17.72l5.03 3.3c1.4,-1.25 2.04,-1.93 3.17,-3.08 3.02,-3.06 0.69,-2.19 1.97,-4.57 2.07,-0.72 1.86,0.67 3.62,-1.12 1.8,-1.85 0.49,-1.69 1.19,-3.88l2.96 -0.26 4.34 -4.57c0.91,-0.87 0.02,-0.59 1.4,-0.61 1.5,-0.01 2.16,0.36 3.97,0.07 3.98,-0.64 7.08,-3.41 8.46,-6.77 3.43,-8.36 -3.85,-17.51 -12.82,-15.35 -3.78,0.91 -6.69,3.75 -7.87,7.08 -2.12,5.97 1.71,6.2 -1.46,9.24 -0.74,0.71 -1.24,1.25 -1.95,1.99 -3.64,3.77 -8.38,8.15 -11.39,11.46 -1.14,1.25 -0.73,4.93 -0.62,7.07z"/>
   <polygon class="fil1" points="18.43,51.05 20.91,51.06 20.91,48.53 18.45,48.53 "/>
   <polygon class="fil2" points="60.32,41.03 62.84,41.02 62.82,38.55 60.42,38.5 "/>
   <polygon class="fil1" points="18.45,39.73 20.81,39.81 20.93,37.28 18.43,37.33 "/>
   <polygon class="fil1" points="18.49,28.48 20.87,28.54 20.91,25.97 18.43,26.13 "/>
  </g>
 </g>
</svg>
