<?xml version="1.0" encoding="UTF-8"?>
<!DOCTYPE svg PUBLIC "-//W3C//DTD SVG 1.1//EN" "http://www.w3.org/Graphics/SVG/1.1/DTD/svg11.dtd">
<!-- Creator: CorelDRAW -->
<svg xmlns="http://www.w3.org/2000/svg" xml:space="preserve" width="640px" height="640px" version="1.1" style="shape-rendering:geometricPrecision; text-rendering:geometricPrecision; image-rendering:optimizeQuality; fill-rule:evenodd; clip-rule:evenodd"
viewBox="0 0 60.67 60.67"
 xmlns:xlink="http://www.w3.org/1999/xlink"
 xmlns:xodm="http://www.corel.com/coreldraw/odm/2003">
 <defs>
  <style type="text/css">
   <![CDATA[
    .fil0 {fill:none}
    .fil1 {fill:#002155;fill-rule:nonzero}
    .fil2 {fill:#FFC221;fill-rule:nonzero}
   ]]>
  </style>
 </defs>
 <g id="Layer_x0020_1">
  <metadata id="CorelCorpID_0Corel-Layer"/>
  <rect class="fil0" width="60.67" height="60.67"/>
 </g>
 <g id="Capa_x0020_1">
  <metadata id="CorelCorpID_1Corel-Layer"/>
  <g id="_2173574141008">
   <path class="fil1" d="M40.14 33.64l-3.01 -0.64c-0.41,-0.09 -0.81,0.17 -0.89,0.58 -0.09,0.4 0.17,0.8 0.58,0.89l3 0.64c0.06,0.01 0.11,0.02 0.16,0.02 0.35,0 0.66,-0.24 0.74,-0.6 0.08,-0.4 -0.17,-0.8 -0.58,-0.89l0 0z"/>
   <path class="fil1" d="M28.1 31.07l-0.88 -0.19 0 -0.89c0,-0.42 -0.34,-0.75 -0.75,-0.75 -0.42,0 -0.75,0.33 -0.75,0.75l0 1.5c0,0.36 0.25,0.66 0.59,0.74l1.48 0.31c0.05,0.01 0.1,0.02 0.15,0.02 0.35,0 0.66,-0.24 0.74,-0.6 0.08,-0.4 -0.18,-0.8 -0.58,-0.89l0 0z"/>
   <path class="fil1" d="M26.47 27.74c0.41,0 0.75,-0.33 0.75,-0.75l0 -3c0,-0.41 -0.34,-0.75 -0.75,-0.75 -0.42,0 -0.75,0.34 -0.75,0.75l0 3c0,0.42 0.33,0.75 0.75,0.75z"/>
   <path class="fil1" d="M23.47 32.05l-1.5 0.7c-0.38,0.18 -0.54,0.62 -0.36,1 0.12,0.27 0.39,0.43 0.68,0.43 0.1,0 0.21,-0.02 0.31,-0.07l1.5 -0.69c0.38,-0.18 0.54,-0.63 0.37,-1 -0.18,-0.38 -0.62,-0.54 -1,-0.37l0 0z"/>
   <path class="fil2" d="M13.98 32.47c-3.52,1.4 -5.45,3.23 -5.45,5.25 0,3.54 5.91,6.44 15.1,7.46l0 1.99c0,0.28 0.16,0.53 0.4,0.67 0.11,0.06 0.23,0.09 0.36,0.09 0.14,0 0.28,-0.05 0.41,-0.13l3.71 -2.45c0.21,-0.14 0.34,-0.37 0.34,-0.62 0,-0.26 -0.13,-0.49 -0.34,-0.63l-3.71 -2.45c-0.23,-0.15 -0.53,-0.17 -0.77,-0.03 -0.24,0.13 -0.4,0.38 -0.4,0.66l0 1.39c-8.83,-1.02 -13.59,-3.78 -13.59,-5.95 0,-1.24 1.44,-2.54 3.94,-3.62l0 -1.63zm32.71 1.62c2.5,1.09 3.95,2.38 3.95,3.63 0,2.24 -4.82,5.02 -14.03,6 -0.41,0.04 -0.71,0.41 -0.67,0.83 0.04,0.38 0.37,0.67 0.75,0.67 0.03,0 0.05,0 0.08,-0.01 9.34,-0.99 15.37,-3.93 15.37,-7.49 0,-2.02 -1.92,-3.85 -5.45,-5.25l0 1.62zm-21.55 9.58l1.59 1.06 -1.59 1.05 0 -2.11z"/>
   <path class="fil1" d="M45.21 31.93l0 -2.04 0 -12.55c0,-0.35 -0.24,-0.66 -0.59,-0.73l-17.87 -3.82c-0.03,-0.01 -0.21,-0.04 -0.28,-0.04 -0.15,0 -0.45,0.13 -0.47,0.14l-10.06 4.68c-0.03,0.01 -0.16,0.09 -0.2,0.12 -0.18,0.14 -0.28,0.36 -0.28,0.58l0 13.66 0 0 0 1.59 0 1.51 0 1.24c0,0.35 0.25,0.66 0.6,0.73l17.99 3.84c0.05,0.01 0.1,0.02 0.15,0.02l0.01 0c0.1,0 0.3,-0.07 0.31,-0.07l10.26 -4.78c0.26,-0.12 0.43,-0.39 0.43,-0.68l0 -1.81 0 0 0 -1.59zm-2.06 2.35c-0.41,-0.09 -0.81,0.18 -0.89,0.58 -0.05,0.22 0.01,0.44 0.14,0.61l-7.44 3.46 0 -16.34 8.75 -3.99 0 15.81 -0.56 -0.13zm-16.68 -17.03c-0.42,0 -0.75,0.33 -0.75,0.75l0 1.53 -7.16 -1.52 7.16 -3.33 0 0.32c0,0.42 0.34,0.76 0.75,0.76 0.42,0 0.75,-0.34 0.75,-0.76l0 -0.57 14.99 3.2 -8.11 3.69 -6.88 -1.46 0 -1.86c0,-0.42 -0.33,-0.75 -0.75,-0.75l0 0zm-7.91 18.75l1.32 -0.62c0.37,-0.17 0.54,-0.62 0.36,-1 -0.17,-0.37 -0.62,-0.53 -1,-0.36l-2.28 1.06 0 -15.88 8.77 1.88c0.04,0.37 0.35,0.67 0.74,0.67 0.28,0 0.51,-0.16 0.64,-0.38l6.34 1.35 0 9.49 -2.34 -0.5c-0.41,-0.09 -0.81,0.17 -0.89,0.58 -0.09,0.41 0.17,0.81 0.57,0.89l2.66 0.57 0 5.43 -14.89 -3.18z"/>
  </g>
 </g>
</svg>
