<?xml version="1.0" encoding="UTF-8"?>
<!DOCTYPE svg PUBLIC "-//W3C//DTD SVG 1.1//EN" "http://www.w3.org/Graphics/SVG/1.1/DTD/svg11.dtd">
<!-- Creator: CorelDRAW -->
<svg xmlns="http://www.w3.org/2000/svg" xml:space="preserve" width="640px" height="640px" version="1.1" style="shape-rendering:geometricPrecision; text-rendering:geometricPrecision; image-rendering:optimizeQuality; fill-rule:evenodd; clip-rule:evenodd"
viewBox="0 0 35.29 35.29"
 xmlns:xlink="http://www.w3.org/1999/xlink"
 xmlns:xodm="http://www.corel.com/coreldraw/odm/2003">
 <defs>
  <style type="text/css">
   <![CDATA[
    .fil0 {fill:none}
    .fil3 {fill:#002155}
    .fil1 {fill:#002155;fill-rule:nonzero}
    .fil2 {fill:#FFC221;fill-rule:nonzero}
   ]]>
  </style>
 </defs>
 <g id="Layer_x0020_1">
  <metadata id="CorelCorpID_0Corel-Layer"/>
  <rect class="fil0" width="35.29" height="35.29"/>
 </g>
 <g id="Capa_x0020_1">
  <metadata id="CorelCorpID_1Corel-Layer"/>
  <path class="fil1" d="M7.8 28.58l19.69 0c0.3,0 0.57,-0.13 0.77,-0.32 0.2,-0.2 0.32,-0.47 0.32,-0.77l0 -0.58 -21.86 0 0 0.58c0,0.3 0.12,0.57 0.31,0.77 0.2,0.19 0.47,0.32 0.77,0.32zm19.69 0.92l-19.69 0c-0.55,0 -1.06,-0.22 -1.42,-0.59 -0.36,-0.36 -0.59,-0.86 -0.59,-1.42l0 -1.04c0,-0.26 0.21,-0.47 0.46,-0.47l22.79 0c0.26,0 0.46,0.21 0.46,0.47l0 1.04c0,0.56 -0.22,1.06 -0.59,1.42 -0.36,0.37 -0.86,0.59 -1.42,0.59z"/>
  <path class="fil1" d="M26.41 12.84c-0.26,-0.03 -0.44,-0.26 -0.42,-0.51 0.03,-0.25 0.25,-0.44 0.51,-0.41 0.58,0.06 1.11,0.33 1.48,0.75 0.37,0.41 0.6,0.95 0.6,1.55l0 12.23c0,0.25 -0.21,0.46 -0.47,0.46 -0.01,0 -0.02,0 -0.04,0l-20.89 0c-0.26,0 -0.46,-0.21 -0.46,-0.46l0 0 0 -12.23c0,-0.63 0.25,-1.2 0.66,-1.62 0.4,-0.42 0.97,-0.68 1.6,-0.69 0.25,-0.01 0.47,0.19 0.47,0.45 0.01,0.25 -0.2,0.46 -0.45,0.47 -0.38,0.01 -0.72,0.17 -0.96,0.42 -0.25,0.25 -0.4,0.59 -0.4,0.97l0 11.76 20.01 0 0 -11.76c0,-0.36 -0.13,-0.69 -0.36,-0.93 -0.22,-0.25 -0.53,-0.42 -0.88,-0.45z"/>
  <path class="fil1" d="M25.57 8.29c0.26,0 0.47,0.21 0.47,0.46 0,0.26 -0.21,0.47 -0.47,0.47l-4.82 0c-0.26,0 -0.46,-0.21 -0.46,-0.47 0,-0.25 0.2,-0.46 0.46,-0.46l4.82 0zm-8.99 0c0.26,0 0.46,0.21 0.46,0.46 0,0.26 -0.2,0.47 -0.46,0.47l-7.08 0 0 16.76 16.3 0 0 -13.21c0,-0.26 0.21,-0.47 0.46,-0.47 0.26,0 0.46,0.21 0.46,0.47l0 13.68c0,0.25 -0.2,0.46 -0.46,0.46l-17.23 0c-0.25,0 -0.46,-0.21 -0.46,-0.46l0 -17.7c0,-0.25 0.21,-0.46 0.46,-0.46l7.55 0z"/>
  <path class="fil1" d="M18.2 11.81l-6.11 0 0 0.93 6.11 0 0 -0.93zm-6.57 -0.93l7.04 0c0.25,0 0.46,0.21 0.46,0.47l0 1.85c0,0.26 -0.21,0.46 -0.46,0.46l-7.04 0c-0.26,0 -0.47,-0.2 -0.47,-0.46l0 -1.85c0,-0.26 0.21,-0.47 0.47,-0.47z"/>
  <path class="fil1" d="M11.63 15.8c-0.26,0 -0.47,-0.21 -0.47,-0.46 0,-0.26 0.21,-0.47 0.47,-0.47l10.06 0c0.25,0 0.46,0.21 0.46,0.47 0,0.25 -0.21,0.46 -0.46,0.46l-10.06 0z"/>
  <path class="fil1" d="M11.63 17.93c-0.26,0 -0.47,-0.21 -0.47,-0.46 0,-0.26 0.21,-0.47 0.47,-0.47l8.91 0c0.26,0 0.46,0.21 0.46,0.47 0,0.25 -0.2,0.46 -0.46,0.46l-8.91 0z"/>
  <path class="fil1" d="M11.63 20.06c-0.26,0 -0.47,-0.21 -0.47,-0.46 0,-0.26 0.21,-0.47 0.47,-0.47l7.64 0c0.26,0 0.47,0.21 0.47,0.47 0,0.25 -0.21,0.46 -0.47,0.46l-7.64 0z"/>
  <path class="fil1" d="M11.63 24.32c-0.26,0 -0.47,-0.21 -0.47,-0.46 0,-0.26 0.21,-0.47 0.47,-0.47l4.45 0c0.26,0 0.47,0.21 0.47,0.47 0,0.25 -0.21,0.46 -0.47,0.46l-4.45 0z"/>
  <path class="fil1" d="M11.63 22.19c-0.26,0 -0.47,-0.21 -0.47,-0.46 0,-0.26 0.21,-0.47 0.47,-0.47l7.64 0c0.26,0 0.47,0.21 0.47,0.47 0,0.25 -0.21,0.46 -0.47,0.46l-7.64 0z"/>
  <path class="fil2" d="M20.09 19.26l-0.23 1.98 1.6 -1.19 7.01 -12.15c0.01,-0.01 0.01,-0.02 0.01,-0.02 0.1,-0.18 0.12,-0.39 0.07,-0.58 -0.05,-0.2 -0.18,-0.37 -0.36,-0.48 -0.19,-0.11 -0.41,-0.13 -0.6,-0.08 -0.2,0.05 -0.37,0.18 -0.48,0.37 -0.01,0.01 -0.01,0.02 -0.02,0.02l-7 12.13zm-1.28 2.94l0.37 -3.14 0.01 0c0,-0.06 0.02,-0.12 0.05,-0.18l7.05 -12.21c0.01,-0.01 0.01,-0.02 0.02,-0.02 0.23,-0.41 0.61,-0.69 1.04,-0.8 0.42,-0.11 0.88,-0.07 1.29,0.17 0.42,0.24 0.69,0.62 0.8,1.04 0.11,0.41 0.07,0.87 -0.15,1.27 -0.01,0.01 -0.01,0.02 -0.02,0.03l-7.05 12.21c-0.03,0.06 -0.07,0.12 -0.13,0.16l-2.54 1.89 0 0c-0.09,0.07 -0.21,0.11 -0.33,0.09 -0.25,-0.03 -0.44,-0.25 -0.41,-0.51z"/>
  <path class="fil2" d="M22.04 19.96c0.22,0.13 0.3,0.41 0.17,0.63 -0.13,0.22 -0.41,0.3 -0.63,0.17l-2.17 -1.25c-0.22,-0.13 -0.29,-0.41 -0.17,-0.63 0.13,-0.22 0.41,-0.3 0.64,-0.17l2.16 1.25z"/>
  <path class="fil2" d="M28.4 8.63c0.22,0.13 0.3,0.41 0.17,0.63 -0.13,0.22 -0.41,0.3 -0.63,0.17l-2.03 -1.17c-0.22,-0.13 -0.3,-0.41 -0.17,-0.63 0.13,-0.22 0.41,-0.3 0.63,-0.17l2.03 1.17z"/>
  <circle class="fil3" cx="18.68" cy="8.75" r="0.59"/>
 </g>
</svg>
