<?xml version="1.0" encoding="UTF-8"?>
<!DOCTYPE svg PUBLIC "-//W3C//DTD SVG 1.1//EN" "http://www.w3.org/Graphics/SVG/1.1/DTD/svg11.dtd">
<!-- Creator: CorelDRAW 2019 (64-Bit) -->
<svg xmlns="http://www.w3.org/2000/svg" xml:space="preserve" width="640px" height="640px" version="1.1" style="shape-rendering:geometricPrecision; text-rendering:geometricPrecision; image-rendering:optimizeQuality; fill-rule:evenodd; clip-rule:evenodd"
viewBox="0 0 56.68 56.68"
 xmlns:xlink="http://www.w3.org/1999/xlink">
 <defs>
  <style type="text/css">
   <![CDATA[
    .fil0 {fill:none}
    .fil1 {fill:#0A2155}
    .fil2 {fill:#FFC221}
   ]]>
  </style>
 </defs>
 <g id="Layer_x0020_1">
  <metadata id="CorelCorpID_0Corel-Layer"/>
  <rect class="fil0" width="56.68" height="56.68"/>
 </g>
 <g id="Layer_x0020_3">
  <metadata id="CorelCorpID_1Corel-Layer"/>
  <g id="_2389612523680">
   <path class="fil1" d="M17.72 23.38l-3.18 5.45 2.79 0c0.68,0 1.23,0.55 1.23,1.23l0 4.65c0,0.64 0.52,1.16 1.16,1.16l4.39 0c0.68,0 1.23,0.55 1.23,1.23l0 2.8 11.62 0 0 -5.94c-0.01,-0.98 0.45,-1.89 1.24,-2.47 2.68,-2.02 4.22,-5.34 4.23,-9.12 0.01,-4.1 -1.84,-8.05 -4.81,-10.31 -3.52,-2.66 -8.86,-3.14 -13.29,-1.18 -3.79,1.67 -6.16,4.77 -6.52,8.52l0 3.67c0,0.11 -0.03,0.22 -0.09,0.31zm-4.62 6.28c0.15,0.27 0.44,0.44 0.75,0.44l3.45 0 0 4.61c0,1.34 1.08,2.43 2.42,2.43l4.35 0 0 2.8c0.01,0.68 0.56,1.23 1.24,1.23l11.69 0c0.68,0 1.23,-0.55 1.23,-1.23l0 -5.98c-0.01,-0.58 0.26,-1.12 0.73,-1.46 3,-2.26 4.73,-5.95 4.74,-10.13 0,-2.16 -0.46,-4.3 -1.35,-6.27 -0.93,-2.04 -2.3,-3.78 -3.97,-5.05 -1.96,-1.48 -4.42,-2.38 -7.1,-2.59 -2.55,-0.2 -5.12,0.23 -7.46,1.26 -4.23,1.86 -6.88,5.36 -7.27,9.6 -0.01,0.01 -0.01,0.03 -0.01,0.05l0 3.52 -3.44 5.9c-0.16,0.27 -0.16,0.6 0,0.87z"/>
   <path class="fil1" d="M18.41 43.53l0 3.46 -2.25 -1.73 2.25 -1.73zm22.44 0.02l0 3.42c0,0.15 -0.11,0.26 -0.26,0.26l-1.82 0 0 -3.94 1.82 0c0.15,0 0.26,0.11 0.26,0.26zm-4.67 1.19l-16.73 0 0 -1.45 16.73 0 0 1.45zm1.04 -1.45l0.52 0 0 3.94 -0.52 0 0 -3.94zm-17.77 2.49l16.73 0 0 1.45 -16.73 0 0 -1.45zm-4.66 -0.52c0,0.16 0.08,0.31 0.21,0.41l3.25 2.49c0.09,0.07 0.2,0.1 0.31,0.1l22.03 0c0.71,0 1.29,-0.57 1.29,-1.29l0 -3.42c0,-0.72 -0.58,-1.29 -1.29,-1.3l-22.03 0c-0.11,0 -0.22,0.04 -0.31,0.11l-3.25 2.49c-0.13,0.1 -0.21,0.25 -0.21,0.41l0 0z"/>
   <path class="fil2" d="M23.32 15.85c-0.12,-0.12 -0.19,-0.28 -0.18,-0.45 0,-0.16 0.06,-0.32 0.18,-0.44 0.12,-0.12 0.28,-0.19 0.45,-0.19 0.17,0 0.33,0.07 0.45,0.19l1.19 1.19c0.18,0.19 0.24,0.46 0.14,0.69 -0.1,0.24 -0.33,0.4 -0.58,0.4 -0.17,0 -0.33,-0.07 -0.45,-0.19l-1.2 -1.2zm-2.71 5.65c0,-0.35 0.29,-0.64 0.64,-0.64l1.69 0c0.35,0 0.63,0.29 0.63,0.64 0,0.35 -0.28,0.63 -0.63,0.63l-1.69 0c-0.35,0 -0.64,-0.28 -0.64,-0.63zm4.8 4.44c0.12,0.12 0.19,0.28 0.19,0.45 0,0.17 -0.07,0.33 -0.19,0.45l-1.19 1.19c-0.12,0.12 -0.28,0.19 -0.45,0.19 -0.17,0 -0.33,-0.07 -0.45,-0.19 -0.12,-0.11 -0.18,-0.28 -0.18,-0.44 0,-0.17 0.06,-0.33 0.18,-0.45l1.2 -1.2c0.12,-0.12 0.28,-0.18 0.45,-0.18 0.16,0 0.33,0.06 0.44,0.18l0 0zm10.99 1.2c0.12,0.12 0.19,0.28 0.19,0.45 0,0.17 -0.06,0.33 -0.18,0.45 -0.12,0.12 -0.29,0.19 -0.46,0.19 -0.17,0 -0.33,-0.07 -0.45,-0.2l-1.2 -1.19c-0.24,-0.25 -0.24,-0.65 0,-0.9 0.25,-0.25 0.65,-0.25 0.9,0l1.2 1.2zm0.38 -6.28l1.69 0c0.35,0 0.64,0.29 0.64,0.64 0,0.35 -0.29,0.63 -0.64,0.63l-1.69 0c-0.35,0 -0.63,-0.28 -0.63,-0.63 0,-0.35 0.28,-0.64 0.63,-0.64zm-2.48 -3.81c-0.11,-0.12 -0.18,-0.28 -0.18,-0.45 0,-0.17 0.07,-0.33 0.18,-0.45l1.2 -1.19c0.12,-0.13 0.28,-0.2 0.45,-0.2 0.17,0 0.33,0.07 0.45,0.19 0.13,0.12 0.19,0.28 0.19,0.45 0,0.17 -0.07,0.33 -0.19,0.45l-1.2 1.2c-0.25,0.25 -0.65,0.25 -0.9,0zm-5.08 -2.47l0 -1.7c0,-0.35 0.29,-0.63 0.64,-0.63 0.35,0 0.63,0.28 0.63,0.63l0 1.7c0,0.34 -0.28,0.63 -0.63,0.63 -0.35,0 -0.64,-0.29 -0.64,-0.63zm0.64 2.29c-1.99,0 -3.76,1.27 -4.41,3.16 -0.64,1.88 -0.02,3.97 1.56,5.18 0.22,0.17 0.4,0.39 0.54,0.63l1.67 0 0 -3.2c-0.77,-0.31 -1.22,-1.12 -1.07,-1.94 0.16,-0.82 0.87,-1.41 1.71,-1.41 0.83,0 1.55,0.59 1.7,1.41 0.16,0.82 -0.29,1.63 -1.07,1.94l0 3.2 1.68 0c0.13,-0.24 0.32,-0.46 0.54,-0.63 1.57,-1.21 2.2,-3.3 1.56,-5.18 -0.65,-1.89 -2.42,-3.16 -4.41,-3.16l0 0zm0.52 12.91c-0.24,0.15 -0.52,0.19 -0.79,0.12 -0.26,-0.08 -0.48,-0.27 -0.6,-0.52l1.73 0c-0.07,0.16 -0.19,0.3 -0.34,0.4zm1.44 -2.68l-0.15 0.82c-0.02,0.11 -0.12,0.2 -0.24,0.2l-3.14 0c-0.12,0 -0.22,-0.09 -0.24,-0.2l-0.15 -0.82 3.92 0zm-2.43 -6.08c0,-0.41 0.5,-0.62 0.8,-0.33 0.29,0.3 0.09,0.8 -0.33,0.8 -0.26,0 -0.47,-0.21 -0.47,-0.47zm-3.16 5.2c0.17,0.12 0.28,0.3 0.31,0.5l0.27 1.43c0.08,0.48 0.4,0.89 0.84,1.09 0.14,1.12 1.08,1.96 2.21,1.96 1.12,0 2.07,-0.84 2.2,-1.96 0.45,-0.2 0.76,-0.61 0.85,-1.09l0.27 -1.43c0.03,-0.2 0.14,-0.38 0.3,-0.5 2.01,-1.55 2.8,-4.21 1.98,-6.6 -0.81,-2.4 -3.07,-4.01 -5.6,-4.01 -2.53,0 -4.79,1.61 -5.61,4.01 -0.82,2.39 -0.02,5.05 1.98,6.6z"/>
  </g>
 </g>
</svg>
