<?xml version="1.0" encoding="UTF-8"?>
<!DOCTYPE svg PUBLIC "-//W3C//DTD SVG 1.1//EN" "http://www.w3.org/Graphics/SVG/1.1/DTD/svg11.dtd">
<!-- Creator: CorelDRAW 2019 (64-Bit) -->
<svg xmlns="http://www.w3.org/2000/svg" xml:space="preserve" width="640px" height="640px" version="1.1" style="shape-rendering:geometricPrecision; text-rendering:geometricPrecision; image-rendering:optimizeQuality; fill-rule:evenodd; clip-rule:evenodd"
viewBox="0 0 53.5 53.5"
 xmlns:xlink="http://www.w3.org/1999/xlink">
 <defs>
  <style type="text/css">
   <![CDATA[
    .fil0 {fill:none}
    .fil1 {fill:#0A2155}
    .fil3 {fill:#FFC221}
    .fil2 {fill:#FFC221;fill-rule:nonzero}
   ]]>
  </style>
 </defs>
 <g id="Layer_x0020_1">
  <metadata id="CorelCorpID_0Corel-Layer"/>
  <rect class="fil0" width="53.5" height="53.5"/>
  <path class="fil1" d="M43.2 25.86l0 -3.56c0,-3.82 -1.5,-7.42 -4.22,-10.14 -2.72,-2.72 -6.32,-4.22 -10.14,-4.22l-4.18 0c-3.82,0 -7.42,1.5 -10.14,4.22 -2.72,2.72 -4.22,6.32 -4.22,10.14l0 3.56c-0.5,0.27 -0.85,0.81 -0.85,1.42l0 6.66c0,0.89 0.72,1.61 1.61,1.61l1.38 0 0 0.4c0,0.45 0.37,0.82 0.82,0.82l1.24 0c1.14,0 2.06,-0.92 2.06,-2.06l0 -8.2c0,-1.14 -0.93,-2.06 -2.06,-2.06l-0.89 0 0 -2.15c0,-6.09 4.96,-11.05 11.05,-11.05l4.18 0c6.09,0 11.05,4.96 11.05,11.05l0 2.15 -0.89 0c-1.13,0 -2.06,0.92 -2.06,2.06l0 8.2c0,1.14 0.93,2.06 2.06,2.06l1.24 0c0.45,0 0.82,-0.37 0.82,-0.82l0 -0.4 0.34 0 0 2.49c0,2.74 -2.22,4.96 -4.95,4.96l-6.43 0c-0.25,-0.8 -1,-1.38 -1.89,-1.38l-2.76 0c-1.09,0 -1.98,0.88 -1.98,1.97 0,1.08 0.89,1.97 1.98,1.97l2.76 0c0.89,0 1.64,-0.58 1.89,-1.39l6.43 0c3.38,0 6.13,-2.74 6.13,-6.12l0 -2.51c0.82,-0.07 1.47,-0.76 1.47,-1.6l0 -6.66c0,-0.61 -0.34,-1.15 -0.85,-1.42l0 0zm-15.06 18.52l-2.77 0c-0.44,0 -0.8,-0.35 -0.8,-0.79 0,-0.44 0.36,-0.8 0.8,-0.8l2.77 0c0.44,0 0.79,0.36 0.79,0.8 0,0.44 -0.36,0.79 -0.79,0.79zm-17.08 -10.01c-0.24,0 -0.43,-0.19 -0.43,-0.43l0 -6.66c0,-0.24 0.19,-0.43 0.43,-0.43l1.38 0 0 7.52 -1.38 0zm3.44 -8.75c0.49,0 0.88,0.4 0.88,0.89l0 8.2c0,0.49 -0.39,0.89 -0.88,0.89l-0.89 0 0 -9.34 0 -0.64 0.89 0 0 0zm22.97 -11.95c-2.31,-2.32 -5.38,-3.59 -8.63,-3.59l-4.18 0c-3.25,0 -6.32,1.27 -8.63,3.59 -2.32,2.31 -3.59,5.38 -3.59,8.63l0 2.97 0 0.41 -0.96 0 0 -3.38c0,-7.27 5.91,-13.18 13.18,-13.18l4.18 0c7.27,0 13.18,5.91 13.18,13.18l0 3.38 -0.96 0 0 -0.41 0 -2.97c0,-3.25 -1.27,-6.32 -3.59,-8.63zm2.42 21.93l-0.89 0c-0.49,0 -0.89,-0.4 -0.89,-0.89l0 -8.2c0,-0.49 0.4,-0.89 0.89,-0.89l0.89 0 0 0.64 0 9.34zm2.99 -1.66c0,0.24 -0.2,0.43 -0.44,0.43l-1.38 0 0 -7.52 1.38 0c0.24,0 0.44,0.19 0.44,0.43l0 6.66z"/>
  <path id="path4829" class="fil2" d="M26.75 20.28c-0.22,0 -0.4,0.18 -0.4,0.4 0,0.22 0.18,0.41 0.4,0.41 0.22,0 0.4,-0.19 0.4,-0.41 0,-0.22 -0.18,-0.4 -0.4,-0.4z"/>
  <path class="fil2" d="M26.75 20.38c-0.08,0 -0.16,0.03 -0.22,0.08 -0.05,0.06 -0.08,0.14 -0.08,0.22 0,0.09 0.03,0.16 0.08,0.22 0.06,0.05 0.14,0.09 0.22,0.09 0.08,0 0.16,-0.04 0.22,-0.09 0.05,-0.06 0.09,-0.13 0.09,-0.22 0,-0.08 -0.04,-0.16 -0.09,-0.22 -0.06,-0.05 -0.14,-0.08 -0.22,-0.08zm-0.36 -0.05c0.1,-0.1 0.22,-0.15 0.36,-0.15 0.14,0 0.27,0.05 0.36,0.15 0.09,0.09 0.14,0.21 0.14,0.35 0,0.14 -0.05,0.27 -0.14,0.36 -0.09,0.09 -0.22,0.14 -0.36,0.14 -0.14,0 -0.26,-0.05 -0.36,-0.14 -0.09,-0.09 -0.14,-0.22 -0.14,-0.36 0,-0.14 0.05,-0.26 0.14,-0.35z"/>
  <path class="fil2" d="M26.41 22.04c0,-0.19 0.15,-0.34 0.34,-0.34 0.19,0 0.34,0.15 0.34,0.34l0 5.93c0,0.18 -0.15,0.34 -0.34,0.34 -0.19,0 -0.34,-0.16 -0.34,-0.34l0 -5.93z"/>
  <path class="fil2" d="M26.31 22.04c0,-0.12 0.05,-0.23 0.13,-0.31 0.08,-0.08 0.19,-0.13 0.31,-0.13 0.12,0 0.23,0.05 0.31,0.13 0.08,0.08 0.13,0.19 0.13,0.31l0 5.93c0,0.12 -0.05,0.23 -0.13,0.31 -0.08,0.08 -0.19,0.12 -0.31,0.12 -0.12,0 -0.23,-0.04 -0.31,-0.12 -0.08,-0.08 -0.13,-0.19 -0.13,-0.31l0 -5.93zm0.27 -0.17c-0.04,0.04 -0.07,0.1 -0.07,0.17l0 5.93c0,0.06 0.03,0.12 0.07,0.17 0.04,0.04 0.1,0.07 0.17,0.07 0.07,0 0.13,-0.03 0.17,-0.07 0.04,-0.05 0.07,-0.11 0.07,-0.17l0 -5.93c0,-0.07 -0.03,-0.13 -0.07,-0.17 -0.04,-0.05 -0.1,-0.07 -0.17,-0.07 -0.07,0 -0.13,0.02 -0.17,0.07z"/>
  <path class="fil3" d="M32.41 30.15c-0.2,0.02 -0.39,0.1 -0.54,0.25 -0.16,0.16 -0.25,0.38 -0.25,0.6l0 2.17 -2.81 -2.72c-0.1,-0.09 -0.21,-0.17 -0.34,-0.22 -0.11,-0.04 -0.22,-0.07 -0.33,-0.08l-7.38 0 0 -0.02c-0.33,-0.06 -0.63,-0.21 -0.87,-0.45 -0.3,-0.3 -0.48,-0.71 -0.48,-1.14l0 -0.27 0.01 0 0 -6.11c0,-0.15 -0.12,-0.27 -0.27,-0.27 -0.14,0 -0.26,0.12 -0.26,0.27l0 6.1 0 0 0 0.28c0,0.57 0.22,1.11 0.62,1.51 0.38,0.38 0.89,0.6 1.42,0.63l7.42 0 0 0.07c0.03,0.03 0.07,0.05 0.1,0.08l2.71 2.63c0.11,0.11 0.25,0.16 0.4,0.16 0.08,0 0.16,-0.01 0.23,-0.04 0.07,-0.03 0.14,-0.08 0.19,-0.13 0.11,-0.11 0.17,-0.25 0.17,-0.41l0 -2.04c0,-0.06 0.01,-0.11 0.05,-0.17l0 -0.15 0.27 0c0.57,0 1.11,-0.23 1.52,-0.63 0.4,-0.4 0.62,-0.94 0.62,-1.51l0 -9.5c0,-0.57 -0.22,-1.11 -0.62,-1.51 -0.41,-0.4 -0.95,-0.63 -1.52,-0.63l-11.44 0c-0.57,0 -1.11,0.23 -1.52,0.63 -0.4,0.4 -0.62,0.94 -0.62,1.51l0 0.58c0,0.14 0.12,0.26 0.26,0.26 0.15,0 0.27,-0.12 0.27,-0.26l0 -0.58c0,-0.43 0.17,-0.83 0.47,-1.14 0.3,-0.3 0.71,-0.47 1.14,-0.47l11.44 0c0.43,0 0.84,0.17 1.14,0.47 0.31,0.31 0.47,0.71 0.47,1.14l0 9.5c0,0.43 -0.16,0.83 -0.47,1.14 -0.3,0.3 -0.71,0.47 -1.14,0.47l-0.06 0z"/>
  <path class="fil2" d="M32.41 30.25c-0.08,0.01 -0.17,0.03 -0.25,0.07 -0.08,0.03 -0.16,0.08 -0.22,0.15 -0.07,0.07 -0.13,0.15 -0.16,0.24 -0.04,0.09 -0.06,0.19 -0.06,0.29l0 2.4 -2.97 -2.88c-0.05,-0.04 -0.1,-0.08 -0.15,-0.11 -0.05,-0.04 -0.11,-0.07 -0.17,-0.09 -0.04,-0.02 -0.1,-0.04 -0.15,-0.05 -0.05,-0.01 -0.1,-0.02 -0.15,-0.02l-7.46 0 0 -0.04c-0.15,-0.03 -0.29,-0.08 -0.43,-0.15 -0.15,-0.08 -0.29,-0.19 -0.42,-0.31 -0.16,-0.16 -0.29,-0.35 -0.37,-0.56 -0.09,-0.2 -0.13,-0.42 -0.13,-0.65l0 -0.36 0 0 0 -6.02c0,-0.05 -0.02,-0.09 -0.05,-0.12 -0.03,-0.03 -0.07,-0.05 -0.12,-0.05 -0.04,0 -0.09,0.02 -0.12,0.05 -0.02,0.03 -0.04,0.07 -0.04,0.12l0 6 0 0 0 0.38c0,0.27 0.05,0.54 0.15,0.78 0.1,0.25 0.25,0.47 0.44,0.66 0.19,0.18 0.4,0.33 0.62,0.43 0.23,0.1 0.48,0.16 0.74,0.17l7.51 0 0 0.12 0.01 0.01c0.02,0.01 0.04,0.03 0.05,0.05l2.72 2.63c0.05,0.04 0.1,0.08 0.16,0.1 0.05,0.02 0.11,0.04 0.17,0.04 0.04,0 0.07,-0.01 0.1,-0.01 0.03,-0.01 0.06,-0.02 0.09,-0.03 0.03,-0.02 0.06,-0.03 0.09,-0.05 0.03,-0.02 0.05,-0.04 0.07,-0.06 0.05,-0.05 0.08,-0.1 0.11,-0.16 0.02,-0.05 0.03,-0.11 0.03,-0.18l0 -2.04c0,-0.03 0.01,-0.07 0.02,-0.11 0,-0.03 0.01,-0.05 0.03,-0.08l0 -0.23 0.37 0c0.28,0 0.54,-0.06 0.79,-0.16 0.24,-0.1 0.46,-0.25 0.66,-0.44 0.19,-0.19 0.34,-0.42 0.44,-0.66 0.1,-0.24 0.15,-0.51 0.15,-0.78l0 -9.5c0,-0.27 -0.05,-0.54 -0.15,-0.78 -0.1,-0.24 -0.25,-0.47 -0.44,-0.66 -0.2,-0.19 -0.42,-0.34 -0.66,-0.44 -0.25,-0.11 -0.51,-0.16 -0.79,-0.16l-11.44 0c-0.27,0 -0.54,0.05 -0.78,0.16 -0.25,0.1 -0.47,0.25 -0.67,0.44 -0.19,0.19 -0.34,0.42 -0.44,0.66 -0.1,0.24 -0.15,0.51 -0.15,0.78l0 0.58c0,0.04 0.02,0.09 0.04,0.11 0.03,0.04 0.08,0.05 0.12,0.05 0.05,0 0.09,-0.01 0.12,-0.04 0.03,-0.03 0.05,-0.08 0.05,-0.12l0 -0.58c0,-0.23 0.04,-0.45 0.13,-0.65 0.08,-0.21 0.21,-0.4 0.37,-0.56 0.16,-0.16 0.35,-0.28 0.55,-0.37 0.21,-0.08 0.43,-0.13 0.66,-0.13l11.44 0c0.23,0 0.45,0.05 0.66,0.13 0.2,0.09 0.39,0.21 0.55,0.37 0.16,0.16 0.29,0.35 0.37,0.56 0.09,0.2 0.13,0.42 0.13,0.65l0 9.5c0,0.23 -0.04,0.45 -0.13,0.65 -0.08,0.21 -0.21,0.4 -0.37,0.56 -0.16,0.16 -0.35,0.28 -0.55,0.37 -0.21,0.08 -0.43,0.13 -0.66,0.13l-0.06 0zm-0.33 -0.11c0.1,-0.05 0.21,-0.08 0.33,-0.09l0.06 0c0.2,0 0.4,-0.04 0.58,-0.11 0.18,-0.08 0.35,-0.19 0.49,-0.33 0.15,-0.14 0.26,-0.31 0.33,-0.49 0.08,-0.18 0.12,-0.38 0.12,-0.58l0 -9.5c0,-0.2 -0.04,-0.4 -0.12,-0.58 -0.07,-0.18 -0.18,-0.35 -0.33,-0.49 -0.14,-0.14 -0.31,-0.25 -0.49,-0.33 -0.18,-0.07 -0.37,-0.11 -0.58,-0.11l-11.44 0c-0.2,0 -0.4,0.04 -0.58,0.11 -0.18,0.08 -0.35,0.19 -0.49,0.33 -0.14,0.14 -0.25,0.31 -0.33,0.49 -0.07,0.18 -0.11,0.38 -0.11,0.58l0 0.58c0,0.1 -0.05,0.19 -0.11,0.25 -0.07,0.07 -0.16,0.11 -0.26,0.11 -0.1,0 -0.19,-0.04 -0.25,-0.11 -0.07,-0.06 -0.11,-0.15 -0.11,-0.25l0 -0.58c0,-0.3 0.06,-0.59 0.17,-0.86 0.11,-0.26 0.27,-0.51 0.48,-0.72 0.22,-0.21 0.46,-0.38 0.73,-0.49 0.27,-0.11 0.56,-0.17 0.86,-0.17l11.44 0c0.3,0 0.59,0.06 0.86,0.17 0.27,0.11 0.52,0.28 0.73,0.49 0.21,0.21 0.37,0.46 0.48,0.72 0.11,0.27 0.17,0.56 0.17,0.86l0 9.5c0,0.3 -0.06,0.59 -0.17,0.86 -0.11,0.26 -0.27,0.51 -0.48,0.72 -0.21,0.21 -0.46,0.37 -0.73,0.49 -0.27,0.11 -0.56,0.16 -0.86,0.16l-0.18 0 0 0.09 -0.01 0.03c-0.01,0.01 -0.02,0.03 -0.02,0.05 -0.01,0.02 -0.01,0.04 -0.01,0.06l0 2.04c0,0.09 -0.02,0.18 -0.05,0.26 -0.03,0.08 -0.08,0.15 -0.15,0.21 -0.03,0.04 -0.06,0.07 -0.1,0.09 -0.04,0.03 -0.08,0.05 -0.12,0.07 -0.04,0.02 -0.09,0.03 -0.13,0.04 -0.05,0.01 -0.09,0.01 -0.14,0.01 -0.08,0 -0.17,-0.01 -0.25,-0.05 -0.08,-0.03 -0.15,-0.08 -0.22,-0.14l-2.71 -2.63 -0.04 -0.03c-0.01,-0.01 -0.03,-0.02 -0.04,-0.03l-0.05 -0.03 0 -0.04 -7.32 0c-0.28,-0.01 -0.55,-0.07 -0.81,-0.18 -0.25,-0.11 -0.48,-0.27 -0.68,-0.47 -0.21,-0.21 -0.37,-0.46 -0.48,-0.72 -0.11,-0.27 -0.17,-0.56 -0.17,-0.86l0 -0.18 0 0 0 -6.2c0,-0.1 0.04,-0.2 0.11,-0.26 0.06,-0.07 0.15,-0.11 0.25,-0.11 0.1,0 0.19,0.04 0.26,0.11 0.06,0.06 0.11,0.15 0.11,0.26l0 6.21 -0.01 0 0 0.17c0,0.2 0.04,0.4 0.12,0.58 0.07,0.18 0.19,0.35 0.33,0.49 0.11,0.11 0.24,0.2 0.38,0.27 0.13,0.08 0.28,0.12 0.44,0.15l0.08 0.01 0 0.01 7.28 0c0.07,0.01 0.13,0.02 0.19,0.03 0.06,0.01 0.12,0.03 0.18,0.06 0.07,0.02 0.13,0.06 0.2,0.1 0.06,0.04 0.12,0.09 0.17,0.14l2.64 2.56 0 -1.94c0,-0.12 0.03,-0.25 0.07,-0.36 0.05,-0.12 0.12,-0.22 0.21,-0.31 0.08,-0.08 0.18,-0.15 0.28,-0.19z"/>
 </g>
</svg>
