<?xml version="1.0" encoding="UTF-8"?>
<!DOCTYPE svg PUBLIC "-//W3C//DTD SVG 1.1//EN" "http://www.w3.org/Graphics/SVG/1.1/DTD/svg11.dtd">
<!-- Creator: CorelDRAW 2019 (64-Bit) -->
<svg xmlns="http://www.w3.org/2000/svg" xml:space="preserve" width="640px" height="640px" version="1.1" style="shape-rendering:geometricPrecision; text-rendering:geometricPrecision; image-rendering:optimizeQuality; fill-rule:evenodd; clip-rule:evenodd"
viewBox="0 0 78.3 78.3"
 xmlns:xlink="http://www.w3.org/1999/xlink">
 <defs>
  <style type="text/css">
   <![CDATA[
    .fil0 {fill:none}
    .fil2 {fill:#0A2155;fill-rule:nonzero}
    .fil3 {fill:#0A2155;fill-rule:nonzero}
    .fil1 {fill:#FFC221;fill-rule:nonzero}
   ]]>
  </style>
 </defs>
 <g id="Layer_x0020_1">
  <metadata id="CorelCorpID_0Corel-Layer"/>
  <rect class="fil0" width="78.3" height="78.3"/>
  <g id="_1926483869312">
   <path class="fil1" d="M52.94 13.81c0.67,-0.06 1.26,0.43 1.33,1.1 0.06,0.67 -0.43,1.26 -1.1,1.33 -1.38,0.13 -2.61,0.78 -3.49,1.75 -0.87,0.96 -1.4,2.23 -1.4,3.63l0 7.06c0,0.27 0.11,0.52 0.29,0.7 0.17,0.17 0.42,0.28 0.69,0.28l15.14 0c0.27,0 0.52,-0.11 0.69,-0.28l0.05 -0.05c0.15,-0.17 0.24,-0.4 0.24,-0.65l0 -7.06c0,-1.4 -0.53,-2.68 -1.4,-3.64 -0.88,-0.97 -2.11,-1.62 -3.49,-1.74 -0.67,-0.06 -1.16,-0.66 -1.1,-1.33 0.06,-0.67 0.65,-1.16 1.32,-1.1 2.01,0.19 3.8,1.13 5.08,2.53 1.26,1.4 2.04,3.25 2.04,5.28l0 7.06c0,0.9 -0.35,1.73 -0.93,2.34l-0.08 0.09c-0.62,0.62 -1.47,1 -2.42,1l-15.14 0c-0.94,0 -1.8,-0.38 -2.42,-1l0 -0.01c-0.62,-0.62 -1.01,-1.48 -1.01,-2.42l0 -7.06c0,-2.03 0.78,-3.88 2.04,-5.28 1.28,-1.4 3.06,-2.34 5.07,-2.53z"/>
   <path class="fil1" d="M65.46 8.63c0,2.38 -0.97,4.54 -2.53,6.1 -1.56,1.56 -3.72,2.53 -6.1,2.53 -2.38,0 -4.54,-0.97 -6.1,-2.53 -1.56,-1.56 -2.53,-3.72 -2.53,-6.1 0,-2.38 0.97,-4.54 2.53,-6.1 1.56,-1.56 3.72,-2.53 6.1,-2.53 2.38,0 4.54,0.97 6.1,2.53 1.56,1.56 2.53,3.72 2.53,6.1zm-4.26 4.37c1.12,-1.12 1.81,-2.66 1.81,-4.37 0,-1.71 -0.69,-3.25 -1.81,-4.37 -1.12,-1.12 -2.66,-1.81 -4.37,-1.81 -1.71,0 -3.25,0.69 -4.37,1.81 -1.12,1.12 -1.81,2.66 -1.81,4.37 0,1.71 0.69,3.25 1.81,4.37 1.12,1.12 2.66,1.81 4.37,1.81 1.71,0 3.25,-0.69 4.37,-1.81z"/>
   <path class="fil2" d="M58.63 45.24l9.09 -9 0 -0.01c1.86,-1.85 4.36,-2.11 6.45,-1.39 0.81,0.28 1.56,0.71 2.2,1.26 0.65,0.56 1.18,1.24 1.51,2.01 0.73,1.66 0.59,3.63 -1.04,5.55l-12.6 14.82c-0.28,0.33 -0.58,0.65 -0.9,0.93 -0.33,0.3 -0.67,0.57 -1.02,0.82 -0.04,0.03 -0.08,0.05 -0.13,0.07 -1.12,0.71 -2.33,1.17 -3.57,1.46 -1.26,0.3 -2.55,0.42 -3.83,0.42l-18.7 0c-1.31,0 -2.62,0.07 -3.91,0.22l-5.38 0.61c-0.39,0.04 -0.77,-0.11 -1.02,-0.38l-11.12 -10.79c-0.42,-0.4 -0.48,-1.03 -0.19,-1.51 0.46,-0.84 7.21,-12.62 20.11,-9.05 1.09,0.3 2.21,0.52 3.33,0.67 1.13,0.15 2.29,0.23 3.47,0.23l12.29 0c2.47,0 4.12,1.31 4.96,3.06zm10.82 -7.28l-10.2 10.1c-0.01,0.76 -0.15,1.53 -0.43,2.26 -0.76,1.96 -2.49,3.5 -5.19,3.5l-10.7 0c-0.68,0 -1.23,-0.55 -1.23,-1.23 0,-0.67 0.55,-1.22 1.23,-1.22l10.7 0c1.53,0 2.49,-0.85 2.91,-1.93 0.18,-0.45 0.26,-0.94 0.26,-1.44 0,-0.51 -0.08,-1.01 -0.26,-1.45 -0.41,-1.08 -1.37,-1.93 -2.87,-1.93l-12.29 0c-1.25,0 -2.51,-0.08 -3.79,-0.25 -1.24,-0.16 -2.46,-0.41 -3.66,-0.74 -9.6,-2.66 -15.27,4.66 -16.88,7.13l10.05 9.75 4.8 -0.54c1.4,-0.16 2.8,-0.24 4.19,-0.24l18.7 0c1.11,0 2.22,-0.1 3.27,-0.35 1.01,-0.23 1.97,-0.6 2.83,-1.14l0.04 -0.02c0.27,-0.19 0.53,-0.4 0.77,-0.61 0.24,-0.22 0.47,-0.46 0.68,-0.71l12.6 -14.82c0.93,-1.09 1.04,-2.15 0.67,-2.99 -0.19,-0.43 -0.49,-0.81 -0.87,-1.14 -0.4,-0.34 -0.88,-0.62 -1.4,-0.8 -1.29,-0.44 -2.82,-0.3 -3.93,0.81l0 0 0 0z"/>
   <path class="fil3" d="M19.31 74.16l8.92 -9.15 -16.26 -15.78 -9.02 9.36 16.36 15.57zm11.52 -8.32l-10.61 10.88c-0.46,0.49 -1.23,0.51 -1.72,0.04l-18.13 -17.26c-0.48,-0.46 -0.5,-1.23 -0.03,-1.72l10.65 -11.06 0.08 -0.08c0.24,-0.24 0.55,-0.36 0.87,-0.36 0.32,0 0.64,0.13 0.87,0.36l0 0 17.99 17.46 0.07 0.08c0.19,0.22 0.31,0.5 0.31,0.8 0,0.22 -0.06,0.46 -0.21,0.67 -0.04,0.07 -0.09,0.13 -0.14,0.19z"/>
   <path class="fil3" d="M35.38 52.81c-0.15,-0.66 0.26,-1.31 0.91,-1.47 0.66,-0.15 1.32,0.26 1.47,0.92l0.02 0.06c0.15,0.66 -0.26,1.31 -0.92,1.47 -0.65,0.15 -1.31,-0.26 -1.46,-0.92l-0.02 -0.06z"/>
   <path class="fil1" d="M13.84 13.81c0.67,-0.06 1.26,0.43 1.33,1.1 0.06,0.67 -0.43,1.26 -1.1,1.33 -1.38,0.13 -2.6,0.78 -3.49,1.75 -0.87,0.96 -1.4,2.23 -1.4,3.63l0 7.06c0,0.27 0.11,0.52 0.28,0.7l0.01 0 0 0c0.18,0.17 0.42,0.28 0.7,0.28l15.13 0c0.27,0 0.52,-0.11 0.7,-0.28 0.17,-0.18 0.28,-0.43 0.28,-0.7l0 -7.06c0,-1.4 -0.53,-2.68 -1.4,-3.64 -0.88,-0.97 -2.11,-1.62 -3.49,-1.74 -0.67,-0.06 -1.16,-0.66 -1.1,-1.33 0.06,-0.67 0.65,-1.16 1.32,-1.1 2.01,0.19 3.8,1.13 5.08,2.53 1.27,1.4 2.04,3.25 2.04,5.28l0 7.06c0,0.95 -0.38,1.8 -1,2.43 -0.62,0.62 -1.48,1 -2.43,1l-15.13 0c-0.95,0 -1.81,-0.38 -2.43,-1l0 -0.01c-0.62,-0.62 -1.01,-1.48 -1.01,-2.42l0 -7.06c0,-2.03 0.78,-3.88 2.05,-5.28 1.27,-1.4 3.06,-2.34 5.06,-2.53z"/>
   <path class="fil1" d="M26.36 8.63c0,2.38 -0.96,4.54 -2.53,6.1 -1.56,1.56 -3.71,2.53 -6.1,2.53 -2.38,0 -4.54,-0.97 -6.1,-2.53 -1.56,-1.56 -2.53,-3.72 -2.53,-6.1 0,-2.38 0.97,-4.54 2.53,-6.1 1.56,-1.56 3.72,-2.53 6.1,-2.53 2.39,0 4.54,0.97 6.1,2.53 1.57,1.56 2.53,3.72 2.53,6.1zm-4.26 4.37c1.12,-1.12 1.82,-2.66 1.82,-4.37 0,-1.71 -0.7,-3.25 -1.82,-4.37 -1.11,-1.12 -2.66,-1.81 -4.37,-1.81 -1.7,0 -3.25,0.69 -4.37,1.81 -1.12,1.12 -1.81,2.66 -1.81,4.37 0,1.71 0.69,3.25 1.81,4.37 1.12,1.12 2.67,1.81 4.37,1.81 1.71,0 3.26,-0.69 4.37,-1.81z"/>
   <path class="fil3" d="M33.39 13.81c0.67,-0.06 1.26,0.43 1.33,1.1 0.06,0.67 -0.43,1.26 -1.1,1.33 -1.38,0.13 -2.61,0.78 -3.49,1.75 -0.87,0.96 -1.4,2.23 -1.4,3.63l0 7.06c0,0.27 0.11,0.52 0.29,0.7l0 0c0.18,0.17 0.42,0.28 0.69,0.28l15.14 0c0.27,0 0.52,-0.11 0.69,-0.28l0.01 0 -0.01 0c0.18,-0.18 0.29,-0.43 0.29,-0.7l0 -7.06c0,-1.4 -0.53,-2.68 -1.4,-3.64 -0.88,-0.97 -2.11,-1.62 -3.49,-1.74 -0.67,-0.06 -1.16,-0.66 -1.1,-1.33 0.06,-0.67 0.65,-1.16 1.32,-1.1 2.01,0.19 3.8,1.13 5.08,2.53 1.27,1.4 2.04,3.25 2.04,5.28l0 7.06c0,0.95 -0.38,1.8 -1.01,2.43l0 -0.01c-0.62,0.63 -1.48,1.01 -2.42,1.01l-15.14 0c-0.94,0 -1.8,-0.38 -2.42,-1l0 -0.01 0 0c-0.62,-0.62 -1.01,-1.48 -1.01,-2.42l0 -7.06c0,-2.03 0.78,-3.88 2.05,-5.28 1.27,-1.4 3.06,-2.34 5.06,-2.53z"/>
   <path class="fil3" d="M45.91 8.63c0,2.38 -0.97,4.54 -2.53,6.1 -1.56,1.56 -3.72,2.53 -6.1,2.53 -2.38,0 -4.54,-0.97 -6.1,-2.53 -1.56,-1.56 -2.53,-3.72 -2.53,-6.1 0,-2.38 0.97,-4.54 2.53,-6.1 1.56,-1.56 3.72,-2.53 6.1,-2.53 2.38,0 4.54,0.97 6.1,2.53 1.56,1.56 2.53,3.72 2.53,6.1zm-4.26 4.37c1.12,-1.12 1.81,-2.66 1.81,-4.37 0,-1.71 -0.69,-3.25 -1.81,-4.37 -1.11,-1.12 -2.66,-1.81 -4.37,-1.81 -1.71,0 -3.25,0.69 -4.37,1.81 -1.12,1.12 -1.81,2.66 -1.81,4.37 0,1.71 0.69,3.25 1.81,4.37 1.12,1.12 2.66,1.81 4.37,1.81 1.71,0 3.26,-0.69 4.37,-1.81z"/>
  </g>
 </g>
</svg>
