<?xml version="1.0" encoding="UTF-8"?>
<!DOCTYPE svg PUBLIC "-//W3C//DTD SVG 1.1//EN" "http://www.w3.org/Graphics/SVG/1.1/DTD/svg11.dtd">
<!-- Creator: CorelDRAW 2019 (64-Bit) -->
<svg xmlns="http://www.w3.org/2000/svg" xml:space="preserve" width="640px" height="640px" version="1.1" style="shape-rendering:geometricPrecision; text-rendering:geometricPrecision; image-rendering:optimizeQuality; fill-rule:evenodd; clip-rule:evenodd"
viewBox="0 0 234.79 234.79"
 xmlns:xlink="http://www.w3.org/1999/xlink">
 <defs>
  <style type="text/css">
   <![CDATA[
    .fil0 {fill:none}
    .fil2 {fill:#0A2155;fill-rule:nonzero}
    .fil1 {fill:#FFC221;fill-rule:nonzero}
   ]]>
  </style>
 </defs>
 <g id="Layer_x0020_1">
  <metadata id="CorelCorpID_0Corel-Layer"/>
  <rect class="fil0" width="234.79" height="234.79"/>
 </g>
 <g id="Capa_x0020_1">
  <metadata id="CorelCorpID_1Corel-Layer"/>
  <g id="_2937816992816">
   <path class="fil1" d="M170.34 195.75l-82.89 0c-5.9,0 -11.24,-2.63 -15.1,-6.87 -3.81,-4.18 -6.17,-9.95 -6.17,-16.29 0,-6.34 2.36,-12.11 6.17,-16.29 3.86,-4.24 9.2,-6.87 15.1,-6.87l0.45 0 0 0.01c0.13,0 0.26,-0.05 0.36,-0.14 0.1,-0.08 0.17,-0.21 0.19,-0.35 0.87,-6.29 3.83,-11.82 8.03,-15.78 4.25,-4.01 9.77,-6.41 15.68,-6.41 1.07,0 2.14,0.08 3.22,0.23 1.07,0.16 2.12,0.4 3.15,0.71 0.13,0.03 0.26,0.03 0.37,-0.02 0.11,-0.04 0.2,-0.11 0.27,-0.21 2.56,-4.56 6.24,-8.26 10.58,-10.84 4.34,-2.58 9.36,-4.04 14.6,-4.11l0.03 -0.01c7.37,0 14.25,3 19.56,7.98 5.26,4.94 8.98,11.84 10.08,19.7 0.02,0.12 0.07,0.23 0.15,0.31 0.08,0.08 0.18,0.14 0.31,0.16 6.21,1.11 11.56,4.56 15.36,9.46 3.76,4.85 5.99,11.11 5.99,17.9 0,7.6 -2.84,14.51 -7.41,19.52 -4.62,5.07 -11.02,8.21 -18.08,8.21zm-82.89 -4.33l82.89 0c5.8,0 11.06,-2.6 14.88,-6.79 3.88,-4.24 6.27,-10.12 6.27,-16.61 0,-5.81 -1.88,-11.15 -5.07,-15.26 -3.15,-4.06 -7.58,-6.92 -12.7,-7.84l-0.01 0c-1.03,-0.18 -1.95,-0.69 -2.65,-1.42 -0.7,-0.73 -1.18,-1.67 -1.32,-2.71 -0.96,-6.85 -4.2,-12.86 -8.77,-17.15 -4.52,-4.24 -10.36,-6.8 -16.59,-6.8l0 -0.01c-4.45,0.07 -8.72,1.32 -12.43,3.52 -3.7,2.2 -6.84,5.36 -9.02,9.25l-0.03 0.05c-0.57,0.96 -1.43,1.67 -2.43,2.06 -0.99,0.39 -2.1,0.45 -3.17,0.13 -0.84,-0.25 -1.69,-0.44 -2.55,-0.56 -0.84,-0.13 -1.71,-0.19 -2.59,-0.19 -4.78,0 -9.25,1.96 -12.71,5.23 -3.51,3.3 -5.99,7.94 -6.72,13.23 -0.17,1.2 -0.77,2.25 -1.63,3 -0.86,0.76 -1.99,1.21 -3.2,1.21l0 0.01 -0.45 0c-4.63,0 -8.84,2.08 -11.9,5.44 -3.11,3.42 -5.04,8.15 -5.04,13.38 0,5.23 1.93,9.97 5.04,13.38 3.06,3.36 7.27,5.45 11.9,5.45z"/>
   <path class="fil2" d="M144.38 111.39c-5.08,0.05 -9.98,1.37 -14.3,3.74 -4.32,2.38 -8.06,5.81 -10.82,10.08l-0.81 1.26 -1.46 -0.31c-3.19,-0.68 -6.45,-0.67 -9.57,-0.02 -3.12,0.65 -6.11,1.95 -8.76,3.85l-0.54 0.39 -1.01 0.02c-1.69,0.02 -3.38,0.05 -4.28,0.05 -13.87,0 -25.23,-0.99 -33.8,-2.36 -11.95,-1.9 -18.83,-4.91 -19.86,-7.16l-0.2 -0.45 0 -32.84 3.15 1.6c4.51,2.3 11.6,3.84 19.05,4.88 14.56,2.02 30.43,2.06 31.66,2.06 1.23,0 17.1,-0.04 31.66,-2.06 7.45,-1.04 14.54,-2.58 19.06,-4.88l3.15 -1.6 0 23.76 -2.32 0 0 -0.01zm-16.38 -0.05c4.37,-2.4 9.26,-3.86 14.36,-4.19l0 -12.68c-4.76,1.79 -10.92,3.05 -17.27,3.93 -14.93,2.07 -31.01,2.12 -32.26,2.12 -1.24,0 -17.33,-0.05 -32.25,-2.12 -6.36,-0.88 -12.52,-2.14 -17.28,-3.93l0 24.94c1.19,1.16 6.76,2.88 16.41,4.42 8.32,1.33 19.43,2.28 33.12,2.28 1.77,0 2.86,-0.01 3.86,-0.02 3,-2.04 6.35,-3.45 9.85,-4.18 3.23,-0.68 6.59,-0.77 9.9,-0.25 3.06,-4.33 7.03,-7.83 11.56,-10.32z"/>
   <path class="fil2" d="M146.51 85.5c-0.98,2.27 -7.86,5.3 -19.84,7.21 -8.57,1.37 -19.94,2.37 -33.84,2.37 -13.83,0 -25.16,-0.99 -33.72,-2.34 -12.12,-1.91 -19.06,-4.96 -19.97,-7.17l-0.17 -0.4 0 -32.9 3.15 1.6c4.51,2.3 11.6,3.84 19.05,4.87 14.56,2.03 30.43,2.07 31.66,2.07 1.23,0 17.1,-0.04 31.66,-2.07 7.45,-1.03 14.54,-2.57 19.06,-4.87l3.15 -1.6 0 32.8 -0.19 0.43zm-20.52 2.95c9.67,-1.55 15.23,-3.27 16.37,-4.41l0 -24.94c-4.76,1.79 -10.92,3.04 -17.27,3.93 -14.93,2.07 -31.01,2.11 -32.26,2.11 -1.24,0 -17.33,-0.04 -32.25,-2.11 -6.36,-0.89 -12.52,-2.14 -17.28,-3.93l0 25.05c1.09,1.08 6.68,2.78 16.47,4.33 8.31,1.31 19.4,2.26 33.06,2.26 13.71,0 24.84,-0.96 33.16,-2.29z"/>
   <path class="fil2" d="M92.83 39.04c13.75,0 25.03,0.98 33.57,2.33 11.84,1.87 18.75,4.77 19.97,6.95l0.59 1.05 -0.59 1.05c-1.22,2.19 -8.13,5.09 -19.97,6.96 -8.54,1.35 -19.82,2.32 -33.57,2.32 -13.69,0 -24.94,-0.96 -33.47,-2.28 -12.18,-1.89 -19.19,-4.88 -20.18,-6.97l-0.21 -0.44 0 -0.96 0.18 -0.43c0.99,-2.27 7.87,-5.3 19.85,-7.22 8.57,-1.36 19.94,-2.36 33.83,-2.36zm32.91 6.59c-8.29,-1.31 -19.33,-2.25 -32.91,-2.25 -13.7,0 -24.83,0.96 -33.15,2.29 -8.02,1.28 -13.22,2.68 -15.41,3.78 2.24,1.04 7.54,2.43 15.75,3.7 8.28,1.28 19.28,2.22 32.81,2.22 13.58,0 24.62,-0.94 32.91,-2.25 7.79,-1.23 12.96,-2.62 15.37,-3.75 -2.41,-1.13 -7.58,-2.51 -15.37,-3.74z"/>
   <path class="fil2" d="M38.97 158.12l0 -35.11 3.15 1.6c6.06,3.09 16.7,4.81 26.65,5.77 10.11,0.97 19.46,1.15 22.81,1.18l4.46 0.05 -2.79 3.47c-1.36,1.68 -2.51,3.52 -3.44,5.48 -0.94,1.96 -1.64,4.01 -2.09,6.13l-0.33 1.53 -1.57 0.17c-4.71,0.5 -9.02,2.42 -12.46,5.37 -3.45,2.94 -6.01,6.91 -7.23,11.48l-0.49 1.83 -1.87 -0.23c-6.9,-0.87 -11.9,-1.92 -15.46,-2.94 -6.09,-1.75 -8.62,-3.81 -9.11,-4.82l-0.23 -0.46 0 -0.5zm4.33 -28.28l0 27.55c0.59,0.44 2.36,1.24 6.19,2.34 3.12,0.89 7.35,1.81 13.01,2.59 1.61,-4.68 4.42,-8.74 8.05,-11.85 3.71,-3.17 8.29,-5.36 13.29,-6.17 0.52,-1.94 1.2,-3.81 2.06,-5.6 0.47,-0.99 0.99,-1.96 1.56,-2.9 -4.61,-0.12 -11.67,-0.41 -19.1,-1.12 -8.89,-0.86 -18.37,-2.33 -25.06,-4.84z"/>
  </g>
  <path class="fil2" d="M114.52 85.37l0.23 0c7.51,-0.55 14.96,-1.7 22.29,-3.42 1.45,-0.38 2.32,-1.86 1.95,-3.31 -0.37,-1.45 -1.84,-2.33 -3.3,-1.96 -7.03,1.64 -14.19,2.74 -21.4,3.26 -1.5,0.06 -2.67,1.33 -2.61,2.84 0.07,1.5 1.34,2.67 2.84,2.6l0 -0.01z"/>
  <path class="fil2" d="M49.3 62.98c1.5,0 2.72,1.22 2.72,2.72 0,1.5 -1.22,2.72 -2.72,2.72 -1.51,0 -2.72,-1.22 -2.72,-2.72 0,-1.5 1.21,-2.72 2.72,-2.72z"/>
  <path class="fil2" d="M49.3 73.86c-1.51,0 -2.72,1.22 -2.72,2.72l0 5.44c0,1.51 1.21,2.73 2.72,2.73 1.5,0 2.72,-1.22 2.72,-2.73l0 -5.44c0,-1.5 -1.22,-2.72 -2.72,-2.72z"/>
  <path class="fil2" d="M49.3 98.35c1.5,0 2.72,1.22 2.72,2.72 0,1.5 -1.22,2.72 -2.72,2.72 -1.51,0 -2.72,-1.22 -2.72,-2.72 0,-1.5 1.21,-2.72 2.72,-2.72z"/>
  <path class="fil2" d="M49.3 109.23c-1.51,0 -2.72,1.22 -2.72,2.72l0 5.45c0,1.5 1.21,2.72 2.72,2.72 1.5,0 2.72,-1.22 2.72,-2.72l0 -5.45c0,-1.5 -1.22,-2.72 -2.72,-2.72z"/>
  <path class="fil2" d="M49.3 133.72c1.5,0 2.72,1.22 2.72,2.72 0,1.51 -1.22,2.72 -2.72,2.72 -1.51,0 -2.72,-1.21 -2.72,-2.72 0,-1.5 1.21,-2.72 2.72,-2.72z"/>
  <path class="fil2" d="M49.3 144.61c-1.51,0 -2.72,1.21 -2.72,2.72l0 5.44c0,1.5 1.21,2.72 2.72,2.72 1.5,0 2.72,-1.22 2.72,-2.72l0 -5.44c0,-1.51 -1.22,-2.72 -2.72,-2.72z"/>
 </g>
</svg>
