<?xml version="1.0" encoding="UTF-8"?>
<!DOCTYPE svg PUBLIC "-//W3C//DTD SVG 1.1//EN" "http://www.w3.org/Graphics/SVG/1.1/DTD/svg11.dtd">
<!-- Creator: CorelDRAW 2019 (64-Bit) -->
<svg xmlns="http://www.w3.org/2000/svg" xml:space="preserve" width="640px" height="640px" version="1.1" style="shape-rendering:geometricPrecision; text-rendering:geometricPrecision; image-rendering:optimizeQuality; fill-rule:evenodd; clip-rule:evenodd"
viewBox="0 0 36.81 36.81"
 xmlns:xlink="http://www.w3.org/1999/xlink">
 <defs>
  <style type="text/css">
   <![CDATA[
    .fil0 {fill:none}
    .fil1 {fill:#0A2155;fill-rule:nonzero}
    .fil2 {fill:#FFC221;fill-rule:nonzero}
   ]]>
  </style>
 </defs>
 <g id="Layer_x0020_1">
  <metadata id="CorelCorpID_0Corel-Layer"/>
  <rect class="fil0" width="36.81" height="36.81"/>
 </g>
 <g id="Layer_x0020_3">
  <metadata id="CorelCorpID_1Corel-Layer"/>
  <g id="_2389670646544">
   <polygon class="fil1" points="17.51,23.92 19.3,23.92 19.3,23.03 17.51,23.03 "/>
   <path class="fil1" d="M29.56 5.18l-22.31 0c-0.99,0 -1.78,0.8 -1.79,1.78l0 16.96c0.01,0.98 0.8,1.78 1.79,1.78l8.03 0 0 4.47 -1.34 0 0 0.89 8.93 0 0 -0.89 -1.34 0 0 -4.47 8.03 0c0.99,0 1.79,-0.8 1.79,-1.78l0 -16.96c0,-0.98 -0.8,-1.78 -1.79,-1.78zm-23.2 1.78c0,-0.49 0.4,-0.89 0.89,-0.89l22.31 0c0.49,0 0.89,0.4 0.89,0.89l0 14.28 -24.09 0 0 -14.28zm14.28 23.21l-4.47 0 0 -4.47 4.47 0 0 4.47zm8.92 -5.36l-22.31 0c-0.49,0 -0.89,-0.4 -0.89,-0.89l0 -1.79 24.09 0 0 1.79c0,0.49 -0.4,0.89 -0.89,0.89z"/>
   <path class="fil2" d="M20.19 7.85c-0.97,0 -1.89,0.46 -2.48,1.23 -0.59,0.77 -0.79,1.77 -0.54,2.71l-1.39 0.59c-0.38,-0.54 -0.98,-0.89 -1.63,-0.95 -0.66,-0.06 -1.31,0.18 -1.78,0.64l-2.48 -1.66c0.16,-0.63 -0.16,-1.29 -0.76,-1.55 -0.59,-0.27 -1.3,-0.06 -1.66,0.48 -0.36,0.54 -0.28,1.27 0.19,1.72 0.48,0.45 1.21,0.49 1.73,0.1l2.49 1.65c-0.25,0.61 -0.22,1.28 0.08,1.86l-1.05 0.84c-0.88,-0.73 -2.18,-0.68 -2.99,0.12 -0.82,0.81 -0.9,2.1 -0.18,2.99 0.71,0.9 1.99,1.1 2.95,0.48 0.96,-0.62 1.3,-1.87 0.78,-2.89l1.05 -0.84c0.81,0.68 1.99,0.69 2.82,0.03l2.7 2.25c-0.18,0.5 -0.06,1.06 0.32,1.42 0.38,0.37 0.94,0.49 1.43,0.29 0.49,-0.19 0.82,-0.65 0.85,-1.18 0.02,-0.53 -0.27,-1.02 -0.74,-1.26l0.35 -2.82c1.71,-0.03 3.08,-1.44 3.06,-3.15 -0.02,-1.71 -1.41,-3.09 -3.12,-3.1zm-2.66 4.76c0.41,0.67 1.07,1.17 1.83,1.38l-0.35 2.82c-0.14,0.03 -0.27,0.08 -0.4,0.16l-2.7 -2.26c0.25,-0.46 0.32,-0.99 0.22,-1.51l1.4 -0.59zm-8.94 -2.08c-0.18,0 -0.35,-0.11 -0.41,-0.27 -0.07,-0.17 -0.04,-0.36 0.09,-0.49 0.13,-0.13 0.32,-0.17 0.49,-0.1 0.17,0.07 0.27,0.23 0.27,0.42 0,0.24 -0.2,0.44 -0.44,0.44zm0.89 8.03c-0.54,0 -1.03,-0.32 -1.24,-0.82 -0.2,-0.5 -0.09,-1.08 0.29,-1.46 0.39,-0.38 0.96,-0.5 1.46,-0.29 0.5,0.21 0.83,0.69 0.83,1.24 0,0.73 -0.6,1.33 -1.34,1.33zm4.46 -3.57c-0.54,0 -1.03,-0.32 -1.23,-0.82 -0.21,-0.5 -0.1,-1.08 0.29,-1.46 0.38,-0.38 0.95,-0.5 1.46,-0.29 0.5,0.21 0.82,0.69 0.82,1.24 0,0.73 -0.6,1.33 -1.34,1.33zm5.36 3.57c-0.18,0 -0.35,-0.1 -0.41,-0.27 -0.07,-0.17 -0.04,-0.36 0.09,-0.49 0.13,-0.13 0.32,-0.16 0.49,-0.09 0.17,0.06 0.27,0.23 0.27,0.41 0,0.24 -0.2,0.44 -0.44,0.44zm0.89 -5.35c-0.9,0 -1.72,-0.54 -2.06,-1.38 -0.35,-0.83 -0.16,-1.79 0.48,-2.43 0.64,-0.64 1.6,-0.83 2.43,-0.48 0.84,0.34 1.38,1.16 1.38,2.06 0,1.23 -1,2.23 -2.23,2.23z"/>
   <polygon class="fil1" points="24.65,8.75 29.12,8.75 29.12,7.85 24.65,7.85 "/>
   <polygon class="fil1" points="24.65,10.53 26.44,10.53 26.44,9.64 24.65,9.64 "/>
   <polygon class="fil1" points="24.65,12.32 28.22,12.32 28.22,11.42 24.65,11.42 "/>
   <polygon class="fil1" points="24.65,14.1 29.12,14.1 29.12,13.21 24.65,13.21 "/>
   <polygon class="fil1" points="24.65,15.89 27.33,15.89 27.33,14.99 24.65,14.99 "/>
   <polygon class="fil1" points="24.65,17.67 28.22,17.67 28.22,16.78 24.65,16.78 "/>
   <polygon class="fil1" points="24.65,19.46 29.12,19.46 29.12,18.56 24.65,18.56 "/>
  </g>
 </g>
</svg>
