<?xml version="1.0" encoding="UTF-8"?>
<!DOCTYPE svg PUBLIC "-//W3C//DTD SVG 1.1//EN" "http://www.w3.org/Graphics/SVG/1.1/DTD/svg11.dtd">
<!-- Creator: CorelDRAW 2019 (64-Bit) -->
<svg xmlns="http://www.w3.org/2000/svg" xml:space="preserve" width="640px" height="640px" version="1.1" style="shape-rendering:geometricPrecision; text-rendering:geometricPrecision; image-rendering:optimizeQuality; fill-rule:evenodd; clip-rule:evenodd"
viewBox="0 0 151.37 151.37"
 xmlns:xlink="http://www.w3.org/1999/xlink">
 <defs>
  <style type="text/css">
   <![CDATA[
    .fil0 {fill:none}
    .fil1 {fill:#0A2155}
    .fil2 {fill:#FFC221}
   ]]>
  </style>
 </defs>
 <g id="Layer_x0020_1">
  <metadata id="CorelCorpID_0Corel-Layer"/>
  <rect class="fil0" width="151.37" height="151.37"/>
  <g id="_2042512604432">
   <path class="fil1" d="M129.38 117.23l-3.06 0 0 -67.79c0,-0.76 -0.62,-1.37 -1.37,-1.37l-20.44 0c-0.73,-5.07 -2.77,-9.8 -6.01,-13.88 -0.48,-0.59 -1.34,-0.69 -1.93,-0.22 -0.59,0.47 -0.69,1.33 -0.22,1.93 3.74,4.71 5.73,10.38 5.73,16.41 0,14.55 -11.84,26.39 -26.4,26.39 -5.01,0 -9.78,-1.38 -13.96,-3.99l2.18 -0.5c0.74,-0.16 1.2,-0.9 1.03,-1.64 -0.16,-0.74 -0.9,-1.2 -1.64,-1.03l-5.18 1.17c-0.35,0.08 -0.66,0.3 -0.86,0.61 -0.19,0.3 -0.25,0.67 -0.17,1.03l1.17 5.18c0.14,0.64 0.71,1.07 1.34,1.07 0.1,0 0.2,-0.01 0.3,-0.04 0.74,-0.16 1.2,-0.9 1.04,-1.64l-0.39 -1.73c4.54,2.79 9.72,4.25 15.14,4.25 13.98,0 25.69,-9.9 28.5,-23.05l12.54 0 0 51.26 -82.08 0 0 -51.26 12.55 0c0.75,3.54 2.16,6.91 4.18,9.97 0.26,0.4 0.7,0.61 1.14,0.61 0.26,0 0.52,-0.07 0.76,-0.23 0.63,-0.42 0.8,-1.27 0.38,-1.9 -2.85,-4.31 -4.36,-9.34 -4.36,-14.53 0,-14.55 11.84,-26.39 26.39,-26.39 4.05,0 7.99,0.92 11.58,2.67l-1.77 0.41c-0.74,0.17 -1.2,0.91 -1.02,1.64 0.14,0.64 0.71,1.07 1.33,1.07 0.1,0 0.21,-0.02 0.31,-0.04l5.18 -1.2c0.73,-0.17 1.19,-0.91 1.02,-1.65l-1.2 -5.17c-0.17,-0.74 -0.9,-1.2 -1.64,-1.03 -0.74,0.17 -1.2,0.91 -1.03,1.65l0.48 2.08c-4.08,-2.08 -8.6,-3.17 -13.24,-3.17 -14.62,0 -26.76,10.83 -28.82,24.89l-20.44 0c-0.75,0 -1.37,0.61 -1.37,1.37l0 67.79 -3.06 0c-0.76,0 -1.37,0.62 -1.37,1.38l0 4.4c0,3.18 2.59,5.77 5.77,5.77l98.59 0c3.18,0 5.77,-2.59 5.77,-5.77l0 -4.4c0,-0.76 -0.61,-1.38 -1.37,-1.38l0 0zm-101.58 -66.42l18.79 0c-0.02,0.5 -0.04,1 -0.04,1.5 0,1.12 0.07,2.24 0.2,3.34l-13.48 0c-0.75,0 -1.37,0.61 -1.37,1.37l0 54c0,0.76 0.62,1.37 1.37,1.37l84.83 0c0.75,0 1.37,-0.61 1.37,-1.37l0 -54c0,-0.76 -0.62,-1.37 -1.37,-1.37l-13.48 0c0.13,-1.1 0.2,-2.21 0.2,-3.34 0,-0.5 -0.02,-1 -0.05,-1.5l18.8 0 0 66.42 -95.77 0 0 -66.42zm100.21 72.2c0,1.67 -1.36,3.03 -3.03,3.03l-98.59 0c-1.67,0 -3.03,-1.36 -3.03,-3.03l0 -3.04 104.65 0 0 3.04zm-55.14 -15.28l5.63 0c0.75,0 1.37,-0.62 1.37,-1.37l0 -10.22 2.46 0c0.52,0 0.99,-0.3 1.23,-0.76 0.23,-0.47 0.18,-1.02 -0.13,-1.44l-6.65 -8.86c-0.26,-0.34 -0.66,-0.54 -1.1,-0.54 -0.43,0 -0.83,0.2 -1.09,0.54l-6.65 8.86c-0.31,0.42 -0.36,0.97 -0.13,1.44 0.24,0.46 0.71,0.76 1.23,0.76l2.46 0 0 10.22c0,0.75 0.62,1.37 1.37,1.37l0 0zm2.81 -19.54l3.91 5.2 -1.09 0c-0.76,0 -1.38,0.62 -1.38,1.37l0 10.23 -2.87 0 0 -10.23c0,-0.75 -0.62,-1.37 -1.38,-1.37l-1.09 0 3.9 -5.2z"/>
   <path class="fil2" d="M85.97 34.76l-2.98 1.93c-0.47,-0.22 -0.94,-0.42 -1.42,-0.59l-0.75 -3.48c-0.24,-1.12 -1.21,-1.89 -2.35,-1.89l-5.57 0c-1.14,0 -2.11,0.78 -2.35,1.89l-0.74 3.48c-0.48,0.17 -0.96,0.37 -1.43,0.59l-2.98 -1.93c-0.96,-0.62 -2.2,-0.49 -3.01,0.32l-3.93 3.94c-0.81,0.81 -0.94,2.04 -0.32,3l1.93 2.99c-0.22,0.46 -0.42,0.94 -0.6,1.42l-3.47 0.74c-1.12,0.24 -1.9,1.21 -1.9,2.36l0 5.56c0,1.15 0.78,2.11 1.9,2.35l3.47 0.75c0.17,0.48 0.37,0.96 0.59,1.42l-1.93 2.99c-0.62,0.95 -0.48,2.19 0.32,3l3.94 3.94c0.81,0.81 2.05,0.94 3.01,0.32l2.98 -1.93c0.46,0.22 0.94,0.41 1.42,0.59l0.75 3.47c0.24,1.12 1.2,1.9 2.35,1.9l5.57 0c1.14,0 2.11,-0.78 2.35,-1.9l0.74 -3.47c0.48,-0.17 0.96,-0.37 1.43,-0.59l2.98 1.93c0.96,0.62 2.2,0.49 3.01,-0.32l3.93 -3.94c0.81,-0.81 0.94,-2.05 0.32,-3.01l-1.93 -2.98c0.22,-0.47 0.42,-0.94 0.6,-1.42l3.47 -0.75c1.12,-0.24 1.9,-1.21 1.9,-2.35l0 -5.57c0,-1.14 -0.78,-2.11 -1.9,-2.35l-3.47 -0.74c-0.18,-0.48 -0.37,-0.96 -0.59,-1.43l1.93 -2.98c0.62,-0.96 0.48,-2.2 -0.32,-3.01l-3.94 -3.93c-0.81,-0.81 -2.05,-0.94 -3.01,-0.32l0 0zm2.78 11.27c0.24,0.48 0.45,0.98 0.62,1.49 0.28,0.79 0.94,1.37 1.77,1.55l3.39 0.73 0 5.02 -3.39 0.73c-0.83,0.18 -1.49,0.76 -1.77,1.56 -0.17,0.5 -0.38,1 -0.62,1.49 -0.37,0.76 -0.31,1.64 0.15,2.35l1.88 2.91 -3.55 3.55 -2.91 -1.88c-0.71,-0.46 -1.59,-0.52 -2.35,-0.15 -0.49,0.23 -0.99,0.44 -1.49,0.62 -0.8,0.28 -1.38,0.94 -1.56,1.76l-0.73 3.39 -5.02 0 -0.73 -3.39c-0.18,-0.82 -0.76,-1.48 -1.55,-1.76 -0.51,-0.18 -1.01,-0.39 -1.49,-0.62 -0.76,-0.37 -1.64,-0.31 -2.35,0.15l-2.92 1.88 -3.55 -3.55 1.89 -2.91c0.46,-0.71 0.51,-1.59 0.14,-2.36 -0.23,-0.48 -0.44,-0.98 -0.62,-1.49 -0.28,-0.79 -0.94,-1.37 -1.76,-1.55l-3.39 -0.73 0 -5.02 3.39 -0.73c0.83,-0.18 1.49,-0.76 1.77,-1.56 0.17,-0.5 0.38,-1.01 0.62,-1.49 0.36,-0.76 0.31,-1.64 -0.15,-2.35l-1.88 -2.91 3.55 -3.55 2.91 1.88c0.71,0.46 1.59,0.51 2.35,0.15 0.48,-0.24 0.98,-0.44 1.49,-0.62 0.8,-0.28 1.38,-0.94 1.55,-1.77l0.73 -3.39 5.03 0 0.72 3.39c0.18,0.83 0.76,1.49 1.56,1.77 0.5,0.17 1.01,0.38 1.49,0.62 0.76,0.36 1.64,0.31 2.35,-0.15l2.92 -1.88 3.55 3.55 -1.89 2.91c-0.46,0.71 -0.51,1.59 -0.15,2.36l0 0zm-13.07 -5.54c-6.51,0 -11.81,5.3 -11.81,11.82 0,6.52 5.3,11.82 11.81,11.82 6.52,0 11.82,-5.3 11.82,-11.82 0,-6.52 -5.3,-11.82 -11.82,-11.82zm0 20.89c-5,0 -9.07,-4.07 -9.07,-9.07 0,-5.01 4.07,-9.08 9.07,-9.08 5.01,0 9.08,4.07 9.08,9.08 0,5 -4.07,9.07 -9.08,9.07z"/>
  </g>
 </g>
</svg>
