<?xml version="1.0" encoding="UTF-8"?>
<!DOCTYPE svg PUBLIC "-//W3C//DTD SVG 1.1//EN" "http://www.w3.org/Graphics/SVG/1.1/DTD/svg11.dtd">
<!-- Creator: CorelDRAW 2019 (64-Bit) -->
<svg xmlns="http://www.w3.org/2000/svg" xml:space="preserve" width="640px" height="640px" version="1.1" style="shape-rendering:geometricPrecision; text-rendering:geometricPrecision; image-rendering:optimizeQuality; fill-rule:evenodd; clip-rule:evenodd"
viewBox="0 0 52.06 52.06"
 xmlns:xlink="http://www.w3.org/1999/xlink">
 <defs>
  <style type="text/css">
   <![CDATA[
    .fil0 {fill:none}
    .fil1 {fill:#0A2155}
    .fil2 {fill:#FFC221}
   ]]>
  </style>
 </defs>
 <g id="Layer_x0020_1">
  <metadata id="CorelCorpID_0Corel-Layer"/>
  <rect class="fil0" width="52.06" height="52.06"/>
 </g>
 <g id="Capa_x0020_1">
  <metadata id="CorelCorpID_1Corel-Layer"/>
  <g id="_2901663861472">
   <path class="fil1" d="M32.74 17.41c0,0.64 0.45,0.81 1.12,1.48 0.28,0.29 0.87,1.05 1.32,1.05 0.54,0 0.63,-0.38 0.63,-0.79 0,-0.28 -0.7,-0.78 -0.87,-1.03 3.16,0.27 5.46,1.93 6.74,4.47 1.41,2.82 0.78,6.59 -1.31,8.85 -0.6,0.65 -1.41,1.2 -2.19,1.59 -4.05,2.04 -9.94,0.26 -11.22,-5.03 -0.09,-0.37 -0.19,-0.89 -0.22,-1.36 -0.09,-1.59 -0.1,-2.49 -0.73,-4.08 -0.31,-0.78 -0.71,-1.44 -1.17,-2.06 -0.23,-0.3 -0.45,-0.59 -0.72,-0.86 -0.15,-0.14 -0.25,-0.25 -0.4,-0.39 -4.17,-3.86 -10.94,-2.82 -13.75,1.43 -1.28,1.94 -1.61,3.32 -1.61,5.81 0,2.25 1.11,4.54 2.62,6.05 0.73,0.73 1.55,1.34 2.56,1.78 0.91,0.39 2.33,0.84 3.58,0.84 -0.29,0.44 -0.87,0.63 -0.87,1.27 0,0.37 0.32,0.63 0.63,0.63 0.41,0 2.44,-1.99 2.44,-2.45 0,-0.57 -0.68,-1.04 -1.08,-1.44 -0.29,-0.29 -0.91,-1.08 -1.36,-1.08 -0.54,0 -0.63,0.38 -0.63,0.79 0,0.28 0.7,0.78 0.87,1.02 -1.48,-0.34 -2.63,-0.29 -4.23,-1.45 -0.83,-0.6 -1.34,-1.1 -1.91,-1.96 -1.52,-2.27 -1.77,-5.19 -0.67,-7.73 0.24,-0.57 0.7,-1.37 1.11,-1.82 0.58,-0.64 0.21,-0.35 0.98,-0.98 2.87,-2.36 7.03,-2.44 9.97,-0.15 2.04,1.59 3.05,4.01 3.03,6.68 -0.02,2.79 1.82,5.67 4.14,7.22 4.01,2.69 9.91,1.58 12.52,-2.32 1.3,-1.93 1.64,-3.34 1.64,-5.85 0,-2.26 -1.11,-4.54 -2.62,-6.05 -0.67,-0.67 -1.64,-1.39 -2.57,-1.77 -0.95,-0.39 -2.22,-0.86 -3.57,-0.86 0.35,-0.51 0.87,-0.56 0.87,-1.34 0,-0.32 -0.52,-0.62 -0.87,-0.48 -0.3,0.12 -1.26,1.15 -1.55,1.45 -0.24,0.24 -0.65,0.51 -0.65,0.92z"/>
   <path class="fil2" d="M14.91 21.91c0.16,-0.08 0.18,-0.11 0.39,-0.16 0.37,1.38 1.27,0.63 2.13,0.63 0.57,0 1.04,0.24 1.5,0.24 0.34,0 0.62,-0.69 0.87,-0.87 0.53,0.36 -0.13,0.56 -0.13,1.11 0,0.59 0.75,0.5 1.28,2.16 0.28,0.86 0.39,0.84 1.37,0.84l0 0.39c-1.74,0 -0.99,0.26 -1.63,1.45 -0.11,0.2 -0.33,0.54 -0.48,0.7 -0.12,0.14 -0.57,0.52 -0.57,0.69 0,0.72 0.71,0.82 0.16,1.18 -0.3,-0.19 -0.16,-0.15 -0.35,-0.44 -0.64,-0.95 -0.59,0.03 -2.64,-0.28 -0.25,-0.04 -1.22,-0.53 -1.51,0.72 -0.21,-0.04 -0.23,-0.07 -0.39,-0.15 0.47,-0.89 0.54,-0.99 0.14,-1.41 -0.17,-0.17 -0.18,-0.2 -0.33,-0.38 -0.24,-0.31 -0.38,-0.48 -0.55,-0.87 -0.41,-0.98 -0.05,-1.29 -1.55,-1.29 0.01,-0.62 0.22,-0.19 0.91,-0.42 0.45,-0.15 0.44,-0.63 0.58,-1.01 0.17,-0.47 0.45,-0.91 0.81,-1.24 0.55,-0.52 0.49,-0.63 -0.01,-1.59zm-1.42 -0.08c0,0.29 0.21,0.67 0.31,0.87 -0.19,0.29 -0.4,0.52 -0.58,0.84 -0.18,0.34 -0.28,0.66 -0.44,0.97 -1.6,0 -1.42,0.73 -1.42,2.06 0,0.31 0.22,0.61 0.42,0.76 0.29,0.2 0.53,0.18 1,0.18 0.66,1.38 0.16,0.53 1.02,1.82 -0.36,0.68 -0.57,1.32 0.35,1.86 0.28,0.16 0.8,0.5 1.15,0.5 0.57,0 1,-0.41 1.11,-0.86 0.67,0.05 1.33,0.18 2.13,0 0.64,1.21 1.22,0.99 2.21,0.4 0.84,-0.5 0.91,-1.13 0.39,-1.9 0.34,-0.51 0.81,-0.89 1.02,-1.82 0.59,0 0.8,0.01 1.13,-0.29 0.52,-0.47 0.52,-1.95 0,-2.41 -0.33,-0.3 -0.54,-0.3 -1.13,-0.3 -0.11,-0.47 -0.42,-1.03 -0.7,-1.42 -0.13,-0.16 -0.21,-0.22 -0.32,-0.39 1.19,-1.78 -1.42,-2.37 -1.42,-2.37 -0.71,0 -0.94,0.41 -1.18,0.87 -1.39,-0.11 -0.75,-0.11 -2.13,0 -0.1,-0.41 -0.53,-0.87 -1.03,-0.87 -0.49,0 -1.89,0.63 -1.89,1.5z"/>
   <path class="fil2" d="M16.01 26.01c0,-0.52 0.36,-1.09 0.81,-1.32 1.6,-0.77 2.77,1.3 1.72,2.36 -1,1.02 -2.53,0.18 -2.53,-1.04zm-1.26 -0.31l0 0.63c0,1.12 1.33,2.44 2.44,2.44l0.48 0c1.4,0 2.6,-1.36 2.6,-2.76 0,-1.39 -1.21,-2.76 -2.6,-2.76l-0.48 0c-1.11,0 -2.44,1.33 -2.44,2.45z"/>
   <path class="fil2" d="M33.13 29.33c0,0.7 1.02,0.97 1.27,0.08 0.08,-0.31 0.15,-0.64 0.23,-0.95l1.42 -5.76c0,-0.25 -0.37,-0.63 -0.55,-0.63 -0.81,0 -0.8,0.73 -0.97,1.4 -0.21,0.87 -1.4,5.33 -1.4,5.86z"/>
   <path class="fil2" d="M39.28 26.01c-0.51,0.77 -1.79,1.54 -1.85,2.16 -0.04,0.35 0.27,0.68 0.67,0.68 0.44,0 1.12,-0.84 1.56,-1.28 1.7,-1.7 1.71,-1.41 0.04,-3.08 -0.38,-0.37 -1.15,-1.32 -1.6,-1.32 -0.33,0 -1.23,0.4 -0.18,1.44 0.36,0.35 1.13,1.05 1.36,1.4z"/>
   <path class="fil2" d="M28.24 26.01c0,0.49 1.59,1.86 1.99,2.27 0.31,0.31 0.43,0.57 0.93,0.57 0.18,0 0.55,-0.26 0.55,-0.63 0,-0.61 -1.4,-1.47 -1.89,-2.21 0.23,-0.34 0.68,-0.72 1,-1.04 0.27,-0.27 0.89,-0.72 0.89,-1.17 0,-0.38 -0.25,-0.63 -0.63,-0.63 -0.44,0 -1.12,0.84 -1.56,1.29 -0.44,0.44 -1.28,1.12 -1.28,1.55z"/>
  </g>
 </g>
</svg>
