<?xml version="1.0" encoding="UTF-8"?>
<!DOCTYPE svg PUBLIC "-//W3C//DTD SVG 1.1//EN" "http://www.w3.org/Graphics/SVG/1.1/DTD/svg11.dtd">
<!-- Creator: CorelDRAW 2019 (64-Bit) -->
<svg xmlns="http://www.w3.org/2000/svg" xml:space="preserve" width="640px" height="640px" version="1.1" style="shape-rendering:geometricPrecision; text-rendering:geometricPrecision; image-rendering:optimizeQuality; fill-rule:evenodd; clip-rule:evenodd"
viewBox="0 0 138.28 138.28"
 xmlns:xlink="http://www.w3.org/1999/xlink">
 <defs>
  <style type="text/css">
   <![CDATA[
    .fil0 {fill:none}
    .fil1 {fill:#0A2155}
    .fil2 {fill:#FFC221}
   ]]>
  </style>
 </defs>
 <g id="Layer_x0020_1">
  <metadata id="CorelCorpID_0Corel-Layer"/>
  <rect class="fil0" width="138.28" height="138.28"/>
  <path class="fil1" d="M117.06 26.92c-0.55,-3.31 -3.29,-4.7 -6.43,-4.7l-72.85 0c-1.92,0 -3.85,-0.07 -5.77,-0.1 -1.19,-0.02 -2.38,-0.03 -3.57,0.01 -0.83,0.02 -1.78,0.05 -2.6,0.2 -3.4,0.63 -4.75,3.13 -4.75,6.44l0 36.54c0,8.04 -0.1,16.08 0,24.13 0.05,3.94 -0.04,7.93 -0.07,11.88 -0.01,2.65 -0.02,5.3 0,7.94 0.01,0.96 0.02,1.92 0.05,2.87 0.02,0.45 0.02,1.05 0.1,1.49 0.62,3.38 3.24,4.68 6.46,4.69 14.04,0.05 28.09,0.09 42.14,0.11 9.59,0.01 19.18,0.01 28.78,-0.02 3.25,-0.01 6.51,-0.02 9.77,-0.06 0.97,-0.02 1.94,-0.03 2.91,-0.05 0.36,-0.01 0.91,-0.01 1.25,-0.06 3.33,-0.59 4.7,-3.28 4.7,-6.46l-0.01 -36.54c0,-8.03 0.08,-16.07 0.09,-24.1 0.01,-5.33 0.02,-10.67 -0.01,-16.01 -0.02,-1.86 -0.03,-3.72 -0.07,-5.58 -0.02,-0.75 0.01,-1.89 -0.12,-2.62zm-92.27 7.49c0,-1.5 0,-3.01 0,-4.51 0,-1.3 -0.33,-3.01 1.1,-3.73 0.62,-0.3 11.12,-0.29 12.22,-0.3 8.49,-0.05 16.98,-0.04 25.48,-0.03 12.29,0.01 24.59,0.09 36.89,0.09 2.97,0 5.96,-0.12 8.92,-0.09 1.05,0.01 2.83,-0.01 3.56,0.88 0.71,0.87 0.5,3.01 0.5,4.08l0 78.94c0,3.19 0.78,4.86 -3.29,4.86l-78.48 0.02c-1.41,0 -2.86,0.06 -4.27,0.01 -0.7,-0.03 -1.61,-0.09 -2.12,-0.64 -0.72,-0.78 -0.51,-3.01 -0.51,-4.02l0 -75.56z"/>
 </g>
 <g id="Layer_x0020_1_0">
  <metadata id="CorelCorpID_1Corel-Layer"/>
  <g id="_1918848869776">
   <g>
    <path class="fil2" d="M69.71 79.2l-2.56 -4.43c-0.33,-0.57 -1.03,-0.8 -1.63,-0.54l-2.09 0.92c-0.62,-0.46 -1.29,-0.85 -2.01,-1.16l-0.25 -2.27c-0.07,-0.65 -0.62,-1.14 -1.27,-1.14l-5.12 0c-0.65,0 -1.2,0.49 -1.27,1.14l-0.25 2.27c-0.71,0.31 -1.38,0.7 -2.01,1.16l-2.09 -0.92c-0.6,-0.26 -1.3,-0.03 -1.62,0.54l-2.56 4.43c-0.33,0.56 -0.18,1.28 0.35,1.67l1.84 1.35c-0.09,0.77 -0.09,1.55 0,2.32l-1.84 1.35c-0.53,0.39 -0.68,1.11 -0.35,1.67l2.56 4.44c0.32,0.56 1.02,0.79 1.62,0.53l2.09 -0.92c0.63,0.47 1.3,0.85 2.01,1.16l0.25 2.27c0.07,0.65 0.62,1.14 1.27,1.14l5.12 0c0.65,0 1.2,-0.49 1.27,-1.14l0.25 -2.27c0.72,-0.31 1.39,-0.69 2.01,-1.16l2.09 0.92c0.6,0.26 1.3,0.03 1.63,-0.53l2.56 -4.44c0.32,-0.56 0.17,-1.28 -0.35,-1.67l-1.85 -1.35c0.09,-0.77 0.09,-1.55 0,-2.32l1.85 -1.35c0.52,-0.39 0.67,-1.11 0.35,-1.67l0 0zm-4.83 2.7c0.19,0.97 0.19,1.99 0,2.97 -0.1,0.48 0.1,0.98 0.49,1.27l1.55 1.14 -1.42 2.45 -1.75 -0.77c-0.46,-0.2 -0.99,-0.12 -1.36,0.21 -0.76,0.66 -1.62,1.16 -2.57,1.48 -0.46,0.16 -0.8,0.58 -0.85,1.07l-0.21 1.9 -2.83 0 -0.21 -1.9c-0.06,-0.49 -0.39,-0.91 -0.86,-1.07 -0.95,-0.32 -1.81,-0.82 -2.57,-1.48 -0.37,-0.33 -0.9,-0.41 -1.35,-0.21l-1.76 0.77 -1.41 -2.45 1.54 -1.14c0.4,-0.29 0.59,-0.79 0.5,-1.27 -0.2,-0.98 -0.2,-2 0,-2.97 0.09,-0.49 -0.1,-0.99 -0.5,-1.28l-1.54 -1.13 1.41 -2.45 1.76 0.77c0.45,0.2 0.98,0.11 1.35,-0.21 0.76,-0.66 1.62,-1.16 2.57,-1.49 0.47,-0.16 0.8,-0.57 0.86,-1.07l0.21 -1.9 2.83 0 0.21 1.9c0.05,0.5 0.39,0.91 0.85,1.07 0.95,0.33 1.81,0.83 2.57,1.49 0.37,0.32 0.9,0.4 1.36,0.21l1.75 -0.77 1.42 2.45 -1.55 1.13c-0.39,0.29 -0.59,0.79 -0.49,1.28l0 0z"/>
    <path class="fil2" d="M57.34 78.9c-2.47,0 -4.48,2.01 -4.48,4.48 0.23,5.94 8.74,5.93 8.96,0 0,-2.47 -2.01,-4.48 -4.48,-4.48zm0 6.4c-1.06,0 -1.92,-0.86 -1.92,-1.92 0.1,-2.54 3.75,-2.54 3.84,0 0,1.06 -0.86,1.92 -1.92,1.92z"/>
    <path class="fil1" d="M97.37 43.35c-7.34,-7.65 -20.55,-7.65 -27.89,0 -1.66,1.66 -3.01,3.62 -3.99,5.75l0 -0.02c-0.29,-0.64 -1.05,-0.94 -1.69,-0.65 -0.65,0.29 -0.94,1.04 -0.66,1.69l1.3 2.92c0.14,0.31 0.39,0.56 0.71,0.68 0.31,0.12 0.67,0.11 0.98,-0.02l2.92 -1.3c0.65,-0.28 0.94,-1.04 0.66,-1.69 -0.29,-0.64 -1.05,-0.93 -1.69,-0.65l-0.19 0.09c0.84,-1.85 2.02,-3.55 3.46,-4.99 6.39,-6.65 17.88,-6.65 24.27,0 6.66,6.39 6.66,17.89 0,24.28 -6.39,6.65 -17.88,6.65 -24.27,0 -3.01,-3.01 -6.81,-4.93 -11.01,-5.56 -4.1,-0.62 -8.22,0.05 -11.9,1.93 -0.63,0.32 -0.88,1.09 -0.56,1.72 0.32,0.63 1.09,0.88 1.72,0.56 6.64,-3.39 14.66,-2.12 19.94,3.16 7.34,7.65 20.55,7.65 27.89,0 7.65,-7.35 7.65,-20.56 0,-27.9z"/>
    <path class="fil2" d="M71.06 61.48l2.56 4.44c0.33,0.56 1.02,0.79 1.62,0.53l2.09 -0.92c0.63,0.46 1.3,0.85 2.01,1.16l0.25 2.27c0.07,0.65 0.62,1.14 1.27,1.14l5.12 0c0.66,0 1.2,-0.49 1.28,-1.14l0.25 -2.27c0.71,-0.31 1.38,-0.7 2,-1.16l2.1 0.92c0.59,0.26 1.29,0.03 1.62,-0.53l2.56 -4.44c0.32,-0.56 0.17,-1.28 -0.35,-1.67l-1.84 -1.35c0.08,-0.77 0.08,-1.55 0,-2.32l1.84 -1.35c0.52,-0.39 0.67,-1.11 0.35,-1.67l-2.56 -4.44c-0.33,-0.56 -1.03,-0.79 -1.62,-0.53l-2.1 0.92c-0.62,-0.47 -1.29,-0.85 -2,-1.16l-0.25 -2.27c-0.08,-0.65 -0.62,-1.14 -1.28,-1.14l-5.12 0c-0.65,0 -1.2,0.49 -1.27,1.14l-0.25 2.27c-0.71,0.31 -1.38,0.69 -2.01,1.16l-2.09 -0.92c-0.6,-0.26 -1.29,-0.03 -1.62,0.53l-2.56 4.44c-0.33,0.56 -0.18,1.28 0.35,1.67l1.84 1.35c-0.09,0.77 -0.09,1.55 0,2.32l-1.84 1.35c-0.53,0.39 -0.68,1.11 -0.35,1.67l0 0zm4.83 -2.7c-0.19,-0.97 -0.19,-1.99 0,-2.96 0.09,-0.49 -0.1,-0.99 -0.5,-1.28l-1.54 -1.14 1.41 -2.44 1.76 0.76c0.45,0.2 0.98,0.12 1.35,-0.2 0.76,-0.67 1.62,-1.17 2.57,-1.49 0.47,-0.16 0.8,-0.58 0.86,-1.07l0.21 -1.9 2.83 0 0.21 1.9c0.05,0.49 0.39,0.91 0.86,1.07 0.94,0.32 1.81,0.82 2.56,1.48 0.38,0.33 0.91,0.41 1.36,0.21l1.75 -0.76 1.42 2.44 -1.54 1.14c-0.4,0.29 -0.6,0.79 -0.5,1.28 0.19,0.97 0.19,1.99 0,2.96 -0.1,0.49 0.1,0.99 0.5,1.28l1.54 1.13 -1.42 2.45 -1.75 -0.77c-0.45,-0.19 -0.98,-0.11 -1.36,0.21 -0.75,0.67 -1.62,1.16 -2.56,1.49 -0.47,0.16 -0.81,0.57 -0.86,1.07l-0.21 1.9 -2.83 0 -0.21 -1.9c-0.06,-0.49 -0.39,-0.91 -0.86,-1.07 -0.95,-0.32 -1.81,-0.82 -2.57,-1.49 -0.37,-0.32 -0.9,-0.4 -1.35,-0.21l-1.76 0.77 -1.41 -2.45 1.54 -1.13c0.4,-0.29 0.59,-0.79 0.5,-1.28l0 0z"/>
    <path class="fil2" d="M83.42 61.78c2.47,0 4.48,-2.01 4.48,-4.48 -0.22,-5.94 -8.73,-5.93 -8.96,0 0,2.47 2.01,4.48 4.48,4.48zm0 -6.4c1.06,0 1.92,0.86 1.92,1.92 -0.09,2.54 -3.74,2.54 -3.84,0 0,-1.06 0.87,-1.92 1.92,-1.92z"/>
    <path class="fil1" d="M76.33 87.64c-0.14,-0.31 -0.4,-0.56 -0.71,-0.68 -0.32,-0.12 -0.67,-0.11 -0.98,0.02l-2.93 1.3c-1.52,0.74 -0.53,2.97 1.04,2.34l0.19 -0.09c-0.85,1.85 -2.03,3.55 -3.46,4.99 -6.39,6.66 -17.89,6.66 -24.27,0 -5.28,-5.28 -6.55,-13.29 -3.16,-19.94 0.32,-0.63 0.07,-1.4 -0.56,-1.72 -0.63,-0.32 -1.4,-0.07 -1.72,0.55 -3.89,7.4 -2.38,17.07 3.63,22.92 9.53,9.71 26.32,6.68 31.87,-5.74l0.01 0.01c0.21,0.48 0.68,0.76 1.17,0.76 0.17,0 0.35,-0.03 0.52,-0.11 0.64,-0.28 0.94,-1.04 0.65,-1.69l-1.29 -2.92z"/>
    <path class="fil1" d="M44.3 71.62c0.29,0 0.58,-0.1 0.82,-0.3 0.54,-0.45 0.62,-1.26 0.16,-1.8 -0.45,-0.54 -1.26,-0.62 -1.8,-0.16l0 0c-0.54,0.45 -0.61,1.26 -0.16,1.8 0.25,0.3 0.61,0.46 0.98,0.46z"/>
   </g>
  </g>
 </g>
</svg>
