<?xml version="1.0" encoding="UTF-8"?>
<!DOCTYPE svg PUBLIC "-//W3C//DTD SVG 1.1//EN" "http://www.w3.org/Graphics/SVG/1.1/DTD/svg11.dtd">
<!-- Creator: CorelDRAW 2019 (64-Bit) -->
<svg xmlns="http://www.w3.org/2000/svg" xml:space="preserve" width="640px" height="640px" version="1.1" style="shape-rendering:geometricPrecision; text-rendering:geometricPrecision; image-rendering:optimizeQuality; fill-rule:evenodd; clip-rule:evenodd"
viewBox="0 0 36.76 36.76"
 xmlns:xlink="http://www.w3.org/1999/xlink">
 <defs>
  <style type="text/css">
   <![CDATA[
    .fil0 {fill:none}
    .fil1 {fill:#0A2155;fill-rule:nonzero}
    .fil2 {fill:#FFC221;fill-rule:nonzero}
   ]]>
  </style>
 </defs>
 <g id="Layer_x0020_1">
  <metadata id="CorelCorpID_0Corel-Layer"/>
  <rect class="fil0" width="36.76" height="36.76"/>
 </g>
 <g id="Layer_x0020_3">
  <metadata id="CorelCorpID_1Corel-Layer"/>
  <g id="bullhorn.eps">
   <path class="fil1" d="M20.5 27.91l-0.85 0 0 -4.15c0,-0.24 -0.19,-0.43 -0.42,-0.43 -0.24,0 -0.43,0.19 -0.43,0.43l0 4.15 -11.01 0 0 -8.47 3.52 0c0.24,0 0.42,-0.19 0.42,-0.43 0,-0.23 -0.18,-0.42 -0.42,-0.42l-3.95 0c-0.23,0 -0.42,0.19 -0.42,0.42l0 8.9 -0.85 0c-0.23,0 -0.42,0.19 -0.42,0.42l0 0.85c0,1.17 0.95,2.12 2.12,2.12l11.01 0c1.17,0 2.12,-0.95 2.12,-2.12l0 -0.85c0,-0.23 -0.19,-0.42 -0.42,-0.42zm-0.43 1.27c0,0.7 -0.57,1.27 -1.27,1.27l-0.85 0 0 -0.42c0,-0.23 -0.19,-0.42 -0.42,-0.42 -0.23,0 -0.42,0.19 -0.42,0.42l0 0.42 -7.63 0 0 -0.42c0,-0.23 -0.19,-0.42 -0.42,-0.42 -0.24,0 -0.43,0.19 -0.43,0.42l0 0.42 -0.84 0c-0.71,0 -1.27,-0.57 -1.27,-1.27l0 -0.42 13.55 0 0 0.42z"/>
   <path class="fil1" d="M27.7 8.42l0.85 0c0.23,0 0.42,-0.19 0.42,-0.42 0,-0.24 -0.19,-0.43 -0.42,-0.43l-0.85 0c-0.7,0 -1.27,0.57 -1.27,1.28l0 0.42 -0.43 0c-0.23,0 -0.42,0.19 -0.42,0.42 0,0.24 0.19,0.43 0.42,0.43l0.43 0 0 1.27c0,0.23 0.19,0.42 0.42,0.42 0.24,0 0.42,-0.19 0.42,-0.42l0 -1.27 0.43 0c0.23,0 0.42,-0.19 0.42,-0.43 0,-0.23 -0.19,-0.42 -0.42,-0.42l-0.43 0 0 -0.42c0,-0.24 0.19,-0.43 0.43,-0.43z"/>
   <path class="fil1" d="M29.82 5.88l-5.09 0c-0.7,0 -1.27,0.57 -1.27,1.27l0 0.85c0,0.23 0.19,0.42 0.43,0.42 0.23,0 0.42,-0.19 0.42,-0.42l0 -0.85c0,-0.23 0.19,-0.42 0.42,-0.42l5.09 0c0.23,0 0.42,0.19 0.42,0.42l0 5.08c0,0.24 -0.19,0.43 -0.42,0.43l-5.09 0c-0.23,0 -0.42,-0.19 -0.42,-0.43l0 -2.54c0,-0.23 -0.19,-0.42 -0.42,-0.42 -0.24,0 -0.43,0.19 -0.43,0.42l0 2.54c0,0.71 0.57,1.28 1.27,1.28l5.09 0c0.7,0 1.27,-0.57 1.27,-1.28l0 -5.08c0,-0.7 -0.57,-1.27 -1.27,-1.27z"/>
   <path class="fil1" d="M25.58 22.83c0,0.68 0.41,1.3 1.05,1.56 0.63,0.26 1.36,0.12 1.84,-0.37 0.49,-0.48 0.63,-1.21 0.37,-1.84 -0.26,-0.64 -0.88,-1.05 -1.57,-1.05 -0.93,0 -1.69,0.76 -1.69,1.7zm2.54 0c0,0.34 -0.2,0.65 -0.52,0.78 -0.32,0.13 -0.68,0.06 -0.92,-0.18 -0.25,-0.25 -0.32,-0.61 -0.19,-0.93 0.13,-0.31 0.44,-0.52 0.78,-0.52 0.47,0 0.85,0.38 0.85,0.85z"/>
   <path class="fil1" d="M29.82 19.01l-5.09 0c-0.7,0 -1.27,0.57 -1.27,1.27l0 5.09c0,0.7 0.57,1.27 1.27,1.27l5.09 0c0.7,0 1.27,-0.57 1.27,-1.27l0 -0.85c0,-0.23 -0.19,-0.42 -0.43,-0.42 -0.23,0 -0.42,0.19 -0.42,0.42l0 0.85c0,0.23 -0.19,0.42 -0.42,0.42l-5.09 0c-0.23,0 -0.42,-0.19 -0.42,-0.42l0 -5.09c0,-0.23 0.19,-0.42 0.42,-0.42l5.09 0c0.23,0 0.42,0.19 0.42,0.42l0 2.55c0,0.23 0.19,0.42 0.42,0.42 0.24,0 0.43,-0.19 0.43,-0.42l0 -2.55c0,-0.7 -0.57,-1.27 -1.27,-1.27z"/>
   <path class="fil1" d="M15.19 10.9c0.07,0.04 0.14,0.06 0.22,0.06 0.07,0 0.13,-0.01 0.19,-0.04l2.54 -1.27c0.15,-0.08 0.24,-0.22 0.24,-0.38 0,-0.16 -0.09,-0.31 -0.24,-0.38l-2.54 -1.27c-0.13,-0.07 -0.28,-0.06 -0.41,0.02 -0.12,0.08 -0.2,0.21 -0.2,0.36l0 2.54c0,0.15 0.07,0.28 0.2,0.36zm0.65 -2.22l1.17 0.59 -1.17 0.58 0 -1.17z"/>
   <path class="fil1" d="M16.26 13.08c1.54,0 2.93,-0.93 3.52,-2.35 0.59,-1.43 0.27,-3.07 -0.82,-4.16 -1.09,-1.09 -2.73,-1.41 -4.16,-0.82 -1.42,0.59 -2.35,1.98 -2.35,3.52 0,2.1 1.7,3.81 3.81,3.81zm0 -6.78c1.2,0 2.28,0.73 2.74,1.83 0.46,1.11 0.2,2.39 -0.64,3.24 -0.85,0.84 -2.13,1.1 -3.24,0.64 -1.1,-0.46 -1.83,-1.54 -1.83,-2.74 0,-1.64 1.33,-2.97 2.97,-2.97z"/>
   <path class="fil2" d="M20.5 14.78c0.13,0 0.26,-0.07 0.34,-0.17l1.27 -1.7c0.14,-0.18 0.1,-0.45 -0.09,-0.59 -0.19,-0.14 -0.45,-0.1 -0.59,0.08l-1.27 1.7c-0.14,0.19 -0.11,0.45 0.08,0.59 0.08,0.06 0.16,0.09 0.26,0.09z"/>
   <path class="fil2" d="M21.43 16.3c0.08,0.11 0.2,0.17 0.34,0.17 0.09,0 0.18,-0.03 0.25,-0.08l1.7 -1.27c0.18,-0.14 0.22,-0.41 0.08,-0.6 -0.14,-0.18 -0.41,-0.22 -0.59,-0.08l-1.7 1.27c-0.18,0.14 -0.22,0.4 -0.08,0.59z"/>
   <path class="fil2" d="M25.58 17.23c-0.02,-0.11 -0.09,-0.21 -0.18,-0.27 -0.1,-0.07 -0.22,-0.09 -0.33,-0.06l-2.12 0.42c-0.23,0.02 -0.4,0.23 -0.38,0.46 0.03,0.24 0.23,0.41 0.47,0.39l0.08 0 2.12 -0.43c0.12,-0.02 0.22,-0.08 0.28,-0.18 0.06,-0.1 0.09,-0.21 0.06,-0.33z"/>
   <path class="fil1" d="M6.09 17.32l5.09 0c0.23,0 0.42,-0.19 0.42,-0.42l0 -6.78c0,-0.24 -0.19,-0.43 -0.42,-0.43l-5.09 0c-0.23,0 -0.42,0.19 -0.42,0.43l0 6.78c0,0.23 0.19,0.42 0.42,0.42zm0.43 -6.78l4.23 0 0 5.93 -4.23 0 0 -5.93z"/>
   <path class="fil1" d="M9.48 11.39l-0.85 0c-0.23,0 -0.42,0.19 -0.42,0.42 0,0.23 0.19,0.42 0.42,0.42l0.85 0c0.23,0 0.42,-0.19 0.42,-0.42 0,-0.23 -0.19,-0.42 -0.42,-0.42z"/>
   <path class="fil1" d="M9.48 13.08l-1.69 0c-0.24,0 -0.43,0.19 -0.43,0.43 0,0.23 0.19,0.42 0.43,0.42l1.69 0c0.23,0 0.42,-0.19 0.42,-0.42 0,-0.24 -0.19,-0.43 -0.42,-0.43z"/>
   <path class="fil1" d="M9.48 14.78l-1.69 0c-0.24,0 -0.43,0.19 -0.43,0.42 0,0.23 0.19,0.42 0.43,0.42l1.69 0c0.23,0 0.42,-0.19 0.42,-0.42 0,-0.23 -0.19,-0.42 -0.42,-0.42z"/>
   <path class="fil2" d="M20.12 17.19c-0.11,-0.2 -0.37,-0.27 -0.58,-0.16 -0.2,0.12 -0.27,0.38 -0.15,0.59l1.86 3.23 -6.77 2.54c0,0 0,0 -0.03,0l-0.04 0 -1.1 0.64 -0.73 0.42c-0.2,0.11 -0.43,0.14 -0.65,0.08 -0.21,-0.05 -0.4,-0.2 -0.51,-0.39l-0.85 -1.47c-0.2,-0.39 -0.06,-0.88 0.32,-1.11l1.47 -0.85 1.06 1.83c0.07,0.13 0.21,0.22 0.37,0.21 0.15,0.01 0.29,-0.08 0.36,-0.21 0.08,-0.13 0.08,-0.29 0,-0.42l-1.09 -1.89 5.32 -4.39 0.17 0.31c0.06,0.09 0.15,0.16 0.26,0.19 0.11,0.03 0.22,0.02 0.32,-0.04 0.1,-0.05 0.17,-0.15 0.2,-0.26 0.03,-0.1 0.01,-0.22 -0.04,-0.32l-0.42 -0.73c-0.07,-0.11 -0.17,-0.18 -0.3,-0.2 -0.12,-0.03 -0.25,0 -0.34,0.08l-5.94 4.89 -1.8 1.05c-0.67,0.38 -0.99,1.17 -0.78,1.91l-0.42 0.25c-0.45,0.25 -0.7,0.75 -0.63,1.26 0.07,0.51 0.43,0.93 0.93,1.07 0.11,0.02 0.22,0.04 0.33,0.04 0.22,0 0.44,-0.06 0.64,-0.17l0.42 -0.24c0.2,0.21 0.46,0.36 0.74,0.44 0.15,0.04 0.3,0.06 0.45,0.06 0.29,0 0.59,-0.08 0.84,-0.23l0.37 -0.21 0.85 1.47c0.35,0.6 1.13,0.81 1.73,0.46 0.3,-0.16 0.51,-0.44 0.6,-0.77 0.08,-0.32 0.04,-0.67 -0.13,-0.96l-0.77 -1.35 6.35 -2.38c0.12,-0.05 0.21,-0.14 0.25,-0.26 0.04,-0.11 0.03,-0.24 -0.03,-0.35l-2.11 -3.66zm-10 7.24c-0.1,0.06 -0.22,0.07 -0.33,0.04 -0.1,-0.02 -0.2,-0.09 -0.25,-0.19 -0.06,-0.1 -0.08,-0.21 -0.05,-0.32 0.03,-0.11 0.1,-0.2 0.2,-0.26l0.37 -0.21 0.42 0.73 -0.36 0.21zm5.57 1.19c0.06,0.1 0.07,0.21 0.04,0.32 -0.03,0.11 -0.1,0.2 -0.2,0.25 -0.2,0.12 -0.45,0.05 -0.57,-0.15l-0.85 -1.47 0.7 -0.4 0.04 0 0.84 1.45z"/>
  </g>
 </g>
</svg>
