<?xml version="1.0" encoding="UTF-8"?>
<!DOCTYPE svg PUBLIC "-//W3C//DTD SVG 1.1//EN" "http://www.w3.org/Graphics/SVG/1.1/DTD/svg11.dtd">
<!-- Creator: CorelDRAW -->
<svg xmlns="http://www.w3.org/2000/svg" xml:space="preserve" width="640px" height="640px" version="1.1" style="shape-rendering:geometricPrecision; text-rendering:geometricPrecision; image-rendering:optimizeQuality; fill-rule:evenodd; clip-rule:evenodd"
viewBox="0 0 40.11 40.11"
 xmlns:xlink="http://www.w3.org/1999/xlink"
 xmlns:xodm="http://www.corel.com/coreldraw/odm/2003">
 <defs>
  <style type="text/css">
   <![CDATA[
    .fil0 {fill:none}
    .fil1 {fill:#002155;fill-rule:nonzero}
    .fil2 {fill:#FFC221;fill-rule:nonzero}
   ]]>
  </style>
 </defs>
 <g id="Layer_x0020_1">
  <metadata id="CorelCorpID_0Corel-Layer"/>
  <rect class="fil0" width="40.11" height="40.11"/>
 </g>
 <g id="Capa_x0020_1">
  <metadata id="CorelCorpID_1Corel-Layer"/>
  <g id="_2173592897712">
   <g>
    <path class="fil1" d="M33.25 27.48l-26.38 0c-0.76,0 -1.37,-0.61 -1.37,-1.36l0 -18.77c0,-0.75 0.62,-1.36 1.37,-1.36l26.38 0c0.75,0 1.36,0.6 1.36,1.36l0 18.77c0,0.75 -0.61,1.36 -1.36,1.36zm-26.38 -20.83c-0.39,0 -0.71,0.31 -0.71,0.7l0 18.77c0,0.39 0.32,0.7 0.71,0.7l26.38 0c0.39,0 0.7,-0.32 0.7,-0.7l0 -18.77c0,-0.39 -0.32,-0.7 -0.7,-0.7l-26.38 0z"/>
   </g>
   <g>
    <path class="fil1" d="M32.51 25.71l-24.9 0c-0.19,0 -0.33,-0.15 -0.33,-0.33l0 -17.29c0,-0.19 0.14,-0.33 0.33,-0.33l24.89 0c0.19,0 0.33,0.14 0.33,0.33l0 17.29c0.01,0.18 -0.14,0.33 -0.32,0.33l0 0zm-24.57 -0.66l24.23 0 0 -16.63 -24.23 0 0 16.63z"/>
   </g>
   <g>
    <path class="fil1" d="M16.36 32.22c-0.08,0 -0.18,-0.03 -0.24,-0.1 -0.13,-0.14 -0.12,-0.35 0.02,-0.47 2.12,-1.97 1.24,-4.28 1.2,-4.38 -0.06,-0.17 0.01,-0.37 0.19,-0.43 0.17,-0.07 0.36,0.01 0.43,0.18 0.01,0.03 0.28,0.72 0.25,1.7 -0.04,0.9 -0.34,2.21 -1.62,3.41 -0.07,0.07 -0.15,0.09 -0.23,0.09l0 0z"/>
   </g>
   <g>
    <path class="fil1" d="M23.75 32.22c-0.08,0 -0.16,-0.02 -0.22,-0.08 -1.29,-1.19 -1.59,-2.52 -1.63,-3.42 -0.03,-0.97 0.24,-1.66 0.26,-1.69 0.06,-0.17 0.25,-0.25 0.43,-0.18 0.17,0.06 0.25,0.25 0.18,0.43 -0.04,0.09 -0.91,2.4 1.2,4.37 0.14,0.13 0.14,0.33 0.02,0.47 -0.06,0.07 -0.15,0.1 -0.24,0.1l0 0z"/>
   </g>
   <g>
    <path class="fil1" d="M26.69 34.13l-13.27 0c-0.19,0 -0.33,-0.15 -0.33,-0.33l0 -0.96c0,-0.7 0.57,-1.28 1.28,-1.28l11.37 0c0.71,0 1.28,0.58 1.28,1.28l0 0.96c0,0.17 -0.14,0.33 -0.33,0.33zm-12.94 -0.66l12.61 0 0 -0.63c0,-0.34 -0.28,-0.62 -0.62,-0.62l-11.37 0c-0.34,0 -0.62,0.28 -0.62,0.62l0 0.63z"/>
   </g>
   <g>
    <path class="fil1" d="M14.04 21.39c-0.06,0 -0.12,-0.01 -0.17,-0.05l-3.81 -2.28c-0.1,-0.06 -0.16,-0.16 -0.16,-0.28l0 -4.32c0,-0.12 0.07,-0.23 0.17,-0.29 0.1,-0.06 0.23,-0.06 0.33,0l3.81 2.29c0.1,0.05 0.16,0.16 0.16,0.28l0 4.32c0,0.12 -0.07,0.23 -0.17,0.29 -0.05,0.03 -0.11,0.04 -0.16,0.04l0 0zm-3.48 -2.8l3.15 1.89 0 -3.56 -3.15 -1.88 0 3.55z"/>
   </g>
   <g>
    <path class="fil1" d="M14.04 21.39c-0.06,0 -0.11,-0.01 -0.16,-0.04 -0.11,-0.06 -0.17,-0.17 -0.17,-0.29l0 -4.32c0,-0.12 0.06,-0.23 0.16,-0.28l3.81 -2.29c0.1,-0.06 0.23,-0.06 0.33,0 0.11,0.06 0.16,0.17 0.16,0.29l0 4.32c0,0.12 -0.05,0.22 -0.15,0.28l-3.81 2.28c-0.05,0.04 -0.11,0.05 -0.17,0.05l0 0zm0.33 -4.47l0 3.56 3.15 -1.89 0 -3.55 -3.15 1.88z"/>
   </g>
   <g>
    <path class="fil1" d="M10.23 14.79c-0.12,0 -0.23,-0.06 -0.29,-0.17 -0.09,-0.16 -0.03,-0.37 0.13,-0.45l3.81 -2.05c0.1,-0.06 0.22,-0.06 0.31,0l3.81 2.05c0.16,0.08 0.22,0.28 0.14,0.45 -0.09,0.16 -0.29,0.21 -0.45,0.13l-3.66 -1.97 -3.65 1.97c-0.04,0.03 -0.1,0.04 -0.15,0.04l0 0z"/>
   </g>
   <g>
    <g>
     <path class="fil1" d="M16.9 11.12l-5.72 0c-0.18,0 -0.33,-0.14 -0.33,-0.33 0,-0.18 0.15,-0.33 0.33,-0.33l5.72 0c0.18,0 0.33,0.15 0.33,0.33 0,0.19 -0.15,0.33 -0.33,0.33l0 0z"/>
    </g>
    <g>
     <path class="fil1" d="M15.94 12.08c-0.09,0 -0.17,-0.03 -0.23,-0.1 -0.13,-0.12 -0.13,-0.33 0,-0.47l0.73 -0.72 -0.73 -0.73c-0.13,-0.13 -0.13,-0.34 0,-0.47 0.12,-0.13 0.34,-0.13 0.47,0l0.95 0.97c0.13,0.13 0.13,0.34 0,0.47l-0.96 0.96c-0.07,0.06 -0.14,0.09 -0.23,0.09l0 0z"/>
    </g>
    <g>
     <path class="fil1" d="M12.14 12.08c-0.08,0 -0.17,-0.03 -0.23,-0.1l-0.96 -0.95c-0.12,-0.13 -0.12,-0.34 0,-0.47l0.96 -0.96c0.13,-0.13 0.34,-0.13 0.47,0 0.13,0.12 0.13,0.33 0,0.47l-0.73 0.72 0.73 0.73c0.13,0.13 0.13,0.34 0,0.47 -0.07,0.06 -0.15,0.09 -0.24,0.09l0 0z"/>
    </g>
   </g>
   <g>
    <g>
     <path class="fil1" d="M16.9 23.01l-5.72 0c-0.18,0 -0.33,-0.15 -0.33,-0.33 0,-0.19 0.15,-0.33 0.33,-0.33l5.72 0c0.18,0 0.33,0.14 0.33,0.33 0,0.18 -0.15,0.33 -0.33,0.33z"/>
    </g>
    <g>
     <path class="fil1" d="M15.94 23.97c-0.09,0 -0.17,-0.03 -0.23,-0.1 -0.13,-0.13 -0.13,-0.34 0,-0.47l0.73 -0.73 -0.73 -0.73c-0.13,-0.13 -0.13,-0.33 0,-0.47 0.12,-0.13 0.34,-0.13 0.47,0l0.96 0.96c0.12,0.14 0.12,0.34 0,0.47l-0.96 0.96c-0.08,0.08 -0.15,0.11 -0.24,0.11l0 0z"/>
    </g>
    <g>
     <path class="fil1" d="M12.14 23.97c-0.08,0 -0.17,-0.03 -0.23,-0.1l-0.96 -0.96c-0.12,-0.13 -0.12,-0.34 0,-0.47l0.96 -0.96c0.13,-0.13 0.34,-0.13 0.47,0 0.13,0.13 0.13,0.34 0,0.47l-0.73 0.73 0.73 0.73c0.13,0.13 0.13,0.33 0,0.47 -0.07,0.06 -0.15,0.09 -0.24,0.09l0 0z"/>
    </g>
   </g>
   <g>
    <path class="fil2" d="M21.63 23.97l-1.11 0c-0.48,0 -0.88,-0.39 -0.88,-0.87l0 -10.42c0,-0.19 0.15,-0.33 0.33,-0.33l2.2 0c0.18,0 0.33,0.14 0.33,0.33l0 10.41c0.01,0.48 -0.39,0.88 -0.87,0.88zm-1.32 -10.96l0 10.08c0,0.12 0.1,0.21 0.22,0.21l1.1 0c0.12,0 0.21,-0.1 0.21,-0.21l0 -10.08 -1.53 0z"/>
   </g>
   <g>
    <path class="fil2" d="M22.18 13.01c-0.14,0 -0.26,-0.08 -0.31,-0.21l-0.79 -2.05 -0.79 2.05c-0.06,0.17 -0.26,0.26 -0.43,0.19 -0.17,-0.07 -0.26,-0.26 -0.19,-0.43l1.1 -2.84c0.04,-0.13 0.17,-0.22 0.31,-0.22 0.14,0 0.26,0.09 0.31,0.22l1.1 2.84c0.06,0.17 -0.02,0.36 -0.19,0.43 -0.04,0.01 -0.08,0.02 -0.12,0.02z"/>
   </g>
   <g>
    <path class="fil2" d="M22.18 22.02l-2.2 0c-0.18,0 -0.33,-0.15 -0.33,-0.33 0,-0.19 0.15,-0.33 0.33,-0.33l2.2 0c0.18,0 0.33,0.14 0.33,0.33 0,0.18 -0.16,0.33 -0.33,0.33z"/>
   </g>
   <g>
    <g>
     <path class="fil1" d="M29.88 11.03l-5.74 0c-0.18,0 -0.33,-0.14 -0.33,-0.33 0,-0.18 0.15,-0.33 0.33,-0.33l5.74 0c0.19,0 0.33,0.15 0.33,0.33 0,0.19 -0.14,0.33 -0.33,0.33z"/>
    </g>
    <g>
     <path class="fil1" d="M29.88 13.04l-5.74 0c-0.18,0 -0.33,-0.14 -0.33,-0.33 0,-0.18 0.15,-0.33 0.33,-0.33l5.74 0c0.19,0 0.33,0.15 0.33,0.33 0,0.19 -0.14,0.33 -0.33,0.33l0 0z"/>
    </g>
    <g>
     <path class="fil1" d="M29.88 15.05l-5.74 0c-0.18,0 -0.33,-0.14 -0.33,-0.33 0,-0.18 0.15,-0.33 0.33,-0.33l5.74 0c0.19,0 0.33,0.15 0.33,0.33 0,0.19 -0.14,0.33 -0.33,0.33z"/>
    </g>
    <g>
     <path class="fil1" d="M29.88 17.06l-5.74 0c-0.18,0 -0.33,-0.14 -0.33,-0.33 0,-0.18 0.15,-0.33 0.33,-0.33l5.74 0c0.19,0 0.33,0.15 0.33,0.33 0,0.19 -0.14,0.33 -0.33,0.33z"/>
    </g>
    <g>
     <path class="fil1" d="M29.88 19.07l-5.74 0c-0.18,0 -0.33,-0.14 -0.33,-0.33 0,-0.18 0.15,-0.33 0.33,-0.33l5.74 0c0.19,0 0.33,0.15 0.33,0.33 0,0.19 -0.14,0.33 -0.33,0.33l0 0z"/>
    </g>
    <g>
     <path class="fil1" d="M29.88 21.08l-5.74 0c-0.18,0 -0.33,-0.14 -0.33,-0.33 0,-0.18 0.15,-0.33 0.33,-0.33l5.74 0c0.19,0 0.33,0.15 0.33,0.33 0,0.19 -0.14,0.33 -0.33,0.33z"/>
    </g>
    <g>
     <path class="fil1" d="M29.88 23.1l-5.74 0c-0.18,0 -0.33,-0.15 -0.33,-0.34 0,-0.18 0.15,-0.33 0.33,-0.33l5.74 0c0.19,0 0.33,0.15 0.33,0.33 0,0.19 -0.14,0.34 -0.33,0.34z"/>
    </g>
   </g>
  </g>
 </g>
</svg>
