<?xml version="1.0" encoding="UTF-8"?>
<!DOCTYPE svg PUBLIC "-//W3C//DTD SVG 1.1//EN" "http://www.w3.org/Graphics/SVG/1.1/DTD/svg11.dtd">
<!-- Creator: CorelDRAW 2019 (64-Bit) -->
<svg xmlns="http://www.w3.org/2000/svg" xml:space="preserve" width="640px" height="640px" version="1.1" style="shape-rendering:geometricPrecision; text-rendering:geometricPrecision; image-rendering:optimizeQuality; fill-rule:evenodd; clip-rule:evenodd"
viewBox="0 0 44.09 44.09"
 xmlns:xlink="http://www.w3.org/1999/xlink">
 <defs>
  <style type="text/css">
   <![CDATA[
    .fil0 {fill:none}
    .fil1 {fill:black;fill-rule:nonzero}
    .fil20 {fill:#05A1E6;fill-rule:nonzero}
    .fil24 {fill:#079AE1;fill-rule:nonzero}
    .fil15 {fill:#0D82CA;fill-rule:nonzero}
    .fil12 {fill:#125A9E;fill-rule:nonzero}
    .fil17 {fill:#127BCA;fill-rule:nonzero}
    .fil4 {fill:#14559A;fill-rule:nonzero}
    .fil27 {fill:#175FAB;fill-rule:nonzero}
    .fil7 {fill:#1969BC;fill-rule:nonzero}
    .fil26 {fill:#1D60B5;fill-rule:nonzero}
    .fil25 {fill:#1E5CB3;fill-rule:nonzero}
    .fil11 {fill:#2B74B1;fill-rule:nonzero}
    .fil6 {fill:#3092C4;fill-rule:nonzero}
    .fil30 {fill:#5EC5ED;fill-rule:nonzero}
    .fil29 {fill:#7DCBEC;fill-rule:nonzero}
    .fil18 {fill:url(#id0)}
    .fil28 {fill:url(#id1)}
    .fil13 {fill:url(#id2)}
    .fil21 {fill:url(#id3)}
    .fil23 {fill:url(#id4)}
    .fil31 {fill:url(#id5)}
    .fil33 {fill:url(#id6)}
    .fil16 {fill:url(#id7)}
    .fil3 {fill:url(#id8)}
    .fil2 {fill:url(#id9)}
    .fil22 {fill:url(#id10)}
    .fil5 {fill:url(#id11)}
    .fil32 {fill:url(#id12)}
    .fil9 {fill:url(#id13)}
    .fil8 {fill:url(#id14)}
    .fil19 {fill:url(#id15)}
    .fil14 {fill:url(#id16);fill-rule:nonzero}
    .fil10 {fill:url(#id17);fill-rule:nonzero}
   ]]>
  </style>
  <linearGradient id="id0" gradientUnits="userSpaceOnUse" x1="-90.03" y1="-181.12" x2="-89.92" y2="-181.12">
   <stop offset="0" style="stop-opacity:1; stop-color:#05A1E6"/>
   <stop offset="1" style="stop-opacity:0.54902; stop-color:#05A1E6"/>
  </linearGradient>
  <linearGradient id="id1" gradientUnits="userSpaceOnUse" x1="-90.03" y1="-181.12" x2="-89.92" y2="-181.12">
   <stop offset="0" style="stop-opacity:1; stop-color:#168CD4"/>
   <stop offset="0.501961" style="stop-opacity:1; stop-color:#1C87CC"/>
   <stop offset="1" style="stop-opacity:1; stop-color:#154B8D"/>
  </linearGradient>
  <linearGradient id="id2" gradientUnits="userSpaceOnUse" x1="-90.03" y1="-181.12" x2="-89.92" y2="-181.12">
   <stop offset="0" style="stop-opacity:1; stop-color:#136AB4"/>
   <stop offset="0.6" style="stop-opacity:0.54902; stop-color:#59CAF5"/>
   <stop offset="1" style="stop-opacity:0.235294; stop-color:#59CAF5"/>
  </linearGradient>
  <linearGradient id="id3" gradientUnits="userSpaceOnUse" x1="-90.03" y1="-181.13" x2="-89.92" y2="-181.13">
   <stop offset="0" style="stop-opacity:1; stop-color:#165096"/>
   <stop offset="1" style="stop-opacity:1; stop-color:#0D82CA"/>
  </linearGradient>
  <linearGradient id="id4" gradientUnits="userSpaceOnUse" x1="-90.03" y1="-181.12" x2="-89.92" y2="-181.12">
   <stop offset="0" style="stop-opacity:0.329412; stop-color:#38A7E4"/>
   <stop offset="0.960784" style="stop-opacity:1; stop-color:#0E88D3"/>
   <stop offset="1" style="stop-opacity:1; stop-color:#0E88D3"/>
  </linearGradient>
  <linearGradient id="id5" gradientUnits="userSpaceOnUse" x1="-1018.02" y1="51.34" x2="-1017.5" y2="51.34">
   <stop offset="0" style="stop-opacity:1; stop-color:#97D6EE"/>
   <stop offset="0.701961" style="stop-opacity:1; stop-color:#55C1EA"/>
   <stop offset="1" style="stop-opacity:1; stop-color:#55C1EA"/>
  </linearGradient>
  <linearGradient id="id6" gradientUnits="userSpaceOnUse" x1="-90.03" y1="-181.12" x2="-89.92" y2="-181.12">
   <stop offset="0" style="stop-opacity:1; stop-color:#1DA7E7"/>
   <stop offset="1" style="stop-opacity:0; stop-color:#37ABE7"/>
  </linearGradient>
  <linearGradient id="id7" gradientUnits="userSpaceOnUse" x1="-90.03" y1="-181.12" x2="-89.92" y2="-181.12">
   <stop offset="0" style="stop-opacity:1; stop-color:#318ED5"/>
   <stop offset="1" style="stop-opacity:1; stop-color:#38A7E4"/>
  </linearGradient>
  <linearGradient id="id8" gradientUnits="userSpaceOnUse" x1="-90.03" y1="-181.12" x2="-89.92" y2="-181.12">
   <stop offset="0" style="stop-opacity:1; stop-color:#0E76BC"/>
   <stop offset="0.360784" style="stop-opacity:1; stop-color:#36AEE8"/>
   <stop offset="0.85098" style="stop-opacity:1; stop-color:#00ADEF"/>
   <stop offset="1" style="stop-opacity:1; stop-color:#00ADEF"/>
  </linearGradient>
  <linearGradient id="id9" gradientUnits="userSpaceOnUse" x1="-90.03" y1="-181.12" x2="-89.92" y2="-181.12">
   <stop offset="0" style="stop-opacity:1; stop-color:#0994DC"/>
   <stop offset="0.34902" style="stop-opacity:1; stop-color:#66CEF5"/>
   <stop offset="0.85098" style="stop-opacity:1; stop-color:#127BCA"/>
   <stop offset="1" style="stop-opacity:1; stop-color:#127BCA"/>
  </linearGradient>
  <linearGradient id="id10" gradientUnits="userSpaceOnUse" x1="-90.03" y1="-181.13" x2="-89.92" y2="-181.13">
   <stop offset="0" style="stop-opacity:1; stop-color:#05A1E6"/>
   <stop offset="0.870588" style="stop-opacity:1; stop-color:#0495D6"/>
   <stop offset="1" style="stop-opacity:1; stop-color:#0495D6"/>
  </linearGradient>
  <linearGradient id="id11" gradientUnits="userSpaceOnUse" x1="-90.03" y1="-181.13" x2="-89.92" y2="-181.13">
   <stop offset="0" style="stop-opacity:1; stop-color:#1C63B7"/>
   <stop offset="0.501961" style="stop-opacity:1; stop-color:#33BDF2"/>
   <stop offset="1" style="stop-opacity:0.419608; stop-color:#33BDF2"/>
  </linearGradient>
  <linearGradient id="id12" gradientUnits="userSpaceOnUse" x1="-1018.03" y1="51.34" x2="-1017.51" y2="51.34">
   <stop offset="0" style="stop-opacity:1; stop-color:#7ACCEC"/>
   <stop offset="1" style="stop-opacity:1; stop-color:#3FB7ED"/>
  </linearGradient>
  <linearGradient id="id13" gradientUnits="userSpaceOnUse" x1="-90.03" y1="-181.12" x2="-89.92" y2="-181.12">
   <stop offset="0" style="stop-opacity:1; stop-color:#124379"/>
   <stop offset="0.388235" style="stop-opacity:1; stop-color:#1487CB"/>
   <stop offset="0.780392" style="stop-opacity:1; stop-color:#165197"/>
   <stop offset="1" style="stop-opacity:1; stop-color:#165197"/>
  </linearGradient>
  <linearGradient id="id14" gradientUnits="userSpaceOnUse" x1="-90.03" y1="-181.12" x2="-89.92" y2="-181.12">
   <stop offset="0" style="stop-opacity:1; stop-color:#166AB8"/>
   <stop offset="0.4" style="stop-opacity:1; stop-color:#36AEE8"/>
   <stop offset="0.85098" style="stop-opacity:1; stop-color:#0798DD"/>
   <stop offset="1" style="stop-opacity:1; stop-color:#0798DD"/>
  </linearGradient>
  <linearGradient id="id15" gradientUnits="userSpaceOnUse" x1="-90.03" y1="-181.13" x2="-89.92" y2="-181.13">
   <stop offset="0" style="stop-opacity:1; stop-color:#1959A6"/>
   <stop offset="0.501961" style="stop-opacity:1; stop-color:#05A1E6"/>
   <stop offset="0.921569" style="stop-opacity:1; stop-color:#7EC5EA"/>
   <stop offset="1" style="stop-opacity:1; stop-color:#7EC5EA"/>
  </linearGradient>
  <linearGradient id="id16" gradientUnits="userSpaceOnUse" x1="5.9" y1="31.31" x2="8.16" y2="31.31">
   <stop offset="0" style="stop-opacity:0.247059; stop-color:#05A1E6"/>
   <stop offset="1" style="stop-opacity:1; stop-color:#05A1E6"/>
  </linearGradient>
  <linearGradient id="id17" gradientUnits="userSpaceOnUse" x1="8.05" y1="30.6" x2="8.67" y2="30.6">
   <stop offset="0" style="stop-opacity:0.698039; stop-color:#33BDF2"/>
   <stop offset="1" style="stop-opacity:1; stop-color:#1DACD8"/>
  </linearGradient>
 </defs>
 <g id="Layer_x0020_1">
  <metadata id="CorelCorpID_0Corel-Layer"/>
  <rect class="fil0" width="44.09" height="44.09"/>
 </g>
 <g id="Capa_x0020_1">
  <metadata id="CorelCorpID_1Corel-Layer"/>
  <g id="layer1">
   <polygon id="path12245" class="fil1" points="32.68,18.28 32.39,18.28 32.39,19.17 32.27,19.17 32.27,18.28 31.99,18.28 31.99,18.17 32.68,18.17 32.68,18.28 "/>
   <path id="path12257" class="fil1" d="M33.85 19.17l-0.12 0 0 -0.67c0,-0.05 0.01,-0.12 0.01,-0.19l0 0c-0.01,0.04 -0.02,0.07 -0.03,0.09l-0.34 0.77 -0.05 0 -0.34 -0.76c-0.01,-0.02 -0.02,-0.06 -0.04,-0.1l0 0c0,0.04 0.01,0.1 0.01,0.19l0 0.67 -0.12 0 0 -1 0.16 0 0.3 0.7c0.03,0.05 0.04,0.09 0.05,0.12l0 0c0.02,-0.06 0.04,-0.1 0.05,-0.13l0.31 -0.69 0.15 0 0 1 0 0z"/>
   <g>
    <path id="path12261" class="fil1" d="M32.94 22.87c0,-0.06 -0.01,-0.1 -0.04,-0.12 -0.04,-0.03 -0.1,-0.04 -0.18,-0.04l-0.11 0 0 0.32 0.14 0c0.13,0 0.19,-0.06 0.19,-0.16l0 0zm0.19 0.67l-0.17 0 -0.1 -0.23c-0.05,-0.11 -0.11,-0.17 -0.17,-0.17l-0.08 0 0 0.4 -0.14 0 0 -0.95 0.27 0c0.12,0 0.21,0.03 0.27,0.08 0.05,0.05 0.07,0.11 0.07,0.18 0,0.07 -0.02,0.12 -0.06,0.17 -0.04,0.04 -0.1,0.07 -0.18,0.09l0 0c0.06,0.01 0.11,0.07 0.16,0.18l0.13 0.25 0 0zm0.29 -0.47c0,-0.18 -0.06,-0.34 -0.19,-0.46 -0.13,-0.13 -0.28,-0.19 -0.47,-0.19 -0.18,0 -0.34,0.06 -0.47,0.19 -0.12,0.12 -0.18,0.28 -0.18,0.46 0,0.19 0.06,0.35 0.19,0.48 0.13,0.12 0.28,0.18 0.46,0.18 0.19,0 0.34,-0.06 0.47,-0.19 0.13,-0.12 0.19,-0.28 0.19,-0.47l0 0zm0.09 0c0,0.21 -0.07,0.38 -0.22,0.53 -0.14,0.14 -0.32,0.21 -0.53,0.21 -0.21,0 -0.39,-0.07 -0.53,-0.21 -0.14,-0.14 -0.21,-0.31 -0.21,-0.52 0,-0.21 0.07,-0.39 0.21,-0.53 0.15,-0.14 0.32,-0.21 0.54,-0.21 0.21,0 0.38,0.07 0.52,0.2 0.15,0.14 0.22,0.32 0.22,0.53l0 0zm0 0l0 0 0 0z"/>
   </g>
   <path id="path12265" class="fil1" d="M13.29 25.71l-0.45 0 0 -2.63c0,-0.2 0.01,-0.45 0.03,-0.75l-0.01 0c-0.04,0.17 -0.08,0.3 -0.11,0.38l-1.34 3 -0.22 0 -1.33 -2.98c-0.04,-0.09 -0.08,-0.22 -0.12,-0.4l-0.01 0c0.01,0.15 0.02,0.41 0.02,0.76l0 2.62 -0.44 0 0 -3.91 0.6 0 1.2 2.73c0.09,0.2 0.15,0.36 0.18,0.46l0.02 0c0.08,-0.21 0.14,-0.37 0.19,-0.48l1.22 -2.71 0.57 0 0 3.91 0 0z"/>
   <g>
    <path id="path12267" class="fil1" d="M14.71 25.71l-0.45 0 0 -2.79 0.45 0 0 2.79zm0.07 -3.79c0,0.08 -0.03,0.15 -0.08,0.21 -0.06,0.05 -0.13,0.08 -0.21,0.08 -0.08,0 -0.15,-0.03 -0.21,-0.08 -0.05,-0.06 -0.08,-0.13 -0.08,-0.21 0,-0.08 0.03,-0.15 0.08,-0.21 0.06,-0.05 0.13,-0.08 0.21,-0.08 0.08,0 0.15,0.03 0.21,0.08 0.05,0.06 0.08,0.13 0.08,0.21l0 0zm0 0l0 0 0 0z"/>
   </g>
   <path id="path12271" class="fil1" d="M17.49 25.58c-0.21,0.13 -0.47,0.2 -0.77,0.2 -0.4,0 -0.72,-0.14 -0.96,-0.4 -0.24,-0.26 -0.36,-0.59 -0.36,-1 0,-0.46 0.13,-0.83 0.39,-1.11 0.26,-0.28 0.62,-0.42 1.06,-0.42 0.24,0 0.46,0.05 0.65,0.14l0 0.46c-0.21,-0.15 -0.43,-0.22 -0.67,-0.22 -0.28,0 -0.51,0.1 -0.69,0.3 -0.19,0.2 -0.29,0.47 -0.29,0.81 0,0.32 0.09,0.58 0.26,0.77 0.17,0.19 0.4,0.28 0.69,0.28 0.25,0 0.48,-0.08 0.69,-0.24l0 0.43 0 0z"/>
   <path id="path12275" class="fil1" d="M19.62 23.37c-0.08,-0.06 -0.19,-0.09 -0.34,-0.09 -0.18,0 -0.33,0.08 -0.46,0.25 -0.14,0.18 -0.21,0.43 -0.21,0.76l0 1.42 -0.44 0 0 -2.79 0.44 0 0 0.57 0.01 0c0.07,-0.2 0.17,-0.36 0.3,-0.47 0.13,-0.1 0.27,-0.15 0.43,-0.15 0.12,0 0.21,0.01 0.27,0.04l0 0.46 0 0z"/>
   <g>
    <path id="path12279" class="fil1" d="M22.11 24.32c0,-0.36 -0.08,-0.63 -0.24,-0.82 -0.16,-0.18 -0.38,-0.27 -0.66,-0.27 -0.28,0 -0.5,0.09 -0.67,0.27 -0.17,0.2 -0.26,0.47 -0.26,0.83 0,0.33 0.08,0.59 0.25,0.78 0.17,0.19 0.4,0.28 0.68,0.28 0.29,0 0.52,-0.09 0.67,-0.28 0.15,-0.19 0.23,-0.45 0.23,-0.79l0 0zm0.46 -0.02c0,0.45 -0.13,0.8 -0.38,1.07 -0.25,0.27 -0.59,0.4 -1.01,0.4 -0.42,0 -0.76,-0.13 -1,-0.4 -0.24,-0.26 -0.36,-0.6 -0.36,-1.02 0,-0.49 0.14,-0.86 0.41,-1.13 0.25,-0.25 0.59,-0.37 1.01,-0.37 0.42,0 0.74,0.13 0.98,0.39 0.23,0.25 0.35,0.61 0.35,1.06z"/>
   </g>
   <path id="path12283" class="fil1" d="M24.78 24.96c0,0.23 -0.08,0.42 -0.26,0.57 -0.18,0.16 -0.44,0.25 -0.76,0.25 -0.26,0 -0.5,-0.06 -0.69,-0.17l0 -0.48c0.22,0.17 0.46,0.26 0.72,0.26 0.36,0 0.53,-0.13 0.53,-0.39 0,-0.1 -0.04,-0.2 -0.11,-0.26 -0.08,-0.08 -0.23,-0.16 -0.46,-0.26 -0.24,-0.1 -0.4,-0.21 -0.5,-0.32 -0.12,-0.13 -0.18,-0.29 -0.18,-0.5 0,-0.23 0.1,-0.43 0.28,-0.58 0.18,-0.15 0.42,-0.23 0.71,-0.23 0.22,0 0.42,0.04 0.59,0.13l0 0.45c-0.18,-0.13 -0.39,-0.2 -0.63,-0.2 -0.15,0 -0.27,0.04 -0.36,0.11 -0.08,0.07 -0.13,0.17 -0.13,0.28 0,0.12 0.04,0.22 0.11,0.29 0.07,0.06 0.21,0.14 0.42,0.23 0.24,0.1 0.41,0.2 0.52,0.31 0.13,0.13 0.2,0.3 0.2,0.51z"/>
   <g>
    <path id="path12287" class="fil1" d="M27.51 24.32c0,-0.36 -0.08,-0.63 -0.24,-0.82 -0.16,-0.18 -0.38,-0.27 -0.66,-0.27 -0.28,0 -0.5,0.09 -0.67,0.27 -0.17,0.2 -0.26,0.47 -0.26,0.83 0,0.33 0.08,0.59 0.25,0.78 0.17,0.19 0.4,0.28 0.68,0.28 0.3,0 0.52,-0.09 0.67,-0.28 0.15,-0.19 0.23,-0.45 0.23,-0.79l0 0zm0.46 -0.02c0,0.45 -0.13,0.8 -0.38,1.07 -0.25,0.27 -0.59,0.4 -1.01,0.4 -0.42,0 -0.75,-0.13 -1,-0.4 -0.24,-0.26 -0.36,-0.6 -0.36,-1.02 0,-0.49 0.14,-0.86 0.41,-1.13 0.25,-0.25 0.59,-0.37 1.01,-0.37 0.42,0 0.74,0.13 0.98,0.39 0.23,0.25 0.35,0.61 0.35,1.06l0 0zm0 0l0 0 0 0z"/>
   </g>
   <path id="path12291" class="fil1" d="M29.94 21.97c-0.09,-0.05 -0.19,-0.07 -0.3,-0.07 -0.31,0 -0.47,0.19 -0.47,0.59l0 0.43 0.66 0 0 0.38 -0.66 0 0 2.41 -0.44 0 0 -2.41 -0.48 0 0 -0.38 0.48 0 0 -0.45c0,-0.31 0.09,-0.55 0.28,-0.73 0.16,-0.15 0.37,-0.22 0.6,-0.22 0.14,0 0.25,0.02 0.33,0.05l0 0.4 0 0z"/>
   <path id="path12295" class="fil1" d="M31.7 25.68c-0.11,0.06 -0.25,0.09 -0.42,0.09 -0.49,0 -0.73,-0.27 -0.73,-0.82l0 -1.65 -0.48 0 0 -0.38 0.48 0 0 -0.68c0.14,-0.05 0.29,-0.1 0.45,-0.15l0 0.83 0.7 0 0 0.38 -0.7 0 0 1.57c0,0.19 0.03,0.32 0.09,0.4 0.07,0.08 0.17,0.12 0.32,0.12 0.11,0 0.21,-0.03 0.29,-0.09l0 0.38 0 0z"/>
   <path id="path12299" class="fil1" d="M7.56 36.6c0,0.21 -0.08,0.4 -0.24,0.56 -0.15,0.16 -0.34,0.24 -0.57,0.24 -0.22,0 -0.4,-0.08 -0.56,-0.24 -0.15,-0.16 -0.22,-0.35 -0.22,-0.56 0,-0.23 0.07,-0.42 0.22,-0.58 0.16,-0.15 0.34,-0.23 0.56,-0.23 0.23,0 0.42,0.08 0.57,0.24 0.16,0.16 0.24,0.35 0.24,0.57z"/>
   <path id="path12303" class="fil1" d="M17.56 37.24l-1.46 0 -5.29 -8.17c-0.12,-0.19 -0.23,-0.41 -0.32,-0.64l-0.04 0c0.04,0.22 0.06,0.69 0.06,1.41l0 7.4 -1.2 0 0 -10.24 1.56 0 5.12 8.03c0.21,0.32 0.35,0.55 0.42,0.69l0.03 0c-0.05,-0.3 -0.08,-0.8 -0.08,-1.51l0 -7.21 1.2 0 0 10.24 0 0z"/>
   <polygon id="path12307" class="fil1" points="25.25,37.24 19.83,37.24 19.83,27 25.02,27 25.02,28.08 21.03,28.08 21.03,31.49 24.73,31.49 24.73,32.57 21.03,32.57 21.03,36.15 25.25,36.15 25.25,37.24 "/>
   <polygon id="path12311" class="fil1" points="33.49,28.08 30.54,28.08 30.54,37.24 29.34,37.24 29.34,28.08 26.38,28.08 26.38,27 33.49,27 "/>
   <path id="path12339" class="fil2" d="M17.15 9.3c1.16,3.55 1.6,9.86 4.98,9.86l0 0c0.26,0 0.52,-0.02 0.78,-0.07l0 0c-3.07,-0.72 -3.44,-6.97 -5.32,-10.2l0 0c-0.15,0.13 -0.29,0.27 -0.44,0.41z"/>
   <path id="path12367" class="fil3" d="M17.59 8.89c1.88,3.23 2.25,9.48 5.32,10.2l0 0c0.25,-0.05 0.49,-0.11 0.73,-0.2l0 0c-2.76,-1.35 -3.53,-7.42 -5.66,-10.34l0 0c-0.13,0.11 -0.26,0.22 -0.39,0.34m0 0l0 0 0 0z"/>
   <g>
    <path id="path12379" class="fil4" d="M20.3 6.96c-0.26,0 -0.52,0.03 -0.78,0.08 -0.69,0.12 -1.38,0.42 -2.08,0.87 0.19,0.19 0.37,0.4 0.54,0.64 0.71,-0.59 1.42,-1.03 2.13,-1.3 0.27,-0.09 0.53,-0.17 0.79,-0.22 -0.19,-0.04 -0.39,-0.07 -0.6,-0.07l0 0zm0 0l0 0 0 0z"/>
   </g>
   <path id="path12459" class="fil5" d="M25.8 17.64c0.28,-0.22 0.56,-0.47 0.85,-0.74 -1.18,-3.53 -1.6,-9.93 -5.01,-9.93 -0.24,0 -0.49,0.02 -0.74,0.06 3.11,0.78 3.51,7.54 4.9,10.61m0 0l0 0 0 0z"/>
   <g>
    <path id="path12521" class="fil6" d="M20.9 7.03c-0.19,-0.04 -0.39,-0.07 -0.6,-0.07l1.34 0.01c-0.24,0 -0.49,0.02 -0.74,0.06l0 0zm0 0l0 0 0 0z"/>
   </g>
   <g>
    <path id="path12525" class="fil7" d="M25.74 18.39c-0.13,-0.12 -0.26,-0.26 -0.39,-0.41 -0.57,0.4 -1.14,0.71 -1.71,0.91 0.2,0.1 0.42,0.17 0.64,0.22 0.17,0.04 0.35,0.05 0.54,0.05 0.64,0 1.15,-0.07 1.57,-0.28 -0.23,-0.12 -0.45,-0.29 -0.65,-0.49l0 0zm0 0l0 0 0 0z"/>
   </g>
   <path id="path12553" class="fil8" d="M20.11 7.26c2.78,1.45 3.02,8.04 5.24,10.72l0 0c0.15,-0.11 0.3,-0.22 0.45,-0.34l0 0c-1.39,-3.07 -1.79,-9.83 -4.9,-10.61l0 0c-0.26,0.05 -0.52,0.13 -0.79,0.23m0 0l0 0 0 0z"/>
   <path id="path12581" class="fil9" d="M17.98 8.55c2.13,2.92 2.9,8.99 5.66,10.34l0 0c0.57,-0.2 1.14,-0.51 1.71,-0.91l0 0c-2.22,-2.68 -2.46,-9.27 -5.24,-10.72l0 0c-0.71,0.26 -1.42,0.7 -2.13,1.29z"/>
   <path id="path12651" class="fil10" d="M15.79 9.22c-0.34,0.75 -0.68,1.75 -1.09,3.05 0.82,-1.16 1.64,-2.16 2.45,-2.97 -0.11,-0.34 -0.23,-0.66 -0.36,-0.94 -0.33,0.25 -0.67,0.54 -1,0.86m0 0l0 0 0 0z"/>
   <g>
    <path id="path12655" class="fil11" d="M17.08 8.14c-0.09,0.07 -0.19,0.14 -0.29,0.22 0.13,0.28 0.25,0.6 0.36,0.94 0.15,-0.14 0.3,-0.28 0.44,-0.41 -0.16,-0.28 -0.32,-0.53 -0.51,-0.75l0 0zm0 0l0 0 0 0z"/>
   </g>
   <g>
    <path id="path12659" class="fil12" d="M17.44 7.91c-0.12,0.07 -0.24,0.15 -0.36,0.23 0.19,0.22 0.35,0.47 0.51,0.75 0.13,-0.12 0.26,-0.23 0.39,-0.34 -0.17,-0.24 -0.35,-0.45 -0.54,-0.64l0 0zm0 0l0 0 0 0z"/>
   </g>
   <path id="path12741" class="fil13" d="M36.41 6.69c-1.57,6.07 -4.86,10.94 -7.61,12.17 0,0 -0.01,0 -0.01,0 -0.05,0.03 -0.1,0.05 -0.15,0.07 0,0 -0.01,0 -0.01,0 -0.02,0.01 -0.03,0.01 -0.05,0.02 0,0 -0.01,0.01 -0.02,0.01 -0.02,0.01 -0.04,0.01 -0.06,0.02 -0.01,0.01 -0.02,0.01 -0.03,0.01 -0.01,0.01 -0.02,0.01 -0.04,0.01 -0.01,0.01 -0.02,0.01 -0.03,0.02 -0.01,0 -0.02,0 -0.03,0.01 -0.02,0 -0.04,0.01 -0.06,0.01 -0.01,0 -0.01,0.01 -0.02,0.01 -0.02,0 -0.03,0.01 -0.04,0.01 -0.01,0 -0.02,0.01 -0.03,0.01 -0.01,0 -0.03,0.01 -0.04,0.01 -0.02,0 -0.04,0.01 -0.06,0.01 0.13,0.05 0.26,0.07 0.4,0.07 2.61,0 5.25,-4.68 9.61,-12.47l-1.72 0 0 0z"/>
   <path id="path12803" class="fil14" d="M14.13 7.21c0,0 0,-0.01 0,-0.01 0.01,0 0.01,0 0.01,0 0,0 0,0 0,0 0.02,-0.01 0.03,-0.01 0.05,-0.02 0,0 0,0 0,0 0.01,0 0.01,-0.01 0.01,-0.01 0.02,0 0.04,-0.01 0.05,-0.01 0,0 0,0 0,0 0.04,-0.01 0.07,-0.03 0.1,-0.04 0.01,0 0.01,0 0.02,0 0.01,-0.01 0.03,-0.01 0.04,-0.01 0.01,-0.01 0.01,-0.01 0.02,-0.01 0.02,-0.01 0.03,-0.01 0.04,-0.01 0.01,0 0.02,-0.01 0.02,-0.01 0.05,-0.01 0.1,-0.02 0.14,-0.04 0.01,0 0.02,0 0.02,0 0.02,0 0.03,-0.01 0.05,-0.01 0,0 0.01,0 0.02,0 0.01,-0.01 0.02,-0.01 0.04,-0.01 0,0 0,0 0.01,0 0.03,-0.01 0.06,-0.01 0.09,-0.02 0,0 0.01,0 0.01,0 0.02,0 0.03,0 0.04,-0.01 0.01,0 0.02,0 0.03,0 0.01,0 0.02,0 0.04,-0.01 0,0 0.01,0 0.02,0 0.03,0 0.06,-0.01 0.09,-0.01 -0.09,-0.01 -0.18,-0.01 -0.28,-0.01 -2.94,0 -6.99,5.46 -8.82,12.53 0,0 0.13,0 0.35,0 0.59,-1.04 1.11,-2.03 1.59,-2.95 1.28,-5.01 3.89,-8.43 6.2,-9.33m0 0l0 0 0 0z"/>
   <path id="path12807" class="fil15" d="M15.79 9.22c0.33,-0.32 0.67,-0.61 1,-0.86 -0.08,-0.17 -0.16,-0.32 -0.24,-0.46 -0.27,0.32 -0.52,0.75 -0.76,1.32z"/>
   <g>
    <path id="path12811" class="fil15" d="M16.03 7.25c0.19,0.16 0.36,0.38 0.52,0.65 0.05,-0.06 0.1,-0.12 0.15,-0.17 -0.22,-0.21 -0.45,-0.37 -0.71,-0.5 0.01,0 0.02,0.01 0.03,0.01 0,0 0.01,0.01 0.01,0.01l0 0zm0 0l0 0 0 0z"/>
   </g>
   <path id="path12831" class="fil16" d="M7.93 16.54c2.68,-5.18 3.96,-8.45 6.2,-9.33l0 0c-2.31,0.9 -4.92,4.32 -6.2,9.33z"/>
   <g>
    <path id="path12843" class="fil17" d="M16.7 7.73c-0.05,0.05 -0.1,0.11 -0.15,0.17 0.08,0.14 0.16,0.29 0.24,0.46 0.1,-0.08 0.2,-0.15 0.29,-0.22 -0.12,-0.15 -0.24,-0.29 -0.38,-0.41l0 0zm0 0l0 0 0 0z"/>
   </g>
   <path id="path12923" class="fil18" d="M9.15 19.47l0 0c-0.02,0 -0.03,0 -0.05,0 -0.01,0 -0.01,0 -0.01,0 -0.01,0 -0.03,0.01 -0.04,0.01 0,0 -0.01,0 -0.01,0 -0.03,0 -0.06,0 -0.1,0l-0.01 0c2.72,-0.07 3.96,-1.43 4.58,-3.4 0.47,-1.5 0.85,-2.76 1.19,-3.82 -1.14,1.6 -2.28,3.51 -3.43,5.65 -0.56,1.03 -1.4,1.46 -2.12,1.55m0 0.01l0 0 0 0z"/>
   <path id="path12949" class="fil19" d="M9.15 19.47l0 0c0.72,-0.1 1.56,-0.53 2.12,-1.56l0 0c1.15,-2.14 2.29,-4.04 3.43,-5.65l0 0c0.41,-1.29 0.75,-2.29 1.09,-3.04l0 0c-2.27,2.15 -4.54,5.74 -6.64,10.24m0 0.01l0 0 0 0z"/>
   <g>
    <path id="path12961" class="fil20" d="M7.93 16.54c-0.48,0.92 -1,1.91 -1.59,2.95 0.25,0 0.62,0 1.02,0 0.14,-1.04 0.33,-2.02 0.57,-2.95l0 0zm0 0l0 0 0 0z"/>
   </g>
   <path id="path12981" class="fil21" d="M15 6.98c-0.01,0 -0.02,0.01 -0.03,0.01l0 0c-0.01,0 -0.02,0 -0.03,0l0 0c-0.01,0 -0.02,0 -0.03,0.01l0 0c-0.01,0 -0.02,0 -0.04,0l0 0c0,0 -0.01,0 -0.01,0.01l0 0c-0.03,0 -0.06,0.01 -0.09,0.01l0 0c-0.01,0 -0.01,0 -0.01,0l0 0c-0.02,0.01 -0.03,0.01 -0.04,0.01l0 0c-0.01,0.01 -0.02,0.01 -0.02,0.01l0 0c-0.02,0 -0.03,0 -0.05,0.01l0 0c0,0 -0.01,0 -0.02,0l0 0c-0.04,0.01 -0.09,0.02 -0.14,0.04l0 0c0,0 -0.01,0 -0.02,0l0 0c-0.01,0.01 -0.02,0.01 -0.04,0.02l0 0c-0.01,0 -0.01,0 -0.02,0l0 0c-0.01,0 -0.03,0.01 -0.04,0.01l0 0c-0.01,0 -0.01,0.01 -0.02,0.01l0 0c-0.03,0.01 -0.06,0.02 -0.1,0.03l0 0c0,0 0,0 0,0l0 0c-0.01,0.01 -0.03,0.01 -0.04,0.02l0 0c-0.01,0 -0.01,0 -0.02,0.01l0 0c-0.02,0 -0.03,0.01 -0.04,0.01l0 0c-0.01,0.01 -0.01,0.01 -0.02,0.01l0 0c-2.24,0.88 -3.51,4.16 -6.2,9.33l0 0c-0.24,0.93 -0.43,1.92 -0.56,2.95l0 0 0.14 0c0.41,0 0.52,0 0.99,0l0 0 0.02 0 0.07 0 0.02 0 0.01 0 0.02 0 0.02 0 0.01 0 0.01 0 0.06 0 0.06 0 0.05 0 0.01 0c0.03,0 0.06,0 0.09,0l0 0c0.03,-0.01 0.06,-0.01 0.1,-0.01l0 0c0,0 0,0 0,0l0 0c0.02,0 0.03,0 0.04,0l0 0c0.01,0 0.01,0 0.01,0l0 0c0.02,0 0.03,-0.01 0.05,-0.01l0 0 0 0c2.1,-4.5 4.37,-8.09 6.64,-10.25l0 0c0.25,-0.56 0.49,-0.99 0.76,-1.32l0 0c-0.16,-0.26 -0.33,-0.49 -0.52,-0.65l0 0c0,0 -0.01,0 -0.01,0l0 0c-0.01,-0.01 -0.02,-0.01 -0.03,-0.02l0 0c-0.01,0 -0.02,-0.01 -0.03,-0.01l0 0c-0.01,-0.01 -0.02,-0.01 -0.03,-0.02l0 0c-0.01,0 -0.02,-0.01 -0.04,-0.01l0 0c-0.01,-0.01 -0.01,-0.01 -0.02,-0.01l0 0c-0.02,-0.01 -0.04,-0.02 -0.06,-0.03l0 0c-0.01,0 -0.02,-0.01 -0.03,-0.01l0 0c-0.01,0 -0.03,-0.01 -0.04,-0.02l0 0c-0.01,0 -0.02,0 -0.03,0l0 0c-0.02,-0.01 -0.04,-0.02 -0.06,-0.03l0 0c0,0 0,0 0,0l0 0c-0.03,0 -0.05,-0.01 -0.08,-0.02l0 0c0,0 -0.01,0 -0.01,0l0 0c-0.02,-0.01 -0.04,-0.01 -0.06,-0.02l0 0c-0.01,0 -0.01,0 -0.02,0l0 0c-0.04,-0.02 -0.09,-0.03 -0.14,-0.03l0 0c-0.01,0 -0.02,-0.01 -0.02,-0.01l0 0c-0.02,0 -0.04,-0.01 -0.06,-0.01l0 0c-0.01,0 -0.01,0 -0.02,0l0 0c-0.02,-0.01 -0.05,-0.01 -0.07,-0.01l0 0c-0.01,0 -0.01,0 -0.02,0l0 0c-0.02,-0.01 -0.04,-0.01 -0.06,-0.01l0 0c-0.03,0 -0.06,0.01 -0.09,0.01m0 -0.01l0 0 0 0z"/>
   <path id="path13003" class="fil22" d="M30.27 10.05c-0.52,1.65 -0.94,3.02 -1.3,4.14l0 0c1.42,-1.95 2.81,-4.4 4.14,-7.23l0 0c-1.55,0.49 -2.38,1.6 -2.84,3.09m0 0l0 0 0 0z"/>
   <path id="path13093" class="fil23" d="M29.01 18.76c-0.07,0.04 -0.14,0.07 -0.21,0.1 2.75,-1.23 6.04,-6.1 7.61,-12.17l-0.31 0c-3.62,6.46 -4.78,10.78 -7.09,12.07z"/>
   <g>
    <path id="path13097" class="fil24" d="M27.21 18.22c0.6,-0.73 1.09,-1.98 1.76,-4.03 -0.77,1.06 -1.54,1.97 -2.32,2.71 0,0 0,0 0,0 0.17,0.51 0.35,0.96 0.56,1.32l0 0zm0 0l0 0 0 0z"/>
   </g>
   <g>
    <path id="path13101" class="fil7" d="M27.21 18.22c-0.2,0.25 -0.42,0.44 -0.66,0.58 -0.05,0.03 -0.1,0.06 -0.16,0.08 0.26,0.14 0.54,0.23 0.85,0.27l0 0 0 0c0.04,0 0.09,0.01 0.13,0.01l0.01 0c0.02,0 0.04,0 0.07,0l0.01 0c0.02,0 0.04,0 0.06,0 0.03,0 0.05,0 0.08,0 0,0 0.01,0 0.02,0 0.02,0 0.03,0 0.05,0 0.01,0 0.02,0 0.03,0 0.01,0 0.03,0 0.05,0 0,0 0,0 0,0 0.01,0 0.01,0 0.02,0 0.02,0 0.04,-0.01 0.05,-0.01 0,0 0.01,0 0.01,0 0,0 0.01,0 0.01,0 0.02,-0.01 0.04,-0.01 0.06,-0.01 0.01,0 0.01,0 0.02,0 0.02,-0.01 0.04,-0.01 0.06,-0.01l0.01 0c0,0 0,0 0,0 0.05,-0.01 0.09,-0.02 0.13,-0.03 -0.35,-0.13 -0.65,-0.44 -0.91,-0.88l0 0zm0 0l0 0 0 0z"/>
   </g>
   <path id="path13105" class="fil25" d="M22.13 19.16c0.26,0 0.52,-0.02 0.78,-0.07 0.25,-0.05 0.49,-0.11 0.73,-0.2 0.2,0.1 0.42,0.17 0.64,0.22 0.17,0.04 0.35,0.05 0.54,0.05l-2.69 0z"/>
   <path id="path13109" class="fil25" d="M24.82 19.16c0.64,0 1.15,-0.07 1.57,-0.28 0.26,0.14 0.54,0.23 0.85,0.27l0 0 0 0c0.04,0 0.09,0.01 0.13,0.01l0.01 0c0.02,0 0.04,0 0.07,0l0.01 0c0.02,0 0.04,0 0.06,0l-2.7 0 0 0z"/>
   <path id="path13113" class="fil26" d="M27.53 19.16c0.02,0 0.05,0 0.07,0 0.01,0 0.01,0 0.02,0 0.02,0 0.04,0 0.05,0 0.01,0 0.02,0 0.03,0 0.01,0 0.03,0 0.05,0 0,0 0,0 0,0 0.01,0 0.02,0 0.02,0 0.02,0 0.04,-0.01 0.06,-0.01 0,0 0,0 0,0 0.01,0 0.01,0 0.02,0 0.02,-0.01 0.04,-0.01 0.05,-0.01 0.01,0 0.02,0 0.02,-0.01 0.02,0 0.04,0 0.07,-0.01l0 0c0,0 0.01,0 0.01,0 0.04,-0.01 0.08,-0.01 0.13,-0.02l0 0c0.12,0.04 0.25,0.06 0.39,0.06l-0.99 0.01 0 -0.01z"/>
   <g>
    <path id="path13117" class="fil27" d="M26.65 16.9c0,0 0,0 0,0 -0.28,0.27 -0.57,0.52 -0.85,0.74 -0.15,0.12 -0.3,0.23 -0.44,0.34 0.12,0.15 0.25,0.29 0.38,0.41 0.2,0.2 0.42,0.36 0.66,0.49 0.05,-0.02 0.1,-0.05 0.16,-0.08 0.24,-0.14 0.45,-0.33 0.66,-0.58 -0.22,-0.36 -0.4,-0.81 -0.57,-1.32l0 0zm0 0l0 0 0 0z"/>
   </g>
   <path id="path13139" class="fil28" d="M35.09 6.69l-1.34 0c-0.05,0 -0.09,0 -0.14,0l0 0c-0.04,0 -0.08,0 -0.12,0l0 0 -0.01 0c-0.09,0 -0.17,0.01 -0.25,0.01l0 0c-0.04,0.09 -0.08,0.17 -0.12,0.26l0 0c-1.33,2.83 -2.73,5.28 -4.14,7.23l0 0c-0.67,2.05 -1.16,3.29 -1.76,4.02l0 0c0.26,0.44 0.56,0.75 0.91,0.88l0 0c0.01,0 0.02,0 0.03,-0.01l0 0c0,0 0.01,0 0.01,0l0 0c0,0 0.01,0 0.02,0l0 0c0.01,0 0.03,-0.01 0.04,-0.01l0 0c0.01,-0.01 0.02,-0.01 0.03,-0.01l0 0c0.01,0 0.02,-0.01 0.04,-0.01l0 0c0,0 0.01,-0.01 0.02,-0.01l0 0c0.02,0 0.04,-0.01 0.06,-0.01l0 0c0.01,-0.01 0.02,-0.01 0.03,-0.01l0 0c0.01,-0.01 0.02,-0.01 0.03,-0.02l0 0c0.01,0 0.03,0 0.04,-0.01l0 0c0.01,0 0.02,0 0.02,-0.01l0 0c0.03,-0.01 0.05,-0.01 0.07,-0.02l0 0c0.01,0 0.02,-0.01 0.02,-0.01l0 0c0.02,-0.01 0.03,-0.01 0.05,-0.02l0 0c0,0 0.01,0 0.01,0l0 0c0.05,-0.02 0.1,-0.04 0.15,-0.07l0 0c0,0 0.01,0 0.01,0l0 0c0.07,-0.03 0.14,-0.06 0.21,-0.1l0 0c2.31,-1.29 3.47,-5.61 7.09,-12.07l0 0 -1.01 0 0 0z"/>
   <g>
    <path id="path13231" class="fil29" d="M15.09 6.97c0.01,0 0.01,0 0.02,0.01 0.01,0 0.03,0 0.04,0 0,0 0.01,0 0.01,0 0.03,0.01 0.05,0.01 0.08,0.01 0,0 0.01,0 0.01,0.01 0.02,0 0.05,0 0.07,0.01 0,0 0.01,0 0.01,0 0.05,0.01 0.1,0.02 0.15,0.04 0.01,0 0.01,0 0.02,0 0.02,0 0.03,0.01 0.06,0.02 0,0 0.01,0 0.01,0 0.03,0.01 0.05,0.01 0.07,0.02 0,0 0.01,0 0.01,0.01 0.02,0 0.04,0.01 0.06,0.02 0.01,0 0.02,0 0.02,0 0.02,0.01 0.03,0.02 0.05,0.02 0.01,0 0.01,0.01 0.02,0.01 0.02,0.01 0.04,0.02 0.06,0.03 0.01,0 0.02,0 0.03,0.01 0.01,0 0.02,0.01 0.04,0.01 0.01,0.01 0.02,0.01 0.03,0.02 0.01,0 0.02,0.01 0.03,0.01 0.26,0.13 0.49,0.3 0.71,0.5 0.08,-0.08 0.17,-0.16 0.25,-0.23 -0.47,-0.34 -1.02,-0.53 -1.64,-0.53 -0.07,0 -0.15,0.01 -0.22,0.01l0 -0.01zm0 0l0 0 0 0z"/>
   </g>
   <g>
    <path id="path13235" class="fil30" d="M16.7 7.73c0.13,0.12 0.26,0.26 0.38,0.41 0.12,-0.08 0.24,-0.16 0.36,-0.23 -0.16,-0.16 -0.32,-0.29 -0.49,-0.41 -0.08,0.07 -0.17,0.14 -0.25,0.23l0 0zm0 0l0 0 0 0z"/>
   </g>
   <g id="g13243">
    <path id="path13245" class="fil31" d="M15.09 6.97c0.07,0 0.15,0 0.22,0 0.62,0 1.17,0.19 1.64,0.53 0.51,-0.4 1.12,-0.54 1.96,-0.54l-4.1 0c0.1,0 0.19,0.01 0.28,0.01m0 0l0 0 0 0z"/>
   </g>
   <g id="g13253">
    <path id="path13255" class="fil32" d="M18.91 6.96c-0.84,0 -1.45,0.14 -1.96,0.54 0.17,0.12 0.33,0.25 0.48,0.41 0.71,-0.45 1.4,-0.75 2.09,-0.88 0.26,-0.04 0.52,-0.07 0.78,-0.07l-1.39 0z"/>
   </g>
   <path id="path13333" class="fil33" d="M28.97 14.19c0.36,-1.12 0.78,-2.48 1.3,-4.14 0.46,-1.49 1.29,-2.6 2.84,-3.09 0.04,-0.08 0.08,-0.17 0.12,-0.25 -2.53,0.15 -3.71,1.43 -4.3,3.34 -1.04,3.32 -1.67,5.47 -2.28,6.85 0.78,-0.74 1.55,-1.65 2.32,-2.71z"/>
  </g>
 </g>
</svg>
