<?xml version="1.0" encoding="UTF-8"?>
<!DOCTYPE svg PUBLIC "-//W3C//DTD SVG 1.1//EN" "http://www.w3.org/Graphics/SVG/1.1/DTD/svg11.dtd">
<!-- Creator: CorelDRAW 2019 (64-Bit) -->
<svg xmlns="http://www.w3.org/2000/svg" xml:space="preserve" width="640px" height="640px" version="1.1" style="shape-rendering:geometricPrecision; text-rendering:geometricPrecision; image-rendering:optimizeQuality; fill-rule:evenodd; clip-rule:evenodd"
viewBox="0 0 112.72 112.72"
 xmlns:xlink="http://www.w3.org/1999/xlink">
 <defs>
  <style type="text/css">
   <![CDATA[
    .fil0 {fill:none}
    .fil1 {fill:#5C2D91}
    .fil4 {fill:#F2F2F2}
    .fil3 {fill:white}
    .fil2 {fill:white;fill-opacity:0.101961}
   ]]>
  </style>
 </defs>
 <g id="Layer_x0020_1">
  <metadata id="CorelCorpID_0Corel-Layer"/>
  <rect class="fil0" width="112.72" height="112.72"/>
 </g>
 <g id="Layer_x0020_1_0">
  <metadata id="CorelCorpID_1Corel-Layer"/>
  <g id="NET_Core_Logo_x0020_copy.svg">
   <circle class="fil1" cx="56.93" cy="55.8" r="38.98"/>
   <path class="fil2" d="M29.89 27.78c-16.08,14.37 -17.54,38.98 -3.17,55.05 14.37,16.08 38.98,17.54 55.05,3.17 1.1,-0.97 2.2,-2.07 3.17,-3.17l-55.05 -55.05z"/>
   <path class="fil3" d="M26.97 62.13c-0.49,0 -0.86,-0.12 -1.22,-0.49 -0.37,-0.36 -0.49,-0.73 -0.49,-1.22 0,-0.48 0.12,-0.85 0.49,-1.21 0.36,-0.37 0.73,-0.49 1.22,-0.49 0.48,0 0.85,0.24 1.21,0.49 0.37,0.36 0.49,0.73 0.49,1.21 0,0.49 -0.12,0.86 -0.49,1.22 -0.36,0.37 -0.73,0.49 -1.21,0.49z"/>
   <path class="fil3" d="M51.2 61.89l-3.16 0 -11.45 -17.67c-0.25,-0.48 -0.49,-0.85 -0.73,-1.34l0 0c0,0.98 0.12,2.08 0.12,3.05l0 16.08 -2.56 0 0 -22.17 3.41 0 11.08 17.42c0.49,0.73 0.74,1.21 0.86,1.46l0 0c-0.12,-1.1 -0.12,-2.19 -0.12,-3.29l0 -15.59 2.55 0 0 22.17 0 -0.12z"/>
   <polygon class="fil3" points="68.74,61.89 56.93,61.89 56.93,39.72 68.13,39.72 68.13,42.03 59.48,42.03 59.48,49.46 67.52,49.46 67.52,51.78 59.48,51.78 59.48,59.45 68.62,59.45 68.62,61.89 "/>
   <polygon class="fil3" points="86.16,42.03 79.7,42.03 79.7,61.89 77.15,61.89 77.15,42.03 70.81,42.03 70.81,39.72 86.28,39.72 86.28,42.03 "/>
   <path class="fil4" d="M49.74 76.99c-0.85,0.36 -1.83,0.61 -2.8,0.61 -1.34,0 -2.56,-0.49 -3.53,-1.46 -0.85,-0.98 -1.34,-2.32 -1.34,-3.66 0,-1.46 0.49,-2.92 1.46,-4.02 0.97,-0.97 2.31,-1.58 3.78,-1.46 0.85,0 1.7,0 2.43,0.37l0 1.21c-0.73,-0.36 -1.58,-0.6 -2.43,-0.6 -1.1,0 -2.08,0.36 -2.93,1.21 -0.73,0.86 -1.09,1.95 -1.09,3.17 0,1.1 0.36,2.19 0.97,3.04 0.73,0.74 1.71,1.1 2.68,1.1 0.97,0 1.83,-0.24 2.68,-0.73l0 1.1 0.12 0.12z"/>
   <path class="fil4" d="M54.73 77.6c-0.97,0 -1.94,-0.37 -2.55,-1.1 -0.61,-0.73 -0.98,-1.7 -0.98,-2.68 0,-1.09 0.25,-2.07 0.98,-2.92 0.73,-0.73 1.7,-1.1 2.68,-0.98 0.97,0 1.82,0.37 2.55,0.98 0.61,0.73 0.98,1.83 0.98,2.8 0,0.97 -0.24,2.07 -0.98,2.8 -0.73,0.73 -1.58,1.1 -2.68,1.1l0 0zm0.13 -6.7c-0.73,0 -1.34,0.24 -1.83,0.73 -0.49,0.61 -0.73,1.34 -0.61,2.07 0,0.73 0.24,1.46 0.61,2.07 0.49,0.49 1.1,0.73 1.83,0.73 0.61,0 1.34,-0.24 1.7,-0.73 0.49,-0.61 0.61,-1.34 0.61,-2.07 0,-0.73 -0.12,-1.46 -0.61,-2.07 -0.49,-0.49 -1.09,-0.73 -1.7,-0.73z"/>
   <path class="fil4" d="M64.11 71.26c-0.24,-0.12 -0.61,-0.24 -0.85,-0.24 -0.49,0 -0.97,0.24 -1.22,0.73 -0.36,0.61 -0.48,1.22 -0.48,1.95l0 3.78 -1.22 0 0 -7.31 1.22 0 0 1.46 0 0c0.12,-0.49 0.36,-0.85 0.73,-1.22 0.36,-0.24 0.73,-0.49 1.09,-0.36 0.25,0 0.49,0 0.73,0l0 1.21 0 0z"/>
   <path class="fil4" d="M71.18 74.07l-5.12 0c0,0.73 0.25,1.33 0.61,1.82 0.49,0.49 1.1,0.73 1.71,0.61 0.85,0 1.58,-0.24 2.31,-0.85l0 1.09c-0.73,0.49 -1.7,0.74 -2.56,0.74 -0.97,0 -1.82,-0.37 -2.43,-0.98 -0.61,-0.73 -0.98,-1.83 -0.86,-2.8 0,-0.97 0.25,-1.95 0.98,-2.8 0.61,-0.73 1.46,-1.1 2.43,-1.1 0.86,0 1.71,0.25 2.2,0.98 0.61,0.73 0.85,1.7 0.73,2.55l0 0.61 0 0.13zm-1.22 -0.98c0,-0.61 -0.12,-1.1 -0.49,-1.58 -0.36,-0.37 -0.85,-0.61 -1.34,-0.61 -0.48,0 -1.09,0.24 -1.46,0.61 -0.36,0.36 -0.61,0.97 -0.73,1.58l3.9 0 0.12 0z"/>
  </g>
 </g>
</svg>
