<?xml version="1.0" encoding="UTF-8"?>
<!DOCTYPE svg PUBLIC "-//W3C//DTD SVG 1.1//EN" "http://www.w3.org/Graphics/SVG/1.1/DTD/svg11.dtd">
<!-- Creator: CorelDRAW 2019 (64-Bit) -->
<svg xmlns="http://www.w3.org/2000/svg" xml:space="preserve" width="640px" height="640px" version="1.1" style="shape-rendering:geometricPrecision; text-rendering:geometricPrecision; image-rendering:optimizeQuality; fill-rule:evenodd; clip-rule:evenodd"
viewBox="0 0 116.35 116.35"
 xmlns:xlink="http://www.w3.org/1999/xlink">
 <defs>
  <style type="text/css">
   <![CDATA[
    .fil2 {fill:none}
    .fil0 {fill:#0A2155}
    .fil1 {fill:#FFC221}
   ]]>
  </style>
 </defs>
 <g id="Layer_x0020_1">
  <metadata id="CorelCorpID_0Corel-Layer"/>
  <g id="_2356623996976">
   <path class="fil0" d="M104.5 24.68c0,-1 -0.81,-1.81 -1.81,-1.81l-11.85 0 0 -3.54c0,-1 -0.82,-1.81 -1.81,-1.81l-23.59 0c-2.97,0 -5.61,1.44 -7.27,3.65 -1.65,-2.21 -4.29,-3.65 -7.26,-3.65l-23.59 0c-1,0 -1.81,0.81 -1.81,1.81l0 3.54 -11.85 0c-1,0 -1.81,0.81 -1.81,1.81l0 63.51c0,1 0.81,1.81 1.81,1.81l27.58 0 -2.5 7.46 -13.99 0c-1,0 -1.81,0.81 -1.81,1.81 0,1 0.81,1.81 1.81,1.81l66.85 0c1,0 1.81,-0.81 1.81,-1.81 0,-1 -0.81,-1.81 -1.81,-1.81l-14 0 -2.49 -7.46 27.58 0c1,0 1.81,-0.81 1.81,-1.81l0 -63.51zm-75.37 36.43l21.78 0c2.64,0 4.84,1.89 5.35,4.38l-27.13 0 0 -4.38zm36.31 -39.97l21.78 0 0 36.35 -21.78 0c-2.04,0 -3.94,0.69 -5.46,1.83l0 -32.72c0,-3.01 2.45,-5.46 5.46,-5.46zm21.78 39.97l0 4.38 -27.13 0c0.51,-2.49 2.71,-4.38 5.35,-4.38l21.78 0zm-36.31 -39.97c3.01,0 5.46,2.45 5.46,5.46l0 32.72c-1.52,-1.14 -3.42,-1.83 -5.46,-1.83l-21.78 0 0 -36.35 21.78 0zm-35.44 5.35l10.04 0 0 40.81c0,1 0.81,1.81 1.81,1.81l61.71 0c0.99,0 1.81,-0.81 1.81,-1.81l0 -40.81 10.04 0 0 48.81 -85.41 0 0 -48.81zm58.32 70.97l-31.23 0 2.5 -7.46 26.23 0 2.5 7.46zm-58.32 -11.08l0 -7.46 85.41 0 0 7.46 -85.41 0z"/>
   <path class="fil1" d="M35.32 29.14l14.86 0c1,0 1.81,-0.81 1.81,-1.81 0,-1 -0.81,-1.81 -1.81,-1.81l-14.86 0c-1,0 -1.81,0.81 -1.81,1.81 0,1 0.81,1.81 1.81,1.81z"/>
   <path class="fil1" d="M66.17 29.14l14.86 0c1,0 1.81,-0.81 1.81,-1.81 0,-1 -0.81,-1.81 -1.81,-1.81l-14.86 0c-1,0 -1.81,0.81 -1.81,1.81 0,1 0.81,1.81 1.81,1.81z"/>
   <path class="fil1" d="M35.32 37.13l11.23 0c1,0 1.81,-0.81 1.81,-1.81 0,-1 -0.81,-1.81 -1.81,-1.81l-11.23 0c-1,0 -1.81,0.81 -1.81,1.81 0,1 0.81,1.81 1.81,1.81z"/>
   <path class="fil1" d="M66.17 37.13l11.23 0c1,0 1.81,-0.81 1.81,-1.81 0,-1 -0.81,-1.81 -1.81,-1.81l-11.23 0c-1,0 -1.81,0.81 -1.81,1.81 0,1 0.81,1.81 1.81,1.81z"/>
   <path class="fil1" d="M35.32 45.13l14.86 0c1,0 1.81,-0.81 1.81,-1.81 0,-1 -0.81,-1.81 -1.81,-1.81l-14.86 0c-1,0 -1.81,0.81 -1.81,1.81 0,1 0.81,1.81 1.81,1.81z"/>
   <path class="fil1" d="M66.17 45.13l14.86 0c1,0 1.81,-0.81 1.81,-1.81 0,-1 -0.81,-1.81 -1.81,-1.81l-14.86 0c-1,0 -1.81,0.81 -1.81,1.81 0,1 0.81,1.81 1.81,1.81z"/>
   <path class="fil1" d="M35.32 53.12l11.23 0c1,0 1.81,-0.81 1.81,-1.81 0,-1 -0.81,-1.81 -1.81,-1.81l-11.23 0c-1,0 -1.81,0.81 -1.81,1.81 0,1 0.81,1.81 1.81,1.81z"/>
   <path class="fil1" d="M66.17 53.12l11.23 0c1,0 1.81,-0.81 1.81,-1.81 0,-1 -0.81,-1.81 -1.81,-1.81l-11.23 0c-1,0 -1.81,0.81 -1.81,1.81 0,1 0.81,1.81 1.81,1.81z"/>
  </g>
  <rect class="fil2" width="116.35" height="116.35"/>
 </g>
</svg>
