<?xml version="1.0" encoding="UTF-8"?>
<!DOCTYPE svg PUBLIC "-//W3C//DTD SVG 1.1//EN" "http://www.w3.org/Graphics/SVG/1.1/DTD/svg11.dtd">
<!-- Creator: CorelDRAW -->
<svg xmlns="http://www.w3.org/2000/svg" xml:space="preserve" width="640px" height="640px" version="1.1" style="shape-rendering:geometricPrecision; text-rendering:geometricPrecision; image-rendering:optimizeQuality; fill-rule:evenodd; clip-rule:evenodd"
viewBox="0 0 40.11 40.11"
 xmlns:xlink="http://www.w3.org/1999/xlink"
 xmlns:xodm="http://www.corel.com/coreldraw/odm/2003">
 <defs>
  <style type="text/css">
   <![CDATA[
    .fil0 {fill:none}
    .fil1 {fill:#002155;fill-rule:nonzero}
    .fil2 {fill:#FFC221;fill-rule:nonzero}
   ]]>
  </style>
 </defs>
 <g id="Layer_x0020_1">
  <metadata id="CorelCorpID_0Corel-Layer"/>
  <rect class="fil0" width="40.11" height="40.11"/>
 </g>
 <g id="Capa_x0020_1">
  <metadata id="CorelCorpID_1Corel-Layer"/>
  <g id="_2173534389488">
   <path class="fil1" d="M28.52 23.56c0.08,-0.21 0.32,-0.31 0.53,-0.23 0.21,0.09 0.31,0.33 0.23,0.54 -0.76,1.84 -2.06,3.4 -3.69,4.49 -1.58,1.06 -3.49,1.67 -5.53,1.67 -2.76,0 -5.25,-1.11 -7.06,-2.92 -1.8,-1.8 -2.92,-4.3 -2.92,-7.05 0,-1.47 0.32,-2.87 0.89,-4.12 0.59,-1.31 1.46,-2.46 2.52,-3.4 0.17,-0.15 0.43,-0.13 0.58,0.04 0.15,0.17 0.13,0.43 -0.04,0.58 -0.97,0.86 -1.77,1.92 -2.31,3.11 -0.53,1.16 -0.82,2.44 -0.82,3.79 0,2.52 1.03,4.81 2.68,6.47 1.66,1.66 3.95,2.68 6.48,2.68 1.88,0 3.62,-0.57 5.08,-1.54 1.49,-1 2.68,-2.43 3.38,-4.11zm-13.02 -11.44c-0.2,0.11 -0.45,0.04 -0.56,-0.15 -0.12,-0.2 -0.05,-0.45 0.15,-0.57 0.74,-0.42 1.55,-0.76 2.39,-0.99 0.83,-0.21 1.69,-0.33 2.58,-0.33 1.66,0 3.23,0.41 4.61,1.13 1.43,0.75 2.66,1.83 3.57,3.15 0.13,0.18 0.09,0.44 -0.1,0.57 -0.18,0.13 -0.44,0.08 -0.57,-0.1 -0.84,-1.21 -1.97,-2.21 -3.28,-2.89 -1.27,-0.66 -2.7,-1.04 -4.23,-1.04 -0.82,0 -1.62,0.11 -2.37,0.31 -0.78,0.21 -1.51,0.51 -2.19,0.91zm15.76 2.32c0.1,0.2 0.02,0.45 -0.19,0.55 -0.2,0.1 -0.45,0.02 -0.55,-0.18 -0.13,-0.27 -0.17,-0.56 -0.13,-0.83 0.04,-0.28 0.17,-0.54 0.38,-0.75l0.22 -0.22c0.1,-0.11 0.15,-0.24 0.15,-0.38 0,-0.13 -0.05,-0.27 -0.15,-0.37l-3.13 -3.14c-0.11,-0.1 -0.24,-0.15 -0.38,-0.15 -0.13,0 -0.27,0.05 -0.37,0.15l-0.23 0.23c-0.2,0.2 -0.47,0.33 -0.74,0.37 -0.28,0.05 -0.57,0 -0.83,-0.13 -0.25,-0.12 -0.51,-0.24 -0.78,-0.35 -0.26,-0.11 -0.53,-0.21 -0.79,-0.3 -0.28,-0.09 -0.51,-0.27 -0.68,-0.49 -0.16,-0.23 -0.26,-0.5 -0.26,-0.8l0 -0.31c0,-0.15 -0.06,-0.28 -0.15,-0.37 -0.1,-0.1 -0.23,-0.16 -0.38,-0.16l-4.43 0c-0.14,0 -0.28,0.06 -0.37,0.16 -0.1,0.09 -0.16,0.22 -0.16,0.37l0 0.31c0,0.3 -0.09,0.57 -0.26,0.8 -0.16,0.22 -0.4,0.4 -0.68,0.49 -0.26,0.09 -0.52,0.19 -0.79,0.3 -0.27,0.11 -0.52,0.23 -0.77,0.35 -0.27,0.13 -0.56,0.18 -0.83,0.13 -0.28,-0.04 -0.54,-0.17 -0.75,-0.37l-0.22 -0.23c-0.11,-0.1 -0.24,-0.15 -0.38,-0.15l0 0c-0.13,0 -0.27,0.05 -0.37,0.15l-3.14 3.14c-0.1,0.1 -0.15,0.24 -0.15,0.37 0,0.14 0.05,0.27 0.15,0.38l0.23 0.22c0.2,0.21 0.33,0.47 0.37,0.75 0.05,0.27 0,0.56 -0.13,0.83 -0.12,0.25 -0.24,0.5 -0.35,0.77 -0.11,0.27 -0.21,0.53 -0.3,0.79 -0.09,0.28 -0.27,0.52 -0.49,0.68 -0.23,0.17 -0.5,0.26 -0.8,0.26l-0.31 0c-0.15,0 -0.28,0.06 -0.37,0.16 -0.1,0.09 -0.16,0.23 -0.16,0.37l0 4.43c0,0.15 0.06,0.28 0.16,0.38 0.09,0.09 0.22,0.15 0.37,0.15l0.31 0c0.3,0 0.57,0.1 0.8,0.26 0.22,0.17 0.4,0.4 0.49,0.68 0.09,0.26 0.19,0.53 0.3,0.8 0.11,0.26 0.23,0.52 0.35,0.77 0.13,0.26 0.18,0.55 0.13,0.83 -0.04,0.27 -0.17,0.54 -0.37,0.74l-0.23 0.23c-0.1,0.1 -0.15,0.24 -0.15,0.37 0,0.14 0.05,0.27 0.15,0.38l3.14 3.13c0.1,0.1 0.24,0.16 0.37,0.16l0 -0.01c0.14,0 0.27,-0.05 0.38,-0.15l0.22 -0.22c0.21,-0.21 0.47,-0.34 0.75,-0.38 0.27,-0.04 0.56,0 0.83,0.13 0.25,0.13 0.5,0.25 0.77,0.36 0.27,0.11 0.53,0.21 0.79,0.29 0.28,0.09 0.52,0.27 0.68,0.49 0.17,0.23 0.26,0.51 0.26,0.8l0 0.31c0,0.15 0.06,0.28 0.16,0.38 0.09,0.09 0.23,0.15 0.37,0.15l4.43 0c0.15,0 0.28,-0.06 0.38,-0.15 0.09,-0.1 0.15,-0.23 0.15,-0.38l0 -0.31c0,-0.29 0.1,-0.57 0.26,-0.8 0.17,-0.22 0.4,-0.4 0.68,-0.49 0.26,-0.08 0.53,-0.18 0.8,-0.29 0.26,-0.11 0.52,-0.23 0.77,-0.36 0.26,-0.13 0.55,-0.17 0.83,-0.13 0.27,0.04 0.54,0.17 0.74,0.38l0.23 0.22c0.1,0.1 0.24,0.15 0.37,0.15l0 0.01c0.14,0 0.27,-0.06 0.38,-0.16l3.13 -3.13c0.1,-0.11 0.15,-0.24 0.15,-0.38l0.01 0c0,-0.13 -0.06,-0.27 -0.16,-0.37l-0.22 -0.23c-0.21,-0.2 -0.34,-0.47 -0.38,-0.74 -0.04,-0.28 0,-0.57 0.13,-0.83 0.13,-0.25 0.25,-0.51 0.36,-0.77 0.11,-0.27 0.21,-0.54 0.29,-0.8 0.07,-0.21 0.31,-0.33 0.52,-0.26 0.22,0.07 0.33,0.3 0.26,0.52 -0.1,0.3 -0.2,0.58 -0.31,0.85 -0.12,0.28 -0.25,0.55 -0.38,0.83 -0.06,0.1 -0.07,0.22 -0.06,0.33 0.02,0.11 0.07,0.21 0.15,0.29l0.22 0.22c0.27,0.27 0.4,0.61 0.4,0.96l0 0c0,0.35 -0.13,0.7 -0.4,0.96l-3.13 3.13c-0.26,0.27 -0.61,0.4 -0.96,0.4l0 0c-0.34,0 -0.69,-0.13 -0.96,-0.4l-0.22 -0.22c-0.08,-0.08 -0.18,-0.13 -0.29,-0.15 -0.11,-0.01 -0.23,0 -0.33,0.06 -0.28,0.13 -0.55,0.26 -0.83,0.38 -0.27,0.11 -0.55,0.21 -0.85,0.31 -0.11,0.04 -0.21,0.11 -0.27,0.2 -0.07,0.09 -0.1,0.19 -0.1,0.31l0 0.31c0,0.38 -0.16,0.72 -0.4,0.96 -0.25,0.25 -0.58,0.4 -0.96,0.4l-4.43 0c-0.37,0 -0.71,-0.15 -0.96,-0.4 -0.24,-0.24 -0.39,-0.58 -0.39,-0.96l0 -0.31c0,-0.12 -0.04,-0.22 -0.1,-0.31 -0.07,-0.09 -0.17,-0.16 -0.28,-0.2 -0.29,-0.1 -0.58,-0.2 -0.85,-0.31 -0.28,-0.12 -0.55,-0.25 -0.82,-0.38 -0.11,-0.06 -0.23,-0.07 -0.34,-0.06 -0.11,0.02 -0.21,0.07 -0.29,0.15l-0.22 0.22c-0.27,0.27 -0.61,0.4 -0.96,0.4l0 0c-0.35,0 -0.69,-0.13 -0.96,-0.4l-3.13 -3.13c-0.26,-0.26 -0.4,-0.61 -0.4,-0.96 0,-0.34 0.14,-0.69 0.4,-0.96l0.22 -0.22c0.08,-0.08 0.13,-0.18 0.15,-0.29 0.02,-0.11 0,-0.23 -0.05,-0.33 -0.14,-0.28 -0.27,-0.55 -0.38,-0.83 -0.11,-0.27 -0.22,-0.55 -0.32,-0.85 -0.04,-0.11 -0.11,-0.21 -0.2,-0.27 -0.08,-0.07 -0.19,-0.1 -0.31,-0.1l-0.31 0c-0.37,0 -0.71,-0.16 -0.96,-0.4 -0.24,-0.25 -0.39,-0.58 -0.39,-0.96l0 -4.43c0,-0.37 0.15,-0.71 0.39,-0.96 0.25,-0.24 0.59,-0.39 0.96,-0.39l0.31 0c0.12,0 0.23,-0.04 0.31,-0.1 0.09,-0.07 0.16,-0.17 0.2,-0.28 0.1,-0.29 0.21,-0.58 0.32,-0.85 0.11,-0.28 0.24,-0.55 0.38,-0.82 0.05,-0.11 0.07,-0.23 0.05,-0.34 -0.02,-0.11 -0.07,-0.21 -0.15,-0.29l-0.22 -0.22c-0.26,-0.27 -0.4,-0.61 -0.4,-0.96 0,-0.35 0.14,-0.69 0.4,-0.96l3.13 -3.13c0.27,-0.26 0.61,-0.39 0.96,-0.39l0 -0.01c0.35,0 0.69,0.14 0.96,0.4l0.22 0.22c0.08,0.08 0.18,0.13 0.29,0.15 0.11,0.02 0.23,0 0.34,-0.05 0.27,-0.14 0.54,-0.27 0.82,-0.38 0.27,-0.11 0.56,-0.22 0.85,-0.32 0.11,-0.04 0.21,-0.11 0.28,-0.2 0.06,-0.08 0.1,-0.19 0.1,-0.31l0 -0.31c0,-0.37 0.15,-0.71 0.39,-0.96 0.25,-0.24 0.59,-0.39 0.96,-0.39l4.43 0c0.38,0 0.71,0.15 0.96,0.39 0.24,0.25 0.4,0.59 0.4,0.96l0 0.31c0,0.12 0.03,0.23 0.1,0.31 0.06,0.09 0.16,0.16 0.27,0.2 0.3,0.1 0.58,0.21 0.85,0.32 0.28,0.11 0.55,0.24 0.83,0.38 0.1,0.05 0.22,0.07 0.33,0.05 0.11,-0.02 0.21,-0.07 0.29,-0.15l0.22 -0.22c0.27,-0.26 0.62,-0.4 0.96,-0.4 0.35,0 0.7,0.14 0.96,0.4l3.13 3.13c0.27,0.27 0.4,0.61 0.4,0.96 0,0.35 -0.13,0.69 -0.4,0.96l-0.22 0.22c-0.08,0.08 -0.13,0.18 -0.15,0.29 -0.01,0.11 0,0.23 0.06,0.34z"/>
   <path class="fil1" d="M15.29 17.94c-0.23,0 -0.41,-0.19 -0.41,-0.42 0,-0.22 0.18,-0.41 0.41,-0.41l1.16 0c0.23,0 0.41,0.19 0.41,0.41 0,0.23 -0.18,0.42 -0.41,0.42l-1.16 0z"/>
   <path class="fil1" d="M14.13 20.25c-0.22,0 -0.41,-0.18 -0.41,-0.41 0,-0.23 0.19,-0.41 0.41,-0.41l2.32 0c0.23,0 0.41,0.18 0.41,0.41 0,0.23 -0.18,0.41 -0.41,0.41l-2.32 0z"/>
   <path class="fil1" d="M12.87 22.57c-0.23,0 -0.41,-0.19 -0.41,-0.42 0,-0.22 0.18,-0.41 0.41,-0.41l3.58 0c0.23,0 0.41,0.19 0.41,0.41 0,0.23 -0.18,0.42 -0.41,0.42l-3.58 0z"/>
   <path class="fil2" d="M24.29 23.1c0.23,0 0.42,0.19 0.42,0.42 0,0.22 -0.19,0.41 -0.42,0.41l-5.29 0c-0.37,0 -0.71,-0.15 -0.95,-0.39 -0.24,-0.25 -0.39,-0.58 -0.39,-0.95l0 -6.95c0,-0.37 0.15,-0.71 0.39,-0.95 0.24,-0.24 0.58,-0.39 0.95,-0.39l13.79 0c0.37,0 0.7,0.15 0.95,0.39 0.24,0.24 0.39,0.58 0.39,0.95l0 6.95c0,0.37 -0.15,0.7 -0.39,0.95 -0.25,0.24 -0.58,0.39 -0.95,0.39l-6.57 0c-0.23,0 -0.41,-0.19 -0.41,-0.41 0,-0.23 0.18,-0.42 0.41,-0.42l6.57 0c0.14,0 0.27,-0.05 0.36,-0.15 0.1,-0.09 0.15,-0.22 0.15,-0.36l0 -6.95c0,-0.14 -0.05,-0.27 -0.15,-0.36 -0.09,-0.1 -0.22,-0.15 -0.36,-0.15l-13.79 0c-0.15,0 -0.27,0.05 -0.37,0.15 -0.09,0.09 -0.15,0.22 -0.15,0.36l0 6.95c0,0.14 0.06,0.27 0.15,0.36 0.1,0.1 0.22,0.15 0.37,0.15l5.29 0z"/>
   <path class="fil2" d="M33.67 22.98c0.17,0.15 0.19,0.4 0.04,0.58 -0.15,0.17 -0.41,0.19 -0.58,0.04l-4.64 -4.02c-0.17,-0.15 -0.19,-0.41 -0.04,-0.58 0.15,-0.17 0.41,-0.19 0.58,-0.04l4.64 4.02z"/>
   <path class="fil2" d="M22.8 18.93c0.17,-0.15 0.43,-0.13 0.58,0.04 0.15,0.17 0.13,0.43 -0.04,0.58l-4.68 4.05c-0.17,0.15 -0.43,0.13 -0.58,-0.04 -0.15,-0.18 -0.13,-0.43 0.04,-0.58l4.68 -4.05z"/>
   <path class="fil2" d="M24.67 19.84c0.35,0.3 0.79,0.45 1.22,0.45 0.44,0 0.87,-0.15 1.22,-0.45l5.45 -4.71 -13.33 0 5.44 4.71zm1.22 1.28c-0.62,0 -1.25,-0.22 -1.75,-0.66l-6.02 -5.21c-0.01,-0.01 -0.03,-0.02 -0.04,-0.04 -0.15,-0.17 -0.13,-0.43 0.04,-0.58 0.12,-0.1 0.26,-0.19 0.41,-0.24 0.15,-0.06 0.3,-0.09 0.47,-0.09l13.79 0c0.16,0 0.32,0.03 0.47,0.09 0.14,0.05 0.28,0.13 0.4,0.23 0.01,0.02 0.03,0.03 0.05,0.05 0.15,0.17 0.13,0.43 -0.04,0.58l-6.02 5.21c-0.5,0.44 -1.13,0.66 -1.76,0.66z"/>
  </g>
 </g>
</svg>
