<?xml version="1.0" encoding="UTF-8"?>
<!DOCTYPE svg PUBLIC "-//W3C//DTD SVG 1.1//EN" "http://www.w3.org/Graphics/SVG/1.1/DTD/svg11.dtd">
<!-- Creator: CorelDRAW -->
<svg xmlns="http://www.w3.org/2000/svg" xml:space="preserve" width="665px" height="640px" version="1.1" style="shape-rendering:geometricPrecision; text-rendering:geometricPrecision; image-rendering:optimizeQuality; fill-rule:evenodd; clip-rule:evenodd"
viewBox="0 0 50.72 48.82"
 xmlns:xlink="http://www.w3.org/1999/xlink"
 xmlns:xodm="http://www.corel.com/coreldraw/odm/2003">
 <defs>
  <style type="text/css">
   <![CDATA[
    .str0 {stroke:#FFC221;stroke-width:0.32;stroke-miterlimit:22.9256}
    .fil0 {fill:none}
    .fil1 {fill:#002155;fill-rule:nonzero}
    .fil2 {fill:#FFC221;fill-rule:nonzero}
   ]]>
  </style>
 </defs>
 <g id="Layer_x0020_1">
  <metadata id="CorelCorpID_0Corel-Layer"/>
  <rect class="fil0" x="1.9" width="48.82" height="48.82"/>
  <rect class="fil0" width="48.82" height="48.82"/>
 </g>
 <g id="Layer_x0020_1_4">
  <metadata id="CorelCorpID_1Corel-Layer"/>
  <path class="fil1" d="M41.35 21.94l0 0 -3.26 -2.62 0 -10.14c0,-0.31 -0.25,-0.59 -0.57,-0.59l-22.42 0c-0.31,0 -0.57,0.28 -0.57,0.59l0 10.14 -3.25 2.62 -0.01 0c-0.13,0.11 -0.21,0.27 -0.21,0.44l0 14.42c0,1.88 1.53,3.43 3.41,3.43l23.68 0c1.88,0 3.42,-1.55 3.42,-3.43l0 -14.42c-0.01,-0.17 -0.09,-0.33 -0.22,-0.44l0 0zm-1.31 0.41l-1.95 1.34 0 -2.91 1.95 1.57zm-3.09 -12.63l0 14.75 -9.35 6.44c-0.78,0.52 -1.8,0.52 -2.58,0l-9.35 -6.44 0 -14.75 21.28 0zm-22.42 13.97l-1.95 -1.34 1.95 -1.57 0 2.91zm25.9 13.11c0,1.25 -1.03,2.3 -2.28,2.3l-23.68 0c-1.25,0 -2.28,-1.05 -2.28,-2.3l0 -13.34 12.19 8.38c1.16,0.8 2.7,0.8 3.86,0l12.19 -8.38 0 13.34zm0 0z"/>
 </g>
 <g id="Capa_x0020_1">
  <metadata id="CorelCorpID_2Corel-Layer"/>
  <path class="fil2 str0" d="M31.74 18.76l0.14 -0.05c0.98,-0.36 1.5,-1.47 1.14,-2.46 -0.36,-0.98 -1.47,-1.5 -2.45,-1.14l-0.13 0.04 -1.02 -2.8c-0.06,-0.19 -0.32,-0.24 -0.46,-0.09l-4.38 4.75 -4.14 1.51c-0.09,0.04 -0.16,0.12 -0.18,0.21 -0.53,1.46 0.09,3.14 1.44,3.89 0.08,0.04 0.15,0.04 0.23,0.02l0.69 -0.25c0.5,1.06 0.76,2.23 0.75,3.41 0,0.12 0.08,0.22 0.19,0.26 1.28,0.43 2.71,-0.1 3.41,-1.25 0.06,-0.1 0.05,-0.23 -0.03,-0.32 -0.75,-0.9 -1.3,-1.96 -1.59,-3.1l0.77 -0.29c0.14,-0.05 0.22,-0.2 0.16,-0.35l-1.24 -3.43 4.02 -4.36 3.03 8.37 -3.44 -0.43c-0.15,-0.02 -0.29,0.09 -0.31,0.24 -0.02,0.15 0.09,0.28 0.24,0.3l3.89 0.49c0.19,0.02 0.36,-0.18 0.29,-0.37 -0.16,-0.44 -0.91,-2.5 -1.02,-2.8zm-9.88 3.32c-1.04,-0.65 -1.5,-1.91 -1.11,-3.09l1.67 -0.61 1.12 3.08 -1.68 0.62zm4.53 2.6c-0.56,0.79 -1.54,1.15 -2.47,0.91 -0.02,-1.17 -0.29,-2.33 -0.78,-3.39l1.69 -0.62c0.3,1.13 0.83,2.19 1.56,3.1l0 0zm-0.72 -4l-1.61 0.59 -1.12 -3.08 1.62 -0.59 1.11 3.08zm6.02 -2.49l-0.14 0.05 -0.92 -2.57 0.13 -0.05c0.7,-0.25 1.49,0.12 1.74,0.82 0.26,0.71 -0.11,1.49 -0.81,1.75z"/>
 </g>
</svg>
