<?xml version="1.0" encoding="UTF-8"?>
<!DOCTYPE svg PUBLIC "-//W3C//DTD SVG 1.1//EN" "http://www.w3.org/Graphics/SVG/1.1/DTD/svg11.dtd">
<!-- Creator: CorelDRAW -->
<svg xmlns="http://www.w3.org/2000/svg" xml:space="preserve" width="640px" height="640px" version="1.1" style="shape-rendering:geometricPrecision; text-rendering:geometricPrecision; image-rendering:optimizeQuality; fill-rule:evenodd; clip-rule:evenodd"
viewBox="0 0 35.08 35.08"
 xmlns:xlink="http://www.w3.org/1999/xlink"
 xmlns:xodm="http://www.corel.com/coreldraw/odm/2003">
 <defs>
  <style type="text/css">
   <![CDATA[
    .fil0 {fill:none}
    .fil1 {fill:#002155;fill-rule:nonzero}
    .fil2 {fill:#FFC221;fill-rule:nonzero}
   ]]>
  </style>
 </defs>
 <g id="Layer_x0020_1">
  <metadata id="CorelCorpID_0Corel-Layer"/>
  <rect class="fil0" width="35.08" height="35.08"/>
 </g>
 <g id="Layer_x0020_1_3">
  <metadata id="CorelCorpID_1Corel-Layer"/>
  <g id="_2173534402976">
   <path class="fil1" d="M28.35 15.77l0 0 -2.34 -1.88 0 -7.29c0,-0.23 -0.18,-0.43 -0.41,-0.43l-16.12 0c-0.22,0 -0.4,0.2 -0.4,0.43l0 7.29 -2.34 1.88 -0.01 0c-0.09,0.08 -0.15,0.19 -0.15,0.32l0 10.36c0,1.35 1.1,2.46 2.45,2.46l17.02 0c1.35,0 2.46,-1.11 2.46,-2.46l0 -10.36c-0.01,-0.13 -0.06,-0.24 -0.16,-0.32l0 0zm-0.94 0.29l-1.4 0.96 0 -2.09 1.4 1.13zm-2.22 -9.07l0 10.6 -6.72 4.62c-0.56,0.38 -1.29,0.38 -1.85,0l-6.73 -4.62 0 -10.6 15.3 0zm-16.11 10.03l-1.4 -0.96 1.4 -1.13 0 2.09zm18.61 9.43c0,0.9 -0.74,1.65 -1.64,1.65l-17.02 0c-0.9,0 -1.64,-0.75 -1.64,-1.65l0 -9.59 8.76 6.02c0.84,0.57 1.94,0.57 2.78,0l8.76 -6.02 0 9.59zm0 0z"/>
   <path class="fil2" d="M12.69 18.61l1.3 0c0.11,0 0.21,-0.04 0.28,-0.11 0.08,-0.08 0.11,-0.18 0.11,-0.29l0 -0.21 6.32 0 0 0.21c0,0.11 0.04,0.21 0.11,0.29 0.08,0.07 0.18,0.11 0.28,0.11l1.31 0c0.1,0.01 0.2,-0.04 0.28,-0.11 0.08,-0.08 0.12,-0.18 0.11,-0.29l0 -1.27c0.01,-0.23 -0.17,-0.41 -0.39,-0.42l-0.22 0 0 -6.78 0.22 0c0.22,0 0.4,-0.19 0.39,-0.42l0 -1.27c0.01,-0.11 -0.03,-0.21 -0.11,-0.29 -0.08,-0.07 -0.18,-0.11 -0.28,-0.11l-1.31 0c-0.1,0 -0.2,0.04 -0.28,0.12 -0.07,0.07 -0.11,0.17 -0.11,0.28l0 0.21 -6.32 0 0 -0.21c0,-0.11 -0.03,-0.21 -0.11,-0.28 -0.07,-0.08 -0.17,-0.12 -0.28,-0.12l-1.3 0c-0.11,0 -0.21,0.04 -0.28,0.11 -0.08,0.08 -0.12,0.18 -0.12,0.29l0 1.27c0,0.23 0.17,0.42 0.4,0.42l0.21 0 0 6.78 -0.21 0c-0.23,0.01 -0.4,0.19 -0.4,0.42l0 1.27c0,0.11 0.04,0.21 0.12,0.29 0.07,0.07 0.17,0.12 0.28,0.11l0 0zm0.87 -0.81l-0.45 0 0 -0.46 0.45 0 0 0.46zm8.42 0l-0.46 0 0 -0.46 0.46 0 0 0.46zm-0.46 -9.33l0.46 0 0 0.45 -0.46 0 0 -0.45zm-8.41 0l0.45 0 0 0.45 -0.45 0 0 -0.45zm0.61 1.27l0.27 0c0.23,0 0.39,-0.19 0.39,-0.42l0 -0.24 6.32 0 0 0.24c0,0.23 0.17,0.42 0.39,0.42l0.28 0 0 6.78 -0.28 0c-0.22,0 -0.39,0.19 -0.39,0.42l0 0.25 -6.32 0 0 -0.25c0,-0.23 -0.16,-0.42 -0.39,-0.42l-0.27 0 0 -6.78zm0 0z"/>
   <path class="fil2" d="M14.65 16.43c0.03,0 0.06,0 0.09,-0.01l1.97 -0.45c0.1,-0.03 0.2,-0.08 0.28,-0.16l3.63 -3.64c0.3,-0.3 0.3,-0.77 0,-1.07l-1.05 -1.05c-0.29,-0.29 -0.77,-0.29 -1.07,0l-3.64 3.64c-0.08,0.07 -0.13,0.17 -0.15,0.28l-0.46 1.96c-0.03,0.12 0,0.25 0.08,0.35 0.08,0.1 0.19,0.15 0.32,0.15l0 0zm0.7 -1.62l0.51 0.52 -0.67 0.15 0.16 -0.67zm1.32 0.17l-0.97 -0.98 2.6 -2.59 0.97 0.96 -2.6 2.61zm3.33 -3.34l-0.16 0.16 -0.96 -0.97 0.16 -0.16 0.96 0.97zm0 0z"/>
  </g>
 </g>
</svg>
