<?xml version="1.0" encoding="UTF-8"?>
<!DOCTYPE svg PUBLIC "-//W3C//DTD SVG 1.1//EN" "http://www.w3.org/Graphics/SVG/1.1/DTD/svg11.dtd">
<!-- Creator: CorelDRAW 2019 (64-Bit) -->
<svg xmlns="http://www.w3.org/2000/svg" xml:space="preserve" width="640px" height="640px" version="1.1" style="shape-rendering:geometricPrecision; text-rendering:geometricPrecision; image-rendering:optimizeQuality; fill-rule:evenodd; clip-rule:evenodd"
viewBox="0 0 205.12 205.12"
 xmlns:xlink="http://www.w3.org/1999/xlink">
 <defs>
  <style type="text/css">
   <![CDATA[
    .fil2 {fill:none}
    .fil1 {fill:#0A2155}
    .fil0 {fill:#FFC221}
   ]]>
  </style>
 </defs>
 <g id="Layer_x0020_1">
  <metadata id="CorelCorpID_0Corel-Layer"/>
  <g id="_2356616490304">
   <rect class="fil0" x="143.96" y="145.31" width="16.15" height="13.93"/>
   <rect class="fil0" x="143.96" y="117.44" width="16.15" height="13.93"/>
   <rect class="fil0" x="143.96" y="89.58" width="16.15" height="13.93"/>
   <rect class="fil0" x="88.23" y="52.87" width="13.93" height="13.93"/>
   <rect class="fil0" x="116.09" y="52.87" width="13.93" height="13.93"/>
   <rect class="fil0" x="88.23" y="80.74" width="13.93" height="13.93"/>
   <rect class="fil0" x="116.09" y="80.74" width="13.93" height="13.93"/>
   <rect class="fil0" x="88.23" y="108.6" width="13.93" height="13.93"/>
   <rect class="fil0" x="116.09" y="108.6" width="13.93" height="13.93"/>
   <path class="fil1" d="M105.96 170l0 -30.37 -14.57 0 0 30.37 14.57 0zm6.33 -30.37l0 30.37 14.57 0 0 -30.37 -14.57 0zm69.03 -62.46l-34.2 -13.83 0 -31.39c0,-1.75 -1.42,-3.17 -3.16,-3.17l-69.67 0c-1.74,0 -3.16,1.42 -3.16,3.17l0 18.53 -22.35 6.31c-1.37,0.39 -2.31,1.63 -2.31,3.05l0 32.68 -21.49 0c-1.75,0 -3.16,1.41 -3.16,3.16l0 77.49c0,1.75 1.41,3.17 3.16,3.17l84.15 0 71.01 0c1.75,0 3.16,-1.42 3.16,-3.17l0 -93.07c0,-1.29 -0.78,-2.45 -1.98,-2.93zm-128.52 -14.94l18.33 -5.17 0 35.46 -18.33 0 0 -30.29zm-24.65 36.62l42.98 0 0 71.15 -42.98 0 0 -71.15zm49.31 -63.74l63.33 0 0 134.89 -7.6 0 0 -33.53c0,-1.75 -1.42,-3.17 -3.17,-3.17l-41.79 0c-1.75,0 -3.17,1.42 -3.17,3.17l0 33.53 -7.6 0 0 -134.89zm99.51 134.89l-29.85 0 0 -99.83 29.85 12.07 0 87.76z"/>
   <path class="fil0" d="M60.36 116.69l-21.45 0c-1.74,0 -3.16,-1.41 -3.16,-3.16 0,-1.75 1.42,-3.17 3.16,-3.17l21.45 0c1.75,0 3.17,1.42 3.17,3.17 0,1.75 -1.42,3.16 -3.17,3.16z"/>
   <path class="fil0" d="M60.36 130.63l-21.45 0c-1.74,0 -3.16,-1.42 -3.16,-3.17 0,-1.75 1.42,-3.17 3.16,-3.17l21.45 0c1.75,0 3.17,1.42 3.17,3.17 0,1.75 -1.42,3.17 -3.17,3.17z"/>
   <path class="fil0" d="M60.36 144.56l-21.45 0c-1.74,0 -3.16,-1.42 -3.16,-3.17 0,-1.75 1.42,-3.16 3.16,-3.16l21.45 0c1.75,0 3.17,1.41 3.17,3.16 0,1.75 -1.42,3.17 -3.17,3.17z"/>
   <path class="fil0" d="M60.36 158.49l-21.45 0c-1.74,0 -3.16,-1.42 -3.16,-3.16 0,-1.75 1.42,-3.17 3.16,-3.17l21.45 0c1.75,0 3.17,1.42 3.17,3.17 0,1.74 -1.42,3.16 -3.17,3.16z"/>
  </g>
  <rect class="fil2" width="205.12" height="205.12"/>
 </g>
</svg>
