<?xml version="1.0" encoding="UTF-8"?>
<!DOCTYPE svg PUBLIC "-//W3C//DTD SVG 1.1//EN" "http://www.w3.org/Graphics/SVG/1.1/DTD/svg11.dtd">
<!-- Creator: CorelDRAW -->
<svg xmlns="http://www.w3.org/2000/svg" xml:space="preserve" width="640px" height="640px" version="1.1" style="shape-rendering:geometricPrecision; text-rendering:geometricPrecision; image-rendering:optimizeQuality; fill-rule:evenodd; clip-rule:evenodd"
viewBox="0 0 41.91 41.91"
 xmlns:xlink="http://www.w3.org/1999/xlink"
 xmlns:xodm="http://www.corel.com/coreldraw/odm/2003">
 <defs>
  <style type="text/css">
   <![CDATA[
    .fil0 {fill:none}
    .fil1 {fill:#002155;fill-rule:nonzero}
    .fil2 {fill:#FFC221;fill-rule:nonzero}
   ]]>
  </style>
 </defs>
 <g id="Layer_x0020_1">
  <metadata id="CorelCorpID_0Corel-Layer"/>
  <rect class="fil0" width="41.91" height="41.91"/>
 </g>
 <g id="Capa_x0020_1">
  <metadata id="CorelCorpID_1Corel-Layer"/>
  <g id="_2174037417328">
   <g>
    <g>
     <path class="fil1" d="M35.39 14.63l-14.27 -7.12c-0.04,-0.02 -0.08,-0.04 -0.12,-0.04 -0.01,0 -0.01,0 -0.02,0 -0.01,0 -0.02,-0.01 -0.03,-0.01 0,0 -0.01,0.01 -0.02,0.01 -0.01,0 -0.01,0 -0.02,0 -0.04,0 -0.09,0.02 -0.13,0.04l-14.26 7.12c-0.16,0.08 -0.27,0.27 -0.27,0.47l0 11.71c0,0.02 0.01,0.04 0.01,0.07 0,0 0,0.01 0,0.01 0,0.02 0.01,0.04 0.01,0.06 0,0.01 0,0.01 0,0.01 0.01,0.02 0.01,0.04 0.02,0.06 0,0 0.01,0.01 0.01,0.01 0.01,0.02 0.01,0.04 0.02,0.05 0,0.01 0,0.01 0.01,0.01 0.01,0.02 0.02,0.03 0.03,0.05 0,0.01 0.01,0.01 0.01,0.01 0.01,0.02 0.02,0.03 0.03,0.04 0.01,0.01 0.01,0.01 0.01,0.01 0.01,0.01 0.03,0.03 0.04,0.04 0.01,0 0.01,0 0.01,0 0.02,0.02 0.04,0.03 0.06,0.04l14.26 7.12c0.06,0.03 0.12,0.04 0.17,0.04 0.06,0 0.12,-0.01 0.17,-0.04l14.27 -7.12c0.02,-0.01 0.04,-0.02 0.05,-0.04 0.01,0 0.01,0 0.01,0 0.02,-0.01 0.03,-0.03 0.05,-0.04 0,0 0,0 0,-0.01 0.02,-0.01 0.03,-0.02 0.04,-0.04 0,0 0.01,0 0.01,-0.01 0.01,-0.02 0.02,-0.03 0.03,-0.05 0,0 0,0 0,0 0.01,-0.02 0.02,-0.04 0.03,-0.06 0,0 0,-0.01 0,-0.01 0.01,-0.02 0.02,-0.04 0.03,-0.06 0,0 0,0 0,-0.01 0,-0.02 0,-0.04 0.01,-0.06 0,0 0,-0.01 0,-0.01 0,-0.03 0,-0.05 0,-0.07l0 -11.71c0,-0.2 -0.1,-0.39 -0.26,-0.47zm-14.44 18.75l-13.16 -6.57 13.16 -6.58 13.17 6.58 -13.17 6.57zm13.84 -7.34l-13.4 -6.69 0 -2.11c0,-0.28 -0.2,-0.51 -0.44,-0.51 -0.23,0 -0.43,0.23 -0.43,0.51l0 2.11 -13.4 6.69 0 -10.61 13.4 -6.69 0 5.55c0,0.28 0.2,0.5 0.43,0.5 0.24,0 0.44,-0.22 0.44,-0.5l0 -5.55 13.4 6.69 0 10.61z"/>
    </g>
   </g>
   <g>
    <g>
     <path class="fil1" d="M14.86 13.29c-0.12,-0.1 -0.27,-0.12 -0.4,-0.05l-6.33 3.16c-0.16,0.08 -0.26,0.26 -0.26,0.47l0 6.7c0,0.17 0.07,0.33 0.19,0.42 0.07,0.06 0.15,0.09 0.24,0.09 0.05,0 0.11,-0.01 0.16,-0.04l6.33 -3.02c0.16,-0.08 0.27,-0.26 0.27,-0.47l0 -6.84c0,-0.17 -0.08,-0.33 -0.2,-0.42zm-0.67 6.92l-5.46 2.61 0 -5.62 5.46 -2.72 0 5.73z"/>
    </g>
   </g>
   <g>
    <g>
     <path class="fil2" d="M19.64 10.9c-0.12,-0.1 -0.27,-0.11 -0.4,-0.05l-3.21 1.6c-0.16,0.08 -0.26,0.27 -0.26,0.47l0 2.87c0,0.17 0.07,0.33 0.19,0.42 0.08,0.06 0.16,0.09 0.24,0.09 0.06,0 0.12,-0.01 0.17,-0.04l3.21 -1.6c0.15,-0.08 0.26,-0.27 0.26,-0.47l0 -2.87c0,-0.17 -0.07,-0.33 -0.2,-0.42zm-0.67 2.95l-2.34 1.17 0 -1.76 2.34 -1.17 0 1.76z"/>
    </g>
   </g>
   <g>
    <g>
     <path class="fil2" d="M19.64 15.45c-0.12,-0.1 -0.27,-0.11 -0.4,-0.05l-3.21 1.6c-0.16,0.08 -0.26,0.27 -0.26,0.47l0 2.29c0,0.17 0.07,0.33 0.19,0.43 0.08,0.05 0.16,0.08 0.24,0.08 0.06,0 0.12,-0.01 0.17,-0.04l3.21 -1.6c0.15,-0.08 0.26,-0.26 0.26,-0.47l0 -2.29c0,-0.17 -0.07,-0.33 -0.2,-0.42zm-0.67 2.38l-2.34 1.17 0 -1.19 2.34 -1.17 0 1.19z"/>
    </g>
   </g>
   <g>
    <g>
     <path class="fil2" d="M29.69 14.45l-6.66 -3.32c-0.13,-0.07 -0.28,-0.05 -0.4,0.04 -0.12,0.1 -0.2,0.26 -0.2,0.43l0 6.74c0,0.21 0.11,0.39 0.27,0.47l6.65 3.33c0.05,0.02 0.11,0.04 0.17,0.04 0.08,0 0.16,-0.03 0.24,-0.09 0.12,-0.09 0.19,-0.25 0.19,-0.42l0 -6.75c0,-0.2 -0.1,-0.39 -0.26,-0.47zm-0.6 6.45l-5.79 -2.89 0 -5.65 5.79 2.9 0 5.64z"/>
    </g>
   </g>
   <g>
    <g>
     <path class="fil1" d="M33.76 16.48l-2.76 -1.37c-0.13,-0.07 -0.29,-0.05 -0.41,0.04 -0.12,0.1 -0.19,0.25 -0.19,0.42l0 6.75c0,0.21 0.1,0.39 0.26,0.47l2.76 1.38c0.05,0.02 0.11,0.04 0.17,0.04 0.08,0 0.16,-0.03 0.23,-0.09 0.13,-0.09 0.2,-0.25 0.2,-0.42l0 -6.75c0,-0.2 -0.11,-0.39 -0.26,-0.47zm-0.61 6.45l-1.89 -0.94 0 -5.65 1.89 0.95 0 5.64z"/>
    </g>
   </g>
   <g>
    <g>
     <path class="fil1" d="M24.38 24.02c0,0 0,-0.01 0,-0.01 -0.01,-0.03 -0.01,-0.05 -0.01,-0.07 -0.01,0 -0.01,0 -0.01,0 0,-0.02 -0.01,-0.04 -0.02,-0.06 0,-0.01 0,-0.01 0,-0.01 -0.01,-0.02 -0.02,-0.04 -0.03,-0.06 0,0 0,0 0,0 -0.01,-0.02 -0.02,-0.04 -0.03,-0.05 -0.01,-0.01 -0.01,-0.01 -0.01,-0.01 -0.01,-0.02 -0.02,-0.03 -0.04,-0.05 0,0 0,0 0,0 -0.02,-0.01 -0.03,-0.03 -0.05,-0.04 0,0 0,0 -0.01,-0.01 -0.02,-0.01 -0.03,-0.02 -0.05,-0.03l-3 -1.49c-0.11,-0.06 -0.23,-0.06 -0.34,0l-2.99 1.49c-0.02,0.01 -0.04,0.02 -0.05,0.03 -0.01,0.01 -0.01,0.01 -0.01,0.01 -0.02,0.01 -0.04,0.03 -0.05,0.04 0,0 0,0 0,0 -0.02,0.02 -0.03,0.03 -0.04,0.05 0,0 -0.01,0 -0.01,0.01 -0.01,0.01 -0.02,0.03 -0.03,0.05 0,0 -0.01,0 -0.01,0 -0.01,0.02 -0.01,0.04 -0.02,0.06 0,0 0,0 -0.01,0.01 0,0.02 -0.01,0.04 -0.02,0.06 0,0 0,0 0,0 0,0.02 -0.01,0.04 -0.01,0.07 0,0 0,0.01 0,0.01 0,0.02 -0.01,0.05 -0.01,0.07l0 2.72c0,0.2 0.11,0.39 0.27,0.47l2.99 1.49c0.04,0.02 0.09,0.04 0.13,0.04 0.02,0 0.03,0 0.04,0 0.02,0 0.03,0 0.05,0 0.04,0 0.08,-0.02 0.12,-0.04l3 -1.49c0.16,-0.08 0.26,-0.27 0.26,-0.47l0 -2.72c0,-0.02 0,-0.05 0,-0.07zm-3.86 3.52l-2.13 -1.07 0 -1.61 2.13 1.06 0 1.62zm0.43 -2.5l-1.89 -0.95 1.89 -0.95 1.9 0.95 -1.9 0.95zm2.57 1.43l-2.13 1.07 0 -1.62 2.13 -1.06 0 1.61z"/>
    </g>
   </g>
  </g>
 </g>
</svg>
