<?xml version="1.0" encoding="UTF-8"?>
<!DOCTYPE svg PUBLIC "-//W3C//DTD SVG 1.1//EN" "http://www.w3.org/Graphics/SVG/1.1/DTD/svg11.dtd">
<!-- Creator: CorelDRAW 2019 (64-Bit) -->
<svg xmlns="http://www.w3.org/2000/svg" xml:space="preserve" width="640px" height="640px" version="1.1" style="shape-rendering:geometricPrecision; text-rendering:geometricPrecision; image-rendering:optimizeQuality; fill-rule:evenodd; clip-rule:evenodd"
viewBox="0 0 46.44 46.44"
 xmlns:xlink="http://www.w3.org/1999/xlink">
 <defs>
  <style type="text/css">
   <![CDATA[
    .str1 {stroke:#0A2155;stroke-width:1.29;stroke-linecap:round;stroke-linejoin:round;stroke-miterlimit:22.9256}
    .str0 {stroke:#FFC221;stroke-width:1.29;stroke-linecap:round;stroke-linejoin:round;stroke-miterlimit:22.9256}
    .fil0 {fill:none}
    .fil1 {fill:#0A2155}
   ]]>
  </style>
 </defs>
 <g id="Layer_x0020_1">
  <metadata id="CorelCorpID_0Corel-Layer"/>
  <rect class="fil0" width="46.44" height="46.44"/>
  <path class="fil1" d="M3.95 43.42l38.53 0c2.31,0.02 3.99,-2.02 3.95,-4.32l0 -8.24c-0.01,-0.5 -0.41,-0.9 -0.91,-0.9 0,0 0,0 0,0 -0.5,0 -0.91,0.4 -0.91,0.91l0 8.23c0.02,1.33 -0.8,2.5 -2.13,2.5l-38.53 0c-1.26,0 -2.14,-1.02 -2.14,-2.5l0 -24.83 42.8 0 0 8.62c0,0.5 0.41,0.9 0.91,0.9l0 0c0.5,0 0.9,-0.4 0.9,-0.9l0 -15.41c0.02,-1.8 -2.02,-3.96 -3.95,-3.87l-1.94 0 0 -0.78c0,-1.56 -1.27,-2.83 -2.84,-2.83 -1.56,0 -2.84,1.27 -2.84,2.83l0 0.78 -3.84 0 0 -0.78c0,-1.56 -1.27,-2.83 -2.84,-2.83 -1.57,0 -2.84,1.27 -2.84,2.83l0 0.78 -3.84 0 0 -0.78c0,-1.56 -1.27,-2.83 -2.84,-2.83 -1.57,0 -2.84,1.27 -2.84,2.83l0 0.78 -3.84 0 0 -0.78c0,-1.56 -1.28,-2.83 -2.85,-2.83 -1.56,0 -2.83,1.27 -2.83,2.83l0 0.78 -2.34 0c-2.1,0 -3.95,1.95 -3.95,3.86l0 5.89 0 25.74c0,2.46 1.7,4.32 3.95,4.32zm33.75 -41.61c0.56,0 1.02,0.46 1.02,1.02l0 1.69 0 1.89c0,0.57 -0.47,1.03 -1.02,1.03 -0.56,0 -1.03,-0.46 -1.03,-1.03l0 -1.89c0,0 0,-0.01 0,-0.01l0 -1.68c0,-0.56 0.46,-1.02 1.03,-1.02zm-10.55 1.02c0,-0.56 0.45,-1.02 1.02,-1.02 0.57,0 1.02,0.46 1.02,1.02l0 3.58c0.01,0.57 -0.47,1.03 -1.02,1.03 -0.56,0 -1.03,-0.47 -1.02,-1.02l0 -3.59zm-9.52 0c0,-0.56 0.45,-1.02 1.02,-1.02 0.57,0 1.02,0.46 1.02,1.02l0 3.59c0,0.56 -0.46,1.02 -1.02,1.02 -0.55,0.01 -1.03,-0.47 -1.02,-1.02l0 -3.59zm-9.53 0c0,-0.56 0.46,-1.02 1.03,-1.02 0.56,0 1.02,0.46 1.02,1.02l0 3.59c0.01,0.55 -0.47,1.03 -1.03,1.02 -0.55,0 -1.02,-0.47 -1.02,-1.02l0 -3.59zm-6.29 4.64c0.01,-0.96 1.2,-2.06 2.14,-2.04l2.34 0 0 0.98c-0.01,1.56 1.29,2.85 2.84,2.84 1.55,0.01 2.85,-1.28 2.84,-2.84l0 -0.98 3.84 0 0 0.98c-0.01,1.55 1.28,2.86 2.84,2.84 1.55,0.01 2.85,-1.28 2.84,-2.84l0 -0.98 3.84 0 0 0.98c-0.01,1.55 1.29,2.86 2.84,2.84 1.55,0.01 2.84,-1.27 2.84,-2.84l0 -0.98 3.84 0 0 0.99c0,1.56 1.29,2.84 2.84,2.83 1.55,0.01 2.85,-1.27 2.84,-2.84l0 -0.98 1.94 0c0.98,-0.04 2.03,1.11 2.13,2.04l0 4.99 -42.79 0 0 -4.99z"/>
  <path class="fil1" d="M46.36 26.51c-0.02,-0.06 -0.05,-0.11 -0.08,-0.16 -0.33,-0.53 -1.18,-0.53 -1.51,0 -0.36,0.51 -0.04,1.29 0.58,1.39 0.69,0.15 1.3,-0.58 1.01,-1.23z"/>
 </g>
 <g id="Layer_x0020_3">
  <metadata id="CorelCorpID_1Corel-Layer"/>
  <rect class="fil0 str0" x="5.72" y="16.79" width="5.8" height="4.19"/>
  <rect class="fil0 str0" x="5.72" y="24.8" width="5.8" height="4.19"/>
  <rect class="fil0 str0" x="5.72" y="32.81" width="5.8" height="4.19"/>
  <rect class="fil0 str1" x="15.67" y="16.79" width="5.8" height="4.19"/>
  <rect class="fil0 str1" x="15.67" y="24.8" width="5.8" height="4.19"/>
  <rect class="fil0 str1" x="15.67" y="32.81" width="5.8" height="4.19"/>
  <rect class="fil0 str1" x="25.63" y="16.79" width="5.8" height="4.19"/>
  <rect class="fil0 str0" x="25.63" y="24.8" width="5.8" height="4.19"/>
  <rect class="fil0 str1" x="25.63" y="32.81" width="5.8" height="4.19"/>
  <rect class="fil0 str1" x="35.58" y="16.79" width="5.8" height="4.19"/>
  <rect class="fil0 str1" x="35.58" y="24.8" width="5.8" height="4.19"/>
  <rect class="fil0 str1" x="35.58" y="32.81" width="5.8" height="4.19"/>
 </g>
</svg>
