<?xml version="1.0" encoding="UTF-8"?>
<!DOCTYPE svg PUBLIC "-//W3C//DTD SVG 1.1//EN" "http://www.w3.org/Graphics/SVG/1.1/DTD/svg11.dtd">
<!-- Creator: CorelDRAW 2019 (64-Bit) -->
<svg xmlns="http://www.w3.org/2000/svg" xml:space="preserve" width="640px" height="640px" version="1.1" style="shape-rendering:geometricPrecision; text-rendering:geometricPrecision; image-rendering:optimizeQuality; fill-rule:evenodd; clip-rule:evenodd"
viewBox="0 0 58.3 58.3"
 xmlns:xlink="http://www.w3.org/1999/xlink">
 <defs>
  <style type="text/css">
   <![CDATA[
    .fil0 {fill:none}
    .fil1 {fill:#0A2155}
    .fil2 {fill:#FFC221}
   ]]>
  </style>
 </defs>
 <g id="Layer_x0020_1">
  <metadata id="CorelCorpID_0Corel-Layer"/>
  <rect class="fil0" width="58.3" height="58.3"/>
  <g id="_1926474520256">
   <g id="XMLID_739_">
    <g>
     <path class="fil1" d="M14.57 21.96c-0.53,0 -0.97,-0.44 -0.97,-0.97l0 -3.52c0,-0.31 0.14,-0.59 0.39,-0.78 0.99,-0.75 1.56,-1.87 1.56,-3.09l0 -2.91c0,-2.15 -1.75,-3.89 -3.89,-3.89 -2.14,0 -3.89,1.74 -3.89,3.89l0 2.91c0,1.22 0.57,2.34 1.56,3.09 0.24,0.19 0.39,0.48 0.39,0.78l0 3.52c0,0.54 -0.44,0.97 -0.98,0.97 -0.53,0 -0.97,-0.44 -0.97,-0.97l0 -3.06c-1.24,-1.11 -1.94,-2.66 -1.94,-4.33l0 -2.91c0,-3.22 2.62,-5.83 5.83,-5.83 3.21,0 5.83,2.61 5.83,5.83l0 2.91c0,1.67 -0.7,3.22 -1.94,4.33l0 3.06c0,0.53 -0.44,0.97 -0.98,0.97l0 0z"/>
    </g>
   </g>
   <g id="XMLID_737_">
    <g>
     <path class="fil1" d="M12.64 19.34c-0.45,0 -0.86,-0.32 -0.95,-0.78 -0.11,-0.53 0.23,-1.04 0.75,-1.15 1.8,-0.37 3.11,-1.97 3.11,-3.81 0,-0.53 0.43,-0.97 0.97,-0.97 0.53,0 0.97,0.44 0.97,0.97 0,2.76 -1.96,5.16 -4.66,5.71 -0.06,0.02 -0.13,0.03 -0.19,0.03z"/>
    </g>
   </g>
   <g id="XMLID_735_">
    <g>
     <path class="fil1" d="M18.22 23.48c-0.13,0 -0.26,-0.02 -0.39,-0.08l-3.64 -1.56c-0.49,-0.21 -0.72,-0.78 -0.51,-1.28 0.21,-0.49 0.78,-0.72 1.28,-0.51l3.64 1.57c0.49,0.21 0.72,0.78 0.51,1.27 -0.16,0.37 -0.52,0.59 -0.89,0.59z"/>
    </g>
   </g>
   <g id="XMLID_721_">
    <g>
     <path class="fil1" d="M5.83 35.25c-0.13,0 -0.27,-0.03 -0.4,-0.09l-3.72 -1.69c-1.04,-0.48 -1.71,-1.52 -1.71,-2.66l0 -2.69c0,-2.72 1.61,-5.17 4.11,-6.24l4.25 -1.84c0.5,-0.22 1.06,0.01 1.28,0.5 0.21,0.49 -0.02,1.07 -0.51,1.28l-4.25 1.85c-1.79,0.76 -2.94,2.51 -2.94,4.45l0 2.69c0,0.38 0.23,0.73 0.57,0.89l3.72 1.69c0.49,0.22 0.71,0.8 0.48,1.29 -0.16,0.35 -0.51,0.57 -0.88,0.57l0 0z"/>
    </g>
   </g>
   <g id="XMLID_5197_">
    <g>
     <path class="fil1" d="M15.43 12.46c-1.94,0 -3.79,-0.67 -5.35,-1.93 -0.42,-0.34 -0.48,-0.95 -0.15,-1.37 0.34,-0.41 0.95,-0.48 1.37,-0.14 1.24,1 2.72,1.55 4.24,1.49 -0.09,-2.06 -1.8,-3.71 -3.88,-3.71 -2.14,0 -3.89,1.74 -3.89,3.89l0 0.72c0,0.53 -0.43,0.97 -0.97,0.97 -0.53,0 -0.97,-0.43 -0.97,-0.97l0 -0.72c0,-3.22 2.62,-5.83 5.83,-5.83 3.21,0 5.83,2.61 5.83,5.83l0 0.68c0,0.48 -0.35,0.88 -0.82,0.96 -0.45,0.07 -0.84,0.13 -1.24,0.13l0 0z"/>
    </g>
   </g>
   <g id="XMLID_5195_">
    <g>
     <path class="fil1" d="M49.55 21.96c-0.53,0 -0.97,-0.44 -0.97,-0.97l0 -3.52c0,-0.31 0.14,-0.59 0.39,-0.78 0.99,-0.75 1.56,-1.87 1.56,-3.09l0 -2.91c0,-2.15 -1.75,-3.89 -3.89,-3.89 -2.14,0 -3.89,1.74 -3.89,3.89l0 2.91c0,1.22 0.57,2.34 1.56,3.09 0.24,0.19 0.39,0.48 0.39,0.78l0 3.52c0,0.54 -0.44,0.97 -0.98,0.97 -0.53,0 -0.97,-0.43 -0.97,-0.97l0 -3.06c-1.24,-1.11 -1.94,-2.66 -1.94,-4.32l0 -2.92c0,-3.21 2.61,-5.83 5.83,-5.83 3.21,0 5.83,2.62 5.83,5.83l0 2.92c0,1.66 -0.7,3.21 -1.94,4.32l0 3.06c0,0.53 -0.44,0.97 -0.98,0.97l0 0z"/>
    </g>
   </g>
   <g id="XMLID_5194_">
    <g>
     <path class="fil1" d="M47.62 19.34c-0.45,0 -0.86,-0.32 -0.95,-0.78 -0.11,-0.53 0.23,-1.04 0.75,-1.15 1.8,-0.37 3.11,-1.97 3.11,-3.81 0,-0.53 0.43,-0.97 0.97,-0.97 0.53,0 0.97,0.44 0.97,0.97 0,2.76 -1.96,5.16 -4.66,5.71 -0.06,0.02 -0.13,0.03 -0.19,0.03z"/>
    </g>
   </g>
   <g id="XMLID_730_">
    <g>
     <path class="fil1" d="M40.37 23.36c-0.38,0 -0.74,-0.22 -0.89,-0.59 -0.22,-0.49 0.01,-1.06 0.51,-1.28l3.35 -1.44c0.49,-0.2 1.06,0.02 1.28,0.51 0.21,0.49 -0.02,1.07 -0.51,1.28l-3.36 1.44c-0.12,0.06 -0.25,0.08 -0.38,0.08z"/>
    </g>
   </g>
   <g id="XMLID_715_">
    <g>
     <path class="fil1" d="M52.47 35.25c-0.37,0 -0.72,-0.22 -0.89,-0.57 -0.22,-0.49 0,-1.07 0.49,-1.29l3.72 -1.69c0.34,-0.16 0.57,-0.51 0.57,-0.89l0 -2.69c0,-1.94 -1.15,-3.69 -2.93,-4.45l-4.26 -1.85c-0.49,-0.21 -0.72,-0.79 -0.51,-1.28 0.22,-0.49 0.78,-0.72 1.28,-0.5l4.25 1.84c2.5,1.07 4.11,3.52 4.11,6.24l0 2.69c0,1.14 -0.67,2.18 -1.71,2.66l-3.72 1.69c-0.13,0.06 -0.27,0.09 -0.4,0.09l0 0z"/>
    </g>
   </g>
   <g id="XMLID_724_">
    <g>
     <path class="fil2" d="M31.7 9.55c-2.77,0 -5.64,-0.97 -7.23,-2.4 -0.4,-0.36 -0.43,-0.97 -0.07,-1.37 0.36,-0.4 0.98,-0.43 1.37,-0.07 1.91,1.72 6.5,2.62 9.13,1.21 0.48,-0.25 1.07,-0.08 1.32,0.4 0.25,0.47 0.07,1.06 -0.4,1.31 -1.2,0.64 -2.64,0.92 -4.12,0.92l0 0z"/>
    </g>
   </g>
   <g id="XMLID_710_">
    <g id="XMLID_712_">
     <g>
      <path class="fil2" d="M29.14 27.21c-3.23,0 -4.91,-2.52 -5.35,-3.85 -0.17,-0.51 0.11,-1.06 0.62,-1.23 0.51,-0.16 1.05,0.11 1.22,0.62 0.04,0.11 0.91,2.51 3.51,2.51 2.62,0 3.54,-2.47 3.58,-2.58 0.18,-0.5 0.75,-0.76 1.24,-0.58 0.5,0.18 0.77,0.73 0.59,1.23 -0.05,0.16 -1.4,3.88 -5.41,3.88l0 0z"/>
     </g>
    </g>
    <g id="XMLID_726_">
     <g>
      <path class="fil2" d="M47.61 34.98c-0.54,0 -0.97,-0.44 -0.97,-0.97l0 -0.54c0,-2.89 -1.82,-5.46 -4.52,-6.41l-8.11 -2.88c-1.16,-0.41 -1.95,-1.51 -1.95,-2.74l0 -2.39c0,-0.54 0.44,-0.98 0.98,-0.98 0.53,0 0.97,0.44 0.97,0.98l0 2.39c0,0.4 0.26,0.77 0.65,0.91l8.11 2.87c3.47,1.23 5.81,4.54 5.81,8.25l0 0.54c0,0.54 -0.43,0.97 -0.97,0.97l0 0z"/>
     </g>
    </g>
    <g id="XMLID_725_">
     <g>
      <path class="fil2" d="M10.69 34.98c-0.54,0 -0.97,-0.44 -0.97,-0.97l0 -0.53c0,-0.6 0.06,-1.21 0.19,-1.81 0.62,-2.96 2.79,-5.43 5.64,-6.45l8.09 -2.84c0.39,-0.13 0.65,-0.5 0.65,-0.91l0 -2.43c0,-0.53 0.44,-0.97 0.97,-0.97 0.54,0 0.97,0.44 0.97,0.97l0 2.43c0,1.24 -0.78,2.34 -1.95,2.75l-8.08 2.83c-2.22,0.8 -3.9,2.72 -4.39,5.02 -0.1,0.47 -0.15,0.94 -0.15,1.41l0 0.53c0,0.54 -0.44,0.97 -0.97,0.97l0 0z"/>
     </g>
    </g>
    <g id="XMLID_706_">
     <g>
      <path class="fil2" d="M29.15 21.38c-0.54,0 -0.97,-0.44 -0.97,-0.98 0,-0.53 0.43,-0.97 0.97,-0.97 2.02,0 5.83,-1.82 5.83,-8.74l0 -2.92c0,-3.21 -2.62,-5.83 -5.83,-5.83 -3.21,0 -5.83,2.62 -5.83,5.83l0 2.92c0,3.35 0.9,5.91 2.59,7.41 0.4,0.36 0.44,0.97 0.08,1.37 -0.36,0.41 -0.97,0.44 -1.37,0.09 -1.48,-1.31 -3.24,-3.91 -3.24,-8.87l0 -2.92c0,-4.28 3.48,-7.77 7.77,-7.77 4.29,0 7.77,3.49 7.77,7.77l0 2.92c0,8.45 -5.08,10.69 -7.77,10.69l0 0z"/>
     </g>
    </g>
   </g>
   <g id="XMLID_1069_">
    <g id="XMLID_908_">
     <g>
      <path class="fil1" d="M43.95 52.47c-0.35,0 -0.7,-0.2 -0.87,-0.54 -0.23,-0.48 -0.04,-1.06 0.44,-1.3l4.81 -2.38c0.27,-0.14 0.59,-0.14 0.86,0l3.14 1.55 -0.51 -3.46c-0.04,-0.3 0.05,-0.61 0.27,-0.82l2.45 -2.51 -3.46 -0.59c-0.29,-0.05 -0.55,-0.24 -0.69,-0.51l-1.63 -3.1 -1.63 3.1c-0.14,0.27 -0.4,0.46 -0.69,0.51l-3.46 0.59 2.45 2.51c0.38,0.38 0.37,0.99 -0.01,1.37 -0.39,0.38 -1,0.37 -1.38,-0.02l-3.75 -3.83c-0.25,-0.26 -0.34,-0.64 -0.23,-0.98 0.12,-0.34 0.41,-0.6 0.77,-0.66l4.81 -0.82 2.26 -4.32c0.17,-0.32 0.5,-0.52 0.86,-0.52 0.37,0 0.69,0.2 0.86,0.52l2.27 4.32 4.81 0.82c0.36,0.06 0.65,0.32 0.76,0.66 0.11,0.34 0.02,0.72 -0.23,0.98l-3.41 3.49 0.71 4.83c0.05,0.35 -0.1,0.71 -0.39,0.92 -0.29,0.22 -0.68,0.25 -1,0.09l-4.38 -2.17 -4.37 2.17c-0.14,0.07 -0.29,0.1 -0.44,0.1l0 0z"/>
     </g>
    </g>
    <g id="XMLID_1071_">
     <g>
      <path class="fil2" d="M23.47 57.76c-0.2,0 -0.41,-0.07 -0.57,-0.19 -0.3,-0.21 -0.45,-0.57 -0.39,-0.93l0.85 -5.79 -4.1 -4.19c-0.25,-0.26 -0.34,-0.64 -0.23,-0.98 0.11,-0.35 0.4,-0.6 0.76,-0.66l5.78 -0.98 2.72 -5.19c0.34,-0.64 1.38,-0.64 1.72,0l2.72 5.19 5.78 0.98c0.36,0.06 0.65,0.32 0.76,0.66 0.11,0.34 0.02,0.72 -0.23,0.98l-4.1 4.19 0.86 5.79c0.05,0.36 -0.1,0.72 -0.4,0.93 -0.29,0.22 -0.68,0.25 -1,0.08l-5.25 -2.6 -5.25 2.6c-0.14,0.07 -0.29,0.11 -0.43,0.11zm-1.52 -11.14l3.13 3.21c0.21,0.22 0.31,0.52 0.27,0.82l-0.65 4.44 4.02 -1.99c0.27,-0.14 0.59,-0.14 0.86,0l4.02 1.99 -0.66 -4.44c-0.04,-0.3 0.06,-0.6 0.27,-0.82l3.14 -3.21 -4.42 -0.75c-0.3,-0.05 -0.56,-0.24 -0.7,-0.51l-2.08 -3.97 -2.08 3.97c-0.14,0.27 -0.4,0.46 -0.7,0.51l-4.42 0.75z"/>
     </g>
    </g>
    <g id="XMLID_760_">
     <g>
      <path class="fil1" d="M14.5 52.47c-0.14,0 -0.29,-0.03 -0.43,-0.1l-4.37 -2.17 -4.38 2.17c-0.32,0.16 -0.7,0.13 -1,-0.09 -0.29,-0.21 -0.44,-0.57 -0.39,-0.92l0.71 -4.83 -3.41 -3.49c-0.25,-0.26 -0.34,-0.63 -0.23,-0.98 0.11,-0.34 0.4,-0.6 0.76,-0.65l4.81 -0.82 2.27 -4.33c0.17,-0.32 0.5,-0.52 0.86,-0.52 0.36,0 0.69,0.21 0.86,0.52l2.26 4.33 4.81 0.82c0.36,0.06 0.65,0.31 0.77,0.65 0.11,0.34 0.02,0.72 -0.23,0.98l-3.75 3.83c-0.37,0.39 -0.99,0.4 -1.38,0.02 -0.38,-0.38 -0.39,-0.99 -0.01,-1.37l2.45 -2.51 -3.46 -0.59c-0.3,-0.05 -0.55,-0.24 -0.69,-0.51l-1.63 -3.1 -1.63 3.1c-0.14,0.27 -0.4,0.46 -0.69,0.51l-3.46 0.59 2.45 2.51c0.21,0.21 0.31,0.52 0.27,0.82l-0.51 3.46 3.14 -1.55c0.27,-0.14 0.59,-0.14 0.86,0l4.81 2.38c0.48,0.24 0.67,0.82 0.44,1.3 -0.18,0.34 -0.52,0.54 -0.88,0.54l0 0z"/>
     </g>
    </g>
   </g>
  </g>
 </g>
</svg>
