<?xml version="1.0" encoding="UTF-8"?>
<!DOCTYPE svg PUBLIC "-//W3C//DTD SVG 1.1//EN" "http://www.w3.org/Graphics/SVG/1.1/DTD/svg11.dtd">
<!-- Creator: CorelDRAW 2019 (64-Bit) -->
<svg xmlns="http://www.w3.org/2000/svg" xml:space="preserve" width="640px" height="640px" version="1.1" style="shape-rendering:geometricPrecision; text-rendering:geometricPrecision; image-rendering:optimizeQuality; fill-rule:evenodd; clip-rule:evenodd"
viewBox="0 0 214.04 214.04"
 xmlns:xlink="http://www.w3.org/1999/xlink">
 <defs>
  <style type="text/css">
   <![CDATA[
    .fil0 {fill:none}
    .fil1 {fill:#3BACC3}
   ]]>
  </style>
 </defs>
 <g id="Layer_x0020_1">
  <metadata id="CorelCorpID_0Corel-Layer"/>
  <rect class="fil0" width="214.04" height="214.04"/>
 </g>
 <g id="Layer_x0020_1_0">
  <metadata id="CorelCorpID_1Corel-Layer"/>
  <path class="fil1" d="M68.64 140.41c37.86,44.83 94.15,17.68 96.18,17.84 2.79,0.23 0.5,2.51 5.97,0.58 6.29,-2.21 1.69,-1.93 5.38,-4.23 2.36,-1.46 3.34,-0.5 5.93,-3.27 -0.19,-2.86 -3.11,-6.97 -4.92,-8.75l-8.61 1.45c-5.05,0.89 -3.94,1.57 -5.26,3.99 -26.63,2.6 -43.02,-12.91 -51.21,-29.48l-43.46 21.87zm-16.39 -23.99c1.28,5.02 8.01,14.57 11.06,17.64l45.24 -22.83 -5.05 -17.54 -51.25 22.73zm-20.31 -40.63c-0.05,3.05 3.65,11.37 6.64,12.75l1.68 0.53c0.13,0.04 0.39,0.07 0.58,0.14l6.99 20.09c6.14,-1.26 20.82,-8.89 27.43,-11.78 8.24,-3.6 18.77,-9.18 26.72,-11.86l-3.17 -37.79c-3.87,-1.19 -28.85,10.75 -33.92,12.98 -7.89,3.46 -27.09,10.36 -32.95,14.94z"/>
 </g>
</svg>
