<?xml version="1.0" encoding="UTF-8"?>
<!DOCTYPE svg PUBLIC "-//W3C//DTD SVG 1.1//EN" "http://www.w3.org/Graphics/SVG/1.1/DTD/svg11.dtd">
<!-- Creator: CorelDRAW 2019 (64-Bit) -->
<svg xmlns="http://www.w3.org/2000/svg" xml:space="preserve" width="640px" height="640px" version="1.1" style="shape-rendering:geometricPrecision; text-rendering:geometricPrecision; image-rendering:optimizeQuality; fill-rule:evenodd; clip-rule:evenodd"
viewBox="0 0 40.21 40.21"
 xmlns:xlink="http://www.w3.org/1999/xlink">
 <defs>
  <style type="text/css">
   <![CDATA[
    .fil2 {fill:none}
    .fil1 {fill:#0A2155;fill-rule:nonzero}
    .fil0 {fill:#FFC221;fill-rule:nonzero}
   ]]>
  </style>
 </defs>
 <g id="Layer_x0020_3">
  <metadata id="CorelCorpID_0Corel-Layer"/>
  <g id="front-end-programming.eps">
   <path class="fil0" d="M24.79 34.24l-9.38 0c-0.56,0 -1.07,-0.28 -1.36,-0.76 -0.29,-0.46 -0.31,-1.03 -0.06,-1.52l1.9 -3.72c0.09,-0.17 0.27,-0.28 0.47,-0.28l7.48 0c0.2,0 0.38,0.11 0.47,0.28l1.9 3.72c0.25,0.49 0.22,1.06 -0.06,1.52 -0.29,0.48 -0.8,0.76 -1.37,0.76l0.01 0zm-8.11 -5.24l-1.75 3.44c-0.12,0.23 -0.03,0.42 0.02,0.5 0.04,0.08 0.19,0.25 0.47,0.25l9.37 0c0.29,0 0.43,-0.18 0.48,-0.25 0.04,-0.08 0.13,-0.27 0.02,-0.5l-1.75 -3.44 -6.86 0z"/>
   <path class="fil1" d="M19.58 15.92l-11.52 0c-0.57,0 -1.04,-0.48 -1.04,-1.05l0 -5.24c0,-0.57 0.47,-1.04 1.04,-1.04l11.52 0c0.58,0 1.05,0.47 1.05,1.04l0 5.24c0,0.57 -0.47,1.05 -1.05,1.05zm-11.52 -6.29l0 5.24 11.52 0 0 -5.24 -11.52 0z"/>
   <path class="fil1" d="M12.25 23.25l-4.19 0c-0.57,0 -1.04,-0.48 -1.04,-1.05l0 -4.19c0,-0.57 0.47,-1.05 1.04,-1.05l4.19 0c0.58,0 1.05,0.48 1.05,1.05l0 4.19c0,0.57 -0.47,1.05 -1.05,1.05zm-4.19 -5.24l0 4.19 4.19 0 0 -4.19 -4.19 0z"/>
   <path class="fil1" d="M19.58 23.25l-4.19 0c-0.57,0 -1.04,-0.48 -1.04,-1.05l0 -4.19c0,-0.57 0.47,-1.05 1.04,-1.05l4.19 0c0.58,0 1.05,0.48 1.05,1.05l0 4.19c0,0.57 -0.47,1.05 -1.05,1.05zm-4.19 -5.24l0 4.19 4.19 0 0 -4.19 -4.19 0z"/>
   <path class="fil0" d="M32.67 23.25l-7.85 0c-0.29,0 -0.53,-0.24 -0.53,-0.53 0,-0.29 0.24,-0.52 0.53,-0.52l7.85 0c0.29,0 0.52,0.23 0.52,0.52 0,0.29 -0.23,0.53 -0.52,0.53z"/>
   <path class="fil0" d="M32.67 20.63l-7.85 0c-0.29,0 -0.53,-0.24 -0.53,-0.53 0,-0.28 0.24,-0.52 0.53,-0.52l7.85 0c0.29,0 0.52,0.24 0.52,0.52 0,0.29 -0.23,0.53 -0.52,0.53z"/>
   <path class="fil0" d="M32.67 18.01l-7.85 0c-0.29,0 -0.53,-0.23 -0.53,-0.52 0,-0.29 0.24,-0.53 0.53,-0.53l7.85 0c0.29,0 0.52,0.24 0.52,0.53 0,0.29 -0.23,0.52 -0.52,0.52z"/>
   <path class="fil1" d="M33.19 5.97l-26.17 0c-1.45,0 -2.62,1.17 -2.62,2.62l0 17.8c0,1.44 1.17,2.61 2.62,2.61l26.17 0c1.45,0 2.62,-1.17 2.62,-2.61l0 -17.8c0,-1.45 -1.17,-2.62 -2.62,-2.62zm1.57 2.62l0 16.23 -12.04 0 0 -17.8 10.47 0c0.87,0 1.57,0.7 1.57,1.57zm-27.74 -1.57l14.66 0 0 17.8 -16.23 0 0 -16.23c0,-0.87 0.7,-1.57 1.57,-1.57zm27.74 19.37c0,0.86 -0.7,1.57 -1.57,1.57l-26.17 0c-0.87,0 -1.57,-0.71 -1.57,-1.57l0 -0.53 29.31 0 0 0.53z"/>
   <path class="fil0" d="M31.1 14.35c-0.11,0 -0.22,-0.04 -0.31,-0.11 -0.24,-0.17 -0.28,-0.5 -0.11,-0.73l1.34 -1.78 -1.34 -1.78c-0.17,-0.23 -0.13,-0.56 0.11,-0.74 0.22,-0.17 0.55,-0.12 0.73,0.11l1.57 2.09c0.14,0.19 0.14,0.44 0,0.63l-1.57 2.1c-0.11,0.13 -0.26,0.21 -0.42,0.21z"/>
   <path class="fil0" d="M25.86 14.35c-0.15,0 -0.31,-0.08 -0.42,-0.21l-1.57 -2.1c-0.14,-0.19 -0.14,-0.44 0,-0.63l1.57 -2.09c0.18,-0.23 0.51,-0.28 0.74,-0.11 0.23,0.18 0.28,0.51 0.1,0.74l-1.33 1.78 1.33 1.78c0.18,0.23 0.13,0.56 -0.1,0.73 -0.1,0.07 -0.21,0.11 -0.32,0.11z"/>
   <path class="fil0" d="M27.96 14.35c-0.04,0 -0.09,0 -0.13,-0.02 -0.28,-0.07 -0.45,-0.36 -0.38,-0.63l1.05 -4.19c0.07,-0.29 0.35,-0.45 0.63,-0.38 0.28,0.06 0.45,0.35 0.38,0.63l-1.04 4.19c-0.06,0.24 -0.28,0.4 -0.51,0.4z"/>
  </g>
 </g>
 <g id="Layer_x0020_1">
  <metadata id="CorelCorpID_1Corel-Layer"/>
  <rect class="fil2" width="40.21" height="40.21"/>
 </g>
</svg>
