<?xml version="1.0" encoding="UTF-8"?>
<!DOCTYPE svg PUBLIC "-//W3C//DTD SVG 1.1//EN" "http://www.w3.org/Graphics/SVG/1.1/DTD/svg11.dtd">
<!-- Creator: CorelDRAW 2019 (64-Bit) -->
<svg xmlns="http://www.w3.org/2000/svg" xml:space="preserve" width="640px" height="640px" version="1.1" style="shape-rendering:geometricPrecision; text-rendering:geometricPrecision; image-rendering:optimizeQuality; fill-rule:evenodd; clip-rule:evenodd"
viewBox="0 0 59.65 59.65"
 xmlns:xlink="http://www.w3.org/1999/xlink">
 <defs>
  <style type="text/css">
   <![CDATA[
    .fil0 {fill:none}
    .fil3 {fill:#0A2155}
    .fil4 {fill:#FFC221}
    .fil2 {fill:#0A2155;fill-rule:nonzero}
    .fil1 {fill:#FFC221;fill-rule:nonzero}
   ]]>
  </style>
 </defs>
 <g id="Layer_x0020_3">
  <metadata id="CorelCorpID_0Corel-Layer"/>
  <rect class="fil0" width="59.65" height="59.65"/>
  <path class="fil1" d="M36.79 50.79l-13.91 0c-0.84,0 -1.59,-0.42 -2.02,-1.12 -0.42,-0.69 -0.46,-1.53 -0.09,-2.25l2.82 -5.53c0.13,-0.25 0.39,-0.42 0.69,-0.42l11.11 0c0.29,0 0.56,0.17 0.69,0.42l2.82 5.53c0.36,0.72 0.33,1.56 -0.09,2.25 -0.43,0.7 -1.18,1.12 -2.03,1.12l0.01 0zm-12.03 -7.76l-2.6 5.09c-0.17,0.34 -0.04,0.63 0.03,0.74 0.07,0.12 0.28,0.38 0.7,0.38l13.91 0c0.42,0 0.63,-0.27 0.7,-0.38 0.06,-0.11 0.2,-0.4 0.03,-0.74l-2.6 -5.09 -10.17 0z"/>
  <path class="fil2" d="M49.26 8.85l-6.54 0 0 1.56 6.54 0c1.28,0 2.33,1.05 2.33,2.33l0 24.07c-14.5,0 -29,0 -43.49,0l0 -24.07c0,-1.28 1.04,-2.33 2.33,-2.33l6.49 0 0 -1.56 -6.49 0c-2.15,0 -3.89,1.74 -3.89,3.89l0 26.4c0,2.15 1.74,3.89 3.89,3.89l38.83 0c2.14,0 3.88,-1.74 3.88,-3.89l0 -26.4c0,-2.15 -1.74,-3.89 -3.88,-3.89zm2.33 30.29c0,1.29 -1.05,2.33 -2.33,2.33l-38.83 0c-1.29,0 -2.33,-1.04 -2.33,-2.33l0 -0.77 43.49 0 0 0.77z"/>
  <g id="_1913911885952">
   <path class="fil3" d="M25.72 20.64l8.2 0c-0.07,0.95 -0.68,1.86 -1.32,2.48 -0.33,0.32 -0.73,0.55 -1.19,0.75 -1.48,0.63 -3.24,0.3 -4.33,-0.71 -0.66,-0.62 -1.22,-1.43 -1.36,-2.52zm13.57 2.98c-0.51,0.97 -0.5,1.36 -1.37,2.51 -0.12,0.15 -0.17,0.17 -0.27,0.33 -0.13,-0.07 -1.48,-0.3 -1.71,-0.3 -0.19,0 -0.51,0.27 -0.65,0.39 -0.93,0.77 -1.52,1.09 -2.66,1.52 -0.31,0.12 -0.47,0.13 -0.63,0.42 -0.11,0.21 -0.52,1.3 -0.54,1.54 -1.7,0.15 -0.93,0.2 -2.76,0.08 -0.83,-0.06 -0.49,-0.32 -1.03,-1.51 -0.3,-0.65 -1.21,-0.45 -3.16,-1.9 -0.79,-0.58 -0.39,-0.76 -2.59,-0.24 -0.14,-0.26 -0.25,-0.37 -0.42,-0.63 -0.17,-0.26 -0.27,-0.41 -0.44,-0.68 -0.38,-0.65 -0.46,-0.98 -0.71,-1.45 0.19,-0.28 0.29,-0.37 0.49,-0.63 0.19,-0.24 0.34,-0.37 0.51,-0.62 0.35,-0.51 -0.03,-0.79 -0.03,-1.81l3.13 0c0.02,0.8 0.52,1.92 1.01,2.57l1.24 1.22c2.7,2.03 7.19,0.93 8.31,-3 0.3,-1.03 -0.39,-0.79 3.31,-0.79 -0.03,0.08 -0.34,1.37 -0.07,1.79 0.09,0.14 0.93,1.12 1.04,1.19zm-20.8 -16.11l22.67 0 0 11.94 -22.67 0 0 -11.94zm-1.2 -0.74l0 13.42c0,0.18 0.27,0.45 0.45,0.45l2.39 0c0,0.48 0.06,0.88 0.15,1.27 -0.21,0.14 -0.17,0.13 -0.33,0.34 -0.88,1.13 -1.29,0.83 -0.25,2.91 0.44,0.86 0.87,1.42 1.43,2.16 0.43,0.57 0.82,0.4 1.78,0.2 0.91,-0.19 0.26,-0.13 2.3,1.08 1.57,0.94 1.2,-0.05 1.82,1.76 0.12,0.33 0.17,0.61 0.45,0.75 0.72,0.35 4.11,0.37 4.74,-0.02 0.53,-0.32 0.43,-1.64 0.99,-1.92 0.83,-0.43 1.64,-0.61 2.67,-1.51 0.8,-0.69 1.83,0.62 2.61,-0.29 0.63,-0.73 2.07,-2.99 2.07,-3.9 0,-0.38 -0.54,-0.82 -0.82,-1.19 -0.14,-0.18 -0.18,-0.24 -0.37,-0.37 0.1,-0.44 0.15,-0.72 0.15,-1.27l2.23 0c0.37,0 0.6,-0.24 0.6,-0.6l0 -13.12c0,-0.36 -0.23,-0.6 -0.6,-0.6l-24.01 0c-0.18,0 -0.45,0.27 -0.45,0.45z"/>
   <path class="fil4" d="M16.1 33.02c0,0.39 0.09,0.74 0.6,0.74l26.25 0c0.8,0 0.8,-1.19 0,-1.19l-26.4 0c-0.18,0 -0.45,0.27 -0.45,0.45z"/>
   <path class="fil4" d="M20.87 13.48c0,0.29 0.24,0.56 0.4,0.73 0.21,0.22 0.31,0.37 0.52,0.59 0.13,0.14 0.11,0.13 0.23,0.29l2.34 2.73c0.72,0.84 1.29,0.31 1.29,-0.16 0,-0.45 -1.29,-1.72 -1.62,-2.11l-1.31 -1.53c-0.12,-0.13 -0.34,-0.41 -0.43,-0.54l1.7 -2.03c0.27,-0.33 0.6,-0.63 0.88,-0.99 0.22,-0.28 0.78,-0.77 0.78,-1.16 0,-0.52 -0.65,-0.97 -1.28,-0.16l-2.58 3.02c-0.26,0.27 -0.92,0.97 -0.92,1.32z"/>
   <path class="fil4" d="M34 9.3c0,0.47 1.18,1.57 1.61,2.12l1.74 2.06c-0.39,0.58 -2.46,2.85 -3.01,3.55 -0.17,0.21 -0.34,0.29 -0.34,0.63 0,0.5 0.36,0.59 0.74,0.59 0.2,0 0.46,-0.33 0.58,-0.46l2.24 -2.61c1.78,-1.92 1.4,-1.68 0.04,-3.29l-2.33 -2.74c-0.65,-0.86 -1.27,-0.33 -1.27,0.15z"/>
   <path class="fil4" d="M26.84 17.51c0,0.38 0.09,0.74 0.6,0.74 0.56,0 1.07,-1.26 1.53,-2.04 0.24,-0.4 0.43,-0.74 0.65,-1.14 0.39,-0.69 3.19,-5.38 3.19,-5.77 0,-0.59 -0.79,-0.9 -1.2,-0.22l-4.77 8.43z"/>
  </g>
 </g>
</svg>
