<?xml version="1.0" encoding="UTF-8"?>
<!DOCTYPE svg PUBLIC "-//W3C//DTD SVG 1.1//EN" "http://www.w3.org/Graphics/SVG/1.1/DTD/svg11.dtd">
<!-- Creator: CorelDRAW -->
<svg xmlns="http://www.w3.org/2000/svg" xml:space="preserve" width="640px" height="640px" version="1.1" style="shape-rendering:geometricPrecision; text-rendering:geometricPrecision; image-rendering:optimizeQuality; fill-rule:evenodd; clip-rule:evenodd"
viewBox="0 0 35.08 35.08"
 xmlns:xlink="http://www.w3.org/1999/xlink"
 xmlns:xodm="http://www.corel.com/coreldraw/odm/2003">
 <defs>
  <style type="text/css">
   <![CDATA[
    .fil0 {fill:none}
    .fil2 {fill:#002155;fill-rule:nonzero}
    .fil1 {fill:#FFC221;fill-rule:nonzero}
   ]]>
  </style>
 </defs>
 <g id="Layer_x0020_1">
  <metadata id="CorelCorpID_0Corel-Layer"/>
  <rect class="fil0" width="35.08" height="35.08"/>
  <g id="_2172243609728">
   <path class="fil1" d="M12.07 12.72c-0.07,-0.18 -0.24,-0.29 -0.44,-0.3 0,0 0,0 0,0 -0.19,0 -0.36,0.12 -0.44,0.3 0,0 0,0 0,0.01l-1.92 5.03c-0.07,0.18 0.02,0.39 0.21,0.46 0.18,0.07 0.39,-0.02 0.46,-0.21l0.39 -1.02 2.59 0 0.38 1.02c0.06,0.15 0.2,0.23 0.34,0.23 0.04,0 0.09,0 0.13,-0.02 0.18,-0.07 0.28,-0.28 0.21,-0.46l-1.9 -5.03c0,0 -0.01,-0.01 -0.01,-0.01l0 0zm-1.46 3.55l1.02 -2.68 1.02 2.68 -2.04 0z"/>
   <path class="fil1" d="M21.8 18.21c0.7,0 1.31,-0.46 1.42,-1.07 0.08,-0.47 -0.14,-1.07 -0.99,-1.39 -0.45,-0.16 -0.87,-0.34 -0.99,-0.39 -0.09,-0.08 -0.14,-0.2 -0.12,-0.32 0.01,-0.08 0.06,-0.28 0.34,-0.36 0.55,-0.16 1.05,0.24 1.07,0.25 0.15,0.12 0.37,0.1 0.5,-0.05 0.13,-0.15 0.11,-0.38 -0.04,-0.51 -0.03,-0.03 -0.8,-0.66 -1.74,-0.38 -0.46,0.14 -0.78,0.5 -0.85,0.94 -0.06,0.42 0.12,0.82 0.47,1.04 0.02,0.01 0.03,0.02 0.05,0.03 0.02,0.01 0.51,0.23 1.06,0.43 0.38,0.14 0.57,0.35 0.53,0.58 -0.04,0.23 -0.32,0.48 -0.71,0.48 -0.38,0 -0.75,-0.16 -0.98,-0.41 -0.13,-0.15 -0.36,-0.16 -0.51,-0.03 -0.15,0.14 -0.16,0.36 -0.02,0.51 0.36,0.41 0.93,0.65 1.51,0.65l0 0z"/>
   <path class="fil1" d="M14.68 16.13c0,1.13 0.92,2.04 2.05,2.04 0.51,0 0.97,-0.18 1.33,-0.49l0 0.13c0,0.2 0.16,0.36 0.36,0.36 0.2,0 0.36,-0.16 0.36,-0.36l0 -5.02c0,-0.2 -0.16,-0.36 -0.36,-0.36 -0.2,0 -0.36,0.16 -0.36,0.36l0 1.79c-0.36,-0.31 -0.82,-0.49 -1.33,-0.49 -1.13,0 -2.05,0.91 -2.05,2.04l0 0zm2.05 -1.32c0.73,0 1.33,0.59 1.33,1.32 0,0.73 -0.6,1.32 -1.33,1.32 -0.73,0 -1.32,-0.59 -1.32,-1.32 0,-0.73 0.59,-1.32 1.32,-1.32z"/>
   <path class="fil2" d="M25.59 21.47c-1.22,0 -2.22,0.99 -2.22,2.21 0,1.23 1,2.22 2.22,2.22 1.23,0 2.22,-0.99 2.22,-2.22 0,-1.22 -0.99,-2.21 -2.22,-2.21zm0 3.71c-0.82,0 -1.49,-0.67 -1.49,-1.5 0,-0.82 0.67,-1.49 1.49,-1.49 0.83,0 1.5,0.67 1.5,1.49 0,0.83 -0.67,1.5 -1.5,1.5z"/>
   <path class="fil2" d="M7.45 21.71l8.57 0c0.2,0 0.36,-0.16 0.36,-0.36 0,-0.2 -0.16,-0.36 -0.36,-0.36l-8.21 0 0 -11.44 8.21 0c0.2,0 0.36,-0.17 0.36,-0.37 0,-0.19 -0.16,-0.36 -0.36,-0.36l-8.57 0c-0.2,0 -0.36,0.17 -0.36,0.36l0 12.17c0,0.2 0.16,0.36 0.36,0.36z"/>
   <path class="fil2" d="M29.18 22.5l-0.09 0c-0.05,-0.15 -0.11,-0.3 -0.18,-0.45l0.06 -0.06c0.12,-0.12 0.19,-0.29 0.19,-0.47 0,-0.18 -0.07,-0.35 -0.19,-0.47l-0.64 -0.64 0 -11.86c0,-0.77 -0.63,-1.39 -1.39,-1.39l-20.31 0c-0.77,0 -1.39,0.62 -1.39,1.39l0 16.83c0,0.77 0.62,1.39 1.39,1.39l16.04 0 0.28 0.28c0.26,0.26 0.69,0.26 0.95,0l0.06 -0.06c0.15,0.07 0.29,0.13 0.45,0.18l0 0.09c0,0.37 0.3,0.67 0.67,0.67l1.03 0c0.37,0 0.67,-0.3 0.67,-0.67l0 -0.09c0.15,-0.05 0.3,-0.11 0.45,-0.18l0.06 0.06c0.26,0.26 0.69,0.26 0.95,0l0.73 -0.73c0.12,-0.13 0.19,-0.29 0.19,-0.47 0,-0.18 -0.07,-0.35 -0.19,-0.47l-0.06 -0.07c0.07,-0.14 0.13,-0.29 0.18,-0.44l0.09 0c0.37,0 0.67,-0.3 0.67,-0.67l0 -1.03c0,-0.37 -0.3,-0.67 -0.67,-0.67l0 0zm-23.22 2.88l0 -16.83c0,-0.37 0.3,-0.67 0.67,-0.67l20.31 0c0.37,0 0.67,0.3 0.67,0.67l0 11.59c-0.12,0.03 -0.23,0.09 -0.32,0.18l-0.06 0.06c-0.15,-0.07 -0.3,-0.13 -0.45,-0.19l0 -0.08c0,-0.24 -0.12,-0.45 -0.31,-0.57l0 -10.36c0,-0.19 -0.16,-0.36 -0.36,-0.36l-8.43 0c-0.2,0 -0.36,0.17 -0.36,0.36 0,0.2 0.16,0.37 0.36,0.37l8.07 0 0 9.89 -0.67 0c-0.37,0 -0.67,0.3 -0.67,0.67l0 0.08c-0.16,0.06 -0.3,0.12 -0.45,0.19l-0.06 -0.06c-0.26,-0.26 -0.69,-0.26 -0.95,0l-0.67 0.67 -4.6 0c-0.2,0 -0.36,0.16 -0.36,0.36 0,0.2 0.16,0.36 0.36,0.36l4.37 0c0.03,0.11 0.09,0.2 0.17,0.28l0.06 0.06c-0.07,0.15 -0.13,0.3 -0.18,0.45l-0.09 0c-0.37,0 -0.67,0.3 -0.67,0.67l0 0.42 -6.79 0c-0.16,-0.52 -0.64,-0.89 -1.2,-0.89 -0.57,0 -1.05,0.37 -1.2,0.89l-4.83 0c-0.2,0 -0.36,0.16 -0.36,0.36 0,0.2 0.16,0.36 0.36,0.36l4.83 0c0.15,0.51 0.63,0.89 1.2,0.89 0.56,0 1.04,-0.38 1.2,-0.89l6.8 0c0.05,0.32 0.33,0.56 0.66,0.56l0.09 0c0.05,0.15 0.11,0.3 0.18,0.44l-0.06 0.06c-0.12,0.13 -0.19,0.3 -0.2,0.48 0,0.07 0.02,0.13 0.04,0.2l-15.43 0c-0.37,0 -0.67,-0.3 -0.67,-0.67l0 0zm7.92 -1.43c0,0.29 -0.24,0.53 -0.53,0.53 -0.29,0 -0.53,-0.24 -0.53,-0.53 0,-0.29 0.24,-0.53 0.53,-0.53 0.29,0 0.53,0.24 0.53,0.53zm15.25 0.2l-0.31 0c-0.16,0 -0.3,0.11 -0.35,0.27 -0.07,0.27 -0.17,0.53 -0.32,0.77 -0.08,0.15 -0.06,0.33 0.06,0.44l0.21 0.22 -0.66 0.65 -0.21 -0.21c-0.12,-0.12 -0.3,-0.14 -0.44,-0.06 -0.25,0.15 -0.51,0.26 -0.78,0.32 -0.16,0.04 -0.27,0.19 -0.27,0.35l0 0.31 -0.93 0 0 -0.31c0,-0.16 -0.11,-0.31 -0.27,-0.35 -0.28,-0.06 -0.54,-0.17 -0.78,-0.32 -0.14,-0.08 -0.32,-0.06 -0.44,0.06l-0.22 0.21 -0.34 -0.35c0,0 0,0 0,0l-0.31 -0.3 0.21 -0.22c0.12,-0.11 0.14,-0.29 0.06,-0.44 -0.15,-0.24 -0.26,-0.5 -0.33,-0.77 -0.04,-0.16 -0.18,-0.27 -0.35,-0.27l-0.3 0 0 -0.93 0.3 0c0.17,0 0.31,-0.11 0.35,-0.27 0.07,-0.27 0.18,-0.53 0.33,-0.78 0.08,-0.14 0.06,-0.32 -0.06,-0.44l-0.21 -0.21 0.65 -0.66 0.22 0.22c0.12,0.12 0.3,0.14 0.44,0.05 0.24,-0.14 0.5,-0.25 0.78,-0.32 0.16,-0.04 0.27,-0.18 0.27,-0.35l0 -0.3 0.93 0 0 0.3c0,0.17 0.11,0.31 0.27,0.35 0.27,0.07 0.53,0.18 0.78,0.32 0.14,0.09 0.32,0.07 0.44,-0.05l0.21 -0.22 0.66 0.66 -0.21 0.21c-0.12,0.12 -0.14,0.3 -0.06,0.44 0.15,0.25 0.25,0.51 0.32,0.78 0.05,0.16 0.19,0.27 0.35,0.27l0.31 0 0 0.93z"/>
  </g>
 </g>
</svg>
