<?xml version="1.0" encoding="UTF-8"?>
<!DOCTYPE svg PUBLIC "-//W3C//DTD SVG 1.1//EN" "http://www.w3.org/Graphics/SVG/1.1/DTD/svg11.dtd">
<!-- Creator: CorelDRAW 2019 (64-Bit) -->
<svg xmlns="http://www.w3.org/2000/svg" xml:space="preserve" width="640px" height="640px" version="1.1" style="shape-rendering:geometricPrecision; text-rendering:geometricPrecision; image-rendering:optimizeQuality; fill-rule:evenodd; clip-rule:evenodd"
viewBox="0 0 42.67 42.67"
 xmlns:xlink="http://www.w3.org/1999/xlink">
 <defs>
  <style type="text/css">
   <![CDATA[
    .fil0 {fill:none}
    .fil1 {fill:#0A2155}
    .fil2 {fill:#FFC221}
   ]]>
  </style>
 </defs>
 <g id="Layer_x0020_1">
  <metadata id="CorelCorpID_0Corel-Layer"/>
  <rect class="fil0" width="42.67" height="42.67"/>
 </g>
 <g id="Layer_x0020_1_0">
  <metadata id="CorelCorpID_1Corel-Layer"/>
  <g id="_2891133196224">
   <path class="fil1" d="M19.25 15.4l2.08 1.13 2.09 -1.13 -2.09 -1.13 -2.08 1.13zm12.07 -7.62c0.26,0 0.48,0.22 0.48,0.49 0,0.27 -0.22,0.48 -0.48,0.48 -0.27,0 -0.49,-0.21 -0.49,-0.48 0,-0.27 0.22,-0.49 0.49,-0.49zm1.56 0c0.26,0 0.48,0.22 0.48,0.49 0,0.27 -0.22,0.48 -0.48,0.48 -0.27,0 -0.49,-0.21 -0.49,-0.48 0,-0.27 0.22,-0.49 0.49,-0.49zm-11.15 0c0.26,0 0.48,0.22 0.48,0.49 0,0.27 -0.22,0.48 -0.48,0.48 -0.27,0 -0.49,-0.21 -0.49,-0.48 0,-0.27 0.22,-0.49 0.49,-0.49zm1.56 0c0.26,0 0.48,0.22 0.48,0.49 0,0.27 -0.22,0.48 -0.48,0.48 -0.27,0 -0.49,-0.21 -0.49,-0.48 0,-0.27 0.22,-0.49 0.49,-0.49zm-11 0c0.27,0 0.48,0.22 0.48,0.49 0,0.27 -0.21,0.48 -0.48,0.48 -0.27,0 -0.49,-0.21 -0.49,-0.48 0,-0.27 0.22,-0.49 0.49,-0.49zm1.56 0c0.27,0 0.48,0.22 0.48,0.49 0,0.27 -0.21,0.48 -0.48,0.48 -0.27,0 -0.49,-0.21 -0.49,-0.48 0,-0.27 0.22,-0.49 0.49,-0.49zm14 2.58l6.09 0 0 -3.03 -6.09 0 0 3.03zm6.56 0.94l-3.04 0 0 4.1c0,0.26 -0.22,0.47 -0.47,0.47l-6.38 0 -2.72 1.47 0 2.32c0,0.26 -0.21,0.47 -0.47,0.47 -0.25,0 -0.47,-0.21 -0.47,-0.47l0 -2.32 -2.71 -1.47 -6.38 0c-0.26,0 -0.47,-0.21 -0.47,-0.47l0 -4.1 -3.04 0c-0.26,0 -0.47,-0.21 -0.47,-0.47l0 -3.97c0,-0.26 0.21,-0.47 0.47,-0.47l7.03 0c0.26,0 0.47,0.21 0.47,0.47l0 3.97c0,0.26 -0.21,0.47 -0.47,0.47l-3.05 0 0 3.63 5.91 0 2.71 -1.47 0 -2.19 -3.14 0c-0.21,-0.05 -0.37,-0.23 -0.37,-0.46l0 -3.97c0,-0.26 0.21,-0.47 0.47,-0.47l7.03 0c0.26,0 0.47,0.21 0.47,0.47l0 3.97c0,0.23 -0.16,0.41 -0.37,0.46l-3.15 0 0 2.19 2.72 1.47 5.91 0 0 -3.63 -3.05 0c-0.26,0 -0.47,-0.21 -0.47,-0.47l0 -3.97c0,-0.26 0.21,-0.47 0.47,-0.47l7.03 0c0.26,0 0.47,0.21 0.47,0.47l0 3.97c0,0.26 -0.21,0.47 -0.47,0.47zm-16.12 -0.97l6.09 0 0 -3.03 -6.09 0 0 3.03zm-9.56 0.03l6.09 0 0 -3.03 -6.09 0 0 3.03z"/>
   <path class="fil2" d="M22.42 20.13l0 0 0 0zm-1.09 4.14c-1.91,0 -3.47,1.56 -3.47,3.48 0,1.91 1.56,3.47 3.47,3.47 1.92,0 3.48,-1.56 3.48,-3.47 0,-1.92 -1.56,-3.48 -3.48,-3.48zm0 7.89c-2.43,0 -4.41,-1.98 -4.41,-4.41 0,-2.44 1.98,-4.42 4.41,-4.42 2.44,0 4.42,1.98 4.42,4.42 0,2.43 -1.98,4.41 -4.42,4.41zm-1.34 -11.15l0 0 0 0zm0.46 14.35l1.76 0 0 -0.88c0,-0.23 0.16,-0.42 0.38,-0.46 0.82,-0.17 1.59,-0.49 2.29,-0.95 0.19,-0.13 0.43,-0.1 0.59,0.06l0.63 0.62 1.24 -1.24 -0.62 -0.63c-0.16,-0.15 -0.19,-0.4 -0.06,-0.59 0.46,-0.7 0.78,-1.47 0.95,-2.29 0.04,-0.22 0.23,-0.37 0.46,-0.37l0.88 0 0 -1.76 -0.88 0c-0.23,0 -0.42,-0.16 -0.46,-0.38 -0.17,-0.82 -0.49,-1.59 -0.95,-2.29 -0.13,-0.19 -0.1,-0.43 0.06,-0.59l0.62 -0.63 -1.24 -1.24 -0.63 0.62c-0.16,0.16 -0.4,0.19 -0.59,0.06 -0.7,-0.46 -1.47,-0.78 -2.29,-0.95 -0.22,-0.04 -0.38,-0.23 -0.38,-0.46l0 -0.88 -1.76 0 0 0.88c0,0.23 -0.15,0.42 -0.37,0.46 -0.82,0.17 -1.59,0.49 -2.29,0.95 -0.19,0.13 -0.43,0.1 -0.59,-0.06l-0.63 -0.62 -1.24 1.24 0.62 0.63c0.16,0.16 0.18,0.4 0.06,0.59 -0.47,0.7 -0.78,1.47 -0.95,2.29 -0.04,0.22 -0.23,0.38 -0.46,0.38l-0.88 0 0 1.76 0.88 0c0.23,0 0.42,0.15 0.46,0.37 0.17,0.82 0.49,1.59 0.95,2.29 0.12,0.19 0.1,0.44 -0.06,0.59l-0.62 0.63 1.24 1.24 0.63 -0.62c0.16,-0.16 0.4,-0.18 0.59,-0.06 0.7,0.47 1.47,0.78 2.29,0.95 0.22,0.04 0.37,0.23 0.37,0.46l0 0.88 0 0zm1.97 0.94l-2.17 0c-0.41,0 -0.73,-0.33 -0.73,-0.73l0 -0.72c-0.68,-0.17 -1.32,-0.44 -1.92,-0.79l-0.51 0.5c-0.14,0.14 -0.32,0.22 -0.52,0.22 -0.2,0 -0.38,-0.08 -0.52,-0.22l-1.53 -1.53c-0.14,-0.14 -0.22,-0.32 -0.22,-0.52 0,-0.2 0.08,-0.38 0.22,-0.52l0.5 -0.51c-0.35,-0.6 -0.62,-1.24 -0.79,-1.92l-0.72 0c-0.4,0 -0.73,-0.32 -0.73,-0.73l0 -2.17c0,-0.4 0.33,-0.73 0.73,-0.73l0.72 0c0.17,-0.68 0.44,-1.32 0.79,-1.92l-0.5 -0.51c-0.29,-0.29 -0.29,-0.75 0,-1.04l1.53 -1.53c0.14,-0.14 0.32,-0.22 0.52,-0.22 0.2,0 0.38,0.08 0.52,0.22l0.51 0.5c0.6,-0.35 1.24,-0.62 1.92,-0.79l0 -0.72c0,-0.4 0.32,-0.73 0.73,-0.73l2.17 0c0.4,0 0.73,0.33 0.73,0.73l0 0.72c0.68,0.17 1.32,0.44 1.92,0.79l0.51 -0.5c0.14,-0.14 0.32,-0.22 0.52,-0.22 0.19,0 0.38,0.08 0.52,0.22l1.53 1.53c0.14,0.14 0.22,0.33 0.22,0.52 0,0.2 -0.08,0.38 -0.22,0.52l-0.5 0.51c0.35,0.6 0.62,1.24 0.79,1.92l0.72 0c0.4,0 0.73,0.33 0.73,0.73l0 2.17c0,0.41 -0.33,0.73 -0.73,0.73l-0.72 0c-0.17,0.68 -0.44,1.32 -0.79,1.92l0.5 0.51c0.29,0.29 0.29,0.75 0,1.04l-1.53 1.53c-0.14,0.14 -0.33,0.22 -0.52,0.22 -0.2,0 -0.38,-0.08 -0.52,-0.22l-0.51 -0.5c-0.6,0.35 -1.24,0.62 -1.92,0.79l0 0.72c0,0.4 -0.33,0.73 -0.73,0.73l0 0z"/>
  </g>
 </g>
</svg>
