<?xml version="1.0" encoding="UTF-8"?>
<!DOCTYPE svg PUBLIC "-//W3C//DTD SVG 1.1//EN" "http://www.w3.org/Graphics/SVG/1.1/DTD/svg11.dtd">
<!-- Creator: CorelDRAW -->
<svg xmlns="http://www.w3.org/2000/svg" xml:space="preserve" width="640px" height="640px" version="1.1" style="shape-rendering:geometricPrecision; text-rendering:geometricPrecision; image-rendering:optimizeQuality; fill-rule:evenodd; clip-rule:evenodd"
viewBox="0 0 47.25 47.25"
 xmlns:xlink="http://www.w3.org/1999/xlink"
 xmlns:xodm="http://www.corel.com/coreldraw/odm/2003">
 <defs>
  <style type="text/css">
   <![CDATA[
    .str0 {stroke:#002155;stroke-width:0.17;stroke-miterlimit:22.9256}
    .fil0 {fill:none}
    .fil1 {fill:#002155}
    .fil2 {fill:#FFC221;fill-rule:nonzero}
   ]]>
  </style>
 </defs>
 <g id="Layer_x0020_1">
  <metadata id="CorelCorpID_0Corel-Layer"/>
  <rect class="fil0" width="47.25" height="47.25"/>
 </g>
 <g id="Capa_x0020_1">
  <metadata id="CorelCorpID_1Corel-Layer"/>
  <path class="fil1 str0" d="M30.22 28.75l-6.34 -12.95c-0.05,-0.09 -0.14,-0.14 -0.24,-0.14 -0.1,0 -0.19,0.05 -0.24,0.14l-6.34 12.95c-0.05,0.09 -0.03,0.2 0.03,0.27l3.98 5.08 -1.7 0c-0.65,0 -1.18,0.53 -1.18,1.18l0 2.31c0,0.27 0.22,0.49 0.49,0.49l9.92 0c0.27,0 0.5,-0.22 0.5,-0.49l0 -2.31c0,-0.65 -0.54,-1.18 -1.19,-1.18l-1.71 0 3.99 -5.08c0.07,-0.08 0.08,-0.18 0.03,-0.27zm-2.31 5.87c0.36,0 0.66,0.3 0.66,0.66l0 2.27 -9.86 0 0 -2.27c0,-0.36 0.3,-0.66 0.66,-0.66l8.54 0zm-2.38 -0.52l-3.79 0 -4.13 -5.27 6.03 -12.31 6.04 12.31 -4.15 5.27z"/>
  <path class="fil2" d="M25.94 29.04c-0.04,-0.62 -0.31,-1.18 -0.77,-1.58 -0.28,-0.24 -0.6,-0.42 -0.95,-0.5l0 -4.11c0,-0.32 -0.26,-0.58 -0.58,-0.58 -0.32,0 -0.58,0.26 -0.58,0.58l0 4.1c-0.44,0.12 -0.84,0.36 -1.15,0.71 -0.39,0.44 -0.57,0.98 -0.57,1.52 0,0.64 0.26,1.28 0.78,1.74 0.42,0.37 0.95,0.57 1.52,0.57 0.05,0 0.1,0 0.15,-0.01 0.61,-0.03 1.18,-0.31 1.58,-0.77 0.41,-0.46 0.61,-1.05 0.57,-1.67l0 0zm-1.43 0.91c-0.32,0.35 -0.83,0.48 -1.28,0.31 -0.44,-0.16 -0.74,-0.6 -0.74,-1.08 0,-0.48 0.32,-0.93 0.78,-1.08 0.46,-0.16 0.99,0 1.29,0.38 0.33,0.43 0.31,1.06 -0.05,1.47zm0 0z"/>
  <path class="fil1 str0" d="M37.57 21.52l-1.17 0 -0.02 -0.27c-0.14,-1.67 -0.62,-3.41 -1.38,-4.89 -0.97,-1.89 -2.41,-3.4 -4.32,-4.34l-1.14 -0.56 4.54 0 0.06 0.22c0.13,0.5 0.44,0.91 0.88,1.19 0.32,0.2 0.68,0.3 1.06,0.3 0.15,0 0.3,-0.01 0.45,-0.05 0.53,-0.12 0.97,-0.43 1.26,-0.89 0.29,-0.45 0.38,-0.99 0.26,-1.51 -0.12,-0.53 -0.44,-0.97 -0.89,-1.26 -0.46,-0.28 -1,-0.37 -1.52,-0.25 -0.53,0.12 -0.97,0.43 -1.26,0.89 -0.11,0.17 -0.19,0.37 -0.25,0.57l-0.05 0.23 -8.43 0 0 -1.22c0,-0.28 -0.23,-0.51 -0.51,-0.51l-3 0c-0.28,0 -0.51,0.23 -0.51,0.51l0 1.25 -8.44 0 -0.05 -0.23c-0.22,-0.9 -1.03,-1.55 -1.96,-1.55 -1.11,0 -2.01,0.91 -2.01,2.01 0,1.11 0.9,2.01 2.01,2.01 0.9,0 1.7,-0.6 1.94,-1.47l0.06 -0.21 4.55 0 -1.14 0.56c-1.92,0.94 -3.36,2.45 -4.33,4.34 -0.76,1.48 -1.24,3.22 -1.39,4.88l-0.02 0.27 -1.18 0c-0.29,0 -0.52,0.23 -0.52,0.52l0 2.99c0,0.28 0.24,0.51 0.52,0.51l3 0c0.28,0 0.51,-0.23 0.51,-0.51l0 -2.99c0,-0.29 -0.23,-0.52 -0.51,-0.52l-1.26 0 0.04 -0.32c0.15,-1.56 0.6,-3.18 1.31,-4.58 0.73,-1.43 1.76,-2.65 3.11,-3.54 1.63,-1.07 3.53,-1.52 5.45,-1.6l0.31 -0.01 0 1.19c0,0.28 0.23,0.51 0.51,0.51l3 0c0.28,0 0.51,-0.23 0.51,-0.51l0 -1.22 0.31 0.01c1.91,0.08 3.8,0.53 5.41,1.59 1.35,0.88 2.37,2.1 3.11,3.52 0.72,1.4 1.17,3.04 1.33,4.61l0.03 0.33 -1.27 0c-0.28,0 -0.51,0.22 -0.51,0.51l0 2.99c0,0.29 0.23,0.52 0.51,0.52l3 0c0.28,0 0.51,-0.23 0.51,-0.52l0 -2.99c0,-0.29 -0.23,-0.51 -0.51,-0.51zm-1.48 -11.81c0.8,0 1.45,0.65 1.45,1.45 0,0.8 -0.65,1.45 -1.45,1.45 -0.8,0 -1.45,-0.65 -1.45,-1.45 0,-0.8 0.65,-1.45 1.45,-1.45zm-24.91 2.9c-0.8,0 -1.45,-0.65 -1.45,-1.45 0,-0.79 0.65,-1.44 1.45,-1.44 0.8,0 1.45,0.65 1.45,1.44 0,0.8 -0.65,1.45 -1.45,1.45zm1.44 9.5l0 2.89 -2.9 0 0 -2.89 2.9 0zm12.47 -9.48l-2.9 0 0 -2.9 2.9 0 0 2.9zm12.43 12.34l-2.9 0 0 -2.89 2.9 0 0 2.89z"/>
  <path class="fil2" d="M23.64 21.12c-0.32,0 -0.57,-0.26 -0.57,-0.58 0,-0.31 0.25,-0.57 0.57,-0.57l0 0c0.32,0 0.58,0.26 0.58,0.57 0,0.32 -0.26,0.58 -0.58,0.58l0 0zm0 0z"/>
 </g>
</svg>
