<?xml version="1.0" encoding="UTF-8"?>
<!DOCTYPE svg PUBLIC "-//W3C//DTD SVG 1.1//EN" "http://www.w3.org/Graphics/SVG/1.1/DTD/svg11.dtd">
<!-- Creator: CorelDRAW 2019 (64-Bit) -->
<svg xmlns="http://www.w3.org/2000/svg" xml:space="preserve" width="640px" height="640px" version="1.1" style="shape-rendering:geometricPrecision; text-rendering:geometricPrecision; image-rendering:optimizeQuality; fill-rule:evenodd; clip-rule:evenodd"
viewBox="0 0 57.71 57.71"
 xmlns:xlink="http://www.w3.org/1999/xlink">
 <defs>
  <style type="text/css">
   <![CDATA[
    .fil0 {fill:none}
    .fil1 {fill:#0A2155}
    .fil2 {fill:#FFC221}
   ]]>
  </style>
 </defs>
 <g id="Layer_x0020_1">
  <metadata id="CorelCorpID_0Corel-Layer"/>
  <rect class="fil0" width="57.71" height="57.71"/>
  <g id="_2042175217248">
   <path class="fil1" d="M49.01 31.59c-0.48,-7.85 -6.49,-14.24 -14.18,-15.3l0 -2.12 3.7 0c1.01,0 1.83,-0.83 1.83,-1.84l0 -1.89c0,-1.01 -0.82,-1.83 -1.83,-1.83l-11.95 0c-1.01,0 -1.83,0.82 -1.83,1.83l0 1.89c0,1.01 0.82,1.84 1.83,1.84l3.7 0 0 2.12c-1.72,0.24 -3.36,0.74 -4.88,1.47l-4.44 0c-0.43,0 -0.77,0.35 -0.77,0.77 0,0.42 0.34,0.77 0.77,0.77l1.89 0c-1.98,1.45 -3.63,3.33 -4.81,5.51l-8.57 0c-0.43,0 -0.77,0.34 -0.77,0.76 0,0.43 0.34,0.77 0.77,0.77l7.85 0c-0.71,1.71 -1.14,3.56 -1.23,5.51l-4.07 0c-0.42,0 -0.77,0.34 -0.77,0.76 0,0.43 0.35,0.77 0.77,0.77l4.07 0c0.09,1.94 0.52,3.8 1.23,5.51l-5.75 0c-0.42,0 -0.77,0.34 -0.77,0.77 0,0.42 0.35,0.76 0.77,0.76l6.47 0c1.18,2.18 2.83,4.06 4.81,5.51l-4.68 0c-0.42,0 -0.76,0.34 -0.76,0.77 0,0.42 0.34,0.76 0.76,0.76l7.23 0c2.17,1.05 4.6,1.64 7.16,1.64 8.75,0 15.92,-6.85 16.45,-15.47l0 -2.04zm-25.2 3.01c0.29,0.31 0.29,0.79 -0.01,1.09 -0.31,0.29 -0.79,0.28 -1.09,-0.02l-0.54 -0.56c1.12,4.73 5.32,8.18 10.39,8.18 3.73,0 7.13,-1.9 9.09,-5.08 0.22,-0.36 0.69,-0.47 1.06,-0.25 0.36,0.22 0.47,0.69 0.25,1.05 -2.25,3.64 -6.13,5.81 -10.4,5.81 -5.73,0 -10.67,-3.98 -11.91,-9.5l-0.38 0.66c-0.21,0.37 -0.68,0.5 -1.04,0.29 -0.37,-0.21 -0.5,-0.67 -0.29,-1.04l1.51 -2.66c0.27,-0.47 0.87,-0.53 1.22,-0.17l2.14 2.2zm8.75 -12.66c-3.74,0 -7.13,1.9 -9.1,5.08 -0.22,0.36 -0.69,0.47 -1.05,0.25 -0.36,-0.22 -0.47,-0.69 -0.25,-1.05 2.24,-3.64 6.13,-5.81 10.4,-5.81 5.68,0 10.6,3.92 11.88,9.38l0.3 -0.57c0.19,-0.38 0.66,-0.52 1.03,-0.33 0.38,0.2 0.52,0.66 0.32,1.03l-1.41 2.71c-0.24,0.48 -0.86,0.57 -1.22,0.21l-2.21 -2.12c-0.31,-0.29 -0.32,-0.78 -0.02,-1.08 0.29,-0.31 0.77,-0.32 1.08,-0.02l0.67 0.64c-1.06,-4.8 -5.3,-8.32 -10.42,-8.32l0 0zm0 -4.28c8.24,0 14.95,6.71 14.95,14.95 0,8.25 -6.71,14.96 -14.95,14.96 -8.25,0 -14.95,-6.71 -14.95,-14.96 0,-8.24 6.7,-14.95 14.95,-14.95zm0.74 -3.49l0 1.98 -1.48 0 0 -1.98 1.48 0zm5.53 -1.84c0,0.17 -0.13,0.3 -0.3,0.3l-11.95 0c-0.16,0 -0.3,-0.13 -0.3,-0.3l0 -1.89c0,-0.16 0.14,-0.3 0.3,-0.3l11.95 0c0.17,0 0.3,0.14 0.3,0.3l0 1.89z"/>
   <path class="fil2" d="M32.56 35.72c1.52,0 2.76,1.24 2.76,2.77 0,1.52 -1.24,2.76 -2.76,2.76 -1.52,0 -2.76,-1.24 -2.76,-2.76 0,-1.53 1.24,-2.77 2.76,-2.77zm0 1.54c0.68,0 1.23,0.55 1.23,1.23 0,0.67 -0.55,1.23 -1.23,1.23 -0.68,0 -1.23,-0.56 -1.23,-1.23 0,-0.68 0.55,-1.23 1.23,-1.23zm2.45 -12.59c0.99,0.72 1,1.58 0.91,2.03l-1.23 6.51c-0.35,1.86 -3.91,1.86 -4.27,0l-1.23 -6.51c-0.3,-1.6 1.4,-2.72 3.24,-2.72l0.25 0c0.91,0 1.71,0.24 2.33,0.69l0 0zm-2.33 0.84c0.58,0 1.07,0.13 1.43,0.4 0.35,0.26 0.32,0.43 0.31,0.5l-1.23 6.49c-0.03,0.05 -0.28,0.18 -0.65,0.18 -0.35,0 -0.56,-0.13 -0.61,-0.18l-1.23 -6.49c-0.01,-0.07 -0.05,-0.24 0.31,-0.5 0.5,-0.36 1,-0.4 1.67,-0.4z"/>
  </g>
 </g>
</svg>
