<?xml version="1.0" encoding="UTF-8"?>
<!DOCTYPE svg PUBLIC "-//W3C//DTD SVG 1.1//EN" "http://www.w3.org/Graphics/SVG/1.1/DTD/svg11.dtd">
<!-- Creator: CorelDRAW 2019 (64-Bit) -->
<svg xmlns="http://www.w3.org/2000/svg" xml:space="preserve" width="640px" height="640px" version="1.1" style="shape-rendering:geometricPrecision; text-rendering:geometricPrecision; image-rendering:optimizeQuality; fill-rule:evenodd; clip-rule:evenodd"
viewBox="0 0 122.61 122.61"
 xmlns:xlink="http://www.w3.org/1999/xlink">
 <defs>
  <style type="text/css">
   <![CDATA[
    .fil0 {fill:none}
    .fil1 {fill:#0A2155}
    .fil2 {fill:#FFC221}
   ]]>
  </style>
 </defs>
 <g id="Layer_x0020_1">
  <metadata id="CorelCorpID_0Corel-Layer"/>
  <rect class="fil0" width="122.61" height="122.61"/>
 </g>
 <g id="Layer_x0020_1_0">
  <metadata id="CorelCorpID_1Corel-Layer"/>
  <g id="_2891149982704">
   <path class="fil1" d="M80.97 96.48l11.73 0c0.31,0 0.61,0.12 0.84,0.32l4.45 3.76 0.65 -3.03c0.14,-0.61 0.67,-1.04 1.3,-1.04l2.42 0 0 -15.06 -21.39 0 0 15.05 0 0zm17.86 7.84c-0.31,0 -0.61,-0.12 -0.84,-0.32l-5.75 -4.86 -11.51 0c-1.32,0 -2.4,-1.08 -2.4,-2.4l0 -15.57c0,-1.31 1.08,-2.4 2.4,-2.4l21.9 0c1.32,0 2.4,1.09 2.4,2.4l0 15.57c0,1.32 -1.08,2.4 -2.4,2.4l-1.59 0 -0.91 4.13c-0.09,0.46 -0.43,0.83 -0.86,0.97 -0.16,0.06 -0.3,0.08 -0.44,0.08z"/>
   <path class="fil1" d="M42.67 56.47l39.28 0 0 -1.83c0,-1 -0.83,-1.83 -1.83,-1.83l-35.62 0c-1,0 -1.83,0.83 -1.83,1.83l0 1.83 0 0zm40.6 2.64l-41.92 0c-0.73,0 -1.32,-0.59 -1.32,-1.32l0 -3.15c0,-2.46 2.01,-4.46 4.47,-4.46l35.64 0c2.46,0 4.47,2 4.47,4.46l0 3.15c0,0.73 -0.59,1.32 -1.34,1.32z"/>
   <path class="fil1" d="M39.91 63.82l44.77 0 0 -2.35c0,-1.3 -1.06,-2.34 -2.34,-2.34l-40.07 0c-1.3,0 -2.34,1.06 -2.34,2.34l0 2.35 -0.02 0zm46.11 2.65l-47.43 0c-0.72,0 -1.31,-0.59 -1.31,-1.32l0 -3.68c0,-2.75 2.24,-4.99 4.99,-4.99l40.09 0c2.76,0 5,2.24 5,4.99l0 3.68c-0.02,0.71 -0.61,1.32 -1.34,1.32z"/>
   <path class="fil2" d="M62.31 52.81c-0.73,0 -1.32,-0.59 -1.32,-1.31l0 -11.46c0,-0.72 0.59,-1.31 1.32,-1.31 0.73,0 1.32,0.59 1.32,1.31l0 11.46c0,0.72 -0.59,1.31 -1.32,1.31z"/>
   <path class="fil2" d="M62.31 33.29c-1.5,0 -2.72,1.22 -2.72,2.72 0,1.49 1.22,2.71 2.72,2.71 1.49,0 2.71,-1.22 2.71,-2.71 0,-1.52 -1.22,-2.72 -2.71,-2.72l0 0zm0 8.07c-2.95,0 -5.35,-2.4 -5.35,-5.35 0,-2.95 2.4,-5.35 5.35,-5.35 2.95,0 5.35,2.4 5.35,5.35 0,2.95 -2.4,5.35 -5.35,5.35z"/>
   <path class="fil2" d="M62.31 29.08c-0.73,0 -1.32,-0.59 -1.32,-1.32l0 -3.62c0,-0.73 0.59,-1.32 1.32,-1.32 0.73,0 1.32,0.59 1.32,1.32l0 3.62c0,0.73 -0.59,1.32 -1.32,1.32z"/>
   <path class="fil2" d="M69.02 31.86c-0.34,0 -0.67,-0.14 -0.95,-0.4 -0.51,-0.51 -0.51,-1.35 0,-1.87l2.56 -2.56c0.52,-0.51 1.36,-0.51 1.87,0 0.52,0.52 0.52,1.36 0,1.87l-2.55 2.56c-0.26,0.28 -0.6,0.4 -0.93,0.4z"/>
   <path class="fil2" d="M75.42 38.57l-3.62 0c-0.73,0 -1.32,-0.59 -1.32,-1.32 0,-0.73 0.59,-1.32 1.32,-1.32l3.62 0c0.72,0 1.31,0.59 1.31,1.32 0,0.73 -0.59,1.32 -1.31,1.32z"/>
   <path class="fil2" d="M52.82 38.57l-3.62 0c-0.72,0 -1.31,-0.59 -1.31,-1.32 0,-0.73 0.59,-1.32 1.31,-1.32l3.62 0c0.73,0 1.32,0.59 1.32,1.32 0.02,0.73 -0.59,1.32 -1.32,1.32z"/>
   <path class="fil2" d="M55.6 31.86c-0.34,0 -0.67,-0.14 -0.95,-0.4l-2.55 -2.55c-0.52,-0.52 -0.52,-1.36 0,-1.87 0.51,-0.52 1.35,-0.52 1.87,0l2.55 2.55c0.52,0.52 0.52,1.36 0,1.87 -0.23,0.28 -0.57,0.4 -0.92,0.4z"/>
   <path class="fil1" d="M41.88 81.41l0 0 0 0 0 0zm-21.65 15.07l2.42 0c0.63,0 1.16,0.44 1.3,1.05l0.65 3.03 4.45 -3.76c0.24,-0.2 0.55,-0.32 0.85,-0.32l11.73 0 0 -15.05 -21.4 0 0 15.05 0 0zm3.55 7.84c-0.14,0 -0.3,-0.02 -0.44,-0.08 -0.43,-0.16 -0.76,-0.51 -0.86,-0.97l-0.91 -4.13 -1.59 0c-1.32,0 -2.4,-1.08 -2.4,-2.4l0 -15.57c0,-1.31 1.08,-2.4 2.4,-2.4l21.9 0c1.32,0 2.4,1.09 2.4,2.4l0 15.57c0,1.32 -1.08,2.4 -2.4,2.4l-11.51 0 -5.75 4.86c-0.23,0.2 -0.55,0.32 -0.84,0.32z"/>
   <path class="fil1" d="M62.31 90.26c-0.73,0 -1.32,-0.59 -1.32,-1.31l0 -19.19c0,-0.73 0.59,-1.32 1.32,-1.32 0.73,0 1.32,0.59 1.32,1.32l0 19.19c0,0.72 -0.59,1.31 -1.32,1.31z"/>
   <path class="fil1" d="M75.75 90.26l-26.88 0c-0.73,0 -1.32,-0.59 -1.32,-1.31 0,-0.73 0.59,-1.32 1.32,-1.32l26.88 0c0.73,0 1.32,0.59 1.32,1.32 0,0.72 -0.59,1.31 -1.32,1.31z"/>
   <path class="fil1" d="M71.52 93.81c-0.38,0 -0.75,-0.16 -1.02,-0.48 -0.48,-0.57 -0.4,-1.39 0.17,-1.87l3.01 -2.51 -3.01 -2.52c-0.57,-0.48 -0.63,-1.3 -0.17,-1.87 0.47,-0.57 1.3,-0.63 1.87,-0.18l4.23 3.54c0.29,0.26 0.47,0.63 0.47,1.02 0,0.4 -0.18,0.77 -0.47,1.03l-4.23 3.52c-0.24,0.22 -0.56,0.32 -0.85,0.32z"/>
   <path class="fil1" d="M53.1 93.81c-0.3,0 -0.59,-0.1 -0.85,-0.32l-4.23 -3.52c-0.29,-0.26 -0.47,-0.63 -0.47,-1.02 0,-0.4 0.18,-0.77 0.47,-1.03l4.23 -3.52c0.57,-0.47 1.4,-0.39 1.87,0.18 0.48,0.57 0.4,1.4 -0.17,1.87l-3.02 2.52 3.01 2.52c0.57,0.47 0.63,1.3 0.18,1.87 -0.27,0.27 -0.65,0.45 -1.02,0.45z"/>
   <path class="fil1" d="M97.77 87.73l-12.24 0c-0.73,0 -1.32,-0.59 -1.32,-1.32 0,-0.73 0.59,-1.32 1.32,-1.32l12.24 0c0.73,0 1.32,0.59 1.32,1.32 0.02,0.71 -0.57,1.32 -1.32,1.32z"/>
   <path class="fil1" d="M97.77 92.82l-12.24 0c-0.73,0 -1.32,-0.59 -1.32,-1.31 0,-0.73 0.59,-1.32 1.32,-1.32l12.24 0c0.73,0 1.32,0.59 1.32,1.32 0.02,0.72 -0.57,1.31 -1.32,1.31z"/>
   <path class="fil1" d="M37.04 87.73l-12.22 0c-0.73,0 -1.32,-0.59 -1.32,-1.32 0,-0.73 0.59,-1.32 1.32,-1.32l12.22 0c0.73,0 1.32,0.59 1.32,1.32 0.02,0.71 -0.57,1.32 -1.32,1.32z"/>
   <path class="fil1" d="M37.04 92.82l-12.22 0c-0.73,0 -1.32,-0.59 -1.32,-1.31 0,-0.73 0.59,-1.32 1.32,-1.32l12.24 0c0.73,0 1.32,0.59 1.32,1.32 0,0.72 -0.59,1.31 -1.34,1.31z"/>
   <path class="fil2" d="M85.18 27.47c-0.52,0 -1.03,-0.32 -1.22,-0.83 -0.28,-0.67 0.04,-1.46 0.72,-1.73l4.41 -1.81c0.67,-0.28 1.46,0.04 1.73,0.72 0.28,0.67 -0.04,1.46 -0.72,1.74l-4.41 1.81c-0.18,0.08 -0.36,0.1 -0.51,0.1z"/>
   <path class="fil2" d="M92.18 36.87l-5.09 0c-0.73,0 -1.32,-0.59 -1.32,-1.31 0,-0.73 0.59,-1.32 1.32,-1.32l5.09 0c0.73,0 1.32,0.59 1.32,1.32 0.02,0.72 -0.59,1.31 -1.32,1.31z"/>
   <path class="fil2" d="M89.58 48.11c-0.17,0 -0.33,-0.04 -0.51,-0.1l-4.41 -1.81c-0.67,-0.27 -1,-1.04 -0.72,-1.73 0.27,-0.67 1.04,-1 1.73,-0.73l4.41 1.81c0.67,0.28 1,1.05 0.72,1.74 -0.19,0.51 -0.68,0.82 -1.22,0.82z"/>
   <path class="fil2" d="M35.03 48.11c-0.51,0 -1.02,-0.31 -1.22,-0.83 -0.27,-0.67 0.04,-1.45 0.73,-1.73l4.41 -1.81c0.67,-0.27 1.46,0.04 1.73,0.73 0.28,0.67 -0.04,1.46 -0.73,1.73l-4.4 1.81c-0.18,0.06 -0.36,0.1 -0.52,0.1z"/>
   <path class="fil2" d="M37.53 36.87l-5.1 0c-0.72,0 -1.31,-0.59 -1.31,-1.31 0,-0.73 0.59,-1.32 1.31,-1.32l5.1 0c0.73,0 1.32,0.59 1.32,1.32 0,0.72 -0.59,1.31 -1.32,1.31z"/>
   <path class="fil2" d="M39.44 27.47c-0.18,0 -0.33,-0.04 -0.51,-0.1l-4.41 -1.81c-0.67,-0.28 -1,-1.04 -0.73,-1.73 0.28,-0.67 1.05,-1.01 1.74,-0.73l4.4 1.81c0.67,0.27 1.01,1.04 0.73,1.73 -0.2,0.51 -0.71,0.83 -1.22,0.83z"/>
   <path class="fil1" d="M46.11 50.18l32.37 0 0 -14.61c0,-8.05 -6.55,-14.6 -14.62,-14.6l-3.15 0c-8.05,0 -14.6,6.55 -14.6,14.6l0 14.61 0 0zm33.71 2.63l-35.03 0c-0.72,0 -1.31,-0.59 -1.31,-1.31l0 -15.94c0,-9.53 7.73,-17.26 17.26,-17.26l3.15 0c9.52,0 17.26,7.75 17.26,17.26l0 15.94c-0.01,0.72 -0.6,1.31 -1.33,1.31z"/>
  </g>
 </g>
</svg>
