<?xml version="1.0" encoding="UTF-8"?>
<!DOCTYPE svg PUBLIC "-//W3C//DTD SVG 1.1//EN" "http://www.w3.org/Graphics/SVG/1.1/DTD/svg11.dtd">
<!-- Creator: CorelDRAW 2019 (64-Bit) -->
<svg xmlns="http://www.w3.org/2000/svg" xml:space="preserve" width="640px" height="640px" version="1.1" style="shape-rendering:geometricPrecision; text-rendering:geometricPrecision; image-rendering:optimizeQuality; fill-rule:evenodd; clip-rule:evenodd"
viewBox="0 0 55.16 55.16"
 xmlns:xlink="http://www.w3.org/1999/xlink">
 <defs>
  <style type="text/css">
   <![CDATA[
    .fil0 {fill:none}
    .fil2 {fill:#0A2155}
    .fil1 {fill:#FFC221}
   ]]>
  </style>
 </defs>
 <g id="Layer_x0020_1">
  <metadata id="CorelCorpID_0Corel-Layer"/>
  <rect class="fil0" width="55.16" height="55.16"/>
 </g>
 <g id="Layer_x0020_3">
  <metadata id="CorelCorpID_1Corel-Layer"/>
  <g id="_2389671696384">
   <path class="fil1" d="M12.71 36.39c0,-1.03 -0.12,-2.34 1.54,-2.34l9.21 0c1.65,0 1.53,1.31 1.53,2.34 0,0.99 -0.54,1.54 -1.53,1.54l-9.21 0c-0.99,0 -1.54,-0.55 -1.54,-1.54zm0 -5.16c0,-1.04 -0.12,-2.35 1.54,-2.35l9.21 0c1.65,0 1.53,1.31 1.53,2.35 0,0.99 -0.54,1.53 -1.53,1.53l-9.21 0c-0.99,0 -1.54,-0.54 -1.54,-1.53zm0 -5.17c0,-1.04 -0.12,-2.35 1.54,-2.35l9.21 0c1.65,0 1.53,1.31 1.53,2.35 0,0.99 -0.54,1.53 -1.53,1.53l-9.21 0c-0.99,0 -1.54,-0.54 -1.54,-1.53zm-1.29 -1.22c0,2.48 -0.16,1.94 0.81,3.4 -0.97,1.45 -0.81,0.91 -0.81,3.39 0,0.92 0.47,1.27 0.81,1.78 -0.97,1.45 -0.81,0.91 -0.81,3.39 0,1.29 1.27,2.42 2.34,2.42l10.18 0c1.12,0 2.34,-1.22 2.34,-2.34 0,-2.55 0.18,-2 -0.81,-3.47 0.24,-0.36 0.81,-0.89 0.81,-1.7 0,-2.54 0.18,-2 -0.81,-3.47 0.24,-0.36 0.81,-0.89 0.81,-1.7 0,-1.39 0.21,-2.43 -0.74,-3.37 -0.37,-0.37 -0.97,-0.75 -1.68,-0.75l-10.02 0c-1.24,0 -2.42,1.18 -2.42,2.42z"/>
   <path class="fil2" d="M19.74 13.54c-0.37,-0.18 -1,-0.16 -1.45,-0.16 -1.48,0 -2.74,0.92 -3.39,1.78 -0.38,0.52 -0.47,0.68 -0.66,1.28 -0.17,0.55 -0.05,0.25 -1.22,0.72 -2.7,1.09 -4.83,3.84 -4.83,6.88 0,1.39 0.05,2.01 0.58,3.3 0.2,0.5 0.82,1.67 1.2,1.95 0.23,-0.16 0.82,-0.6 0.97,-0.81 -0.02,-0.05 -3.56,-4.62 0.5,-8.7 1.05,-1.06 2.66,-1.88 4.75,-1.88 0.31,0 0.37,0.33 0.41,-0.4 0.01,-0.37 0.07,-0.51 0.07,-0.89l-1.05 0c0.23,-0.97 1.88,-2.21 3.39,-1.86 -0.09,0.39 -0.29,0.58 -0.4,1.05 0.42,0.03 0.84,0.3 1.29,0.4 0.1,-1.22 2.27,-3.83 3.49,-4.67 3.83,-2.6 8.09,-2.75 12,-0.16 2.17,1.44 3.52,3.63 4.17,6.17 0.15,0.59 0.29,1.62 0.29,2.3l1.29 0 -0.08 -1.62c3.52,0.82 6.21,5.65 3.39,9.86 0.28,0.18 0.83,0.64 1.13,0.72 1.89,-2.81 1.87,-6.39 -0.17,-9.11 -0.99,-1.33 -3.14,-2.89 -4.67,-2.92 -0.8,-3.44 -3.54,-6.29 -6.76,-7.7 -3.03,-1.32 -6.38,-1.08 -9.38,0.2l-1.21 0.65c-1.27,0.82 -2.94,2.28 -3.65,3.62z"/>
   <path class="fil1" d="M34.68 31.87l0 -3.39c0,-0.47 0.12,-0.84 0.36,-1.1 0.47,-0.53 1.41,-0.58 1.93,-0.05 0.16,0.16 0.33,0.57 0.47,0.81 0.36,0.6 0.73,0.98 1.42,1.25 1.13,0.45 3.57,-0.6 3.57,1.67 0,1.04 0.13,2.35 -1.53,2.35l-4.68 0c-0.99,0 -1.54,-0.55 -1.54,-1.54zm3.64 -4.93c0.82,0 2.04,-0.07 2.81,0.01 0.87,0.09 1.3,0.63 1.3,1.61 -0.86,-0.46 -1.29,-0.29 -2.5,-0.32 -1.17,-0.02 -1.17,-0.63 -1.61,-1.3zm-4.93 1.14l0 4.2c0,1.29 1.27,2.42 2.34,2.42l5.65 0c1.13,0 2.35,-1.22 2.35,-2.34l0 -4.37c0,-1.06 -1.13,-2.34 -2.43,-2.34l-5.49 0c-1.24,0 -2.42,1.18 -2.42,2.43z"/>
   <path class="fil1" d="M34.68 44.15l0 -3.39c0,-1.64 1.61,-1.84 2.29,-1.16 0.37,0.38 0.51,1.53 1.89,2.07 1.13,0.44 3.57,-0.6 3.57,1.67 0,1.04 0.13,2.34 -1.53,2.34l-4.68 0c-0.99,0 -1.54,-0.54 -1.54,-1.53zm3.64 -4.93c2.16,0 4.11,-0.5 4.11,1.62 -0.86,-0.46 -1.29,-0.3 -2.5,-0.32 -1.17,-0.03 -1.17,-0.63 -1.61,-1.3zm-4.93 1.13l0 4.2c0,0.69 0.35,1.27 0.7,1.64 0.33,0.34 1.02,0.78 1.64,0.78l5.65 0c0.61,0 1.28,-0.42 1.6,-0.74 0.32,-0.32 0.75,-0.99 0.75,-1.6l0 -4.36c0,-1.07 -1.13,-2.34 -2.43,-2.34l-5.49 0c-1.24,0 -2.42,1.18 -2.42,2.42z"/>
   <path class="fil2" d="M26.93 30.82l1.94 0 0 12.28c0,0.39 0.25,0.64 0.64,0.64l2.59 0 0 -1.29 -1.94 0 0 -11.63 1.94 0 0 -1.29 -5.17 0 0 1.29z"/>
   <polygon class="fil1" points="19.82,26.3 23.7,26.3 23.7,25.01 19.82,25.01 "/>
   <polygon class="fil1" points="19.82,31.47 23.7,31.47 23.7,30.18 19.82,30.18 "/>
   <polygon class="fil1" points="19.82,36.64 23.7,36.64 23.7,35.34 19.82,35.34 "/>
   <path class="fil1" d="M13.36 25.65c0,0.87 1.29,0.87 1.29,0 0,-0.86 -1.29,-0.86 -1.29,0z"/>
   <path class="fil1" d="M15.3 25.65c0,0.87 1.29,0.87 1.29,0 0,-0.86 -1.29,-0.86 -1.29,0z"/>
   <path class="fil1" d="M17.24 25.65c0,0.87 1.29,0.87 1.29,0 0,-0.86 -1.29,-0.86 -1.29,0z"/>
   <path class="fil1" d="M13.36 30.82c0,0.87 1.29,0.87 1.29,0 0,-0.87 -1.29,-0.87 -1.29,0z"/>
   <path class="fil1" d="M15.3 30.82c0,0.87 1.29,0.87 1.29,0 0,-0.87 -1.29,-0.87 -1.29,0z"/>
   <path class="fil1" d="M17.24 30.82c0,0.87 1.29,0.87 1.29,0 0,-0.87 -1.29,-0.87 -1.29,0z"/>
   <path class="fil1" d="M13.36 35.99c0,0.87 1.29,0.87 1.29,0 0,-0.87 -1.29,-0.87 -1.29,0z"/>
   <path class="fil1" d="M15.3 35.99c0,0.87 1.29,0.87 1.29,0 0,-0.87 -1.29,-0.87 -1.29,0z"/>
   <path class="fil1" d="M17.24 35.99c0,0.87 1.29,0.87 1.29,0 0,-0.87 -1.29,-0.87 -1.29,0z"/>
  </g>
 </g>
</svg>
