<?xml version="1.0" encoding="UTF-8"?>
<!DOCTYPE svg PUBLIC "-//W3C//DTD SVG 1.1//EN" "http://www.w3.org/Graphics/SVG/1.1/DTD/svg11.dtd">
<!-- Creator: CorelDRAW 2019 (64-Bit) -->
<svg xmlns="http://www.w3.org/2000/svg" xml:space="preserve" width="640px" height="640px" version="1.1" style="shape-rendering:geometricPrecision; text-rendering:geometricPrecision; image-rendering:optimizeQuality; fill-rule:evenodd; clip-rule:evenodd"
viewBox="0 0 72.75 72.75"
 xmlns:xlink="http://www.w3.org/1999/xlink">
 <defs>
  <style type="text/css">
   <![CDATA[
    .fil0 {fill:none}
    .fil2 {fill:#0A2155}
    .fil1 {fill:#FFC221}
   ]]>
  </style>
 </defs>
 <g id="Layer_x0020_1">
  <metadata id="CorelCorpID_0Corel-Layer"/>
  <rect class="fil0" width="72.75" height="72.75"/>
  <g id="_2042509108752">
   <path class="fil1" d="M21.26 22.64c-0.13,0 -0.26,-0.05 -0.35,-0.15l-2.77 -2.76c-0.19,-0.2 -0.19,-0.52 0,-0.72l2.77 -2.76c0.19,-0.2 0.51,-0.2 0.71,0 0.2,0.2 0.2,0.52 0,0.71l-2.4 2.41 2.4 2.4c0.2,0.2 0.2,0.52 0,0.72 -0.1,0.1 -0.23,0.15 -0.36,0.15l0 0z"/>
   <path class="fil1" d="M28.43 22.64c-0.13,0 -0.26,-0.05 -0.36,-0.15 -0.2,-0.2 -0.2,-0.52 0,-0.72l2.4 -2.4 -2.4 -2.41c-0.2,-0.19 -0.2,-0.51 0,-0.71 0.2,-0.2 0.52,-0.2 0.71,0l2.77 2.76c0.09,0.09 0.14,0.22 0.14,0.36 0,0.13 -0.05,0.26 -0.14,0.36l-2.77 2.76c-0.1,0.1 -0.22,0.15 -0.35,0.15l0 0z"/>
   <path class="fil1" d="M23.21 24.39c-0.06,0 -0.12,-0.01 -0.17,-0.03 -0.27,-0.1 -0.4,-0.39 -0.31,-0.65l3.27 -9.03c0.1,-0.26 0.39,-0.4 0.65,-0.3 0.27,0.09 0.4,0.38 0.31,0.65l-3.27 9.02c-0.08,0.21 -0.27,0.34 -0.48,0.34z"/>
   <path class="fil1" d="M44.33 48.51c-0.13,0 -0.26,-0.05 -0.36,-0.15l-2.76 -2.76c-0.2,-0.2 -0.2,-0.52 0,-0.72l2.76 -2.76c0.2,-0.2 0.52,-0.2 0.72,0 0.19,0.2 0.19,0.52 0,0.71l-2.41 2.41 2.41 2.4c0.19,0.2 0.19,0.52 0,0.72 -0.1,0.1 -0.23,0.15 -0.36,0.15l0 0z"/>
   <path class="fil1" d="M51.49 48.51c-0.13,0 -0.26,-0.05 -0.36,-0.15 -0.2,-0.2 -0.2,-0.52 0,-0.72l2.41 -2.4 -2.41 -2.41c-0.2,-0.19 -0.2,-0.51 0,-0.71 0.2,-0.2 0.52,-0.2 0.72,0l2.76 2.76c0.09,0.09 0.15,0.22 0.15,0.36 0,0.13 -0.06,0.26 -0.15,0.36l-2.76 2.76c-0.1,0.1 -0.23,0.15 -0.36,0.15l0 0z"/>
   <path class="fil1" d="M46.27 50.26c-0.05,0 -0.11,-0.01 -0.17,-0.03 -0.26,-0.1 -0.4,-0.39 -0.3,-0.65l3.27 -9.03c0.09,-0.26 0.38,-0.4 0.65,-0.3 0.26,0.09 0.4,0.38 0.3,0.65l-3.27 9.02c-0.08,0.21 -0.27,0.34 -0.48,0.34z"/>
   <path class="fil2" d="M31.05 51.13c0.28,0 0.51,-0.23 0.51,-0.51 0,-0.28 -0.23,-0.51 -0.51,-0.51l-2.02 0c-0.28,0 -0.51,0.23 -0.51,0.51 0,0.28 0.23,0.51 0.51,0.51l2.02 0z"/>
   <path class="fil2" d="M27 51.13c0.28,0 0.51,-0.23 0.51,-0.51 0,-0.28 -0.23,-0.51 -0.51,-0.51l-2.02 0c-0.28,0 -0.51,0.23 -0.51,0.51 0,0.28 0.23,0.51 0.51,0.51l2.02 0z"/>
   <path class="fil2" d="M42.37 22.64c0.28,0 0.51,-0.23 0.51,-0.51 0,-0.28 -0.23,-0.51 -0.51,-0.51l-2.02 0c-0.28,0 -0.51,0.23 -0.51,0.51 0,0.28 0.23,0.51 0.51,0.51l2.02 0z"/>
   <path class="fil2" d="M17.04 39.83c0,0.28 0.23,0.5 0.5,0.5 0.28,0 0.51,-0.22 0.51,-0.5l0 -2.03c0,-0.28 -0.23,-0.5 -0.51,-0.5 -0.27,0 -0.5,0.22 -0.5,0.5l0 2.03z"/>
   <path class="fil2" d="M23.46 50.62c0,0.28 -0.23,0.51 -0.51,0.51l-1.79 0c-0.25,1.77 -1.78,3.14 -3.61,3.14 -2.01,0 -3.65,-1.64 -3.65,-3.65 0,-1.84 1.37,-3.36 3.14,-3.6l0 -1.12c0,-0.28 0.23,-0.5 0.51,-0.5 0.27,0 0.5,0.22 0.5,0.5l0 1.12c1.61,0.22 2.88,1.49 3.1,3.09l1.8 0c0.28,0 0.51,0.23 0.51,0.51z"/>
   <path class="fil2" d="M17.54 36.28c0.28,0 0.51,-0.22 0.51,-0.5l0 -2.03c0,-0.28 -0.23,-0.5 -0.51,-0.5 -0.27,0 -0.5,0.22 -0.5,0.5l0 2.03c0,0.28 0.23,0.5 0.5,0.5z"/>
   <path class="fil2" d="M17.04 43.88c0,0.28 0.23,0.5 0.5,0.5 0.28,0 0.51,-0.22 0.51,-0.5l0 -2.03c0,-0.28 -0.23,-0.5 -0.51,-0.5 -0.27,0 -0.5,0.22 -0.5,0.5l0 2.03z"/>
   <path class="fil2" d="M55.21 29.72c-0.28,0 -0.51,0.23 -0.51,0.51l0 2.03c0,0.27 0.23,0.5 0.51,0.5 0.28,0 0.5,-0.23 0.5,-0.5l0 -2.03c0,-0.28 -0.22,-0.51 -0.5,-0.51z"/>
   <path class="fil2" d="M46.42 22.64c0.28,0 0.51,-0.23 0.51,-0.51 0,-0.28 -0.23,-0.51 -0.51,-0.51l-2.02 0c-0.28,0 -0.51,0.23 -0.51,0.51 0,0.28 0.23,0.51 0.51,0.51l2.02 0z"/>
   <path class="fil2" d="M36.01 10.86l-22.33 0c-1.72,0 -3.12,1.39 -3.12,3.11l0 14.42c0,1.71 1.4,3.11 3.12,3.11l8.74 0 -1.34 3.51 -0.67 0c-0.28,0 -0.51,0.23 -0.51,0.51 0,0.28 0.23,0.51 0.51,0.51l8.87 0c0.28,0 0.51,-0.23 0.51,-0.51 0,-0.28 -0.23,-0.51 -0.51,-0.51l-0.67 0 -1.34 -3.51 8.74 0c1.72,0 3.12,-1.4 3.12,-3.11l0 -14.42c0,-1.72 -1.4,-3.11 -3.12,-3.11l0 0zm-8.48 24.15l-5.37 0 1.34 -3.51 2.69 0 1.34 3.51zm10.59 -10.25c0,1.16 -0.95,2.11 -2.11,2.11l-22.33 0c-1.16,0 -2.11,-0.95 -2.11,-2.11l0 -10.79c0,-1.16 0.95,-2.1 2.11,-2.1l22.33 0c1.16,0 2.11,0.94 2.11,2.1l0 10.79z"/>
   <path class="fil2" d="M59.08 36.72l-3.61 0c0.14,-0.08 0.24,-0.23 0.24,-0.42l0 -2.02c0,-0.28 -0.22,-0.51 -0.5,-0.51 -0.28,0 -0.51,0.23 -0.51,0.51l0 2.02c0,0.19 0.1,0.34 0.24,0.42l-18.2 0c-1.72,0 -3.12,1.41 -3.12,3.12l0 10.27 -0.54 0c-0.28,0 -0.51,0.23 -0.51,0.51 0,0.28 0.23,0.51 0.51,0.51l0.54 0 0 3.12c0,1.73 1.4,3.12 3.12,3.12l8.74 0 -1.34 3.52 -0.67 0c-0.28,0 -0.5,0.22 -0.5,0.5 0,0.28 0.22,0.51 0.5,0.51l8.87 0c0.28,0 0.51,-0.23 0.51,-0.51 0,-0.28 -0.23,-0.5 -0.51,-0.5l-0.66 0 -1.35 -3.52 8.75 0c1.71,0 3.11,-1.39 3.11,-3.12l0 -14.41c0,-1.71 -1.4,-3.12 -3.11,-3.12l0 0zm-8.49 24.17l-5.36 0 1.34 -3.52 2.68 0 1.34 3.52zm10.59 -10.26c0,1.16 -0.94,2.11 -2.1,2.11l-22.34 0c-1.16,0 -2.1,-0.95 -2.1,-2.11l0 -10.79c0,-1.16 0.94,-2.1 2.1,-2.1l22.34 0c1.16,0 2.1,0.94 2.1,2.1l0 10.79z"/>
   <path class="fil2" d="M55.29 25.69c0.24,0.04 0.42,0.24 0.42,0.49l0 2.02c0,0.28 -0.22,0.51 -0.5,0.51 -0.28,0 -0.51,-0.23 -0.51,-0.51l0 -2.02c0,-0.19 0.11,-0.34 0.26,-0.43 -0.15,0.01 -0.3,0.03 -0.45,0.03 -1.91,0 -3.49,-1.48 -3.63,-3.36 -0.1,0.12 -0.24,0.22 -0.41,0.22l-2.02 0c-0.28,0 -0.51,-0.23 -0.51,-0.51 0,-0.28 0.23,-0.51 0.51,-0.51l2.02 0c0.17,0 0.31,0.09 0.41,0.23 0.14,-1.88 1.72,-3.37 3.63,-3.37 2.01,0 3.64,1.64 3.64,3.65 0,1.74 -1.22,3.2 -2.86,3.56l0 0z"/>
  </g>
 </g>
</svg>
