<?xml version="1.0" encoding="UTF-8"?>
<!DOCTYPE svg PUBLIC "-//W3C//DTD SVG 1.1//EN" "http://www.w3.org/Graphics/SVG/1.1/DTD/svg11.dtd">
<!-- Creator: CorelDRAW -->
<svg xmlns="http://www.w3.org/2000/svg" xml:space="preserve" width="640px" height="640px" version="1.1" style="shape-rendering:geometricPrecision; text-rendering:geometricPrecision; image-rendering:optimizeQuality; fill-rule:evenodd; clip-rule:evenodd"
viewBox="0 0 50.09 50.09"
 xmlns:xlink="http://www.w3.org/1999/xlink"
 xmlns:xodm="http://www.corel.com/coreldraw/odm/2003">
 <defs>
  <style type="text/css">
   <![CDATA[
    .fil0 {fill:none}
    .fil1 {fill:#002155;fill-rule:nonzero}
    .fil2 {fill:#FFC221;fill-rule:nonzero}
   ]]>
  </style>
 </defs>
 <g id="Layer_x0020_1">
  <metadata id="CorelCorpID_0Corel-Layer"/>
  <rect class="fil0" width="50.09" height="50.09"/>
 </g>
 <g id="Capa_x0020_1">
  <metadata id="CorelCorpID_1Corel-Layer"/>
  <g id="_2173828528720">
   <g id="Page-1_66_">
    <g id="_3067---Interior-Design">
     <path id="Shape_254_" class="fil1" d="M12.16 42.62l25.77 0c0.97,0 1.76,-0.79 1.76,-1.76l0 -19.76 0.2 0.13c0.39,0.27 0.86,0.36 1.31,0.27 0.47,-0.1 0.88,-0.38 1.13,-0.79l0.01 0c0.51,-0.83 0.29,-1.92 -0.51,-2.48l-15.82 -10.46c-0.58,-0.39 -1.34,-0.39 -1.92,0l-15.83 10.47c-0.8,0.56 -1.02,1.65 -0.5,2.47 0.25,0.41 0.65,0.69 1.12,0.79 0.11,0.02 0.23,0.03 0.35,0.03 0.34,0 0.68,-0.1 0.96,-0.29l0.21 -0.14 0 19.76c0,0.97 0.79,1.76 1.76,1.76l0 0zm26.36 -1.76c0,0.32 -0.27,0.58 -0.59,0.58l-25.77 0c-0.32,0 -0.58,-0.26 -0.58,-0.58l0 -20.54 13.47 -8.9 13.47 8.9 0 20.54zm-28.98 -20.6c-0.12,0.09 -0.28,0.12 -0.42,0.09 -0.16,-0.03 -0.29,-0.13 -0.37,-0.26 -0.19,-0.29 -0.12,-0.67 0.16,-0.88l15.83 -10.47c0.09,-0.06 0.2,-0.09 0.31,-0.09 0.11,0 0.22,0.03 0.31,0.1l15.81 10.46c0.28,0.2 0.36,0.59 0.18,0.88 -0.09,0.13 -0.22,0.23 -0.38,0.26 -0.15,0.03 -0.3,0 -0.42,-0.09l-15.18 -10.03c-0.2,-0.13 -0.45,-0.13 -0.65,0l-15.18 10.03z"/>
     <path id="Shape_253_" class="fil2" d="M20.15 18.53c-0.68,-0.68 -1.78,-0.68 -2.46,0l-3.26 3.26c-0.68,0.68 -0.68,1.78 0,2.46l5.3 5.31 -3.26 3.26c-0.07,0.07 -0.12,0.15 -0.15,0.25l-1.37 4.78c-0.09,0.34 -0.03,0.7 0.19,0.98 0.21,0.29 0.54,0.45 0.89,0.45 0.11,0 0.21,-0.01 0.31,-0.04l4.78 -1.37c0.1,-0.03 0.18,-0.08 0.25,-0.15l3.27 -3.26 5.3 5.31c0.68,0.67 1.78,0.67 2.46,0l3.26 -3.27c0.68,-0.68 0.68,-1.78 0,-2.46l-5.3 -5.3 4.49 -4.49c0.43,-0.43 0.68,-1.02 0.68,-1.64 0,-0.61 -0.25,-1.2 -0.68,-1.64l-1.63 -1.63c-0.44,-0.44 -1.03,-0.68 -1.64,-0.68 -0.62,0 -1.21,0.24 -1.64,0.68l-4.48 4.49 -5.31 -5.3zm-2.04 17.55c-0.35,-0.34 -0.76,-0.6 -1.21,-0.78l0.36 -1.27 2.03 0.87 0.87 2.03 -1.27 0.36c-0.18,-0.45 -0.44,-0.86 -0.78,-1.21l0 0zm2.32 -1.49l8.7 -8.7 1.21 1.21 -9.18 9.18 -0.73 -1.69zm7.49 -11.57l1.21 -1.21 3.25 3.25 -1.21 1.22 -3.25 -3.26zm0.38 2.04l-8.69 8.7 -1.7 -0.73 9.18 -9.18 1.21 1.21zm-13.04 -1.64c-0.23,-0.22 -0.23,-0.58 0,-0.8l3.26 -3.27c0.22,-0.22 0.58,-0.22 0.81,0l1.21 1.22 -1.21 1.22c-0.16,0.15 -0.22,0.37 -0.16,0.57 0.05,0.21 0.21,0.37 0.41,0.42 0.21,0.05 0.43,-0.01 0.57,-0.16l1.22 -1.22 1.22 1.21 -0.81 0.82c-0.16,0.14 -0.22,0.36 -0.16,0.56 0.05,0.21 0.21,0.37 0.41,0.42 0.21,0.06 0.43,0 0.57,-0.16l0.81 -0.81 1.22 1.22 -4.07 4.07 -5.3 -5.31zm0.84 14.67l0.47 -1.65c0.53,0.22 0.96,0.65 1.18,1.18l-1.65 0.47zm14.65 -7.31l-0.81 0.81c-0.15,0.15 -0.22,0.36 -0.16,0.57 0.05,0.2 0.21,0.36 0.42,0.42 0.2,0.05 0.42,-0.01 0.57,-0.16l0.81 -0.81 1.21 1.21 -1.22 1.22c-0.15,0.14 -0.21,0.36 -0.16,0.57 0.05,0.2 0.21,0.36 0.42,0.42 0.2,0.05 0.42,-0.01 0.57,-0.16l1.22 -1.22 1.22 1.22c0.22,0.22 0.22,0.58 0,0.8l-3.27 3.27c-0.22,0.22 -0.58,0.22 -0.8,0l-5.31 -5.31 4.08 -4.07 1.21 1.22zm0.83 -10.95c0.3,0 0.59,0.12 0.81,0.34l1.63 1.63c0.45,0.45 0.45,1.18 0,1.62l-0.81 0.82 -3.25 -3.26 0.81 -0.81c0.21,-0.21 0.5,-0.34 0.81,-0.34z"/>
    </g>
   </g>
  </g>
 </g>
</svg>
