<?xml version="1.0" encoding="UTF-8"?>
<!DOCTYPE svg PUBLIC "-//W3C//DTD SVG 1.1//EN" "http://www.w3.org/Graphics/SVG/1.1/DTD/svg11.dtd">
<!-- Creator: CorelDRAW 2019 (64-Bit) -->
<svg xmlns="http://www.w3.org/2000/svg" xml:space="preserve" width="640px" height="640px" version="1.1" style="shape-rendering:geometricPrecision; text-rendering:geometricPrecision; image-rendering:optimizeQuality; fill-rule:evenodd; clip-rule:evenodd"
viewBox="0 0 32.77 32.77"
 xmlns:xlink="http://www.w3.org/1999/xlink">
 <defs>
  <style type="text/css">
   <![CDATA[
    .fil0 {fill:none}
    .fil1 {fill:#007699}
    .fil2 {fill:#007699;fill-rule:nonzero}
    .fil3 {fill:#F7901E;fill-rule:nonzero}
   ]]>
  </style>
 </defs>
 <g id="Layer_x0020_1">
  <metadata id="CorelCorpID_0Corel-Layer"/>
  <rect class="fil0" width="32.77" height="32.77"/>
 </g>
 <g id="Capa_x0020_1">
  <metadata id="CorelCorpID_1Corel-Layer"/>
  <g id="Java-horz-wht.svg">
   <path class="fil1" d="M25.43 20l0 -0.86 -0.31 0c-0.7,0 -1.05,0.22 -1.05,0.65 0,0.38 0.18,0.57 0.56,0.57 0.25,0 0.52,-0.12 0.8,-0.36zm0.74 0.83l-0.58 0 -0.06 -0.39c-0.36,0.31 -0.73,0.46 -1.11,0.46 -0.73,0 -1.09,-0.33 -1.09,-1 0,-0.38 0.15,-0.67 0.44,-0.89 0.32,-0.22 0.79,-0.34 1.4,-0.34l0.26 0 0 -0.32c0,-0.43 -0.25,-0.64 -0.75,-0.64 -0.32,0 -0.67,0.07 -1.05,0.2l-0.11 -0.45c0.45,-0.2 0.9,-0.3 1.37,-0.3 0.85,0 1.28,0.37 1.28,1.09l0 2.58zm-3.06 -3.6c-0.23,1.33 -0.6,2.53 -1.11,3.6l-0.92 0 -1.1 -3.6 0.8 0 0.69 2.21 0.15 0.67c0.35,-0.99 0.59,-1.95 0.71,-2.88l0.78 0zm-4.35 2.77l0 -0.86 -0.31 0c-0.7,0 -1.05,0.22 -1.05,0.65 0,0.38 0.19,0.57 0.56,0.57 0.25,0 0.52,-0.12 0.8,-0.36zm0.74 0.83l-0.58 0 -0.06 -0.39c-0.36,0.31 -0.73,0.46 -1.11,0.46 -0.73,0 -1.09,-0.33 -1.09,-1 0,-0.38 0.15,-0.67 0.44,-0.89 0.32,-0.22 0.79,-0.34 1.4,-0.34l0.26 0 0 -0.32c0,-0.43 -0.25,-0.64 -0.74,-0.64 -0.33,0 -0.68,0.07 -1.06,0.2l-0.11 -0.45c0.45,-0.2 0.91,-0.3 1.37,-0.3 0.85,0 1.28,0.37 1.28,1.09l0 2.58zm-3.51 -0.51c0,0.79 -0.26,1.38 -0.79,1.77l-0.39 -0.32c0.17,-0.2 0.28,-0.43 0.34,-0.71 0.04,-0.19 0.06,-0.45 0.06,-0.78l0 -4.33 0.78 0 0 4.37zm10.69 -2.49l0.13 0 0 -0.49 0.17 0 0 -0.1 -0.47 0 0 0.1 0.17 0 0 0.49zm0.99 0l0.12 0 0 -0.59 -0.18 0 -0.15 0.4 -0.17 -0.4 -0.17 0 0 0.59 0.11 0 0 -0.45 0.01 0 0.17 0.45 0.09 0 0.17 -0.45 0 0.45z"/>
   <g>
    <path class="fil2" d="M10.71 18.6c-0.28,0.08 -0.92,0.21 -1.84,0.21 -0.89,0 -1.63,-0.15 -1.63,-0.33 0,-0.12 0.15,-0.18 0.15,-0.18l-0.03 -0.01c-0.43,0.07 -0.83,0.19 -0.83,0.37 0.01,0.32 1.23,0.56 2.34,0.56 0.95,0 1.86,-0.16 2.27,-0.37l-0.43 -0.25zm-3.03 0.99c-0.2,0.03 -0.63,0.13 -0.63,0.35 0,0.29 0.92,0.51 1.82,0.51 1.23,0 1.74,-0.32 1.76,-0.33l-0.51 -0.3c-0.22,0.05 -0.59,0.13 -1.25,0.13 -0.74,0 -1.22,-0.12 -1.22,-0.26 0,-0.03 0.02,-0.06 0.05,-0.09l-0.02 -0.01zm5.04 -1.97c-0.03,0.66 -0.65,1.07 -1.26,1.42l0.06 0.03c0.65,-0.18 1.81,-0.72 1.72,-1.54 -0.05,-0.41 -0.42,-0.7 -0.91,-0.7 -0.15,0 -0.29,0.03 -0.4,0.06l0 0 -0.02 0.06c0.43,-0.09 0.83,0.23 0.81,0.67zm-3.87 3.88c1.72,-0.01 3.64,-0.35 3.64,-0.91 -0.01,-0.1 -0.07,-0.17 -0.13,-0.22l-0.03 0.02c-0.16,0.44 -1.5,0.76 -3.48,0.78 -1.28,0.01 -3.05,-0.3 -3.05,-0.65 0,-0.36 0.84,-0.55 0.84,-0.55l-0.06 -0.04c-0.57,0.08 -1.61,0.35 -1.6,0.74 0,0.57 2.39,0.85 3.87,0.83l0 0zm-0.17 0.41c-0.69,0 -1.52,-0.05 -2.22,-0.17l-0.07 0.04c0.7,0.2 1.67,0.32 2.74,0.31 2.1,-0.01 3.8,-0.53 3.83,-1.16l-0.02 -0.01c-0.14,0.17 -1.05,0.96 -4.26,0.99l0 0zm-2.63 -4.44c0,-0.32 1.2,-0.5 1.76,-0.54l0.05 0.03c-0.21,0.04 -1.08,0.19 -1.08,0.39 0,0.22 1.33,0.36 2.09,0.36 1.3,0 2.19,-0.2 2.43,-0.26l0.33 0.19c-0.23,0.11 -1.21,0.4 -2.76,0.4 -1.72,0 -2.82,-0.33 -2.82,-0.57l0 0zm0 0l0 0 0 0z"/>
   </g>
   <g>
    <path class="fil3" d="M11.26 13.05l-0.03 -0.02c-0.53,0.18 -2.14,0.81 -2.14,2 0,0.67 0.66,1.04 0.66,1.67 0,0.23 -0.13,0.44 -0.23,0.56l0.05 0.03c0.27,-0.17 0.75,-0.56 0.75,-1.05 0,-0.42 -0.58,-0.93 -0.58,-1.47 0,-0.85 1.12,-1.52 1.52,-1.72l0 0zm-0.79 -1.56c0,1.76 -2.41,2.43 -2.41,3.68 0,0.88 0.58,1.43 0.9,1.77l-0.03 0.02c-0.4,-0.26 -1.47,-0.89 -1.47,-1.95 0,-1.48 2.77,-2.19 2.77,-3.87 0,-0.21 -0.04,-0.37 -0.06,-0.45l0.03 -0.02c0.09,0.11 0.27,0.39 0.27,0.82l0 0zm0 0l0 0 0 0z"/>
   </g>
  </g>
 </g>
</svg>
