<?xml version="1.0" encoding="UTF-8"?>
<!DOCTYPE svg PUBLIC "-//W3C//DTD SVG 1.1//EN" "http://www.w3.org/Graphics/SVG/1.1/DTD/svg11.dtd">
<!-- Creator: CorelDRAW 2019 (64-Bit) -->
<svg xmlns="http://www.w3.org/2000/svg" xml:space="preserve" width="640px" height="640px" version="1.1" style="shape-rendering:geometricPrecision; text-rendering:geometricPrecision; image-rendering:optimizeQuality; fill-rule:evenodd; clip-rule:evenodd"
viewBox="0 0 32.77 32.77"
 xmlns:xlink="http://www.w3.org/1999/xlink">
 <defs>
  <style type="text/css">
   <![CDATA[
    .fil0 {fill:none}
    .fil1 {fill:#0A2155}
    .fil2 {fill:#FFC221}
   ]]>
  </style>
 </defs>
 <g id="Layer_x0020_1">
  <metadata id="CorelCorpID_0Corel-Layer"/>
  <rect class="fil0" width="32.77" height="32.77"/>
  <g id="_1953498029888">
   <path class="fil1" d="M27.74 6.38c-0.13,-0.79 -0.78,-1.11 -1.52,-1.11l-17.27 0c-0.45,0 -0.91,-0.02 -1.37,-0.03 -0.28,0 -0.56,0 -0.84,0 -0.2,0.01 -0.42,0.02 -0.62,0.05 -0.8,0.15 -1.12,0.74 -1.12,1.53l0 8.66c0,1.9 -0.03,3.81 0,5.71 0.01,0.94 -0.01,1.88 -0.02,2.82 0,0.63 0,1.25 0,1.88 0,0.23 0.01,0.46 0.01,0.68 0.01,0.11 0.01,0.25 0.03,0.36 0.14,0.79 0.77,1.1 1.53,1.11 3.33,0.01 6.65,0.02 9.98,0.02 2.28,0 4.55,0.01 6.82,0 0.77,-0.01 1.55,-0.01 2.32,-0.02 0.23,0 0.46,0 0.69,-0.01 0.08,0 0.21,0 0.29,-0.01 0.79,-0.14 1.12,-0.78 1.12,-1.53l0 -8.66c-0.01,-1.91 0.01,-3.81 0.02,-5.71 0,-1.27 0,-2.53 -0.01,-3.8 0,-0.44 0,-0.88 -0.01,-1.32 -0.01,-0.18 0,-0.45 -0.03,-0.62zm-21.87 1.77c0,-0.35 0.01,-0.71 0,-1.06 0,-0.31 -0.07,-0.72 0.27,-0.89 0.14,-0.07 2.63,-0.07 2.89,-0.07 2.01,-0.01 4.03,-0.01 6.04,-0.01 2.91,0.01 5.83,0.02 8.74,0.02 0.7,0.01 1.41,-0.02 2.11,-0.02 0.25,0.01 0.68,0 0.85,0.21 0.17,0.21 0.12,0.71 0.12,0.97l0 18.7c0,0.76 0.18,1.16 -0.78,1.16l-18.6 0c-0.34,0 -0.68,0.02 -1.01,0 -0.17,0 -0.38,-0.02 -0.5,-0.15 -0.17,-0.18 -0.13,-0.71 -0.13,-0.95l0 -17.91z"/>
   <path class="fil2" d="M20.24 22.69c-0.52,0.22 -1.16,0.78 -1.66,1.06 0.22,0.64 0.94,1.35 1.48,1.67 0.69,0.41 1.69,0.61 2.67,0.51 1.83,-0.17 3.23,-1.36 2.92,-3.42 -0.38,-2.56 -3.72,-2.76 -4.35,-3.62 -0.26,-0.36 -0.28,-0.89 0.05,-1.22 0.72,-0.72 1.81,-0.06 2.07,0.59 0.27,-0.11 0.56,-0.33 0.81,-0.49 0.25,-0.17 0.56,-0.33 0.81,-0.53 -0.12,-0.52 -0.97,-1.26 -1.66,-1.49 -1.51,-0.52 -3.69,-0.06 -4.22,1.76 -0.27,0.91 -0.06,1.88 0.39,2.55 0.95,1.38 3.34,1.62 3.82,2.48 0.85,1.52 -2.04,2.51 -3.13,0.15z"/>
   <path class="fil2" d="M15.26 22.71c0.05,1.56 -2.09,1.26 -2.6,0.03 -0.58,0.24 -1.2,0.78 -1.74,1 0.16,0.54 0.9,1.3 1.3,1.56 1.35,0.86 3.18,0.93 4.37,-0.1 0.39,-0.34 0.87,-1.23 0.85,-2.03l0.01 -7.59 -2.14 0c0,0.43 0.03,6.78 -0.02,7.05l-0.03 0.08z"/>
  </g>
 </g>
</svg>
