<?xml version="1.0" encoding="UTF-8"?>
<svg id="Layer_1" xmlns="http://www.w3.org/2000/svg" version="1.1" viewBox="0 0 155.6 155.6">
  <!-- Generator: Adobe Illustrator 29.1.0, SVG Export Plug-In . SVG Version: 2.1.0 Build 142)  -->
  <defs>
    <style>
      .st0 {
        fill: #fff;
      }

      .st0, .st1 {
        fill-rule: evenodd;
      }

      .st1 {
        fill: #326ce5;
      }
    </style>
  </defs>
  <path class="st1" d="M76.4,24.9c-1,0-1.9.3-2.8.7l-38.6,18.4c-2,1-3.5,2.8-4,5l-9.5,41.4c-.1.5-.2,1.1-.2,1.6,0,1.4.4,2.8,1.2,4,.1.2.3.4.4.6l26.7,33.2c1.4,1.7,3.5,2.8,5.8,2.8h42.9s0,0,0,0c2.2,0,4.4-1,5.8-2.8l26.7-33.2c1-1.3,1.6-2.9,1.6-4.6s0-1.1-.2-1.6l-9.5-41.4c-.5-2.2-2-4-4-5l-38.6-18.4c-1-.5-2.1-.7-3.2-.7s-.3,0-.4,0h0Z"/>
  <path class="st0" d="M79.7,57c5.3.6,10.1,3,13.8,6.7l-9.9,7h0c-.9.6-2.1.5-2.8-.4-.3-.4-.4-.8-.4-1.2h0s-.7-12.1-.7-12.1ZM97.2,68.2c1.3,2.2,2.4,4.6,3,7.3.6,2.6.8,5.2.5,7.7l-11.7-3.4h0c-1-.3-1.7-1.4-1.4-2.5,0-.4.3-.8.6-1.1h0s9-8.1,9-8.1ZM86.9,86.8c.2,0,.3,0,.5,0h0s12,2,12,2c-1.8,4.9-5.1,9.2-9.6,12.1l-4.7-11.3h0c-.4-1,0-2.2,1-2.7.3-.1.5-.2.8-.2ZM76.7,91.7c.3,0,.6,0,1,.2.4.2.7.5.9.9h0l5.9,10.6c-.8.3-1.5.5-2.4.7-4.5,1-9,.7-13-.7l5.9-10.6h0c.4-.7,1-1.1,1.7-1.1ZM66.6,86.8c.9,0,1.7.7,2,1.6.1.4,0,.9-.1,1.3h0s-4.6,11.2-4.6,11.2c-4.3-2.8-7.8-6.9-9.6-12l11.9-2h0c.1,0,.3,0,.4,0h0ZM73.9,57l-.7,12.1h0c0,1.1-.9,2-2,2s-.9-.1-1.2-.4h0s-9.9-7-9.9-7c3.1-3,7-5.2,11.5-6.2.8-.2,1.6-.3,2.5-.4ZM56.4,68.2l9.1,8.1h0c.8.8.9,2,.3,2.9-.3.4-.7.6-1.1.7h0s-11.6,3.4-11.6,3.4c-.6-5.4.7-10.7,3.4-15.1ZM74.9,76.9h3.7l2.3,2.9-.8,3.6-3.3,1.6-3.3-1.6-.8-3.6,2.3-2.9ZM76.8,39c-1.3,0-2.3,1.1-2.3,2.6,0,0,0,0,0,0,0,.2,0,.4,0,.6,0,.8.2,1.4.3,2.2.2,1.6.4,2.9.3,4.2,0,.5-.4.9-.8,1.2v1c-1.4.1-2.8.3-4.2.6-6,1.4-11.2,4.5-15.1,8.6-.3-.2-.7-.5-.8-.6-.4,0-.8.2-1.4-.1-1-.7-2-1.7-3.1-2.8-.5-.6-.9-1.1-1.5-1.6-.1-.1-.4-.3-.5-.4-.5-.4-1.1-.6-1.6-.6-.7,0-1.4.3-1.8.8-.8,1-.5,2.5.6,3.4,0,0,0,0,0,0,.2.1.3.3.5.4.7.5,1.3.7,1.9,1.1,1.4.9,2.5,1.6,3.4,2.4.4.4.4,1,.5,1.3l.7.7c-4,6-5.8,13.3-4.7,20.8l-1,.3c-.3.3-.6.8-1,1-1.2.4-2.5.5-4.1.7-.8,0-1.4,0-2.2.2-.2,0-.4,0-.6.1,0,0,0,0,0,0,0,0,0,0,0,0-1.4.3-2.2,1.6-2,2.8.3,1.2,1.6,2,3,1.7,0,0,0,0,0,0,0,0,0,0,0,0,.2,0,.4,0,.6-.1.8-.2,1.4-.5,2.1-.8,1.5-.5,2.8-1,4-1.2.5,0,1.1.3,1.3.5l1-.2c2.3,7.2,7.2,13,13.3,16.6l-.4,1c.2.4.3.9.2,1.3-.4,1.2-1.2,2.4-2.1,3.8-.4.6-.9,1.1-1.2,1.8,0,.2-.2.4-.3.6-.6,1.3-.2,2.7,1,3.3,1.1.6,2.6,0,3.2-1.3,0,0,0,0,0,0,0,0,0,0,0,0,0-.2.2-.4.3-.6.3-.8.4-1.4.7-2.1.6-1.5.9-3.1,1.8-4.2.2-.3.6-.4,1-.5l.5-.9c5.4,2.1,11.4,2.6,17.4,1.2,1.4-.3,2.7-.7,4-1.2.1.3.4.8.5.9.4.1.8.2,1.2.7.6,1.1,1.1,2.3,1.6,3.9.2.7.3,1.4.7,2.1,0,.2.2.4.3.6.6,1.3,2,1.9,3.2,1.3,1.1-.5,1.6-2,1-3.3,0-.2-.2-.4-.3-.6-.4-.7-.8-1.2-1.2-1.8-.9-1.4-1.6-2.5-2-3.7-.2-.6,0-1,.2-1.4,0-.1-.3-.7-.4-.9,6.4-3.8,11.1-9.8,13.3-16.8.3,0,.8.1,1,.2.3-.2.7-.5,1.3-.5,1.2.2,2.5.6,4,1.2.7.3,1.3.6,2.1.8.2,0,.4,0,.6.1,0,0,0,0,0,0,0,0,0,0,0,0,1.4.3,2.7-.5,3-1.7.3-1.2-.6-2.5-2-2.8-.2,0-.5-.1-.7-.2-.8-.2-1.5-.1-2.2-.2-1.6-.2-3-.3-4.1-.7-.5-.2-.8-.8-1-1l-.9-.3c.5-3.5.4-7.1-.5-10.8-.8-3.7-2.3-7-4.3-10,.2-.2.7-.6.8-.7,0-.4,0-.8.4-1.3.9-.9,2.1-1.6,3.4-2.4.7-.4,1.3-.6,1.9-1.1.1-.1.4-.3.5-.4,1.1-.9,1.4-2.4.6-3.4-.8-1-2.3-1.1-3.4-.2-.2.1-.4.3-.5.4-.6.5-1,1.1-1.5,1.6-1.1,1.2-2.1,2.1-3.1,2.8-.4.3-1.1.2-1.4.2l-.9.6c-5-5.3-11.8-8.6-19.2-9.3,0-.3,0-.9,0-1-.3-.3-.7-.5-.8-1.2-.1-1.2,0-2.6.3-4.2.1-.8.3-1.4.3-2.2,0-.2,0-.5,0-.7,0-1.4-1-2.6-2.3-2.6h0Z"/>
</svg>