<?xml version="1.0" encoding="UTF-8"?>
<!DOCTYPE svg PUBLIC "-//W3C//DTD SVG 1.1//EN" "http://www.w3.org/Graphics/SVG/1.1/DTD/svg11.dtd">
<!-- Creator: CorelDRAW 2019 (64-Bit) -->
<svg xmlns="http://www.w3.org/2000/svg" xml:space="preserve" width="640px" height="640px" version="1.1" style="shape-rendering:geometricPrecision; text-rendering:geometricPrecision; image-rendering:optimizeQuality; fill-rule:evenodd; clip-rule:evenodd"
viewBox="0 0 66.62 66.62"
 xmlns:xlink="http://www.w3.org/1999/xlink">
 <defs>
  <style type="text/css">
   <![CDATA[
    .fil0 {fill:none}
    .fil1 {fill:#0A2155}
    .fil2 {fill:#FFC221}
   ]]>
  </style>
 </defs>
 <g id="Layer_x0020_1">
  <metadata id="CorelCorpID_0Corel-Layer"/>
  <rect class="fil0" width="66.62" height="66.62"/>
  <path class="fil1" d="M56.4 12.97c-0.27,-1.6 -1.59,-2.26 -3.1,-2.26l-35.1 0c-0.93,0 -1.85,-0.04 -2.78,-0.05 -0.57,-0.01 -1.15,-0.02 -1.72,0 -0.4,0.01 -0.85,0.02 -1.25,0.1 -1.64,0.3 -2.29,1.51 -2.29,3.1l0 17.6c0,3.88 -0.05,7.75 0,11.63 0.02,1.9 -0.02,3.82 -0.03,5.72 -0.01,1.28 -0.01,2.55 0,3.83 0,0.46 0.01,0.92 0.02,1.38 0.01,0.22 0.01,0.51 0.05,0.72 0.3,1.63 1.56,2.25 3.11,2.26 6.77,0.02 13.53,0.04 20.3,0.05 4.62,0 9.25,0.01 13.87,-0.01 1.57,0 3.13,-0.01 4.7,-0.03 0.47,0 0.94,-0.01 1.41,-0.02 0.17,-0.01 0.43,0 0.6,-0.03 1.61,-0.28 2.26,-1.58 2.26,-3.11l0 -17.6c0,-3.87 0.04,-7.75 0.04,-11.62 0.01,-2.57 0.01,-5.14 0,-7.71 -0.01,-0.9 -0.02,-1.79 -0.04,-2.69 0,-0.36 0.01,-0.91 -0.05,-1.26zm-44.46 3.61c0,-0.73 0.01,-1.45 0,-2.18 0,-0.62 -0.16,-1.45 0.53,-1.79 0.3,-0.15 5.36,-0.14 5.89,-0.14 4.09,-0.03 8.18,-0.03 12.27,-0.02 5.93,0.01 11.85,0.04 17.78,0.04 1.43,0 2.87,-0.06 4.3,-0.04 0.5,0 1.36,-0.01 1.71,0.42 0.34,0.42 0.24,1.45 0.24,1.97l0 38.03c0,1.54 0.38,2.34 -1.58,2.34l-37.81 0.01c-0.68,0 -1.38,0.03 -2.06,0 -0.34,-0.01 -0.77,-0.04 -1.02,-0.3 -0.35,-0.38 -0.25,-1.45 -0.25,-1.94l0 -36.4z"/>
  <g id="_1953558968688">
   <path class="fil2" d="M32.97 37.99c0.34,0.09 1.67,0.03 2.11,0.03 -0.01,-0.85 -0.06,-7.1 0.03,-7.39 0.28,-0.08 1.26,-0.08 1.55,0 0.08,0.3 0.04,6.54 0.03,7.39 0.43,0.01 1.82,0.05 2.15,-0.03l0.01 -7.38c1.94,-0.09 1.6,0.95 1.6,2.89 0,0.88 -0.04,3.85 0.01,4.48 0.3,0.1 1.69,0.06 2.08,0.03 0.06,-2.08 0.01,-4.54 0.01,-6.69 0,-0.73 -0.34,-1.18 -0.77,-1.45 -0.54,-0.35 -3.45,-0.19 -4.31,-0.19 -0.68,0 -4.12,-0.08 -4.49,0.05l-0.01 8.26z"/>
   <path class="fil1" d="M29.51 34.06c-0.43,0 -3.39,0.05 -3.48,-0.04 -0.13,-0.12 -0.09,-3.01 -0.03,-3.4 0.47,-0.07 1.27,-0.02 1.77,-0.02 1.76,0 1.75,0.02 1.75,1.73 0,0.58 0,1.15 -0.01,1.73zm-5.56 3.93c0.43,0.07 1.5,0.03 2.04,0.03l-0.01 -3.02 3.54 0 0 2.99c0.27,0.07 1.9,0.07 2.18,0 0.06,-0.69 0.01,-4.02 0.01,-4.99 0,-1.31 0.35,-3.33 -1.65,-3.33l-5.86 -0.01c-0.35,0 -0.26,0.11 -0.26,0.77 0,1.96 -0.1,6.14 0.01,7.56z"/>
   <path class="fil1" d="M46.46 30.61c0.7,-0.02 1.59,-0.05 2.28,0 0.85,0.05 0.86,0.58 0.86,1.38 0,1.7 -0.34,1.4 -3.15,1.4l0.01 -2.78zm-2.37 7.37c0.3,0.1 1.94,0.05 2.36,0.04l0 -3.69 4.02 0c0.55,0 0.88,-0.19 1.12,-0.48 0.38,-0.45 0.26,-1.39 0.26,-2.19 0,-2.09 -1.17,-1.99 -2.5,-1.99 -1.52,0 -3.05,0 -4.57,0 -0.55,0 -0.71,-0.16 -0.71,0.37 0.03,2.23 -0.1,6.2 0.02,7.94z"/>
   <path class="fil1" d="M22.41 38.01l0.02 -0.9c-0.99,-0.05 -2.79,0 -3.92,0 -0.4,0 -0.92,0.11 -1.14,-0.21l-0.02 -7.13 -2.26 -0.01c0.11,1.42 -0.15,7.07 0.14,7.63 0.28,0.55 0.57,0.64 1.33,0.64 1.57,-0.01 4.61,0.08 5.85,-0.02z"/>
  </g>
 </g>
</svg>
