<?xml version="1.0" encoding="UTF-8"?>
<!DOCTYPE svg PUBLIC "-//W3C//DTD SVG 1.1//EN" "http://www.w3.org/Graphics/SVG/1.1/DTD/svg11.dtd">
<!-- Creator: CorelDRAW 2019 (64-Bit) -->
<svg xmlns="http://www.w3.org/2000/svg" xml:space="preserve" width="640px" height="640px" version="1.1" style="shape-rendering:geometricPrecision; text-rendering:geometricPrecision; image-rendering:optimizeQuality; fill-rule:evenodd; clip-rule:evenodd"
viewBox="0 0 119.2 119.2"
 xmlns:xlink="http://www.w3.org/1999/xlink">
 <defs>
  <style type="text/css">
   <![CDATA[
    .fil0 {fill:none}
    .fil1 {fill:#0A2155}
    .fil2 {fill:#FFC221}
   ]]>
  </style>
 </defs>
 <g id="Layer_x0020_1">
  <metadata id="CorelCorpID_0Corel-Layer"/>
  <rect class="fil0" width="119.2" height="119.2"/>
  <g id="_1927969103648">
   <g>
    <g>
     <path class="fil1" d="M59.83 9.31c-1.29,-0.01 -2.34,1.03 -2.35,2.32 -0.01,1.28 1.03,2.33 2.32,2.34 1.28,0.01 2.33,-1.02 2.34,-2.31 0.01,-1.28 -1.02,-2.33 -2.31,-2.35z"/>
    </g>
   </g>
   <g>
    <g>
     <path class="fil2" d="M59.72 23.28c-8.99,-0.06 -16.35,7.19 -16.42,16.18 -0.06,8.98 7.19,16.35 16.18,16.42 0.04,0 0.08,0 0.12,0 8.93,0 16.23,-7.23 16.3,-16.18 0.07,-8.98 -7.19,-16.35 -16.18,-16.42zm-0.12 27.94c-0.03,0 -0.06,0 -0.09,0 -6.41,-0.05 -11.6,-5.31 -11.55,-11.73 0.05,-6.39 5.26,-11.55 11.64,-11.55 0.03,0 0.06,0 0.09,0 6.42,0.05 11.6,5.31 11.55,11.73 -0.05,6.39 -5.26,11.55 -11.64,11.55z"/>
    </g>
   </g>
   <g>
    <g>
     <path class="fil1" d="M69.76 11.08c-1.21,-0.43 -2.54,0.2 -2.97,1.42 -0.43,1.21 0.2,2.54 1.41,2.97 10.26,3.63 17.09,13.4 17.01,24.3 -0.01,1.29 1.03,2.34 2.31,2.35 0.01,0 0.01,0 0.02,0 1.28,0 2.32,-1.03 2.33,-2.31 0.1,-12.89 -7.99,-24.43 -20.11,-28.73z"/>
    </g>
   </g>
   <g>
    <path class="fil1" d="M73.89 87.64c15.48,-19.93 25.16,-30.32 25.29,-47.76 0.16,-21.94 -17.64,-39.88 -39.58,-39.88 -21.69,0 -39.41,17.56 -39.58,39.28 -0.13,17.92 9.73,28.3 25.32,48.36 -15.51,2.32 -25.32,8.14 -25.32,15.27 0,4.77 4.41,9.05 12.42,12.05 7.29,2.74 16.94,4.24 27.16,4.24 10.22,0 19.87,-1.5 27.16,-4.24 8.01,-3 12.42,-7.28 12.42,-12.05 0,-7.12 -9.8,-12.95 -25.29,-15.27zm-49.21 -48.32c0.14,-19.17 15.78,-34.66 34.92,-34.66 19.36,0 35.07,15.83 34.92,35.18 -0.12,16.56 -10.38,26.77 -26.77,48.13 -2.92,3.81 -5.6,7.41 -8.14,10.93 -2.54,-3.52 -5.17,-7.06 -8.13,-10.93 -17.07,-22.26 -26.93,-31.69 -26.8,-48.65zm34.92 75.23c-19.99,0 -34.92,-6.15 -34.92,-11.64 0,-4.08 8.93,-9.23 23.94,-11.01 3.32,4.35 6.23,8.31 9.08,12.35 0.44,0.62 1.14,0.98 1.9,0.98 0,0 0,0 0,0 0.76,0 1.46,-0.36 1.9,-0.98 2.83,-3.98 5.82,-8.04 9.11,-12.35 14.99,1.79 23.91,6.93 23.91,11.01 0,5.49 -14.93,11.64 -34.92,11.64z"/>
   </g>
  </g>
 </g>
</svg>
