<?xml version="1.0" encoding="UTF-8"?>
<!DOCTYPE svg PUBLIC "-//W3C//DTD SVG 1.1//EN" "http://www.w3.org/Graphics/SVG/1.1/DTD/svg11.dtd">
<!-- Creator: CorelDRAW -->
<svg xmlns="http://www.w3.org/2000/svg" xml:space="preserve" width="640px" height="640px" version="1.1" style="shape-rendering:geometricPrecision; text-rendering:geometricPrecision; image-rendering:optimizeQuality; fill-rule:evenodd; clip-rule:evenodd"
viewBox="0 0 47.9 47.9"
 xmlns:xlink="http://www.w3.org/1999/xlink"
 xmlns:xodm="http://www.corel.com/coreldraw/odm/2003">
 <defs>
  <style type="text/css">
   <![CDATA[
    .str0 {stroke:#002155;stroke-width:0.18;stroke-miterlimit:22.9256}
    .fil0 {fill:none}
    .fil2 {fill:#002155;fill-rule:nonzero}
    .fil1 {fill:#FFC221;fill-rule:nonzero}
   ]]>
  </style>
 </defs>
 <g id="Layer_x0020_1">
  <metadata id="CorelCorpID_0Corel-Layer"/>
  <rect class="fil0" width="47.9" height="47.9"/>
  <path class="fil1" d="M41.47 15.04l-0.53 -0.34c0.04,-0.49 0.01,-0.97 -0.09,-1.45l0.49 -0.39c0.28,-0.23 0.36,-0.62 0.21,-0.94l-0.35 -0.71c-0.16,-0.33 -0.52,-0.5 -0.86,-0.42l-0.61 0.13c-0.32,-0.37 -0.68,-0.69 -1.09,-0.96l0.06 -0.63c0.04,-0.36 -0.17,-0.69 -0.51,-0.81l-0.76 -0.27c-0.34,-0.11 -0.71,0.02 -0.91,0.32l-0.33 0.53c-0.49,-0.04 -0.97,-0.01 -1.45,0.08l-0.4 -0.48c-0.23,-0.28 -0.62,-0.37 -0.94,-0.21l-0.72 0.35c-0.32,0.16 -0.5,0.51 -0.42,0.86l0.13 0.61c-0.37,0.31 -0.69,0.68 -0.96,1.08l-0.63 -0.06c-0.35,-0.04 -0.69,0.18 -0.81,0.52l-0.26 0.75c-0.11,0.34 0.02,0.71 0.32,0.91l0.53 0.34c-0.05,0.48 -0.02,0.97 0.08,1.44l-0.48 0.4c-0.29,0.23 -0.37,0.62 -0.22,0.94l0.35 0.71c0.16,0.32 0.51,0.5 0.87,0.42l0.61 -0.13c0.31,0.37 0.67,0.69 1.08,0.96l-0.06 0.63c-0.04,0.36 0.18,0.69 0.52,0.81l0.75 0.26c0.08,0.03 0.17,0.04 0.26,0.04 0.26,0 0.5,-0.13 0.65,-0.36l0.34 -0.52c0.48,0.04 0.97,0.01 1.44,-0.09l0.4 0.49c0.23,0.28 0.62,0.37 0.94,0.21l0.72 -0.35c0.33,-0.16 0.5,-0.51 0.43,-0.86l-0.14 -0.62c0.37,-0.31 0.69,-0.67 0.96,-1.08l0.63 0.07c0.36,0.03 0.69,-0.18 0.81,-0.52l0.26 -0.75c0.12,-0.34 -0.01,-0.72 -0.31,-0.91l0 0zm-0.83 1.17l-0.77 -0.08c-0.19,-0.01 -0.38,0.08 -0.48,0.25 -0.29,0.5 -0.66,0.92 -1.12,1.26 -0.16,0.12 -0.23,0.31 -0.18,0.51l0.16 0.75 -0.41 0.2 -0.49 -0.6c-0.12,-0.15 -0.32,-0.21 -0.51,-0.16 -0.55,0.15 -1.11,0.18 -1.68,0.09 -0.2,-0.03 -0.39,0.06 -0.49,0.23l-0.41 0.64 -0.43 -0.15 0.07 -0.76c0.02,-0.2 -0.07,-0.39 -0.24,-0.48 -0.5,-0.29 -0.93,-0.66 -1.26,-1.12 -0.12,-0.16 -0.32,-0.23 -0.51,-0.19l-0.74 0.16 -0.2 -0.4 0.59 -0.48c0.15,-0.13 0.22,-0.33 0.16,-0.52 -0.14,-0.55 -0.18,-1.11 -0.09,-1.68 0.03,-0.19 -0.06,-0.38 -0.22,-0.49l-0.65 -0.41 0.15 -0.43 0.76 0.07c0.2,0.03 0.38,-0.07 0.48,-0.24 0.29,-0.5 0.67,-0.92 1.12,-1.26 0.16,-0.12 0.23,-0.31 0.19,-0.51l-0.17 -0.75 0.42 -0.2 0.48 0.59c0.13,0.16 0.33,0.22 0.52,0.17 0.54,-0.15 1.11,-0.18 1.68,-0.1 0.19,0.03 0.39,-0.05 0.49,-0.22l0.41 -0.65 0.43 0.16 -0.08 0.76c-0.02,0.2 0.08,0.38 0.25,0.48 0.5,0.29 0.92,0.66 1.26,1.12 0.11,0.16 0.31,0.23 0.5,0.19l0.75 -0.17 0.19 0.41 -0.59 0.48c-0.15,0.13 -0.22,0.33 -0.17,0.51 0.15,0.56 0.19,1.12 0.1,1.69 -0.03,0.19 0.06,0.38 0.22,0.48l0.65 0.42 -0.14 0.43z"/>
  <path class="fil1" d="M36.58 11.91c-0.63,-0.22 -1.31,-0.19 -1.91,0.11 -0.6,0.29 -1.05,0.8 -1.28,1.43 -0.22,0.63 -0.18,1.31 0.11,1.91 0.43,0.89 1.33,1.41 2.26,1.41 0.37,0 0.74,-0.08 1.08,-0.25 1.25,-0.6 1.77,-2.1 1.17,-3.34 -0.29,-0.6 -0.8,-1.05 -1.43,-1.27zm-0.16 3.72c-0.75,0.36 -1.66,0.05 -2.02,-0.7 -0.18,-0.37 -0.2,-0.77 -0.07,-1.15 0.14,-0.39 0.41,-0.69 0.77,-0.87 0.21,-0.1 0.43,-0.15 0.66,-0.15 0.17,0 0.34,0.03 0.5,0.08 0.38,0.13 0.68,0.41 0.85,0.77 0.37,0.75 0.05,1.65 -0.69,2.02l0 0z"/>
 </g>
 <g id="Layer_x0020_1_1">
  <metadata id="CorelCorpID_1Corel-Layer"/>
  <path class="fil2 str0" d="M11.11 25.51c0,-0.23 0.19,-0.42 0.42,-0.42l21.57 0c0.23,0 0.41,0.19 0.41,0.42 0,0.23 -0.18,0.42 -0.41,0.42l-21.57 0c-0.23,0 -0.42,-0.19 -0.42,-0.42zm0.42 3.07l19.25 0c0.23,0 0.42,-0.19 0.42,-0.42 0,-0.24 -0.19,-0.42 -0.42,-0.42l-19.25 0c-0.23,0 -0.42,0.18 -0.42,0.42 0,0.23 0.19,0.42 0.42,0.42zm26.89 -7.95l0 13.82c0,0.74 -0.61,1.34 -1.34,1.34l-10.29 0 0 1.96 1.43 0.74c0.04,0.03 0.09,0.05 0.13,0.07 0.41,0.21 0.98,0.5 0.98,1.2 0,0.72 -0.58,1.3 -1.3,1.3l-9.38 0c-0.72,0 -1.31,-0.58 -1.31,-1.3 0,-0.7 0.57,-0.99 0.98,-1.2 0.05,-0.02 0.09,-0.04 0.13,-0.07l1.43 -0.74 0 -1.96 -10.28 0c-0.74,0 -1.34,-0.6 -1.34,-1.34l0 -20.98c0,-0.74 0.6,-1.34 1.34,-1.34l6.72 0 0 -4.35c0,-0.23 0.18,-0.42 0.42,-0.42l2.79 0c0.23,0 0.42,0.19 0.42,0.42l0 4.35 9.15 0 0 0.84 -9.15 0 0 3.59 1.43 0c0.16,0 0.3,0.09 0.37,0.22 0.07,0.14 0.07,0.31 -0.02,0.43l-3.25 4.9c-0.08,0.12 -0.21,0.19 -0.35,0.19 -0.14,0 -0.27,-0.07 -0.35,-0.19l-3.25 -4.9c-0.08,-0.12 -0.09,-0.29 -0.02,-0.43 0.08,-0.13 0.22,-0.22 0.37,-0.22l1.44 0 0 -3.59 -6.72 0c-0.28,0 -0.5,0.22 -0.5,0.5l0 17.67 28.48 0 0 -10.51 0.84 0zm-21.68 -3.23l-1.08 0 2.47 3.72 2.47 -3.72 -1.07 0c-0.23,0 -0.42,-0.19 -0.42,-0.42l0 -8.78 -1.96 0 0 8.78c0,0.23 -0.18,0.42 -0.41,0.42zm9.21 20.6l0 -2.21 -5.23 0 0 2.21c0,0.16 -0.08,0.3 -0.22,0.38l-1.66 0.86c-0.04,0.02 -0.09,0.04 -0.14,0.07 -0.4,0.2 -0.52,0.29 -0.52,0.44 0,0.26 0.21,0.47 0.47,0.47l9.38 0c0.26,0 0.47,-0.21 0.47,-0.47 0,-0.15 -0.13,-0.24 -0.53,-0.44 -0.05,-0.03 -0.09,-0.05 -0.14,-0.07l-1.65 -0.86c-0.14,-0.08 -0.23,-0.22 -0.23,-0.38zm11.63 -3.55l0 -2.48 -28.48 0 0 2.48c0,0.27 0.22,0.5 0.5,0.5l27.47 0c0.28,0 0.51,-0.23 0.51,-0.5z"/>
 </g>
</svg>
