<?xml version="1.0" encoding="UTF-8"?>
<!DOCTYPE svg PUBLIC "-//W3C//DTD SVG 1.1//EN" "http://www.w3.org/Graphics/SVG/1.1/DTD/svg11.dtd">
<!-- Creator: CorelDRAW 2019 (64-Bit) -->
<svg xmlns="http://www.w3.org/2000/svg" xml:space="preserve" width="640px" height="640px" version="1.1" style="shape-rendering:geometricPrecision; text-rendering:geometricPrecision; image-rendering:optimizeQuality; fill-rule:evenodd; clip-rule:evenodd"
viewBox="0 0 50.23 50.23"
 xmlns:xlink="http://www.w3.org/1999/xlink">
 <defs>
  <style type="text/css">
   <![CDATA[
    .fil0 {fill:none}
    .fil1 {fill:#333333}
    .fil4 {fill:#888888}
    .fil3 {fill:#CDCDCD}
    .fil5 {fill:#DD4814}
    .fil2 {fill:white;fill-rule:nonzero}
   ]]>
  </style>
 </defs>
 <g id="Layer_x0020_1">
  <metadata id="CorelCorpID_0Corel-Layer"/>
  <rect class="fil0" width="50.23" height="50.23"/>
 </g>
 <g id="Layer_x0020_1_0">
  <metadata id="CorelCorpID_1Corel-Layer"/>
  <g id="_2892418429280">
   <g>
    <g>
     <polygon class="fil1" points="15.88,12.61 34.37,23.28 43.81,18.17 25.32,7.5 "/>
     <path id="1" class="fil2" d="M34.32 23.36l-18.48 -10.67 0.09 -0.16 18.48 10.67 0 0.16 -0.09 0zm0.09 0l-0.05 0.02 -0.04 -0.02 0.09 0zm9.44 -5.11l-9.44 5.11 -0.09 -0.16 9.44 -5.11 0.09 0 0 0.16zm0 -0.16l0.14 0.08 -0.14 0.08 0 -0.16zm-18.48 -10.67l18.48 10.67 -0.09 0.16 -18.48 -10.68 0 -0.15 0.09 0zm-0.09 0l0.05 -0.03 0.04 0.03 -0.09 0zm-9.44 5.11l9.44 -5.11 0.09 0.16 -9.44 5.11 -0.09 0 0 -0.16zm0 0.16l-0.14 -0.09 0.14 -0.07 0 0.16z"/>
    </g>
    <g>
     <polygon class="fil3" points="6.44,17.72 15.68,23.05 25.12,17.94 15.88,12.61 "/>
     <path id="1" class="fil2" d="M15.64 23.13l-9.24 -5.33 0.09 -0.16 9.24 5.33 0 0.16 -0.09 0zm0.09 0l-0.05 0.03 -0.04 -0.03 0.09 0zm9.44 -5.11l-9.44 5.11 -0.09 -0.16 9.44 -5.11 0.09 0 0 0.16zm0 -0.16l0.14 0.08 -0.14 0.08 0 -0.16zm-9.24 -5.33l9.24 5.33 -0.09 0.16 -9.24 -5.33 0 -0.16 0.09 0zm-0.09 0l0.05 -0.03 0.04 0.03 -0.09 0zm-9.44 5.11l9.44 -5.11 0.09 0.16 -9.44 5.11 -0.09 0 0 -0.16zm0 0.16l-0.14 -0.08 0.14 -0.08 0 0.16z"/>
    </g>
    <g>
     <polygon class="fil3" points="6.39,21.33 15.63,26.67 15.63,23.15 6.39,17.81 "/>
     <path id="1" class="fil2" d="M15.58 26.75l-9.24 -5.34 0.09 -0.16 9.24 5.34 0.05 0.08 -0.14 0.08zm0.14 -0.08l0 0.16 -0.14 -0.08 0.14 -0.08zm0 -3.52l0 3.52 -0.18 0 0 -3.52 0.13 -0.08 0.05 0.08zm-0.05 -0.08l0.05 0.02 0 0.06 -0.05 -0.08zm-9.24 -5.34l9.24 5.34 -0.09 0.16 -9.24 -5.34 -0.05 -0.08 0.14 -0.08zm-0.14 0.08l0 -0.16 0.14 0.08 -0.14 0.08zm0 3.52l0 -3.52 0.19 0 0 3.52 -0.14 0.08 -0.05 -0.08zm0.05 0.08l-0.05 -0.03 0 -0.05 0.05 0.08z"/>
    </g>
    <g>
     <polygon class="fil4" points="6.39,24.94 24.87,35.61 24.87,32.09 6.39,21.42 "/>
     <path id="1" class="fil2" d="M24.82 35.69l-18.48 -10.67 0.09 -0.16 18.48 10.67 0.05 0.08 -0.14 0.08zm0.14 -0.08l0 0.16 -0.14 -0.08 0.14 -0.08zm0 -3.52l0 3.52 -0.18 0 0 -3.52 0.13 -0.08 0.05 0.08zm-0.05 -0.08l0.05 0.02 0 0.06 -0.05 -0.08zm-18.48 -10.67l18.48 10.67 -0.09 0.16 -18.48 -10.67 -0.05 -0.08 0.14 -0.08zm-0.14 0.08l0 -0.16 0.14 0.08 -0.14 0.08zm0 3.52l0 -3.52 0.19 0 0 3.52 -0.14 0.08 -0.05 -0.08zm0.05 0.08l-0.05 -0.03 0 -0.05 0.05 0.08z"/>
    </g>
    <g>
     <polygon class="fil5" points="6.39,32.05 24.87,42.72 24.87,35.68 6.39,25.01 "/>
     <path id="1" class="fil2" d="M24.82 42.8l-18.48 -10.67 0.09 -0.16 18.48 10.67 0.05 0.08 -0.14 0.08zm0.14 -0.08l0 0.16 -0.14 -0.08 0.14 -0.08zm0 -7.04l0 7.04 -0.18 0 0 -7.04 0.13 -0.08 0.05 0.08zm-0.05 -0.08l0.05 0.03 0 0.05 -0.05 -0.08zm-18.48 -10.67l18.48 10.67 -0.09 0.16 -18.48 -10.67 -0.05 -0.08 0.14 -0.08zm-0.14 0.08l0 -0.16 0.14 0.08 -0.14 0.08zm0 7.04l0 -7.04 0.19 0 0 7.04 -0.14 0.08 -0.05 -0.08zm0.05 0.08l-0.05 -0.03 0 -0.05 0.05 0.08z"/>
    </g>
    <g>
     <polygon class="fil3" points="15.63,26.64 25.08,21.53 25.08,18.01 15.63,23.12 "/>
     <path id="1" class="fil2" d="M25.12 21.61l-9.45 5.11 -0.09 -0.16 9.46 -5.11 0.13 0.08 -0.05 0.08zm0.05 -0.08l0 0.05 -0.05 0.03 0.05 -0.08zm0 -3.52l0 3.52 -0.18 0 0 -3.52 0.05 -0.08 0.13 0.08zm-0.13 -0.08l0.13 -0.08 0 0.16 -0.13 -0.08zm-9.46 5.11l9.46 -5.11 0.08 0.15 -9.45 5.12 -0.13 -0.08 0.04 -0.08zm-0.04 0.08l0 -0.05 0.04 -0.03 -0.04 0.08zm0 3.52l0 -3.52 0.18 0 0 3.52 -0.05 0.08 -0.13 -0.08zm0.13 0.08l-0.13 0.08 0 -0.16 0.13 0.08z"/>
    </g>
    <g>
     <polygon class="fil4" points="15.6,26.74 24.84,32.07 34.28,26.96 25.04,21.63 "/>
     <path id="1" class="fil2" d="M24.8 32.15l-9.24 -5.33 0.09 -0.16 9.24 5.33 0 0.16 -0.09 0zm0.09 0l-0.05 0.03 -0.04 -0.03 0.09 0zm9.44 -5.11l-9.44 5.11 -0.09 -0.16 9.44 -5.11 0.09 0 0 0.16zm0 -0.16l0.14 0.08 -0.14 0.08 0 -0.16zm-9.24 -5.33l9.24 5.33 -0.09 0.16 -9.24 -5.33 0 -0.16 0.09 0zm-0.09 0l0.04 -0.03 0.05 0.03 -0.09 0zm-9.44 5.11l9.44 -5.11 0.09 0.16 -9.44 5.11 -0.09 0 0 -0.16zm0 0.16l-0.15 -0.09 0.15 -0.07 0 0.16z"/>
    </g>
    <g>
     <polygon class="fil4" points="24.9,35.71 34.35,30.59 34.35,27.07 24.9,32.18 "/>
     <path id="1" class="fil2" d="M34.4 30.67l-9.46 5.11 -0.08 -0.15 9.45 -5.12 0.13 0.08 -0.04 0.08zm0.04 -0.08l0 0.05 -0.04 0.03 0.04 -0.08zm0 -3.52l0 3.52 -0.18 0 0 -3.52 0.05 -0.08 0.13 0.08zm-0.13 -0.08l0.13 -0.07 0 0.15 -0.13 -0.08zm-9.45 5.12l9.45 -5.12 0.09 0.16 -9.46 5.11 -0.13 -0.08 0.05 -0.07zm-0.05 0.07l0 -0.05 0.05 -0.02 -0.05 0.07zm0 3.53l0 -3.53 0.18 0 0 3.53 -0.05 0.07 -0.13 -0.07zm0.13 0.07l-0.13 0.08 0 -0.15 0.13 0.07z"/>
    </g>
    <g>
     <polygon class="fil5" points="24.92,42.73 43.88,32.47 43.88,25.43 24.92,35.69 "/>
     <path id="1" class="fil2" d="M43.92 32.55l-18.96 10.26 -0.08 -0.15 18.96 -10.27 0.13 0.08 -0.05 0.08zm0.05 -0.08l0 0.05 -0.05 0.03 0.05 -0.08zm0 -7.04l0 7.04 -0.18 0 0 -7.04 0.05 -0.08 0.13 0.08zm-0.13 -0.08l0.13 -0.07 0 0.15 -0.13 -0.08zm-18.96 10.26l18.96 -10.26 0.08 0.16 -18.96 10.26 -0.13 -0.08 0.05 -0.08zm-0.05 0.08l0 -0.05 0.05 -0.03 -0.05 0.08zm0 7.04l0 -7.04 0.18 0 0 7.04 -0.05 0.08 -0.13 -0.08zm0.13 0.08l-0.13 0.08 0 -0.16 0.13 0.08z"/>
    </g>
    <g>
     <polygon class="fil1" points="34.46,30.39 43.87,25.29 43.87,18.25 34.46,23.35 "/>
     <path id="1" class="fil2" d="M43.91 25.37l-9.41 5.1 -0.08 -0.16 9.41 -5.1 0.13 0.08 -0.05 0.08zm0.05 -0.08l0 0.06 -0.05 0.02 0.05 -0.08zm0 -7.04l0 7.04 -0.18 0 0 -7.04 0.05 -0.08 0.13 0.08zm-0.13 -0.08l0.13 -0.07 0 0.15 -0.13 -0.08zm-9.41 5.1l9.41 -5.1 0.08 0.16 -9.41 5.1 -0.13 -0.08 0.05 -0.08zm-0.05 0.08l0 -0.06 0.05 -0.02 -0.05 0.08zm0 7.04l0 -7.04 0.18 0 0 7.04 -0.05 0.08 -0.13 -0.08zm0.13 0.08l-0.13 0.07 0 -0.15 0.13 0.08z"/>
    </g>
    <g>
     <polygon class="fil1" points="25.13,21.57 34.37,26.9 34.37,23.38 25.13,18.05 "/>
     <path id="1" class="fil2" d="M34.33 26.98l-9.24 -5.33 0.09 -0.16 9.24 5.33 0.05 0.08 -0.14 0.08zm0.14 -0.08l0 0.16 -0.14 -0.08 0.14 -0.08zm0 -3.52l0 3.52 -0.19 0 0 -3.52 0.14 -0.08 0.05 0.08zm-0.05 -0.08l0.05 0.03 0 0.05 -0.05 -0.08zm-9.24 -5.33l9.24 5.33 -0.09 0.16 -9.24 -5.34 -0.05 -0.08 0.14 -0.07zm-0.14 0.07l0 -0.15 0.14 0.08 -0.14 0.07zm0 3.53l0 -3.53 0.18 0.01 0 3.52 -0.13 0.08 -0.05 -0.08zm0.05 0.08l-0.05 -0.03 0 -0.05 0.05 0.08z"/>
    </g>
   </g>
   <g>
    <polygon class="fil2" points="15.89,16.43 15.89,12.65 16.08,12.65 16.08,16.43 "/>
   </g>
   <g>
    <polygon class="fil2" points="15.91,16.35 25.3,21.59 25.21,21.75 15.82,16.51 "/>
   </g>
   <g>
    <polygon class="fil2" points="6.31,21.22 15.82,16.35 15.9,16.51 6.39,21.39 "/>
   </g>
  </g>
 </g>
</svg>
