<?xml version="1.0" encoding="UTF-8"?>
<!DOCTYPE svg PUBLIC "-//W3C//DTD SVG 1.1//EN" "http://www.w3.org/Graphics/SVG/1.1/DTD/svg11.dtd">
<!-- Creator: CorelDRAW 2019 (64-Bit) -->
<svg xmlns="http://www.w3.org/2000/svg" xml:space="preserve" width="640px" height="640px" version="1.1" style="shape-rendering:geometricPrecision; text-rendering:geometricPrecision; image-rendering:optimizeQuality; fill-rule:evenodd; clip-rule:evenodd"
viewBox="0 0 46.92 46.92"
 xmlns:xlink="http://www.w3.org/1999/xlink">
 <defs>
  <style type="text/css">
   <![CDATA[
    .fil0 {fill:none}
    .fil2 {fill:#0A2155;fill-rule:nonzero}
    .fil1 {fill:#FFC221;fill-rule:nonzero}
   ]]>
  </style>
 </defs>
 <g id="Layer_x0020_1">
  <metadata id="CorelCorpID_0Corel-Layer"/>
  <rect class="fil0" width="46.92" height="46.92"/>
 </g>
 <g id="Layer_x0020_3">
  <metadata id="CorelCorpID_1Corel-Layer"/>
  <path class="fil1" d="M29.77 27.03c0.29,-0.51 0.52,-1.06 0.68,-1.64l2.25 0 0 -3.86 -2.25 0c-0.16,-0.58 -0.39,-1.13 -0.68,-1.64l1.59 -1.6 -2.73 -2.73 -1.6 1.59c-0.51,-0.29 -1.06,-0.52 -1.64,-0.68l0 -2.26 -3.86 0 0 2.26c-0.58,0.16 -1.13,0.39 -1.64,0.68l-1.6 -1.59 -2.73 2.73 1.59 1.6c-0.29,0.51 -0.52,1.06 -0.68,1.64l-2.26 0 0 3.86 2.26 0c0.16,0.58 0.39,1.13 0.68,1.64l-1.59 1.6 2.73 2.73 1.6 -1.59c0.51,0.29 1.06,0.52 1.64,0.68l0 2.25 3.86 0 0 -2.25c0.58,-0.16 1.13,-0.39 1.64,-0.68l1.6 1.59 2.73 -2.73 -1.59 -1.6zm-2.6 1.51l-0.32 0.21c-0.63,0.4 -1.32,0.69 -2.04,0.85l-0.38 0.08 0 2.06 -1.94 0 0 -2.06 -0.38 -0.08c-0.73,-0.16 -1.41,-0.45 -2.04,-0.85l-0.33 -0.21 -1.45 1.46 -1.37 -1.37 1.46 -1.46 -0.21 -0.32c-0.4,-0.63 -0.69,-1.32 -0.85,-2.04l-0.08 -0.38 -2.06 0 0 -1.94 2.06 0 0.08 -0.38c0.16,-0.73 0.45,-1.41 0.85,-2.04l0.21 -0.33 -1.46 -1.45 1.37 -1.37 1.45 1.46 0.33 -0.21c0.63,-0.4 1.31,-0.69 2.04,-0.85l0.38 -0.08 0 -2.06 1.94 0 0 2.06 0.38 0.08c0.72,0.16 1.41,0.45 2.04,0.85l0.32 0.21 1.46 -1.46 1.37 1.37 -1.46 1.45 0.21 0.33c0.4,0.63 0.69,1.31 0.85,2.04l0.08 0.38 2.06 0 0 1.94 -2.06 0 -0.08 0.38c-0.16,0.72 -0.45,1.41 -0.85,2.04l-0.21 0.32 1.46 1.46 -1.37 1.37 -1.46 -1.46z"/>
  <path class="fil1" d="M23.46 18.63c-2.66,0 -4.83,2.17 -4.83,4.83 0,2.66 2.17,4.83 4.83,4.83 0.73,0 1.43,-0.16 2.08,-0.47l-0.41 -0.87c-0.53,0.25 -1.09,0.38 -1.67,0.38 -2.13,0 -3.87,-1.74 -3.87,-3.87 0,-2.13 1.74,-3.87 3.87,-3.87 2.13,0 3.86,1.74 3.86,3.87 0,0.58 -0.12,1.14 -0.37,1.67l0.87 0.41c0.31,-0.65 0.47,-1.35 0.47,-2.08 0,-2.66 -2.17,-4.83 -4.83,-4.83z"/>
  <polygon class="fil2" points="25.84,26.55 26.5,25.85 27.2,26.52 26.54,27.22 "/>
  <path class="fil2" d="M13.25 23.94l0 -0.96 -1.58 0 -0.97 -1.68 -2.49 0 -1.25 2.16 1.25 2.16 2.49 0 0.97 -1.68 1.58 0zm-3.11 0.71l-1.37 0 -0.69 -1.19 0.69 -1.19 1.37 0 0.69 1.19 -0.69 1.19z"/>
  <path class="fil2" d="M15.9 30.34l-1.12 1.12 -1.87 -0.5 -1.76 1.76 0.65 2.4 2.4 0.65 1.76 -1.76 -0.5 -1.87 1.12 -1.12 -0.68 -0.68zm-1.99 4.35l-1.32 -0.36 -0.36 -1.32 0.97 -0.98 1.33 0.36 0.36 1.33 -0.98 0.97z"/>
  <path class="fil2" d="M31.02 16.58l1.12 -1.12 1.87 0.5 1.76 -1.76 -0.65 -2.4 -2.4 -0.65 -1.76 1.76 0.5 1.87 -1.12 1.12 0.68 0.68zm1.99 -4.35l1.32 0.35 0.36 1.33 -0.97 0.97 -1.33 -0.35 -0.36 -1.33 0.98 -0.97z"/>
  <path class="fil2" d="M23.94 33.67l-0.96 0 0 1.58 -1.68 0.97 0 2.49 2.16 1.24 2.16 -1.24 0 -2.49 -1.68 -0.97 0 -1.58zm0.71 4.48l-1.19 0.69 -1.19 -0.69 0 -1.37 1.19 -0.69 1.19 0.69 0 1.37z"/>
  <path class="fil2" d="M22.98 13.25l0.96 0 0 -1.58 1.68 -0.97 0 -2.49 -2.16 -1.25 -2.16 1.25 0 2.49 1.68 0.97 0 1.58zm-0.71 -4.48l1.19 -0.69 1.19 0.69 0 1.37 -1.19 0.69 -1.19 -0.69 0 -1.37z"/>
  <path class="fil2" d="M38.71 21.3l-2.49 0 -0.97 1.68 -1.58 0 0 0.96 1.58 0 0.97 1.68 2.49 0 1.24 -2.16 -1.24 -2.16zm-0.56 3.35l-1.37 0 -0.69 -1.19 0.69 -1.19 1.37 0 0.69 1.19 -0.69 1.19z"/>
  <path class="fil2" d="M32.14 31.46l-1.12 -1.12 -0.68 0.68 1.12 1.12 -0.5 1.87 1.76 1.76 2.4 -0.65 0.65 -2.4 -1.76 -1.76 -1.87 0.5zm2.19 2.87l-1.32 0.36 -0.98 -0.97 0.36 -1.33 1.33 -0.36 0.97 0.98 -0.36 1.32z"/>
  <path class="fil2" d="M14.78 15.46l1.12 1.12 0.68 -0.68 -1.12 -1.12 0.5 -1.87 -1.76 -1.76 -2.4 0.65 -0.65 2.4 1.76 1.76 1.87 -0.5zm-2.2 -2.88l1.33 -0.35 0.97 0.97 -0.35 1.33 -1.33 0.35 -0.97 -0.97 0.35 -1.33z"/>
  <polygon class="fil2" points="22.98,22.01 23.94,22.01 23.94,21.04 22.98,21.04 "/>
  <polygon class="fil2" points="24.91,22.98 25.88,22.98 25.88,22.01 24.91,22.01 "/>
 </g>
</svg>
