<?xml version="1.0" encoding="UTF-8"?>
<!DOCTYPE svg PUBLIC "-//W3C//DTD SVG 1.1//EN" "http://www.w3.org/Graphics/SVG/1.1/DTD/svg11.dtd">
<!-- Creator: CorelDRAW 2019 (64-Bit) -->
<svg xmlns="http://www.w3.org/2000/svg" xml:space="preserve" width="640px" height="640px" version="1.1" style="shape-rendering:geometricPrecision; text-rendering:geometricPrecision; image-rendering:optimizeQuality; fill-rule:evenodd; clip-rule:evenodd"
viewBox="0 0 37.62 37.62"
 xmlns:xlink="http://www.w3.org/1999/xlink">
 <defs>
  <style type="text/css">
   <![CDATA[
    .fil0 {fill:none}
    .fil1 {fill:#0A2155}
    .fil2 {fill:#FFC221}
    .fil3 {fill:#0A2155;fill-rule:nonzero}
   ]]>
  </style>
 </defs>
 <g id="Layer_x0020_1">
  <metadata id="CorelCorpID_0Corel-Layer"/>
  <rect class="fil0" width="37.62" height="37.62"/>
  <path class="fil1" d="M31.85 7.02c-0.15,-0.9 -0.9,-1.28 -1.75,-1.28l-19.82 0c-0.52,0 -1.05,-0.02 -1.57,-0.03 -0.32,0 -0.65,-0.01 -0.97,0 -0.23,0.01 -0.49,0.02 -0.71,0.06 -0.93,0.17 -1.29,0.85 -1.29,1.75l0 9.94c0,2.19 -0.03,4.38 0,6.57 0.01,1.07 -0.01,2.15 -0.02,3.23 0,0.72 -0.01,1.44 0,2.16 0,0.26 0,0.52 0.01,0.78 0.01,0.12 0.01,0.29 0.03,0.41 0.17,0.92 0.88,1.27 1.76,1.27 3.82,0.02 7.64,0.03 11.46,0.03 2.61,0 5.22,0.01 7.83,0 0.89,-0.01 1.77,-0.01 2.66,-0.02 0.26,0 0.53,-0.01 0.79,-0.01 0.1,-0.01 0.25,0 0.34,-0.02 0.91,-0.16 1.28,-0.89 1.28,-1.76l0 -9.94c0,-2.18 0.02,-4.37 0.02,-6.56 0.01,-1.45 0.01,-2.9 0,-4.35 0,-0.51 -0.01,-1.01 -0.02,-1.52 0,-0.2 0,-0.51 -0.03,-0.71zm-25.11 2.04c0,-0.41 0.01,-0.82 0.01,-1.23 -0.01,-0.36 -0.1,-0.82 0.29,-1.02 0.17,-0.08 3.03,-0.07 3.33,-0.08 2.31,-0.01 4.62,-0.01 6.93,-0.01 3.34,0.01 6.69,0.03 10.04,0.03 0.8,0 1.62,-0.04 2.42,-0.03 0.29,0.01 0.77,0 0.97,0.24 0.2,0.24 0.14,0.82 0.14,1.11l0 21.48c0,0.87 0.21,1.32 -0.9,1.32l-21.35 0.01c-0.38,0 -0.78,0.01 -1.16,0 -0.19,-0.01 -0.44,-0.02 -0.58,-0.17 -0.19,-0.22 -0.13,-0.82 -0.13,-1.1l-0.01 -20.55z"/>
  <g id="_1918853766256">
   <path class="fil2" d="M13.89 9.73l2.7 5.84 -0.9 0c-0.06,-0.02 -0.57,-1.18 -0.6,-1.25l-2.42 0c-0.04,0.07 -0.55,1.23 -0.61,1.25l-0.9 -0.01 2.73 -5.83zm-0.12 -1.04c-1.17,0.38 -2.33,0.81 -3.49,1.22 -1.18,0.41 -1.04,0.14 -0.91,1.26l0.51 4.18c0.02,0.17 0.04,0.34 0.06,0.52 0.03,0.22 0.01,0.32 0.18,0.41 0.25,0.13 0.51,0.28 0.77,0.41l2.65 1.45c0.47,0.26 0.35,0.13 1.19,-0.3 0.26,-0.13 0.51,-0.27 0.76,-0.42 0.21,-0.12 2.18,-1.16 2.25,-1.26 0.07,-0.1 0.13,-0.84 0.16,-1.03 0.08,-0.7 0.17,-1.39 0.25,-2.09 0.09,-0.7 0.17,-1.4 0.26,-2.09 0.11,-0.88 0.26,-0.65 -1.11,-1.12l-2.62 -0.89c-0.19,-0.07 -0.74,-0.3 -0.91,-0.25z"/>
   <polygon class="fil2" points="13.06,13.47 14.69,13.48 13.88,11.72 "/>
  </g>
  <g id="_1918853773136">
   <path class="fil2" d="M24.3 27.57c-0.07,0.04 -0.11,0.09 -0.18,0.16 -0.33,0.31 -1.15,0.84 -1.64,0.74 -0.69,-0.14 -0.42,-1.66 -0.31,-2.13 0.08,0 0.58,0.1 0.71,0.12 0.83,0.11 0.4,-0.13 1.04,0.65 0.08,0.09 0.36,0.39 0.38,0.46zm0.99 -0.49c0.49,-0.64 0.31,-0.55 0.67,-0.59l1.06 -0.17c0.09,0.36 0.15,0.85 0.13,1.23 -0.03,0.38 -0.14,0.84 -0.45,0.92 -0.51,0.13 -1.26,-0.43 -1.63,-0.75 -0.06,-0.06 -0.13,-0.1 -0.17,-0.17l0.39 -0.47zm-0.69 0.16c-0.08,-0.05 -0.51,-0.57 -0.57,-0.68l1.12 -0.01c-0.05,0.13 -0.44,0.59 -0.55,0.69zm-2.31 -1.3c0.02,-0.15 0.24,-0.74 0.31,-0.85l0.56 0.99 -0.87 -0.14zm4.15 -0.61c0.04,-0.09 0.07,-0.17 0.13,-0.25 0,0.01 0.01,0.01 0.01,0.01 0.08,0.12 0.3,0.74 0.31,0.83 -0.27,0.05 -0.6,0.13 -0.88,0.14l0.43 -0.73zm-4.57 0.49c-0.28,-0.03 -0.83,-0.31 -1.04,-0.43 -0.22,-0.13 -0.67,-0.47 -0.68,-0.8 -0.01,-0.61 1.42,-1.2 1.74,-1.22 0.05,0.2 0.15,0.45 0.22,0.64 0.32,0.81 0.3,0.37 -0.01,1.2 -0.05,0.13 -0.17,0.52 -0.23,0.61zm1.83 -2.76c0.47,-0.06 1.14,-0.04 1.63,-0.01 0.19,0.01 0.15,0.04 0.24,0.17l0.47 0.77c0.35,0.64 0.35,0.51 0.19,0.83 -0.11,0.22 -0.69,1.25 -0.77,1.29 -0.13,0.06 -1.39,0.03 -1.62,0.02 -0.18,-0.01 -0.17,-0.06 -0.25,-0.17l-0.46 -0.77c-0.05,-0.09 -0.1,-0.17 -0.15,-0.27 -0.19,-0.36 -0.18,-0.3 -0.05,-0.56 0.33,-0.63 0.43,-0.75 0.77,-1.3zm3.61 2.74c-0.06,-0.09 -0.18,-0.49 -0.23,-0.62 -0.34,-0.82 -0.33,-0.39 -0.01,-1.19 0.04,-0.11 0.18,-0.55 0.22,-0.61 0.42,0.06 1.74,0.64 1.73,1.21 -0.02,0.57 -1.35,1.17 -1.71,1.21zm-1.3 -2.68c0.29,0.01 0.58,0.1 0.86,0.14 -0.01,0.14 -0.23,0.73 -0.3,0.82l-0.56 -0.96zm-3.72 0.14c0.25,-0.05 0.61,-0.13 0.87,-0.14 -0.07,0.14 -0.2,0.33 -0.29,0.48 -0.05,0.08 -0.09,0.16 -0.14,0.24 -0.02,0.05 -0.04,0.08 -0.06,0.12l-0.07 0.11c0,0 0,0.01 -0.01,0.01 -0.06,-0.1 -0.27,-0.68 -0.3,-0.82zm1.73 -0.64c0.08,-0.12 0.18,-0.24 0.27,-0.35 0.05,-0.06 0.09,-0.11 0.15,-0.17 0.06,-0.06 0.07,-0.09 0.14,-0.15 0.09,0.05 0.51,0.56 0.57,0.67l-1.13 0zm-1.85 0.24c-0.06,-0.44 -0.17,-0.75 -0.14,-1.24 0.05,-1.19 0.73,-1.06 1.49,-0.59 0.18,0.11 0.64,0.45 0.76,0.6 -0.04,0.09 -0.12,0.16 -0.19,0.23 -0.06,0.08 -0.12,0.15 -0.19,0.23 -0.46,0.59 -0.32,0.56 -0.65,0.59 -0.39,0.05 -0.82,0.15 -1.08,0.18zm2.72 -1.2c0.07,-0.17 1.2,-1.11 1.8,-0.96 0.67,0.17 0.41,1.94 0.3,2.16 -0.18,-0.01 -0.5,-0.09 -0.7,-0.13 -0.13,-0.02 -0.24,-0.03 -0.36,-0.04 -0.21,-0.02 -0.21,0.01 -0.3,-0.13 -0.14,-0.2 -0.57,-0.75 -0.74,-0.9zm-5.16 2.81l0 0.22c0.08,0.16 0.08,0.35 0.31,0.58 0.14,0.16 0.29,0.29 0.48,0.41 0.31,0.21 0.81,0.44 1.24,0.55 0,0.12 -0.1,0.54 -0.12,0.71 -0.08,0.65 -0.03,1.65 0.63,1.9 0.69,0.26 1.59,-0.35 2.1,-0.78 0.09,-0.08 0.15,-0.15 0.23,-0.21 0.13,0.11 0.24,0.22 0.38,0.34 0.28,0.22 0.55,0.4 0.89,0.55 0.3,0.13 0.47,0.12 0.58,0.17l0.21 0c0.1,-0.05 0.24,-0.06 0.34,-0.12 0.12,-0.07 0.18,-0.14 0.25,-0.22 0.31,-0.39 0.34,-1.06 0.3,-1.56 -0.02,-0.24 -0.12,-0.75 -0.12,-0.81 0.62,-0.15 1.57,-0.61 1.89,-1.2 0.06,-0.12 0.06,-0.22 0.11,-0.33l0 -0.2c-0.1,-0.22 -0.01,-0.23 -0.31,-0.57 -0.37,-0.42 -1.15,-0.78 -1.71,-0.92 -0.01,-0.1 0.05,-0.29 0.07,-0.4 0.1,-0.6 0.15,-1.48 -0.24,-1.98 -0.24,-0.31 -0.38,-0.25 -0.58,-0.33l-0.24 0c-0.08,0.03 -0.26,0.04 -0.55,0.17 -0.37,0.15 -1.14,0.69 -1.26,0.9 -0.09,-0.04 -0.17,-0.14 -0.25,-0.2 -0.08,-0.07 -0.16,-0.13 -0.24,-0.2 -0.43,-0.35 -1.27,-0.83 -1.86,-0.6 -0.39,0.15 -0.58,0.56 -0.63,1.08 -0.08,0.69 0.06,0.98 0.14,1.55 -0.35,0.06 -1,0.37 -1.25,0.53 -0.18,0.12 -0.38,0.26 -0.49,0.4 -0.28,0.34 -0.19,0.34 -0.3,0.57z"/>
   <path class="fil2" d="M23.72 24.68c0.06,0.44 0.45,0.81 0.96,0.76 0.44,-0.05 0.82,-0.45 0.76,-0.96 -0.05,-0.45 -0.46,-0.82 -0.97,-0.76 -0.43,0.05 -0.81,0.46 -0.75,0.96z"/>
  </g>
  <polygon class="fil3" points="6.58,30.4 30.43,6.66 31.04,7.27 7.19,31.01 "/>
 </g>
</svg>
