<?xml version="1.0" encoding="UTF-8"?>
<!DOCTYPE svg PUBLIC "-//W3C//DTD SVG 1.1//EN" "http://www.w3.org/Graphics/SVG/1.1/DTD/svg11.dtd">
<!-- Creator: CorelDRAW 2019 (64-Bit) -->
<svg xmlns="http://www.w3.org/2000/svg" xml:space="preserve" width="640px" height="640px" version="1.1" style="shape-rendering:geometricPrecision; text-rendering:geometricPrecision; image-rendering:optimizeQuality; fill-rule:evenodd; clip-rule:evenodd"
viewBox="0 0 87.98 87.98"
 xmlns:xlink="http://www.w3.org/1999/xlink">
 <defs>
  <style type="text/css">
   <![CDATA[
    .str0 {stroke:#0A2155;stroke-width:0.32;stroke-miterlimit:22.9256}
    .fil0 {fill:none}
    .fil1 {fill:#0A2155}
    .fil2 {fill:#FFC221}
   ]]>
  </style>
 </defs>
 <g id="Layer_x0020_1">
  <metadata id="CorelCorpID_0Corel-Layer"/>
  <rect class="fil0" width="87.98" height="87.98"/>
  <path class="fil1" d="M74.48 17.13c-0.35,-2.11 -2.1,-2.99 -4.09,-2.99l-46.35 0c-1.23,0 -2.45,-0.05 -3.68,-0.07 -0.75,-0.01 -1.51,-0.01 -2.26,0.01 -0.53,0.01 -1.14,0.03 -1.66,0.13 -2.16,0.4 -3.02,1.99 -3.02,4.09l0 23.25c0,5.12 -0.07,10.24 0,15.35 0.03,2.52 -0.03,5.05 -0.04,7.56 -0.01,1.69 -0.02,3.37 -0.01,5.06 0.01,0.61 0.02,1.22 0.04,1.82 0.01,0.29 0.01,0.67 0.06,0.95 0.4,2.15 2.06,2.98 4.11,2.99 8.93,0.03 17.87,0.05 26.81,0.06 6.1,0.01 12.21,0.01 18.31,-0.01 2.07,0 4.14,-0.01 6.22,-0.04 0.62,-0.01 1.23,-0.01 1.85,-0.03 0.23,-0.01 0.58,0 0.79,-0.04 2.13,-0.37 2.99,-2.08 2.99,-4.1l0 -23.25c0,-5.11 0.05,-10.23 0.06,-15.34 0.01,-3.39 0.01,-6.79 -0.01,-10.18 -0.01,-1.19 -0.02,-2.37 -0.04,-3.55 -0.01,-0.48 0,-1.2 -0.08,-1.67zm-58.71 4.76c0,-0.95 0.01,-1.91 0,-2.87 0,-0.83 -0.21,-1.91 0.7,-2.37 0.4,-0.19 7.08,-0.18 7.78,-0.19 5.4,-0.03 10.8,-0.03 16.21,-0.02 7.82,0.01 15.64,0.06 23.47,0.06 1.89,0 3.79,-0.08 5.68,-0.06 0.66,0.01 1.8,-0.01 2.26,0.56 0.45,0.55 0.32,1.91 0.32,2.6l0 50.22c0,2.03 0.49,3.1 -2.09,3.1l-49.94 0c-0.9,0 -1.82,0.05 -2.71,0.01 -0.45,-0.01 -1.03,-0.05 -1.35,-0.4 -0.46,-0.5 -0.33,-1.92 -0.33,-2.56l0 -48.08z"/>
 </g>
 <g id="Layer_x0020_1_0">
  <metadata id="CorelCorpID_1Corel-Layer"/>
  <g id="_1918255990304">
   <path class="fil1 str0" d="M58.95 23.88l-18.55 0c-1.33,0 -2.41,1.08 -2.41,2.41l0 16.94c-3.33,0.13 -6,2.88 -6,6.24 0,2.26 1.21,4.25 3.02,5.34 -1.7,0.49 -3.28,1.36 -4.62,2.57 -2.13,1.93 -3.47,4.56 -3.78,7.41 0,0.03 0,0.05 0,0.07 0,0.37 0.3,0.68 0.67,0.68l31.67 0c1.34,0 2.42,-1.09 2.42,-2.42l0 -36.83c0,-1.33 -1.08,-2.41 -2.42,-2.41l0 0zm-3.99 1.34l-0.4 1.25 -9.76 0 -0.41 -1.25 10.57 0zm-21.63 24.25c0,-2.7 2.2,-4.9 4.9,-4.9 2.7,0 4.89,2.2 4.89,4.9 0,2.7 -2.19,4.89 -4.89,4.89 0,0 0,0 0,0 0,0 0,0 0,0 -2.7,0 -4.9,-2.19 -4.9,-4.89l0 0zm4.9 6.24l0 0c0,0 0,0 0,0 5.04,0 9.29,3.6 10.17,8.48l-20.35 0c0.88,-4.88 5.13,-8.48 10.18,-8.48zm10.21 4.66l2.77 0c0.26,0 0.48,0.21 0.48,0.47 0,0.26 -0.22,0.47 -0.48,0.47l-2.3 0c-0.14,-0.32 -0.3,-0.64 -0.47,-0.94zm11.59 2.75c0,0.59 -0.48,1.07 -1.08,1.07l-9.19 0c-0.08,-0.52 -0.2,-1.03 -0.35,-1.53l1.8 0c1,0 1.82,-0.82 1.82,-1.82 0,-1 -0.82,-1.82 -1.82,-1.82l-3.06 0c-0.18,0 -0.36,0.03 -0.53,0.08 -0.46,-0.62 -0.98,-1.2 -1.56,-1.72 -1.33,-1.21 -2.91,-2.08 -4.62,-2.57 1.81,-1.09 3.03,-3.08 3.03,-5.34 0,-3.07 -2.22,-5.62 -5.14,-6.14l0 -17.04c0,-0.59 0.48,-1.07 1.07,-1.07l2.58 0 0.69 2.13c0.09,0.28 0.35,0.46 0.64,0.46l10.73 0c0.3,0 0.55,-0.18 0.64,-0.46l0.7 -2.13 2.57 0c0.6,0 1.08,0.48 1.08,1.07l0 36.83z"/>
   <path class="fil2" d="M57.81 37.13l-0.99 -0.38c-0.15,-0.52 -0.36,-1.03 -0.63,-1.51l0.43 -0.96c0.12,-0.26 0.06,-0.55 -0.14,-0.75l-1.51 -1.51c-0.19,-0.2 -0.49,-0.25 -0.74,-0.14l-0.97 0.43c-0.48,-0.26 -0.98,-0.47 -1.51,-0.62l-0.38 -0.99c-0.1,-0.26 -0.35,-0.43 -0.62,-0.43l-2.14 0c-0.28,0 -0.53,0.17 -0.63,0.43l-0.38 0.99c-0.52,0.15 -1.02,0.36 -1.5,0.62l-0.97 -0.43c-0.25,-0.11 -0.55,-0.06 -0.75,0.14l-1.51 1.51c-0.19,0.2 -0.25,0.49 -0.14,0.75l0.43 0.96c-0.26,0.48 -0.47,0.99 -0.62,1.51l-0.99 0.38c-0.26,0.1 -0.43,0.35 -0.43,0.63l0 2.13c0,0.28 0.17,0.53 0.43,0.63l0.99 0.38c0.15,0.52 0.36,1.03 0.62,1.51l-0.43 0.96c-0.11,0.26 -0.05,0.56 0.14,0.75l1.51 1.51c0.2,0.2 0.5,0.25 0.75,0.14l0.97 -0.43c0.48,0.27 0.98,0.47 1.5,0.63l0.38 0.98c0.1,0.26 0.35,0.43 0.63,0.43l2.14 0c0.27,0 0.52,-0.17 0.62,-0.43l0.38 -0.98c0.53,-0.16 1.03,-0.36 1.51,-0.63l0.97 0.43c0.25,0.11 0.55,0.06 0.74,-0.14l1.51 -1.51c0.2,-0.19 0.26,-0.49 0.14,-0.75l-0.43 -0.96c0.27,-0.48 0.48,-0.99 0.63,-1.51l0.99 -0.38c0.25,-0.1 0.43,-0.35 0.43,-0.63l0 -2.13c0,-0.28 -0.18,-0.53 -0.43,-0.63l0 0zm-0.92 2.3l-0.87 0.34c-0.21,0.08 -0.37,0.26 -0.42,0.47 -0.15,0.63 -0.39,1.22 -0.73,1.77 -0.12,0.19 -0.13,0.43 -0.04,0.63l0.38 0.86 -0.86 0.86 -0.86 -0.39c-0.2,-0.09 -0.43,-0.07 -0.62,0.05 -0.55,0.33 -1.15,0.58 -1.78,0.73 -0.21,0.05 -0.39,0.21 -0.47,0.41l-0.34 0.88 -1.21 0 -0.33 -0.88c-0.08,-0.2 -0.26,-0.36 -0.48,-0.41 -0.62,-0.15 -1.22,-0.4 -1.77,-0.73 -0.19,-0.12 -0.42,-0.14 -0.62,-0.05l-0.86 0.39 -0.86 -0.86 0.38 -0.86c0.09,-0.2 0.08,-0.44 -0.04,-0.62 -0.34,-0.55 -0.59,-1.15 -0.74,-1.78 -0.05,-0.21 -0.2,-0.39 -0.41,-0.47l-0.87 -0.34 0 -1.21 0.87 -0.34c0.21,-0.08 0.36,-0.25 0.41,-0.47 0.15,-0.62 0.4,-1.22 0.74,-1.77 0.12,-0.19 0.13,-0.42 0.04,-0.63l-0.38 -0.86 0.86 -0.85 0.86 0.38c0.2,0.09 0.43,0.07 0.62,-0.04 0.55,-0.34 1.15,-0.59 1.77,-0.74 0.22,-0.05 0.4,-0.2 0.48,-0.41l0.33 -0.88 1.21 0 0.34 0.88c0.08,0.21 0.26,0.36 0.47,0.41 0.63,0.15 1.23,0.4 1.78,0.74 0.19,0.11 0.42,0.13 0.62,0.04l0.86 -0.38 0.86 0.85 -0.38 0.86c-0.09,0.21 -0.08,0.44 0.04,0.63 0.34,0.55 0.58,1.15 0.73,1.77 0.05,0.22 0.21,0.39 0.42,0.47l0.87 0.34 0 1.21zm-7.21 -5c-2.42,0 -4.4,1.97 -4.4,4.4 0,2.42 1.98,4.39 4.4,4.39 2.42,0 4.39,-1.97 4.39,-4.39 0,-2.43 -1.97,-4.4 -4.39,-4.4zm0 7.45c-1.68,0 -3.05,-1.37 -3.05,-3.05 0,-1.69 1.37,-3.05 3.05,-3.05 1.68,0 3.05,1.36 3.05,3.05 0,1.68 -1.37,3.05 -3.05,3.05zm2.72 8.76l-1.49 5.55c-0.08,0.3 -0.35,0.5 -0.65,0.5 -0.05,0 -0.11,-0.01 -0.17,-0.03 -0.36,-0.09 -0.57,-0.46 -0.47,-0.82l1.48 -5.55c0.1,-0.36 0.47,-0.57 0.82,-0.47 0.36,0.09 0.58,0.46 0.48,0.82l0 0zm-3.16 1.07l-1.81 1.53 1.81 1.53c0.29,0.24 0.32,0.66 0.08,0.94 -0.13,0.16 -0.32,0.24 -0.51,0.24 -0.15,0 -0.31,-0.05 -0.43,-0.16l-2.43 -2.04c-0.15,-0.13 -0.24,-0.31 -0.24,-0.51 0,-0.2 0.09,-0.39 0.24,-0.52l2.43 -2.04c0.28,-0.24 0.7,-0.2 0.94,0.08 0.24,0.29 0.21,0.71 -0.08,0.95zm7.06 1.53c0,0.2 -0.09,0.38 -0.24,0.51l-2.42 2.04c-0.13,0.11 -0.28,0.16 -0.43,0.16 -0.19,0 -0.38,-0.08 -0.52,-0.24 -0.24,-0.28 -0.2,-0.7 0.08,-0.94l1.82 -1.53 -1.82 -1.53c-0.28,-0.24 -0.32,-0.66 -0.08,-0.95 0.24,-0.28 0.67,-0.32 0.95,-0.08l2.42 2.05c0.15,0.12 0.24,0.31 0.24,0.51z"/>
  </g>
 </g>
</svg>
