<?xml version="1.0" encoding="UTF-8"?>
<!DOCTYPE svg PUBLIC "-//W3C//DTD SVG 1.1//EN" "http://www.w3.org/Graphics/SVG/1.1/DTD/svg11.dtd">
<!-- Creator: CorelDRAW 2019 (64-Bit) -->
<svg xmlns="http://www.w3.org/2000/svg" xml:space="preserve" width="640px" height="640px" version="1.1" style="shape-rendering:geometricPrecision; text-rendering:geometricPrecision; image-rendering:optimizeQuality; fill-rule:evenodd; clip-rule:evenodd"
viewBox="0 0 69.57 69.57"
 xmlns:xlink="http://www.w3.org/1999/xlink">
 <defs>
  <style type="text/css">
   <![CDATA[
    .fil0 {fill:none}
    .fil2 {fill:#0A2155}
    .fil1 {fill:#FFC221}
   ]]>
  </style>
 </defs>
 <g id="Layer_x0020_1">
  <metadata id="CorelCorpID_0Corel-Layer"/>
  <rect class="fil0" width="69.57" height="69.57"/>
 </g>
 <g id="Layer_x0020_3">
  <metadata id="CorelCorpID_1Corel-Layer"/>
  <g id="_2389670647888">
   <path class="fil1" d="M49.2 52.72c-0.06,0 -0.12,-0.01 -0.17,-0.02 -0.44,-0.09 -0.72,-0.53 -0.63,-0.97l0.54 -2.49c0.06,-0.31 0.3,-0.55 0.6,-0.62 0.77,-0.19 1.52,-0.5 2.23,-0.93 0.27,-0.17 0.6,-0.16 0.87,0.01l1.61 1.03 1 -1.01 -1.03 -1.6c-0.17,-0.26 -0.18,-0.6 -0.01,-0.87 0.43,-0.71 0.74,-1.46 0.93,-2.23 0.07,-0.3 0.31,-0.53 0.61,-0.6l1.86 -0.41 0 -1.4 -1.86 -0.41c-0.3,-0.07 -0.54,-0.31 -0.61,-0.61 -0.19,-0.77 -0.5,-1.52 -0.93,-2.23 -0.17,-0.27 -0.16,-0.6 0.01,-0.86l1.03 -1.62 -1 -1 -1.61 1.04c-0.27,0.16 -0.6,0.17 -0.87,0 -0.71,-0.43 -1.46,-0.74 -2.22,-0.93 -0.31,-0.07 -0.54,-0.31 -0.61,-0.62l-0.4 -1.85 -0.71 0c-0.45,0 -0.82,-0.36 -0.82,-0.81 0,-0.45 0.37,-0.82 0.82,-0.82l1.37 0c0.38,0 0.71,0.27 0.79,0.65l0.44 2.01c0.59,0.18 1.18,0.42 1.74,0.73l1.76 -1.12c0.32,-0.21 0.74,-0.16 1.01,0.11l1.93 1.92c0.27,0.27 0.31,0.69 0.11,1.02l-1.12 1.75c0.3,0.56 0.55,1.15 0.73,1.75l2.01 0.44c0.38,0.09 0.64,0.42 0.64,0.8l0 2.71c0,0.38 -0.26,0.71 -0.64,0.79l-2.01 0.45c-0.18,0.6 -0.43,1.18 -0.73,1.75l1.12 1.73c0.2,0.33 0.16,0.75 -0.11,1.02l-1.93 1.94c-0.27,0.27 -0.69,0.32 -1.01,0.11l-1.75 -1.12c-0.57,0.31 -1.15,0.55 -1.75,0.73l-0.44 2.01c-0.08,0.39 -0.42,0.65 -0.79,0.65z"/>
   <path class="fil1" d="M50.1 45.51c-0.27,0 -0.52,-0.13 -0.68,-0.36 -0.25,-0.37 -0.15,-0.88 0.22,-1.13 0.91,-0.61 1.45,-1.63 1.45,-2.71 0,-1.8 -1.46,-3.27 -3.26,-3.27 -0.22,0 -0.44,0.03 -0.65,0.07 -0.44,0.09 -0.88,-0.19 -0.97,-0.64 -0.09,-0.44 0.2,-0.87 0.64,-0.96 0.32,-0.06 0.65,-0.1 0.98,-0.1 2.69,0 4.89,2.2 4.89,4.9 0,1.63 -0.81,3.15 -2.17,4.06 -0.14,0.09 -0.3,0.14 -0.45,0.14l0 0z"/>
   <path class="fil1" d="M21.74 33.15c-2.7,0 -4.89,-2.19 -4.89,-4.89 0,-1.64 0.81,-3.16 2.18,-4.07 0.37,-0.25 0.88,-0.15 1.13,0.23 0.25,0.37 0.15,0.88 -0.23,1.13 -0.91,0.6 -1.45,1.62 -1.45,2.71 0,1.8 1.46,3.26 3.26,3.26 0.22,0 0.43,-0.02 0.64,-0.06 0.43,-0.09 0.87,0.19 0.96,0.64 0.09,0.44 -0.2,0.87 -0.64,0.96 -0.31,0.06 -0.63,0.09 -0.96,0.09l0 0z"/>
   <path class="fil1" d="M21.74 39.67l-1.37 0c-0.38,0 -0.72,-0.26 -0.8,-0.64l-0.43 -2.01c-0.6,-0.18 -1.18,-0.42 -1.75,-0.73l-1.75 1.12c-0.32,0.21 -0.74,0.16 -1.01,-0.11l-1.93 -1.92c-0.27,-0.28 -0.32,-0.7 -0.11,-1.02l1.12 -1.75c-0.3,-0.57 -0.55,-1.15 -0.73,-1.75l-2.01 -0.45c-0.38,-0.08 -0.64,-0.41 -0.64,-0.8l0 -2.7c0,-0.38 0.26,-0.72 0.64,-0.8l2.01 -0.44c0.18,-0.6 0.42,-1.19 0.73,-1.75l-1.12 -1.74c-0.21,-0.32 -0.16,-0.74 0.11,-1.01l1.92 -1.94c0.27,-0.28 0.7,-0.32 1.02,-0.12l1.75 1.12c0.57,-0.3 1.15,-0.55 1.75,-0.73l0.43 -2.01c0.1,-0.44 0.54,-0.72 0.97,-0.62 0.44,0.09 0.72,0.53 0.63,0.97l-0.54 2.49c-0.07,0.31 -0.3,0.55 -0.61,0.62 -0.77,0.19 -1.52,0.5 -2.23,0.93 -0.26,0.16 -0.6,0.16 -0.86,-0.01l-1.61 -1.03 -1 1.01 1.03 1.6c0.17,0.26 0.17,0.6 0.01,0.87 -0.43,0.71 -0.75,1.46 -0.93,2.22 -0.07,0.31 -0.31,0.54 -0.62,0.61l-1.85 0.41 0 1.4 1.85 0.41c0.31,0.07 0.55,0.31 0.62,0.61 0.18,0.77 0.5,1.52 0.93,2.23 0.16,0.26 0.16,0.6 -0.01,0.86l-1.03 1.62 0.99 0.99 1.62 -1.03c0.26,-0.17 0.6,-0.17 0.86,-0.01 0.71,0.43 1.46,0.75 2.23,0.93 0.31,0.08 0.54,0.32 0.61,0.62l0.4 1.85 0.71 0c0.45,0 0.82,0.37 0.82,0.82 0,0.45 -0.37,0.81 -0.82,0.81l0 0z"/>
   <path class="fil2" d="M37.23 15.22l-4.89 0c-0.45,0 -0.82,-0.37 -0.82,-0.82 0,-0.45 0.37,-0.81 0.82,-0.81l4.89 0c0.45,0 0.81,0.36 0.81,0.81 0,0.45 -0.36,0.82 -0.81,0.82l0 0z"/>
   <path class="fil2" d="M43.75 59.24l-17.93 0c-2.25,0 -4.08,-1.83 -4.08,-4.08l0 -27.71c0,-0.45 0.37,-0.82 0.82,-0.82 0.45,0 0.81,0.37 0.81,0.82l0 27.71c0,1.35 1.1,2.45 2.45,2.45l17.93 0c1.35,0 2.45,-1.1 2.45,-2.45l0 -27.71c0,-0.45 0.36,-0.82 0.81,-0.82 0.45,0 0.82,0.37 0.82,0.82l0 27.71c0,2.25 -1.83,4.08 -4.08,4.08l0 0z"/>
   <path class="fil2" d="M47.01 33.15c-0.45,0 -0.81,-0.36 -0.81,-0.81l0 -17.94c0,-1.35 -1.1,-2.44 -2.45,-2.44l-17.93 0c-1.35,0 -2.45,1.09 -2.45,2.44l0 17.94c0,0.45 -0.36,0.81 -0.81,0.81 -0.45,0 -0.82,-0.36 -0.82,-0.81l0 -17.94c0,-2.24 1.83,-4.07 4.08,-4.07l17.93 0c2.25,0 4.08,1.83 4.08,4.07l0 17.94c0,0.45 -0.37,0.81 -0.82,0.81l0 0z"/>
   <path class="fil2" d="M51.9 18.56c-0.45,0 -0.81,-0.28 -0.81,-0.73l0 -0.17c0,-0.45 0.36,-0.81 0.81,-0.81 0.45,0 0.82,0.36 0.82,0.81 0,0.45 -0.37,0.9 -0.82,0.9z"/>
   <path class="fil2" d="M51.9 21.82c-0.45,0 -0.81,-0.28 -0.81,-0.73l0 -0.17c0,-0.45 0.36,-0.81 0.81,-0.81 0.45,0 0.82,0.36 0.82,0.81 0,0.45 -0.37,0.9 -0.82,0.9z"/>
   <path class="fil2" d="M51.9 25.08c-0.45,0 -0.81,-0.28 -0.81,-0.73l0 -0.16c0,-0.45 0.36,-0.82 0.81,-0.82 0.45,0 0.82,0.37 0.82,0.82 0,0.45 -0.37,0.89 -0.82,0.89z"/>
   <path class="fil2" d="M17.66 46.12c-0.45,0 -0.81,-0.29 -0.81,-0.74l0 -0.16c0,-0.45 0.36,-0.82 0.81,-0.82 0.45,0 0.82,0.37 0.82,0.82 0,0.45 -0.37,0.9 -0.82,0.9z"/>
   <path class="fil2" d="M17.66 49.38c-0.45,0 -0.81,-0.29 -0.81,-0.74l0 -0.16c0,-0.45 0.36,-0.82 0.81,-0.82 0.45,0 0.82,0.37 0.82,0.82 0,0.45 -0.37,0.9 -0.82,0.9z"/>
   <path class="fil2" d="M17.66 52.64c-0.45,0 -0.81,-0.29 -0.81,-0.74l0 -0.16c0,-0.45 0.36,-0.81 0.81,-0.81 0.45,0 0.82,0.36 0.82,0.81 0,0.45 -0.37,0.9 -0.82,0.9z"/>
   <path class="fil1" d="M33.97 38.86c-0.07,0 -0.13,-0.01 -0.2,-0.02 -0.44,-0.11 -0.7,-0.56 -0.59,-0.99l1.63 -6.52c0.11,-0.44 0.54,-0.71 0.99,-0.6 0.43,0.11 0.7,0.55 0.59,0.99l-1.63 6.52c-0.09,0.37 -0.42,0.62 -0.79,0.62z"/>
   <path class="fil1" d="M38.86 38.86c-0.21,0 -0.42,-0.08 -0.58,-0.24 -0.32,-0.32 -0.32,-0.83 0,-1.15l2.69 -2.69 -2.69 -2.68c-0.31,-0.32 -0.31,-0.84 0,-1.15 0.32,-0.32 0.84,-0.32 1.16,0l3.26 3.26c0.32,0.32 0.32,0.83 0,1.15l-3.26 3.26c-0.16,0.16 -0.37,0.24 -0.58,0.24z"/>
   <path class="fil1" d="M30.71 38.86c-0.21,0 -0.42,-0.08 -0.58,-0.24l-3.26 -3.26c-0.32,-0.32 -0.32,-0.83 0,-1.15l3.26 -3.26c0.32,-0.32 0.84,-0.32 1.15,0 0.32,0.31 0.32,0.83 0,1.15l-2.68 2.68 2.68 2.69c0.32,0.32 0.32,0.83 0,1.15 -0.16,0.16 -0.36,0.24 -0.57,0.24z"/>
  </g>
 </g>
</svg>
