<?xml version="1.0" encoding="UTF-8"?>
<!DOCTYPE svg PUBLIC "-//W3C//DTD SVG 1.1//EN" "http://www.w3.org/Graphics/SVG/1.1/DTD/svg11.dtd">
<!-- Creator: CorelDRAW 2019 (64-Bit) -->
<svg xmlns="http://www.w3.org/2000/svg" xml:space="preserve" width="640px" height="640px" version="1.1" style="shape-rendering:geometricPrecision; text-rendering:geometricPrecision; image-rendering:optimizeQuality; fill-rule:evenodd; clip-rule:evenodd"
viewBox="0 0 71.62 71.62"
 xmlns:xlink="http://www.w3.org/1999/xlink">
 <defs>
  <style type="text/css">
   <![CDATA[
    .fil0 {fill:none}
    .fil1 {fill:#0A2155}
    .fil2 {fill:#FFC221}
   ]]>
  </style>
 </defs>
 <g id="Layer_x0020_1">
  <metadata id="CorelCorpID_0Corel-Layer"/>
  <rect class="fil0" width="71.62" height="71.62"/>
  <g id="_2042761676144">
   <path class="fil1" d="M56.39 11.66l-41.15 0c-2.51,0 -4.55,2.04 -4.55,4.55l0 28.17c0,2.51 2.04,4.55 4.55,4.55l12.12 0 0 4.32 -4.88 0c-2.2,0 -4,1.5 -4,3.35l0 2.55c0,0.45 0.36,0.81 0.81,0.81l33.04 0c0.45,0 0.81,-0.36 0.81,-0.81l0 -2.55c0,-1.85 -1.79,-3.35 -4,-3.35l-4.88 0 0 -4.32 12.13 0c2.51,0 4.55,-2.04 4.55,-4.55l0 -28.17c0,-2.51 -2.04,-4.55 -4.55,-4.55l0 0zm-4.87 44.94l0 1.74 -31.42 0 0 -1.74c0,-0.94 1.09,-1.73 2.38,-1.73l26.66 0c1.29,0 2.38,0.79 2.38,1.73l0 0zm-8.88 -3.35l-13.66 0 0 -4.32 13.66 0 0 4.32 0 0zm16.68 -8.87c0,1.61 -1.32,2.93 -2.93,2.93l-41.15 0c-1.62,0 -2.93,-1.32 -2.93,-2.93l0 -28.17c0,-1.61 1.31,-2.93 2.93,-2.93l41.15 0c1.61,0 2.93,1.32 2.93,2.93l0 28.17zm-2.84 -29.59l-41.34 0c-0.73,0 -1.33,0.6 -1.33,1.33l0 27.05c0,0.45 0.37,0.81 0.81,0.81l42.38 0c0.45,0 0.81,-0.36 0.81,-0.81l0 -27.05c0,-0.73 -0.6,-1.33 -1.33,-1.33l0 0zm-0.29 27.57l-40.76 0 0 -25.95 40.76 0 0 25.95 0 0z"/>
   <path class="fil2" d="M26.54 36.21c0.37,0.66 1.03,1.06 1.79,1.06l3.46 0c0.34,1.91 2.02,3.36 4.02,3.36 2.01,0 3.68,-1.45 4.02,-3.36l3.47 0c0.73,0 1.39,-0.38 1.75,-1.01 0.37,-0.63 0.38,-1.39 0.02,-2.03 -1.49,-2.65 -3.48,-7.94 -4.34,-11.55 -0.19,-0.82 -0.91,-1.39 -1.75,-1.39 -0.2,-1.57 -1.54,-2.79 -3.17,-2.79 -1.62,0 -2.97,1.22 -3.17,2.79l-0.12 0c-0.87,0 -1.6,0.6 -1.77,1.45 -0.69,3.44 -2.37,8.6 -4.14,11.4 -0.41,0.64 -0.43,1.41 -0.07,2.07l0 0zm9.27 2.8c-1.11,0 -2.04,-0.73 -2.36,-1.74l4.72 0c-0.31,1.01 -1.25,1.74 -2.36,1.74l0 0zm0 -18.88c0.73,0 1.34,0.49 1.52,1.16l-3.04 0c0.18,-0.67 0.79,-1.16 1.52,-1.16zm-3.47 2.93c0.02,-0.09 0.09,-0.15 0.18,-0.15l6.46 0c0.09,0 0.15,0.06 0.17,0.14 0.66,2.75 1.95,6.44 3.2,9.3l-12.98 0c1.32,-2.93 2.44,-6.62 2.97,-9.29l0 0zm-4.36 11.95c0.2,-0.32 0.4,-0.67 0.6,-1.04l14.52 0c0.19,0.38 0.38,0.74 0.56,1.06 0.08,0.14 0.08,0.27 0,0.41 -0.09,0.14 -0.2,0.21 -0.36,0.21l-14.97 0c-0.17,0 -0.29,-0.08 -0.37,-0.22 -0.08,-0.14 -0.07,-0.28 0.02,-0.42zm19.98 -5.09c0.44,0.05 0.77,0.44 0.73,0.89 -0.04,0.42 -0.39,0.73 -0.81,0.73 -0.02,0 -0.05,0 -0.07,0l-2.88 -0.27c-0.45,-0.04 -0.77,-0.43 -0.73,-0.88 0.04,-0.44 0.43,-0.77 0.88,-0.73l2.88 0.26zm-3.6 -3.78l2.59 -0.69c0.43,-0.12 0.87,0.14 0.99,0.57 0.11,0.43 -0.14,0.88 -0.58,0.99l-2.58 0.7c-0.07,0.02 -0.14,0.02 -0.21,0.02 -0.36,0 -0.69,-0.23 -0.78,-0.6 -0.12,-0.43 0.14,-0.87 0.57,-0.99zm-21.42 4.67c-0.05,-0.45 0.28,-0.85 0.73,-0.89l2.88 -0.26c0.44,-0.04 0.84,0.29 0.88,0.73 0.04,0.45 -0.29,0.84 -0.74,0.88l-2.87 0.27c-0.03,0 -0.05,0 -0.08,0 -0.41,0 -0.77,-0.31 -0.8,-0.73zm0.75 -4.79c0.11,-0.43 0.56,-0.69 0.99,-0.57l2.58 0.69c0.44,0.12 0.69,0.56 0.58,0.99 -0.1,0.37 -0.43,0.6 -0.79,0.6 -0.07,0 -0.14,0 -0.21,-0.02l-2.58 -0.7c-0.43,-0.11 -0.69,-0.56 -0.57,-0.99zm1.74 -4.52c0.26,-0.36 0.76,-0.45 1.13,-0.19l2.36 1.67c0.36,0.26 0.45,0.76 0.19,1.13 -0.16,0.22 -0.41,0.34 -0.66,0.34 -0.16,0 -0.33,-0.05 -0.47,-0.15l-2.36 -1.67c-0.36,-0.26 -0.45,-0.76 -0.19,-1.13zm17.08 2.61c-0.26,-0.37 -0.17,-0.87 0.2,-1.13l2.36 -1.67c0.36,-0.26 0.87,-0.17 1.13,0.19 0.25,0.37 0.17,0.87 -0.2,1.13l-2.36 1.67c-0.14,0.1 -0.3,0.15 -0.46,0.15 -0.26,0 -0.51,-0.12 -0.67,-0.34z"/>
  </g>
 </g>
</svg>
