<?xml version="1.0" encoding="UTF-8"?>
<!DOCTYPE svg PUBLIC "-//W3C//DTD SVG 1.1//EN" "http://www.w3.org/Graphics/SVG/1.1/DTD/svg11.dtd">
<!-- Creator: CorelDRAW 2019 (64-Bit) -->
<svg xmlns="http://www.w3.org/2000/svg" xml:space="preserve" width="640px" height="640px" version="1.1" style="shape-rendering:geometricPrecision; text-rendering:geometricPrecision; image-rendering:optimizeQuality; fill-rule:evenodd; clip-rule:evenodd"
viewBox="0 0 82.76 82.76"
 xmlns:xlink="http://www.w3.org/1999/xlink">
 <defs>
  <style type="text/css">
   <![CDATA[
    .fil0 {fill:none}
    .fil2 {fill:#333333}
    .fil3 {fill:#689F63}
    .fil1 {fill:#689F63;fill-rule:nonzero}
    .fil6 {fill:url(#id0)}
    .fil5 {fill:url(#id1)}
    .fil4 {fill:url(#id2)}
   ]]>
  </style>
  <linearGradient id="id0" gradientUnits="userSpaceOnUse" x1="28.05" y1="38.8" x2="39.98" y2="38.8">
   <stop offset="0" style="stop-opacity:1; stop-color:#6BBF47"/>
   <stop offset="0.160784" style="stop-opacity:1; stop-color:#6BBF47"/>
   <stop offset="0.380392" style="stop-opacity:1; stop-color:#79B461"/>
   <stop offset="0.470588" style="stop-opacity:1; stop-color:#75AC64"/>
   <stop offset="0.701961" style="stop-opacity:1; stop-color:#659E5A"/>
   <stop offset="0.901961" style="stop-opacity:1; stop-color:#3E863D"/>
   <stop offset="1" style="stop-opacity:1; stop-color:#3E863D"/>
  </linearGradient>
  <linearGradient id="id1" gradientUnits="userSpaceOnUse" x1="26.62" y1="44.14" x2="41.04" y2="33.49">
   <stop offset="0" style="stop-opacity:1; stop-color:#3E863D"/>
   <stop offset="0.568627" style="stop-opacity:1; stop-color:#3E863D"/>
   <stop offset="0.721569" style="stop-opacity:1; stop-color:#619857"/>
   <stop offset="1" style="stop-opacity:1; stop-color:#76AC64"/>
  </linearGradient>
  <linearGradient id="id2" gradientUnits="userSpaceOnUse" x1="37.81" y1="30.74" x2="29.89" y2="46.86">
   <stop offset="0" style="stop-opacity:1; stop-color:#3E863D"/>
   <stop offset="0.301961" style="stop-opacity:1; stop-color:#3E863D"/>
   <stop offset="0.501961" style="stop-opacity:1; stop-color:#55934F"/>
   <stop offset="0.8" style="stop-opacity:1; stop-color:#5AAD45"/>
   <stop offset="1" style="stop-opacity:1; stop-color:#5AAD45"/>
  </linearGradient>
 </defs>
 <g id="Layer_x0020_1">
  <metadata id="CorelCorpID_0Corel-Layer"/>
  <rect class="fil0" width="82.76" height="82.76"/>
 </g>
 <g id="Capa_x0020_1">
  <metadata id="CorelCorpID_1Corel-Layer"/>
  <g id="_2937816989552">
   <path class="fil1" d="M41.03 59c-0.18,0 -0.36,-0.05 -0.52,-0.14l-1.74 -1.03c-0.26,-0.14 -0.13,-0.2 -0.05,-0.22 0.35,-0.13 0.42,-0.15 0.79,-0.36 0.04,-0.02 0.09,-0.02 0.13,0.01l1.33 0.79c0.05,0.02 0.12,0.02 0.16,0l5.2 -3c0.05,-0.03 0.08,-0.09 0.08,-0.14l0 -6c0,-0.06 -0.03,-0.11 -0.08,-0.14l-5.2 -3c-0.05,-0.03 -0.11,-0.03 -0.16,0l-5.19 3c-0.05,0.03 -0.08,0.08 -0.08,0.14l0 6c0,0.05 0.03,0.11 0.08,0.13l1.42 0.83c0.77,0.38 1.25,-0.07 1.25,-0.53l0 -5.92c0,-0.08 0.06,-0.15 0.15,-0.15l0.65 0c0.09,0 0.15,0.07 0.15,0.15l0 5.92c0,1.03 -0.56,1.63 -1.54,1.63 -0.3,0 -0.53,0 -1.19,-0.33l-1.37 -0.79c-0.33,-0.19 -0.54,-0.56 -0.54,-0.94l0 -6c0,-0.39 0.21,-0.76 0.54,-0.95l5.21 -3c0.32,-0.19 0.76,-0.19 1.09,0l5.19 3c0.34,0.2 0.55,0.56 0.55,0.95l0 6c0,0.39 -0.21,0.75 -0.55,0.94l-5.19 3.01c-0.17,0.09 -0.36,0.14 -0.55,0.14l0 0 -0.02 0z"/>
   <g>
    <path class="fil1" d="M50.14 48.59c0,0.55 -0.45,1 -1,1 -0.54,0 -1,-0.45 -1,-1 0,-0.57 0.47,-1 1,-1 0.54,0 1,0.43 1,1l0 0zm-1.84 0c0,0.46 0.38,0.84 0.84,0.84 0.47,0 0.84,-0.39 0.84,-0.84 0,-0.47 -0.38,-0.84 -0.84,-0.84 -0.46,0 -0.84,0.36 -0.84,0.83l0 0.01zm0.47 -0.56l0.38 0c0.14,0 0.4,0 0.4,0.29 0,0.21 -0.14,0.25 -0.22,0.28 0.16,0.01 0.17,0.11 0.19,0.25 0.01,0.09 0.03,0.25 0.06,0.3l-0.24 0c-0.01,-0.05 -0.04,-0.34 -0.04,-0.35 -0.02,-0.07 -0.04,-0.1 -0.12,-0.1l-0.2 0 0 0.45 -0.21 0 0 -1.12zm0.21 0.49l0.17 0c0.15,0 0.17,-0.1 0.17,-0.16 0,-0.15 -0.1,-0.15 -0.16,-0.15l-0.18 0 0 0.31zm-6.32 6.35c-2.28,0 -2.75,-1.04 -2.75,-1.92 0,-0.08 0.06,-0.15 0.15,-0.15l0.67 0c0.07,0 0.13,0.06 0.15,0.13 0.1,0.68 0.4,1.03 1.77,1.03 1.1,0 1.57,-0.25 1.57,-0.83 0,-0.33 -0.14,-0.58 -1.84,-0.75 -1.42,-0.14 -2.3,-0.45 -2.3,-1.59 0,-1.05 0.88,-1.67 2.36,-1.67 1.67,0 2.49,0.57 2.6,1.81 0,0.05 -0.01,0.09 -0.04,0.12 -0.03,0.03 -0.07,0.05 -0.11,0.05l-0.68 0c-0.07,0 -0.13,-0.05 -0.14,-0.12 -0.17,-0.72 -0.56,-0.95 -1.63,-0.95 -1.19,0 -1.33,0.42 -1.33,0.73 0,0.38 0.16,0.49 1.77,0.7 1.6,0.21 2.36,0.51 2.36,1.64 0,1.13 -0.94,1.78 -2.59,1.78l0.01 -0.01z"/>
   </g>
   <path class="fil2" d="M69.82 37.74c0.21,-0.12 0.33,-0.34 0.33,-0.57l0 -1.55c0,-0.23 -0.12,-0.45 -0.33,-0.57l-5.47 -3.18c-0.21,-0.12 -0.46,-0.12 -0.67,0l-5.51 3.18c-0.21,0.12 -0.33,0.34 -0.33,0.58l0 6.36c0,0.24 0.12,0.46 0.33,0.58l5.48 3.12c0.2,0.11 0.45,0.11 0.65,0l3.31 -1.84c0.11,-0.06 0.17,-0.17 0.17,-0.29 0,-0.12 -0.06,-0.23 -0.17,-0.29l-5.54 -3.18c-0.1,-0.06 -0.17,-0.17 -0.17,-0.29l0 -1.99c0,-0.12 0.06,-0.23 0.17,-0.29l1.72 -1c0.11,-0.06 0.23,-0.06 0.34,0l1.72 1c0.1,0.06 0.17,0.17 0.17,0.29l0 1.56c0,0.12 0.06,0.23 0.16,0.29 0.11,0.06 0.23,0.06 0.34,0l3.3 -1.92zm-18.35 -13.94c-0.1,-0.06 -0.23,-0.05 -0.33,0.01 -0.1,0.05 -0.17,0.16 -0.17,0.28l0 8.46c0,0.08 -0.04,0.16 -0.11,0.2 -0.07,0.04 -0.16,0.04 -0.23,0l-1.38 -0.8c-0.21,-0.11 -0.46,-0.11 -0.67,0l-5.51 3.19c-0.21,0.11 -0.33,0.33 -0.33,0.57l0 6.36c0,0.24 0.12,0.46 0.33,0.58l5.51 3.18c0.21,0.12 0.46,0.12 0.67,0l5.51 -3.18c0.2,-0.12 0.33,-0.34 0.33,-0.58l0 -15.86c0,-0.24 -0.13,-0.46 -0.34,-0.58l-3.28 -1.83zm-0.51 16.18c0,0.06 -0.03,0.12 -0.08,0.15l-1.9 1.09c-0.05,0.03 -0.11,0.03 -0.16,0l-1.9 -1.09c-0.05,-0.03 -0.08,-0.09 -0.08,-0.15l0 -2.18c0,-0.06 0.03,-0.11 0.08,-0.14l1.89 -1.1c0.06,-0.03 0.12,-0.03 0.17,0l1.89 1.1c0.06,0.03 0.09,0.08 0.09,0.14l0 2.18zm-26 -4.44c0,-0.24 -0.13,-0.46 -0.33,-0.58l-5.51 -3.17c-0.1,-0.05 -0.2,-0.08 -0.31,-0.09l-0.05 0c-0.11,0.01 -0.21,0.04 -0.31,0.09l-5.51 3.17c-0.2,0.12 -0.33,0.34 -0.33,0.58l0.01 8.54c0,0.12 0.06,0.23 0.17,0.29 0.1,0.06 0.22,0.06 0.33,0l3.27 -1.88c0.21,-0.12 0.33,-0.34 0.33,-0.58l0 -3.99c0,-0.23 0.13,-0.45 0.34,-0.57l1.39 -0.81c0.11,-0.06 0.22,-0.09 0.33,-0.09 0.12,0 0.23,0.03 0.34,0.09l1.39 0.81c0.21,0.12 0.33,0.33 0.33,0.57l0 3.99c0,0.24 0.13,0.46 0.34,0.58l3.27 1.87c0.1,0.07 0.23,0.07 0.33,0 0.1,-0.05 0.17,-0.17 0.17,-0.28l0.01 -8.54z"/>
   <path class="fil3" d="M63.93 37.44c0.04,-0.02 0.09,-0.02 0.13,0l1.06 0.61c0.04,0.03 0.06,0.07 0.06,0.12l0 1.22c0,0.04 -0.02,0.08 -0.06,0.11l-1.06 0.61c-0.04,0.02 -0.09,0.02 -0.13,0l-1.05 -0.61c-0.05,-0.03 -0.07,-0.07 -0.07,-0.11l0 -1.22c0,-0.05 0.02,-0.09 0.06,-0.12l1.06 -0.61z"/>
   <path class="fil4" d="M27.7 35.64l0 6.33c0,0.24 0.13,0.45 0.34,0.57l0 0 5.48 3.17c0.2,0.12 0.45,0.12 0.66,0l0 0 5.48 -3.17c0.2,-0.12 0.33,-0.33 0.33,-0.57l0 0 0 -6.33c0,-0.24 -0.13,-0.46 -0.33,-0.58l0 0 -5.48 -3.16c-0.1,-0.06 -0.22,-0.09 -0.33,-0.09 -0.12,0 -0.23,0.03 -0.33,0.09l0 0 0 0 -5.48 3.16c-0.21,0.12 -0.34,0.34 -0.34,0.58z"/>
   <path class="fil5" d="M27.84 42.37c0.05,0.07 0.12,0.13 0.2,0.17l0 0 4.7 2.72 0.78 0.45c0.12,0.07 0.25,0.09 0.38,0.08l0 0c0.05,0 0.09,-0.01 0.13,-0.02l0 0 5.78 -10.58c-0.04,-0.05 -0.09,-0.09 -0.15,-0.13l0 0 -3.59 -2.07 -1.9 -1.09c-0.05,-0.03 -0.11,-0.05 -0.17,-0.07l-6.16 10.54z"/>
   <path class="fil6" d="M39.98 42.1l0 -0.01 -6.01 -10.26c-0.04,-0.01 -0.08,-0.02 -0.13,-0.02l0 0 0 0 0 0 0 0 0 0 0 0c-0.02,0 -0.04,0.01 -0.06,0.01l0 0 0 0c-0.09,0.01 -0.18,0.03 -0.26,0.08l0 0 -5.47 3.16 5.89 10.73c0.09,-0.01 0.17,-0.04 0.24,-0.08l0 0 5.48 -3.17c0.17,-0.09 0.28,-0.25 0.32,-0.44z"/>
  </g>
 </g>
</svg>
