<?xml version="1.0" encoding="UTF-8"?>
<!DOCTYPE svg PUBLIC "-//W3C//DTD SVG 1.1//EN" "http://www.w3.org/Graphics/SVG/1.1/DTD/svg11.dtd">
<!-- Creator: CorelDRAW 2019 (64-Bit) -->
<svg xmlns="http://www.w3.org/2000/svg" xml:space="preserve" width="640px" height="640px" version="1.1" style="shape-rendering:geometricPrecision; text-rendering:geometricPrecision; image-rendering:optimizeQuality; fill-rule:evenodd; clip-rule:evenodd"
viewBox="0 0 77.94 77.94"
 xmlns:xlink="http://www.w3.org/1999/xlink">
 <defs>
  <style type="text/css">
   <![CDATA[
    .fil0 {fill:none}
    .fil2 {fill:#333333}
    .fil3 {fill:#689F63}
    .fil1 {fill:#689F63;fill-rule:nonzero}
    .fil6 {fill:url(#id0)}
    .fil5 {fill:url(#id1)}
    .fil4 {fill:url(#id2)}
   ]]>
  </style>
  <linearGradient id="id0" gradientUnits="userSpaceOnUse" x1="26.42" y1="36.54" x2="37.65" y2="36.54">
   <stop offset="0" style="stop-opacity:1; stop-color:#6BBF47"/>
   <stop offset="0.160784" style="stop-opacity:1; stop-color:#6BBF47"/>
   <stop offset="0.380392" style="stop-opacity:1; stop-color:#79B461"/>
   <stop offset="0.470588" style="stop-opacity:1; stop-color:#75AC64"/>
   <stop offset="0.701961" style="stop-opacity:1; stop-color:#659E5A"/>
   <stop offset="0.901961" style="stop-opacity:1; stop-color:#3E863D"/>
   <stop offset="1" style="stop-opacity:1; stop-color:#3E863D"/>
  </linearGradient>
  <linearGradient id="id1" gradientUnits="userSpaceOnUse" x1="25.06" y1="41.57" x2="38.65" y2="31.54">
   <stop offset="0" style="stop-opacity:1; stop-color:#3E863D"/>
   <stop offset="0.568627" style="stop-opacity:1; stop-color:#3E863D"/>
   <stop offset="0.721569" style="stop-opacity:1; stop-color:#619857"/>
   <stop offset="1" style="stop-opacity:1; stop-color:#76AC64"/>
  </linearGradient>
  <linearGradient id="id2" gradientUnits="userSpaceOnUse" x1="35.6" y1="28.95" x2="28.15" y2="44.13">
   <stop offset="0" style="stop-opacity:1; stop-color:#3E863D"/>
   <stop offset="0.301961" style="stop-opacity:1; stop-color:#3E863D"/>
   <stop offset="0.501961" style="stop-opacity:1; stop-color:#55934F"/>
   <stop offset="0.8" style="stop-opacity:1; stop-color:#5AAD45"/>
   <stop offset="1" style="stop-opacity:1; stop-color:#5AAD45"/>
  </linearGradient>
 </defs>
 <g id="Layer_x0020_1">
  <metadata id="CorelCorpID_0Corel-Layer"/>
  <rect class="fil0" width="77.94" height="77.94"/>
 </g>
 <g id="Capa_x0020_1">
  <metadata id="CorelCorpID_1Corel-Layer"/>
  <g id="_2891156161168">
   <path class="fil1" d="M38.64 55.56c-0.17,0 -0.34,-0.04 -0.49,-0.13l-1.64 -0.97c-0.24,-0.14 -0.12,-0.18 -0.04,-0.21 0.32,-0.12 0.39,-0.14 0.74,-0.34 0.03,-0.02 0.08,-0.01 0.12,0.01l1.25 0.74c0.05,0.03 0.11,0.03 0.15,0l4.9 -2.82c0.04,-0.03 0.07,-0.08 0.07,-0.13l0 -5.65c0,-0.06 -0.03,-0.11 -0.07,-0.14l-4.89 -2.82c-0.05,-0.02 -0.11,-0.02 -0.16,0l-4.89 2.82c-0.04,0.03 -0.07,0.08 -0.07,0.14l0 5.65c0,0.05 0.03,0.1 0.07,0.13l1.34 0.77c0.73,0.37 1.17,-0.06 1.17,-0.49l0 -5.58c0,-0.08 0.07,-0.14 0.15,-0.14l0.62 0c0.07,0 0.14,0.06 0.14,0.14l0 5.58c0,0.97 -0.53,1.53 -1.45,1.53 -0.28,0 -0.51,0 -1.13,-0.31l-1.28 -0.74c-0.32,-0.18 -0.52,-0.53 -0.52,-0.89l0 -5.65c0,-0.37 0.2,-0.71 0.52,-0.89l4.9 -2.83c0.31,-0.17 0.72,-0.17 1.02,0l4.9 2.83c0.31,0.18 0.51,0.52 0.51,0.89l0 5.65c0,0.36 -0.2,0.71 -0.51,0.89l-4.9 2.83c-0.15,0.09 -0.33,0.13 -0.51,0.13l0 0 -0.02 0z"/>
   <g>
    <path class="fil1" d="M47.22 45.76c0,0.52 -0.42,0.94 -0.94,0.94 -0.52,0 -0.95,-0.42 -0.95,-0.94 0,-0.54 0.44,-0.95 0.95,-0.95 0.51,0 0.94,0.41 0.94,0.95l0 0zm-1.73 -0.01c0,0.44 0.35,0.8 0.79,0.8 0.43,0 0.79,-0.37 0.79,-0.8 0,-0.44 -0.36,-0.79 -0.79,-0.79 -0.43,0 -0.79,0.35 -0.79,0.79l0 0zm0.43 -0.52l0.37 0c0.12,0 0.37,0 0.37,0.28 0,0.19 -0.13,0.23 -0.2,0.26 0.14,0.01 0.15,0.1 0.17,0.24 0.01,0.08 0.03,0.23 0.06,0.28l-0.22 0c-0.01,-0.05 -0.05,-0.32 -0.05,-0.34 -0.01,-0.06 -0.03,-0.09 -0.11,-0.09l-0.18 0 0 0.43 -0.21 0 0 -1.06zm0.2 0.46l0.17 0c0.13,0 0.16,-0.09 0.16,-0.15 0,-0.14 -0.1,-0.14 -0.16,-0.14l-0.16 0 -0.01 0.29zm-5.95 5.98c-2.14,0 -2.59,-0.98 -2.59,-1.8 0,-0.08 0.06,-0.14 0.14,-0.14l0.63 0c0.07,0 0.13,0.05 0.14,0.11 0.1,0.65 0.38,0.97 1.68,0.97 1.03,0 1.47,-0.23 1.47,-0.78 0,-0.31 -0.13,-0.54 -1.73,-0.7 -1.34,-0.13 -2.17,-0.43 -2.17,-1.5 0,-0.99 0.84,-1.58 2.23,-1.58 1.57,0 2.34,0.55 2.44,1.72 0.01,0.04 -0.01,0.08 -0.04,0.11 -0.02,0.02 -0.06,0.04 -0.1,0.04l-0.64 0c-0.06,0 -0.12,-0.05 -0.13,-0.11 -0.16,-0.68 -0.53,-0.89 -1.53,-0.89 -1.13,0 -1.26,0.39 -1.26,0.68 0,0.36 0.16,0.46 1.68,0.66 1.5,0.2 2.21,0.48 2.21,1.54 0,1.07 -0.89,1.68 -2.44,1.68l0.01 -0.01z"/>
   </g>
   <path class="fil2" d="M65.75 35.54c0.2,-0.11 0.32,-0.32 0.32,-0.54l0 -1.45c0,-0.22 -0.12,-0.43 -0.32,-0.54l-5.15 -3c-0.2,-0.11 -0.44,-0.11 -0.63,0l-5.19 3c-0.2,0.11 -0.31,0.32 -0.31,0.54l0 5.99c0,0.23 0.12,0.43 0.31,0.55l5.16 2.93c0.19,0.11 0.42,0.11 0.61,0.01l3.12 -1.74c0.1,-0.05 0.16,-0.15 0.16,-0.27 0,-0.11 -0.06,-0.21 -0.16,-0.27l-5.22 -3c-0.1,-0.05 -0.16,-0.16 -0.16,-0.27l0 -1.88c0,-0.11 0.06,-0.21 0.16,-0.27l1.63 -0.94c0.09,-0.05 0.21,-0.05 0.31,0l1.62 0.94c0.1,0.06 0.16,0.16 0.16,0.27l0 1.48c0,0.11 0.06,0.22 0.16,0.27 0.09,0.06 0.21,0.06 0.31,0l3.11 -1.81zm-17.28 -13.13c-0.1,-0.05 -0.22,-0.05 -0.31,0.01 -0.1,0.05 -0.16,0.16 -0.16,0.27l0 7.96c0,0.08 -0.04,0.15 -0.11,0.19 -0.06,0.04 -0.15,0.04 -0.22,0l-1.29 -0.75c-0.2,-0.11 -0.44,-0.11 -0.63,0l-5.19 3c-0.2,0.11 -0.32,0.32 -0.32,0.54l0 5.99c0,0.23 0.12,0.43 0.32,0.55l5.19 2.99c0.19,0.11 0.43,0.11 0.63,0l5.19 -3c0.19,-0.11 0.31,-0.31 0.31,-0.54l0 -14.93c0,-0.23 -0.12,-0.44 -0.32,-0.55l-3.09 -1.73zm-0.48 15.24c0,0.06 -0.03,0.11 -0.08,0.14l-1.78 1.03c-0.05,0.02 -0.11,0.02 -0.16,0l-1.78 -1.03c-0.05,-0.03 -0.08,-0.08 -0.08,-0.14l0 -2.05c0,-0.06 0.03,-0.11 0.08,-0.14l1.78 -1.03c0.05,-0.03 0.11,-0.03 0.16,0l1.78 1.03c0.05,0.03 0.08,0.08 0.08,0.14l0 2.05zm-24.49 -4.18c0,-0.23 -0.12,-0.43 -0.31,-0.55l-5.19 -2.98c-0.09,-0.05 -0.18,-0.08 -0.28,-0.08l-0.06 0c-0.1,0 -0.19,0.03 -0.28,0.08l-5.19 2.98c-0.2,0.12 -0.32,0.32 -0.32,0.55l0.02 8.04c0,0.11 0.05,0.21 0.15,0.27 0.1,0.06 0.22,0.06 0.31,0l3.09 -1.77c0.19,-0.11 0.31,-0.32 0.31,-0.54l0 -3.76c0,-0.22 0.12,-0.43 0.31,-0.54l1.32 -0.76c0.09,-0.05 0.2,-0.08 0.31,-0.08 0.11,0 0.22,0.03 0.31,0.08l1.31 0.76c0.2,0.11 0.32,0.32 0.32,0.54l0 3.76c0,0.22 0.12,0.43 0.31,0.54l3.08 1.77c0.1,0.06 0.22,0.06 0.32,0 0.09,-0.06 0.15,-0.16 0.15,-0.27l0.01 -8.04z"/>
   <path class="fil3" d="M60.21 35.26c0.03,-0.02 0.08,-0.02 0.12,0l0.99 0.58c0.04,0.02 0.06,0.06 0.06,0.1l0 1.15c0,0.04 -0.02,0.08 -0.06,0.11l-0.99 0.57c-0.04,0.02 -0.09,0.02 -0.12,0l-1 -0.57c-0.04,-0.03 -0.06,-0.07 -0.06,-0.11l0 -1.15c0,-0.04 0.02,-0.08 0.06,-0.1l1 -0.58z"/>
   <path class="fil4" d="M26.09 33.56l0 5.96c0,0.23 0.12,0.43 0.31,0.54l0 0 5.16 2.98c0.2,0.11 0.43,0.11 0.63,0l0 0 5.16 -2.98c0.19,-0.11 0.31,-0.31 0.31,-0.54l0 0 0 -5.96c0,-0.22 -0.12,-0.43 -0.31,-0.54l0 0 -5.16 -2.98c-0.1,-0.05 -0.21,-0.08 -0.32,-0.08 -0.1,0 -0.21,0.03 -0.31,0.08l0 0 0 0 -5.16 2.98c-0.19,0.11 -0.31,0.32 -0.31,0.54z"/>
   <path class="fil5" d="M26.22 39.9c0.05,0.07 0.11,0.12 0.18,0.16l0 0 4.43 2.56 0.74 0.42c0.11,0.07 0.23,0.09 0.36,0.09l0 0c0.04,-0.01 0.08,-0.02 0.12,-0.03l0 0 5.44 -9.96c-0.04,-0.05 -0.09,-0.09 -0.14,-0.12l0 0 -3.38 -1.95 -1.79 -1.03c-0.05,-0.03 -0.1,-0.05 -0.16,-0.06l-5.8 9.92z"/>
   <path class="fil6" d="M37.65 39.65l0 -0.02 -5.66 -9.66c-0.04,-0.01 -0.08,-0.01 -0.12,-0.01l0 0 0 0 0 0 0 0 -0.01 0 0 0c-0.01,0 -0.03,0 -0.04,0l0 0 -0.01 0c-0.08,0.01 -0.17,0.04 -0.25,0.08l0 0 -5.14 2.97 5.55 10.11c0.07,-0.01 0.15,-0.04 0.22,-0.08l0 0 5.16 -2.98c0.16,-0.09 0.26,-0.24 0.3,-0.41z"/>
  </g>
 </g>
</svg>
