<?xml version="1.0" encoding="UTF-8"?>
<!DOCTYPE svg PUBLIC "-//W3C//DTD SVG 1.1//EN" "http://www.w3.org/Graphics/SVG/1.1/DTD/svg11.dtd">
<!-- Creator: CorelDRAW -->
<svg xmlns="http://www.w3.org/2000/svg" xml:space="preserve" width="640px" height="640px" version="1.1" style="shape-rendering:geometricPrecision; text-rendering:geometricPrecision; image-rendering:optimizeQuality; fill-rule:evenodd; clip-rule:evenodd"
viewBox="0 0 39.68 39.68"
 xmlns:xlink="http://www.w3.org/1999/xlink"
 xmlns:xodm="http://www.corel.com/coreldraw/odm/2003">
 <defs>
  <style type="text/css">
   <![CDATA[
    .fil0 {fill:none}
    .fil2 {fill:#002155;fill-rule:nonzero}
    .fil1 {fill:#FFC221;fill-rule:nonzero}
   ]]>
  </style>
 </defs>
 <g id="Layer_x0020_1">
  <metadata id="CorelCorpID_0Corel-Layer"/>
  <rect class="fil0" width="39.68" height="39.68"/>
  <g id="_2173814602192">
   <path class="fil1" d="M23.24 13.99c-3.57,0 -6.48,2.91 -6.48,6.48 0,3.56 2.91,6.47 6.48,6.47 1.62,0 3.12,-0.61 4.26,-1.61l2.3 2.3c-0.37,0.37 -0.37,0.93 0,1.3l5.23 5.22c0.37,0.37 0.92,0.37 1.29,0l0.65 -0.64c0.37,-0.37 0.37,-0.93 0,-1.3l-5.23 -5.22c-0.37,-0.33 -0.97,-0.33 -1.29,0l-2.31 -2.31c0.98,-1.14 1.57,-2.61 1.57,-4.21 0,-3.57 -2.91,-6.48 -6.47,-6.48zm-4.12 6.06c0.23,0.05 0.46,-0.14 0.51,-0.37 0.28,-1.39 1.39,-2.45 2.73,-2.82 0.23,-0.05 0.37,-0.28 0.32,-0.51 -0.05,-0.28 -0.32,-0.46 -0.55,-0.37 -1.72,0.42 -3.01,1.76 -3.43,3.47 -0.04,0.28 0.14,0.55 0.42,0.6l0 0zm4.12 5.96c-3.06,0 -5.55,-2.49 -5.55,-5.54 0,-3.06 2.49,-5.55 5.55,-5.55 3.05,0 5.54,2.49 5.54,5.55 0,3.05 -2.49,5.54 -5.54,5.54z"/>
   <path class="fil2" d="M9.03 12.64l10.86 0c0.22,0 0.4,-0.18 0.4,-0.4l0 -1.59c0,-0.22 -0.18,-0.4 -0.4,-0.4l-10.86 0c-0.22,0 -0.4,0.18 -0.4,0.4l0 1.59c0,0.22 0.18,0.4 0.4,0.4zm0.41 -1.58l10.04 0 0 0.77 -10.04 0 0 -0.77zm-4.36 8.08l5.72 0c0.23,0 0.41,-0.19 0.41,-0.41l0 -4.97c0,-0.22 -0.18,-0.41 -0.41,-0.41l-5.72 0c-0.23,0 -0.41,0.19 -0.41,0.41l0 4.97c0,0.22 0.18,0.41 0.41,0.41zm0.41 -4.97l4.91 0 0 4.15 -4.91 0 0 -4.15zm13.44 -0.01c0,0.22 -0.18,0.4 -0.41,0.4l-6.19 0c-0.23,0 -0.41,-0.18 -0.41,-0.4 0,-0.23 0.18,-0.41 0.41,-0.41l6.19 0c0.23,0 0.41,0.18 0.41,0.41zm-1.86 2.09c0,0.22 -0.18,0.4 -0.41,0.4l-4.33 0c-0.23,0 -0.41,-0.18 -0.41,-0.4 0,-0.23 0.18,-0.41 0.41,-0.41l4.33 0c0.23,0 0.41,0.18 0.41,0.41zm-0.92 2.08c0,0.23 -0.18,0.41 -0.41,0.41l-3.41 0c-0.23,0 -0.41,-0.18 -0.41,-0.41 0,-0.22 0.18,-0.4 0.41,-0.4l3.41 0c0.23,0 0.41,0.18 0.41,0.4zm-0.8 2.09c0,0.22 -0.19,0.41 -0.41,0.41l-10.18 0c-0.22,0 -0.4,-0.19 -0.4,-0.41 0,-0.22 0.18,-0.41 0.4,-0.41l10.18 0c0.22,0 0.41,0.18 0.41,0.41zm10.2 -6.69l0 -2.22 5.49 0 0 12.93 -1.87 0 0 0.81 2.27 0c0.23,0 0.41,-0.18 0.41,-0.41l0 -16.99c0,-0.23 -0.18,-0.41 -0.41,-0.41l-5.89 0 0 -1.78c0,-0.23 -0.18,-0.41 -0.41,-0.41l-22.3 0c-0.22,0 -0.41,0.18 -0.41,0.41l0 16.45c0,0.23 0.19,0.41 0.41,0.41l5.89 0 0 2.32c0,0.23 0.19,0.41 0.41,0.41l8.13 0 0 -0.81 -7.72 0 0 -1.92 6.39 0 0 -0.81 -12.69 0 0 -12.39 21.49 0 0 4.41 0.81 0zm5.49 -5.47l0 2.44 -5.49 0 0 -2.44 5.49 0zm-6.3 -2.2l0 2.45 -21.49 0 0 -2.45 21.49 0zm-19.94 1.22c0,-0.22 0.19,-0.4 0.41,-0.4 0.23,0 0.41,0.18 0.41,0.4 0,0.23 -0.18,0.41 -0.41,0.41l0 0c-0.22,0 -0.41,-0.18 -0.41,-0.41zm1.84 0c0,-0.22 0.19,-0.4 0.41,-0.4 0.22,0 0.41,0.18 0.41,0.4 0,0.23 -0.18,0.41 -0.41,0.41l0 0c-0.23,0 -0.41,-0.18 -0.41,-0.41l0 0zm1.84 0c0,-0.22 0.18,-0.4 0.41,-0.4 0.22,0 0.41,0.18 0.41,0.4 0,0.23 -0.19,0.41 -0.41,0.41l0 0c-0.23,0 -0.41,-0.18 -0.41,-0.41z"/>
  </g>
 </g>
</svg>
