<?xml version="1.0" encoding="UTF-8"?>
<!DOCTYPE svg PUBLIC "-//W3C//DTD SVG 1.1//EN" "http://www.w3.org/Graphics/SVG/1.1/DTD/svg11.dtd">
<!-- Creator: CorelDRAW -->
<svg xmlns="http://www.w3.org/2000/svg" xml:space="preserve" width="640px" height="640px" version="1.1" style="shape-rendering:geometricPrecision; text-rendering:geometricPrecision; image-rendering:optimizeQuality; fill-rule:evenodd; clip-rule:evenodd"
viewBox="0 0 34.72 34.72"
 xmlns:xlink="http://www.w3.org/1999/xlink"
 xmlns:xodm="http://www.corel.com/coreldraw/odm/2003">
 <defs>
  <style type="text/css">
   <![CDATA[
    .fil0 {fill:none}
    .fil2 {fill:#002155;fill-rule:nonzero}
    .fil1 {fill:#FFC221;fill-rule:nonzero}
   ]]>
  </style>
 </defs>
 <g id="Layer_x0020_1">
  <metadata id="CorelCorpID_0Corel-Layer"/>
  <rect class="fil0" width="34.72" height="34.72"/>
  <g id="_2173779703920">
   <path class="fil1" d="M18.58 11.66c-3.12,0 -5.67,2.55 -5.67,5.66 0,3.12 2.55,5.67 5.67,5.67 3.11,0 5.66,-2.55 5.66,-5.67 0,-3.11 -2.55,-5.66 -5.66,-5.66zm0 10.52c-2.67,0 -4.86,-2.19 -4.86,-4.86 0,-2.67 2.19,-4.85 4.86,-4.85 2.67,0 4.85,2.18 4.85,4.85 0,2.67 -2.18,4.86 -4.85,4.86z"/>
   <path class="fil1" d="M14.97 16.96c0.21,0.04 0.41,-0.12 0.45,-0.33 0.24,-1.21 1.21,-2.14 2.39,-2.46 0.2,-0.05 0.32,-0.25 0.28,-0.45 -0.04,-0.24 -0.28,-0.4 -0.49,-0.32 -1.49,0.36 -2.63,1.53 -2.99,3.03 -0.04,0.24 0.12,0.49 0.36,0.53l0 0z"/>
   <path class="fil2" d="M25.05 26.67l0 1.58c0,0.24 -0.16,0.4 -0.4,0.4l-4.05 0 -0.41 0 -10.11 0c-0.24,0 -0.41,-0.16 -0.41,-0.4l0 -21.85c0,-0.25 0.17,-0.41 0.41,-0.41l10.11 0c0.25,0 0.41,0.16 0.41,0.41l0 2.83c0,0.69 0.53,1.21 1.21,1.21l2.84 0c0.24,0 0.4,0.16 0.4,0.41l0 11.21c0.12,-0.04 0.24,-0.04 0.41,-0.04 0.16,0 0.28,0.04 0.4,0.08l0 -11.58c0,-0.32 -0.12,-0.64 -0.36,-0.85l-4.13 -4.12c-0.24,-0.25 -0.53,-0.37 -0.85,-0.37l-10.44 0c-0.69,0 -1.22,0.53 -1.22,1.22l0 21.85c0,0.69 0.53,1.21 1.22,1.21l14.57 0c0.68,0 1.21,-0.52 1.21,-1.21l0 -0.77 -0.81 -0.81z"/>
   <path class="fil1" d="M24.89 23.03l-2.31 -2.31 -0.56 0.57 2.3 2.3c-0.32,0.33 -0.32,0.81 0,1.14l4.58 4.57c0.32,0.32 0.8,0.32 1.13,0l0.56 -0.57c0.33,-0.32 0.33,-0.81 0,-1.13l-4.57 -4.57c-0.32,-0.29 -0.85,-0.29 -1.13,0z"/>
   <polygon class="fil2" points="11.29,7.61 19.79,7.61 19.79,8.42 11.29,8.42 "/>
   <polygon class="fil2" points="11.29,10.04 19.79,10.04 19.79,10.85 11.29,10.85 "/>
   <polygon class="fil2" points="11.29,24.61 23.43,24.61 23.43,25.42 11.29,25.42 "/>
   <path class="fil2" d="M14.29 22.18l-3 0 0 0.81 4.17 0c-0.44,-0.25 -0.81,-0.49 -1.17,-0.81z"/>
   <path class="fil2" d="M12.59 19.75l-1.3 0 0 0.81 1.7 0c-0.16,-0.24 -0.28,-0.53 -0.4,-0.81z"/>
   <path class="fil2" d="M12.1 17.32l-0.81 0 0 0.81 0.85 0c0,-0.28 -0.04,-0.53 -0.04,-0.81z"/>
   <path class="fil2" d="M12.59 14.89l-1.3 0 0 0.81 1.01 0c0.08,-0.28 0.17,-0.56 0.29,-0.81z"/>
   <path class="fil2" d="M14.29 12.47l-3 0 0 0.81 2.23 0c0.24,-0.29 0.48,-0.57 0.77,-0.81z"/>
  </g>
 </g>
</svg>
