<?xml version="1.0" encoding="UTF-8"?>
<!DOCTYPE svg PUBLIC "-//W3C//DTD SVG 1.1//EN" "http://www.w3.org/Graphics/SVG/1.1/DTD/svg11.dtd">
<!-- Creator: CorelDRAW -->
<svg xmlns="http://www.w3.org/2000/svg" xml:space="preserve" width="640px" height="640px" version="1.1" style="shape-rendering:geometricPrecision; text-rendering:geometricPrecision; image-rendering:optimizeQuality; fill-rule:evenodd; clip-rule:evenodd"
viewBox="0 0 61.07 61.07"
 xmlns:xlink="http://www.w3.org/1999/xlink"
 xmlns:xodm="http://www.corel.com/coreldraw/odm/2003">
 <defs>
  <style type="text/css">
   <![CDATA[
    .fil0 {fill:none}
    .fil1 {fill:#002155;fill-rule:nonzero}
    .fil2 {fill:#FFC221;fill-rule:nonzero}
   ]]>
  </style>
 </defs>
 <g id="Layer_x0020_1">
  <metadata id="CorelCorpID_0Corel-Layer"/>
  <rect class="fil0" width="61.07" height="61.07"/>
  <path class="fil1" d="M12.14 44.09c0.3,3.87 3.53,6.93 7.48,6.93 3.9,0 7.11,-2.98 7.47,-6.79l0 -1.49c-0.39,-3.78 -3.59,-6.74 -7.47,-6.74 -4.69,0 -7.48,3.64 -7.48,8.09zm7.48 5.79c-3.51,0 -6.37,-2.86 -6.37,-6.37 0,-3.51 2.86,-6.37 6.37,-6.37 3.52,0 6.37,2.86 6.37,6.37 0,3.51 -2.85,6.37 -6.37,6.37z"/>
  <path class="fil1" d="M42.59 16.18c1.07,0 1.95,-0.88 1.95,-1.95 0,-1.08 -0.88,-1.95 -1.95,-1.95 -1.07,0 -1.95,0.87 -1.95,1.95 0,1.07 0.88,1.95 1.95,1.95zm0 -2.77c0.44,0 0.81,0.36 0.81,0.81 0,0.44 -0.37,0.81 -0.81,0.81 -0.45,0 -0.81,-0.37 -0.81,-0.81 0,-0.45 0.36,-0.81 0.81,-0.81z"/>
  <path class="fil1" d="M37.87 16.18c1.07,0 1.95,-0.88 1.95,-1.95 0,-1.08 -0.88,-1.95 -1.95,-1.95 -1.08,0 -1.95,0.87 -1.95,1.95 0,1.07 0.87,1.95 1.95,1.95zm0 -2.77c0.44,0 0.81,0.36 0.81,0.81 0,0.44 -0.37,0.81 -0.81,0.81 -0.45,0 -0.81,-0.37 -0.81,-0.81 0,-0.45 0.35,-0.81 0.81,-0.81z"/>
  <path class="fil1" d="M33.14 16.18c1.07,0 1.95,-0.88 1.95,-1.95 0,-1.08 -0.88,-1.95 -1.95,-1.95 -1.08,0 -1.95,0.87 -1.95,1.95 0,1.07 0.87,1.95 1.95,1.95zm0 -2.77c0.44,0 0.81,0.36 0.81,0.81 0,0.44 -0.37,0.81 -0.81,0.81 -0.45,0 -0.81,-0.37 -0.81,-0.81 0,-0.45 0.36,-0.81 0.81,-0.81z"/>
  <path class="fil1" d="M13.25 14.79l14.68 0c0.32,0 0.57,-0.25 0.57,-0.56 0,-0.32 -0.25,-0.57 -0.57,-0.57l-14.68 0c-0.32,0 -0.57,0.26 -0.57,0.57 0,0.31 0.25,0.56 0.57,0.56l0 0z"/>
  <path class="fil2" d="M14.6 27.73l28.02 0c0.53,0 0.96,-0.43 0.96,-0.97l0 -5.06c0,-0.53 -0.43,-0.97 -0.96,-0.97l-28.02 0c-0.53,0 -0.96,0.43 -0.96,0.97l0 5.06c-0.01,0.54 0.42,0.97 0.96,0.97l0 0zm0.17 -5.87l27.68 0 0 4.73 -27.68 0 0 -4.73z"/>
  <path class="fil1" d="M39.94 29.76l-22.66 0c-0.32,0 -0.57,0.25 -0.57,0.56 0,0.31 0.26,0.57 0.57,0.57l22.66 0c0.32,0 0.57,-0.26 0.57,-0.57 0,-0.31 -0.26,-0.56 -0.57,-0.56z"/>
  <path class="fil1" d="M39.94 32.87l-22.66 0c-0.32,0 -0.57,0.25 -0.57,0.56 0,0.32 0.26,0.57 0.57,0.57l22.66 0c0.32,0 0.57,-0.25 0.57,-0.57 0,-0.31 -0.26,-0.56 -0.57,-0.56z"/>
  <path class="fil1" d="M39.94 35.98l-10.43 0c-0.32,0 -0.57,0.26 -0.57,0.57 0,0.31 0.26,0.57 0.57,0.57l10.43 0c0.32,0 0.57,-0.26 0.57,-0.57 0,-0.31 -0.26,-0.57 -0.57,-0.57z"/>
  <path class="fil1" d="M39.94 39.09l-10.43 0c-0.32,0 -0.57,0.25 -0.57,0.57 0,0.31 0.26,0.56 0.57,0.56l10.43 0c0.32,0 0.57,-0.25 0.57,-0.56 0,-0.32 -0.26,-0.57 -0.57,-0.57z"/>
  <path class="fil1" d="M48.69 12.06c0,-1.11 -0.9,-2.02 -2.01,-2.02l-36.14 0c-1.11,0 -2.02,0.91 -2.02,2.02l0 29.92c0,1.12 0.91,2.02 2.02,2.02l1.6 0c0,-0.39 0.03,-0.77 0.07,-1.14l-1.67 0c-0.48,0 -0.88,-0.39 -0.88,-0.88l0 -23.58 37.89 0c0,18.23 -0.01,18.83 -0.01,23.58l0.01 0c0,0.49 -0.39,0.88 -0.87,0.88l-19.59 0 0 1.14 19.59 0c1.11,0 2.01,-0.9 2.01,-2.02 0,-11.92 0,-18.05 0,-29.92zm-38.15 -0.88l36.14 0c0.48,0 0.87,0.39 0.87,0.88l0 5.2 -37.89 0 0 -5.2c0,-0.48 0.4,-0.88 0.88,-0.88z"/>
  <path class="fil1" d="M20.03 47.66c-0.14,0 -0.23,-0.05 -0.32,-0.14l-2.8 -2.8c-0.14,-0.14 -0.18,-0.32 -0.09,-0.51 0.05,-0.19 0.23,-0.28 0.42,-0.28l1.4 0c0.37,0 0.74,-0.14 0.97,-0.42 0.16,-0.13 0.28,-0.31 0.35,-0.51l-2.72 0c-0.28,0 -0.47,-0.19 -0.47,-0.47 0,-0.28 0.19,-0.46 0.47,-0.46l2.72 0c-0.07,-0.2 -0.19,-0.38 -0.35,-0.51 -0.23,-0.28 -0.6,-0.42 -0.97,-0.42l-1.4 0c-0.28,0 -0.47,-0.19 -0.47,-0.47 0,-0.28 0.19,-0.47 0.47,-0.47l5.12 0c0.28,0 0.47,0.19 0.47,0.47 0,0.28 -0.19,0.47 -0.47,0.47l-1.86 0c0.19,0.28 0.34,0.59 0.41,0.93l1.45 0c0.28,0 0.47,0.18 0.47,0.46 0,0.28 -0.19,0.47 -0.47,0.47l-1.44 0c-0.09,0.44 -0.31,0.85 -0.65,1.16 -0.42,0.47 -1.03,0.7 -1.63,0.7l-0.28 0 2 2c0.18,0.19 0.18,0.47 0,0.66 -0.09,0.09 -0.19,0.14 -0.33,0.14z"/>
 </g>
</svg>
