<?xml version="1.0" encoding="UTF-8"?>
<!DOCTYPE svg PUBLIC "-//W3C//DTD SVG 1.1//EN" "http://www.w3.org/Graphics/SVG/1.1/DTD/svg11.dtd">
<!-- Creator: CorelDRAW -->
<svg xmlns="http://www.w3.org/2000/svg" xml:space="preserve" width="640px" height="640px" version="1.1" style="shape-rendering:geometricPrecision; text-rendering:geometricPrecision; image-rendering:optimizeQuality; fill-rule:evenodd; clip-rule:evenodd"
viewBox="0 0 40.75 40.75"
 xmlns:xlink="http://www.w3.org/1999/xlink"
 xmlns:xodm="http://www.corel.com/coreldraw/odm/2003">
 <defs>
  <style type="text/css">
   <![CDATA[
    .fil0 {fill:none}
    .fil1 {fill:#002155;fill-rule:nonzero}
    .fil2 {fill:#002155;fill-rule:nonzero}
    .fil3 {fill:#FFC221;fill-rule:nonzero}
   ]]>
  </style>
 </defs>
 <g id="Layer_x0020_1">
  <metadata id="CorelCorpID_0Corel-Layer"/>
  <rect class="fil0" width="40.75" height="40.75"/>
 </g>
 <g id="Layer_x0020_1_0">
  <metadata id="CorelCorpID_1Corel-Layer"/>
  <g id="_2172242576672">
   <path class="fil1" d="M31.02 31.86c-0.11,0 -0.18,-0.04 -0.26,-0.11l-2.25 -2.26c-0.11,-0.11 -0.15,-0.25 -0.07,-0.41 0.04,-0.15 0.18,-0.22 0.33,-0.22l1.13 0c0.3,0 0.6,-0.12 0.78,-0.34 0.13,-0.11 0.23,-0.25 0.29,-0.41l-2.2 0c-0.22,0 -0.37,-0.16 -0.37,-0.38 0,-0.23 0.15,-0.37 0.37,-0.37l2.2 0c-0.06,-0.16 -0.16,-0.31 -0.29,-0.41 -0.18,-0.23 -0.48,-0.34 -0.78,-0.34l-1.13 0c-0.22,0 -0.37,-0.16 -0.37,-0.38 0,-0.23 0.15,-0.38 0.37,-0.38l4.13 0c0.23,0 0.38,0.15 0.38,0.38 0,0.22 -0.15,0.38 -0.38,0.38l-1.5 0c0.15,0.22 0.28,0.47 0.33,0.75l1.17 0c0.23,0 0.38,0.14 0.38,0.37 0,0.22 -0.15,0.38 -0.38,0.38l-1.16 0c-0.07,0.35 -0.25,0.68 -0.52,0.93 -0.34,0.38 -0.83,0.57 -1.32,0.57l-0.22 0 1.61 1.61c0.14,0.15 0.14,0.38 0,0.53 -0.07,0.07 -0.15,0.11 -0.27,0.11l0 0z"/>
   <path class="fil2" d="M10.53 12.47l9.75 0 0 3.65c0,0.54 0.44,0.97 0.97,0.97l9.47 0 0 2.13c0,0.26 0.2,0.47 0.46,0.47 0.26,0 0.47,-0.21 0.47,-0.47l0 -2.13 1.08 0c0.54,0 0.97,-0.43 0.97,-0.97l0 -7.86c0,-0.53 -0.43,-0.96 -0.97,-0.96l-7.18 0c-0.26,0 -0.47,0.2 -0.47,0.46 0,0.26 0.21,0.47 0.47,0.47l7.18 0c0.02,0 0.04,0.02 0.04,0.03l0 5.55 -1.39 -1.81c-0.13,-0.16 -0.32,-0.26 -0.52,-0.26 -0.2,0 -0.39,0.1 -0.52,0.26l-2.27 2.97 -3.54 -4.61c-0.13,-0.17 -0.32,-0.26 -0.52,-0.26 -0.2,0 -0.39,0.09 -0.52,0.26l-2.27 2.96 0 -5.06c0,-0.01 0.01,-0.03 0.03,-0.03l2.12 0c0.25,0 0.46,-0.21 0.46,-0.47 0,-0.26 -0.21,-0.46 -0.46,-0.46l-2.12 0c-0.53,0 -0.97,0.43 -0.97,0.96l0 3.27 -9.75 0c-0.25,0 -0.46,0.21 -0.46,0.47 0,0.26 0.21,0.47 0.46,0.47l0 0zm20.33 0.39l1.91 2.48 0 0.78c0,0.02 -0.02,0.04 -0.04,0.04l-3.75 0 -0.33 -0.42 2.21 -2.88zm-9.64 2l2.79 -3.65 3.79 4.95 -6.55 0c-0.02,0 -0.03,-0.02 -0.03,-0.04l0 -1.26z"/>
   <path class="fil3" d="M15.35 15.62c-0.11,-0.07 -0.23,-0.11 -0.36,-0.11 -0.35,0 -0.61,0.29 -0.61,0.66l0 6.94c0,0.37 0.26,0.66 0.61,0.66 0.13,0 0.25,-0.04 0.36,-0.11l5.85 -3.46c0.22,-0.12 0.34,-0.33 0.34,-0.56 0,-0.22 -0.12,-0.43 -0.34,-0.56l-5.85 -3.46zm-0.04 6.98l0 -5.92 5.01 2.96 -5.01 2.96z"/>
   <circle class="fil2" cx="6.56" cy="28.57" r="0.47"/>
   <circle class="fil2" cx="8.49" cy="28.57" r="0.47"/>
   <circle class="fil2" cx="10.42" cy="28.57" r="0.47"/>
   <path class="fil2" d="M31.65 22.67l0 -1.2c0,-0.26 -0.21,-0.47 -0.47,-0.47 -0.26,0 -0.46,0.21 -0.46,0.47l0 1.1c-0.07,0 -0.13,-0.01 -0.19,-0.01 -2.34,0 -4.37,1.41 -5.28,3.42l-19.89 0 0 -13.36c0,-0.08 0.08,-0.15 0.16,-0.15l2.77 0c0.26,0 0.47,-0.21 0.47,-0.47 0,-0.26 -0.21,-0.47 -0.47,-0.47l-2.77 0c-0.6,0 -1.09,0.49 -1.09,1.09l0 17.55c0,0.6 0.49,1.09 1.09,1.09l20.01 0c1,1.72 2.87,2.88 5,2.88 3.19,0 5.79,-2.6 5.79,-5.79 0,-2.81 -2.01,-5.15 -4.67,-5.68zm-26.13 7.65c-0.08,0 -0.16,-0.07 -0.16,-0.15l0 -3.25 19.57 0c-0.1,0.37 -0.16,0.75 -0.18,1.15l-12.02 0c-0.26,0 -0.47,0.21 -0.47,0.47 0,0.25 0.21,0.46 0.47,0.46l12.05 0c0.05,0.46 0.16,0.9 0.31,1.32l-19.57 0zm25.01 2.89c-2.67,0 -4.85,-2.18 -4.85,-4.86 0,-2.67 2.18,-4.85 4.85,-4.85 2.68,0 4.86,2.18 4.86,4.85 0,2.68 -2.18,4.86 -4.86,4.86z"/>
   <path class="fil2" d="M29.88 10.47c0,-0.96 -0.78,-1.74 -1.74,-1.74 -0.96,0 -1.74,0.78 -1.74,1.74 0,0.96 0.78,1.74 1.74,1.74 0.96,0 1.74,-0.78 1.74,-1.74zm-2.55 0c0,-0.44 0.36,-0.81 0.81,-0.81 0.44,0 0.8,0.37 0.8,0.81 0,0.45 -0.36,0.81 -0.8,0.81 -0.45,0 -0.81,-0.36 -0.81,-0.81z"/>
  </g>
 </g>
</svg>
