<?xml version="1.0" encoding="UTF-8"?>
<!DOCTYPE svg PUBLIC "-//W3C//DTD SVG 1.1//EN" "http://www.w3.org/Graphics/SVG/1.1/DTD/svg11.dtd">
<!-- Creator: CorelDRAW 2019 (64-Bit) -->
<svg xmlns="http://www.w3.org/2000/svg" xml:space="preserve" width="640px" height="640px" version="1.1" style="shape-rendering:geometricPrecision; text-rendering:geometricPrecision; image-rendering:optimizeQuality; fill-rule:evenodd; clip-rule:evenodd"
viewBox="0 0 38.07 38.07"
 xmlns:xlink="http://www.w3.org/1999/xlink">
 <defs>
  <style type="text/css">
   <![CDATA[
    .fil0 {fill:none}
    .fil3 {fill:black;fill-rule:nonzero}
    .fil2 {fill:#777BB3;fill-rule:nonzero}
    .fil4 {fill:white;fill-rule:nonzero}
    .fil1 {fill:url(#id2)}
   ]]>
  </style>
     <clipPath id="id0">
      <path d="M6.31 19.03c0,3.7 5.69,6.7 12.72,6.7l0 0c7.03,0 12.73,-3 12.73,-6.7l0 0c0,-3.69 -5.7,-6.69 -12.73,-6.69l0 0c-7.03,0 -12.72,3 -12.72,6.69z"/>
     </clipPath>
     <clipPath id="id1">
      <path d="M5.78 11.58l26.51 0 0 14.91 -26.51 0 0 -14.91z"/>
     </clipPath>
  <radialGradient id="id2" gradientUnits="userSpaceOnUse" gradientTransform="matrix(1.56312 -0 -0 -1.56313 4 14)" cx="-6.42" cy="5.64" r="53.96" fx="-6.42" fy="5.64">
   <stop offset="0" style="stop-opacity:1; stop-color:#AEB2D5"/>
   <stop offset="0.301961" style="stop-opacity:1; stop-color:#AEB2D5"/>
   <stop offset="0.74902" style="stop-opacity:1; stop-color:#484C89"/>
   <stop offset="1" style="stop-opacity:1; stop-color:#484C89"/>
  </radialGradient>
 </defs>
 <g id="Layer_x0020_1">
  <metadata id="CorelCorpID_0Corel-Layer"/>
  <rect class="fil0" width="38.07" height="38.07"/>
 </g>
 <g id="Capa_x0020_1">
  <metadata id="CorelCorpID_1Corel-Layer"/>
  <g id="_2937787484304">
   <g id="g3440">
    <g>
    </g>
    <g style="clip-path:url(#id0)">
     <g>
      <path id="path3462" class="fil1" d="M6.31 19.03c0,3.7 5.69,6.7 12.72,6.7l0 0c7.03,0 12.73,-3 12.73,-6.7l0 0c0,-3.69 -5.7,-6.69 -12.73,-6.69l0 0c-7.03,0 -12.72,3 -12.72,6.69z"/>
     </g>
    </g>
    <path class="fil0" d="M6.31 19.03c0,3.7 5.69,6.7 12.72,6.7l0 0c7.03,0 12.73,-3 12.73,-6.7l0 0c0,-3.69 -5.7,-6.69 -12.73,-6.69l0 0c-7.03,0 -12.72,3 -12.72,6.69z"/>
   </g>
   <g id="g3464">
    <g>
    </g>
    <g style="clip-path:url(#id1)">
     <g id="_2937787489840">
      <path id="path3474" class="fil2" d="M19.03 25.23c6.76,0 12.24,-2.77 12.24,-6.2 0,-3.42 -5.48,-6.19 -12.24,-6.19 -6.75,0 -12.23,2.77 -12.23,6.19 0,3.43 5.48,6.2 12.23,6.2z"/>
     </g>
    </g>
    <polygon class="fil0" points="5.78,11.58 32.29,11.58 32.29,26.49 5.78,26.49 "/>
   </g>
   <path id="path3486" class="fil3" d="M13.22 19.8c0.56,0 0.97,-0.1 1.23,-0.3 0.26,-0.2 0.44,-0.55 0.54,-1.03 0.08,-0.45 0.05,-0.77 -0.1,-0.94 -0.16,-0.17 -0.5,-0.26 -1.01,-0.26l-0.89 0 -0.49 2.53 0.72 0zm-2.9 3.12c-0.04,0 -0.08,-0.02 -0.11,-0.05 -0.02,-0.03 -0.04,-0.07 -0.03,-0.11l1.31 -6.71c0.01,-0.07 0.07,-0.11 0.13,-0.11l2.81 0c0.89,0 1.54,0.24 1.96,0.71 0.41,0.47 0.54,1.14 0.38,1.98 -0.07,0.34 -0.18,0.65 -0.34,0.93 -0.16,0.29 -0.37,0.55 -0.62,0.78 -0.31,0.29 -0.65,0.5 -1.02,0.62 -0.37,0.12 -0.85,0.18 -1.41,0.18l-1.14 0 -0.32 1.67c-0.02,0.07 -0.07,0.11 -0.14,0.11l-1.46 0 0 0z"/>
   <g>
    <path id="path3490" class="fil4" d="M13.11 17.41l0.77 0c0.62,0 0.83,0.13 0.91,0.22 0.12,0.13 0.14,0.41 0.06,0.81 -0.09,0.45 -0.25,0.77 -0.48,0.95 -0.24,0.18 -0.62,0.28 -1.15,0.28l-0.55 0 0.44 -2.26zm1.32 -1.61l-2.81 0c-0.13,0 -0.24,0.09 -0.27,0.22l-1.3 6.71c-0.02,0.08 0,0.17 0.06,0.23 0.05,0.06 0.13,0.1 0.21,0.1l1.46 0c0.13,0 0.25,-0.09 0.27,-0.22l0.3 -1.56 1.03 0c0.58,0 1.07,-0.07 1.45,-0.19 0.39,-0.13 0.75,-0.35 1.07,-0.65 0.27,-0.24 0.49,-0.51 0.65,-0.81 0.17,-0.29 0.29,-0.62 0.35,-0.98 0.18,-0.88 0.04,-1.58 -0.41,-2.09 -0.44,-0.51 -1.13,-0.76 -2.06,-0.76l0 0zm-2.1 4.14l0.89 0c0.59,0 1.03,-0.11 1.32,-0.33 0.29,-0.22 0.48,-0.59 0.58,-1.11 0.1,-0.5 0.06,-0.85 -0.13,-1.06 -0.18,-0.2 -0.55,-0.31 -1.11,-0.31l-1 0 -0.55 2.81 0 0zm2.1 -3.87c0.85,0 1.47,0.23 1.85,0.67 0.39,0.44 0.51,1.06 0.35,1.86 -0.06,0.33 -0.17,0.63 -0.32,0.9 -0.15,0.27 -0.35,0.52 -0.59,0.74 -0.3,0.28 -0.62,0.47 -0.98,0.59 -0.35,0.11 -0.81,0.17 -1.36,0.17l-1.25 0 -0.35 1.78 -1.46 0 1.3 -6.71 2.81 0z"/>
   </g>
   <path id="path3494" class="fil3" d="M20.12 21.14c-0.04,0 -0.08,-0.02 -0.11,-0.05 -0.02,-0.03 -0.03,-0.08 -0.03,-0.12l0.58 -2.97c0.06,-0.28 0.04,-0.48 -0.04,-0.57 -0.04,-0.05 -0.19,-0.14 -0.62,-0.14l-1.05 0 -0.72 3.74c-0.02,0.06 -0.07,0.11 -0.14,0.11l-1.45 0c-0.04,0 -0.08,-0.02 -0.11,-0.05 -0.02,-0.03 -0.03,-0.08 -0.02,-0.12l1.3 -6.71c0.01,-0.06 0.07,-0.11 0.14,-0.11l1.45 0c0.04,0 0.08,0.02 0.1,0.05 0.03,0.03 0.04,0.08 0.03,0.12l-0.31 1.62 1.12 0c0.86,0 1.44,0.15 1.78,0.46 0.34,0.31 0.45,0.82 0.32,1.5l-0.61 3.13c-0.01,0.06 -0.07,0.11 -0.14,0.11l-1.47 0z"/>
   <g>
    <path id="path3498" class="fil4" d="M19.3 14.01l-1.45 0c-0.14,0 -0.25,0.1 -0.28,0.23l-1.3 6.71c-0.02,0.08 0.01,0.16 0.06,0.23 0.05,0.06 0.13,0.1 0.21,0.1l1.45 0c0.13,0 0.25,-0.1 0.27,-0.23l0.71 -3.62 0.93 0c0.43,0 0.52,0.09 0.52,0.1 0.03,0.03 0.06,0.16 0.01,0.45l-0.58 2.97c-0.02,0.08 0,0.16 0.06,0.23 0.05,0.06 0.13,0.1 0.21,0.1l1.47 0c0.14,0 0.25,-0.1 0.27,-0.23l0.61 -3.12c0.14,-0.73 0.02,-1.28 -0.36,-1.63 -0.37,-0.34 -0.98,-0.5 -1.87,-0.5l-0.96 0 0.29 -1.46c0.01,-0.08 -0.01,-0.16 -0.06,-0.23 -0.05,-0.06 -0.13,-0.1 -0.21,-0.1l0 0zm0 0.28l-0.35 1.78 1.29 0c0.81,0 1.37,0.15 1.68,0.43 0.31,0.28 0.4,0.74 0.28,1.38l-0.61 3.12 -1.47 0 0.58 -2.97c0.06,-0.34 0.04,-0.57 -0.08,-0.69 -0.11,-0.12 -0.35,-0.18 -0.72,-0.18l-1.16 0 -0.75 3.84 -1.45 0 1.31 -6.71 1.45 0z"/>
   </g>
   <path id="path3502" class="fil3" d="M24.63 19.8c0.56,0 0.97,-0.1 1.23,-0.3 0.26,-0.2 0.44,-0.55 0.54,-1.03 0.08,-0.45 0.05,-0.77 -0.1,-0.94 -0.16,-0.17 -0.5,-0.26 -1.01,-0.26l-0.89 0 -0.49 2.53 0.72 0zm-2.9 3.12c-0.04,0 -0.08,-0.02 -0.11,-0.05 -0.03,-0.03 -0.04,-0.07 -0.03,-0.11l1.31 -6.71c0.01,-0.07 0.07,-0.11 0.13,-0.11l2.81 0c0.89,0 1.54,0.24 1.96,0.71 0.41,0.47 0.54,1.14 0.38,1.98 -0.07,0.34 -0.18,0.65 -0.34,0.93 -0.16,0.29 -0.37,0.55 -0.62,0.78 -0.31,0.29 -0.65,0.5 -1.03,0.62 -0.36,0.12 -0.84,0.18 -1.4,0.18l-1.14 0 -0.33 1.67c-0.01,0.07 -0.06,0.11 -0.13,0.11l-1.46 0 0 0z"/>
   <g>
    <path id="path3506" class="fil4" d="M24.52 17.41l0.77 0c0.62,0 0.83,0.13 0.9,0.22 0.13,0.13 0.15,0.41 0.07,0.81 -0.09,0.45 -0.25,0.77 -0.48,0.95 -0.24,0.18 -0.63,0.28 -1.15,0.28l-0.55 0 0.44 -2.26zm1.32 -1.61l-2.81 0c-0.13,0 -0.24,0.09 -0.27,0.22l-1.3 6.71c-0.02,0.08 0,0.17 0.05,0.23 0.06,0.06 0.13,0.1 0.22,0.1l1.46 0c0.13,0 0.25,-0.09 0.27,-0.22l0.3 -1.56 1.03 0c0.58,0 1.06,-0.07 1.45,-0.19 0.39,-0.13 0.75,-0.35 1.07,-0.65 0.27,-0.24 0.49,-0.51 0.65,-0.81 0.17,-0.29 0.28,-0.62 0.35,-0.98 0.17,-0.88 0.04,-1.58 -0.41,-2.09 -0.44,-0.51 -1.13,-0.76 -2.06,-0.76l0 0zm-2.1 4.14l0.89 0c0.59,0 1.03,-0.11 1.32,-0.33 0.29,-0.22 0.48,-0.59 0.58,-1.11 0.1,-0.5 0.05,-0.85 -0.13,-1.06 -0.19,-0.2 -0.56,-0.31 -1.11,-0.31l-1 0 -0.55 2.81 0 0zm2.1 -3.87c0.85,0 1.46,0.23 1.85,0.67 0.39,0.44 0.51,1.06 0.35,1.86 -0.06,0.33 -0.17,0.63 -0.32,0.9 -0.15,0.27 -0.35,0.52 -0.6,0.74 -0.29,0.28 -0.61,0.47 -0.97,0.59 -0.36,0.11 -0.81,0.17 -1.36,0.17l-1.25 0 -0.35 1.78 -1.46 0 1.3 -6.71 2.81 0 0 0zm0 0l0 0 0 0z"/>
   </g>
  </g>
 </g>
</svg>
