<?xml version="1.0" encoding="UTF-8"?>
<!DOCTYPE svg PUBLIC "-//W3C//DTD SVG 1.1//EN" "http://www.w3.org/Graphics/SVG/1.1/DTD/svg11.dtd">
<!-- Creator: CorelDRAW 2019 (64-Bit) -->
<svg xmlns="http://www.w3.org/2000/svg" xml:space="preserve" width="640px" height="640px" version="1.1" style="shape-rendering:geometricPrecision; text-rendering:geometricPrecision; image-rendering:optimizeQuality; fill-rule:evenodd; clip-rule:evenodd"
viewBox="0 0 37.09 37.09"
 xmlns:xlink="http://www.w3.org/1999/xlink">
 <defs>
  <style type="text/css">
   <![CDATA[
    .fil0 {fill:none}
    .fil9 {fill:black;fill-rule:nonzero}
    .fil1 {fill:#3C6EB4;fill-rule:nonzero}
    .fil8 {fill:#60605B;fill-rule:nonzero}
    .fil6 {fill:gray;fill-rule:nonzero}
    .fil7 {fill:#892CA0;fill-rule:nonzero}
    .fil4 {fill:#A7A9AC;fill-rule:nonzero}
    .fil2 {fill:#CCCCCC;fill-rule:nonzero}
    .fil3 {fill:#E7E8E9;fill-rule:nonzero}
    .fil5 {fill:white;fill-rule:nonzero}
   ]]>
  </style>
 </defs>
 <g id="Layer_x0020_1">
  <metadata id="CorelCorpID_0Corel-Layer"/>
  <rect class="fil0" width="37.09" height="37.09"/>
 </g>
 <g id="Layer_x0020_1_0">
  <metadata id="CorelCorpID_1Corel-Layer"/>
  <g id="_2890868169600">
   <path class="fil1" d="M16.53 28.57l5.68 0 0 -0.57 -5.68 0 0 0.57zm-4.02 -1.43l6.9 0 0 -0.58 -6.9 0 0 0.58zm8.58 -7.77c-0.09,0.03 -0.17,0.07 -0.26,0.11l0 0c0.09,-0.04 0.17,-0.08 0.26,-0.11zm3.84 -0.26c0.03,0.13 0.07,0.26 0.12,0.39 0.11,0.05 0.21,0.11 0.32,0.18l2.36 0 0 -0.57 -2.8 0zm-0.31 -1.44c0.03,0.19 0.06,0.39 0.1,0.58l1.86 0 0 -0.58 -1.96 0z"/>
   <path class="fil2" d="M17.94 8.61c-1.02,0 -2.02,0.12 -2.61,0.36 -1.65,0.6 -2.91,2.24 -3.28,4.23 -0.49,2.32 -0.46,4.15 -0.95,5.86 0.22,-0.17 0.47,-0.31 0.73,-0.4 0.38,-0.16 1.02,-0.23 1.68,-0.23 0.65,0 1.32,0.07 1.75,0.23 0.95,0.34 1.7,1.24 2.01,2.34l2.02 0c0.42,-0.76 1.05,-1.35 1.8,-1.63 0.82,-0.32 2.74,-0.32 3.67,0 0.1,0.04 0.19,0.08 0.29,0.13 -0.64,-1.84 -0.56,-3.78 -1.09,-6.3 -0.37,-1.99 -1.64,-3.63 -3.28,-4.23 -0.67,-0.24 -1.72,-0.36 -2.74,-0.36z"/>
   <path class="fil3" d="M21.68 15.59c-0.39,0 -0.7,0.33 -0.7,0.73 0,0.4 0.31,0.73 0.7,0.73 0.38,0 0.69,-0.32 0.7,-0.73 0,0 0,0 0,0 0,-0.4 -0.32,-0.73 -0.7,-0.73 0,0 0,0 0,0zm-7.03 0c-0.39,0 -0.7,0.33 -0.7,0.73 0,0.4 0.31,0.73 0.7,0.73 0.38,0 0.69,-0.33 0.69,-0.73 0,-0.4 -0.31,-0.73 -0.69,-0.73l0 0z"/>
   <path class="fil4" d="M20.18 17.35l-0.25 0.14 1.1 1.91c0.02,-0.01 0.04,-0.02 0.06,-0.03 0.07,-0.02 0.14,-0.05 0.22,-0.07l-1.13 -1.95zm-3.82 0l-0.83 1.42c0.09,0.05 0.17,0.09 0.25,0.14l0.82 -1.42 -0.24 -0.14zm3.91 -0.66l-0.21 0.21 2.25 2.25c0.13,-0.01 0.26,-0.01 0.39,-0.02l-2.43 -2.44zm-4 0l-1.79 1.8c0.12,0.01 0.24,0.03 0.35,0.05l1.64 -1.64 -0.2 -0.21zm4.19 -0.49l-0.15 0.24 2.6 1.51 0.15 -0.25 -2.6 -1.5zm-4.38 0l-2.6 1.5 0.14 0.25 2.6 -1.51 -0.14 -0.24zm4.63 -0.42l-0.07 0.28 2.58 0.69 0.08 -0.28 -2.59 -0.69zm-4.89 0l-2.59 0.69 0.08 0.28 2.58 -0.69 -0.07 -0.28z"/>
   <path class="fil5" d="M20.47 15.81c0,1.17 -1,2.12 -2.23,2.12l0 0c-1.24,0 -2.24,-0.95 -2.24,-2.12l0 0c0,-1.18 1,-2.13 2.24,-2.13l0 0c1.23,0 2.23,0.95 2.23,2.13l0 0z"/>
   <path class="fil6" d="M19.19 15.42c-0.07,-0.19 -0.07,-0.58 -0.3,-0.58 -0.22,0 -0.43,-0.14 -0.65,-0.14 -0.22,0 -0.43,0.14 -0.66,0.14 -0.22,0 -0.22,0.39 -0.3,0.58 -0.07,0.2 0.96,0.83 0.96,0.83 0,0 1.03,-0.63 0.95,-0.83z"/>
   <path class="fil1" d="M26.36 20.69c0.12,0.18 0.23,0.37 0.32,0.57l2.3 0 0 -0.57 -2.62 0zm-9.19 -0.01c0.07,0.19 0.12,0.38 0.17,0.58l1.83 0c0.09,-0.2 0.2,-0.4 0.32,-0.58l-2.32 0z"/>
   <path class="fil2" d="M13.51 18.43c-0.66,0 -1.3,0.07 -1.68,0.23 -1.05,0.38 -1.85,1.43 -2.09,2.69 -0.13,0.59 -0.2,1.13 -0.26,1.63l8.13 0c-0.06,-0.5 -0.13,-1.04 -0.25,-1.63 -0.24,-1.26 -1.05,-2.31 -2.1,-2.69 -0.43,-0.16 -1.1,-0.23 -1.75,-0.23l0 0z"/>
   <path class="fil3" d="M15.9 22.88c-0.1,0 -0.19,0.04 -0.26,0.1l0.53 0c-0.08,-0.06 -0.17,-0.1 -0.27,-0.1l0 0zm-4.5 0c-0.09,0 -0.19,0.04 -0.26,0.1l0.53 0c-0.08,-0.06 -0.17,-0.1 -0.27,-0.1l0 0z"/>
   <path class="fil4" d="M15.29 22.95l0 0.03 0.1 0 -0.1 -0.03zm-3.15 0l-0.1 0.03 0.1 0 0 -0.03z"/>
   <path class="fil5" d="M13.7 21.66c-0.77,0.01 -1.4,0.59 -1.43,1.32l2.85 0c-0.03,-0.73 -0.65,-1.31 -1.42,-1.32z"/>
   <path class="fil6" d="M13.7 22.31c-0.15,0 -0.28,0.09 -0.42,0.09 -0.15,0 -0.15,0.25 -0.19,0.38 -0.02,0.04 0.05,0.12 0.15,0.2l0.91 0c0.1,-0.08 0.17,-0.16 0.15,-0.2 -0.04,-0.13 -0.04,-0.38 -0.19,-0.38 -0.14,0 -0.27,-0.09 -0.41,-0.09z"/>
   <path class="fil7" d="M24.18 6.11l7.08 8.84 -2.49 11.05 -10.18 4.95 -10.21 -4.89 -2.55 -11.04 7.03 -8.88 11.32 -0.03zm0.13 -0.58l-11.59 0.04c-0.09,0 -0.17,0.04 -0.22,0.11l-7.21 9.09c-0.05,0.07 -0.07,0.16 -0.05,0.25l2.61 11.31c0.02,0.08 0.08,0.15 0.16,0.19l10.46 5.01c0.08,0.03 0.17,0.03 0.25,-0.01l10.43 -5.06c0.08,-0.04 0.14,-0.11 0.15,-0.2l2.55 -11.32c0.01,-0.02 0.01,-0.04 0.01,-0.06l0 -0.01c0,-0.06 -0.02,-0.12 -0.06,-0.17l-7.26 -9.06c-0.06,-0.07 -0.14,-0.11 -0.23,-0.11l0 0z"/>
   <path class="fil2" d="M27.42 25.15c-0.13,-0.86 -0.19,-1.79 -0.42,-2.89 -0.26,-1.36 -1.12,-2.48 -2.24,-2.89 -0.93,-0.32 -2.85,-0.32 -3.67,0 -1.12,0.41 -1.98,1.53 -2.24,2.89 -0.23,1.1 -0.29,2.03 -0.42,2.89l8.99 0z"/>
   <path class="fil3" d="M25.44 23.89c-0.27,0 -0.48,0.22 -0.48,0.5l0 0c0,0.28 0.21,0.5 0.48,0.5l0 0c0.26,0 0.47,-0.22 0.47,-0.5 0,-0.28 -0.21,-0.5 -0.47,-0.5zm-4.81 0c-0.26,0 -0.48,0.22 -0.48,0.5l0 0c0,0.28 0.22,0.5 0.48,0.5l0 0c0.26,0 0.47,-0.22 0.47,-0.5 0,-0.28 -0.21,-0.5 -0.47,-0.5z"/>
   <path class="fil4" d="M24.62 24.26l-0.14 0.25 1.78 1.03 0.14 -0.25 -1.78 -1.03zm-3.04 0l-1.77 1.03 0.14 0.25 1.78 -1.03 -0.15 -0.25zm3.21 -0.29l-0.08 0.28 1.77 0.48 0.08 -0.28 -1.77 -0.48zm-3.37 0l-1.77 0.48 0.07 0.28 1.77 -0.48 -0.07 -0.28z"/>
   <path class="fil5" d="M24.61 24.04c0,0.8 -0.68,1.45 -1.53,1.45 -0.84,0 -1.53,-0.65 -1.53,-1.45 0,-0.8 0.69,-1.45 1.53,-1.45l0 0c0.85,0 1.53,0.65 1.53,1.45z"/>
   <path class="fil6" d="M23.73 23.78c-0.05,-0.14 -0.05,-0.4 -0.2,-0.4 -0.15,0 -0.3,-0.1 -0.45,-0.1 -0.15,0 -0.29,0.1 -0.44,0.1 -0.16,0 -0.16,0.26 -0.21,0.4 -0.05,0.13 0.65,0.56 0.65,0.56 0,0 0.71,-0.43 0.65,-0.56z"/>
   <path class="fil8" d="M23.08 22.8c0.74,0 1.32,0.56 1.32,1.24 0,0.68 -0.58,1.23 -1.32,1.23 -0.73,0 -1.31,-0.55 -1.31,-1.23 0,-0.68 0.58,-1.24 1.31,-1.24l0 0zm0 -0.43c-0.95,0 -1.74,0.74 -1.74,1.67 0,0.92 0.79,1.66 1.74,1.66 0.96,0 1.75,-0.74 1.75,-1.66 0,-0.93 -0.79,-1.67 -1.75,-1.67l0 0zm-9.38 -0.92c-0.89,0 -1.62,0.68 -1.65,1.53l0.43 0c0.03,-0.61 0.55,-1.1 1.22,-1.1 0.66,0 1.18,0.49 1.21,1.1l0.43 0c-0.03,-0.85 -0.76,-1.53 -1.64,-1.53zm4.54 -7.55c1.12,0 2.02,0.86 2.02,1.91 0,1.05 -0.9,1.91 -2.02,1.91 -1.13,0 -2.02,-0.86 -2.02,-1.91 0,-1.05 0.89,-1.91 2.02,-1.91zm0 -0.43c-1.35,0 -2.45,1.04 -2.45,2.34 0,1.29 1.1,2.34 2.45,2.34 1.34,0 2.45,-1.05 2.45,-2.34 0,-1.3 -1.11,-2.34 -2.45,-2.34z"/>
   <path class="fil1" d="M13.66 25.13l0 0.57 14.91 0 0 -0.57 -1.16 0 0.01 0.02 -8.99 0 0 -0.02 -4.77 0zm-5.11 -2.15l0 0.57 10.08 0c0.03,-0.18 0.05,-0.37 0.09,-0.57l-10.17 0z"/>
   <path class="fil9" d="M23.08 23.5c0.03,0 0.08,0.01 0.16,0.03 0.07,0.03 0.14,0.04 0.22,0.05 0,0.01 0,0 0,0.01 0.02,0.04 0.03,0.11 0.05,0.17l-0.01 0.01c-0.06,0.06 -0.13,0.11 -0.2,0.17 -0.1,0.07 -0.15,0.1 -0.22,0.14 -0.06,-0.04 -0.11,-0.07 -0.22,-0.14 -0.07,-0.06 -0.13,-0.11 -0.2,-0.17 0,-0.01 0,-0.01 0,-0.01 0.01,-0.06 0.03,-0.13 0.04,-0.17 0,-0.01 0,0 0,-0.01 0.08,-0.01 0.16,-0.02 0.23,-0.05 0.07,-0.02 0.12,-0.03 0.15,-0.03l0 0zm0 -0.43c-0.12,0 -0.22,0.03 -0.29,0.06 -0.07,0.02 -0.12,0.03 -0.15,0.03 -0.1,0 -0.21,0.06 -0.26,0.13 -0.05,0.06 -0.07,0.12 -0.09,0.18 -0.04,0.11 -0.05,0.21 -0.06,0.23 -0.04,0.11 0,0.2 0.03,0.25 0.03,0.05 0.06,0.09 0.1,0.12 0.07,0.08 0.16,0.15 0.25,0.21 0.07,0.06 0.15,0.1 0.21,0.15 -0.04,0.03 -0.1,0.07 -0.19,0.1 -0.08,0.03 -0.14,0.03 -0.19,0.02 -0.04,-0.01 -0.09,-0.05 -0.13,-0.1 0.01,-0.03 0.01,-0.03 0.01,-0.06 0.01,-0.09 0.03,-0.2 0.04,-0.22l-0.42 -0.11c-0.02,0.08 -0.03,0.18 -0.05,0.27 -0.01,0.09 -0.02,0.17 -0.02,0.17l-0.01 0.08 0.05 0.06c0.11,0.18 0.26,0.29 0.42,0.33 0.16,0.04 0.31,0.01 0.43,-0.03 0.12,-0.04 0.22,-0.09 0.32,-0.16 0.07,0.05 0.18,0.12 0.32,0.16 0.12,0.04 0.27,0.07 0.43,0.03 0.16,-0.04 0.31,-0.15 0.42,-0.33l0.04 -0.06 0 -0.08c0,0 -0.02,-0.08 -0.03,-0.17 -0.01,-0.09 -0.02,-0.19 -0.04,-0.27l-0.42 0.11c0.01,0.02 0.03,0.13 0.04,0.22 0,0.03 0,0.03 0,0.06 -0.04,0.05 -0.08,0.09 -0.12,0.1 -0.05,0.01 -0.12,0.01 -0.19,-0.02 -0.09,-0.03 -0.15,-0.07 -0.19,-0.1 0.07,-0.04 0.14,-0.09 0.21,-0.15 0.09,-0.06 0.18,-0.13 0.26,-0.21 0.04,-0.03 0.07,-0.08 0.1,-0.12 0.03,-0.05 0.07,-0.14 0.02,-0.25 0,-0.02 -0.02,-0.12 -0.06,-0.23 -0.01,-0.06 -0.03,-0.12 -0.09,-0.18 -0.05,-0.07 -0.15,-0.13 -0.25,-0.13 -0.03,0 -0.08,-0.01 -0.16,-0.03 -0.07,-0.03 -0.16,-0.06 -0.29,-0.06zm-9.38 -0.97c-0.12,0 -0.21,0.03 -0.28,0.05 -0.07,0.03 -0.12,0.04 -0.14,0.04 -0.1,0 -0.2,0.06 -0.25,0.12 -0.05,0.06 -0.07,0.12 -0.09,0.17 -0.03,0.11 -0.05,0.2 -0.05,0.22 -0.05,0.11 -0.01,0.19 0.02,0.24 0.01,0.02 0.02,0.03 0.03,0.04l0.66 0c-0.04,-0.02 -0.07,-0.04 -0.1,-0.07 -0.07,-0.05 -0.15,-0.11 -0.19,-0.15l0 0c0.02,-0.06 0.03,-0.12 0.04,-0.15 0,-0.01 0,0 0,-0.01 0.08,-0.01 0.15,-0.02 0.21,-0.04 0.06,-0.02 0.11,-0.03 0.14,-0.03 0.02,0 0.07,0.01 0.13,0.03 0.06,0.02 0.13,0.03 0.21,0.04 0,0.01 0,0 0,0.01 0.01,0.03 0.03,0.09 0.04,0.15l0 0c-0.04,0.04 -0.11,0.1 -0.19,0.15 -0.03,0.03 -0.06,0.05 -0.09,0.07l0.65 0c0.01,-0.01 0.02,-0.02 0.03,-0.04 0.03,-0.05 0.07,-0.13 0.03,-0.24 -0.01,-0.02 -0.03,-0.11 -0.06,-0.22 -0.02,-0.06 -0.05,-0.12 -0.09,-0.17 -0.05,-0.06 -0.15,-0.12 -0.25,-0.12 -0.02,0 -0.07,-0.01 -0.14,-0.04 -0.07,-0.02 -0.16,-0.05 -0.27,-0.05zm11.72 -0.05c-0.4,0 -0.73,0.33 -0.73,0.75l0 0c0,0.41 0.32,0.75 0.73,0.75l0 0c0.41,0 0.74,-0.34 0.74,-0.75 0,-0.42 -0.33,-0.75 -0.74,-0.75zm-4.76 0c-0.41,0 -0.74,0.33 -0.74,0.75 0,0.41 0.33,0.75 0.74,0.75 0.41,0 0.73,-0.33 0.74,-0.75l0 0c-0.01,-0.42 -0.33,-0.75 -0.74,-0.75l0 0zm-4.78 -0.89c-0.38,0 -0.69,0.31 -0.69,0.7 0,0 0,0 0,0 0,0.39 0.31,0.71 0.69,0.71 0,0 0,0 0,0 0.38,0 0.69,-0.32 0.69,-0.71 0,0 0,0 0,0 0,-0.39 -0.31,-0.7 -0.69,-0.7zm-4.45 0c-0.38,0 -0.69,0.31 -0.69,0.7 0,0.39 0.31,0.71 0.69,0.71 0,0 0,0 0,0 0.38,0 0.69,-0.32 0.69,-0.71 0,0 0,0 0,0 0,-0.39 -0.31,-0.7 -0.69,-0.7zm9.24 -0.48c-0.02,0 -0.04,0 -0.06,0 -0.31,0.02 -0.59,0.17 -0.78,0.41l-0.13 0.17 0.34 0.26 0.13 -0.17c0.11,-0.14 0.28,-0.22 0.46,-0.23 0.17,-0.01 0.34,0.05 0.46,0.17l0.15 0.15 0.31 -0.3 -0.16 -0.15c-0.19,-0.2 -0.45,-0.3 -0.72,-0.31l0 0zm4.75 0l-0.01 0c-0.27,0.01 -0.53,0.11 -0.72,0.31l-0.15 0.15 0.3 0.3 0.15 -0.15c0.12,-0.12 0.29,-0.18 0.46,-0.17 0.17,0 0.35,0.09 0.46,0.23l0.13 0.17 0.34 -0.26 -0.13 -0.17c-0.19,-0.24 -0.47,-0.39 -0.78,-0.41 -0.02,0 -0.04,0 -0.05,0zm-9.49 -0.81c-0.28,-0.01 -0.55,0.09 -0.74,0.29l-0.15 0.15 0.3 0.3 0.15 -0.15c0.11,-0.11 0.26,-0.16 0.42,-0.16 0.16,0.01 0.32,0.09 0.42,0.22l0.13 0.17 0.34 -0.26 -0.13 -0.18c-0.18,-0.23 -0.45,-0.37 -0.74,-0.38zm-4.55 0c-0.29,0.01 -0.56,0.15 -0.74,0.38l-0.13 0.18 0.34 0.26 0.13 -0.17c0.11,-0.13 0.26,-0.21 0.42,-0.22 0.16,0 0.31,0.05 0.42,0.16l0.15 0.15 0.31 -0.3 -0.16 -0.15c-0.19,-0.2 -0.46,-0.3 -0.74,-0.29zm6.86 -4.96c0.06,0 0.15,0.02 0.25,0.06 0.1,0.03 0.23,0.07 0.37,0.08 0.01,0.01 0.02,0.03 0.03,0.07 0.02,0.08 0.05,0.19 0.08,0.3 -0.01,0.02 -0.02,0.04 -0.05,0.06 -0.07,0.07 -0.19,0.17 -0.31,0.25 -0.18,0.14 -0.29,0.21 -0.37,0.26 -0.08,-0.05 -0.2,-0.12 -0.38,-0.26 -0.12,-0.08 -0.23,-0.18 -0.31,-0.25 -0.02,-0.02 -0.03,-0.04 -0.05,-0.06 0.04,-0.11 0.06,-0.22 0.08,-0.3 0.01,-0.02 0.02,-0.05 0.03,-0.07 0.15,-0.01 0.27,-0.05 0.37,-0.08 0.11,-0.04 0.19,-0.06 0.26,-0.06zm0 -0.43c-0.16,0 -0.29,0.05 -0.4,0.08 -0.1,0.04 -0.19,0.07 -0.26,0.07 -0.11,0 -0.23,0.06 -0.29,0.14 -0.07,0.07 -0.1,0.15 -0.12,0.22 -0.04,0.15 -0.07,0.3 -0.09,0.36 -0.04,0.12 0,0.21 0.04,0.27 0.03,0.07 0.08,0.11 0.13,0.17 0.1,0.1 0.23,0.2 0.36,0.29 0.13,0.1 0.26,0.19 0.36,0.25l-0.01 0.09c-0.05,0.04 -0.16,0.14 -0.36,0.21 -0.12,0.04 -0.23,0.05 -0.33,0.03 -0.09,-0.03 -0.17,-0.1 -0.26,-0.22 0,-0.04 0.01,-0.06 0.02,-0.14 0.01,-0.13 0.04,-0.28 0.05,-0.33l-0.42 -0.11c-0.02,0.1 -0.04,0.25 -0.06,0.38 -0.02,0.14 -0.03,0.25 -0.03,0.25l-0.01 0.08 0.04 0.07c0.15,0.24 0.35,0.38 0.56,0.43 0.21,0.06 0.41,0.02 0.58,-0.03 0.22,-0.08 0.4,-0.2 0.49,-0.27 0.1,0.07 0.28,0.19 0.5,0.27 0.17,0.05 0.37,0.09 0.57,0.03 0.21,-0.05 0.41,-0.19 0.57,-0.43l0.04 -0.07 -0.01 -0.08c0,0 -0.02,-0.11 -0.03,-0.25 -0.02,-0.13 -0.05,-0.28 -0.07,-0.38l-0.42 0.11c0.01,0.05 0.04,0.2 0.06,0.33 0.01,0.08 0.01,0.1 0.02,0.14 -0.09,0.12 -0.18,0.19 -0.26,0.22 -0.1,0.02 -0.22,0.01 -0.34,-0.03 -0.19,-0.07 -0.31,-0.17 -0.36,-0.21l0 -0.08c0.1,-0.07 0.23,-0.16 0.37,-0.26 0.13,-0.09 0.26,-0.19 0.36,-0.29 0.05,-0.06 0.09,-0.1 0.13,-0.17 0.03,-0.06 0.08,-0.15 0.03,-0.27 -0.02,-0.06 -0.04,-0.21 -0.09,-0.36 -0.02,-0.07 -0.05,-0.15 -0.11,-0.22 -0.06,-0.08 -0.18,-0.14 -0.3,-0.14 -0.06,0 -0.15,-0.03 -0.26,-0.07 -0.11,-0.03 -0.23,-0.08 -0.39,-0.08zm3.42 -1.59c-0.6,0 -1.08,0.49 -1.08,1.1 0,0.61 0.48,1.1 1.08,1.1 0.59,0 1.07,-0.49 1.07,-1.1 0,-0.61 -0.48,-1.1 -1.07,-1.1l0 0zm-6.97 0c-0.59,0 -1.07,0.49 -1.07,1.1 0,0.61 0.48,1.1 1.07,1.1 0.6,0 1.08,-0.49 1.08,-1.1 0,0 0,0 0,0 0,-0.61 -0.48,-1.1 -1.08,-1.1 0,0 0,0 0,0zm6.96 -1.9c-0.37,0 -0.73,0.15 -0.99,0.41l-0.16 0.16 0.3 0.3 0.16 -0.15c0.2,-0.19 0.47,-0.3 0.74,-0.29 0.29,0.01 0.58,0.16 0.75,0.39l0.13 0.17 0.34 -0.26 -0.13 -0.17c-0.27,-0.36 -0.69,-0.56 -1.14,-0.56zm-6.95 0c-0.44,0 -0.87,0.2 -1.14,0.56l-0.13 0.17 0.34 0.26 0.13 -0.17c0.18,-0.23 0.46,-0.37 0.75,-0.39 0.27,-0.01 0.55,0.1 0.74,0.29l0.16 0.15 0.3 -0.3 -0.15 -0.16c-0.27,-0.26 -0.62,-0.41 -1,-0.41l0 0zm3.24 -2.59l0 0c-1.03,0 -2.04,0.11 -2.69,0.37 -1.72,0.63 -3.02,2.33 -3.41,4.38 -0.34,1.63 -0.44,3 -0.62,4.25 -0.08,0.53 -0.17,1.04 -0.31,1.53 -0.7,0.56 -1.2,1.41 -1.38,2.39 -0.13,0.6 -0.2,1.15 -0.27,1.66l0.44 0c0.06,-0.49 0.13,-1.01 0.25,-1.58l0 0 0 -0.01c0.23,-1.2 0.99,-2.18 1.96,-2.53l0 0 0 0c0.33,-0.13 0.96,-0.22 1.6,-0.22 0.63,0 1.29,0.08 1.68,0.22 0.96,0.35 1.73,1.33 1.95,2.53l0 0.01 0.01 0c0.12,0.57 0.19,1.09 0.25,1.58l0.43 0c-0.06,-0.51 -0.13,-1.06 -0.26,-1.67 -0.25,-1.33 -1.1,-2.44 -2.24,-2.86l0 0 0 0c-0.48,-0.16 -1.15,-0.24 -1.82,-0.24 -0.67,0 -1.32,0.07 -1.75,0.25 -0.11,0.03 -0.22,0.08 -0.32,0.13 0.08,-0.37 0.15,-0.75 0.21,-1.13 0.18,-1.27 0.27,-2.63 0.61,-4.22l0 0 0 0c0.36,-1.93 1.58,-3.5 3.14,-4.07l0 0 0 0c0.55,-0.22 1.54,-0.34 2.54,-0.34 1.01,0 2.04,0.12 2.67,0.34 1.56,0.57 2.78,2.14 3.14,4.07l0 0 0 0c0.34,1.59 0.43,2.95 0.61,4.22 0.09,0.57 0.19,1.13 0.35,1.67 -0.5,-0.15 -1.16,-0.22 -1.83,-0.22 -0.71,0 -1.4,0.08 -1.86,0.26 -1.21,0.44 -2.11,1.63 -2.38,3.04 -0.24,1.12 -0.3,2.06 -0.42,2.9l0.42 0.07c0.13,-0.87 0.19,-1.8 0.42,-2.88l0 0 0 0c0.25,-1.29 1.07,-2.35 2.11,-2.73l0 0 0 0c0.35,-0.14 1.03,-0.23 1.71,-0.23 0.68,0 1.38,0.09 1.8,0.24l0.01 0c1.03,0.38 1.85,1.43 2.1,2.72l0 0c0.22,1.08 0.29,2.01 0.41,2.88l0.43 -0.07c-0.12,-0.84 -0.19,-1.78 -0.42,-2.9 -0.24,-1.26 -0.98,-2.33 -1.99,-2.86 -0.2,-0.63 -0.33,-1.27 -0.43,-1.95 -0.19,-1.25 -0.28,-2.62 -0.62,-4.24 -0.38,-2.06 -1.68,-3.76 -3.41,-4.4l-0.01 0c-0.72,-0.25 -1.77,-0.36 -2.81,-0.36z"/>
   <path class="fil7" d="M25.41 22.26l0.01 0c0.29,0 0.52,0.24 0.52,0.54 0,0.3 -0.23,0.54 -0.52,0.54 -0.28,0 -0.52,-0.24 -0.52,-0.54 0,-0.29 0.22,-0.53 0.5,-0.54 0,0 0,0 0.01,0l0 0zm-4.76 0l0.01 0c0.29,0 0.52,0.24 0.52,0.54 0,0.3 -0.23,0.54 -0.52,0.54 -0.29,0 -0.52,-0.24 -0.52,-0.54 0,-0.29 0.22,-0.53 0.49,-0.54 0.01,0 0.01,0 0.02,0l0 0zm4.77 -0.43c-0.52,0 -0.95,0.44 -0.95,0.97 0,0.53 0.43,0.97 0.95,0.97 0.53,0 0.95,-0.44 0.95,-0.97 0,-0.53 -0.42,-0.97 -0.95,-0.97zm-4.76 0c-0.53,0 -0.95,0.44 -0.95,0.97 0,0.53 0.42,0.97 0.95,0.97 0.52,0 0.95,-0.44 0.95,-0.97 0,-0.53 -0.43,-0.97 -0.95,-0.97zm-4.78 -0.46c0.26,0 0.48,0.22 0.48,0.49 0,0.28 -0.22,0.49 -0.48,0.49 -0.26,0 -0.47,-0.21 -0.47,-0.49 0,-0.27 0.21,-0.49 0.47,-0.49zm-4.45 0c0.26,0 0.47,0.22 0.47,0.49 0,0.28 -0.21,0.49 -0.47,0.49 -0.26,0 -0.47,-0.21 -0.47,-0.49 0,-0.27 0.21,-0.49 0.47,-0.49zm4.43 -0.43c-0.01,0 -0.02,0 -0.02,0 -0.48,0.03 -0.86,0.43 -0.86,0.92 0,0.5 0.4,0.92 0.9,0.92 0.5,0 0.91,-0.42 0.91,-0.92 0,-0.5 -0.41,-0.92 -0.91,-0.92 0,0 -0.02,0 -0.02,0zm-4.45 0c-0.01,0 -0.02,0 -0.03,0 -0.48,0.03 -0.85,0.43 -0.85,0.92 0,0.5 0.4,0.92 0.9,0.92 0.5,0 0.9,-0.42 0.9,-0.92 0,-0.5 -0.4,-0.92 -0.9,-0.92l-0.02 0zm10.25 -7.84c0.08,0 0.17,0.01 0.25,0.04 0.11,0.03 0.21,0.09 0.29,0.16 0.09,0.08 0.16,0.16 0.21,0.26 0.06,0.11 0.09,0.22 0.1,0.34 0.02,0.18 -0.01,0.36 -0.1,0.52 -0.05,0.1 -0.12,0.18 -0.21,0.26 -0.06,0.05 -0.13,0.1 -0.21,0.13 -0.21,0.09 -0.45,0.09 -0.67,0 -0.1,-0.04 -0.19,-0.11 -0.27,-0.19 -0.08,-0.08 -0.14,-0.18 -0.19,-0.28 -0.04,-0.1 -0.06,-0.2 -0.06,-0.3 -0.01,-0.08 0,-0.16 0.01,-0.23 0.03,-0.11 0.07,-0.22 0.13,-0.32 0.06,-0.09 0.14,-0.17 0.24,-0.24 0.08,-0.05 0.17,-0.1 0.26,-0.12 0.07,-0.02 0.14,-0.03 0.22,-0.03zm-6.97 0l0 0c0.05,0 0.09,0 0.13,0.01 0.1,0.02 0.2,0.05 0.28,0.1 0.08,0.04 0.14,0.09 0.2,0.15 0.08,0.08 0.15,0.18 0.19,0.28 0.04,0.1 0.06,0.2 0.07,0.3 0,0.11 -0.01,0.22 -0.04,0.32 -0.04,0.11 -0.09,0.21 -0.16,0.3 -0.07,0.09 -0.16,0.16 -0.26,0.21 -0.16,0.09 -0.35,0.13 -0.54,0.1 -0.21,-0.03 -0.4,-0.14 -0.53,-0.31 -0.07,-0.09 -0.13,-0.19 -0.16,-0.3 -0.02,-0.09 -0.04,-0.18 -0.04,-0.27 0,-0.09 0.02,-0.18 0.04,-0.27 0.03,-0.11 0.09,-0.21 0.16,-0.3 0.07,-0.08 0.16,-0.16 0.25,-0.21 0.12,-0.07 0.24,-0.1 0.37,-0.11 0.01,0 0.03,0 0.04,0l0 0zm6.97 -0.43c-0.15,0 -0.31,0.03 -0.45,0.08 -0.11,0.05 -0.23,0.11 -0.33,0.19 -0.11,0.08 -0.21,0.19 -0.29,0.32 -0.2,0.29 -0.27,0.65 -0.2,0.99 0.05,0.26 0.18,0.49 0.35,0.67 0.09,0.09 0.19,0.17 0.3,0.23 0.11,0.06 0.23,0.1 0.36,0.13 0.13,0.03 0.26,0.04 0.39,0.02 0.25,-0.03 0.49,-0.13 0.69,-0.29 0.13,-0.11 0.23,-0.25 0.31,-0.39 0.12,-0.24 0.18,-0.5 0.15,-0.76 -0.02,-0.2 -0.08,-0.38 -0.18,-0.55 -0.11,-0.18 -0.26,-0.33 -0.43,-0.45 -0.11,-0.06 -0.23,-0.11 -0.35,-0.15 -0.11,-0.02 -0.21,-0.04 -0.32,-0.04l0 0zm-6.97 0c-0.34,0 -0.67,0.14 -0.91,0.39 -0.15,0.15 -0.26,0.34 -0.32,0.54 -0.04,0.15 -0.06,0.3 -0.05,0.46 0.02,0.41 0.23,0.79 0.56,1.02 0.09,0.06 0.18,0.11 0.28,0.15 0.31,0.11 0.65,0.1 0.95,-0.03 0.11,-0.05 0.22,-0.11 0.32,-0.19 0.11,-0.1 0.2,-0.21 0.28,-0.34 0.16,-0.26 0.22,-0.57 0.17,-0.88 -0.03,-0.17 -0.08,-0.33 -0.17,-0.48 -0.1,-0.16 -0.23,-0.3 -0.38,-0.41 -0.09,-0.06 -0.18,-0.11 -0.28,-0.15 -0.14,-0.05 -0.29,-0.08 -0.45,-0.08l0 0z"/>
   <path class="fil5" d="M25.25 22.26c-0.2,0 -0.36,0.17 -0.36,0.38 0,0 0,0 0,0 0,0.2 0.16,0.37 0.36,0.37 0.2,0 0.36,-0.17 0.36,-0.37 0,-0.21 -0.16,-0.38 -0.36,-0.38 0,0 0,0 0,0zm-4.84 -0.05c-0.2,0 -0.36,0.17 -0.36,0.38 0,0.2 0.16,0.37 0.36,0.37 0,0 0,0 0,0 0.2,0 0.37,-0.17 0.37,-0.37 0,0 0,0 0,0 0,-0.21 -0.17,-0.38 -0.37,-0.38zm-4.71 -0.85c-0.19,0 -0.34,0.16 -0.34,0.35l0 0c0,0.2 0.15,0.35 0.34,0.35l0 0c0.19,0 0.34,-0.15 0.34,-0.35 0,0 0,0 0,0 0,-0.19 -0.15,-0.35 -0.34,-0.35 0,0 0,0 0,0zm-4.5 -0.05c-0.19,0 -0.34,0.16 -0.34,0.35 0,0.2 0.15,0.35 0.34,0.35l0 0c0.19,0 0.34,-0.15 0.34,-0.35l0 0c0,-0.19 -0.15,-0.35 -0.34,-0.35l0 0 0 0zm10.1 -8.18c-0.3,0 -0.53,0.24 -0.53,0.55 -0.01,0.3 0.23,0.55 0.52,0.55 0,0 0,0 0.01,0 0.29,0 0.52,-0.25 0.52,-0.55 0,0 0,0 0,0 0,-0.31 -0.23,-0.55 -0.52,-0.55zm-6.96 0c-0.3,0 -0.53,0.24 -0.53,0.55 0,0.3 0.23,0.55 0.52,0.55 0,0 0,0 0.01,0 0.29,0 0.52,-0.25 0.52,-0.55 0,0 0,0 0,0 0,-0.31 -0.23,-0.55 -0.52,-0.55z"/>
  </g>
 </g>
</svg>
