<?xml version="1.0" encoding="UTF-8"?>
<!DOCTYPE svg PUBLIC "-//W3C//DTD SVG 1.1//EN" "http://www.w3.org/Graphics/SVG/1.1/DTD/svg11.dtd">
<!-- Creator: CorelDRAW -->
<svg xmlns="http://www.w3.org/2000/svg" xml:space="preserve" width="640px" height="640px" version="1.1" style="shape-rendering:geometricPrecision; text-rendering:geometricPrecision; image-rendering:optimizeQuality; fill-rule:evenodd; clip-rule:evenodd"
viewBox="0 0 35.29 35.29"
 xmlns:xlink="http://www.w3.org/1999/xlink"
 xmlns:xodm="http://www.corel.com/coreldraw/odm/2003">
 <defs>
  <style type="text/css">
   <![CDATA[
    .fil0 {fill:none}
    .fil1 {fill:#002155;fill-rule:nonzero}
    .fil2 {fill:#FFC221;fill-rule:nonzero}
   ]]>
  </style>
 </defs>
 <g id="Layer_x0020_1">
  <metadata id="CorelCorpID_0Corel-Layer"/>
  <rect class="fil0" width="35.29" height="35.29"/>
 </g>
 <g id="Capa_x0020_1">
  <metadata id="CorelCorpID_1Corel-Layer"/>
  <g id="_2174036817168">
   <path class="fil1" d="M12.09 5.41c0.07,-0.09 0.17,-0.14 0.29,-0.14l0.05 0c0.18,0 0.33,0.13 0.36,0.31l10.19 3.72c0.25,0.09 0.45,0.25 0.59,0.45 0.14,0.21 0.22,0.45 0.22,0.7 0,0.2 -0.16,0.37 -0.36,0.37 -0.2,0 -0.37,-0.17 -0.37,-0.37 0,-0.1 -0.03,-0.2 -0.09,-0.28 -0.05,-0.08 -0.13,-0.15 -0.23,-0.19l-10.47 -3.82c-0.15,-0.05 -0.24,-0.16 -0.28,-0.29 -0.02,-0.07 -0.03,-0.15 -0.02,-0.22 0.02,-0.07 0.05,-0.15 0.1,-0.21 0,-0.01 0.01,-0.02 0.02,-0.03z"/>
   <path class="fil1" d="M28.02 7.56c0,0.2 -0.16,0.36 -0.36,0.36 -0.2,0 -0.36,-0.16 -0.36,-0.36l0 -1.41c0,-0.05 -0.02,-0.09 -0.05,-0.11 -0.03,-0.03 -0.07,-0.05 -0.11,-0.05l-14.76 0c-0.04,0 -0.08,0.02 -0.11,0.05 -0.02,0.02 -0.04,0.06 -0.04,0.11l0 3.7c0,0.2 -0.16,0.36 -0.36,0.36 -0.2,0 -0.37,-0.16 -0.37,-0.36l0 -3.7c0,-0.25 0.1,-0.47 0.26,-0.63 0.16,-0.16 0.38,-0.25 0.62,-0.25l14.76 0c0.25,0 0.46,0.09 0.62,0.25 0.16,0.16 0.26,0.38 0.26,0.63l0 1.41z"/>
   <path class="fil1" d="M27.3 9.25c0,-0.2 0.16,-0.36 0.36,-0.36 0.2,0 0.36,0.16 0.36,0.36l0 15.68c0,0.24 -0.1,0.46 -0.26,0.62 -0.16,0.16 -0.37,0.25 -0.62,0.25l-3.71 0c-0.2,0 -0.37,-0.16 -0.37,-0.36 0,-0.2 0.17,-0.36 0.37,-0.36l3.71 0c0.04,0 0.08,-0.02 0.11,-0.05 0.03,-0.02 0.05,-0.06 0.05,-0.1l0 -15.68z"/>
   <path class="fil1" d="M8 24.84c0,0.2 -0.16,0.36 -0.36,0.36 -0.21,0 -0.37,-0.16 -0.37,-0.36l0 -14.47c0,-0.25 0.1,-0.46 0.26,-0.62 0.16,-0.16 0.38,-0.26 0.62,-0.26l14.76 0c0.24,0 0.46,0.1 0.62,0.26 0.16,0.16 0.26,0.37 0.26,0.62l0 18.78c0,0.24 -0.1,0.46 -0.26,0.62 -0.16,0.16 -0.38,0.26 -0.62,0.26l-14.76 0c-0.24,0 -0.46,-0.1 -0.62,-0.26 -0.16,-0.16 -0.26,-0.38 -0.26,-0.62l0 -2.62c0,-0.2 0.16,-0.36 0.37,-0.36 0.2,0 0.36,0.16 0.36,0.36l0 2.62c0,0.04 0.01,0.08 0.04,0.11 0.03,0.02 0.07,0.04 0.11,0.04l14.76 0c0.04,0 0.08,-0.02 0.11,-0.04 0.03,-0.03 0.04,-0.07 0.04,-0.11l0 -18.78c0,-0.04 -0.01,-0.08 -0.04,-0.11 -0.03,-0.03 -0.07,-0.05 -0.11,-0.05l-14.76 0c-0.04,0 -0.08,0.02 -0.11,0.05 -0.03,0.03 -0.04,0.07 -0.04,0.11l0 14.47z"/>
   <path class="fil1" d="M16.21 27.58c-0.08,0.18 -0.29,0.27 -0.47,0.2 -0.19,-0.08 -0.28,-0.29 -0.2,-0.47l2.18 -5.42c0.07,-0.18 0.28,-0.27 0.47,-0.2 0.09,0.04 0.16,0.12 0.2,0.2l2.18 5.42c0.07,0.18 -0.02,0.39 -0.2,0.47 -0.19,0.07 -0.4,-0.02 -0.47,-0.2l-1.85 -4.58 -1.84 4.58z"/>
   <path class="fil1" d="M16.58 26.05c-0.2,0 -0.36,-0.17 -0.36,-0.37 0,-0.2 0.16,-0.36 0.36,-0.36l2.93 0c0.2,0 0.36,0.16 0.36,0.36 0,0.2 -0.16,0.37 -0.36,0.37l-2.93 0z"/>
   <path class="fil2" d="M16.01 19.97l-6.05 0c-0.2,0 -0.38,-0.08 -0.51,-0.21 -0.13,-0.13 -0.21,-0.32 -0.21,-0.52l0 -6.04c0,-0.2 0.08,-0.38 0.21,-0.51 0.13,-0.13 0.31,-0.21 0.51,-0.21l6.05 0c0.2,0 0.38,0.08 0.51,0.21 0.13,0.13 0.21,0.31 0.21,0.51l0 6.04c0,0.2 -0.08,0.39 -0.21,0.52 -0.13,0.13 -0.31,0.21 -0.51,0.21zm-6.04 -0.73l6.04 0 0 -6.04 -6.04 0 0 6.04z"/>
   <path class="fil2" d="M11.57 14.45c-0.11,0 -0.2,0.04 -0.27,0.11 -0.07,0.07 -0.12,0.17 -0.12,0.27 0,0.11 0.05,0.21 0.12,0.28 0.07,0.07 0.16,0.11 0.27,0.11 0.11,0 0.2,-0.04 0.27,-0.11 0.07,-0.07 0.12,-0.17 0.12,-0.28 0,-0.1 -0.05,-0.2 -0.12,-0.27 -0.07,-0.07 -0.16,-0.11 -0.27,-0.11zm-0.79 -0.4c0.2,-0.21 0.48,-0.33 0.79,-0.33 0.31,0 0.59,0.12 0.79,0.33 0.2,0.2 0.32,0.48 0.32,0.78 0,0.31 -0.12,0.59 -0.32,0.79 -0.2,0.2 -0.48,0.32 -0.79,0.32 -0.31,0 -0.59,-0.12 -0.79,-0.32 -0.2,-0.2 -0.32,-0.48 -0.32,-0.79 0,-0.3 0.12,-0.58 0.32,-0.78z"/>
   <path class="fil2" d="M16.59 16.19c0.16,0.12 0.19,0.35 0.07,0.51 -0.12,0.16 -0.35,0.19 -0.51,0.07l-0.9 -0.67c-0.17,-0.13 -0.37,-0.19 -0.57,-0.18 -0.2,0.01 -0.4,0.09 -0.55,0.23l-1.81 1.67c-0.23,0.22 -0.53,0.34 -0.83,0.37 -0.3,0.03 -0.61,-0.04 -0.88,-0.2l-1.2 -0.73c-0.17,-0.11 -0.22,-0.33 -0.12,-0.5 0.11,-0.17 0.33,-0.23 0.5,-0.12l1.2 0.73c0.13,0.08 0.28,0.12 0.43,0.1 0.15,-0.01 0.29,-0.07 0.41,-0.18l1.81 -1.67c0.28,-0.26 0.64,-0.4 1,-0.42 0.37,-0.02 0.74,0.09 1.05,0.32l0.9 0.67z"/>
   <path class="fil1" d="M18.69 13.2c-0.2,0 -0.36,-0.16 -0.36,-0.36 0,-0.2 0.16,-0.36 0.36,-0.36l2.77 0c0.2,0 0.36,0.16 0.36,0.36 0,0.2 -0.16,0.36 -0.36,0.36l-2.77 0z"/>
   <path class="fil1" d="M18.69 15.22c-0.2,0 -0.36,-0.17 -0.36,-0.37 0,-0.2 0.16,-0.36 0.36,-0.36l2.77 0c0.2,0 0.36,0.16 0.36,0.36 0,0.2 -0.16,0.37 -0.36,0.37l-2.77 0z"/>
   <path class="fil1" d="M9.6 23.93c-0.2,0 -0.36,-0.17 -0.36,-0.37 0,-0.2 0.16,-0.36 0.36,-0.36l2.77 0c0.2,0 0.36,0.16 0.36,0.36 0,0.2 -0.16,0.37 -0.36,0.37l-2.77 0z"/>
   <path class="fil1" d="M9.6 25.94c-0.2,0 -0.36,-0.16 -0.36,-0.36 0,-0.2 0.16,-0.36 0.36,-0.36l2.77 0c0.2,0 0.36,0.16 0.36,0.36 0,0.2 -0.16,0.36 -0.36,0.36l-2.77 0z"/>
  </g>
 </g>
</svg>
