<?xml version="1.0" encoding="UTF-8"?>
<!DOCTYPE svg PUBLIC "-//W3C//DTD SVG 1.1//EN" "http://www.w3.org/Graphics/SVG/1.1/DTD/svg11.dtd">
<!-- Creator: CorelDRAW -->
<svg xmlns="http://www.w3.org/2000/svg" xml:space="preserve" width="640px" height="640px" version="1.1" style="shape-rendering:geometricPrecision; text-rendering:geometricPrecision; image-rendering:optimizeQuality; fill-rule:evenodd; clip-rule:evenodd"
viewBox="0 0 35.29 35.29"
 xmlns:xlink="http://www.w3.org/1999/xlink"
 xmlns:xodm="http://www.corel.com/coreldraw/odm/2003">
 <defs>
  <style type="text/css">
   <![CDATA[
    .fil0 {fill:none}
    .fil1 {fill:#002155;fill-rule:nonzero}
    .fil2 {fill:#FFC221;fill-rule:nonzero}
   ]]>
  </style>
 </defs>
 <g id="Layer_x0020_1">
  <metadata id="CorelCorpID_0Corel-Layer"/>
  <rect class="fil0" width="35.29" height="35.29"/>
 </g>
 <g id="Capa_x0020_1">
  <metadata id="CorelCorpID_1Corel-Layer"/>
  <g id="_323">
   <path class="fil1" d="M6.3 9.51l2.18 0c0.57,0 1.03,-0.46 1.03,-1.03l0 -2.18c0,-0.57 -0.46,-1.03 -1.03,-1.03l-2.18 0c-0.57,0 -1.04,0.46 -1.04,1.03l0 2.18c0,0.57 0.47,1.03 1.04,1.03l0 0zm0 -3.21l2.18 0c0,0.11 0,2.23 0,2.18l-2.18 0 0 -2.18z"/>
   <path class="fil1" d="M29 25.78c-1.67,0 -1.89,0 -2.19,0 -0.57,0 -1.03,0.47 -1.03,1.04l0 2.17c0,0.57 0.46,1.04 1.03,1.04l2.19 0c0.57,0 1.03,-0.47 1.03,-1.04l0 -2.17c0,-0.57 -0.46,-1.04 -1.03,-1.04l0 0zm0 3.21l-2.19 0 0 -2.17c0.84,0 0.39,0 2.19,0l0 2.17z"/>
   <path class="fil1" d="M29 5.27l-2.19 0c-0.57,0 -1.03,0.46 -1.03,1.03l0 2.18c0,0.57 0.46,1.03 1.03,1.03l2.19 0c0.57,0 1.03,-0.46 1.03,-1.03l0 -2.18c0,-0.57 -0.46,-1.03 -1.03,-1.03l0 0zm0 3.21l-2.19 0 0 -2.18 2.19 0 0 2.18z"/>
   <path class="fil1" d="M6.3 30.03l2.18 0c0.57,0 1.03,-0.47 1.03,-1.04l0 -2.17c0,-0.57 -0.46,-1.04 -1.03,-1.04 -0.07,0 -2.33,0 -2.18,0 -0.57,0 -1.04,0.47 -1.04,1.04l0 2.17c0,0.57 0.47,1.04 1.04,1.04l0 0zm0 -3.21l2.18 0c0,0.06 0,2.23 0,2.17l-2.18 0 0 -2.17z"/>
   <polygon class="fil1" points="7.9,21.86 6.87,21.86 6.87,22.9 7.9,22.9 "/>
   <polygon class="fil1" points="6.87,24.86 7.9,24.86 7.9,23.82 6.87,23.82 "/>
   <polygon class="fil1" points="7.9,10.1 6.87,10.1 6.87,11.13 7.9,11.13 "/>
   <polygon class="fil1" points="7.9,19.9 6.87,19.9 6.87,20.94 7.9,20.94 "/>
   <polygon class="fil1" points="7.9,17.94 6.87,17.94 6.87,18.97 7.9,18.97 "/>
   <polygon class="fil1" points="7.9,15.98 6.87,15.98 6.87,17.01 7.9,17.01 "/>
   <polygon class="fil1" points="7.9,12.06 6.87,12.06 6.87,13.09 7.9,13.09 "/>
   <polygon class="fil1" points="7.9,14.02 6.87,14.02 6.87,15.05 7.9,15.05 "/>
   <polygon class="fil1" points="28.42,10.1 27.39,10.1 27.39,11.13 28.42,11.13 "/>
   <polygon class="fil1" points="27.39,15.05 28.42,15.05 28.42,14.02 27.39,14.02 "/>
   <polygon class="fil1" points="27.39,18.97 28.42,18.97 28.42,17.94 27.39,17.94 "/>
   <polygon class="fil1" points="27.39,22.9 28.42,22.9 28.42,21.86 27.39,21.86 "/>
   <polygon class="fil1" points="27.39,24.86 28.42,24.86 28.42,23.82 27.39,23.82 "/>
   <polygon class="fil1" points="27.39,17.01 28.42,17.01 28.42,15.98 27.39,15.98 "/>
   <polygon class="fil1" points="27.39,20.94 28.42,20.94 28.42,19.9 27.39,19.9 "/>
   <polygon class="fil1" points="27.39,13.09 28.42,13.09 28.42,12.06 27.39,12.06 "/>
   <polygon class="fil1" points="18.28,6.87 18.28,7.9 19.31,7.9 19.31,6.87 "/>
   <polygon class="fil1" points="12.4,6.87 12.4,7.9 13.43,7.9 13.43,6.87 "/>
   <polygon class="fil1" points="21.27,6.87 20.24,6.87 20.24,7.9 21.27,7.9 "/>
   <polygon class="fil1" points="15.39,6.87 14.36,6.87 14.36,7.9 15.39,7.9 "/>
   <polygon class="fil1" points="10.44,6.87 10.44,7.9 11.47,7.9 11.47,6.87 "/>
   <polygon class="fil1" points="16.32,6.87 16.32,7.9 17.35,7.9 17.35,6.87 "/>
   <polygon class="fil1" points="23.23,6.87 22.2,6.87 22.2,7.9 23.23,7.9 "/>
   <polygon class="fil1" points="25.19,6.87 24.16,6.87 24.16,7.9 25.19,7.9 "/>
   <polygon class="fil1" points="18.28,27.39 18.28,28.42 19.31,28.42 19.31,27.39 "/>
   <polygon class="fil1" points="11.47,28.42 11.47,27.39 10.44,27.39 10.44,28.42 "/>
   <polygon class="fil1" points="22.2,27.39 22.2,28.42 23.23,28.42 23.23,27.39 "/>
   <polygon class="fil1" points="25.19,27.39 24.16,27.39 24.16,28.42 25.19,28.42 "/>
   <polygon class="fil1" points="14.36,28.42 15.39,28.42 15.39,27.39 14.36,27.39 "/>
   <polygon class="fil1" points="13.43,28.42 13.43,27.39 12.4,27.39 12.4,28.42 "/>
   <polygon class="fil1" points="21.27,27.39 20.24,27.39 20.24,28.42 21.27,28.42 "/>
   <polygon class="fil1" points="17.35,27.39 16.32,27.39 16.32,28.42 17.35,28.42 "/>
   <path class="fil2" d="M15.62 21.9c0.15,-0.09 0.24,-0.26 0.24,-0.44l0 -5.69 4.71 -2.37c0.17,-0.09 0.28,-0.27 0.28,-0.46 0,-0.19 -0.11,-0.37 -0.28,-0.46l-4.99 -2.52c-0.15,-0.07 -0.32,-0.07 -0.47,0l-4.99 2.52c-0.16,0.08 -0.28,0.27 -0.28,0.46l0 6.01c0,0.19 0.11,0.37 0.28,0.46l4.99 2.51c0.16,0.08 0.35,0.08 0.51,-0.02zm-0.28 -10.9l3.85 1.94 -3.85 1.94 -3.84 -1.94 3.84 -1.94zm-4.47 7.63l0 -4.85 3.96 1.99 0 4.85 -3.96 -1.99z"/>
   <path class="fil1" d="M24.24 22l0.59 -0.23c0.2,-0.08 0.33,-0.28 0.32,-0.5 -0.01,-0.22 -0.15,-0.41 -0.36,-0.48l-1.69 -0.5 0 -5.66c0,-0.18 -0.1,-0.35 -0.25,-0.44 -0.15,-0.1 -0.34,-0.11 -0.5,-0.03l-4.99 2.52c-0.17,0.09 -0.28,0.27 -0.28,0.46l0 6c0,0.18 0.09,0.35 0.24,0.44 0.15,0.1 0.34,0.11 0.51,0.03l2.34 -1.19 0.69 2.3c0.06,0.21 0.25,0.36 0.47,0.37 0.23,0.01 0.42,-0.12 0.5,-0.33l0.24 -0.59 1.06 1.06c0.1,0.1 0.23,0.15 0.36,0.15 0.13,0 0.27,-0.05 0.37,-0.15l1.44 -1.44c0.2,-0.2 0.2,-0.53 0,-0.73l-1.06 -1.06zm-6.13 0.31l0 -4.85 3.95 -2 0 4.51 -1.21 -0.36 -0.77 -0.23c-0.18,-0.06 -0.38,-0.01 -0.51,0.13 -0.14,0.13 -0.19,0.33 -0.13,0.51l0.42 1.4 -1.75 0.89zm5.38 1.83l-1.25 -1.25c-0.09,-0.1 -0.23,-0.15 -0.36,-0.15 -0.04,0 -0.07,0 -0.11,0.01 -0.15,0.03 -0.28,0.13 -0.35,0.26l-0.44 -1.45c0,-0.01 0,-0.02 0,-0.03l-0.27 -0.89 1.67 0.51c0.01,0 0.01,0 0.02,0l0.68 0.21c-0.14,0.07 -0.23,0.2 -0.26,0.34 -0.04,0.17 0.02,0.35 0.14,0.47l1.25 1.25 -0.72 0.72z"/>
  </g>
 </g>
</svg>
