<?xml version="1.0" encoding="UTF-8"?>
<!DOCTYPE svg PUBLIC "-//W3C//DTD SVG 1.1//EN" "http://www.w3.org/Graphics/SVG/1.1/DTD/svg11.dtd">
<!-- Creator: CorelDRAW 2019 (64-Bit) -->
<svg xmlns="http://www.w3.org/2000/svg" xml:space="preserve" width="640px" height="640px" version="1.1" style="shape-rendering:geometricPrecision; text-rendering:geometricPrecision; image-rendering:optimizeQuality; fill-rule:evenodd; clip-rule:evenodd"
viewBox="0 0 46.62 46.62"
 xmlns:xlink="http://www.w3.org/1999/xlink">
 <defs>
  <style type="text/css">
   <![CDATA[
    .fil0 {fill:none}
    .fil1 {fill:#0A2155;fill-rule:nonzero}
    .fil2 {fill:#FFC221;fill-rule:nonzero}
   ]]>
  </style>
 </defs>
 <g id="Layer_x0020_1">
  <metadata id="CorelCorpID_0Corel-Layer"/>
  <rect class="fil0" width="46.62" height="46.62"/>
 </g>
 <g id="Layer_x0020_3">
  <metadata id="CorelCorpID_1Corel-Layer"/>
  <g id="_2493955452576">
   <path class="fil1" d="M31.75 41.01c0.43,-0.42 0.69,-1.01 0.69,-1.66l0 -18.66c0,-0.65 -0.26,-1.24 -0.69,-1.66 -0.43,-0.43 -1.01,-0.69 -1.66,-0.69l-13.56 0c-0.65,0 -1.24,0.26 -1.66,0.69 -0.43,0.42 -0.69,1.01 -0.69,1.66l0 18.66c0,0.65 0.26,1.24 0.69,1.66 0.42,0.43 1.01,0.69 1.66,0.69l13.56 0c0.65,0 1.23,-0.26 1.66,-0.69zm-12.99 -37.84c-1.16,1.16 -1.89,2.77 -1.89,4.54 0,1.78 0.73,3.39 1.89,4.55 1.17,1.17 2.78,1.89 4.55,1.89 1.77,0 3.38,-0.72 4.55,-1.89 1.16,-1.16 1.88,-2.77 1.88,-4.55 0,-1.77 -0.72,-3.38 -1.88,-4.54 -1.17,-1.17 -2.78,-1.89 -4.55,-1.89 -1.77,0 -3.38,0.72 -4.55,1.89zm5.19 13.89l6.14 0c1,0 1.91,0.41 2.56,1.06 0.66,0.66 1.07,1.57 1.07,2.57l0 18.66c0,1 -0.41,1.91 -1.07,2.57 -0.65,0.65 -1.56,1.06 -2.56,1.06l-13.56 0c-1,0 -1.91,-0.41 -2.57,-1.06 -0.65,-0.66 -1.06,-1.57 -1.06,-2.57l0 -18.66c0,-1 0.41,-1.91 1.06,-2.57 0.66,-0.65 1.57,-1.06 2.57,-1.06l6.14 0 0 -1.66c-1.95,-0.16 -3.7,-1.05 -4.98,-2.4 -1.3,-1.38 -2.09,-3.24 -2.09,-5.29 0,-2.12 0.86,-4.05 2.26,-5.45 1.39,-1.39 3.32,-2.26 5.45,-2.26 2.13,0 4.05,0.87 5.45,2.26 1.4,1.4 2.26,3.33 2.26,5.45 0,2.05 -0.79,3.91 -2.1,5.29 -1.27,1.35 -3.02,2.24 -4.97,2.4l0 1.66z"/>
   <path class="fil1" d="M16.49 31.37l13.63 0c0.18,0 0.34,0.07 0.46,0.19 0.11,0.11 0.18,0.27 0.18,0.45 0,0.18 -0.07,0.34 -0.18,0.45 -0.12,0.12 -0.28,0.19 -0.46,0.19l-13.63 0c-0.17,0 -0.33,-0.07 -0.45,-0.19 -0.11,-0.11 -0.19,-0.27 -0.19,-0.45 0,-0.18 0.08,-0.34 0.19,-0.45 0.12,-0.12 0.28,-0.19 0.45,-0.19zm0 5.73l10.21 0c0.18,0 0.34,0.07 0.46,0.19 0.11,0.11 0.18,0.27 0.18,0.45 0,0.18 -0.07,0.34 -0.18,0.45 -0.12,0.12 -0.28,0.19 -0.46,0.19l-10.21 0c-0.17,0 -0.33,-0.07 -0.45,-0.19l0 0c-0.11,-0.11 -0.19,-0.27 -0.19,-0.45 0,-0.18 0.08,-0.34 0.19,-0.45 0.12,-0.12 0.28,-0.19 0.45,-0.19zm0 -2.86l13.63 0c0.18,0 0.34,0.07 0.46,0.18 0.11,0.12 0.18,0.28 0.18,0.46 0,0.17 -0.07,0.33 -0.18,0.45 -0.12,0.11 -0.28,0.18 -0.46,0.18l-13.63 0c-0.17,0 -0.33,-0.07 -0.45,-0.18 -0.11,-0.12 -0.19,-0.28 -0.19,-0.45 0,-0.18 0.08,-0.34 0.19,-0.46 0.12,-0.11 0.28,-0.18 0.45,-0.18zm0 -11.46l13.63 0c0.18,0 0.34,0.07 0.46,0.18 0.11,0.12 0.18,0.28 0.18,0.45 0,0.18 -0.07,0.34 -0.18,0.46 -0.12,0.11 -0.28,0.18 -0.46,0.18l-13.63 0c-0.17,0 -0.33,-0.07 -0.45,-0.18 -0.11,-0.12 -0.19,-0.28 -0.19,-0.46 0,-0.17 0.08,-0.33 0.19,-0.45 0.12,-0.11 0.28,-0.18 0.45,-0.18zm0 2.86l13.63 0c0.18,0 0.34,0.07 0.46,0.19 0.11,0.11 0.18,0.27 0.18,0.45 0,0.18 -0.07,0.34 -0.18,0.45 -0.12,0.12 -0.28,0.19 -0.46,0.19l-13.63 0c-0.17,0 -0.33,-0.07 -0.45,-0.19 -0.11,-0.11 -0.19,-0.27 -0.19,-0.45 0,-0.18 0.08,-0.34 0.19,-0.45 0.12,-0.12 0.28,-0.19 0.45,-0.19zm0 2.87l13.63 0c0.18,0 0.34,0.07 0.46,0.18 0.11,0.12 0.18,0.28 0.18,0.45 0,0.18 -0.07,0.34 -0.18,0.46 -0.12,0.11 -0.28,0.18 -0.46,0.18l-13.63 0c-0.17,0 -0.33,-0.07 -0.45,-0.18l0 0c-0.11,-0.12 -0.19,-0.28 -0.19,-0.46 0,-0.17 0.08,-0.33 0.19,-0.45 0.12,-0.11 0.28,-0.18 0.45,-0.18z"/>
   <path class="fil2" d="M44.01 12.87l0.97 -0.13 0 -0.73 -0.97 -0.13c-0.13,-0.02 -0.25,-0.08 -0.35,-0.17 -0.09,-0.09 -0.16,-0.2 -0.19,-0.33 -0.06,-0.28 -0.14,-0.54 -0.25,-0.8 -0.11,-0.26 -0.24,-0.51 -0.39,-0.75 -0.07,-0.11 -0.11,-0.24 -0.1,-0.36 0,-0.13 0.04,-0.26 0.12,-0.37l0.59 -0.78 -0.51 -0.51 -0.78 0.59c-0.06,0.04 -0.12,0.07 -0.18,0.09 -0.07,0.03 -0.13,0.04 -0.2,0.04 -0.06,0 -0.13,-0.01 -0.18,-0.03 -0.06,-0.02 -0.12,-0.04 -0.17,-0.08 -0.24,-0.15 -0.49,-0.28 -0.75,-0.39 -0.26,-0.11 -0.52,-0.19 -0.79,-0.25 -0.13,-0.02 -0.25,-0.09 -0.34,-0.19 -0.09,-0.09 -0.15,-0.21 -0.16,-0.34l-0.14 -0.97 -0.72 0 -0.14 0.97c-0.02,0.13 -0.08,0.25 -0.17,0.34 -0.08,0.1 -0.2,0.16 -0.33,0.19 -0.28,0.06 -0.55,0.15 -0.8,0.25 -0.26,0.11 -0.51,0.24 -0.74,0.39 -0.06,0.03 -0.11,0.06 -0.17,0.08 -0.06,0.02 -0.12,0.02 -0.18,0.02 -0.07,0 -0.14,-0.01 -0.2,-0.03 -0.07,-0.02 -0.13,-0.05 -0.18,-0.09l-0.79 -0.59 -0.51 0.51 0.59 0.78c0.08,0.11 0.12,0.23 0.13,0.36 0,0.13 -0.03,0.26 -0.1,0.37 -0.16,0.24 -0.29,0.49 -0.4,0.75 -0.1,0.26 -0.19,0.53 -0.25,0.8 -0.02,0.13 -0.09,0.24 -0.19,0.33 -0.09,0.09 -0.21,0.15 -0.34,0.16l-0.97 0.14 0 0.72 0.97 0.14c0.13,0.02 0.25,0.08 0.35,0.17 0.09,0.09 0.16,0.2 0.19,0.33 0.05,0.27 0.14,0.54 0.24,0.8 0.11,0.26 0.24,0.51 0.4,0.75 0.07,0.11 0.1,0.24 0.1,0.37 -0.01,0.12 -0.05,0.25 -0.13,0.36l-0.59 0.78 0.51 0.51 0.79 -0.59c0.05,-0.04 0.11,-0.07 0.18,-0.09 0.06,-0.02 0.13,-0.04 0.2,-0.04 0.06,0 0.12,0.01 0.18,0.03 0.06,0.02 0.12,0.04 0.17,0.08 0.24,0.15 0.49,0.28 0.74,0.39 0.26,0.11 0.53,0.19 0.8,0.25 0.13,0.03 0.25,0.1 0.33,0.19 0.09,0.09 0.15,0.21 0.17,0.34l0.14 0.97 0.72 0 0.14 -0.97c0.01,-0.13 0.07,-0.25 0.16,-0.34 0.09,-0.1 0.2,-0.17 0.33,-0.19 0.28,-0.06 0.55,-0.15 0.81,-0.25 0.26,-0.11 0.5,-0.24 0.74,-0.39 0.05,-0.04 0.1,-0.06 0.16,-0.08 0.06,-0.02 0.12,-0.03 0.18,-0.03 0.07,0 0.14,0.02 0.21,0.04 0.06,0.02 0.12,0.05 0.18,0.09l0.78 0.59 0.51 -0.51 -0.58 -0.78c-0.08,-0.11 -0.13,-0.24 -0.13,-0.37 -0.01,-0.12 0.03,-0.25 0.1,-0.36 0.15,-0.24 0.28,-0.49 0.39,-0.75 0.11,-0.25 0.19,-0.52 0.25,-0.8 0.03,-0.13 0.1,-0.25 0.19,-0.33 0.1,-0.09 0.22,-0.15 0.35,-0.17zm-4.78 0.35c0.11,-0.04 0.21,-0.11 0.29,-0.2 0.09,-0.08 0.16,-0.19 0.2,-0.29 0.05,-0.11 0.07,-0.23 0.07,-0.36 0,-0.25 -0.1,-0.48 -0.27,-0.64 -0.16,-0.17 -0.39,-0.27 -0.64,-0.27 -0.25,0 -0.48,0.1 -0.65,0.27 -0.17,0.16 -0.27,0.39 -0.27,0.65 0,0.25 0.1,0.48 0.27,0.64 0.16,0.17 0.39,0.27 0.65,0.27 0.12,0 0.24,-0.02 0.35,-0.07zm-1.9 -2.4c0.4,-0.4 0.94,-0.64 1.55,-0.64 0.6,0 1.15,0.24 1.55,0.64 0.4,0.4 0.64,0.95 0.64,1.55 0,0.3 -0.06,0.58 -0.16,0.84 -0.11,0.27 -0.27,0.51 -0.48,0.72l0 0c-0.21,0.2 -0.45,0.36 -0.71,0.47 -0.27,0.11 -0.55,0.17 -0.84,0.17 -0.61,0 -1.16,-0.25 -1.55,-0.64 -0.4,-0.4 -0.65,-0.95 -0.65,-1.56 0,-0.6 0.25,-1.15 0.65,-1.55zm7.28 -0.15l1.09 0.16c0.16,0.02 0.3,0.1 0.4,0.21 0.1,0.11 0.15,0.26 0.15,0.42l0 1.83c0,0.16 -0.06,0.31 -0.15,0.42 -0.1,0.11 -0.24,0.19 -0.4,0.21l-1.09 0.16c-0.06,0.2 -0.13,0.39 -0.21,0.58 -0.08,0.19 -0.17,0.38 -0.27,0.56l0.67 0.89c0.09,0.12 0.14,0.28 0.13,0.43 -0.02,0.15 -0.08,0.29 -0.19,0.4l-1.3 1.3c-0.06,0.06 -0.13,0.1 -0.2,0.13 -0.08,0.04 -0.16,0.05 -0.25,0.05 -0.06,0 -0.13,-0.01 -0.2,-0.03 -0.06,-0.02 -0.12,-0.05 -0.18,-0.09l-0.89 -0.67c-0.18,0.1 -0.36,0.19 -0.56,0.27 -0.19,0.08 -0.38,0.15 -0.58,0.2l-0.16 1.1c-0.02,0.16 -0.1,0.29 -0.21,0.39 -0.12,0.1 -0.26,0.16 -0.42,0.16l-1.83 0c-0.15,0 -0.3,-0.06 -0.41,-0.16 -0.12,-0.09 -0.2,-0.23 -0.22,-0.39l-0.16 -1.09c-0.19,-0.06 -0.39,-0.13 -0.58,-0.21 -0.19,-0.08 -0.38,-0.17 -0.56,-0.27l-0.89 0.67c-0.05,0.04 -0.11,0.07 -0.18,0.09 -0.06,0.02 -0.13,0.03 -0.2,0.03 -0.08,0 -0.16,-0.01 -0.24,-0.04 -0.08,-0.04 -0.15,-0.08 -0.21,-0.14 -0.43,-0.39 -0.88,-0.88 -1.29,-1.3 -0.12,-0.11 -0.18,-0.25 -0.19,-0.4 -0.01,-0.15 0.03,-0.31 0.13,-0.43l0.66 -0.89c-0.1,-0.18 -0.19,-0.37 -0.27,-0.56 -0.07,-0.19 -0.14,-0.38 -0.2,-0.58l-1.1 -0.16c-0.16,-0.02 -0.29,-0.1 -0.39,-0.22 -0.1,-0.11 -0.16,-0.26 -0.16,-0.41l0 -1.83c0,-0.16 0.06,-0.31 0.16,-0.42 0.1,-0.11 0.23,-0.19 0.39,-0.21l1.1 -0.16c0.06,-0.2 0.12,-0.39 0.2,-0.58 0.08,-0.19 0.17,-0.38 0.27,-0.56l-0.66 -0.89c-0.1,-0.13 -0.14,-0.28 -0.13,-0.43 0.01,-0.15 0.07,-0.29 0.19,-0.41l1.29 -1.29c0.06,-0.06 0.13,-0.1 0.2,-0.14 0.08,-0.03 0.16,-0.04 0.25,-0.04 0.07,0 0.13,0.01 0.2,0.03 0.07,0.02 0.13,0.05 0.18,0.09l0.89 0.67c0.18,-0.1 0.37,-0.19 0.56,-0.27 0.19,-0.08 0.39,-0.15 0.58,-0.21l0.16 -1.09c0.02,-0.16 0.1,-0.3 0.21,-0.39 0.12,-0.1 0.26,-0.16 0.42,-0.16l1.83 0c0.16,0 0.31,0.06 0.42,0.15 0.11,0.1 0.19,0.24 0.21,0.4l0.16 1.09c0.2,0.06 0.39,0.13 0.58,0.21 0.19,0.08 0.38,0.17 0.57,0.27l0.88 -0.66c0.06,-0.05 0.12,-0.08 0.18,-0.1 0.07,-0.02 0.14,-0.03 0.21,-0.03 0.08,0 0.16,0.01 0.24,0.05 0.08,0.03 0.15,0.07 0.21,0.13l1.29 1.29c0.11,0.12 0.17,0.26 0.19,0.41 0.01,0.15 -0.04,0.3 -0.13,0.43l-0.67 0.89c0.1,0.18 0.19,0.37 0.27,0.56 0.08,0.19 0.15,0.38 0.21,0.58z"/>
   <path class="fil2" d="M8.1 18.47l0.14 -0.97c0.02,-0.13 0.08,-0.25 0.16,-0.34 0.09,-0.1 0.21,-0.17 0.34,-0.19 0.27,-0.06 0.54,-0.15 0.8,-0.25 0.26,-0.11 0.51,-0.24 0.74,-0.39 0.05,-0.04 0.11,-0.06 0.17,-0.08 0.06,-0.02 0.12,-0.03 0.18,-0.03 0.07,0 0.13,0.02 0.2,0.04 0.06,0.02 0.12,0.05 0.18,0.09l0.79 0.59 0.51 -0.51 -0.59 -0.78c-0.08,-0.11 -0.12,-0.24 -0.13,-0.37 0,-0.12 0.03,-0.25 0.1,-0.36 0.15,-0.24 0.28,-0.49 0.39,-0.74 0.11,-0.26 0.19,-0.53 0.25,-0.81 0.03,-0.13 0.1,-0.25 0.19,-0.33 0.1,-0.09 0.22,-0.15 0.35,-0.17l0.97 -0.13 0 -0.73 -0.97 -0.13c-0.13,-0.02 -0.25,-0.08 -0.34,-0.17 -0.1,-0.09 -0.17,-0.2 -0.19,-0.33 -0.06,-0.28 -0.15,-0.54 -0.25,-0.8 -0.11,-0.26 -0.24,-0.51 -0.4,-0.75 -0.07,-0.11 -0.1,-0.24 -0.1,-0.36 0,-0.13 0.05,-0.26 0.13,-0.37l0.59 -0.78 -0.51 -0.51 -0.79 0.59c-0.05,0.04 -0.11,0.07 -0.18,0.09 -0.06,0.03 -0.13,0.04 -0.2,0.04 -0.06,0 -0.12,-0.01 -0.18,-0.03 -0.06,-0.02 -0.12,-0.04 -0.17,-0.08 -0.24,-0.15 -0.49,-0.28 -0.75,-0.39 -0.25,-0.11 -0.52,-0.19 -0.79,-0.25 -0.13,-0.02 -0.25,-0.09 -0.33,-0.19 -0.09,-0.09 -0.15,-0.21 -0.17,-0.34l-0.14 -0.97 -0.72 0 -0.14 0.97c-0.02,0.13 -0.08,0.25 -0.16,0.34 -0.09,0.1 -0.21,0.16 -0.34,0.19 -0.27,0.06 -0.54,0.15 -0.8,0.25 -0.26,0.11 -0.51,0.24 -0.74,0.39 -0.05,0.03 -0.11,0.06 -0.17,0.08 -0.06,0.02 -0.12,0.02 -0.18,0.02 -0.07,0 -0.14,-0.01 -0.2,-0.03 -0.07,-0.02 -0.13,-0.05 -0.18,-0.09l-0.79 -0.59 -0.51 0.51 0.59 0.78c0.08,0.11 0.13,0.23 0.13,0.36 0,0.13 -0.03,0.26 -0.1,0.37 -0.16,0.24 -0.29,0.49 -0.39,0.75 -0.11,0.26 -0.2,0.52 -0.25,0.8 -0.03,0.12 -0.1,0.24 -0.19,0.33 -0.1,0.09 -0.22,0.15 -0.35,0.16l-0.97 0.14 0 0.72 0.97 0.14c0.14,0.02 0.26,0.08 0.35,0.17 0.09,0.09 0.16,0.2 0.19,0.33 0.06,0.27 0.14,0.54 0.25,0.8 0.1,0.26 0.24,0.51 0.39,0.75 0.07,0.11 0.1,0.24 0.1,0.37 -0.01,0.12 -0.05,0.25 -0.13,0.36l-0.59 0.78 0.52 0.51 0.78 -0.59c0.06,-0.04 0.12,-0.07 0.18,-0.09 0.07,-0.02 0.14,-0.04 0.2,-0.04 0.06,0 0.13,0.01 0.18,0.03 0.06,0.02 0.12,0.04 0.17,0.08 0.24,0.15 0.49,0.28 0.75,0.39 0.25,0.11 0.52,0.19 0.79,0.25 0.13,0.03 0.25,0.1 0.34,0.19 0.08,0.09 0.14,0.21 0.16,0.34l0.14 0.97 0.72 0zm-0.01 -5.25c0.11,-0.04 0.21,-0.11 0.3,-0.2l0 0c0.08,-0.08 0.15,-0.19 0.2,-0.29 0.04,-0.11 0.07,-0.23 0.07,-0.36 -0.01,-0.25 -0.11,-0.48 -0.27,-0.64 -0.17,-0.17 -0.4,-0.27 -0.65,-0.27 -0.25,0 -0.48,0.1 -0.65,0.27 -0.16,0.16 -0.27,0.39 -0.27,0.65 0,0.25 0.11,0.48 0.27,0.64 0.17,0.17 0.4,0.27 0.65,0.27 0.12,0 0.24,-0.02 0.35,-0.07zm1.2 -2.4c0.4,0.4 0.64,0.95 0.64,1.55 0,0.3 -0.05,0.58 -0.16,0.84 -0.11,0.27 -0.27,0.51 -0.48,0.72l0 0c-0.21,0.2 -0.45,0.36 -0.71,0.47 -0.26,0.11 -0.55,0.17 -0.84,0.17l0 0c-0.61,0 -1.15,-0.25 -1.55,-0.64 -0.4,-0.4 -0.65,-0.95 -0.65,-1.56 0.01,-0.6 0.25,-1.15 0.65,-1.55 0.4,-0.4 0.95,-0.64 1.55,-0.64 0.6,0 1.15,0.24 1.55,0.64zm0.15 7.28l-0.15 1.1c-0.03,0.16 -0.11,0.29 -0.22,0.39 -0.11,0.1 -0.26,0.16 -0.42,0.16l-1.82 0c-0.16,0 -0.31,-0.06 -0.42,-0.16 -0.11,-0.09 -0.19,-0.23 -0.22,-0.39l-0.15 -1.09c-0.2,-0.06 -0.4,-0.13 -0.59,-0.21 -0.19,-0.08 -0.37,-0.17 -0.55,-0.27l-0.89 0.67c-0.06,0.04 -0.12,0.07 -0.18,0.09 -0.07,0.02 -0.14,0.03 -0.2,0.03 -0.09,0 -0.17,-0.01 -0.25,-0.04 -0.07,-0.04 -0.15,-0.08 -0.21,-0.14l-1.29 -1.3c-0.11,-0.11 -0.18,-0.25 -0.19,-0.4 -0.01,-0.15 0.03,-0.31 0.13,-0.43l0.66 -0.89c-0.1,-0.18 -0.19,-0.37 -0.26,-0.56 -0.08,-0.19 -0.15,-0.38 -0.21,-0.58l-1.1 -0.16c-0.15,-0.02 -0.29,-0.1 -0.39,-0.21 -0.1,-0.12 -0.16,-0.26 -0.16,-0.42l0.01 -1.83c0,-0.16 0.05,-0.3 0.15,-0.42 0.1,-0.11 0.24,-0.19 0.39,-0.21l1.1 -0.16c0.06,-0.2 0.13,-0.39 0.21,-0.58 0.07,-0.19 0.16,-0.38 0.27,-0.56l-0.67 -0.89c-0.1,-0.13 -0.14,-0.28 -0.13,-0.43 0.01,-0.15 0.08,-0.29 0.19,-0.41l1.29 -1.29c0.06,-0.06 0.13,-0.1 0.21,-0.14 0.07,-0.03 0.16,-0.04 0.24,-0.04 0.07,0 0.14,0.01 0.2,0.03 0.07,0.02 0.13,0.05 0.18,0.09l0.89 0.67c0.18,-0.1 0.37,-0.19 0.56,-0.27 0.2,-0.08 0.39,-0.15 0.59,-0.21l0.15 -1.09c0.03,-0.16 0.1,-0.3 0.22,-0.39 0.11,-0.1 0.26,-0.16 0.42,-0.16l1.82 0c0.16,0 0.31,0.06 0.42,0.15 0.12,0.1 0.2,0.24 0.22,0.4l0.15 1.09c0.2,0.06 0.39,0.13 0.58,0.21 0.2,0.08 0.38,0.17 0.57,0.27l0.88 -0.66c0.06,-0.05 0.12,-0.08 0.18,-0.1 0.07,-0.02 0.14,-0.03 0.21,-0.03 0.08,0 0.16,0.01 0.24,0.05 0.08,0.03 0.15,0.07 0.21,0.13 0.43,0.39 0.88,0.88 1.29,1.29 0.11,0.12 0.18,0.26 0.19,0.41 0.01,0.15 -0.03,0.3 -0.13,0.43l-0.66 0.89c0.1,0.18 0.19,0.37 0.27,0.56 0.07,0.19 0.14,0.38 0.2,0.58l1.1 0.16c0.15,0.02 0.29,0.1 0.39,0.21 0.1,0.11 0.16,0.26 0.16,0.42l0 1.83c0,0.16 -0.06,0.31 -0.16,0.42 -0.1,0.11 -0.24,0.19 -0.39,0.21l-1.1 0.16c-0.06,0.2 -0.13,0.39 -0.21,0.58 -0.08,0.19 -0.16,0.38 -0.26,0.56l0.66 0.89c0.1,0.12 0.14,0.28 0.13,0.43 -0.01,0.15 -0.08,0.29 -0.19,0.4l-1.29 1.3c-0.06,0.06 -0.13,0.1 -0.21,0.13 -0.08,0.04 -0.16,0.05 -0.24,0.05 -0.07,0 -0.14,-0.01 -0.2,-0.03 -0.07,-0.02 -0.13,-0.05 -0.19,-0.09l-0.88 -0.67c-0.19,0.1 -0.37,0.19 -0.56,0.27 -0.19,0.08 -0.39,0.15 -0.59,0.2z"/>
   <path class="fil2" d="M27.22 5.11c0.07,0.03 0.14,0.07 0.2,0.13l0 0c0.13,0.12 0.19,0.28 0.2,0.44 0.01,0.16 -0.05,0.33 -0.17,0.46 0,0 -4,4.31 -4.38,4.72 -0.06,0.07 -0.13,0.12 -0.21,0.15 -0.09,0.04 -0.17,0.06 -0.26,0.06 -0.09,0 -0.18,-0.02 -0.26,-0.06 -0.08,-0.03 -0.15,-0.08 -0.21,-0.15l-2.68 -2.91c-0.06,-0.06 -0.1,-0.13 -0.13,-0.21 -0.03,-0.08 -0.04,-0.16 -0.04,-0.25 0,-0.08 0.02,-0.16 0.06,-0.24 0.03,-0.07 0.08,-0.14 0.15,-0.2 0.06,-0.05 0.12,-0.1 0.2,-0.13 0.07,-0.02 0.15,-0.04 0.23,-0.04 0.09,0 0.17,0.02 0.26,0.05 0.08,0.04 0.15,0.09 0.21,0.16l2.21 2.4 3.91 -4.22c0.06,-0.06 0.13,-0.12 0.21,-0.15 0.09,-0.04 0.17,-0.06 0.26,-0.06 0.08,0 0.16,0.02 0.24,0.05z"/>
   <path class="fil1" d="M10.19 29.28l1.63 0c0.18,0 0.34,0.07 0.46,0.19 0.11,0.11 0.18,0.27 0.18,0.45 0,0.17 -0.07,0.33 -0.18,0.45 -0.12,0.12 -0.28,0.19 -0.46,0.19l-1.63 0c-0.85,0 -1.62,-0.35 -2.18,-0.91 -0.56,-0.56 -0.91,-1.33 -0.91,-2.18l0 -6.57c0,-0.18 0.07,-0.33 0.19,-0.45 0.11,-0.12 0.27,-0.19 0.45,-0.19 0.18,0 0.34,0.07 0.45,0.19 0.12,0.11 0.19,0.27 0.19,0.45l0 6.57c0,0.5 0.2,0.95 0.53,1.28 0.33,0.33 0.78,0.53 1.28,0.53zm28.24 -8.83c0.11,-0.12 0.27,-0.19 0.45,-0.19 0.17,0 0.33,0.07 0.45,0.19 0.12,0.12 0.19,0.28 0.19,0.45l0 6.57c0,0.85 -0.35,1.62 -0.91,2.18 -0.56,0.56 -1.33,0.91 -2.18,0.91l-1.64 0c-0.17,0 -0.33,-0.07 -0.45,-0.19 -0.11,-0.12 -0.18,-0.28 -0.18,-0.45 0,-0.18 0.07,-0.34 0.18,-0.45 0.12,-0.12 0.28,-0.19 0.45,-0.19l1.64 0c0.5,0 0.95,-0.2 1.28,-0.53 0.33,-0.33 0.53,-0.78 0.53,-1.28l0 -6.57c0,-0.18 0.07,-0.34 0.19,-0.45z"/>
  </g>
 </g>
</svg>
