<?xml version="1.0" encoding="UTF-8"?>
<!DOCTYPE svg PUBLIC "-//W3C//DTD SVG 1.1//EN" "http://www.w3.org/Graphics/SVG/1.1/DTD/svg11.dtd">
<!-- Creator: CorelDRAW -->
<svg xmlns="http://www.w3.org/2000/svg" xml:space="preserve" width="640px" height="640px" version="1.1" style="shape-rendering:geometricPrecision; text-rendering:geometricPrecision; image-rendering:optimizeQuality; fill-rule:evenodd; clip-rule:evenodd"
viewBox="0 0 47.25 47.25"
 xmlns:xlink="http://www.w3.org/1999/xlink"
 xmlns:xodm="http://www.corel.com/coreldraw/odm/2003">
 <defs>
  <style type="text/css">
   <![CDATA[
    .str0 {stroke:#FFC221;stroke-width:0.07;stroke-miterlimit:22.9256}
    .fil0 {fill:none}
    .fil1 {fill:#002155;fill-rule:nonzero}
    .fil2 {fill:#FFC221;fill-rule:nonzero}
   ]]>
  </style>
 </defs>
 <g id="Layer_x0020_1">
  <metadata id="CorelCorpID_0Corel-Layer"/>
  <rect class="fil0" width="47.25" height="47.25"/>
 </g>
 <g id="Capa_x0020_1">
  <metadata id="CorelCorpID_1Corel-Layer"/>
  <g id="_2173810541744">
   <path id="path2430" class="fil1" d="M27.65 11.44c0.33,0 0.61,0.27 0.61,0.61 0,0.33 -0.28,0.61 -0.61,0.61 -0.34,0 -0.61,-0.28 -0.61,-0.61 0,-0.34 0.27,-0.61 0.61,-0.61z"/>
   <path id="path2434" class="fil1" d="M15.95 11.44c0.33,0 0.61,0.27 0.61,0.61 0,0.33 -0.28,0.61 -0.61,0.61 -0.34,0 -0.61,-0.28 -0.61,-0.61 0,-0.34 0.27,-0.61 0.61,-0.61z"/>
   <path id="path2438" class="fil1" d="M12.29 11.44c0.34,0 0.61,0.27 0.61,0.61 0,0.33 -0.27,0.61 -0.61,0.61 -0.34,0 -0.61,-0.28 -0.61,-0.61 0,-0.34 0.27,-0.61 0.61,-0.61z"/>
   <path class="fil1" d="M39.23 14.48l0 21.94c0,0.51 -0.21,0.97 -0.54,1.3 -0.01,0.01 -0.02,0.02 -0.04,0.03 -0.33,0.31 -0.77,0.5 -1.25,0.5l-27.55 0c-0.5,0 -0.96,-0.2 -1.29,-0.53l0 0 0 0c-0.33,-0.33 -0.54,-0.79 -0.54,-1.3l0 -25.59c0,-0.51 0.21,-0.96 0.54,-1.29 0.01,-0.02 0.03,-0.03 0.04,-0.04 0.33,-0.31 0.77,-0.5 1.25,-0.5l27.55 0c0.5,0 0.96,0.2 1.29,0.54l0 0 0 0c0.33,0.33 0.54,0.78 0.54,1.29l0 3.65zm-1.22 21.94l0 -25.59c0,-0.17 -0.07,-0.32 -0.18,-0.43l0 0c-0.11,-0.11 -0.26,-0.18 -0.43,-0.18l-27.55 0c-0.16,0 -0.3,0.06 -0.41,0.15 0,0.01 -0.01,0.02 -0.02,0.03 -0.11,0.11 -0.18,0.26 -0.18,0.43l0 25.59c0,0.17 0.07,0.33 0.18,0.44l0 0c0.11,0.11 0.26,0.17 0.43,0.17l27.55 0c0.16,0 0.3,-0.06 0.41,-0.15 0.01,-0.01 0.01,-0.02 0.02,-0.02 0.11,-0.11 0.18,-0.27 0.18,-0.44z"/>
   <path class="fil1" d="M8.63 15.09c-0.33,0 -0.61,-0.27 -0.61,-0.61 0,-0.33 0.28,-0.61 0.61,-0.61l29.94 0c0.33,0 0.61,0.28 0.61,0.61 0,0.34 -0.28,0.61 -0.61,0.61l-29.94 0z"/>
   <path class="fil1" d="M30.09 12.66c-0.34,0 -0.61,-0.28 -0.61,-0.61 0,-0.34 0.27,-0.61 0.61,-0.61l4.87 0c0.34,0 0.61,0.27 0.61,0.61 0,0.33 -0.27,0.61 -0.61,0.61l-4.87 0z"/>
   <path class="fil1" d="M23.99 24.85l-11.7 0c-0.34,0 -0.61,-0.28 -0.61,-0.61l0 -6.1c0,-0.34 0.27,-0.61 0.61,-0.61l11.7 0c0.34,0 0.61,0.27 0.61,0.61l0 6.1c0,0.33 -0.27,0.61 -0.61,0.61zm-11.09 -1.22l10.48 0 0 -4.88 -10.48 0 0 4.88z"/>
   <path class="fil1" d="M34.96 34.6l-10.97 0c-0.33,0 -0.61,-0.28 -0.61,-0.61l0 -6.1c0,-0.33 0.28,-0.61 0.61,-0.61l10.97 0c0.34,0 0.61,0.28 0.61,0.61l0 6.1c0,0.33 -0.27,0.61 -0.61,0.61zm-10.36 -1.22l9.75 0 0 -4.88 -9.75 0 0 4.88z"/>
   <path class="fil2" d="M34.96 24.85l-7.31 0c-0.34,0 -0.61,-0.28 -0.61,-0.61l0 -6.1c0,-0.34 0.27,-0.61 0.61,-0.61l7.31 0c0.34,0 0.61,0.27 0.61,0.61l0 6.1c0,0.33 -0.27,0.61 -0.61,0.61zm-6.7 -1.22l6.09 0 0 -4.88 -6.09 0 0 4.88z"/>
   <path class="fil2 str0" d="M27.26 18.61c-0.26,-0.22 -0.29,-0.6 -0.08,-0.86 0.22,-0.25 0.6,-0.29 0.86,-0.08l7.31 6.1c0.26,0.21 0.29,0.6 0.08,0.85 -0.22,0.26 -0.6,0.3 -0.86,0.08l-7.31 -6.09z"/>
   <path class="fil2" d="M12.29 28.5c-0.34,0 -0.61,-0.27 -0.61,-0.61 0,-0.33 0.27,-0.61 0.61,-0.61l8.05 0c0.33,0 0.6,0.28 0.6,0.61 0,0.34 -0.27,0.61 -0.6,0.61l-8.05 0z"/>
   <path class="fil2" d="M12.29 31.55c-0.34,0 -0.61,-0.27 -0.61,-0.61 0,-0.34 0.27,-0.61 0.61,-0.61l8.05 0c0.33,0 0.6,0.27 0.6,0.61 0,0.34 -0.27,0.61 -0.6,0.61l-8.05 0z"/>
   <path class="fil2" d="M12.29 34.6c-0.34,0 -0.61,-0.28 -0.61,-0.61 0,-0.34 0.27,-0.61 0.61,-0.61l8.05 0c0.33,0 0.6,0.27 0.6,0.61 0,0.33 -0.27,0.61 -0.6,0.61l-8.05 0z"/>
  </g>
 </g>
</svg>
