<?xml version="1.0" encoding="UTF-8"?>
<!DOCTYPE svg PUBLIC "-//W3C//DTD SVG 1.1//EN" "http://www.w3.org/Graphics/SVG/1.1/DTD/svg11.dtd">
<!-- Creator: CorelDRAW 2019 (64-Bit) -->
<svg xmlns="http://www.w3.org/2000/svg" xml:space="preserve" width="640px" height="640px" version="1.1" style="shape-rendering:geometricPrecision; text-rendering:geometricPrecision; image-rendering:optimizeQuality; fill-rule:evenodd; clip-rule:evenodd"
viewBox="0 0 53.5 53.5"
 xmlns:xlink="http://www.w3.org/1999/xlink">
 <defs>
  <style type="text/css">
   <![CDATA[
    .fil0 {fill:none}
    .fil1 {fill:#0A2155}
    .fil2 {fill:#FFC221}
   ]]>
  </style>
 </defs>
 <g id="Layer_x0020_1">
  <metadata id="CorelCorpID_0Corel-Layer"/>
  <rect class="fil0" width="53.5" height="53.5"/>
  <path class="fil1" d="M45.29 10.42c-0.21,-1.29 -1.27,-1.82 -2.49,-1.82l-28.18 0c-0.75,0 -1.49,-0.03 -2.24,-0.04 -0.46,-0.01 -0.92,-0.01 -1.38,0 -0.32,0.01 -0.68,0.02 -1,0.08 -1.32,0.24 -1.84,1.21 -1.84,2.49l0 14.14c0,3.11 -0.04,6.22 0,9.33 0.02,1.53 -0.02,3.07 -0.03,4.6 0,1.02 -0.01,2.05 0,3.08 0.01,0.36 0.01,0.74 0.02,1.1 0.01,0.18 0.01,0.41 0.04,0.58 0.24,1.31 1.26,1.81 2.5,1.82 5.43,0.02 10.87,0.03 16.3,0.04 3.71,0 7.43,0 11.14,-0.01 1.26,0 2.52,-0.01 3.78,-0.02 0.37,-0.01 0.75,-0.01 1.13,-0.02 0.13,-0.01 0.35,0 0.48,-0.03 1.29,-0.22 1.82,-1.27 1.82,-2.49l-0.01 -14.14c0,-3.11 0.03,-6.22 0.04,-9.33 0,-2.06 0.01,-4.13 -0.01,-6.19 0,-0.72 -0.01,-1.44 -0.02,-2.16 -0.01,-0.29 0,-0.73 -0.05,-1.01zm-35.7 2.89c0,-0.58 0,-1.16 0,-1.74 0,-0.51 -0.13,-1.17 0.43,-1.44 0.24,-0.12 4.3,-0.12 4.73,-0.12 3.28,-0.02 6.57,-0.02 9.85,-0.01 4.76,0 9.52,0.03 14.28,0.03 1.14,0 2.3,-0.05 3.45,-0.03 0.4,0 1.09,-0.01 1.38,0.34 0.27,0.33 0.19,1.16 0.19,1.58l0 30.54c0,1.23 0.3,1.88 -1.27,1.88l-30.37 0.01c-0.55,0 -1.11,0.02 -1.65,0 -0.27,-0.01 -0.62,-0.03 -0.82,-0.25 -0.28,-0.3 -0.2,-1.16 -0.2,-1.55l0 -29.24z"/>
  <g id="_1953552252720">
   <path class="fil1" d="M23.88 19.59c-0.78,0 -1.27,-0.97 -0.72,-1.59 0.57,-0.66 1.69,-0.26 1.65,0.67 -0.02,0.49 -0.45,0.92 -0.93,0.92zm-5.67 12.03c0.41,0.34 1.8,0.24 2.5,0.25 0.23,0.01 0.3,0.05 0.34,-0.12 0.12,-0.59 -0.33,-2.64 0.44,-3.81 0.24,-0.37 0.31,-0.44 0.63,-0.74 0.41,-0.39 0.98,-0.69 1.6,-0.77 0.8,-0.12 4.28,-0.06 5.53,-0.05 1.02,0 1.94,-0.62 2.31,-1.43 0.25,-0.56 0.27,-0.84 0.27,-1.61 0,-1.25 0,-2.5 0,-3.75 0,-1.23 -0.08,-1.91 -1.09,-2.67 -0.16,-0.21 -0.89,-0.5 -1.24,-0.58 -1.32,-0.32 -3.84,-0.29 -5.13,-0.08 -1.03,0.18 -2.02,0.44 -2.45,1.21 -0.41,0.73 -0.29,2.27 -0.29,3.41l5.08 0 0 0.63c-1.89,0 -3.78,0 -5.66,0 -1.78,0 -3.07,-0.06 -4.09,1.57 -0.35,0.55 -0.51,1.41 -0.64,2.19 -0.14,0.8 -0.17,1.76 -0.04,2.59 0.15,1.05 0.43,2.4 1.09,3.15 0.19,0.21 0.55,0.54 0.84,0.61z"/>
   <path class="fil2" d="M29.66 35.7c-1.46,0 -1.2,-2 -0.01,-1.9 1.27,0.11 1.06,1.9 0.01,1.9zm7.24 -11.52c0,-0.35 -0.3,-1.04 -0.44,-1.31 -0.82,-1.63 -2.15,-1.36 -4.01,-1.36 0,1.85 0.29,3.59 -1.27,4.81 -0.75,0.58 -1.38,0.68 -2.35,0.68l-4.54 0c-1.25,0 -2.27,0.78 -2.58,2 -0.16,0.62 -0.08,2.14 -0.08,2.96 0,0.63 -0.08,2.62 0.08,3 0.04,0.45 0.52,1.01 0.87,1.29 1.26,1 3.64,1.31 5.34,1.08 1.65,-0.23 3.67,-0.89 3.9,-2.64 0.07,-0.55 0.01,-1.59 0.01,-2.19l-5.08 0 0 -0.63 6.95 0c1.62,0 2.19,-0.17 2.9,-1.76 0.22,-0.5 0.44,-1.18 0.56,-1.77 0.26,-1.31 0.13,-2.41 -0.13,-3.71l-0.11 -0.43c-0.01,0 -0.01,-0.01 -0.02,-0.02z"/>
  </g>
 </g>
</svg>
