<?xml version="1.0" encoding="UTF-8"?>
<!DOCTYPE svg PUBLIC "-//W3C//DTD SVG 1.1//EN" "http://www.w3.org/Graphics/SVG/1.1/DTD/svg11.dtd">
<!-- Creator: CorelDRAW 2019 (64-Bit) -->
<svg xmlns="http://www.w3.org/2000/svg" xml:space="preserve" width="640px" height="640px" version="1.1" style="shape-rendering:geometricPrecision; text-rendering:geometricPrecision; image-rendering:optimizeQuality; fill-rule:evenodd; clip-rule:evenodd"
viewBox="0 0 43.13 43.13"
 xmlns:xlink="http://www.w3.org/1999/xlink">
 <defs>
  <style type="text/css">
   <![CDATA[
    .fil0 {fill:none}
    .fil2 {fill:#61DAFB}
    .fil1 {fill:#0A2155;fill-rule:nonzero}
   ]]>
  </style>
 </defs>
 <g id="Layer_x0020_1">
  <metadata id="CorelCorpID_0Corel-Layer"/>
  <rect class="fil0" width="43.13" height="43.13"/>
 </g>
 <g id="Capa_x0020_1">
  <metadata id="CorelCorpID_1Corel-Layer"/>
  <path class="fil1" d="M36.1 26.33l-29.07 0c-0.25,0 -0.44,-0.19 -0.44,-0.43l0 -17.23c0,-0.58 0.23,-1.1 0.61,-1.48 0.38,-0.38 0.91,-0.62 1.48,-0.62l25.76 0c0.58,0 1.11,0.24 1.49,0.62 0.38,0.38 0.61,0.9 0.61,1.48l0 17.23c0,0.24 -0.2,0.43 -0.44,0.43zm-28.63 -0.87l28.19 0 0 -16.79c0,-0.34 -0.13,-0.64 -0.35,-0.86 -0.23,-0.22 -0.53,-0.36 -0.87,-0.36l-25.76 0c-0.33,0 -0.64,0.14 -0.86,0.36 -0.22,0.22 -0.35,0.52 -0.35,0.86l0 16.79z"/>
  <path class="fil1" d="M34.44 30.9l-25.76 0c-0.57,0 -1.1,-0.24 -1.48,-0.62 -0.38,-0.38 -0.61,-0.9 -0.61,-1.48l0 -2.9c0,-0.25 0.19,-0.44 0.44,-0.44l29.07 0c0.24,0 0.44,0.19 0.44,0.44l0 2.9c0,0.58 -0.23,1.1 -0.61,1.48 -0.38,0.38 -0.91,0.61 -1.49,0.61l0 0.01zm-25.76 -0.88l25.76 0 0 0c0.34,0 0.64,-0.14 0.87,-0.36 0.22,-0.22 0.35,-0.52 0.35,-0.86l0 -2.47 -28.19 0 0 2.47c0,0.34 0.13,0.64 0.35,0.86 0.22,0.22 0.53,0.36 0.86,0.36z"/>
  <path class="fil1" d="M24.27 34.16c0,-0.24 0.2,-0.44 0.44,-0.44 0.25,0 0.44,0.2 0.44,0.44l0 1.96c0,0.24 -0.19,0.44 -0.44,0.44l-6.29 0c-0.25,0 -0.44,-0.2 -0.44,-0.44l0 -5.66c0,-0.25 0.19,-0.44 0.44,-0.44l6.29 0c0.25,0 0.44,0.19 0.44,0.44l0 1.64c0,0.24 -0.19,0.44 -0.44,0.44 -0.24,0 -0.44,-0.2 -0.44,-0.44l0 -1.2 -5.41 0 0 4.78 5.41 0 0 -1.52z"/>
  <path class="fil1" d="M16.28 36.55c-0.24,0 -0.44,-0.2 -0.44,-0.44 0,-0.25 0.2,-0.44 0.44,-0.44l10.57 0c0.24,0 0.44,0.19 0.44,0.44 0,0.24 -0.2,0.44 -0.44,0.44l-10.57 0z"/>
  <path class="fil1" d="M20.69 28.62c-0.24,0 -0.44,-0.2 -0.44,-0.44 0,-0.25 0.2,-0.44 0.44,-0.44l1.75 0c0.24,0 0.44,0.19 0.44,0.44 0,0.24 -0.2,0.44 -0.44,0.44l-1.75 0z"/>
 </g>
 <g id="Capa_x0020_1_0">
  <metadata id="CorelCorpID_2Corel-Layer"/>
  <path class="fil2" d="M22.84 16.45c0,-0.7 -0.57,-1.27 -1.28,-1.27 -0.7,0 -1.27,0.57 -1.27,1.27 0,0.71 0.57,1.28 1.27,1.28 0.71,0 1.28,-0.57 1.28,-1.28zm-4.54 5.67c0.5,0.29 1.32,-0.04 2.25,-0.79 0.19,-0.15 0.39,-0.33 0.58,-0.52 -0.41,-0.44 -0.82,-0.95 -1.21,-1.5 -0.68,-0.07 -1.32,-0.17 -1.91,-0.3 -0.07,0.26 -0.12,0.52 -0.16,0.76 -0.19,1.18 -0.06,2.06 0.45,2.35l0 0zm3.26 -1.75c0.28,-0.31 0.56,-0.65 0.84,-1.01 -0.27,0.01 -0.55,0.02 -0.84,0.02 -0.28,0 -0.56,-0.01 -0.83,-0.02 0.27,0.36 0.55,0.7 0.83,1.01zm1.31 -1.66c0.24,-0.35 0.47,-0.72 0.69,-1.1l0 0c0.22,-0.39 0.43,-0.78 0.61,-1.16 -0.18,-0.37 -0.38,-0.75 -0.6,-1.13l0 0 -0.01 -0.02c-0.22,-0.38 -0.45,-0.75 -0.69,-1.1 -0.42,-0.03 -0.86,-0.05 -1.31,-0.05 -0.44,0 -0.88,0.02 -1.3,0.05 -0.24,0.35 -0.47,0.72 -0.69,1.1l0 0 0 0c-0.22,0.39 -0.43,0.77 -0.61,1.15 0.18,0.38 0.39,0.77 0.61,1.16l0 0 0 0c0.22,0.38 0.45,0.75 0.69,1.1 0.42,0.03 0.86,0.05 1.3,0.05 0.45,0 0.89,-0.02 1.31,-0.05zm1.63 -2.98c0.18,-0.42 0.33,-0.84 0.45,-1.23 -0.4,-0.09 -0.83,-0.17 -1.29,-0.22 0.15,0.22 0.29,0.46 0.43,0.69l0 0 0 0.01 0.01 0.01 0 0 0 0c0.14,0.25 0.27,0.49 0.4,0.74zm0.62 -1.83c0.07,-0.26 0.12,-0.52 0.16,-0.76 0.18,-1.13 0.07,-1.98 -0.38,-2.31l-0.04 0 -0.06 -0.06c-0.51,-0.25 -1.31,0.07 -2.22,0.81 -0.19,0.15 -0.39,0.33 -0.58,0.52 0.41,0.44 0.81,0.95 1.21,1.5 0.68,0.07 1.32,0.17 1.91,0.3zm-3.56 -1.36c-0.28,0.31 -0.56,0.64 -0.83,1.01 0.27,-0.02 0.55,-0.02 0.83,-0.02 0.29,0 0.57,0 0.84,0.02 -0.28,-0.37 -0.56,-0.7 -0.84,-1.01zm-2.93 4.64c-0.18,0.42 -0.33,0.83 -0.45,1.23 0.4,0.09 0.83,0.16 1.28,0.22 -0.14,-0.23 -0.29,-0.47 -0.43,-0.71l0 0 0 0c-0.14,-0.25 -0.27,-0.49 -0.4,-0.74zm2.31 4.63c-1.13,0.92 -2.21,1.28 -2.95,0.84l-0.01 0c-0.74,-0.43 -0.98,-1.54 -0.74,-2.98 0.04,-0.26 0.09,-0.53 0.17,-0.81 -0.29,-0.08 -0.55,-0.17 -0.8,-0.27 -1.36,-0.52 -2.21,-1.27 -2.21,-2.14 0,-0.86 0.85,-1.61 2.21,-2.14 0.25,-0.09 0.51,-0.18 0.8,-0.26 -0.08,-0.28 -0.13,-0.55 -0.17,-0.82 -0.24,-1.44 0,-2.54 0.74,-2.98l0.01 0c0.74,-0.43 1.82,-0.07 2.95,0.85 0.21,0.16 0.41,0.35 0.62,0.55 0.21,-0.2 0.42,-0.39 0.63,-0.55 1.09,-0.89 2.13,-1.25 2.87,-0.89l0.01 0 0.07 0.04c0.02,0.01 0.03,0.02 0.04,0.03l0 0 0 0c0.72,0.45 0.94,1.54 0.71,2.95 -0.04,0.27 -0.1,0.54 -0.17,0.82 0.28,0.08 0.55,0.17 0.8,0.26 1.36,0.53 2.2,1.28 2.2,2.14 0,0.87 -0.84,1.62 -2.2,2.14 -0.25,0.1 -0.52,0.19 -0.8,0.27 0.07,0.28 0.13,0.55 0.17,0.81 0.23,1.42 0.01,2.51 -0.7,2.96l-0.01 0 -0.04 0.02c-0.75,0.44 -1.82,0.08 -2.95,-0.84 -0.21,-0.16 -0.42,-0.35 -0.63,-0.55 -0.21,0.2 -0.41,0.39 -0.62,0.55zm-3.36 -3.55c0.17,-0.58 0.41,-1.19 0.69,-1.81 -0.28,-0.62 -0.52,-1.22 -0.69,-1.8 -0.27,0.08 -0.52,0.16 -0.75,0.25 -1.11,0.42 -1.8,0.97 -1.8,1.55 0,0.58 0.69,1.14 1.8,1.56 0.23,0.09 0.48,0.17 0.75,0.25zm1.05 -2.53c0.13,-0.25 0.26,-0.49 0.4,-0.74l0 0 0 0c0.14,-0.24 0.29,-0.48 0.43,-0.71 -0.45,0.05 -0.88,0.13 -1.28,0.22 0.12,0.39 0.27,0.81 0.45,1.23zm1.29 -2.13c0.39,-0.55 0.8,-1.06 1.21,-1.5 -0.19,-0.19 -0.39,-0.37 -0.58,-0.52 -0.93,-0.76 -1.75,-1.08 -2.25,-0.79l0 0c-0.51,0.29 -0.64,1.17 -0.45,2.35 0.04,0.24 0.09,0.5 0.16,0.76 0.59,-0.13 1.23,-0.23 1.91,-0.3zm5.63 1.05c-0.18,0.58 -0.41,1.18 -0.69,1.8 0.28,0.62 0.51,1.23 0.69,1.81 0.27,-0.08 0.52,-0.16 0.75,-0.25 1.11,-0.42 1.8,-0.98 1.8,-1.56 0,-0.58 -0.69,-1.13 -1.8,-1.55 -0.23,-0.09 -0.48,-0.17 -0.75,-0.25zm-1.05 2.53c-0.13,0.25 -0.26,0.49 -0.4,0.74l0 0c-0.14,0.24 -0.29,0.48 -0.44,0.71 0.46,-0.06 0.89,-0.13 1.29,-0.22 -0.12,-0.4 -0.27,-0.81 -0.45,-1.23zm-1.29 2.13c-0.4,0.55 -0.8,1.06 -1.21,1.5 0.19,0.19 0.39,0.37 0.58,0.52 0.93,0.76 1.75,1.08 2.25,0.79l0 0c0.51,-0.29 0.64,-1.17 0.45,-2.35 -0.04,-0.24 -0.09,-0.5 -0.16,-0.76 -0.59,0.13 -1.23,0.23 -1.91,0.3z"/>
 </g>
</svg>
