<?xml version="1.0" encoding="UTF-8"?>
<!DOCTYPE svg PUBLIC "-//W3C//DTD SVG 1.1//EN" "http://www.w3.org/Graphics/SVG/1.1/DTD/svg11.dtd">
<!-- Creator: CorelDRAW 2019 (64-Bit) -->
<svg xmlns="http://www.w3.org/2000/svg" xml:space="preserve" width="640px" height="640px" version="1.1" style="shape-rendering:geometricPrecision; text-rendering:geometricPrecision; image-rendering:optimizeQuality; fill-rule:evenodd; clip-rule:evenodd"
viewBox="0 0 48.18 48.18"
 xmlns:xlink="http://www.w3.org/1999/xlink">
 <defs>
  <style type="text/css">
   <![CDATA[
    .fil0 {fill:none}
    .fil1 {fill:#0A2155}
    .fil2 {fill:#FFC221}
   ]]>
  </style>
 </defs>
 <g id="Layer_x0020_1">
  <metadata id="CorelCorpID_0Corel-Layer"/>
  <rect class="fil0" width="48.18" height="48.18"/>
  <g id="_2042510574320">
   <path id="rising.svg" class="fil1" d="M39.71 16.35c0,-0.49 -0.36,-0.9 -0.84,-0.97l-2.45 -0.37c-0.05,-0.14 -0.11,-0.27 -0.17,-0.41l1.47 -2.01c0.29,-0.39 0.25,-0.94 -0.09,-1.27l-2.06 -2.05c-0.34,-0.34 -0.88,-0.38 -1.27,-0.1l-2 1.48c-0.14,-0.07 -0.28,-0.12 -0.41,-0.17l-0.38 -2.46c-0.07,-0.48 -0.48,-0.83 -0.96,-0.83l-2.9 0c-0.49,-0.01 -0.9,0.35 -0.97,0.82l-0.38 2.47c-0.13,0.05 -0.27,0.1 -0.41,0.17l-2 -1.48c-0.39,-0.28 -0.93,-0.24 -1.27,0.1l-2.06 2.05c-0.34,0.34 -0.38,0.88 -0.09,1.27l1.47 2c-0.06,0.14 -0.12,0.28 -0.18,0.43l-2.44 0.36c-0.48,0.07 -0.84,0.49 -0.84,0.97l0 2.91c0,0.48 0.37,0.89 0.84,0.96l2.44 0.37c0.06,0.15 0.12,0.29 0.18,0.43l-1.47 1.99c-0.29,0.39 -0.25,0.94 0.09,1.28l2.06 2.04c0.34,0.34 0.88,0.38 1.27,0.1l1.98 -1.47c0.15,0.07 0.3,0.13 0.45,0.19l0.37 2.44c0.06,0.47 0.47,0.83 0.96,0.83l2.9 0c0.48,0 0.9,-0.35 0.97,-0.83l0.37 -2.44c0.15,-0.06 0.29,-0.12 0.43,-0.19l1.99 1.47c0.39,0.29 0.92,0.25 1.26,-0.1l2.06 -2.04c0.35,-0.34 0.39,-0.89 0.1,-1.28l-1.47 -1.99c0.06,-0.14 0.12,-0.28 0.17,-0.42l2.46 -0.38c0.47,-0.06 0.83,-0.48 0.83,-0.96l0 -2.91 -0.01 0zm-4.1 3.27l-0.1 0.31c-0.11,0.31 -0.23,0.61 -0.38,0.91l-0.15 0.3 1.81 2.44 -1.92 1.91 -2.44 -1.8 -0.3 0.15c-0.29,0.15 -0.6,0.27 -0.91,0.38l-0.32 0.1 -0.45 3.01 -2.71 0c0,0 -0.45,-3.01 -0.45,-3.01l-0.32 -0.1c-0.31,-0.1 -0.62,-0.23 -0.92,-0.38l-0.3 -0.15 -2.44 1.8 -1.91 -1.91 1.8 -2.45 -0.15 -0.3c-0.15,-0.29 -0.27,-0.6 -0.38,-0.91l-0.1 -0.32 -3 -0.45 0 -2.71c0,0 3,-0.45 3,-0.45l0.11 -0.32c0.11,-0.31 0.23,-0.61 0.38,-0.9l0.15 -0.3 -1.81 -2.45 1.92 -1.92 2.46 1.8 0.3 -0.15c0.28,-0.14 0.58,-0.27 0.88,-0.37l0.32 -0.1 0.46 -3.01 2.72 0c0,0 0.46,3.01 0.46,3.01l0.31 0.1c0.31,0.1 0.6,0.23 0.89,0.37l0.3 0.15 2.45 -1.8 1.92 1.92 -1.8 2.45 0.15 0.3c0.14,0.29 0.26,0.59 0.37,0.89l0.11 0.32 3 0.46 0 2.71c0,0 -3,0.47 -3,0.47l-0.01 0zm-6.52 -6.6c-2.64,0 -4.78,2.14 -4.78,4.78 0,2.64 2.14,4.78 4.78,4.78 2.64,0 4.78,-2.14 4.78,-4.78l0 0c0,-2.64 -2.14,-4.78 -4.78,-4.79l0 0.01zm0 8.47c-2.04,0 -3.69,-1.65 -3.69,-3.69 0,-2.03 1.65,-3.68 3.69,-3.68 2.04,0 3.69,1.65 3.69,3.68l0 0c0,2.04 -1.65,3.69 -3.69,3.69zm6.83 7.34c0.1,0.17 0.1,0.37 0,0.54l-1.15 2c-0.15,0.26 -0.48,0.35 -0.74,0.2 -0.26,-0.15 -0.35,-0.49 -0.2,-0.75l0.14 -0.23 -17.91 10.33c-0.25,0.15 -0.59,0.06 -0.74,-0.2 -0.15,-0.26 -0.06,-0.59 0.2,-0.74l17.9 -10.34 -0.27 0c-0.3,0 -0.55,-0.24 -0.55,-0.54 0,-0.3 0.25,-0.55 0.55,-0.55l2.31 0c0.2,0 0.37,0.11 0.47,0.28l0 0 -0.01 0z"/>
   <path id="rising.svg_0" class="fil2" d="M12.67 20.26c-0.15,-0.25 -0.06,-0.59 0.2,-0.74l2.76 -1.59c0.26,-0.16 0.59,-0.08 0.75,0.17 0.15,0.26 0.07,0.6 -0.18,0.75 -0.01,0 -0.01,0.01 -0.03,0.02l-2.76 1.59c-0.26,0.15 -0.59,0.06 -0.74,-0.2l0 0zm-0.85 1.13l-2.54 1.46c-0.08,0.05 -0.18,0.07 -0.27,0.07 -0.3,0 -0.55,-0.24 -0.55,-0.54 0,-0.2 0.11,-0.38 0.28,-0.47l2.53 -1.46c0.26,-0.15 0.6,-0.06 0.75,0.2 0.15,0.26 0.06,0.59 -0.2,0.74l0 0zm2.74 2.42l2.77 -1.6c0.25,-0.15 0.59,-0.06 0.74,0.2 0.15,0.26 0.06,0.6 -0.2,0.75l-2.76 1.59c-0.26,0.16 -0.59,0.08 -0.75,-0.18 -0.16,-0.26 -0.07,-0.59 0.18,-0.75 0,0 0.01,0 0.02,-0.01l0 0zm-1.04 1.87l-2.54 1.46c-0.08,0.05 -0.18,0.08 -0.27,0.08 -0.3,0 -0.55,-0.25 -0.55,-0.55 0,-0.19 0.1,-0.37 0.27,-0.47l2.54 -1.46c0.26,-0.15 0.59,-0.07 0.75,0.18 0.16,0.26 0.07,0.59 -0.18,0.75 0,0 -0.01,0.01 -0.02,0.01l0 0 0 0zm3.15 3.35l2.76 -1.59c0.26,-0.15 0.6,-0.07 0.75,0.19 0.15,0.26 0.06,0.6 -0.2,0.75l0 0 -2.76 1.59c-0.26,0.15 -0.6,0.06 -0.75,-0.2 -0.15,-0.25 -0.06,-0.59 0.2,-0.74zm-1.05 1.87l-2.53 1.46c-0.09,0.05 -0.18,0.07 -0.28,0.07 -0.3,0 -0.54,-0.24 -0.54,-0.54 0,-0.2 0.1,-0.38 0.27,-0.47l2.54 -1.47c0.26,-0.15 0.59,-0.06 0.74,0.2 0.15,0.26 0.06,0.59 -0.2,0.74l0 0 0 0.01z"/>
  </g>
 </g>
</svg>
