<?xml version="1.0" encoding="UTF-8"?>
<!DOCTYPE svg PUBLIC "-//W3C//DTD SVG 1.1//EN" "http://www.w3.org/Graphics/SVG/1.1/DTD/svg11.dtd">
<!-- Creator: CorelDRAW 2019 (64-Bit) -->
<svg xmlns="http://www.w3.org/2000/svg" xml:space="preserve" width="640px" height="640px" version="1.1" style="shape-rendering:geometricPrecision; text-rendering:geometricPrecision; image-rendering:optimizeQuality; fill-rule:evenodd; clip-rule:evenodd"
viewBox="0 0 865.32 865.32"
 xmlns:xlink="http://www.w3.org/1999/xlink">
 <defs>
  <style type="text/css">
   <![CDATA[
    .fil2 {fill:none}
    .fil1 {fill:#0A2155}
    .fil0 {fill:#FFC221}
   ]]>
  </style>
 </defs>
 <g id="Layer_x0020_1">
  <metadata id="CorelCorpID_0Corel-Layer"/>
  <g id="_2356698967328">
   <path class="fil0" d="M488.69 659.59c0,54.07 -53.66,92.19 -53.66,92.19 0,0 -53.66,-37.02 -53.66,-92.19 0,-29.51 24.02,-53.44 53.66,-53.44 29.64,0 53.66,23.93 53.66,53.44z"/>
   <ellipse class="fil0" cx="435.03" cy="504.17" rx="33.72" ry="33.59"/>
   <path class="fil1" d="M621.43 447.64l-38.98 -37.4c-0.11,-0.1 -0.22,-0.2 -0.32,-0.3 -1.47,-111.41 -52.09,-215.19 -139.39,-285.37 -4.5,-3.62 -10.92,-3.62 -15.42,0 -87.3,70.18 -137.92,173.96 -139.39,285.36l-39.3 37.71c-29.4,28.21 -38.12,72.17 -21.7,109.39l50.33 114.14c1.49,3.38 4.42,5.91 7.98,6.89 1.08,0.3 2.18,0.45 3.28,0.45 2.52,0 5.01,-0.78 7.11,-2.27l81.55 -57.74 115.77 0c0.23,0.19 0.47,0.37 0.72,0.55l80.76 57.19c2.1,1.49 4.59,2.27 7.11,2.27 1.1,0 2.2,-0.15 3.28,-0.45 3.56,-0.98 6.49,-3.51 7.98,-6.89l50.33 -114.14c16.42,-37.22 7.7,-81.18 -21.7,-109.39zm-186.4 -297.52c77.99,66.39 122.52,162.34 122.52,264.8 0,65.14 -17.41,117.4 -59.88,178.97l-125.28 0c-42.47,-61.57 -59.88,-113.83 -59.88,-178.97 0,-102.46 44.53,-198.41 122.52,-264.8zm-141.33 497.34l-44.26 -100.35c-12.26,-27.81 -5.74,-60.64 16.22,-81.71l23.3 -22.36c4.5,57.59 23.55,107.1 62.35,163.62l-57.61 40.8zm326.92 -100.35l-44.26 100.35 -57.61 -40.8c38.8,-56.52 57.86,-106.03 62.35,-163.62l23.3 22.36c21.96,21.07 28.48,53.9 16.22,81.71z"/>
   <path class="fil0" d="M435.03 422.5c34.96,0 63.41,-28.35 63.41,-63.2 0,-34.85 -28.45,-63.2 -63.41,-63.2 -34.96,0 -63.41,28.35 -63.41,63.2 0,34.85 28.45,63.2 63.41,63.2zm0 -101.8c21.39,0 38.8,17.32 38.8,38.6 0,21.28 -17.41,38.59 -38.8,38.59 -21.39,0 -38.8,-17.31 -38.8,-38.59 0,-21.28 17.41,-38.6 38.8,-38.6z"/>
   <path class="fil0" d="M253.52 361.53l-6.8 0 0 -6.8c0,-4.77 -3.87,-8.64 -8.64,-8.64 -4.78,0 -8.65,3.87 -8.65,8.64l0 6.8 -6.8 0c-4.77,0 -8.64,3.87 -8.64,8.65 0,4.77 3.87,8.64 8.64,8.64l6.8 0 0 6.8c0,4.78 3.87,8.65 8.65,8.65 4.77,0 8.64,-3.87 8.64,-8.65l0 -6.8 6.8 0c4.78,0 8.65,-3.87 8.65,-8.64 0,-4.78 -3.87,-8.65 -8.65,-8.65z"/>
   <path class="fil0" d="M566.66 136.51c-4.78,0 -8.65,3.87 -8.65,8.64l0 6.02c0,4.77 3.87,8.64 8.65,8.64 4.77,0 8.64,-3.87 8.64,-8.64l0 -6.02c0,-4.77 -3.87,-8.64 -8.64,-8.64z"/>
   <path class="fil0" d="M566.66 182.43c-4.78,0 -8.65,3.87 -8.65,8.64l0 6.02c0,4.77 3.87,8.64 8.65,8.64 4.77,0 8.64,-3.87 8.64,-8.64l0 -6.02c0,-4.77 -3.87,-8.64 -8.64,-8.64z"/>
   <path class="fil0" d="M592.62 162.47l-6.01 0c-4.77,0 -8.64,3.87 -8.64,8.65 0,4.77 3.87,8.64 8.64,8.64l6.01 0c4.78,0 8.65,-3.87 8.65,-8.64 0,-4.78 -3.87,-8.65 -8.65,-8.65z"/>
   <path class="fil0" d="M546.7 162.47l-6.01 0c-4.78,0 -8.65,3.87 -8.65,8.65 0,4.77 3.87,8.64 8.65,8.64l6.01 0c4.78,0 8.65,-3.87 8.65,-8.64 0,-4.78 -3.87,-8.65 -8.65,-8.65z"/>
  </g>
  <rect class="fil2" width="865.32" height="865.32"/>
 </g>
</svg>
