<?xml version="1.0" encoding="UTF-8"?>
<!DOCTYPE svg PUBLIC "-//W3C//DTD SVG 1.1//EN" "http://www.w3.org/Graphics/SVG/1.1/DTD/svg11.dtd">
<!-- Creator: CorelDRAW 2019 (64-Bit) -->
<svg xmlns="http://www.w3.org/2000/svg" xml:space="preserve" width="640px" height="640px" version="1.1" style="shape-rendering:geometricPrecision; text-rendering:geometricPrecision; image-rendering:optimizeQuality; fill-rule:evenodd; clip-rule:evenodd"
viewBox="0 0 44.18 44.18"
 xmlns:xlink="http://www.w3.org/1999/xlink">
 <defs>
  <style type="text/css">
   <![CDATA[
    .fil0 {fill:none}
    .fil1 {fill:#0A2155}
    .fil2 {fill:#FFC221}
   ]]>
  </style>
 </defs>
 <g id="Layer_x0020_1">
  <metadata id="CorelCorpID_0Corel-Layer"/>
  <rect class="fil0" width="44.18" height="44.18"/>
  <path class="fil1" d="M37.4 8.6c-0.17,-1.06 -1.05,-1.5 -2.05,-1.5l-23.28 0c-0.61,0 -1.23,-0.02 -1.84,-0.03 -0.38,-0.01 -0.76,-0.01 -1.14,0 -0.27,0.01 -0.57,0.02 -0.83,0.06 -1.09,0.21 -1.52,1.01 -1.52,2.06l0 11.68c0,2.57 -0.03,5.14 0,7.71 0.01,1.26 -0.02,2.53 -0.02,3.79 -0.01,0.85 -0.01,1.7 0,2.54 0,0.31 0,0.61 0.01,0.92 0.01,0.14 0.01,0.33 0.03,0.47 0.2,1.08 1.04,1.5 2.07,1.5 4.49,0.02 8.97,0.03 13.46,0.04 3.07,0 6.13,0 9.2,-0.01 1.04,0 2.08,-0.01 3.12,-0.02 0.31,0 0.62,-0.01 0.93,-0.02 0.11,0 0.29,0 0.4,-0.02 1.06,-0.18 1.5,-1.04 1.5,-2.06l0 -11.67c0,-2.57 0.02,-5.14 0.03,-7.7 0,-1.71 0,-3.41 -0.01,-5.12 0,-0.59 -0.01,-1.19 -0.02,-1.78 0,-0.24 0,-0.6 -0.04,-0.84zm-29.48 2.39c0,-0.48 0,-0.96 0,-1.44 0,-0.41 -0.11,-0.96 0.35,-1.19 0.2,-0.1 3.56,-0.09 3.91,-0.09 2.71,-0.02 5.42,-0.02 8.14,-0.01 3.93,0 7.85,0.02 11.78,0.03 0.95,0 1.91,-0.04 2.86,-0.03 0.33,0 0.9,-0.01 1.13,0.28 0.23,0.27 0.16,0.96 0.16,1.3l0 25.22c0,1.02 0.25,1.56 -1.05,1.56l-25.08 0c-0.45,0 -0.91,0.02 -1.36,0.01 -0.22,-0.01 -0.51,-0.03 -0.67,-0.21 -0.24,-0.25 -0.17,-0.96 -0.17,-1.28l0 -24.15z"/>
  <g id="_1953502819232">
   <path class="fil2" d="M14.76 30.26l0.1 0.93c0.25,0.08 -0.2,-0.03 0.05,0.02 0.02,0 0.11,0 0.13,0l8.83 0 -0.57 -1.6c-0.75,-2.4 -1.33,-5.38 -0.79,-7.92 0.13,-0.63 0.31,-1.07 0.53,-1.61 0.76,-1.81 2.74,-3.51 4.7,-3.9 0.94,-0.19 1.81,-0.05 2.62,0.41 0.12,0.07 0.22,0.14 0.33,0.22 0.12,0.09 0.2,0.19 0.3,0.25 0.15,-0.19 0.26,-0.39 0.39,-0.58 -0.13,-0.23 -0.93,-0.81 -1.2,-1 -1.46,-0.98 -3.23,-1.65 -5.14,-1.42 -3.65,0.44 -5.88,3.03 -7.33,5.9 -1.2,2.4 -1.82,3.65 -2.45,6.38 -0.25,1.05 -0.55,2.79 -0.5,3.92z"/>
   <path class="fil1" d="M14.47 28.54l0.3 -1.76 -1.77 -0.15c-0.01,0.21 -0.23,1.63 -0.19,1.68 0.04,0.09 1.45,0.19 1.66,0.23z"/>
   <path class="fil1" d="M14.19 22.37l1.59 0.5 0.49 -1.31c-0.08,-0.06 -1.44,-0.59 -1.58,-0.61l-0.5 1.42z"/>
   <path class="fil1" d="M25.33 29.64c-0.01,-0.19 -0.52,-1.03 -0.61,-1.33l-1.5 0c0.04,0.27 0.19,0.71 0.27,1.01 0.05,0.2 0.01,0.22 0.22,0.23 0.53,0.03 1.09,0.07 1.62,0.09z"/>
   <path class="fil1" d="M16.8 17.49c0.1,0.08 1.09,0.75 1.22,0.8l0.9 -1.06c-0.12,-0.14 -0.4,-0.29 -0.57,-0.4 -0.12,-0.08 -0.5,-0.35 -0.63,-0.39l-0.92 1.05z"/>
   <path class="fil1" d="M22.8 24.12l-0.07 1.1c0.01,0.09 0.17,0.13 0.33,0.19 0.26,0.11 0.94,0.42 1.1,0.46l-0.07 -1.11c-0.2,-0.11 -0.41,-0.22 -0.64,-0.34l-0.5 -0.26c-0.14,-0.08 -0.13,-0.04 -0.14,-0.04 0,0 -0.01,0 -0.01,0z"/>
   <path class="fil1" d="M20.45 14.09c0.11,0.12 0.28,0.33 0.39,0.47 0.07,0.09 0.14,0.17 0.21,0.25 0.04,0.05 0.06,0.07 0.1,0.13 0.05,0.06 0.02,0.04 0.1,0.11l1.13 -0.63 -0.8 -0.91c-0.08,0.01 -1.04,0.49 -1.13,0.58z"/>
   <path class="fil1" d="M22.83 21.85c0.14,0.17 0.41,0.35 0.58,0.5 0.11,0.1 0.48,0.44 0.59,0.48l0.27 -1.12 -1.01 -0.73 -0.43 0.87z"/>
   <path class="fil1" d="M24.64 13.93l1.4 -0.02 -0.14 -0.88c-0.16,-0.04 -1.29,-0.09 -1.46,-0.06l0.2 0.96z"/>
   <path class="fil1" d="M23.93 18.78c0.07,0.14 0.11,0.1 0.23,0.26l0.61 0.68c0.07,0.08 0.06,0.09 0.14,0.13 0.09,-0.1 0.32,-0.53 0.4,-0.68 -0.07,-0.15 -0.55,-0.84 -0.67,-1.02l-0.71 0.63z"/>
   <path class="fil1" d="M26.05 17.08l0.39 0.75c0.04,0.05 0.03,0.03 0.05,0.05 0.1,-0.05 0.58,-0.45 0.64,-0.52l-0.14 -0.52 -0.94 0.24z"/>
   <path class="fil1" d="M29.14 14.64c0.3,0.1 0.66,0.37 0.94,0.48l0.21 -0.28c-0.09,-0.08 -0.17,-0.13 -0.27,-0.21 -0.1,-0.07 -0.18,-0.14 -0.27,-0.2 -0.16,-0.11 -0.43,-0.34 -0.58,-0.41l-0.03 0.62z"/>
   <polygon class="fil1" points="28.98,17.16 29.88,17.25 29.89,16.84 28.98,16.64 "/>
  </g>
 </g>
</svg>
