<?xml version="1.0" encoding="UTF-8"?>
<!DOCTYPE svg PUBLIC "-//W3C//DTD SVG 1.1//EN" "http://www.w3.org/Graphics/SVG/1.1/DTD/svg11.dtd">
<!-- Creator: CorelDRAW 2019 (64-Bit) -->
<svg xmlns="http://www.w3.org/2000/svg" xml:space="preserve" width="640px" height="640px" version="1.1" style="shape-rendering:geometricPrecision; text-rendering:geometricPrecision; image-rendering:optimizeQuality; fill-rule:evenodd; clip-rule:evenodd"
viewBox="0 0 123.22 123.22"
 xmlns:xlink="http://www.w3.org/1999/xlink">
 <defs>
  <style type="text/css">
   <![CDATA[
    .fil0 {fill:none}
    .fil1 {fill:#D30001}
   ]]>
  </style>
 </defs>
 <g id="Layer_x0020_1">
  <metadata id="CorelCorpID_0Corel-Layer"/>
  <rect class="fil0" width="123.22" height="123.22"/>
 </g>
 <g id="Capa_x0020_1">
  <metadata id="CorelCorpID_1Corel-Layer"/>
  <g id="Ruby_On_Rails_Logo.svg">
   <g>
    <path class="fil1" d="M69.5 61.35l-4.23 0c-3.02,0 -4.04,2.73 -4.04,4.04l0 11.32 4.23 0 0 -2.71 3.97 0 0 2.71 4.1 0 0 -11.32c0,-3.3 -2.99,-4.04 -4.03,-4.04zm-0.09 8.26l-3.97 0 0 -3.75c0,0 0,-0.84 1.32,-0.84l1.46 0c1.17,0 1.19,0.84 1.19,0.84l0 3.75z"/>
    <path class="fil1" d="M59.21 66.6c0,-4.9 -4.59,-5.36 -4.59,-5.36l-8.29 0 0 15.47 4.17 0 0 -3.73 3.6 3.73 6.16 0 -4.84 -4.88c0,0 3.79,-0.33 3.79,-5.23l0 0zm-5.4 2.06l-3.31 0 0 -3.53 3.34 0c0,0 0.93,0.34 0.93,1.75 0,1.41 -0.96,1.78 -0.96,1.78l0 0z"/>
    <path class="fil1" d="M99.23 70.86c0.07,0 0.09,0 0,0z"/>
    <path class="fil1" d="M100.51 67.12l-3.53 0 0 -1.82 7 0 0 -3.95 -6.72 0c-1.74,0 -4.06,1.43 -4.06,4.1l0 1.37c0,2.66 2.3,4.03 4.06,4.03 1.27,0.01 1.8,0.01 1.97,0.01 -0.28,0 -1.28,-0.01 1.37,-0.01l0 1.91 -7.18 0.02 0 3.93 7.09 0c1.46,0 3.95,-1.07 4.04,-4.04l0 -1.52c0,-2.53 -2.09,-4.03 -4.04,-4.03l0 0z"/>
    <polygon class="fil1" points="75.46,61.35 79.86,61.35 79.86,76.71 75.46,76.71 "/>
    <polygon class="fil1" points="86.05,61.35 81.66,61.35 81.66,76.71 91.97,76.71 91.97,72.74 86.05,72.74 "/>
   </g>
   <g>
    <path class="fil1" d="M55.98 48.55c-0.19,-0.1 -0.73,-0.36 -2.1,-0.76l-0.09 1.44c0.72,0.24 1.41,0.5 2.11,0.78l0.08 -1.46z"/>
    <path class="fil1" d="M44.03 48.79c-6.33,0.57 -14.1,6.31 -18.65,13.91 -4.56,7.59 -5.19,14.01 -5.19,14.01l17.14 0c0,0 -3.28,-14.95 7.57,-21 2.36,-1.15 9.89,-5.44 22.21,3.67 0.39,-0.33 0.76,-0.59 0.76,-0.59 0,0 -11.28,-11.26 -23.84,-10l0 0z"/>
    <path class="fil1" d="M28.81 56.56l-1.54 -1.35c-0.57,0.54 -1.11,1.09 -1.61,1.63l1.67 1.43c0.46,-0.58 0.95,-1.17 1.48,-1.71l0 0z"/>
    <path class="fil1" d="M37 50.12l-0.97 -1.5c-0.54,0.28 -1.11,0.58 -1.69,0.93l0.99 1.52c0.57,-0.35 1.11,-0.67 1.67,-0.95z"/>
    <path class="fil1" d="M22.25 66.25l-2.49 -0.91c-0.41,0.93 -0.87,2.02 -1.08,2.6l2.49 0.92c0.28,-0.74 0.74,-1.8 1.08,-2.61l0 0z"/>
    <path class="fil1" d="M45.81 47.84l0.22 0 -0.44 -1.32c-0.67,0 -1.36,0.04 -2.08,0.13l0.41 1.28c0.63,-0.07 1.26,-0.09 1.89,-0.09l0 0z"/>
    <path class="fil1" d="M37.98 72.37c0.04,1.15 0.15,2.08 0.26,2.73l2.6 0.94c-0.19,-0.85 -0.39,-1.81 -0.52,-2.82l-2.34 -0.85z"/>
    <path class="fil1" d="M46.85 55.82l0.5 1.5c0.63,-0.31 1.26,-0.57 1.89,-0.76l-0.48 -1.43c-0.74,0.21 -1.37,0.45 -1.91,0.69z"/>
    <path class="fil1" d="M53.75 55.97c0.71,0.02 1.43,0.11 2.15,0.26l0.08 -1.34c-0.73,-0.15 -1.45,-0.24 -2.14,-0.28l-0.09 1.36 0 0z"/>
    <path class="fil1" d="M38.96 64.47c-0.29,0.81 -0.48,1.61 -0.65,2.39l1.75 1.39c0.09,-0.85 0.24,-1.69 0.46,-2.54l-1.56 -1.24z"/>
    <path class="fil1" d="M41.45 59.88l1.04 1.56c0.37,-0.54 0.8,-1.04 1.28,-1.54l-0.97 -1.48c-0.5,0.46 -0.96,0.96 -1.35,1.46z"/>
   </g>
  </g>
 </g>
</svg>
