<?xml version="1.0" encoding="UTF-8"?>
<!DOCTYPE svg PUBLIC "-//W3C//DTD SVG 1.1//EN" "http://www.w3.org/Graphics/SVG/1.1/DTD/svg11.dtd">
<!-- Creator: CorelDRAW 2019 (64-Bit) -->
<svg xmlns="http://www.w3.org/2000/svg" xml:space="preserve" width="640px" height="640px" version="1.1" style="shape-rendering:geometricPrecision; text-rendering:geometricPrecision; image-rendering:optimizeQuality; fill-rule:evenodd; clip-rule:evenodd"
viewBox="0 0 32.77 32.77"
 xmlns:xlink="http://www.w3.org/1999/xlink">
 <defs>
  <style type="text/css">
   <![CDATA[
    .fil0 {fill:none}
    .fil1 {fill:#0A2155}
    .fil2 {fill:#FFC221}
   ]]>
  </style>
 </defs>
 <g id="Layer_x0020_1">
  <metadata id="CorelCorpID_0Corel-Layer"/>
  <rect class="fil0" width="32.77" height="32.77"/>
 </g>
 <g id="Capa_x0020_1">
  <metadata id="CorelCorpID_1Corel-Layer"/>
  <g id="_1720131073088">
   <path class="fil1" d="M27.51 14.61l-3.17 -0.72c-0.15,-0.47 -0.35,-0.93 -0.58,-1.36l1.74 -2.76c0.12,-0.18 0.09,-0.43 -0.07,-0.59l-1.84 -1.84c-0.16,-0.16 -0.41,-0.19 -0.6,-0.07l-2.8 1.76c-0.42,-0.21 -0.86,-0.39 -1.3,-0.53l-0.74 -3.24c-0.05,-0.22 -0.25,-0.37 -0.47,-0.37l-2.6 0c-0.22,0 -0.42,0.15 -0.47,0.37l-0.73 3.24c-0.44,0.14 -0.88,0.32 -1.31,0.54l-2.8 -1.77c-0.19,-0.12 -0.44,-0.09 -0.6,0.07l-1.83 1.84c-0.16,0.16 -0.19,0.4 -0.07,0.59l1.73 2.76c-0.23,0.44 -0.42,0.89 -0.58,1.36l-3.16 0.72c-0.22,0.05 -0.37,0.25 -0.37,0.47l0 2.61c0,0.22 0.15,0.42 0.37,0.47l3.09 0.7c0.15,0.52 0.35,1.01 0.59,1.47l-1.67 2.66c-0.12,0.19 -0.09,0.44 0.07,0.6l1.83 1.84c0.16,0.16 0.41,0.19 0.6,0.07l2.61 -1.65c0.49,0.27 1.01,0.49 1.55,0.65l0.68 3c0.05,0.22 0.25,0.38 0.47,0.38l2.6 0c0.22,0 0.42,-0.16 0.47,-0.37l0.69 -3.01c0.53,-0.16 1.05,-0.38 1.54,-0.65l2.61 1.65c0.19,0.12 0.44,0.09 0.6,-0.07l1.84 -1.84c0.16,-0.16 0.19,-0.41 0.07,-0.6l-1.67 -2.65c0.24,-0.46 0.44,-0.96 0.59,-1.48l3.09 -0.7c0.21,-0.05 0.37,-0.25 0.37,-0.47l0 -2.61c0,-0.22 -0.16,-0.42 -0.37,-0.47l0 0zm-0.59 2.7l-2.99 0.68c-0.17,0.04 -0.31,0.17 -0.35,0.34 -0.18,0.65 -0.42,1.25 -0.73,1.79 -0.08,0.16 -0.08,0.35 0.02,0.5l1.61 2.56 -1.3 1.3 -2.53 -1.59c-0.16,-0.1 -0.35,-0.1 -0.5,-0.01 -0.58,0.34 -1.2,0.6 -1.84,0.77 -0.17,0.05 -0.31,0.19 -0.34,0.36l-0.67 2.91 -1.84 0 -0.66 -2.91c-0.04,-0.17 -0.17,-0.31 -0.34,-0.36 -0.65,-0.17 -1.27,-0.43 -1.85,-0.77 -0.15,-0.09 -0.34,-0.09 -0.5,0.01l-2.53 1.59 -1.3 -1.3 1.62 -2.57c0.09,-0.15 0.1,-0.34 0.01,-0.49 -0.31,-0.55 -0.55,-1.15 -0.72,-1.79 -0.04,-0.17 -0.18,-0.3 -0.35,-0.34l-2.99 -0.68 0 -1.85 3.06 -0.7c0.16,-0.03 0.3,-0.16 0.35,-0.33 0.17,-0.58 0.41,-1.15 0.71,-1.68 0.09,-0.15 0.09,-0.34 -0.01,-0.49l-1.68 -2.67 1.3 -1.3 2.72 1.7c0.15,0.1 0.33,0.1 0.49,0.02 0.52,-0.3 1.07,-0.52 1.61,-0.66 0.18,-0.05 0.31,-0.19 0.35,-0.36l0.71 -3.14 1.84 0 0.72 3.14c0.04,0.17 0.17,0.31 0.34,0.36 0.55,0.14 1.09,0.36 1.62,0.66 0.15,0.08 0.34,0.08 0.49,-0.02l2.71 -1.71 1.3 1.31 -1.68 2.67c-0.1,0.15 -0.1,0.34 -0.01,0.5 0.3,0.52 0.54,1.08 0.72,1.67 0.05,0.17 0.18,0.3 0.35,0.33l3.06 0.7 0 1.85z"/>
   <path class="fil2" d="M16.38 14c-0.86,0 -1.66,0.25 -2.34,0.68l0 -1.48c0,-1.3 1.05,-2.35 2.34,-2.35 0.63,0 1.22,0.25 1.67,0.69 0.44,0.45 0.69,1.04 0.69,1.66 0,0.26 0.21,0.48 0.47,0.48 0.27,0 0.48,-0.22 0.48,-0.48 0,-0.88 -0.34,-1.71 -0.96,-2.34 -0.63,-0.62 -1.46,-0.97 -2.35,-0.97 -1.82,0 -3.3,1.49 -3.3,3.31l0 2.29c-0.7,0.79 -1.13,1.82 -1.13,2.95 0,2.44 1.99,4.43 4.43,4.43 2.45,0 4.44,-1.99 4.44,-4.43 0,-2.45 -1.99,-4.44 -4.44,-4.44l0 0zm0 7.92c-1.91,0 -3.47,-1.56 -3.47,-3.48 0,-1.92 1.56,-3.48 3.47,-3.48 1.92,0 3.48,1.56 3.48,3.48 0,1.92 -1.56,3.48 -3.48,3.48z"/>
   <path class="fil2" d="M16.38 16.22c-0.81,0 -1.48,0.67 -1.48,1.49 0,0.65 0.42,1.19 1,1.39l0 1.4c0,0.26 0.22,0.48 0.48,0.48 0.27,0 0.48,-0.22 0.48,-0.48l0 -1.4c0.58,-0.2 1.01,-0.74 1.01,-1.39 0,-0.82 -0.67,-1.49 -1.49,-1.49zm0 2.01c-0.29,0 -0.52,-0.23 -0.52,-0.52 0,-0.29 0.23,-0.53 0.52,-0.53 0.29,0 0.53,0.24 0.53,0.53 0,0.29 -0.24,0.52 -0.53,0.52z"/>
  </g>
 </g>
</svg>
