<?xml version="1.0" encoding="UTF-8"?>
<!DOCTYPE svg PUBLIC "-//W3C//DTD SVG 1.1//EN" "http://www.w3.org/Graphics/SVG/1.1/DTD/svg11.dtd">
<!-- Creator: CorelDRAW 2019 (64-Bit) -->
<svg xmlns="http://www.w3.org/2000/svg" xml:space="preserve" width="640px" height="640px" version="1.1" style="shape-rendering:geometricPrecision; text-rendering:geometricPrecision; image-rendering:optimizeQuality; fill-rule:evenodd; clip-rule:evenodd"
viewBox="0 0 51.5 51.5"
 xmlns:xlink="http://www.w3.org/1999/xlink">
 <defs>
  <style type="text/css">
   <![CDATA[
    .fil0 {fill:none}
    .fil1 {fill:#0A2155;fill-rule:nonzero}
    .fil2 {fill:#FFC221;fill-rule:nonzero}
   ]]>
  </style>
 </defs>
 <g id="Layer_x0020_1">
  <metadata id="CorelCorpID_0Corel-Layer"/>
  <rect class="fil0" width="51.5" height="51.5"/>
 </g>
 <g id="Capa_x0020_1">
  <metadata id="CorelCorpID_1Corel-Layer"/>
  <g id="_1720133758416">
   <path class="fil1" d="M29.85 34.34c-0.21,-0.21 -0.21,-0.54 0,-0.75 0.2,-0.21 0.54,-0.21 0.75,0l9.01 9.01c0.1,0.11 0.24,0.16 0.37,0.16 0.14,0 0.27,-0.05 0.38,-0.16l2.24 -2.24c0.11,-0.11 0.16,-0.24 0.16,-0.38 0,-0.13 -0.05,-0.27 -0.16,-0.37l-9.01 -9.01c-0.21,-0.21 -0.21,-0.55 0,-0.75 0.21,-0.21 0.54,-0.21 0.75,0l9.01 9.01c0.31,0.31 0.47,0.72 0.47,1.12 0,0.41 -0.16,0.82 -0.47,1.13l-2.24 2.24c-0.31,0.31 -0.72,0.47 -1.13,0.47 -0.4,0 -0.81,-0.16 -1.12,-0.47l-9.01 -9.01z"/>
   <path class="fil1" d="M26.67 31.16c-0.21,-0.21 -0.21,-0.54 0,-0.75 0.2,-0.21 0.54,-0.21 0.75,0l1.68 1.68c0.21,0.21 0.21,0.55 0,0.75 -0.21,0.21 -0.54,0.21 -0.75,0l-1.68 -1.68z"/>
   <path class="fil1" d="M30.6 29.85c0.2,-0.21 0.54,-0.21 0.74,0 0.21,0.2 0.21,0.54 0,0.75l-2.24 2.24c-0.1,0.11 -0.16,0.24 -0.16,0.38 0,0.13 0.06,0.27 0.16,0.37 0.1,0.1 0.24,0.16 0.37,0.16 0.14,0 0.27,-0.06 0.38,-0.16l3.74 -3.74c0.1,-0.11 0.16,-0.24 0.16,-0.38 0,-0.13 -0.06,-0.27 -0.16,-0.37 -0.1,-0.1 -0.24,-0.16 -0.37,-0.16 -0.14,0 -0.27,0.06 -0.38,0.16 -0.2,0.21 -0.54,0.21 -0.75,0l-1.68 -1.68c-0.21,-0.21 -0.21,-0.55 0,-0.75 0.21,-0.21 0.54,-0.21 0.75,0l1.37 1.37c0.22,-0.1 0.45,-0.15 0.69,-0.15 0.4,0 0.81,0.15 1.12,0.46 0.31,0.31 0.46,0.72 0.46,1.12 0,0.41 -0.15,0.82 -0.46,1.13l-3.74 3.74c-0.31,0.31 -0.72,0.46 -1.13,0.46 -0.4,0 -0.81,-0.15 -1.12,-0.46 -0.31,-0.31 -0.46,-0.72 -0.46,-1.12 0,-0.41 0.15,-0.82 0.46,-1.13l2.25 -2.24z"/>
   <path class="fil1" d="M10.86 20.46c0,2.65 1.08,5.05 2.81,6.78 1.74,1.74 4.14,2.82 6.79,2.82 2.65,0 5.05,-1.08 6.78,-2.82 1.74,-1.73 2.82,-4.13 2.82,-6.78 0,-2.65 -1.08,-5.05 -2.82,-6.79 -1.73,-1.74 -4.13,-2.81 -6.78,-2.81 -2.65,0 -5.05,1.07 -6.79,2.81 -1.73,1.74 -2.81,4.14 -2.81,6.79zm2.06 7.53c-1.93,-1.93 -3.12,-4.59 -3.12,-7.53 0,-2.94 1.19,-5.61 3.12,-7.54 1.93,-1.93 4.6,-3.12 7.54,-3.12 2.94,0 5.6,1.19 7.53,3.12 1.93,1.93 3.12,4.6 3.12,7.54 0,2.94 -1.19,5.6 -3.12,7.53 -1.93,1.93 -4.59,3.12 -7.53,3.12 -2.94,0 -5.61,-1.19 -7.54,-3.12z"/>
   <path class="fil1" d="M8.74 20.46c0,3.23 1.31,6.16 3.43,8.28 2.12,2.12 5.05,3.43 8.29,3.43 3.23,0 6.16,-1.31 8.28,-3.43 2.12,-2.12 3.43,-5.05 3.43,-8.28 0,-3.24 -1.31,-6.17 -3.43,-8.29 -2.12,-2.12 -5.05,-3.43 -8.28,-3.43 -3.24,0 -6.17,1.31 -8.29,3.43 -2.12,2.13 -3.43,5.05 -3.43,8.29l0 0zm2.69 9.03c-2.32,-2.31 -3.74,-5.5 -3.74,-9.03l0 0c0,-3.53 1.43,-6.72 3.74,-9.03 2.31,-2.32 5.5,-3.74 9.03,-3.74 3.53,0 6.72,1.42 9.03,3.74 2.31,2.31 3.74,5.5 3.74,9.03 0,3.53 -1.43,6.72 -3.74,9.03 -2.31,2.31 -5.5,3.74 -9.03,3.74 -3.53,0 -6.72,-1.43 -9.03,-3.74z"/>
   <path class="fil2" d="M22.92 23.44l2.61 -2.61c0.1,-0.1 0.15,-0.24 0.15,-0.37 0,-0.14 -0.05,-0.27 -0.15,-0.38l-2.61 -2.6c-0.1,-0.1 -0.24,-0.15 -0.37,-0.15 -0.14,0 -0.27,0.05 -0.38,0.15 -0.1,0.1 -0.15,0.24 -0.15,0.37 0,0.14 0.05,0.28 0.15,0.38l1.86 1.85c0.21,0.21 0.21,0.55 0,0.75l-1.86 1.86c-0.1,0.1 -0.15,0.24 -0.15,0.37 0,0.14 0.05,0.27 0.15,0.38 0.11,0.1 0.24,0.15 0.38,0.15 0.13,0 0.27,-0.05 0.37,-0.15zm3.35 -1.86l-2.6 2.6c-0.31,0.31 -0.72,0.47 -1.12,0.47 -0.41,0 -0.82,-0.16 -1.13,-0.47 -0.31,-0.31 -0.46,-0.71 -0.46,-1.12 0,-0.4 0.15,-0.81 0.46,-1.12l1.49 -1.48 -1.49 -1.48c-0.31,-0.31 -0.46,-0.72 -0.46,-1.13 0,-0.4 0.15,-0.81 0.46,-1.12 0.31,-0.31 0.72,-0.46 1.13,-0.46 0.4,0 0.81,0.15 1.12,0.46l2.6 2.61c0.31,0.31 0.47,0.71 0.47,1.12 0,0.4 -0.16,0.81 -0.47,1.12z"/>
   <path class="fil2" d="M17.11 24.18l-2.61 -2.6c-0.31,-0.31 -0.46,-0.72 -0.46,-1.12 0,-0.41 0.15,-0.81 0.46,-1.12l2.61 -2.61c0.31,-0.31 0.71,-0.46 1.12,-0.46 0.4,0 0.81,0.15 1.12,0.46 0.31,0.31 0.47,0.72 0.47,1.12 0,0.41 -0.16,0.82 -0.47,1.13l-1.48 1.48 1.48 1.48c0.31,0.31 0.47,0.72 0.47,1.12 0,0.41 -0.16,0.81 -0.47,1.12 -0.31,0.31 -0.72,0.47 -1.12,0.47 -0.41,0 -0.81,-0.16 -1.12,-0.47zm-1.86 -3.35l2.6 2.61c0.11,0.1 0.24,0.15 0.38,0.15 0.13,0 0.27,-0.05 0.37,-0.15 0.11,-0.11 0.16,-0.24 0.16,-0.38 0,-0.13 -0.05,-0.27 -0.16,-0.37l-1.85 -1.86c-0.21,-0.2 -0.21,-0.54 0,-0.75l1.85 -1.85c0.11,-0.1 0.16,-0.24 0.16,-0.38 0,-0.13 -0.05,-0.27 -0.16,-0.37 -0.1,-0.1 -0.24,-0.15 -0.37,-0.15 -0.14,0 -0.27,0.05 -0.38,0.15l-2.6 2.6c-0.1,0.11 -0.16,0.24 -0.16,0.38 0,0.13 0.06,0.27 0.16,0.37z"/>
   <path class="fil2" d="M26.28 15.96c-0.18,-0.23 -0.13,-0.56 0.1,-0.74 0.23,-0.17 0.56,-0.13 0.74,0.1 0.55,0.73 0.99,1.54 1.29,2.43 0.29,0.85 0.45,1.76 0.45,2.71 0,2.34 -0.95,4.45 -2.48,5.99 -1.54,1.53 -3.65,2.48 -5.99,2.48 -2.34,0 -4.46,-0.95 -5.99,-2.48 -1.53,-1.54 -2.48,-3.65 -2.48,-5.99 0,-2.34 0.95,-4.46 2.48,-5.99 1.53,-1.53 3.65,-2.48 5.99,-2.48 0.94,0 1.85,0.16 2.71,0.44 0.88,0.3 1.7,0.74 2.42,1.3 0.23,0.17 0.28,0.5 0.1,0.74 -0.17,0.23 -0.51,0.27 -0.74,0.1 -0.63,-0.49 -1.35,-0.87 -2.12,-1.13 -0.74,-0.26 -1.54,-0.39 -2.37,-0.39 -2.05,0 -3.9,0.83 -5.24,2.17 -1.34,1.34 -2.17,3.19 -2.17,5.24 0,2.04 0.83,3.9 2.17,5.24 1.34,1.34 3.19,2.17 5.24,2.17 2.04,0 3.9,-0.83 5.24,-2.17 1.34,-1.34 2.17,-3.2 2.17,-5.24 0,-0.84 -0.14,-1.63 -0.39,-2.38 -0.26,-0.77 -0.64,-1.48 -1.13,-2.12z"/>
  </g>
 </g>
</svg>
