<?xml version="1.0" encoding="UTF-8"?>
<!DOCTYPE svg PUBLIC "-//W3C//DTD SVG 1.1//EN" "http://www.w3.org/Graphics/SVG/1.1/DTD/svg11.dtd">
<!-- Creator: CorelDRAW 2019 (64-Bit) -->
<svg xmlns="http://www.w3.org/2000/svg" xml:space="preserve" width="640px" height="640px" version="1.1" style="shape-rendering:geometricPrecision; text-rendering:geometricPrecision; image-rendering:optimizeQuality; fill-rule:evenodd; clip-rule:evenodd"
viewBox="0 0 362.69 362.69"
 xmlns:xlink="http://www.w3.org/1999/xlink">
 <defs>
  <style type="text/css">
   <![CDATA[
    .fil0 {fill:none}
    .fil2 {fill:#0A2155}
    .fil1 {fill:#FFC221}
   ]]>
  </style>
 </defs>
 <g id="Layer_x0020_1">
  <metadata id="CorelCorpID_0Corel-Layer"/>
  <rect class="fil0" width="362.69" height="362.69"/>
  <g id="_2356698960352">
   <g>
    <path class="fil1" d="M218.99 229.41c-8.07,12.8 -22.23,20.79 -37.64,20.79 -15.42,0 -29.58,-7.99 -37.65,-20.79l-13.51 0 1.81 2.16c9.57,18.25 28.55,29.85 49.35,29.85 20.79,0 39.78,-11.6 49.35,-29.85l3.09 -2.16 -14.8 0z"/>
    <path class="fil1" d="M266.39 233.5c0.34,-1.04 1.17,-1.85 2.22,-2.18 1.13,-0.34 2.07,-1.03 2.76,-1.91l-19.8 0 3.63 2.16c-1.14,3.26 -2.5,6.46 -4.06,9.53 -2.88,5.66 -1.79,12.47 2.68,16.95 0.01,0 0.01,0 0.01,0l4.61 4.61c0.64,0.64 0.99,1.49 0.99,2.4 0,0.9 -0.35,1.76 -0.99,2.4l-15.35 15.34c-0.64,0.64 -1.49,0.99 -2.39,0.99 -0.91,0 -1.76,-0.35 -2.4,-0.99l-4.61 -4.61c-4.48,-4.48 -11.3,-5.56 -16.95,-2.69 -3.56,1.81 -7.29,3.35 -11.08,4.59 -6.02,1.97 -10.07,7.55 -10.07,13.88l0 6.52c0,1.87 -1.52,3.39 -3.39,3.39l-21.7 0c-1.87,0 -3.39,-1.52 -3.39,-3.39l0 -6.52c0,-6.33 -4.05,-11.91 -10.07,-13.88 -3.8,-1.24 -7.53,-2.78 -11.08,-4.59 -2.11,-1.07 -4.39,-1.59 -6.64,-1.59 -3.78,0 -7.51,1.47 -10.31,4.28l-4.61 4.61c-1.33,1.32 -3.48,1.32 -4.8,0l-15.34 -15.34c-1.32,-1.33 -1.32,-3.48 0,-4.8l4.61 -4.61c4.48,-4.48 5.56,-11.29 2.69,-16.95 -1.56,-3.07 -2.93,-6.27 -4.07,-9.53l3.57 -2.16 -19.73 0c0.68,0.88 1.62,1.57 2.75,1.91 1.05,0.33 1.88,1.14 2.22,2.18 1.42,4.34 3.18,8.61 5.25,12.68 0.67,1.32 0.42,2.9 -0.62,3.94l-4.61 4.61c-5.69,5.7 -5.69,14.96 0,20.66l15.35 15.34c2.76,2.76 6.43,4.28 10.33,4.28 3.9,0 7.57,-1.52 10.33,-4.28l4.61 -4.61c1.04,-1.03 2.62,-1.28 3.94,-0.61 4.07,2.06 8.33,3.83 12.68,5.25 1.39,0.45 2.33,1.75 2.33,3.21l0 6.52c0,8.06 6.55,14.61 14.61,14.61l21.7 0c8.05,0 14.61,-6.55 14.61,-14.61l0 -6.52c0,-1.46 0.93,-2.76 2.33,-3.21 4.34,-1.42 8.6,-3.18 12.68,-5.25 1.31,-0.67 2.9,-0.43 3.93,0.61l4.61 4.61c2.76,2.76 6.43,4.28 10.34,4.28 3.9,0 7.57,-1.52 10.33,-4.28l15.34 -15.34c2.76,-2.76 4.28,-6.43 4.28,-10.33 0,-3.9 -1.52,-7.57 -4.28,-10.33l-4.61 -4.61c-1.04,-1.04 -1.29,-2.62 -0.62,-3.94 2.07,-4.07 3.84,-8.34 5.25,-12.68z"/>
   </g>
   <g>
    <path class="fil2" d="M289.52 220.35l-18.24 0 0 -147.46c0,-4.79 -2.38,-9.23 -6.36,-11.87 -3.99,-2.65 -9,-3.12 -13.41,-1.27l-45.38 19.09c-5.29,2.23 -8.72,7.39 -8.72,13.14l0 8.97 -15.09 0 0 -32.68c0,-7.87 -6.41,-14.28 -14.28,-14.28l-62.34 0c-7.88,0 -14.29,6.41 -14.29,14.28l0 152.08 -18.24 0c-3.1,0 -5.61,2.52 -5.61,5.61 0,3.1 2.51,5.61 5.61,5.61l216.35 0c3.1,0 5.61,-2.51 5.61,-5.61 0,-3.09 -2.51,-5.61 -5.61,-5.61zm-80.89 -128.37c0,-1.23 0.73,-2.32 1.86,-2.8l45.37 -19.09c1.35,-0.56 2.44,0 2.85,0.27 0.41,0.27 1.35,1.06 1.35,2.52l0 147.47 -25.25 0 0 -105.16c0,-7.85 -6.4,-14.24 -14.25,-14.24l-11.93 0 0 -8.97zm-26.31 90.01l41.27 0 0 38.36 -41.27 0 0 -38.36zm38.24 -69.82c1.67,0 3.02,1.36 3.02,3.02l0 55.58 -41.26 0 0 -58.6 38.24 0zm-117.93 108.18l0 -152.08c0,-1.69 1.38,-3.06 3.07,-3.06l62.34 0c1.68,0 3.06,1.37 3.06,3.06l0 152.08 -68.47 0z"/>
    <path class="fil1" d="M124.18 82.09c-3.09,0 -5.61,2.51 -5.61,5.61l0 108.96c0,3.1 2.52,5.61 5.61,5.61 3.1,0 5.61,-2.51 5.61,-5.61l0 -108.96c0,-3.1 -2.51,-5.61 -5.61,-5.61z"/>
    <path class="fil1" d="M149.55 82.09c-3.1,0 -5.61,2.51 -5.61,5.61l0 108.96c0,3.1 2.51,5.61 5.61,5.61 3.1,0 5.61,-2.51 5.61,-5.61l0 -108.96c0,-3.1 -2.51,-5.61 -5.61,-5.61z"/>
   </g>
  </g>
 </g>
</svg>
