<?xml version="1.0" encoding="UTF-8"?>
<!DOCTYPE svg PUBLIC "-//W3C//DTD SVG 1.1//EN" "http://www.w3.org/Graphics/SVG/1.1/DTD/svg11.dtd">
<!-- Creator: CorelDRAW -->
<svg xmlns="http://www.w3.org/2000/svg" xml:space="preserve" width="640px" height="640px" version="1.1" style="shape-rendering:geometricPrecision; text-rendering:geometricPrecision; image-rendering:optimizeQuality; fill-rule:evenodd; clip-rule:evenodd"
viewBox="0 0 35.08 35.08"
 xmlns:xlink="http://www.w3.org/1999/xlink"
 xmlns:xodm="http://www.corel.com/coreldraw/odm/2003">
 <defs>
  <style type="text/css">
   <![CDATA[
    .fil0 {fill:none}
    .fil1 {fill:#002155;fill-rule:nonzero}
    .fil2 {fill:#FFC221;fill-rule:nonzero}
   ]]>
  </style>
 </defs>
 <g id="Layer_x0020_1">
  <metadata id="CorelCorpID_0Corel-Layer"/>
  <rect class="fil0" width="35.08" height="35.08"/>
  <path class="fil1" d="M5.11 21.6c-0.19,0 -0.36,0.12 -0.43,0.3 -0.62,1.77 -0.44,3.71 0.49,5.33 1.19,2.04 3.34,3.19 5.55,3.19 1.08,0 2.17,-0.28 3.18,-0.86 0.29,-0.17 0.56,-0.36 0.82,-0.57 0.89,0.29 1.84,0.44 2.82,0.44 0.99,0 1.94,-0.15 2.83,-0.44 0.26,0.21 0.53,0.41 0.83,0.58 1,0.58 2.09,0.85 3.18,0.85 2.2,0 4.35,-1.14 5.53,-3.19 1.76,-3.05 0.72,-6.96 -2.33,-8.72 -0.3,-0.17 -0.6,-0.31 -0.92,-0.43 -0.41,-1.88 -1.41,-3.59 -2.82,-4.88 0.05,-0.33 0.09,-0.67 0.09,-1.01 0,-3.52 -2.87,-6.38 -6.39,-6.38 -3.51,0 -6.38,2.86 -6.38,6.38 0,0.34 0.04,0.68 0.09,1.01 -1.42,1.29 -2.41,3 -2.83,4.89 -0.31,0.12 -0.62,0.25 -0.91,0.43 -0.17,0.09 -0.33,0.19 -0.48,0.3 -0.2,0.15 -0.24,0.44 -0.1,0.64 0.15,0.2 0.44,0.25 0.64,0.1 0.13,-0.09 0.26,-0.18 0.4,-0.26 1.27,-0.73 2.74,-0.92 4.15,-0.54 1.41,0.38 2.59,1.28 3.32,2.55 0.73,1.26 0.92,2.74 0.55,4.15 -0.38,1.41 -1.29,2.58 -2.55,3.31 -2.61,1.51 -5.96,0.61 -7.48,-2 -0.79,-1.37 -0.95,-3 -0.44,-4.5 0.04,-0.07 0.05,-0.14 0.05,-0.22 0,-0.25 -0.2,-0.45 -0.46,-0.45l0 0zm22.01 -2.3c2.61,1.51 3.51,4.86 2,7.47 -1.5,2.62 -4.86,3.51 -7.47,2.01 -1.26,-0.73 -2.17,-1.91 -2.55,-3.32 -0.37,-1.42 -0.18,-2.89 0.55,-4.16 0.73,-1.26 1.91,-2.17 3.32,-2.54 0.47,-0.13 0.95,-0.19 1.43,-0.19 0.94,0 1.88,0.25 2.72,0.73zm-9.58 -12.58c3.02,0 5.47,2.45 5.47,5.47 0,3.01 -2.45,5.47 -5.47,5.47 -3.01,0 -5.47,-2.46 -5.47,-5.47 0,-3.02 2.46,-5.47 5.47,-5.47zm-0.67 18.97c0.44,-1.64 0.21,-3.36 -0.65,-4.84 -0.85,-1.48 -2.22,-2.53 -3.87,-2.97 -0.97,-0.26 -1.96,-0.29 -2.92,-0.09 0.39,-1.35 1.1,-2.58 2.07,-3.57 0.85,2.52 3.24,4.35 6.04,4.35 2.81,0 5.2,-1.83 6.05,-4.35 0.97,0.99 1.68,2.22 2.06,3.57 -0.95,-0.2 -1.94,-0.17 -2.91,0.08 -1.65,0.45 -3.03,1.5 -3.88,2.98 -0.85,1.47 -1.08,3.19 -0.64,4.84 0.26,0.97 0.74,1.84 1.39,2.57 -1.33,0.34 -2.8,0.34 -4.13,0 0.65,-0.73 1.13,-1.6 1.38,-2.57l0.01 0z"/>
  <path class="fil2" d="M10.7 20.85l-0.91 0c-0.25,0 -0.46,0.2 -0.46,0.45l0 1.37 -1.36 0c-0.26,0 -0.46,0.21 -0.46,0.46l0 3.65c0,0.25 0.2,0.45 0.46,0.45l4.56 0c0.75,0 1.36,-0.61 1.36,-1.37l0 -1.82c0,-0.76 -0.61,-1.37 -1.36,-1.37l-0.46 0 0 -0.45c0,-0.76 -0.61,-1.37 -1.37,-1.37zm-1.37 5.47l-0.91 0 0 -2.74 0.91 0 0 2.74zm3.2 -2.74c0.25,0 0.45,0.21 0.45,0.46l0 1.82c0,0.25 -0.2,0.46 -0.45,0.46l-2.28 0 0 -4.56 0.45 0c0.25,0 0.46,0.2 0.46,0.46l0 0.91c0,0.25 0.2,0.45 0.45,0.45l0.92 0z"/>
  <path class="fil2" d="M15.38 15.37c0.09,0.09 0.21,0.14 0.33,0.14 0.06,0 0.13,-0.02 0.2,-0.05l0.4 -0.2 0.71 0.43c0.07,0.04 0.15,0.07 0.24,0.07 0.15,0 0.3,-0.08 0.39,-0.22 0.13,-0.22 0.06,-0.5 -0.16,-0.63l-0.21 -0.13 2.15 -1.08c0.14,-0.07 0.24,-0.21 0.25,-0.37 0.01,-0.16 -0.05,-0.31 -0.18,-0.4l-3.52 -2.64c-0.12,-0.1 -0.28,-0.12 -0.43,-0.07 -0.14,0.05 -0.25,0.17 -0.29,0.32l-0.88 3.52c-0.04,0.16 0.01,0.32 0.12,0.43l0.88 0.88 0 0zm0.6 -3.94l2.38 1.78 -2.56 1.29 -0.47 -0.47 0.65 -2.6 0 0z"/>
  <path class="fil2" d="M19.22 10.55c0.11,0 0.23,-0.04 0.32,-0.13l0.8 -0.8c0.17,-0.18 0.17,-0.47 0,-0.65 -0.18,-0.17 -0.47,-0.17 -0.65,0l-0.8 0.8c-0.17,0.18 -0.17,0.47 0,0.65 0.09,0.09 0.21,0.13 0.33,0.13l0 0z"/>
  <path class="fil2" d="M17.5 9.75c0.25,0 0.46,-0.2 0.46,-0.45l0 -0.31c0,-0.25 -0.21,-0.45 -0.46,-0.45 -0.25,0 -0.46,0.2 -0.46,0.45l0 0.31c0,0.25 0.21,0.45 0.46,0.45z"/>
  <path class="fil2" d="M19.83 11.5c0,0.25 0.21,0.45 0.46,0.45l0.41 0c0.25,0 0.45,-0.2 0.45,-0.45 0,-0.26 -0.2,-0.46 -0.45,-0.46l-0.41 0c-0.25,0 -0.46,0.2 -0.46,0.46l0 0z"/>
  <path class="fil2" d="M20.35 23.83c0,0.89 0.46,1.74 1.27,2.35 -0.18,0.04 -0.32,0.19 -0.35,0.38 -0.04,0.22 0.09,0.43 0.3,0.5 0.03,0.01 0.51,0.17 1.1,0.17 0.33,0 0.7,-0.05 1.04,-0.2 0.26,0.04 0.5,0.06 0.74,0.06 2.27,0 4.11,-1.47 4.11,-3.26 0,-1.8 -1.84,-3.26 -4.11,-3.26 -2.26,0 -4.1,1.46 -4.1,3.26l0 0zm4.1 -2.35c1.76,0 3.2,1.05 3.2,2.35 0,1.29 -1.44,2.34 -3.2,2.34 -0.23,0 -0.47,-0.02 -0.73,-0.07 -0.11,-0.01 -0.22,0 -0.31,0.06 -0.19,0.1 -0.41,0.15 -0.63,0.16 0,0 0,-0.01 0,-0.01 0.1,-0.22 0.01,-0.48 -0.2,-0.59 -0.82,-0.45 -1.32,-1.16 -1.32,-1.89 0,-1.3 1.43,-2.35 3.19,-2.35l0 0z"/>
  <circle class="fil2" cx="24.38" cy="23.84" r="0.46"/>
  <circle class="fil2" cx="23.01" cy="23.84" r="0.46"/>
  <circle class="fil2" cx="25.75" cy="23.84" r="0.46"/>
  <circle class="fil1" cx="5.98" cy="20.45" r="0.46"/>
 </g>
</svg>
