<?xml version="1.0" encoding="UTF-8"?>
<!DOCTYPE svg PUBLIC "-//W3C//DTD SVG 1.1//EN" "http://www.w3.org/Graphics/SVG/1.1/DTD/svg11.dtd">
<!-- Creator: CorelDRAW -->
<svg xmlns="http://www.w3.org/2000/svg" xml:space="preserve" width="640px" height="640px" version="1.1" style="shape-rendering:geometricPrecision; text-rendering:geometricPrecision; image-rendering:optimizeQuality; fill-rule:evenodd; clip-rule:evenodd"
viewBox="0 0 40.8 40.8"
 xmlns:xlink="http://www.w3.org/1999/xlink"
 xmlns:xodm="http://www.corel.com/coreldraw/odm/2003">
 <defs>
  <style type="text/css">
   <![CDATA[
    .fil0 {fill:none}
    .fil1 {fill:#002155;fill-rule:nonzero}
    .fil2 {fill:#FFC221;fill-rule:nonzero}
   ]]>
  </style>
 </defs>
 <g id="Layer_x0020_1">
  <metadata id="CorelCorpID_0Corel-Layer"/>
  <rect class="fil0" width="40.8" height="40.8"/>
 </g>
 <g id="Capa_x0020_1">
  <metadata id="CorelCorpID_1Corel-Layer"/>
  <g id="_2173813487600">
   <path class="fil1" d="M27.14 5.39c0.24,0 0.44,0.2 0.44,0.44 0,0.25 -0.2,0.44 -0.44,0.44l-6.16 0c-0.67,0 -1.27,0.27 -1.71,0.71 -0.44,0.43 -0.71,1.03 -0.71,1.7l0 5.27c0,0.24 -0.19,0.44 -0.44,0.44 -0.24,0 -0.44,-0.2 -0.44,-0.44l0 -5.27c0,-0.91 0.37,-1.73 0.97,-2.32 0.6,-0.6 1.42,-0.97 2.33,-0.97l6.16 0z"/>
   <path class="fil1" d="M19.05 21.52c-0.2,-0.14 -0.24,-0.42 -0.1,-0.61 0.14,-0.2 0.41,-0.25 0.61,-0.1 0.2,0.14 0.43,0.26 0.67,0.34 0.24,0.07 0.49,0.11 0.75,0.11l5.35 0c0.24,0 0.44,0.2 0.44,0.44l0 1.71 2.69 -2.06c0.08,-0.06 0.17,-0.09 0.26,-0.09l0 0 1.47 0c0.66,0 1.27,-0.27 1.71,-0.7 0.43,-0.44 0.7,-1.04 0.7,-1.71l0 -10.17c0,-0.67 -0.27,-1.27 -0.7,-1.7 -0.44,-0.44 -1.05,-0.71 -1.71,-0.71l-1.3 0c-0.24,0 -0.43,-0.19 -0.43,-0.44 0,-0.24 0.19,-0.44 0.43,-0.44l1.3 0c0.9,0 1.73,0.37 2.32,0.97 0.6,0.59 0.97,1.41 0.97,2.32l0 10.17c0,0.91 -0.37,1.73 -0.97,2.33 -0.59,0.59 -1.42,0.96 -2.32,0.96l-1.32 0 -3.25 2.49c-0.08,0.06 -0.18,0.11 -0.29,0.11 -0.24,0 -0.44,-0.2 -0.44,-0.44l0 -2.16 -4.91 0c-0.35,0 -0.69,-0.05 -1.01,-0.16 -0.34,-0.11 -0.64,-0.26 -0.92,-0.46z"/>
   <path class="fil2" d="M23.61 17.87c-0.19,-0.15 -0.22,-0.43 -0.07,-0.62 0.15,-0.19 0.43,-0.21 0.62,-0.06l0.29 0.24c0.2,0.15 0.41,0.27 0.65,0.36 0.23,0.08 0.47,0.12 0.73,0.12l4.17 0c0.03,0 0.01,0 0.02,0 0.07,0 0.13,-0.03 0.17,-0.08 0.05,-0.04 0.07,-0.11 0.07,-0.18 0,-0.02 0,0 0,-0.01 -0.01,-0.29 0,-2.46 0,-3.57 0,-0.05 0,-0.07 0,-0.62 0,-0.08 -0.03,-0.14 -0.07,-0.19 -0.05,-0.04 -0.11,-0.07 -0.19,-0.07l0 0 -2.83 -0.01c-0.24,0 -0.44,-0.2 -0.44,-0.44 0,-0.06 0.02,-0.12 0.04,-0.18l0.34 -0.81c0.16,-0.36 0.22,-0.75 0.2,-1.14 -0.02,-0.38 -0.13,-0.76 -0.33,-1.11l0 0 0 0c-0.01,0 -0.01,-0.01 -0.02,-0.01 0,0 -0.01,0 -0.01,0.01l-0.01 0 0 0c0,0 0,0 0,0 -0.01,0.01 -0.01,0.01 -0.01,0.02 0,0.42 -0.07,0.83 -0.22,1.22 -0.15,0.39 -0.36,0.75 -0.64,1.07l-1.81 2.04c-0.16,0.18 -0.44,0.2 -0.62,0.04 -0.18,-0.16 -0.2,-0.44 -0.04,-0.62l1.81 -2.04c0.21,-0.24 0.37,-0.51 0.48,-0.8 0.11,-0.29 0.16,-0.6 0.16,-0.91 0,-0.16 0.04,-0.31 0.12,-0.44 0.07,-0.14 0.18,-0.25 0.31,-0.33l0 0c0.01,-0.01 0.02,-0.01 0.03,-0.02 0.21,-0.12 0.45,-0.14 0.67,-0.09 0.22,0.06 0.42,0.2 0.55,0.4l0 0c0,0.01 0.01,0.02 0.01,0.03 0.26,0.46 0.41,0.97 0.44,1.49 0.04,0.51 -0.05,1.04 -0.26,1.53l-0.09 0.21 2.17 0.01 0 0c0.32,0 0.6,0.13 0.81,0.33 0.2,0.21 0.33,0.49 0.33,0.81 0,0.38 0,0.05 0,0.62 -0.01,1.1 -0.02,3.24 0,3.53l0 0.05c0,0.31 -0.12,0.58 -0.32,0.79 -0.19,0.2 -0.46,0.33 -0.76,0.35l-0.06 0 -4.17 0c-0.35,0 -0.7,-0.06 -1.03,-0.18 -0.32,-0.11 -0.63,-0.28 -0.9,-0.5l-0.29 -0.24zm3.37 -8.37l0 0 0 0zm0 0c0,0.01 0,0.01 0,0zm-0.04 -0.01l0 0 0 0zm0 0c0.01,0 0.01,0 0,0z"/>
   <path class="fil2" d="M23.83 18.6l-2.37 0c-0.24,0 -0.44,-0.2 -0.44,-0.44l0 -5.32c0,-0.25 0.2,-0.44 0.44,-0.44l2.37 0c0.24,0 0.44,0.19 0.44,0.44l0 5.32c0,0.24 -0.2,0.44 -0.44,0.44zm-1.93 -0.88l1.49 0 0 -4.44 -1.49 0 0 4.44z"/>
   <path class="fil1" d="M6.32 19.58c0,-0.24 0.19,-0.44 0.44,-0.44 0.24,0 0.44,0.2 0.44,0.44l0 4.43c0,0.5 0.2,0.96 0.53,1.28 0.32,0.33 0.78,0.53 1.28,0.53l4.42 0c0.24,0 0.44,0.2 0.44,0.44l0 1.17 1.97 -1.52c0.19,-0.14 0.46,-0.11 0.61,0.08 0.15,0.19 0.11,0.47 -0.08,0.62l-2.64 2.04c-0.08,0.07 -0.19,0.11 -0.3,0.11 -0.24,0 -0.44,-0.19 -0.44,-0.43l0 -1.63 -3.98 0c-0.74,0 -1.41,-0.3 -1.9,-0.79 -0.49,-0.48 -0.79,-1.15 -0.79,-1.9l0 -4.43z"/>
   <path class="fil1" d="M19.67 24.67c-0.06,0.23 -0.3,0.38 -0.53,0.32 -0.24,-0.06 -0.38,-0.3 -0.32,-0.54 0.01,-0.06 0.03,-0.14 0.04,-0.21 0.01,-0.07 0.01,-0.15 0.01,-0.23l0 -8.02c0,-0.5 -0.2,-0.95 -0.53,-1.28 -0.33,-0.32 -0.78,-0.52 -1.28,-0.52l0 -0.01 -8.05 0 0 0.01c-0.5,0 -0.96,0.2 -1.28,0.52 -0.33,0.33 -0.53,0.78 -0.53,1.28l0 0 0 0.95c0,0.24 -0.2,0.44 -0.44,0.44 -0.24,0 -0.44,-0.2 -0.44,-0.44l0 -0.95 0 0c0,-0.74 0.3,-1.41 0.79,-1.9 0.49,-0.48 1.16,-0.78 1.9,-0.78l0 0 8.05 0 0 0c0.74,0 1.41,0.3 1.9,0.78 0.49,0.49 0.79,1.16 0.79,1.9l0 8.02c0,0.12 -0.01,0.22 -0.02,0.33 -0.01,0.11 -0.03,0.22 -0.06,0.33z"/>
   <path class="fil1" d="M10.08 19.59c-0.24,0 -0.44,-0.2 -0.44,-0.44 0,-0.24 0.2,-0.44 0.44,-0.44l5.9 0c0.25,0 0.44,0.2 0.44,0.44 0,0.24 -0.19,0.44 -0.44,0.44l-5.9 0z"/>
   <path class="fil1" d="M10.08 21.54c-0.24,0 -0.44,-0.19 -0.44,-0.44 0,-0.24 0.2,-0.44 0.44,-0.44l5.9 0c0.25,0 0.44,0.2 0.44,0.44 0,0.25 -0.19,0.44 -0.44,0.44l-5.9 0z"/>
   <path class="fil1" d="M14.06 17.1c0.04,-0.23 0.27,-0.4 0.51,-0.36 0.24,0.04 0.4,0.27 0.36,0.51l-0.98 5.9c-0.03,0.24 -0.26,0.4 -0.5,0.36 -0.24,-0.04 -0.4,-0.26 -0.36,-0.5l0.97 -5.91z"/>
   <path class="fil1" d="M12.11 17.1c0.04,-0.23 0.27,-0.4 0.51,-0.36 0.23,0.04 0.4,0.27 0.36,0.51l-0.98 5.9c-0.04,0.24 -0.26,0.4 -0.5,0.36 -0.24,-0.04 -0.4,-0.26 -0.36,-0.5l0.97 -5.91z"/>
   <path class="fil1" d="M25.7 28.37c0,0.24 -0.19,0.44 -0.44,0.44 -0.24,0 -0.44,-0.2 -0.44,-0.44l0 -2.16c0,-0.32 -0.12,-0.61 -0.33,-0.81 -0.21,-0.21 -0.5,-0.34 -0.82,-0.34l-5.72 0c-0.32,0 -0.61,0.13 -0.82,0.34 -0.2,0.2 -0.33,0.49 -0.33,0.81l0 5.7c0,0.32 0.13,0.6 0.33,0.81 0.21,0.21 0.5,0.34 0.82,0.34l0 0 3.14 0c0.24,0 0.44,0.2 0.44,0.44l0 0 0 0.57 1.19 -0.92c0.08,-0.06 0.18,-0.09 0.27,-0.09l0 0 0.68 0c0.32,0 0.61,-0.13 0.82,-0.34 0.21,-0.21 0.33,-0.49 0.33,-0.81l0 -0.78c0,-0.25 0.2,-0.44 0.44,-0.44 0.25,0 0.44,0.19 0.44,0.44l0 0.78c0,0.56 -0.22,1.07 -0.59,1.43 -0.37,0.37 -0.88,0.6 -1.44,0.6l-0.53 0 -1.75 1.35c-0.08,0.07 -0.18,0.11 -0.3,0.11 -0.24,0 -0.44,-0.19 -0.44,-0.43l0 -1.03 -2.7 0 0 0c-0.56,0 -1.07,-0.23 -1.43,-0.6 -0.37,-0.36 -0.6,-0.87 -0.6,-1.43l0 -5.7c0,-0.56 0.23,-1.07 0.6,-1.43 0.36,-0.37 0.87,-0.6 1.43,-0.6l5.72 0c0.56,0 1.07,0.23 1.44,0.6 0.37,0.36 0.59,0.87 0.59,1.43l0 2.16z"/>
   <path class="fil1" d="M20.81 30.5c0.55,-0.3 0.96,-0.58 1.24,-0.88 0.27,-0.28 0.41,-0.58 0.41,-0.93 0,-0.28 -0.1,-0.48 -0.24,-0.62 -0.1,-0.08 -0.21,-0.14 -0.33,-0.17 -0.11,-0.02 -0.23,-0.02 -0.34,0.01 -0.14,0.04 -0.27,0.14 -0.34,0.3 -0.11,0.22 -0.37,0.31 -0.58,0.21 -0.1,-0.04 -0.17,-0.11 -0.21,-0.2l0 0c-0.09,-0.17 -0.23,-0.28 -0.37,-0.33 -0.11,-0.03 -0.23,-0.03 -0.35,0 -0.11,0.03 -0.22,0.09 -0.31,0.18 -0.14,0.13 -0.23,0.34 -0.23,0.62 0,0.35 0.14,0.65 0.41,0.93 0.28,0.3 0.69,0.58 1.24,0.88zm1.88 -0.27c-0.39,0.4 -0.95,0.77 -1.67,1.15 -0.12,0.07 -0.28,0.07 -0.41,0 -0.73,-0.38 -1.29,-0.75 -1.68,-1.15 -0.43,-0.45 -0.65,-0.94 -0.65,-1.54 0,-0.53 0.2,-0.95 0.49,-1.24 0.21,-0.21 0.46,-0.34 0.72,-0.41 0.26,-0.07 0.54,-0.06 0.81,0.02 0.18,0.05 0.35,0.14 0.51,0.27 0.14,-0.12 0.31,-0.21 0.49,-0.26 0.25,-0.08 0.53,-0.08 0.79,-0.02 0.26,0.06 0.51,0.19 0.72,0.38 0.31,0.29 0.53,0.71 0.53,1.26 0,0.6 -0.22,1.09 -0.65,1.54z"/>
  </g>
 </g>
</svg>
