<?xml version="1.0" encoding="UTF-8"?>
<!DOCTYPE svg PUBLIC "-//W3C//DTD SVG 1.1//EN" "http://www.w3.org/Graphics/SVG/1.1/DTD/svg11.dtd">
<!-- Creator: CorelDRAW 2019 (64-Bit) -->
<svg xmlns="http://www.w3.org/2000/svg" xml:space="preserve" width="640px" height="640px" version="1.1" style="shape-rendering:geometricPrecision; text-rendering:geometricPrecision; image-rendering:optimizeQuality; fill-rule:evenodd; clip-rule:evenodd"
viewBox="0 0 61.09 61.09"
 xmlns:xlink="http://www.w3.org/1999/xlink">
 <defs>
  <style type="text/css">
   <![CDATA[
    .fil0 {fill:none}
    .fil1 {fill:#67BC44}
   ]]>
  </style>
 </defs>
 <g id="Layer_x0020_1">
  <metadata id="CorelCorpID_0Corel-Layer"/>
  <rect class="fil0" width="61.09" height="61.09"/>
 </g>
 <g id="Layer_x0020_1_0">
  <metadata id="CorelCorpID_1Corel-Layer"/>
  <path class="fil1" d="M20.49 9.29c-3.32,0.62 -4.16,3.18 -5.64,5.7l-6.2 10.72c-0.58,1.05 -1.62,2.46 -1.85,3.79 -0.36,2.08 0.21,3.04 1.02,4.5l8.26 14.31c2.2,3.73 3.51,3.62 7.72,3.62 2.34,0 15.79,0.13 16.92,-0.07 3.25,-0.57 4.07,-3.24 5.55,-5.73 2.06,-3.45 4.17,-7.38 6.21,-10.72 0.55,-0.9 1.64,-2.6 1.83,-3.81 0.31,-2.01 -0.26,-3.19 -1.06,-4.5 -0.72,-1.18 -1.37,-2.4 -2.07,-3.58l-6.2 -10.73c-0.79,-1.36 -1.32,-2.2 -2.71,-2.92 -2.17,-1.12 -7.77,-0.66 -10.63,-0.66 -1.79,0 -10.07,-0.12 -11.15,0.08zm9.56 7.05c-1.55,0.4 -1.53,1.65 -1.53,3.33l0 9.64c0,1.49 0.83,2.75 2.52,2.28 1.42,-0.39 1.38,-1.82 1.37,-3.39 0,-1.61 0,-3.21 0,-4.82 0,-2.38 0.84,-7.87 -2.36,-7.04zm-6.75 2.62c-1.09,0.26 -1.67,1.17 -2.15,1.63 -7.24,6.95 -3.69,19.81 6.58,21.98 12.39,2.6 20.37,-11.89 13.06,-20.9 -0.84,-1.02 -1.41,-1.66 -2.52,-2.44 -1.24,-0.88 -2.8,-0.04 -2.76,1.4 0.04,1.77 2.62,1.68 4.09,5.95 2.06,6.01 -1.81,11.07 -6.37,12.43 -9.32,2.77 -15.85,-8.07 -10.58,-14.99 1.45,-1.9 1.95,-1.75 2.45,-2.51 0.87,-1.32 -0.35,-2.9 -1.8,-2.55z"/>
 </g>
</svg>
