<?xml version="1.0" encoding="UTF-8"?>
<!DOCTYPE svg PUBLIC "-//W3C//DTD SVG 1.1//EN" "http://www.w3.org/Graphics/SVG/1.1/DTD/svg11.dtd">
<!-- Creator: CorelDRAW 2019 (64-Bit) -->
<svg xmlns="http://www.w3.org/2000/svg" xml:space="preserve" width="640px" height="640px" version="1.1" style="shape-rendering:geometricPrecision; text-rendering:geometricPrecision; image-rendering:optimizeQuality; fill-rule:evenodd; clip-rule:evenodd"
viewBox="0 0 76.67 76.67"
 xmlns:xlink="http://www.w3.org/1999/xlink">
 <defs>
  <style type="text/css">
   <![CDATA[
    .fil0 {fill:none}
    .fil1 {fill:#0A2155}
    .fil2 {fill:#FFC221}
   ]]>
  </style>
 </defs>
 <g id="Layer_x0020_3">
  <metadata id="CorelCorpID_0Corel-Layer"/>
  <rect class="fil0" width="76.67" height="76.67"/>
  <g id="_1913867192512">
   <path class="fil1" d="M60.97 49.3l-5.63 -2.01 -1.63 -1.63 0 -2.53c1.96,-0.99 3.49,-2.7 4.24,-4.79l1.98 0c1.39,0 2.51,-1.13 2.51,-2.51l0 -4.08c0,-1.1 -0.72,-2.04 -1.71,-2.38l0 -3.36c0,-4.76 -3.87,-8.63 -8.63,-8.63l-4.45 0c-4.77,0 -8.64,3.87 -8.64,8.63l0 3.36c-0.99,0.34 -1.71,1.28 -1.71,2.38l0 4.08c0,1.31 1,2.38 2.28,2.5l0 0.54c0,1.49 1.21,2.7 2.7,2.7l1.58 0c0.63,0.62 1.37,1.15 2.18,1.56l0 2.53 -1.63 1.63 -1.7 0.61c-0.41,0.14 -0.63,0.6 -0.48,1.02 0.11,0.32 0.42,0.53 0.75,0.53 0.09,0 0.18,-0.02 0.27,-0.05l1.26 -0.45 1.84 2.88c0.02,0.03 0.04,0.06 0.06,0.08 0,0.01 0,0.01 0.01,0.01l1.35 1.59 -1.19 4.97 -4.46 0 0 -1.48c0,-0.44 -0.35,-0.79 -0.79,-0.79 -0.44,0 -0.8,0.35 -0.8,0.79l0 1.48 -4.48 0 0 -3.06c0,-2.07 1.31,-3.92 3.25,-4.62l0.39 -0.13c0.42,-0.15 0.63,-0.61 0.49,-1.02 -0.15,-0.42 -0.61,-0.64 -1.02,-0.49l-0.39 0.14c-2.58,0.92 -4.32,3.38 -4.32,6.12l0 3.06 -22.27 0c-0.44,0 -0.8,0.36 -0.8,0.8l0 5.21c0,0.44 0.36,0.8 0.8,0.8l5.15 0c0.45,0 0.8,-0.36 0.8,-0.8 0,-0.44 -0.35,-0.8 -0.8,-0.8l-4.35 0 0 -3.61 50.71 0 0 3.61 -42.62 0c-0.44,0 -0.8,0.36 -0.8,0.8 0,0.44 0.36,0.8 0.8,0.8l43.42 0c0.44,0 0.8,-0.36 0.8,-0.8l0 -9.07c0,-2.74 -1.73,-5.2 -4.32,-6.12zm-12.93 2.07l1.83 -2.44 1.83 2.44 -0.96 1.13 -1.73 0 -0.97 -1.13zm4.63 -1.37l-1.21 -1.6 -0.39 -0.53 1.69 -0.9 1.12 1.12 -1.21 1.91zm2.56 -26l0.34 0c0.71,0 1.29,0.58 1.29,1.29l0 5.55 -1.63 -0.82 0 -6.02zm5.62 11.83c0,0.5 -0.41,0.91 -0.92,0.91l-1.48 0 0 -5.9 1.48 0c0.51,0 0.92,0.41 0.92,0.91l0 4.08zm-13.2 -16.86l4.45 0c3.88,0 7.04,3.16 7.04,7.04l0 3.23 -0.69 0 0 -3.95c0,-1.59 -1.29,-2.88 -2.88,-2.88l-0.65 0c-0.57,-1.29 -1.85,-2.19 -3.34,-2.19l-2.66 0c-4.21,0 -7.63,3.43 -7.63,7.64l0 1.38 -0.68 0 0 -3.23c0,-3.88 3.15,-7.04 7.04,-7.04zm3.6 11.72c-0.32,-0.2 -0.73,-0.15 -1,0.12 -0.01,0.01 -1.11,1.08 -3.5,1.55 0.18,-0.29 0.16,-0.67 -0.07,-0.94 -0.23,-0.27 -0.61,-0.35 -0.93,-0.21l-2.87 1.3 0 -4.65c0,-3.33 2.71,-6.04 6.04,-6.04l2.66 0c1.13,0 2.05,0.92 2.05,2.05l0 6.52c-0.1,0.24 -0.56,1.11 -2.16,1.51l0.1 -0.25c0.13,-0.35 0,-0.75 -0.32,-0.96l0 0zm-12.35 5.14l0 -4.08c0,-0.5 0.41,-0.91 0.91,-0.91l1.48 0 0 5.9 -1.48 0c-0.5,0 -0.91,-0.41 -0.91,-0.91l0 0zm2.27 3.04l0 -0.53 0.62 0c0.21,0.57 0.47,1.12 0.79,1.63l-0.3 0c-0.61,0 -1.11,-0.49 -1.11,-1.1zm6.42 1.1l-3.04 0c-1.04,-1.22 -1.67,-2.8 -1.67,-4.52l0 -1.19 1.48 -0.67c0.02,0.06 0.04,0.11 0.07,0.17 0.15,0.26 0.44,0.42 0.74,0.4 1.89,-0.1 3.32,-0.54 4.33,-1.01 0.02,0.08 0.06,0.15 0.11,0.21 0.16,0.22 0.42,0.34 0.69,0.32 2.67,-0.17 3.91,-1.28 4.48,-2.1l2.08 1.04 0 2.83c0,3.86 -3.14,6.99 -6.99,6.99 -1.22,0 -2.37,-0.32 -3.38,-0.87l1.1 0c0.44,0 0.8,-0.36 0.8,-0.8 0,-0.44 -0.36,-0.8 -0.8,-0.8zm2.28 4.06c0.78,0 1.53,-0.1 2.24,-0.29l0 1.77 -2.24 1.19 -2.24 -1.19 0 -1.77c0.72,0.19 1.47,0.29 2.24,0.29zm-2.89 2.94l1.69 0.9 -0.39 0.53 -1.2 1.6 -1.22 -1.91 1.12 -1.12zm1.24 11.51l1.05 -4.38 1.21 0 1.04 4.38 -3.3 0zm10.99 0l0 -1.48c0,-0.44 -0.35,-0.79 -0.79,-0.79 -0.45,0 -0.8,0.35 -0.8,0.79l0 1.48 -4.46 0 -1.19 -4.97 1.36 -1.59c0,0 0,0 0,-0.01 0.02,-0.02 0.04,-0.05 0.06,-0.08l1.84 -2.88 5.21 1.85c1.95,0.7 3.25,2.55 3.25,4.62l0 3.06 -4.48 0 0 0zm0 0z"/>
   <path class="fil1" d="M14.33 35.94l11.78 0 3.53 3.4c0.15,0.14 0.35,0.22 0.55,0.22 0.11,0 0.21,-0.02 0.31,-0.07 0.3,-0.12 0.49,-0.41 0.49,-0.73l0 -2.82 2.06 0c1.61,0 2.92,-1.31 2.92,-2.92l0 -18.72c0,-1.61 -1.31,-2.92 -2.93,-2.92l-18.71 0c-1.61,0 -2.92,1.31 -2.92,2.92l0 2.59c0,0.44 0.35,0.8 0.79,0.8 0.44,0 0.8,-0.36 0.8,-0.8l0 -2.59c0,-0.73 0.6,-1.32 1.33,-1.32l18.71 0c0.74,0 1.33,0.59 1.33,1.32l0 18.72c0,0.73 -0.59,1.33 -1.33,1.33l-2.85 0c-0.44,0 -0.8,0.35 -0.8,0.79l0 1.75 -2.41 -2.32c-0.15,-0.14 -0.35,-0.22 -0.55,-0.22l-12.1 0c-0.73,0 -1.33,-0.6 -1.33,-1.33l0 -12.38c0,-0.44 -0.35,-0.8 -0.8,-0.8 -0.44,0 -0.79,0.36 -0.79,0.8l0 12.38c0,1.61 1.31,2.92 2.92,2.92l0 0zm0 0z"/>
   <path class="fil2" d="M23.69 26.44c1.59,0 2.88,-1.29 2.88,-2.89 0,-1.59 -1.29,-2.88 -2.88,-2.88 -1.59,0 -2.89,1.29 -2.89,2.88 0,1.6 1.3,2.89 2.89,2.89zm0 -4.18c0.71,0 1.29,0.58 1.29,1.29 0,0.72 -0.58,1.3 -1.29,1.3 -0.71,0 -1.29,-0.58 -1.29,-1.3 0,-0.71 0.58,-1.29 1.29,-1.29zm0 0z"/>
   <path class="fil2" d="M15.29 20.92c-0.44,0 -0.8,0.36 -0.8,0.8l0 3.67c0,0.44 0.36,0.8 0.8,0.8l1.84 0c0.02,0.04 0.04,0.09 0.06,0.14l-1.3 1.3c-0.31,0.32 -0.31,0.82 0,1.13l2.59 2.6c0.31,0.31 0.82,0.31 1.13,0l1.3 -1.31c0.05,0.02 0.1,0.04 0.15,0.06l0 1.85c0,0.44 0.35,0.79 0.79,0.79l3.67 0c0.44,0 0.8,-0.35 0.8,-0.79l0 -1.85c0.05,-0.02 0.1,-0.04 0.14,-0.06l1.31 1.31c0.31,0.31 0.81,0.31 1.13,0l2.59 -2.6c0.31,-0.31 0.31,-0.81 0,-1.13l-1.3 -1.3c0.02,-0.05 0.04,-0.1 0.06,-0.14l1.84 0c0.44,0 0.8,-0.36 0.8,-0.8l0 -3.67c0,-0.44 -0.36,-0.8 -0.8,-0.8l-1.84 0c-0.02,-0.05 -0.04,-0.09 -0.06,-0.14l1.3 -1.3c0.31,-0.32 0.31,-0.82 0,-1.13l-2.59 -2.6c-0.32,-0.31 -0.82,-0.31 -1.13,0l-1.3 1.31c-0.05,-0.02 -0.1,-0.04 -0.15,-0.06l0 -1.84c0,-0.45 -0.36,-0.8 -0.8,-0.8l-3.67 0c-0.44,0 -0.79,0.35 -0.79,0.8l0 1.84c-0.05,0.02 -0.1,0.04 -0.15,0.06l-1.3 -1.31c-0.31,-0.31 -0.82,-0.31 -1.13,0l-2.59 2.6c-0.31,0.31 -0.31,0.81 0,1.13l1.3 1.3c-0.02,0.05 -0.04,0.09 -0.06,0.14l-1.84 0zm3.43 -0.87l-1.14 -1.14 1.46 -1.46 1.14 1.13c0.25,0.25 0.63,0.31 0.94,0.14 0.31,-0.16 0.63,-0.3 0.97,-0.4 0.33,-0.1 0.56,-0.41 0.56,-0.76l0 -1.61 2.07 0 0 1.61c0,0.35 0.23,0.66 0.57,0.76 0.33,0.1 0.66,0.24 0.97,0.4 0.3,0.17 0.69,0.11 0.93,-0.14l1.14 -1.13 1.47 1.46 -1.14 1.14c-0.25,0.25 -0.31,0.63 -0.14,0.94 0.16,0.31 0.3,0.63 0.4,0.96 0.1,0.34 0.41,0.57 0.76,0.57l1.61 0 0 2.07 -1.61 0c-0.35,0 -0.66,0.23 -0.76,0.57 -0.1,0.33 -0.24,0.65 -0.4,0.96 -0.17,0.31 -0.11,0.69 0.14,0.94l1.14 1.14 -1.47 1.46 -1.14 -1.13c-0.24,-0.25 -0.63,-0.31 -0.93,-0.14 -0.31,0.16 -0.64,0.29 -0.97,0.4 -0.34,0.1 -0.57,0.41 -0.57,0.76l0 1.61 -2.07 0 0 -1.61c0,-0.35 -0.23,-0.66 -0.56,-0.76 -0.34,-0.11 -0.66,-0.24 -0.97,-0.4 -0.31,-0.17 -0.69,-0.11 -0.94,0.14l-1.14 1.13 -1.46 -1.46 1.14 -1.14c0.24,-0.25 0.3,-0.63 0.14,-0.94 -0.17,-0.31 -0.3,-0.63 -0.4,-0.96 -0.11,-0.34 -0.42,-0.57 -0.77,-0.57l-1.6 0 0 -2.07 1.6 0c0.35,0 0.66,-0.23 0.77,-0.57 0.1,-0.33 0.23,-0.65 0.4,-0.96 0.16,-0.31 0.1,-0.69 -0.14,-0.94l0 0zm0 0z"/>
  </g>
 </g>
</svg>
