<?xml version="1.0" encoding="UTF-8"?>
<!DOCTYPE svg PUBLIC "-//W3C//DTD SVG 1.1//EN" "http://www.w3.org/Graphics/SVG/1.1/DTD/svg11.dtd">
<!-- Creator: CorelDRAW 2019 (64-Bit) -->
<svg xmlns="http://www.w3.org/2000/svg" xml:space="preserve" width="640px" height="640px" version="1.1" style="shape-rendering:geometricPrecision; text-rendering:geometricPrecision; image-rendering:optimizeQuality; fill-rule:evenodd; clip-rule:evenodd"
viewBox="0 0 44.18 44.18"
 xmlns:xlink="http://www.w3.org/1999/xlink">
 <defs>
  <style type="text/css">
   <![CDATA[
    .fil0 {fill:none}
    .fil1 {fill:#0A2155}
    .fil2 {fill:#FFC221}
   ]]>
  </style>
 </defs>
 <g id="Layer_x0020_1">
  <metadata id="CorelCorpID_0Corel-Layer"/>
  <rect class="fil0" width="44.18" height="44.18"/>
  <path class="fil1" d="M35.67 21.36l0 -2.94c0,-3.16 -1.23,-6.13 -3.48,-8.38 -2.24,-2.24 -5.22,-3.48 -8.37,-3.48l-3.46 0c-3.15,0 -6.12,1.24 -8.37,3.48 -2.25,2.25 -3.48,5.22 -3.48,8.38l0 2.94c-0.42,0.22 -0.71,0.66 -0.71,1.17l0 5.5c0,0.73 0.6,1.32 1.33,1.32l1.14 0 0 0.34c0,0.37 0.31,0.68 0.68,0.68l1.02 0c0.94,0 1.7,-0.77 1.7,-1.7l0 -6.78c0,-0.94 -0.76,-1.7 -1.7,-1.7l-0.73 0 0 -1.77c0,-5.04 4.09,-9.13 9.12,-9.13l3.46 0c5.03,0 9.12,4.09 9.12,9.13l0 1.77 -0.73 0c-0.94,0 -1.7,0.76 -1.7,1.7l0 6.78c0,0.93 0.76,1.7 1.7,1.7l1.02 0c0.38,0 0.68,-0.31 0.68,-0.68l0 -0.34 0.28 0 0 2.07c0,2.25 -1.83,4.09 -4.09,4.09l-5.31 0c-0.21,-0.66 -0.83,-1.14 -1.56,-1.14l-2.28 0c-0.9,0 -1.63,0.73 -1.63,1.63 0,0.89 0.73,1.62 1.63,1.62l2.28 0c0.73,0 1.35,-0.48 1.56,-1.14l5.31 0c2.79,0 5.06,-2.27 5.06,-5.06l0 -2.07c0.68,-0.06 1.22,-0.63 1.22,-1.32l0 -5.5c0,-0.51 -0.29,-0.95 -0.71,-1.17l0 0zm-12.44 15.29l-2.28 0c-0.36,0 -0.66,-0.29 -0.66,-0.66 0,-0.36 0.3,-0.65 0.66,-0.65l2.28 0c0.37,0 0.66,0.29 0.66,0.65 0,0.37 -0.29,0.66 -0.66,0.66zm-14.1 -8.27c-0.2,0 -0.35,-0.15 -0.35,-0.35l0 -5.5c0,-0.2 0.15,-0.36 0.35,-0.36l1.14 0 0 6.21 -1.14 0zm2.84 -7.22c0.41,0 0.74,0.33 0.74,0.73l0 6.78c0,0.4 -0.33,0.73 -0.74,0.73l-0.73 0 0 -7.71 0 -0.53 0.73 0 0 0zm18.98 -9.87c-1.91,-1.92 -4.45,-2.97 -7.13,-2.97l-3.46 0c-2.68,0 -5.21,1.05 -7.12,2.97 -1.92,1.91 -2.97,4.44 -2.97,7.13l0 2.45 0 0.33 -0.79 0 0 -2.78c0,-6.01 4.88,-10.89 10.88,-10.89l3.46 0c6,0 10.88,4.88 10.88,10.89l0 2.78 -0.79 0 0 -0.33 0 -2.45c0,-2.69 -1.05,-5.22 -2.96,-7.13zm1.99 18.11l-0.73 0c-0.41,0 -0.73,-0.33 -0.73,-0.73l0 -6.78c0,-0.4 0.32,-0.73 0.73,-0.73l0.73 0 0 0.53 0 7.71zm2.47 -1.37c0,0.2 -0.16,0.35 -0.36,0.35l-1.14 0 0 -6.21 1.14 0c0.2,0 0.36,0.16 0.36,0.36l0 5.5z"/>
  <g id="_2167897593264">
   <path class="fil2" d="M27.59 13.96l-11 0c-0.77,0 -1.4,0.63 -1.4,1.41l0 8.58c0,0.78 0.63,1.41 1.4,1.41l3.49 0 -0.24 0.76 -0.1 0c-0.57,0 -1.04,0.47 -1.04,1.04l0 0.38c0,0.12 0.1,0.23 0.23,0.23l6.32 0c0.13,0 0.23,-0.11 0.23,-0.23l0 -0.38c0,-0.57 -0.46,-1.04 -1.04,-1.04l-0.1 0 -0.24 -0.76 3.49 0c0.77,0 1.41,-0.63 1.41,-1.41l0 -8.58c0,-0.78 -0.64,-1.41 -1.41,-1.41l0 0zm-11 0.46l11 0c0.52,0 0.95,0.42 0.95,0.95l0 7.71 -12.89 0 0 -7.71c0,-0.53 0.42,-0.95 0.94,-0.95zm8.43 12.74l0 0.15 -5.86 0 0 -0.15c0,-0.32 0.26,-0.58 0.58,-0.58l4.7 0c0.32,0 0.58,0.26 0.58,0.58l0 0zm-1.16 -1.04l-3.54 0 0.24 -0.76 3.06 0 0.24 0.76 0 0zm3.73 -1.22l-3.8 0c0,0 0,0 0,0l-3.4 0c0,0 0,0 0,0l-3.8 0c-0.52,0 -0.94,-0.42 -0.94,-0.95l0 -0.41 12.89 0 0 0.41c0,0.53 -0.43,0.95 -0.95,0.95z"/>
   <path class="fil2" d="M20.91 23.98l-0.21 0c-0.13,0 -0.23,0.1 -0.23,0.23 0,0.13 0.1,0.23 0.23,0.23l0.21 0c0.12,0 0.23,-0.1 0.23,-0.23 0,-0.13 -0.11,-0.23 -0.23,-0.23z"/>
   <path class="fil2" d="M22.18 23.98l-0.2 0c-0.13,0 -0.23,0.1 -0.23,0.23 0,0.13 0.1,0.23 0.23,0.23l0.2 0c0.13,0 0.23,-0.1 0.23,-0.23 0,-0.13 -0.1,-0.23 -0.23,-0.23z"/>
   <path class="fil2" d="M23.46 23.98l-0.2 0c-0.13,0 -0.23,0.1 -0.23,0.23 0,0.13 0.1,0.23 0.23,0.23l0.2 0c0.13,0 0.23,-0.1 0.23,-0.23 0,-0.13 -0.1,-0.23 -0.23,-0.23z"/>
   <path class="fil2" d="M19.03 19.64l0.58 0c0.05,0.17 0.11,0.33 0.2,0.48l-0.41 0.41c-0.05,0.05 -0.07,0.1 -0.07,0.16 0,0.07 0.02,0.12 0.07,0.17l0.73 0.73c0.04,0.04 0.1,0.07 0.16,0.07 0.06,0 0.12,-0.03 0.16,-0.07l0.41 -0.41c0.16,0.08 0.32,0.15 0.48,0.2l0 0.58c0,0.12 0.11,0.23 0.23,0.23l1.04 0c0.12,0 0.23,-0.11 0.23,-0.23l0 -0.58c0.16,-0.05 0.33,-0.12 0.48,-0.2l0.41 0.41c0.09,0.08 0.24,0.08 0.32,0l0.73 -0.73c0.05,-0.05 0.07,-0.1 0.07,-0.17 0,-0.06 -0.02,-0.12 -0.07,-0.16l-0.41 -0.41c0.09,-0.15 0.15,-0.31 0.2,-0.48l0.58 0c0.13,0 0.23,-0.1 0.23,-0.23l0 -1.03c0,-0.13 -0.1,-0.23 -0.23,-0.23l-0.58 0c-0.05,-0.17 -0.11,-0.33 -0.2,-0.48l0.41 -0.41c0.05,-0.05 0.07,-0.11 0.07,-0.17 0,-0.06 -0.02,-0.12 -0.07,-0.16l-0.73 -0.73c-0.04,-0.04 -0.1,-0.07 -0.16,-0.07 -0.06,0 -0.12,0.03 -0.16,0.07l-0.41 0.41c-0.15,-0.08 -0.32,-0.15 -0.48,-0.2l0 -0.58c0,-0.13 -0.11,-0.23 -0.23,-0.23l-1.04 0c-0.12,0 -0.23,0.1 -0.23,0.23l0 0.58c-0.16,0.05 -0.32,0.12 -0.48,0.2l-0.41 -0.41c-0.08,-0.09 -0.24,-0.09 -0.32,0l-0.73 0.73c-0.05,0.04 -0.07,0.1 -0.07,0.16 0,0.06 0.02,0.12 0.07,0.17l0.41 0.41c-0.09,0.15 -0.15,0.31 -0.2,0.48l-0.58 0c-0.13,0 -0.23,0.1 -0.23,0.23l0 1.03c0,0.13 0.1,0.23 0.23,0.23l0 0zm0.23 -1.03l0.53 0c0.1,0 0.2,-0.08 0.22,-0.18 0.05,-0.24 0.15,-0.47 0.28,-0.68 0.06,-0.09 0.05,-0.21 -0.03,-0.28l-0.37 -0.38 0.4 -0.4 0.37 0.37c0.08,0.08 0.2,0.09 0.29,0.03 0.21,-0.13 0.44,-0.22 0.68,-0.28 0.1,-0.02 0.18,-0.11 0.18,-0.22l0 -0.53 0.57 0 0 0.53c0,0.11 0.07,0.2 0.18,0.22 0.24,0.06 0.46,0.15 0.67,0.28 0.09,0.06 0.21,0.05 0.29,-0.03l0.37 -0.37 0.41 0.4 -0.38 0.38c-0.07,0.07 -0.09,0.19 -0.03,0.28 0.13,0.21 0.23,0.44 0.28,0.68 0.03,0.1 0.12,0.18 0.23,0.18l0.52 0 0 0.57 -0.52 0c-0.11,0 -0.2,0.08 -0.23,0.18 -0.05,0.24 -0.15,0.47 -0.28,0.68 -0.06,0.09 -0.04,0.21 0.03,0.28l0.38 0.37 -0.41 0.41 -0.37 -0.37c-0.08,-0.08 -0.2,-0.09 -0.29,-0.04 -0.21,0.14 -0.43,0.23 -0.67,0.28 -0.11,0.03 -0.18,0.12 -0.18,0.23l0 0.53 -0.57 0 0 -0.53c0,-0.11 -0.08,-0.2 -0.18,-0.23 -0.24,-0.05 -0.47,-0.14 -0.68,-0.28 -0.09,-0.05 -0.21,-0.04 -0.29,0.04l-0.37 0.37 -0.4 -0.41 0.37 -0.37c0.08,-0.07 0.09,-0.19 0.03,-0.28 -0.13,-0.21 -0.23,-0.44 -0.28,-0.68 -0.02,-0.1 -0.12,-0.18 -0.22,-0.18l-0.53 0 0 -0.57z"/>
   <path class="fil2" d="M22.09 20.42c0.84,0 1.53,-0.68 1.53,-1.53 0,-0.84 -0.69,-1.52 -1.53,-1.52 -0.84,0 -1.53,0.68 -1.53,1.52 0,0.85 0.69,1.53 1.53,1.53zm0 -2.59c0.59,0 1.07,0.48 1.07,1.06 0,0.59 -0.48,1.07 -1.07,1.07 -0.59,0 -1.07,-0.48 -1.07,-1.07 0,-0.58 0.48,-1.06 1.07,-1.06z"/>
  </g>
 </g>
</svg>
