<?xml version="1.0" encoding="UTF-8"?>
<!DOCTYPE svg PUBLIC "-//W3C//DTD SVG 1.1//EN" "http://www.w3.org/Graphics/SVG/1.1/DTD/svg11.dtd">
<!-- Creator: CorelDRAW 2019 (64-Bit) -->
<svg xmlns="http://www.w3.org/2000/svg" xml:space="preserve" width="640px" height="640px" version="1.1" style="shape-rendering:geometricPrecision; text-rendering:geometricPrecision; image-rendering:optimizeQuality; fill-rule:evenodd; clip-rule:evenodd"
viewBox="0 0 32.77 32.77"
 xmlns:xlink="http://www.w3.org/1999/xlink">
 <defs>
  <style type="text/css">
   <![CDATA[
    .fil0 {fill:none}
    .fil1 {fill:#0A2155}
    .fil2 {fill:#FFC221}
   ]]>
  </style>
 </defs>
 <g id="Layer_x0020_1">
  <metadata id="CorelCorpID_0Corel-Layer"/>
  <rect class="fil0" width="32.77" height="32.77"/>
  <path class="fil1" d="M26.46 15.84l0 -2.18c0,-2.34 -0.92,-4.55 -2.58,-6.21 -1.67,-1.67 -3.88,-2.59 -6.21,-2.59l-2.57 0c-2.34,0 -4.54,0.92 -6.21,2.59 -1.66,1.66 -2.58,3.87 -2.58,6.21l0 2.18c-0.31,0.17 -0.52,0.49 -0.52,0.87l0 4.08c0,0.54 0.44,0.98 0.98,0.98l0.85 0 0 0.25c0,0.28 0.22,0.5 0.5,0.5l0.76 0c0.7,0 1.26,-0.56 1.26,-1.26l0 -5.02c0,-0.7 -0.56,-1.27 -1.26,-1.27l-0.54 0 0 -1.31c0,-3.73 3.03,-6.77 6.76,-6.77l2.57 0c3.73,0 6.76,3.04 6.76,6.77l0 1.31 -0.54 0c-0.7,0 -1.27,0.57 -1.27,1.27l0 5.02c0,0.7 0.57,1.26 1.27,1.26l0.76 0c0.27,0 0.5,-0.23 0.5,-0.5l0 -0.25 0.21 0 0 1.53c0,1.67 -1.36,3.04 -3.04,3.04l-3.94 0c-0.15,-0.49 -0.61,-0.85 -1.15,-0.85l-1.69 0c-0.67,0 -1.21,0.54 -1.21,1.21 0,0.66 0.54,1.2 1.21,1.2l1.69 0c0.54,0 1,-0.35 1.15,-0.84l3.94 0c2.07,0 3.76,-1.69 3.76,-3.76l0 -1.53c0.5,-0.04 0.9,-0.47 0.9,-0.98l0 -4.08c0,-0.38 -0.21,-0.7 -0.52,-0.87l0 0zm-9.23 11.34l-1.69 0c-0.27,0 -0.49,-0.22 -0.49,-0.48 0,-0.27 0.22,-0.49 0.49,-0.49l1.69 0c0.27,0 0.49,0.22 0.49,0.49 0,0.26 -0.22,0.48 -0.49,0.48zm-10.46 -6.13c-0.14,0 -0.26,-0.12 -0.26,-0.26l0 -4.08c0,-0.15 0.12,-0.27 0.26,-0.27l0.85 0 0 4.61 -0.85 0zm2.11 -5.36c0.3,0 0.54,0.25 0.54,0.55l0 5.02c0,0.3 -0.24,0.54 -0.54,0.54l-0.54 0 0 -5.71 0 -0.4 0.54 0 0 0zm14.07 -7.32c-1.42,-1.42 -3.29,-2.2 -5.28,-2.2l-2.57 0c-1.99,0 -3.87,0.78 -5.28,2.2 -1.42,1.42 -2.2,3.3 -2.2,5.29l0 1.82 0 0.25 -0.59 0 0 -2.07c0,-4.45 3.62,-8.08 8.07,-8.08l2.57 0c4.45,0 8.07,3.63 8.07,8.08l0 2.07 -0.59 0 0 -0.25 0 -1.82c0,-1.99 -0.78,-3.87 -2.2,-5.29zm1.48 13.43l-0.54 0c-0.3,0 -0.55,-0.24 -0.55,-0.54l0 -5.02c0,-0.3 0.25,-0.55 0.55,-0.55l0.54 0 0 0.39 0 5.72zm1.83 -1.01c0,0.14 -0.12,0.26 -0.26,0.26l-0.85 0 0 -4.61 0.85 0c0.14,0 0.26,0.12 0.26,0.27l0 4.08z"/>
  <g id="tool.svg">
   <path class="fil2" d="M18.24 13.25c-0.12,0 -0.21,0.09 -0.21,0.21 0,0.11 0.09,0.2 0.21,0.2 0.11,0 0.2,-0.09 0.2,-0.2 0,-0.12 -0.09,-0.21 -0.2,-0.21zm0 0z"/>
   <path class="fil2" d="M14.5 16.99c-0.12,0 -0.21,0.09 -0.21,0.2 0,0.12 0.09,0.21 0.21,0.21 0.11,0 0.2,-0.09 0.2,-0.21 0,-0.11 -0.09,-0.2 -0.2,-0.2zm0 0z"/>
   <path class="fil2" d="M21.38 11.32c-0.07,-0.01 -0.14,0.01 -0.19,0.06l-0.86 0.86 -0.41 0 -0.45 -0.47 0 -0.41 0.84 -0.86c0.05,-0.05 0.07,-0.12 0.06,-0.19 -0.02,-0.07 -0.07,-0.12 -0.14,-0.15 -0.21,-0.07 -0.43,-0.1 -0.65,-0.1 -0.67,0 -1.28,0.31 -1.67,0.85 -0.37,0.51 -0.48,1.14 -0.32,1.74l-1.52 1.51 -2.52 -2.53 0 -0.49c0,-0.08 -0.04,-0.14 -0.1,-0.18l-1.46 -0.87c-0.08,-0.05 -0.18,-0.04 -0.25,0.03l-0.58 0.58c-0.07,0.07 -0.08,0.17 -0.03,0.25l0.87 1.46c0.04,0.06 0.1,0.1 0.18,0.1l0.49 0 2.53 2.53 -1.51 1.51c-0.6,-0.16 -1.22,-0.05 -1.74,0.32 -0.54,0.39 -0.85,1 -0.85,1.67 0,0.22 0.03,0.44 0.11,0.65 0.02,0.07 0.07,0.12 0.14,0.14 0.07,0.01 0.15,-0.01 0.2,-0.06l0.85 -0.86 0.41 0 0.47 0.47 0 0.41 -0.86 0.86c-0.05,0.05 -0.07,0.12 -0.06,0.19 0.02,0.07 0.07,0.12 0.14,0.15 0.21,0.07 0.43,0.1 0.66,0.1 0.67,0 1.27,-0.31 1.67,-0.85 0.36,-0.51 0.48,-1.14 0.31,-1.74l1.22 -1.21 0.27 0.3 -0.12 0.13c-0.08,0.08 -0.08,0.21 0,0.29 0.08,0.08 0.21,0.08 0.29,0l0.11 -0.12 2.61 2.84c0,0 0,0 0.01,0 0.48,0.48 1.26,0.48 1.74,0 0.48,-0.48 0.48,-1.26 0,-1.74 0,-0.01 0,-0.01 0,-0.01l-2.84 -2.6 0.11 -0.12c0.08,-0.08 0.08,-0.21 0,-0.29 -0.08,-0.08 -0.21,-0.08 -0.29,0l-0.12 0.13 -0.31 -0.28 1.22 -1.22c0.18,0.05 0.36,0.07 0.54,0.07 1.13,0 2.05,-0.92 2.05,-2.05 0,-0.23 -0.03,-0.45 -0.1,-0.66 -0.03,-0.07 -0.08,-0.12 -0.15,-0.14l0 0zm-8.48 0.83c-0.03,-0.03 -0.09,-0.05 -0.14,-0.05l-0.47 0 -0.73 -1.22 0.36 -0.36 1.22 0.73 0 0.47c0,0.05 0.02,0.1 0.06,0.14l2.58 2.6 -0.29 0.29 -2.59 -2.6zm5.24 4.02l2.84 2.61c0.32,0.32 0.32,0.84 0,1.16 -0.32,0.32 -0.84,0.32 -1.16,0l-2.61 -2.84 0.93 -0.93zm-0.3 -0.28l-0.91 0.91 -0.28 -0.3 0.88 -0.89 0.31 0.28zm1.74 -2.13c-0.18,0 -0.36,-0.03 -0.53,-0.08 -0.07,-0.03 -0.16,-0.01 -0.21,0.05 -1.03,1.03 -3.26,3.25 -4.07,4.07 -0.06,0.05 -0.08,0.14 -0.05,0.21 0.17,0.51 0.09,1.05 -0.23,1.49 -0.31,0.43 -0.8,0.68 -1.33,0.68 -0.06,0 -0.12,0 -0.18,-0.01l0.65 -0.65c0.04,-0.03 0.06,-0.09 0.06,-0.14l0 -0.58c0,-0.06 -0.02,-0.11 -0.06,-0.15l-0.59 -0.59c-0.04,-0.04 -0.09,-0.06 -0.14,-0.06l-0.59 0c-0.05,0 -0.1,0.02 -0.14,0.06l-0.65 0.66c-0.01,-0.06 -0.01,-0.12 -0.01,-0.18 0,-0.54 0.25,-1.03 0.68,-1.34 0.44,-0.31 0.98,-0.4 1.49,-0.22 0.08,0.02 0.16,0 0.21,-0.05 0.01,-0.02 4.07,-4.07 4.08,-4.08 0.05,-0.05 0.07,-0.13 0.05,-0.21 -0.18,-0.51 -0.09,-1.05 0.22,-1.49 0.31,-0.43 0.8,-0.68 1.34,-0.68 0.06,0 0.12,0 0.18,0.01l-0.64 0.65c-0.04,0.04 -0.06,0.09 -0.06,0.14l0 0.59c0,0.05 0.02,0.1 0.06,0.14l0.57 0.59c0.04,0.04 0.09,0.06 0.15,0.06l0.58 0c0.05,0 0.11,-0.02 0.14,-0.06l0.65 -0.65c0.01,0.06 0.01,0.11 0.01,0.18 0,0.9 -0.74,1.64 -1.64,1.64l0 0zm0 0z"/>
   <path class="fil2" d="M17.51 13.89l-2.58 2.58c-0.08,0.08 -0.08,0.21 0,0.29 0.08,0.08 0.21,0.08 0.29,0l2.58 -2.58c0.08,-0.08 0.08,-0.21 0,-0.29 -0.08,-0.08 -0.21,-0.08 -0.29,0zm0 0z"/>
   <path class="fil2" d="M20.11 19.36c0.08,0.08 0.21,0.08 0.29,0 0.08,-0.08 0.08,-0.21 0,-0.29l-1.86 -1.85c-0.08,-0.08 -0.21,-0.08 -0.29,0 -0.08,0.08 -0.08,0.21 0,0.29l1.86 1.85zm0 0z"/>
  </g>
 </g>
</svg>
