<?xml version="1.0" encoding="UTF-8"?>
<!DOCTYPE svg PUBLIC "-//W3C//DTD SVG 1.1//EN" "http://www.w3.org/Graphics/SVG/1.1/DTD/svg11.dtd">
<!-- Creator: CorelDRAW -->
<svg xmlns="http://www.w3.org/2000/svg" xml:space="preserve" width="640px" height="640px" version="1.1" style="shape-rendering:geometricPrecision; text-rendering:geometricPrecision; image-rendering:optimizeQuality; fill-rule:evenodd; clip-rule:evenodd"
viewBox="0 0 46.24 46.24"
 xmlns:xlink="http://www.w3.org/1999/xlink"
 xmlns:xodm="http://www.corel.com/coreldraw/odm/2003">
 <defs>
  <style type="text/css">
   <![CDATA[
    .fil0 {fill:none}
    .fil1 {fill:#002155;fill-rule:nonzero}
    .fil2 {fill:#FFC221;fill-rule:nonzero}
   ]]>
  </style>
 </defs>
 <g id="Layer_x0020_1">
  <metadata id="CorelCorpID_0Corel-Layer"/>
  <rect class="fil0" width="46.24" height="46.24"/>
  <g id="_2173780595360">
   <path class="fil1" d="M38.82 37.47l-31.4 0c-0.29,0 -0.52,-0.23 -0.52,-0.52l0 -27.66c0,-0.29 0.23,-0.52 0.52,-0.52l31.4 0c0.29,0 0.52,0.23 0.52,0.52l0 27.66c0,0.29 -0.23,0.52 -0.52,0.52l0 0zm-30.87 -1.04l30.35 0 0 -26.61 -30.35 0 0 26.61z"/>
   <path class="fil1" d="M38.82 13.55l-31.4 0c-0.29,0 -0.52,-0.24 -0.52,-0.53 0,-0.28 0.23,-0.52 0.52,-0.52l31.4 0c0.29,0 0.52,0.24 0.52,0.52 0,0.29 -0.23,0.53 -0.52,0.53l0 0z"/>
   <path class="fil1" d="M10.94 11.73l-0.85 0c-0.29,0 -0.52,-0.24 -0.52,-0.52 0,-0.29 0.23,-0.53 0.52,-0.53l0.85 0c0.29,0 0.52,0.24 0.52,0.53 0,0.28 -0.23,0.52 -0.52,0.52l0 0z"/>
   <path class="fil1" d="M13.63 11.73l-0.84 0c-0.29,0 -0.52,-0.24 -0.52,-0.52 0,-0.29 0.23,-0.53 0.52,-0.53l0.84 0c0.29,0 0.53,0.24 0.53,0.53 0,0.28 -0.24,0.52 -0.53,0.52l0 0z"/>
   <path class="fil1" d="M16.33 11.73l-0.85 0c-0.28,0 -0.52,-0.24 -0.52,-0.52 0,-0.29 0.24,-0.53 0.52,-0.53l0.85 0c0.29,0 0.52,0.24 0.52,0.53 0,0.28 -0.23,0.52 -0.52,0.52l0 0z"/>
   <path class="fil2" d="M25.97 32c-0.21,0 -0.4,-0.12 -0.49,-0.32 -0.11,-0.27 0.02,-0.58 0.28,-0.69 0.51,-0.21 0.98,-0.48 1.41,-0.8 0.24,-0.18 0.56,-0.13 0.74,0.1 0.17,0.23 0.12,0.56 -0.11,0.73 -0.5,0.38 -1.05,0.7 -1.63,0.94 -0.07,0.03 -0.14,0.04 -0.2,0.04l0 0z"/>
   <path class="fil2" d="M23.18 29.96c-1.36,0 -2.64,-0.53 -3.6,-1.49 -0.96,-0.96 -1.49,-2.23 -1.49,-3.59 0,-1.36 0.53,-2.63 1.49,-3.59 0.96,-0.96 2.24,-1.49 3.6,-1.49 1.35,0 2.63,0.53 3.59,1.49 0.96,0.96 1.49,2.23 1.49,3.59 0,0.99 -0.28,1.94 -0.82,2.76 -0.16,0.25 -0.48,0.32 -0.72,0.16 -0.24,-0.16 -0.31,-0.48 -0.16,-0.73 0.43,-0.65 0.65,-1.41 0.65,-2.19 0,-2.22 -1.81,-4.03 -4.03,-4.03 -2.23,0 -4.04,1.81 -4.04,4.03 0,2.23 1.81,4.04 4.04,4.04 0.76,0 1.51,-0.22 2.15,-0.63 0.25,-0.15 0.57,-0.08 0.73,0.16 0.15,0.25 0.08,0.57 -0.16,0.72 -0.82,0.52 -1.76,0.79 -2.72,0.79l0 0z"/>
   <path class="fil2" d="M28.87 29.75c-0.11,0 -0.22,-0.03 -0.31,-0.11 -0.23,-0.17 -0.28,-0.5 -0.1,-0.73 0.35,-0.46 0.64,-0.97 0.86,-1.5 0.11,-0.27 0.41,-0.4 0.68,-0.29 0.27,0.11 0.4,0.41 0.29,0.68 -0.25,0.62 -0.59,1.21 -1,1.75 -0.1,0.13 -0.26,0.2 -0.42,0.2l0 0z"/>
   <path class="fil2" d="M30.29 33.52c-0.39,0 -0.77,-0.15 -1.06,-0.44l-4.9 -4.89c-0.52,0.17 -1.08,0.21 -1.62,0.12 -0.69,-0.12 -1.32,-0.44 -1.81,-0.93 -0.52,-0.52 -0.84,-1.17 -0.95,-1.89 -0.1,-0.7 0.02,-1.4 0.35,-2.03 0.07,-0.15 0.22,-0.25 0.38,-0.27 0.17,-0.03 0.33,0.02 0.45,0.14l1.54 1.54 0.46 -0.46 -1.54 -1.54c-0.12,-0.11 -0.17,-0.28 -0.15,-0.44 0.03,-0.17 0.13,-0.31 0.28,-0.39 0.63,-0.33 1.33,-0.45 2.03,-0.34 0.72,0.1 1.37,0.43 1.89,0.94 0.49,0.5 0.82,1.12 0.93,1.81 0.1,0.54 0.05,1.1 -0.12,1.62l4.9 4.89c0.28,0.28 0.44,0.66 0.44,1.06 0,0.4 -0.16,0.77 -0.44,1.06 -0.3,0.29 -0.68,0.44 -1.06,0.44l0 0zm-5.84 -6.47c0.14,0 0.27,0.05 0.38,0.15l5.14 5.14c0.17,0.17 0.46,0.17 0.64,0 0.08,-0.09 0.13,-0.2 0.13,-0.32 0,-0.12 -0.05,-0.24 -0.13,-0.32l-5.14 -5.14c-0.16,-0.15 -0.2,-0.39 -0.11,-0.59 0.4,-0.87 0.22,-1.91 -0.46,-2.59 -0.53,-0.53 -1.26,-0.76 -1.97,-0.65l1.31 1.31c0.1,0.1 0.15,0.23 0.15,0.37 0,0.14 -0.05,0.27 -0.15,0.37l-1.2 1.2c-0.21,0.2 -0.54,0.2 -0.74,0l-1.31 -1.31c-0.11,0.71 0.12,1.44 0.65,1.97 0.68,0.68 1.72,0.86 2.6,0.46 0.07,-0.03 0.14,-0.05 0.21,-0.05l0 0z"/>
   <path class="fil2" d="M24.27 34.71l-2.52 0c-0.26,0 -0.49,-0.2 -0.52,-0.47l-0.22 -2.02c-0.6,-0.18 -1.16,-0.44 -1.7,-0.76l-1.56 1.25c-0.21,0.17 -0.51,0.15 -0.7,-0.04l-1.78 -1.78c-0.19,-0.18 -0.2,-0.48 -0.04,-0.69l1.31 -1.63c-0.29,-0.54 -0.52,-1.1 -0.67,-1.69l-2.02 -0.22c-0.26,-0.03 -0.46,-0.26 -0.46,-0.52l0 -2.52c0,-0.27 0.2,-0.49 0.46,-0.52l2.05 -0.23c0.17,-0.59 0.41,-1.17 0.72,-1.71l-1.23 -1.54c-0.17,-0.2 -0.15,-0.5 0.04,-0.69l1.78 -1.78c0.19,-0.19 0.49,-0.21 0.69,-0.04l1.55 1.23c0.56,-0.33 1.16,-0.57 1.79,-0.74l0.21 -1.87c0.03,-0.26 0.25,-0.46 0.52,-0.46l2.52 0c0.27,0 0.49,0.2 0.52,0.46l0.21 1.87c0.66,0.17 1.28,0.44 1.87,0.78l1.4 -1.12c0.21,-0.16 0.51,-0.15 0.7,0.04l1.78 1.78c0.19,0.19 0.21,0.49 0.04,0.7l-1.14 1.43c0.34,0.6 0.59,1.24 0.76,1.91l1.76 0.2c0.26,0.03 0.46,0.25 0.46,0.52l0 2.51c0,0.27 -0.2,0.49 -0.46,0.52l-1.85 0.21c-0.15,0.5 -0.34,0.98 -0.59,1.44 -0.13,0.25 -0.45,0.35 -0.71,0.21 -0.25,-0.14 -0.35,-0.45 -0.21,-0.71 0.26,-0.49 0.46,-1.01 0.59,-1.54 0.05,-0.22 0.23,-0.38 0.45,-0.4l1.74 -0.19 0 -1.58 -1.67 -0.19c-0.23,-0.03 -0.42,-0.2 -0.46,-0.42 -0.15,-0.8 -0.45,-1.56 -0.89,-2.26 -0.12,-0.19 -0.11,-0.43 0.03,-0.6l1.08 -1.35 -1.12 -1.12 -1.33 1.06c-0.17,0.14 -0.42,0.15 -0.61,0.03 -0.68,-0.45 -1.42,-0.76 -2.21,-0.93 -0.22,-0.05 -0.39,-0.23 -0.41,-0.45l-0.2 -1.77 -1.58 0 -0.2 1.77c-0.02,0.22 -0.19,0.4 -0.41,0.45 -0.76,0.17 -1.48,0.46 -2.14,0.89 -0.19,0.12 -0.44,0.1 -0.61,-0.04l-1.46 -1.16 -1.12 1.12 1.16 1.46c0.14,0.17 0.16,0.42 0.04,0.6 -0.41,0.64 -0.7,1.33 -0.87,2.07 -0.05,0.22 -0.23,0.38 -0.45,0.4l-1.94 0.22 0 1.58 1.91 0.21c0.22,0.03 0.41,0.19 0.45,0.41 0.16,0.73 0.43,1.42 0.82,2.05 0.11,0.19 0.09,0.43 -0.04,0.6l-1.24 1.55 1.12 1.11 1.49 -1.19c0.18,-0.14 0.43,-0.15 0.62,-0.02 0.63,0.42 1.32,0.72 2.04,0.91 0.22,0.05 0.37,0.23 0.4,0.45l0.21 1.91 1.58 0 0.21 -1.81c0.02,-0.23 0.2,-0.42 0.42,-0.46 0.62,-0.12 1.23,-0.32 1.79,-0.61 0.26,-0.13 0.57,-0.03 0.7,0.23 0.13,0.26 0.03,0.57 -0.22,0.7 -0.54,0.28 -1.11,0.49 -1.69,0.63l-0.22 1.9c-0.03,0.27 -0.25,0.47 -0.52,0.47l0 0z"/>
  </g>
 </g>
</svg>
