<?xml version="1.0" encoding="UTF-8"?>
<!DOCTYPE svg PUBLIC "-//W3C//DTD SVG 1.1//EN" "http://www.w3.org/Graphics/SVG/1.1/DTD/svg11.dtd">
<!-- Creator: CorelDRAW 2019 (64-Bit) -->
<svg xmlns="http://www.w3.org/2000/svg" xml:space="preserve" width="640px" height="640px" version="1.1" style="shape-rendering:geometricPrecision; text-rendering:geometricPrecision; image-rendering:optimizeQuality; fill-rule:evenodd; clip-rule:evenodd"
viewBox="0 0 32.77 32.77"
 xmlns:xlink="http://www.w3.org/1999/xlink">
 <defs>
  <style type="text/css">
   <![CDATA[
    .fil0 {fill:none}
    .fil1 {fill:#0A2155;fill-rule:nonzero}
    .fil2 {fill:#FFC221;fill-rule:nonzero}
   ]]>
  </style>
 </defs>
 <g id="Layer_x0020_1">
  <metadata id="CorelCorpID_0Corel-Layer"/>
  <rect class="fil0" width="32.77" height="32.77"/>
 </g>
 <g id="Capa_x0020_1">
  <metadata id="CorelCorpID_1Corel-Layer"/>
  <g id="_1719372083520">
   <path class="fil1" d="M27.43 20.01l-22.09 0c-0.19,0 -0.33,-0.15 -0.33,-0.34l0 -13.08c0,-0.44 0.17,-0.84 0.46,-1.13 0.29,-0.29 0.69,-0.47 1.13,-0.47l19.57 0c0.44,0 0.84,0.18 1.13,0.47 0.28,0.29 0.46,0.69 0.46,1.13l0 13.08c0,0.19 -0.15,0.34 -0.33,0.34zm-21.76 -0.67l21.42 0 0 -12.75c0,-0.26 -0.1,-0.49 -0.27,-0.66 -0.16,-0.16 -0.4,-0.27 -0.65,-0.27l-19.57 0c-0.26,0 -0.49,0.11 -0.66,0.27 -0.16,0.17 -0.27,0.4 -0.27,0.66l0 12.75z"/>
   <path class="fil1" d="M26.17 23.47l-19.57 0c-0.44,0 -0.84,-0.17 -1.13,-0.46 -0.29,-0.29 -0.46,-0.69 -0.46,-1.13l0 -2.21c0,-0.18 0.14,-0.33 0.33,-0.33l22.09 0c0.18,0 0.33,0.15 0.33,0.33l0 2.21c0,0.44 -0.18,0.84 -0.46,1.13 -0.29,0.28 -0.69,0.46 -1.13,0.46l0 0zm-19.57 -0.66l19.57 0 0 0c0.25,0 0.49,-0.11 0.65,-0.27 0.17,-0.17 0.27,-0.4 0.27,-0.66l0 -1.87 -21.42 0 0 1.87c0,0.26 0.11,0.49 0.27,0.66 0.17,0.16 0.4,0.27 0.66,0.27z"/>
   <path class="fil1" d="M18.44 25.95c0,-0.18 0.15,-0.33 0.34,-0.33 0.18,0 0.33,0.15 0.33,0.33l0 1.49c0,0.18 -0.15,0.33 -0.33,0.33l-4.79 0c-0.18,0 -0.33,-0.15 -0.33,-0.33l0 -4.3c0,-0.18 0.15,-0.33 0.33,-0.33l4.79 0c0.18,0 0.33,0.15 0.33,0.33l0 1.25c0,0.18 -0.15,0.33 -0.33,0.33 -0.19,0 -0.34,-0.15 -0.34,-0.33l0 -0.92 -4.11 0 0 3.64 4.11 0 0 -1.16z"/>
   <path class="fil1" d="M12.37 27.77c-0.18,0 -0.33,-0.15 -0.33,-0.34 0,-0.18 0.15,-0.33 0.33,-0.33l8.03 0c0.18,0 0.33,0.15 0.33,0.33 0,0.19 -0.15,0.34 -0.33,0.34l-8.03 0z"/>
   <path class="fil1" d="M15.72 21.74c-0.19,0 -0.34,-0.15 -0.34,-0.33 0,-0.19 0.15,-0.34 0.34,-0.34l1.33 0c0.18,0 0.33,0.15 0.33,0.34 0,0.18 -0.15,0.33 -0.33,0.33l-1.33 0z"/>
   <path class="fil2" d="M16.03 14.96c0.09,-0.16 0.3,-0.2 0.46,-0.11 0.15,0.1 0.2,0.31 0.1,0.46 -0.48,0.77 -1.15,1.41 -1.94,1.85 -0.77,0.43 -1.65,0.67 -2.59,0.67 -1.47,0 -2.8,-0.59 -3.77,-1.56 -0.97,-0.96 -1.56,-2.3 -1.56,-3.77 0,-0.59 0.09,-1.16 0.27,-1.69 0.19,-0.55 0.46,-1.06 0.8,-1.51 0.11,-0.15 0.32,-0.18 0.46,-0.07 0.15,0.11 0.18,0.32 0.07,0.47 -0.3,0.39 -0.54,0.84 -0.7,1.32 -0.15,0.47 -0.23,0.96 -0.23,1.48 0,1.29 0.52,2.46 1.36,3.3 0.85,0.84 2.01,1.37 3.3,1.37 0.82,0 1.6,-0.22 2.27,-0.59 0.69,-0.38 1.28,-0.94 1.7,-1.62z"/>
   <path class="fil2" d="M9.36 8.69c-0.15,0.11 -0.36,0.08 -0.46,-0.07 -0.11,-0.15 -0.07,-0.36 0.08,-0.47 0.44,-0.31 0.93,-0.56 1.46,-0.73 0.52,-0.16 1.06,-0.25 1.62,-0.25 0.95,0 1.84,0.25 2.62,0.69 0.8,0.45 1.48,1.1 1.95,1.89 0.09,0.16 0.04,0.36 -0.11,0.46 -0.16,0.09 -0.37,0.04 -0.46,-0.12 -0.42,-0.69 -1.01,-1.26 -1.71,-1.65 -0.67,-0.39 -1.45,-0.6 -2.29,-0.6 -0.5,0 -0.97,0.07 -1.42,0.21 -0.46,0.15 -0.89,0.37 -1.28,0.64z"/>
   <path class="fil2" d="M13.56 11.01c0,-0.18 0.14,-0.33 0.33,-0.33 0.18,0 0.33,0.15 0.33,0.33l0 2.98c0,0.19 -0.15,0.33 -0.33,0.33 -0.19,0 -0.33,-0.14 -0.33,-0.33l0 -2.98z"/>
   <path class="fil2" d="M9.9 11.01c0,-0.18 0.15,-0.33 0.33,-0.33 0.19,0 0.34,0.15 0.34,0.33l0 2.05c0,0.11 0.02,0.2 0.07,0.27 0.05,0.08 0.13,0.16 0.24,0.22 0.05,0.03 0.1,0.06 0.17,0.08 0.06,0.02 0.13,0.03 0.2,0.03 0.07,0 0.13,-0.01 0.19,-0.02 0.05,-0.02 0.1,-0.04 0.15,-0.06 0.13,-0.06 0.23,-0.14 0.3,-0.24 0.05,-0.07 0.08,-0.17 0.08,-0.28l0 -2.05c0,-0.18 0.15,-0.33 0.33,-0.33 0.19,0 0.34,0.15 0.34,0.33l0 2.05c0,0.25 -0.07,0.47 -0.2,0.66 -0.13,0.19 -0.32,0.34 -0.55,0.46 -0.09,0.04 -0.18,0.08 -0.29,0.1 -0.11,0.03 -0.23,0.04 -0.35,0.04 -0.14,0 -0.27,-0.02 -0.38,-0.05 -0.13,-0.03 -0.25,-0.09 -0.35,-0.16 -0.19,-0.12 -0.34,-0.25 -0.45,-0.42 -0.11,-0.18 -0.17,-0.39 -0.17,-0.63l0 -2.05z"/>
   <path class="fil2" d="M20.71 7.17c1.47,0 2.8,0.6 3.77,1.56 0.96,0.97 1.56,2.3 1.56,3.77 0,1.47 -0.6,2.81 -1.56,3.77 -0.97,0.97 -2.3,1.56 -3.77,1.56 -1.48,0 -2.81,-0.59 -3.77,-1.56 -0.97,-0.96 -1.57,-2.3 -1.57,-3.77 0,-1.47 0.6,-2.8 1.57,-3.77 0.96,-0.96 2.29,-1.56 3.77,-1.56zm3.3 2.03c-0.85,-0.84 -2.02,-1.36 -3.3,-1.36 -1.29,0 -2.46,0.52 -3.3,1.36 -0.85,0.85 -1.37,2.01 -1.37,3.3 0,1.29 0.52,2.46 1.37,3.3 0.84,0.84 2.01,1.37 3.3,1.37 1.28,0 2.45,-0.53 3.3,-1.37 0.84,-0.84 1.36,-2.01 1.36,-3.3 0,-1.29 -0.52,-2.45 -1.36,-3.3z"/>
   <path class="fil2" d="M21.13 11.2c-0.1,-0.15 -0.07,-0.36 0.08,-0.46 0.15,-0.11 0.36,-0.07 0.47,0.08l2.09 2.98c0.11,0.15 0.07,0.36 -0.08,0.46 -0.15,0.11 -0.35,0.07 -0.46,-0.08l-2.1 -2.98z"/>
   <path class="fil2" d="M23.08 10.82c0.11,-0.15 0.32,-0.19 0.47,-0.08 0.15,0.1 0.18,0.31 0.08,0.46l-2.1 2.98c-0.11,0.15 -0.32,0.19 -0.47,0.08 -0.15,-0.1 -0.18,-0.31 -0.08,-0.46l2.1 -2.98z"/>
   <path class="fil2" d="M17.58 11.01c0,-0.18 0.15,-0.33 0.33,-0.33 0.19,0 0.33,0.15 0.33,0.33l0 2.05c0,0.11 0.03,0.2 0.08,0.27 0.05,0.08 0.13,0.16 0.24,0.22 0.05,0.03 0.1,0.06 0.17,0.08 0.06,0.02 0.13,0.03 0.2,0.03 0.07,0 0.13,-0.01 0.19,-0.02 0.05,-0.02 0.1,-0.04 0.15,-0.06 0.13,-0.06 0.23,-0.14 0.3,-0.24 0.05,-0.07 0.08,-0.17 0.08,-0.28l0 -2.05c0,-0.18 0.15,-0.33 0.33,-0.33 0.19,0 0.34,0.15 0.34,0.33l0 2.05c0,0.25 -0.08,0.47 -0.2,0.66 -0.14,0.19 -0.32,0.34 -0.55,0.46 -0.09,0.04 -0.19,0.08 -0.3,0.1 -0.1,0.03 -0.22,0.04 -0.34,0.04 -0.14,0 -0.27,-0.02 -0.38,-0.05 -0.13,-0.03 -0.25,-0.09 -0.35,-0.16 -0.19,-0.12 -0.34,-0.25 -0.45,-0.42 -0.11,-0.18 -0.17,-0.39 -0.17,-0.63l0 -2.05z"/>
  </g>
 </g>
</svg>
