<?xml version="1.0" encoding="UTF-8"?>
<!DOCTYPE svg PUBLIC "-//W3C//DTD SVG 1.1//EN" "http://www.w3.org/Graphics/SVG/1.1/DTD/svg11.dtd">
<!-- Creator: CorelDRAW -->
<svg xmlns="http://www.w3.org/2000/svg" xml:space="preserve" width="640px" height="640px" version="1.1" style="shape-rendering:geometricPrecision; text-rendering:geometricPrecision; image-rendering:optimizeQuality; fill-rule:evenodd; clip-rule:evenodd"
viewBox="0 0 40.11 40.11"
 xmlns:xlink="http://www.w3.org/1999/xlink"
 xmlns:xodm="http://www.corel.com/coreldraw/odm/2003">
 <defs>
  <style type="text/css">
   <![CDATA[
    .fil0 {fill:none}
    .fil2 {fill:#002155;fill-rule:nonzero}
    .fil1 {fill:#FFC221;fill-rule:nonzero}
   ]]>
  </style>
 </defs>
 <g id="Layer_x0020_1">
  <metadata id="CorelCorpID_0Corel-Layer"/>
  <rect class="fil0" width="40.11" height="40.11"/>
 </g>
 <g id="Capa_x0020_1">
  <metadata id="CorelCorpID_1Corel-Layer"/>
  <g id="_2173587001936">
   <path class="fil1" d="M20.75 19.99c-2.32,0 -4.23,1.91 -4.23,4.23 0,2.33 1.91,4.23 4.23,4.23 2.33,0 4.23,-1.9 4.23,-4.23 0,-2.32 -1.9,-4.23 -4.23,-4.23zm0 7.86c-1.99,0 -3.62,-1.63 -3.62,-3.63 0,-1.99 1.63,-3.62 3.62,-3.62 2,0 3.63,1.63 3.63,3.62 0,2 -1.63,3.63 -3.63,3.63z"/>
   <path class="fil1" d="M18.07 23.95c0.15,0.03 0.3,-0.09 0.33,-0.24 0.18,-0.91 0.9,-1.6 1.78,-1.84 0.15,-0.03 0.24,-0.18 0.21,-0.34 -0.03,-0.18 -0.21,-0.3 -0.36,-0.24 -1.12,0.27 -1.96,1.15 -2.24,2.27 -0.03,0.18 0.09,0.36 0.28,0.39l0 0z"/>
   <path class="fil1" d="M25.47 28.48l-1.72 -1.72 -0.43 0.42 1.73 1.73c-0.25,0.24 -0.25,0.6 0,0.84l3.41 3.42c0.24,0.24 0.6,0.24 0.85,0l0.42 -0.43c0.24,-0.24 0.24,-0.6 0,-0.84l-3.42 -3.42c-0.24,-0.21 -0.63,-0.21 -0.84,0z"/>
   <path class="fil2" d="M20.36 9.57l-4.28 0c-0.79,0 -1.44,-0.65 -1.44,-1.44l0 -0.88c0,-0.27 0.22,-0.49 0.48,-0.49 0.27,0 0.49,0.22 0.49,0.49l0 0.88c0,0.26 0.21,0.47 0.47,0.47l4.28 0c0.27,0 0.48,-0.21 0.48,-0.47l0 -0.88c0,-0.27 0.21,-0.49 0.48,-0.49 0.27,0 0.48,0.22 0.48,0.49l0 0.88c0,0.79 -0.64,1.44 -1.44,1.44l0 0z"/>
   <path class="fil2" d="M23.99 31.84l-12.08 0c-0.94,-0.01 -1.71,-0.77 -1.71,-1.71l0 -21.66c0,-0.94 0.77,-1.7 1.71,-1.71l12.63 0c0.94,0.01 1.7,0.77 1.7,1.71l0 12.93 -0.96 0 0 -12.93c0,-0.41 -0.33,-0.74 -0.74,-0.74l-12.63 0c-0.41,0 -0.74,0.33 -0.74,0.74l0 21.66c0,0.41 0.33,0.74 0.74,0.74l12.08 0 0 0.97z"/>
   <path class="fil2" d="M16 22.83l-2.9 0c-0.27,0 -0.48,-0.22 -0.48,-0.48l0 -2.03c0,-0.26 0.21,-0.48 0.48,-0.48l4.01 0 0 0.97 -3.53 0 0 1.05 2.42 0 0 0.97z"/>
   <path class="fil2" d="M15.51 17.49c-1.08,-0.01 -1.96,-0.88 -1.96,-1.96l0 -2.76c0,-0.27 0.22,-0.49 0.48,-0.49 0.27,0 0.49,0.22 0.49,0.49l0 2.76c0,0.55 0.44,0.99 0.99,0.99 0.55,0 1,-0.44 1,-0.99l0 -2.76c0,-0.27 0.21,-0.49 0.48,-0.49 0.27,0 0.48,0.22 0.48,0.49l0 2.76c0,1.08 -0.88,1.96 -1.96,1.96l0 0z"/>
   <path class="fil2" d="M19.46 17.49c-0.27,0 -0.48,-0.22 -0.48,-0.49 0,-0.09 0.03,-0.19 0.08,-0.27l2.96 -4.24c0.09,-0.13 0.24,-0.2 0.39,-0.2 0.27,0 0.49,0.21 0.49,0.48 0,0.1 -0.03,0.19 -0.09,0.27l-2.96 4.24c-0.09,0.13 -0.23,0.21 -0.39,0.21 0,0 0,0 0,0l0 0z"/>
   <path class="fil2" d="M22.41 17.49c0,0 0,0 0,0 -0.15,0 -0.3,-0.08 -0.39,-0.21l-2.96 -4.24c-0.05,-0.08 -0.08,-0.17 -0.08,-0.27 0,-0.26 0.22,-0.48 0.48,-0.48 0.16,0 0.3,0.08 0.39,0.2l2.96 4.24c0.06,0.08 0.09,0.18 0.09,0.27 0,0.27 -0.22,0.49 -0.49,0.49l0 0z"/>
   <path class="fil2" d="M17.11 28.16l-4.01 0c-0.27,0 -0.48,-0.22 -0.48,-0.49l0 -2.02c0,-0.26 0.21,-0.48 0.48,-0.48l2.9 0 0 0.96 -2.42 0 0 1.06 3.53 0 0 0.97z"/>
  </g>
 </g>
</svg>
