<?xml version="1.0" encoding="UTF-8"?>
<!DOCTYPE svg PUBLIC "-//W3C//DTD SVG 1.1//EN" "http://www.w3.org/Graphics/SVG/1.1/DTD/svg11.dtd">
<!-- Creator: CorelDRAW -->
<svg xmlns="http://www.w3.org/2000/svg" xml:space="preserve" width="640px" height="640px" version="1.1" style="shape-rendering:geometricPrecision; text-rendering:geometricPrecision; image-rendering:optimizeQuality; fill-rule:evenodd; clip-rule:evenodd"
viewBox="0 0 48.87 48.87"
 xmlns:xlink="http://www.w3.org/1999/xlink"
 xmlns:xodm="http://www.corel.com/coreldraw/odm/2003">
 <defs>
  <style type="text/css">
   <![CDATA[
    .fil0 {fill:none}
    .fil1 {fill:#002155;fill-rule:nonzero}
    .fil2 {fill:#FFC221;fill-rule:nonzero}
   ]]>
  </style>
 </defs>
 <g id="Layer_x0020_1">
  <metadata id="CorelCorpID_0Corel-Layer"/>
  <rect class="fil0" width="48.87" height="48.87"/>
 </g>
 <g id="Capa_x0020_1">
  <metadata id="CorelCorpID_1Corel-Layer"/>
  <g id="_2174001980080">
   <path class="fil1" d="M18.05 14.75c0,-1.34 -1.09,-2.43 -2.43,-2.43 -1.34,0 -2.43,1.09 -2.43,2.43 0,1.34 1.09,2.43 2.43,2.43 1.34,0 2.43,-1.09 2.43,-2.43zm-3.86 0c0,-0.79 0.64,-1.42 1.43,-1.42 0.78,0 1.42,0.63 1.42,1.42 0,0.79 -0.64,1.43 -1.42,1.43 -0.79,0 -1.43,-0.64 -1.43,-1.43zm0 0z"/>
   <path class="fil1" d="M27.23 17.18c1.34,0 2.43,-1.09 2.43,-2.43 0,-1.34 -1.09,-2.43 -2.43,-2.43 -1.34,0 -2.43,1.09 -2.43,2.43 0,1.34 1.09,2.43 2.43,2.43zm0 -3.85c0.79,0 1.43,0.63 1.43,1.42 0,0.79 -0.64,1.43 -1.43,1.43 -0.78,0 -1.42,-0.64 -1.42,-1.43 0,-0.79 0.64,-1.42 1.42,-1.42zm0 0z"/>
   <path class="fil1" d="M32.78 30.69c-0.28,0 -0.51,0.23 -0.51,0.5l0 5.44c0,0.14 -0.11,0.26 -0.26,0.26l-21.17 0c-0.15,0 -0.27,-0.12 -0.27,-0.26l0 -5.44c0,-0.27 -0.22,-0.5 -0.5,-0.5 -0.28,0 -0.5,0.23 -0.5,0.5l0 5.44c0,0.7 0.57,1.27 1.27,1.27l21.17 0c0.7,0 1.27,-0.57 1.27,-1.27l0 -5.44c0,-0.27 -0.23,-0.5 -0.5,-0.5l0 0zm0 0z"/>
   <path class="fil1" d="M32.01 22.45l-21.17 0c-0.7,0 -1.27,0.57 -1.27,1.27l0 5.44c0,0.28 0.22,0.5 0.5,0.5 0.28,0 0.5,-0.22 0.5,-0.5l0 -5.44c0,-0.14 0.12,-0.26 0.27,-0.26l21.17 0c0.15,0 0.26,0.12 0.26,0.26l0 5.44c0,0.28 0.23,0.5 0.51,0.5 0.27,0 0.5,-0.22 0.5,-0.5l0 -5.44c0,-0.7 -0.57,-1.27 -1.27,-1.27l0 0zm0 0z"/>
   <path class="fil2" d="M27.34 30.22c0,-3.26 -2.65,-5.92 -5.92,-5.92 -3.26,0 -5.92,2.66 -5.92,5.92 0,3.27 2.66,5.92 5.92,5.92 3.27,0 5.92,-2.65 5.92,-5.92zm-10.83 0c0,-2.71 2.2,-4.91 4.91,-4.91 2.71,0 4.92,2.2 4.92,4.91 0,2.72 -2.21,4.92 -4.92,4.92 -2.71,0 -4.91,-2.2 -4.91,-4.92zm0 0z"/>
   <path class="fil2" d="M24.58 30.22c0,-0.26 -0.13,-0.51 -0.35,-0.65l-3.64 -2.43c-0.25,-0.16 -0.56,-0.17 -0.81,-0.04 -0.26,0.14 -0.42,0.41 -0.42,0.7l0 4.85c0,0.29 0.16,0.56 0.42,0.69 0.11,0.07 0.24,0.1 0.37,0.1 0.15,0 0.3,-0.05 0.44,-0.14l3.64 -2.42c0.22,-0.14 0.35,-0.39 0.35,-0.66l0 0zm-4.22 2.03l0 -4.05 3.05 2.02 -3.05 2.03zm0 0z"/>
   <path class="fil1" d="M40.8 21.54c-0.47,-0.23 -1.03,-0.18 -1.46,0.14l-3.78 2.86 0 -2.97c0,-0.91 -0.74,-1.65 -1.65,-1.65l-3.06 0c0.47,-0.33 0.91,-0.73 1.28,-1.19 0.91,-1.12 1.41,-2.53 1.41,-3.98 0,-3.48 -2.83,-6.31 -6.31,-6.31 -2.6,0 -4.84,1.59 -5.81,3.84 -0.96,-2.25 -3.2,-3.84 -5.8,-3.84 -3.48,0 -6.31,2.83 -6.31,6.31 0,1.45 0.5,2.86 1.41,3.98 0.37,0.46 0.81,0.86 1.28,1.19l-3.06 0c-0.91,0 -1.65,0.74 -1.65,1.65l0 17.21c0,0.91 0.74,1.65 1.65,1.65l24.97 0c0.91,0 1.65,-0.74 1.65,-1.65l0 -2.96 3.78 2.85c0.25,0.19 0.54,0.29 0.84,0.29 0.21,0 0.43,-0.05 0.62,-0.15 0.48,-0.24 0.78,-0.72 0.78,-1.25l0 -14.77c0,-0.53 -0.3,-1.01 -0.78,-1.25l0 0zm-13.57 -12.09c2.93,0 5.31,2.38 5.31,5.3 0,1.22 -0.43,2.41 -1.19,3.35 -0.75,0.91 -1.78,1.56 -2.93,1.82l-2.38 0c-1.14,-0.26 -2.18,-0.91 -2.92,-1.82 -0.77,-0.94 -1.19,-2.13 -1.19,-3.35 0,-2.92 2.38,-5.3 5.3,-5.3l0 0zm-5.81 7.77c0.23,0.54 0.54,1.05 0.92,1.51 0.37,0.46 0.8,0.86 1.28,1.19l-4.39 0c0.48,-0.33 0.91,-0.73 1.28,-1.19 0.38,-0.46 0.68,-0.97 0.91,-1.51l0 0zm-9.92 0.88c-0.77,-0.94 -1.19,-2.13 -1.19,-3.35 0,-2.92 2.38,-5.3 5.31,-5.3 2.92,0 5.3,2.38 5.3,5.3 0,1.22 -0.42,2.41 -1.19,3.35 -0.74,0.91 -1.78,1.56 -2.92,1.82l-2.38 0c-1.15,-0.26 -2.18,-0.91 -2.93,-1.82l0 0zm23.05 20.68c0,0.36 -0.29,0.65 -0.64,0.65l-24.97 0c-0.35,0 -0.64,-0.29 -0.64,-0.65l0 -17.21c0,-0.36 0.29,-0.65 0.64,-0.65l24.97 0c0.35,0 0.64,0.29 0.64,0.65l0 17.21 0 0zm6.02 -1.22c0,0.22 -0.15,0.32 -0.21,0.35 -0.07,0.03 -0.24,0.09 -0.41,-0.04l-4.39 -3.31 0 -8.77 4.39 -3.31c0.17,-0.13 0.34,-0.07 0.41,-0.04 0.06,0.04 0.21,0.13 0.21,0.35l0 14.77zm0 0z"/>
  </g>
 </g>
</svg>
