<?xml version="1.0" encoding="UTF-8"?>
<!DOCTYPE svg PUBLIC "-//W3C//DTD SVG 1.1//EN" "http://www.w3.org/Graphics/SVG/1.1/DTD/svg11.dtd">
<!-- Creator: CorelDRAW 2019 (64-Bit) -->
<svg xmlns="http://www.w3.org/2000/svg" xml:space="preserve" width="640px" height="640px" version="1.1" style="shape-rendering:geometricPrecision; text-rendering:geometricPrecision; image-rendering:optimizeQuality; fill-rule:evenodd; clip-rule:evenodd"
viewBox="0 0 62.18 62.18"
 xmlns:xlink="http://www.w3.org/1999/xlink">
 <defs>
  <style type="text/css">
   <![CDATA[
    .fil0 {fill:none}
    .fil3 {fill:#34495E}
    .fil2 {fill:#41B883}
    .fil1 {fill:#0A2155;fill-rule:nonzero}
   ]]>
  </style>
 </defs>
 <g id="Layer_x0020_1">
  <metadata id="CorelCorpID_0Corel-Layer"/>
  <rect class="fil0" width="62.18" height="62.18"/>
 </g>
 <g id="Capa_x0020_1">
  <metadata id="CorelCorpID_1Corel-Layer"/>
  <path class="fil1" d="M52.05 37.97l-41.92 0c-0.35,0 -0.63,-0.29 -0.63,-0.64l0 -24.83c0,-0.84 0.34,-1.59 0.88,-2.14 0.55,-0.54 1.31,-0.88 2.14,-0.88l37.14 0c0.83,0 1.59,0.34 2.13,0.88 0.55,0.55 0.89,1.3 0.89,2.14l0 24.83c0,0.35 -0.28,0.64 -0.63,0.64zm-41.29 -1.27l40.65 0 0 -24.2c0,-0.49 -0.19,-0.92 -0.51,-1.24 -0.32,-0.32 -0.76,-0.52 -1.24,-0.52l-37.14 0c-0.48,0 -0.92,0.2 -1.24,0.52 -0.32,0.32 -0.52,0.75 -0.52,1.24l0 24.2z"/>
  <path class="fil1" d="M49.66 44.54l-37.14 0c-0.83,0 -1.59,-0.34 -2.14,-0.88 -0.54,-0.55 -0.88,-1.31 -0.88,-2.14l0 -4.19c0,-0.35 0.28,-0.63 0.63,-0.63l41.92 0c0.35,0 0.63,0.28 0.63,0.63l0 4.19c0,0.83 -0.34,1.59 -0.89,2.14 -0.54,0.54 -1.3,0.88 -2.13,0.88l0 0zm-37.14 -1.26l37.14 0 0 0c0.48,0 0.92,-0.2 1.24,-0.52 0.32,-0.32 0.51,-0.75 0.51,-1.24l0 -3.55 -40.65 0 0 3.55c0,0.48 0.2,0.92 0.52,1.24 0.32,0.32 0.76,0.52 1.24,0.52z"/>
  <path class="fil1" d="M34.99 49.25c0,-0.35 0.29,-0.64 0.64,-0.64 0.35,0 0.63,0.29 0.63,0.64l0 2.82c0,0.35 -0.28,0.63 -0.63,0.63l-9.08 0c-0.35,0 -0.63,-0.28 -0.63,-0.63l0 -8.16c0,-0.35 0.28,-0.63 0.63,-0.63l9.08 0c0.35,0 0.63,0.28 0.63,0.63l0 2.36c0,0.35 -0.28,0.64 -0.63,0.64 -0.35,0 -0.64,-0.29 -0.64,-0.64l0 -1.73 -7.81 0 0 6.89 7.81 0 0 -2.18z"/>
  <path class="fil1" d="M23.47 52.69c-0.35,0 -0.63,-0.29 -0.63,-0.64 0,-0.35 0.28,-0.63 0.63,-0.63l15.23 0c0.35,0 0.64,0.28 0.64,0.63 0,0.35 -0.29,0.64 -0.64,0.64l-15.23 0z"/>
  <path class="fil1" d="M29.82 41.25c-0.34,0 -0.63,-0.28 -0.63,-0.63 0,-0.35 0.29,-0.63 0.63,-0.63l2.53 0c0.35,0 0.64,0.28 0.64,0.63 0,0.35 -0.29,0.63 -0.64,0.63l-2.53 0z"/>
 </g>
 <g id="Capa_x0020_1_0">
  <metadata id="CorelCorpID_2Corel-Layer"/>
  <g id="Vue.js_Logo_2.svg">
   <g>
    <g>
     <polygon class="fil2" points="33.47,15.13 31.09,19.26 28.71,15.13 20.77,15.13 31.09,33 41.41,15.13 "/>
    </g>
    <g>
     <polygon class="fil3" points="33.47,15.13 31.09,19.26 28.71,15.13 24.9,15.13 31.09,25.85 37.28,15.13 "/>
    </g>
   </g>
  </g>
 </g>
</svg>
