<?xml version="1.0" encoding="UTF-8"?>
<!DOCTYPE svg PUBLIC "-//W3C//DTD SVG 1.1//EN" "http://www.w3.org/Graphics/SVG/1.1/DTD/svg11.dtd">
<!-- Creator: CorelDRAW 2019 (64-Bit) -->
<svg xmlns="http://www.w3.org/2000/svg" xml:space="preserve" width="640px" height="640px" version="1.1" style="shape-rendering:geometricPrecision; text-rendering:geometricPrecision; image-rendering:optimizeQuality; fill-rule:evenodd; clip-rule:evenodd"
viewBox="0 0 64.41 64.41"
 xmlns:xlink="http://www.w3.org/1999/xlink">
 <defs>
  <style type="text/css">
   <![CDATA[
    .fil0 {fill:none}
    .fil2 {fill:#0A2155}
    .fil1 {fill:#FFC221}
   ]]>
  </style>
 </defs>
 <g id="Layer_x0020_1">
  <metadata id="CorelCorpID_0Corel-Layer"/>
  <rect class="fil0" width="64.41" height="64.41"/>
 </g>
 <g id="Layer_x0020_1_0">
  <metadata id="CorelCorpID_1Corel-Layer"/>
  <g id="_2891133221088">
   <path class="fil1" d="M37.71 43.34c0.59,-0.08 0.3,-0.03 0.77,0.21 -0.26,-0.56 -0.4,-0.15 -0.79,-0.79 0.9,-0.46 1.09,0.06 1.86,-0.01 -0.44,-0.66 -0.93,-0.33 -2.58,-2.51 -0.66,-0.87 -1.27,-2.3 -1.45,-3.61 -1.12,-8.31 8.87,-12.2 13.73,-7.44 2.03,2 1.6,2.23 2.2,2.78 -0.08,-0.77 -0.2,-0.52 0.15,-1.07 0.02,-0.03 0.25,-0.36 0.26,-0.36 0.22,-0.25 0.06,-0.29 0.42,-0.19 -0.39,-1.05 -1.82,-2.38 -2.67,-2.99 -6.83,-4.9 -16.22,0.31 -15.79,8.65 0.18,3.35 2.08,6.08 3.89,7.33z"/>
   <path class="fil1" d="M51.45 31.97c0.05,0.63 0.53,1.62 0.63,2.62 0.47,4.48 -2.68,8.47 -7.13,9.12 -3.06,0.45 -4.6,-0.88 -5.4,-0.96 -0.77,0.07 -0.96,-0.45 -1.86,0.01 0.39,0.64 0.53,0.23 0.79,0.79 -0.47,-0.24 -0.18,-0.29 -0.77,-0.21 1.38,1.2 3.69,2.11 6.19,2.09 1.3,-0.01 2.38,-0.26 3.45,-0.66 0.5,-0.18 0.94,-0.4 1.42,-0.68 0.47,-0.27 0.86,-0.62 1.33,-0.79 0.43,0.45 0.98,0.98 1.39,1.41 0.42,0.44 1.05,1.12 1.53,1.42l0.88 -0.58c-0.31,-0.25 -0.23,-0.12 -0.33,-0.61l0.35 -0.02c-0.29,-0.58 -0.86,-0.98 -1.33,-1.44 -0.34,-0.34 -1.11,-1.01 -1.31,-1.42 1.92,-2.67 3.14,-5.21 2.17,-9.06 -0.16,-0.65 -0.76,-2.38 -1.17,-2.65 -0.36,-0.1 -0.2,-0.06 -0.42,0.19 -0.01,0 -0.24,0.33 -0.26,0.36 -0.35,0.55 -0.23,0.3 -0.15,1.07z"/>
   <path class="fil1" d="M42.8 30.96c0.14,0.81 1.6,0.65 2.27,0.93 2.57,1.04 2.37,2.92 2.65,3.65 0.31,0.84 1.58,0.73 1.56,-0.5 -0.07,-4.42 -6.91,-6.45 -6.48,-4.08z"/>
   <path class="fil2" d="M14.72 14.57c-0.67,-3.79 5.09,-4.55 5.61,-0.95 0.56,3.8 -4.98,4.53 -5.61,0.95zm35.71 6.8l0.88 0.56c0.07,1.22 0.01,2.65 0,3.86 0,0.61 -0.13,1.3 0.36,1.6 1.84,1.1 1.28,-3.09 1.28,-4.44 0,-0.57 0.12,-1.44 -0.1,-1.91 -0.15,-0.32 -0.83,-0.72 -1.18,-0.68 -0.45,-0.56 -3.61,-2.04 -4.5,-2.52 -0.73,-0.39 -4.12,-2.31 -4.6,-2.36 -0.18,-0.22 0.1,0.01 -0.29,-0.28 -0.07,-0.04 -0.27,-0.15 -0.33,-0.18l-1.93 -1c-1.11,-0.58 -1.4,-1.11 -2.73,-0.41 -1.78,0.94 -3.41,1.81 -5.15,2.76l-7.71 4.13c-1.11,0.58 -0.79,1.07 -0.79,3.28 -1.09,0.28 -3.92,-0.02 -5.29,0.11l0.01 -5.38c1.28,-0.58 1.75,-0.46 2.64,-1.57 2.37,-2.96 0.32,-7.35 -3.48,-7.33 -4.59,0.03 -6.02,5.97 -2.42,8.24 0.58,0.37 0.92,0.39 1.54,0.66 0.16,0.87 0.06,2.5 0.06,3.46l0 2.59c0.03,0.5 0,0.42 0.29,0.68 0.64,0.61 5.31,0.14 6.61,0.26 0.14,1.09 0.05,2.48 0.18,3.64 0.11,0.98 0.52,2.54 0.51,3.32 -1.7,-0.39 -5.92,0.09 -8,-0.09 -0.35,-0.58 -1.01,-3.86 -4.8,-3.61 -5.37,0.35 -5.48,8.43 -0.1,8.92 1.33,0.12 2.46,-0.37 3.24,-0.98 1.33,-1.03 1.26,-1.97 1.66,-2.64l8.54 0.01c0.41,0.94 0.75,1.94 1.22,2.91l1.46 2.74c-8.13,0.36 -7.93,-1.34 -7.94,2.71 0,1.13 -0.02,2.28 0,3.41 -1.49,0.72 -1.58,0.45 -2.66,1.65 -2.26,2.5 -0.56,7.29 3.44,7.31 5.06,0.02 6.58,-7.48 0.85,-8.9l0.03 -4.55 7.51 0.02c0.63,0.61 0.89,1.16 1.48,1.68 0.57,0.51 1,1.09 1.72,1.6 0.06,0.45 4.82,4.91 5.13,5.23 1.38,1.37 1.46,0.99 3.04,-0.64 0.79,-0.81 2.8,-2.32 1.36,-2.92 -1.09,-0.46 -2.2,1.98 -3.26,2.36 -0.74,-0.59 -5.08,-5.24 -5.62,-5.48 -0.29,-0.58 -0.87,-0.99 -1.33,-1.45 -0.84,-0.81 -2.72,-3.54 -3.32,-4.68 -1.39,-2.61 -1.95,-4.93 -2.47,-8.07 -0.13,-2.12 -0.42,-4.94 -0.26,-7.01l11.92 -6.42c1.24,-0.61 0.88,-0.8 2.15,-0.08 0.64,0.36 1.38,0.8 2.15,1.06 0.11,0.16 8.17,4.55 9,4.82zm-30.61 26.17c3.78,-0.79 4.69,4.91 1.11,5.55 -3.72,0.66 -4.77,-4.79 -1.11,-5.55zm-10.79 -13.74c-0.67,-3.89 4.88,-4.64 5.59,-1.17 0.35,1.72 -0.84,3.11 -2.18,3.37 -1.73,0.34 -3.18,-0.87 -3.41,-2.2z"/>
   <path class="fil1" d="M53.02 46.13c0.08,0.29 1.21,1.36 1.66,1.78 0.37,0.34 1.39,1.82 2.14,0.9 0.67,-0.83 -0.7,-1.81 -1.09,-2.19 -0.28,-0.27 -1.46,-1.55 -1.81,-1.7l-0.35 0.02c0.1,0.49 0.02,0.36 0.33,0.61l-0.88 0.58z"/>
  </g>
 </g>
</svg>
