<?xml version="1.0" encoding="UTF-8"?>
<!DOCTYPE svg PUBLIC "-//W3C//DTD SVG 1.1//EN" "http://www.w3.org/Graphics/SVG/1.1/DTD/svg11.dtd">
<!-- Creator: CorelDRAW -->
<svg xmlns="http://www.w3.org/2000/svg" xml:space="preserve" width="640px" height="640px" version="1.1" style="shape-rendering:geometricPrecision; text-rendering:geometricPrecision; image-rendering:optimizeQuality; fill-rule:evenodd; clip-rule:evenodd"
viewBox="0 0 35.29 35.29"
 xmlns:xlink="http://www.w3.org/1999/xlink"
 xmlns:xodm="http://www.corel.com/coreldraw/odm/2003">
 <defs>
  <style type="text/css">
   <![CDATA[
    .fil0 {fill:none}
    .fil1 {fill:#002155;fill-rule:nonzero}
    .fil2 {fill:#FFC221;fill-rule:nonzero}
   ]]>
  </style>
 </defs>
 <g id="Layer_x0020_1">
  <metadata id="CorelCorpID_0Corel-Layer"/>
  <rect class="fil0" width="35.29" height="35.29"/>
 </g>
 <g id="Capa_x0020_1">
  <metadata id="CorelCorpID_1Corel-Layer"/>
  <g id="_385">
   <path class="fil1" d="M7.33 25.1l8.61 0c0,0.12 0,3.12 0,3.06 0,0.95 0.77,1.71 1.71,1.71l7.68 0c0.94,0 1.7,-0.76 1.7,-1.71 0,-0.16 0,-3.12 0,-3.06l0.93 0c1.14,0 2.06,-0.92 2.06,-2.06 0,-1.59 0,5.76 0.01,-15.55 0,-1.15 -0.94,-2.07 -2.07,-2.07l-20.63 0c-1.14,0 -2.06,0.93 -2.06,2.06l0 15.56c0,1.14 0.92,2.06 2.06,2.06l0 0zm9.64 -8.89l9.03 0 0 9.27 -9.03 0 0 -9.27zm9.03 -1.03l-9.03 0 0 -1.78c0,-0.37 0.31,-0.68 0.68,-0.68l7.68 0c0.37,0 0.67,0.31 0.67,0.68l0 1.78zm-0.67 13.66l-7.68 0c-0.37,0 -0.68,-0.3 -0.68,-0.68l0 -1.65 9.03 0 0 1.65c0,0.38 -0.3,0.68 -0.67,0.68zm2.63 -4.77l-0.93 0c0,-1.28 0,-10.73 0,-10.67 0,-0.94 -0.76,-1.71 -1.7,-1.71l-7.68 0c-0.94,0 -1.71,0.77 -1.71,1.71l0 10.67 -8.61 0c-0.57,0 -1.03,-0.46 -1.03,-1.03l0 -12.28 22.69 0 0 12.28c0,0.57 -0.46,1.03 -1.03,1.03zm-21.66 -16.59c0,-0.57 0.46,-1.03 1.03,-1.03l20.63 0c0.57,0 1.03,0.46 1.03,1.03l0 2.25 -22.69 0 0 -2.25z"/>
   <path class="fil1" d="M27.2 7.58l-6.29 0c-0.29,0 -0.52,0.23 -0.52,0.51 0,0.29 0.23,0.52 0.52,0.52l6.29 0c0.29,0 0.52,-0.23 0.52,-0.52 0,-0.28 -0.23,-0.51 -0.52,-0.51l0 0z"/>
   <path class="fil1" d="M8.12 7.55c-0.29,0 -0.54,0.26 -0.54,0.54 0,0.29 0.25,0.54 0.54,0.54 0.28,0 0.54,-0.25 0.54,-0.54 0,-0.28 -0.26,-0.54 -0.54,-0.54z"/>
   <path class="fil1" d="M10.05 7.55c-0.29,0 -0.54,0.26 -0.54,0.54 0,0.29 0.25,0.54 0.54,0.54 0.28,0 0.54,-0.25 0.54,-0.54 0,-0.28 -0.26,-0.54 -0.54,-0.54z"/>
   <path class="fil1" d="M11.98 7.55c-0.29,0 -0.54,0.26 -0.54,0.54 0,0.29 0.25,0.54 0.54,0.54 0.28,0 0.54,-0.25 0.54,-0.54 0,-0.28 -0.26,-0.54 -0.54,-0.54z"/>
   <path class="fil2" d="M22.07 19.89l-0.99 0.86 -0.11 -0.15c-0.17,-0.22 -0.49,-0.27 -0.72,-0.1 -0.23,0.18 -0.27,0.5 -0.1,0.73l0.44 0.59c0.18,0.23 0.53,0.27 0.75,0.07l1.41 -1.22c0.22,-0.18 0.24,-0.51 0.05,-0.73 -0.19,-0.21 -0.51,-0.23 -0.73,-0.05l0 0z"/>
   <path class="fil1" d="M21.74 13.47l-0.51 0c-0.29,0 -0.52,0.23 -0.52,0.52 0,0.28 0.23,0.51 0.52,0.51l0.51 0c0.29,0 0.52,-0.23 0.52,-0.51 0,-0.29 -0.23,-0.52 -0.52,-0.52l0 0z"/>
   <path class="fil1" d="M21.36 27.14c-0.29,0 -0.55,0.26 -0.55,0.55 0,0.28 0.26,0.54 0.55,0.54 0.28,0 0.54,-0.26 0.54,-0.54 0,-0.29 -0.26,-0.55 -0.54,-0.55z"/>
   <path class="fil2" d="M21.49 17.18c-1.99,0 -3.61,1.62 -3.61,3.6 0,1.99 1.62,3.61 3.61,3.61 1.98,0 3.6,-1.62 3.6,-3.61 0,-1.98 -1.62,-3.6 -3.6,-3.6zm0 6.17c-1.42,0 -2.58,-1.15 -2.58,-2.57 0,-1.41 1.16,-2.57 2.58,-2.57 1.41,0 2.57,1.16 2.57,2.57 0,1.42 -1.16,2.57 -2.57,2.57z"/>
   <path class="fil2" d="M13.97 11.9l-5.64 0c-0.42,0 -0.75,0.34 -0.75,0.76l0 2.77c0,0.41 0.33,0.75 0.75,0.75l5.64 0c0.41,0 0.75,-0.34 0.75,-0.75l0 -2.77c0,-0.42 -0.34,-0.76 -0.75,-0.76zm-0.28 3.25l-5.08 0 0 -2.21 5.08 0 0 2.21z"/>
   <path class="fil1" d="M14.2 17.36l-6.11 0c-0.28,0 -0.51,0.23 -0.51,0.51 0,0.29 0.23,0.52 0.51,0.52l6.11 0c0.29,0 0.52,-0.23 0.52,-0.52 0,-0.28 -0.23,-0.51 -0.52,-0.51z"/>
   <path class="fil1" d="M14.2 19.6l-6.11 0c-0.28,0 -0.51,0.23 -0.51,0.51 0,0.29 0.23,0.52 0.51,0.52l6.11 0c0.29,0 0.52,-0.23 0.52,-0.52 0,-0.28 -0.23,-0.51 -0.52,-0.51l0 0z"/>
   <path class="fil1" d="M14.2 21.84l-6.11 0c-0.28,0 -0.51,0.23 -0.51,0.52 0,0.28 0.23,0.51 0.51,0.51l6.11 0c0.29,0 0.52,-0.23 0.52,-0.51 0,-0.29 -0.23,-0.52 -0.52,-0.52z"/>
  </g>
 </g>
</svg>
